<?xml version="1.0" encoding="UTF-8"?> <svg xmlns="http://www.w3.org/2000/svg" xmlns:xlink="http://www.w3.org/1999/xlink" width="61px" height="50px" viewBox="0 0 61 50" version="1.1"><title>Group 154</title><defs><path d="M25,0 C11.193,0 0,11.193 0,25 L0,25 C0,38.807 11.193,50 25,50 L25,50 L29.839,50 C43.646,50 54.839,38.807 54.839,25 L54.839,25 C54.839,11.193 43.646,0 29.839,0 L29.839,0 L25,0 Z" id="path-1"></path></defs><g id="Design" stroke="none" stroke-width="1" fill="none" fill-rule="evenodd"><g id="Group-11" transform="translate(0, -0)"><g id="Group-3"><mask id="mask-2" fill="white"><use xlink:href="#path-1"></use></mask><g id="Clip-2"></g><polygon id="Fill-1" fill="#91E968" mask="url(#mask-2)" points="-1 51 55.839 51 55.839 -1 -1 -1"></polygon></g><g id="Group-10" transform="translate(13.0271, 3.1007)" fill="#020202"><path d="M13.0813,13.6065224 C13.0953,13.6385224 13.1563,13.7135224 13.1693,13.7705224 C13.1723,13.8465224 13.1733,13.8735224 13.2953,13.8905224 C13.3573,13.9095224 13.3583,13.9205224 13.3583,13.9205224 C13.2893,13.9325224 13.2453,14.0245224 13.2183,14.1755224 C13.1173,14.4605224 13.0683,14.4965224 13.1683,14.5905224 C13.1683,14.5905224 13.2133,14.6395224 13.2073,14.6585224 C13.3013,14.7425224 13.3463,14.7795224 13.4663,14.8115224 C13.5263,14.8275224 13.5203,14.8375224 13.5143,14.8475224 C13.4983,14.8765224 13.6003,14.9415224 13.7603,15.0245224 C13.8133,15.0515224 13.8603,15.0905224 13.9073,15.1315224 C13.9533,15.1725224 14.0063,15.2015224 14.1123,15.2575224 C14.2253,15.3005224 14.3313,15.3555224 14.3843,15.3835224 C14.5443,15.4665224 14.7823,15.6595224 14.8663,15.7585224 C14.8663,15.7585224 14.9083,15.8075224 14.9183,15.7885224 C14.9183,15.7885224 15.0153,15.8675224 15.0923,15.9675224 C15.2213,16.0985224 15.2583,16.1525224 15.2853,16.1105224 C15.3503,16.1205224 15.3503,16.1195224 15.4023,16.1505224 C15.5953,16.2935224 15.6673,16.4035224 15.6373,16.4505224 C15.6373,16.4505224 15.6573,16.5295224 15.7073,16.5625224 C15.7793,16.6725224 16.2713,17.1255224 16.3183,17.1625224 L16.3003,17.1905224 L16.3983,17.2605224 C16.4463,17.2945224 16.5453,17.3645224 16.5733,17.4285224 C16.6223,17.4635224 16.6223,17.4635224 16.6423,17.4335224 C16.6623,17.4035224 16.7323,17.4075224 16.7523,17.3765224 C16.8223,17.3795224 16.9123,17.3505224 17.0043,17.3195224 C17.0453,17.2555224 17.0963,17.2875224 17.1473,17.3185224 C17.1773,17.3825224 17.2273,17.4175224 17.4673,17.3735224 C17.6603,17.4035224 18.0143,16.9115224 18.1223,16.2575224 C18.1843,16.0655224 18.2093,15.7805224 18.2493,15.6285224 C18.2753,15.5125224 18.2573,15.3075224 18.2723,15.2305224 C18.2883,15.1535224 18.2453,15.0675224 18.2503,15.0295224 C18.2553,14.9915224 18.2013,14.9435224 18.2113,14.8685224 C18.1543,14.7835224 18.2013,14.5995224 18.2703,14.1845224 C18.2853,13.6155224 18.2703,13.1475224 18.0243,12.3445224 C17.6713,11.4935224 17.5493,11.3435224 17.4673,11.1295224 C17.0393,10.2065224 16.6123,9.69552242 16.3503,9.40852242 C16.0943,9.11052242 15.9803,9.02852242 15.9713,9.01052242 C15.9583,8.90552242 15.3123,8.42452242 14.9653,8.33952242 C14.7863,8.31452242 14.6763,8.25852242 14.6603,8.18752242 C14.6603,8.18752242 14.5003,8.12052242 14.3193,8.11652242 C14.1033,8.09052242 13.8573,8.02852242 13.7333,7.99552242 C13.6133,7.95852242 13.3723,7.85352242 13.2423,7.83652242 C13.1153,7.81652242 12.9513,7.73152242 12.8673,7.67052242 C12.7853,7.61652242 12.5613,7.49952242 11.7963,7.56952242 C11.2573,7.63452242 10.6283,7.87452242 10.3543,8.00452242 C10.0583,8.10552242 9.5183,8.47152242 9.1473,8.74552242 C8.3833,9.40752242 8.1823,9.75452242 8.2383,9.85152242 C8.2593,9.91952242 8.1633,10.0395224 8.0913,10.0345224 C7.9563,9.98552242 7.6703,10.6445224 7.7813,10.7025224 C7.8103,10.7645224 7.7583,10.8615224 7.7063,10.8325224 C7.6563,10.8035224 7.5233,11.0365224 7.3983,11.3105224 C7.2743,11.5855224 7.0823,11.9565224 7.0463,12.1035224 C6.7893,12.7355224 6.6423,13.6915224 6.7263,14.4915224 C6.7963,15.2945224 7.0633,15.9175224 7.1753,15.9745224 C7.1893,16.0095224 7.2143,16.1175224 7.2743,16.2565224 C7.2643,16.3825224 7.4243,16.6425224 7.5183,16.8085224 C7.6603,16.9505224 7.8163,17.1175224 7.8383,17.1485224 C7.8783,17.2125224 8.0313,17.3385224 8.1133,17.4615224 C8.2633,17.5825224 8.2713,17.6705224 8.2923,17.7025224 C8.2683,17.7685224 8.2933,17.8965224 8.3673,17.9855224 C8.4613,18.1065224 8.5053,18.2265224 8.5313,18.2565224 C8.5593,18.2825224 8.6923,18.4295224 8.9083,18.5415224 C9.2833,18.7705224 9.2533,18.7875224 9.8763,19.2365224 C10.2733,19.5285224 10.6003,19.6395224 10.8493,19.6655224 C11.3053,19.7315224 11.3803,19.7485224 11.4933,19.8265224 C11.7433,19.9155224 12.8663,19.8135224 13.0483,19.6995224 C13.4223,19.4685224 14.1573,19.2035224 14.9023,18.6725224 C15.0843,18.5535224 15.2273,18.3815224 15.2543,18.3605224 C15.2733,18.2685224 15.2993,18.2475224 15.4183,18.2265224 C15.4723,18.1805224 15.5533,18.1115224 15.6073,18.0665224 C15.6223,17.9765224 15.7393,17.8525224 15.8363,17.7535224 C16.0253,17.6455224 15.9983,17.5745224 15.9493,17.4465224 C15.9243,17.3815224 15.8713,17.2555224 15.8903,17.2315224 C15.9523,17.1535224 15.8173,16.9365224 15.5743,16.7615224 C15.4813,16.6845224 15.3433,16.5695224 15.2513,16.4925224 C15.1693,16.4025224 15.1043,16.3875224 15.0413,16.3715224 C14.9623,16.3735224 14.9153,16.3375224 14.8673,16.3015224 C14.8193,16.2655224 14.7573,16.2465224 14.7433,16.2635224 C14.6823,16.2445224 14.6353,16.2075224 14.5873,16.1705224 L14.5403,16.1335224 C14.4803,16.1125224 14.4673,16.1285224 14.4213,16.0905224 C14.3223,16.0175224 13.9723,15.8935224 13.8833,15.8895224 C13.7923,15.8945224 13.6583,15.8635224 13.5853,15.7655224 C13.5433,15.7215224 13.5363,15.7355224 13.5053,15.7605224 C13.4743,15.7845224 13.4743,15.7855224 13.4853,15.7765224 L13.4753,15.7085224 L13.3653,15.6425224 C13.3163,15.6045224 13.2603,15.5735224 13.2513,15.5805224 C13.2433,15.5865224 13.2263,15.6015224 13.1893,15.5545224 C13.1503,15.5175224 12.9503,15.4305224 12.9093,15.4615224 C12.8793,15.4735224 12.8363,15.4295224 12.7973,15.3825224 C12.7303,15.2825224 12.6963,15.2345224 12.6913,15.2385224 C12.6813,15.2405224 12.6603,15.2465224 12.6253,15.1975224 C12.5883,15.1545224 12.5713,15.1495224 12.5623,15.2185224 C12.5483,15.2255224 12.4863,15.2955224 12.4143,15.2925224 C12.3013,15.2835224 12.2963,15.2695224 12.2273,15.3815224 C12.1673,15.4805224 12.1443,15.4805224 12.0813,15.4485224 C12.0143,15.4115224 11.9493,15.3855224 11.9483,15.1435224 C11.9073,15.0395224 11.8163,14.7245224 11.7583,14.5435224 C11.5603,14.1485224 11.6013,14.0175224 11.5253,13.9565224 C11.4433,13.8275224 11.5363,13.3275224 11.6723,13.2175224 C11.7203,13.1275224 11.7393,13.0745224 11.7833,13.0185224 C11.7523,12.9445224 11.7523,12.8525224 11.7863,12.8095224 C11.7643,12.7295224 11.8023,12.7075224 11.7573,12.6635224 C11.7633,12.6565224 11.7763,12.6435224 11.7893,12.6295224 C11.9013,12.6785224 12.0653,12.5485224 12.1073,12.4725224 C12.1253,12.4025224 12.2613,12.3415224 12.3243,12.4055224 C12.3363,12.4025224 12.4183,12.3875224 12.5043,12.3965224 C12.5823,12.4715224 12.6603,12.4825224 12.6553,12.5535224 C12.6693,12.5645224 12.6803,12.6185224 12.6693,12.6895224 C12.6833,12.6975224 12.6973,12.7705224 12.7363,12.7995224 C12.7743,12.8255224 12.7673,12.9045224 12.7733,12.9035224 C12.7733,12.9035224 12.7933,12.9245224 12.8643,12.9125224 C12.8943,12.9305224 12.9323,12.9955224 12.9683,13.0325224 C12.9943,13.0805224 13.0193,13.1105224 13.0243,13.1165224 C13.1273,13.0505224 13.2323,13.1345224 13.1813,13.1595224 C13.1313,13.1845224 13.1553,13.2405224 13.2123,13.2275224 L13.2233,13.2535224 C13.1703,13.2865224 13.1423,13.3565224 13.0953,13.4285224 C13.1083,13.4715224 13.0653,13.5285224 13.0653,13.5285224 C13.0673,13.5365224 13.0723,13.5635224 13.0813,13.6065224 L13.0813,13.6065224 Z M13.5323,15.8935224 C13.6103,15.9845224 13.6363,16.0405224 13.5533,16.0325224 C13.4933,16.0055224 13.4833,16.0145224 13.4683,15.9475224 C13.4623,15.8725224 13.4923,15.8475224 13.5323,15.8935224 L13.5323,15.8935224 Z M13.9593,16.3965224 C14.0513,16.4755224 14.0753,16.5335224 14.0063,16.5135224 C13.9763,16.5385224 13.9393,16.4915224 13.9013,16.4445224 C13.8413,16.3385224 13.8663,16.3175224 13.9593,16.3965224 L13.9593,16.3965224 Z M13.2033,17.2185224 C13.2793,17.3215224 13.2813,17.3205224 13.2563,17.3905224 C13.2293,17.4605224 13.1313,17.3635224 13.1023,17.2475224 C13.0533,17.1365224 13.1283,17.1145224 13.2033,17.2185224 L13.2033,17.2185224 Z M14.8293,16.9815224 C14.9253,16.9685224 14.9703,17.0085224 14.9553,17.1095224 C14.9403,17.2115224 14.8193,17.1635224 14.7383,17.0745224 C14.6763,16.9685224 14.6903,16.9515224 14.8293,16.9815224 L14.8293,16.9815224 Z" id="Fill-4"></path><path d="M46.762,33.4374224 C46.99,32.2404224 47.001,31.7924224 46.917,31.4834224 C46.887,31.1814224 46.902,31.0334224 46.902,31.0334224 C46.984,30.9164224 47.107,29.4614224 47.09,27.4304224 C47.15,23.3554224 47.15,22.3034224 47.03,21.6454224 C47.03,21.6454224 46.97,21.2514224 46.97,20.9884224 C46.85,20.4624224 46.79,20.3304224 46.67,20.5944224 C46.61,20.7254224 46.61,20.5944224 46.61,20.4624224 C46.61,20.0684224 46.49,19.9364224 46.31,19.9364224 C46.25,19.9364224 46.19,19.8054224 46.13,19.6734224 C46.07,19.5424224 46.01,19.5424224 45.89,19.5424224 C45.77,19.6734224 45.65,19.6734224 45.59,19.6734224 C45.41,19.6734224 45.11,19.2794224 44.99,19.0164224 C44.99,19.0164224 44.93,18.8844224 44.93,19.0164224 C44.93,19.0164224 44.81,18.8844224 44.69,18.6214224 C44.51,18.3584224 44.45,18.2274224 44.45,18.4904224 C44.39,18.6214224 44.39,18.6214224 44.33,18.6214224 C44.09,18.4904224 43.97,18.2274224 43.97,17.9644224 C43.97,17.9644224 43.91,17.7014224 43.85,17.7014224 C43.73,17.4384224 43.07,17.0444224 43.01,17.0444224 L43.01,16.9124224 L42.89,16.9124224 C42.83,16.9124224 42.71,16.9124224 42.65,16.7814224 C42.59,16.7814224 42.59,16.7814224 42.59,16.9124224 C42.59,17.0444224 42.53,17.1754224 42.53,17.3074224 C42.47,17.4384224 42.41,17.7014224 42.35,17.9644224 C42.35,18.2274224 42.29,18.2274224 42.23,18.2274224 C42.17,18.0954224 42.11,18.0954224 41.93,18.6214224 C41.75,18.8844224 41.69,20.7254224 41.81,22.8294224 C41.827,23.4184224 41.857,24.4614224 41.87,24.9324224 C41.87,25.3274224 41.93,25.9844224 41.93,26.2474224 C41.93,26.5104224 41.99,26.7734224 41.99,26.9044224 C41.99,27.0364224 42.05,27.1674224 42.05,27.4304224 C42.103,27.6684224 42.125,28.4084224 42.035,29.7394224 C42.021,30.1754224 42.016,30.5904224 41.962,30.9954224 C41.927,31.4064224 41.885,31.8154224 41.802,32.2364224 C41.675,33.0904224 41.444,34.0144224 41.01,35.1144224 C40.544,36.3184224 40.099,36.9304224 39.788,37.3324224 C39.62,37.5334224 39.497,37.6824224 39.389,37.8114224 C39.263,37.9254224 39.158,38.0214224 39.046,38.1224224 C38.051,39.0004224 37.055,39.3994224 36.22,39.6124224 C35.387,39.8404224 34.698,39.8564224 34.186,39.8664224 C33.146,39.8444224 32.795,39.7744224 32.749,39.7624224 C32.652,39.7064224 32.094,39.6564224 31.507,39.4814224 C30.907,39.3374224 30.277,39.0874224 29.911,38.9264224 C29.511,38.8224224 29.279,38.6184224 29.221,38.5274224 C29.221,38.5274224 28.881,38.3244224 28.543,38.1054224 C28.319,37.9824224 28.111,37.7974224 27.93,37.6184224 C27.741,37.4494224 27.583,37.2834224 27.494,37.1554224 C27.419,37.0514224 27.281,36.8614224 27.132,36.6584224 C27.021,36.4514224 26.908,36.2474224 26.823,36.1174224 C26.636,35.8704224 26.535,35.4394224 26.483,35.2384224 C26.455,35.1374224 26.408,34.9584224 26.296,34.5914224 C26.171,34.2334224 25.988,33.6804224 25.799,32.7754224 C25.656,32.1424224 25.555,31.3884224 25.505,30.7084224 C25.489,30.3564224 25.457,30.0624224 25.453,29.7304224 C25.454,29.3844224 25.454,29.0924224 25.455,28.8654224 C25.453,27.9684224 25.45,25.9354224 25.448,24.5264224 C25.437,21.3724224 25.419,20.0514224 25.302,19.9204224 C25.242,19.7884224 25.242,19.2614224 25.302,19.1294224 C25.422,18.9984224 25.302,16.6264224 25.182,16.6264224 C25.122,16.4944224 25.122,16.0994224 25.182,16.0994224 C25.236,16.0834224 25.262,15.2304224 25.207,14.0194224 C25.207,13.4384224 25.109,12.7384224 25.067,12.1134224 C24.979,11.4884224 24.886,10.9354224 24.832,10.6414224 C24.553,9.32142242 24.069,7.72742242 23.204,6.18342242 C22.354,4.63842242 21.094,3.17542242 19.665,2.15842242 C18.241,1.13742242 16.724,0.53042242 15.565,0.29842242 C14.407,0.0494224203 13.611,0.0114224203 13.416,0.0554224203 C13.261,0.0524224203 12.789,0.0064224203 12.171,0.0084224203 C11.94,-0.0115775797 11.517,0.0064224203 11.056,0.0374224203 C10.594,0.0854224203 10.089,0.18842242 9.702,0.24142242 C8.934,0.45642242 8.035,0.77942242 7.889,0.85842242 C7.738,0.91442242 7.48,1.02742242 7.187,1.15642242 C6.857,1.33442242 6.534,1.50742242 6.295,1.63642242 C5.617,2.07642242 5.34,2.25142242 5.198,2.33142242 C5.019,2.36042242 4.608,2.63442242 4.236,2.96042242 C3.734,3.38542242 3.399,3.74442242 3.276,3.85642242 C3.156,3.96742242 2.638,4.61042242 2.186,5.45642242 C1.759,6.22342242 1.603,6.61942242 1.372,7.15342242 C1.244,7.41842242 1.135,7.72342242 0.99,8.13242242 C0.829,8.54042242 0.674,9.05442242 0.498,9.74542242 C0.069,11.4864224 -0.012,12.6634224 0.026,13.5264224 C0.036,14.3404224 0.042,14.7764224 0.045,15.0504224 C0.045,15.3464224 0.03,15.5104224 0,15.7074224 C0,16.4964224 0.12,20.0464224 0.18,20.7044224 C0.36,22.0184224 0.48,24.6484224 0.54,27.9354224 C0.54,28.7244224 0.6,29.5134224 0.6,29.6444224 C0.66,29.9074224 0.66,30.0394224 0.6,30.4334224 L0.6,31.3534224 C0.66,31.6164224 0.66,32.2744224 0.66,32.8004224 C0.6,33.5894224 0.66,33.7204224 0.78,33.9834224 C0.84,34.1144224 0.96,34.3774224 0.96,34.5094224 C0.96,34.9034224 1.2,35.2984224 1.5,35.2984224 C1.62,35.2984224 1.8,35.4294224 1.92,35.4294224 C2.04,35.5614224 2.1,35.4294224 2.16,35.2984224 C2.22,35.0354224 2.28,35.0354224 2.34,35.0354224 C2.4,35.0354224 2.46,34.9034224 2.46,34.7724224 C2.52,34.6404224 2.58,34.6404224 2.64,34.6404224 L2.7,34.6404224 C2.76,34.5094224 2.76,34.3774224 2.82,34.3774224 C2.94,34.3774224 3.3,33.4574224 3.36,32.9314224 C3.42,32.4054224 3.54,31.7484224 3.66,31.8794224 C3.72,31.8794224 3.72,31.7484224 3.72,31.3534224 L3.72,31.0904224 L3.78,31.4854224 L3.9,31.0904224 C3.96,30.9594224 4.02,30.6964224 4.02,30.5644224 C4.02,30.4334224 4.02,30.1704224 4.08,30.1704224 C4.14,30.1704224 4.32,28.5924224 4.32,27.6724224 C4.32,27.1464224 4.38,26.8834224 4.44,26.6204224 C4.56,26.3574224 4.62,26.0944224 4.62,25.9634224 C4.62,25.7004224 4.62,25.1744224 4.68,24.7794224 C4.74,24.2544224 4.74,23.5964224 4.68,22.8074224 C4.674,22.2934224 4.646,20.0014224 4.62,17.9434224 C4.612,16.2474224 4.608,15.3594224 4.605,14.7214224 C4.59,14.1284224 4.58,13.9444224 4.527,13.5744224 C4.419,13.1004224 4.439,12.7414224 4.6,11.6074224 C4.688,10.9824224 4.819,10.4984224 5,9.90342242 C5.222,9.33942242 5.476,8.62842242 6.082,7.82642242 C6.414,7.32542242 7.198,6.33342242 8.336,5.70042242 C9.483,5.07842242 10.994,4.81042242 12.12,4.81442242 C14.57,4.76942242 15.766,5.46542242 16.499,5.89642242 C17.223,6.36442242 17.498,6.65242242 17.771,6.86342242 C18.205,7.25442242 19.178,8.38742242 19.729,9.94542242 C20.324,11.4704224 20.526,13.2734224 20.532,14.2464224 C20.543,14.5624224 20.553,14.8434224 20.562,15.1014224 L20.562,15.9144224 L20.562,17.4064224 C20.622,18.0624224 20.682,19.1124224 20.682,19.8994224 C20.742,20.5554224 20.742,21.2114224 20.802,21.2124224 C20.802,21.3434224 20.802,21.6064224 20.801,21.8684224 C20.675,22.3934224 20.626,26.3374224 20.668,27.7844224 C20.697,28.2564224 20.686,29.1044224 20.695,30.0794224 C20.702,31.1234224 20.807,32.2014224 20.868,32.8754224 C20.942,33.1614224 21.193,35.2914224 22.275,37.4194224 C22.739,38.5054224 23.451,39.4994224 24.06,40.2534224 C24.699,40.9894224 25.231,41.5034224 25.413,41.6694224 C25.559,41.7934224 25.821,42.0164224 26.182,42.3234224 C26.453,42.5254224 26.782,42.7704224 27.096,43.0034224 C27.305,43.1394224 27.786,43.3774224 28.374,43.6824224 C28.98,43.9304224 29.708,44.2394224 30.423,44.3894224 C31.684,44.7104224 32.797,44.8344224 32.953,44.8384224 C32.953,44.8384224 33.133,44.8434224 33.468,44.8544224 C33.782,44.8724224 34.223,44.8514224 34.707,44.7874224 C35.506,44.8094224 37.142,44.4934224 38.255,44.1304224 C38.802,43.9104224 39.274,43.7254224 39.616,43.5624224 C39.95,43.3784224 40.172,43.2564224 40.246,43.2154224 C40.225,43.1584224 41.967,41.8714224 41.967,41.8714224 C42,41.9154224 42.887,41.1404224 42.929,40.9594224 L43.255,40.5894224 C43.328,40.5444224 43.554,40.3554224 43.814,40.0644224 C44.059,39.7664224 44.381,39.3874224 44.666,38.9904224 C44.845,38.6934224 45.049,38.3534224 45.24,38.0364224 C45.401,37.7784224 45.484,37.6004224 45.484,37.6004224 C45.538,37.4524224 45.775,37.0234224 46.038,36.2834224 C46.268,35.6924224 46.61,34.3334224 46.762,33.4374224 Z M3.6,30.6964224 C3.48,30.6964224 3.42,30.5644224 3.48,30.0394224 C3.54,29.7764224 3.54,29.6444224 3.6,29.9074224 C3.66,30.3024224 3.66,30.6964224 3.6,30.6964224 L3.6,30.6964224 Z M2.94,30.6964224 C2.82,30.8274224 2.76,30.6964224 2.82,30.4334224 C2.82,30.1704224 2.88,30.1704224 2.94,30.1704224 C3.06,30.3024224 3.06,30.5644224 2.94,30.6964224 L2.94,30.6964224 Z M2.76,30.4334224 C2.76,30.5644224 2.7,30.5644224 2.7,30.5644224 C2.64,30.5644224 2.64,30.5644224 2.64,30.4334224 C2.64,30.4334224 2.64,30.3024224 2.7,30.3024224 L2.76,30.4334224 Z M2.58,23.5964224 C2.46,23.8594224 2.46,23.8594224 2.4,23.5964224 C2.34,23.3334224 2.46,22.9394224 2.58,22.9394224 C2.7,22.8074224 2.7,23.3334224 2.58,23.5964224 L2.58,23.5964224 Z M2.4,28.9874224 L2.4,29.1184224 L2.4,28.8554224 L2.4,28.9874224 Z M2.28,24.7794224 L2.28,24.9114224 L2.28,24.5174224 L2.28,24.7794224 Z M1.92,32.1424224 C1.86,32.5374224 1.8,32.5374224 1.74,32.1424224 C1.68,31.7484224 1.8,31.4854224 1.92,31.4854224 C2.04,31.6164224 2.04,31.7484224 1.92,32.1424224 L1.92,32.1424224 Z" id="Fill-6"></path><path d="M33.4418,29.5958224 C33.4528,29.5768224 33.4588,29.5158224 33.4798,29.4928224 C33.5138,29.4818224 33.5208,29.4718224 33.4788,29.3578224 C33.4628,29.3008224 33.4678,29.2998224 33.4678,29.2998224 C33.4988,29.3528224 33.5598,29.3908224 33.6118,29.3768224 C33.7188,29.4298224 33.7158,29.4258224 33.7558,29.3158224 C33.7558,29.3158224 33.7758,29.2588224 33.7848,29.2588224 C33.8248,29.1398224 33.8488,29.0858224 33.8608,28.9648224 C33.8668,28.9068224 33.8738,28.9048224 33.8808,28.9078224 C33.9008,28.9168224 33.9378,28.8018224 33.9838,28.6278224 C33.9988,28.5698224 34.0238,28.5148224 34.0508,28.4598224 C34.0768,28.4058224 34.0938,28.3478224 34.1268,28.2328224 C34.1468,28.1138224 34.1778,27.9978224 34.1938,27.9398224 C34.2398,27.7658224 34.3728,27.4908224 34.4508,27.3878224 C34.4508,27.3878224 34.4888,27.3368224 34.4688,27.3308224 C34.4688,27.3308224 34.5248,27.2208224 34.6078,27.1218224 C34.7088,26.9688224 34.7548,26.9228224 34.7088,26.9038224 C34.7058,26.8378224 34.7048,26.8378224 34.7248,26.7818224 C34.8258,26.5638224 34.9208,26.4718224 34.9728,26.4938224 C34.9728,26.4938224 35.0478,26.4588224 35.0708,26.4038224 C35.1648,26.3118224 35.5238,25.7458224 35.5518,25.6928224 L35.5848,25.7068224 C35.5848,25.7068224 35.6098,25.6528224 35.6348,25.5978224 C35.6598,25.5438224 35.7098,25.4348224 35.7708,25.3948224 C35.7958,25.3408224 35.7958,25.3408224 35.7598,25.3258224 C35.7248,25.3108224 35.7128,25.2408224 35.6768,25.2258224 C35.6648,25.1548224 35.6138,25.0698224 35.5598,24.9838224 C35.4848,24.9538224 35.5058,24.8978224 35.5268,24.8408224 C35.5848,24.7998224 35.6118,24.7448224 35.5078,24.5128224 C35.4918,24.3198224 34.8718,24.0398224 34.1158,24.1058224 C33.8838,24.0888224 33.5628,24.1408224 33.3828,24.1598224 C33.2448,24.1678224 33.0238,24.2418224 32.9378,24.2608224 C32.8488,24.2748224 32.7698,24.3488224 32.7268,24.3568224 C32.6828,24.3648224 32.6508,24.4308224 32.5648,24.4468224 C32.4898,24.5218224 32.2838,24.5668224 31.8138,24.6638224 C31.2118,24.8908224 30.7378,25.1358224 30.0798,25.7598224 C29.4428,26.5078224 29.3828,26.6878224 29.2298,26.8708224 C28.6228,27.7028224 28.4028,28.2858224 28.2738,28.6268224 C28.1368,28.9708224 28.1138,29.0938224 28.1048,29.1108224 C28.0188,29.1678224 27.8918,29.8888224 27.9498,30.1958224 C28.0028,30.3498224 27.9998,30.4598224 27.9388,30.4968224 C27.9388,30.4968224 27.9328,30.6488224 28.0018,30.7968224 C28.0708,30.9808224 28.0798,31.2018224 28.0988,31.3118224 C28.1128,31.4218224 28.0828,31.6518224 28.1018,31.7628224 C28.1248,31.8728224 28.0978,32.0318224 28.0568,32.1208224 C28.0178,32.2068224 27.9848,32.4158224 28.2168,33.0438224 C28.3828,33.4878224 28.7228,33.9848224 28.8838,34.2148224 C29.0248,34.4578224 29.4518,34.8998224 29.7748,35.2128224 C30.5368,35.8488224 30.9418,36.0148224 31.0268,35.9388224 C31.0928,35.9068224 31.2338,35.9838224 31.2438,36.0568224 C31.2148,36.2008224 31.9688,36.3798224 32.0038,36.2568224 C32.0608,36.2158224 32.1778,36.2478224 32.1608,36.3058224 C32.1438,36.3578224 32.4188,36.4578224 32.7508,36.5138224 C33.0788,36.5838224 33.5428,36.6608224 33.7158,36.6638224 C34.4878,36.7398224 35.5848,36.4968224 36.3518,36.0368224 C37.1328,35.5908224 37.5748,35.0248224 37.5778,34.8988224 C37.6048,34.8708224 37.6908,34.7888224 37.7878,34.6668224 C37.9068,34.6158224 38.0648,34.3378224 38.1638,34.1768224 C38.2348,33.9538224 38.3048,33.7348224 38.3068,33.7298224 C38.3428,33.6638224 38.3788,33.4728224 38.4458,33.3438224 C38.4738,33.1548224 38.5498,33.1128224 38.5658,33.0788224 C38.6348,33.0698224 38.7338,32.9918224 38.7758,32.8888224 C38.8348,32.7528224 38.9168,32.6658224 38.9308,32.6308224 C38.9408,32.5958224 39.0028,32.4188224 39.0018,32.1918224 C39.0278,31.7838224 39.0478,31.7948224 39.1858,31.1138224 C39.2738,30.6818224 39.2668,30.3818224 39.1898,30.1688224 C39.1038,29.7748224 39.0768,29.7088224 39.1268,29.5908224 C39.1168,29.3648224 38.7418,28.4488224 38.5958,28.3168224 C38.3008,28.0488224 37.9078,27.4648224 37.2918,26.8428224 C37.1468,26.6868224 36.9578,26.5798224 36.9338,26.5558224 C36.8428,26.5498224 36.8158,26.5308224 36.7758,26.4158224 C36.7228,26.3708224 36.6418,26.3028224 36.5888,26.2568224 C36.5008,26.2548224 36.3548,26.1588224 36.2398,26.0788224 C36.0988,25.9078224 36.0328,25.9428224 35.9118,26.0138224 C35.8518,26.0488224 35.7348,26.1218224 35.7058,26.1068224 C35.6168,26.0588224 35.4238,26.2288224 35.2958,26.4998224 C35.2368,26.6048224 35.1488,26.7618224 35.0898,26.8658224 C35.0168,26.9628224 35.0138,27.0288224 35.0088,27.0948224 C35.0248,27.1708224 34.9968,27.2248224 34.9698,27.2778224 C34.9438,27.3318224 34.9358,27.3958224 34.9548,27.4058224 C34.9468,27.4698224 34.9178,27.5228224 34.8898,27.5758224 L34.8618,27.6288224 C34.8508,27.6908224 34.8678,27.6998224 34.8388,27.7528224 C34.7858,27.8618224 34.7138,28.2248224 34.7228,28.3118224 C34.7408,28.3988224 34.7288,28.5328224 34.6448,28.6208224 C34.6078,28.6698224 34.6208,28.6728224 34.6488,28.7008224 C34.6788,28.7268224 34.6788,28.7268224 34.6688,28.7188224 L34.6028,28.7398224 L34.5548,28.8578224 C34.5258,28.9128224 34.5038,28.9728224 34.5118,28.9798224 C34.5198,28.9868224 34.5378,28.9998224 34.4968,29.0448224 C34.4638,29.0868224 34.4168,29.3048224 34.4598,29.3488224 C34.4838,29.3818224 34.4488,29.4338224 34.4128,29.4848224 C34.3288,29.5718224 34.2908,29.6178224 34.2968,29.6238224 C34.3048,29.6388224 34.3218,29.6698224 34.2858,29.7218224 C34.2558,29.7788224 34.2718,29.8128224 34.3488,29.8328224 C34.3708,29.8558224 34.4818,29.9828224 34.5288,30.1378224 C34.5838,30.3948224 34.5768,30.4158224 34.6998,30.4718224 C34.8178,30.5088224 34.8328,30.5468224 34.8218,30.6618224 C34.8218,30.7838224 34.8068,30.8838224 34.5878,31.0478224 C34.5038,31.1738224 34.2408,31.4578224 34.1448,31.5408224 C33.9728,31.8128224 33.9238,31.7888224 33.9178,31.8698224 C33.8798,31.9658224 33.6538,31.9968224 33.6008,31.9118224 C33.5558,31.8998224 33.5278,31.8998224 33.4898,31.8778224 C33.4438,31.9298224 33.3718,31.9558224 33.3348,31.9368224 C33.2718,31.9788224 33.2448,31.9448224 33.2098,31.9988224 C33.2038,31.9938224 33.1898,31.9858224 33.1768,31.9768224 C33.2198,31.8648224 33.0558,31.7198224 32.9468,31.6588224 C32.8618,31.6428224 32.7468,31.4618224 32.7718,31.3448224 C32.7628,31.3258224 32.7018,31.1898224 32.6688,31.0248224 C32.6848,30.8508224 32.6818,30.6888224 32.7398,30.6548224 C32.7348,30.6218224 32.7958,30.5578224 32.8598,30.5218224 C32.8558,30.4898224 32.9278,30.3988224 32.9378,30.3168224 C32.9538,30.2418224 33.0268,30.1938224 33.0268,30.1848224 C33.0268,30.1848224 33.0408,30.1438224 32.9998,30.0728224 C33.0068,30.0248224 33.0518,29.9478224 33.0698,29.8878224 C33.1008,29.8388224 33.1178,29.8018224 33.1208,29.7938224 C33.0108,29.7308224 33.0308,29.6098224 33.0768,29.6418224 C33.1258,29.6738224 33.1548,29.6288224 33.1148,29.5888224 L33.1308,29.5708224 C33.1848,29.6058224 33.2518,29.5988224 33.3248,29.6218224 C33.3478,29.6018224 33.4058,29.6228224 33.4058,29.6228224 C33.4098,29.6198224 33.4238,29.6128224 33.4418,29.5958224 L33.4418,29.5958224 Z M34.7758,28.6528224 C34.8538,28.5608224 34.9048,28.5268224 34.9108,28.6088224 C34.8928,28.6718224 34.9038,28.6798224 34.8408,28.7058224 C34.7668,28.7238224 34.7378,28.6988224 34.7758,28.6528224 L34.7758,28.6528224 Z M35.2048,28.1508224 C35.2678,28.0468224 35.3208,28.0138224 35.3118,28.0848224 C35.3418,28.1098224 35.3018,28.1538224 35.2608,28.1988224 C35.1668,28.2758224 35.1408,28.2538224 35.2048,28.1508224 L35.2048,28.1508224 Z M36.1608,28.7658224 C36.2448,28.6688224 36.2438,28.6668224 36.3178,28.6788224 C36.3918,28.6898224 36.3178,28.8078224 36.2098,28.8618224 C36.1128,28.9348224 36.0748,28.8618224 36.1608,28.7658224 L36.1608,28.7658224 Z M35.6438,27.1978224 C35.6158,27.1058224 35.6478,27.0548224 35.7498,27.0528224 C35.8538,27.0498224 35.8238,27.1798224 35.7488,27.2738224 C35.6548,27.3508224 35.6368,27.3388224 35.6438,27.1978224 L35.6438,27.1978224 Z" id="Fill-8"></path></g></g></g></svg> 