<?xml version="1.0" encoding="UTF-8"?> <svg xmlns="http://www.w3.org/2000/svg" id="Layer_2" viewBox="0 0 163.23 39.98"><defs><style>.cls-1{fill:none;}.cls-1,.cls-2{stroke-width:0px;}.cls-2{fill:#fff;}</style></defs><g id="Layer_1-2"><rect class="cls-1" width="163.23" height="39.98"></rect><path class="cls-2" d="m160.63,21.08c-.71-.71-1.54-1.27-2.39-1.81-1.07-.68-2.21-1.27-3.12-2.17-1.39-1.38-.96-3.15.93-3.74,1.87-.59,3.49-.05,4.93,1.19.27.24.39.67.9.72.12-1.15.22-2.28.37-3.41.06-.44-.04-.63-.49-.68-2.27-.25-4.53-.6-6.8-.04-3.41.84-5.14,3.55-4.14,6.6.46,1.42,1.57,2.33,2.72,3.19,1.27.94,2.75,1.56,3.93,2.63.76.69,1.18,1.52.92,2.57-.27,1.09-1.09,1.65-2.12,1.91-2.59.66-5.14-.51-6.41-2.92-.21-.3-.4-.18-.42.09-.04.51,0,1.02,0,1.53,0,0,0,0,0,0,0,0,0,0,0,0-.03.73-.03,1.45-.1,2.18-.03.36.06.6.41.71,3.47,1.07,6.92,1.45,10.15-.65,2.89-1.88,3.18-5.47.74-7.9Z"></path><path class="cls-2" d="m100.9,13.14c1.6.23,2.63,1.27,3.59,2.53.1-.7.18-1.27.25-1.84.09-.83.49-1.83.17-2.46-.37-.74-1.54-.34-2.33-.44-3.95-.47-7.61.08-10.16,3.53-1.93,2.62-2.53,5.63-2.1,8.81.68,4.97,3.96,7.52,8.99,7.12,2.71-.21,5.03-2.13,5.66-4.72-1.05.56-1.99,1.21-3.08,1.56-3.48,1.14-6.57-.37-7.43-3.76-.69-2.74-.28-5.41,1.14-7.86,1.16-1.99,2.97-2.81,5.3-2.48Z"></path><path class="cls-2" d="m150.54,11.28c-1.26,0-2.35.03-3.43-.01-.84-.03-1.54-.04-1.22,1.14.07.26-.02.62-.15.88-1.05,2.08-2.41,3.96-3.78,6.01-1-2.31-1.9-4.44-2.85-6.55-.32-.71-.6-1.53-1.57-1.65-.77,0-1.54,0-2.31,0-.52-.03-1.05-.07-1.57.17,2.18,2.72,3.6,5.74,4.83,8.87.51,1.3.79,2.6.69,4-.13,2.01-.35,4.01-1.02,5.95h4.92c-.15-.42-.28-.77-.41-1.12,0-1.14,0-2.28-.01-3.43.04-2.96,1.4-5.41,3.05-7.76,1.52-2.18,2.94-4.42,4.83-6.5Z"></path><path class="cls-2" d="m128.79,11.5h0c-1.33-.33-2.65-.39-3.98.02h0c.18.67,0,1.28-.28,1.88-1.91,4.17-3.77,8.36-5.93,12.42-.58,1.08-1.46,1.57-2.54,1.74-1.1.18-2.23.17-3.35.22-.99.05-1.43-.46-1.34-1.41.47-5,.37-10.06,1.51-14.97h-4.5c.24,6.18-.19,12.25-1.28,18.29h0s0,0,0,0c-.43.77.28.48.51.48,3.99.02,7.98.02,11.96,0,.2,0,.57.2.57-.27h0c.05-1.66.87-3.06,1.54-4.52.22-.47.59-.52,1.04-.52,1.12.01,2.24-.02,3.36-.02.94,0,2.07-.83,2.72-.21.6.56.56,1.77.86,2.67,1.21,3.71,1.12,3.13,4.3,3.07.37,0,.74,0,1.33,0-1.8-2.13-2.4-4.54-3.09-6.91-1.16-3.99-2.28-7.99-3.42-11.98Zm-1.47,10.67c-1.16-.02-2.32-.04-3.48,0-.78.03-.7-.29-.45-.8.9-1.85,1.78-3.71,2.8-5.85.63,2.16,1.17,4.05,1.75,5.93.19.63-.08.72-.62.71Z"></path><path class="cls-2" d="m85.15,19.64c1.95-1.24,2.77-3.36,2.22-5.58-.42-1.66-1.7-2.49-4.21-2.73h0c-2.48-.02-4.95,0-7.43-.06-.7-.02-.68.24-.43.7h0c.05.84.18,1.68.12,2.51-.38,5.22-.36,10.49-1.59,15.62h4.64c-.55-2.24-.13-4.45-.15-6.65,0-.58-.25-1.46.36-1.65.66-.2,1.07.62,1.45,1.13,1.7,2.28,3.38,4.57,5.04,6.87.35.48.71.96,1.33,1.01,1.44.11,2.88.09,4.39-.08-2.91-3.22-5.26-6.7-7.89-9.97.78-.4,1.49-.71,2.13-1.12Zm-2.93-1.01c-.45.28-.97.5-1.48.62-1.77.43-2.04.16-1.84-1.6.12-.99.25-1.98.24-2.97-.01-1.15.52-1.49,1.38-1.31,1.77.02,2.8.6,3.09,1.63.37,1.3-.22,2.9-1.39,3.62Z"></path><path class="cls-2" d="m66.01,11.51h0c-1.32-.35-2.65-.39-3.97.01h0c.23,1.19-.4,2.16-.86,3.15-2.48,5.23-4.61,10.64-8.08,15.47,1.32,0,2.52,0,3.72,0,.26,0,.66.17.63-.38-.06-1.52.76-2.77,1.3-4.11.25-.63.64-.84,1.32-.82,1.82.06,3.64,0,5.41-.45.55-.14.63.07.75.51.42,1.43.87,2.85,1.35,4.25.22.64.6,1.2,1.38,1.22,1.11.03,2.23.09,3.4-.25-1.55-1.97-2.19-4.26-2.87-6.52-1.2-4.02-2.33-8.06-3.49-12.09Zm-1.33,10.66c-1.2,0-2.39-.03-3.59,0-.75.02-.73-.26-.46-.8.9-1.85,1.78-3.71,2.79-5.85.65,2.2,1.21,4.13,1.79,6.05.15.5-.1.59-.53.59Z"></path><path class="cls-2" d="m50.11,19.78c-.44-.13-.89-.22-1.5-.37,1.41-.59,2.65-1.12,3.48-2.26,1.52-2.1.67-4.9-1.73-5.58-.51-.15-1.06-.16-1.59-.24h0,0c-2.71-.02-5.42-.03-8.13-.04-.18,0-.4-.02-.45.24.28.89.26,1.81.22,2.73-.24,5.31-.36,10.63-1.43,15.89,2.29,0,4.62.09,6.93-.02,2.6-.12,5.08-.73,6.74-2.97,2.1-2.84.86-6.38-2.54-7.37Zm-1.73-2.44c-1.1,1.24-2.63,1.42-4.15,1.35-.79-.04-.12-.83-.36-1.17.11-1.08.25-2.11.32-3.14.06-.84.47-1.1,1.28-1.04.62.05,1.24.06,1.83.25,1.76.55,2.3,2.37,1.08,3.74Zm-.41,9.78c-1.12.57-2.32.75-3.59.58-.85-.12-1.25-.47-1.1-1.36.09-.53.11-1.06.15-1.6-.02,0-.04,0-.05,0,.08-.99.19-1.98.23-2.97.02-.56.17-.82.81-.8,1.04.04,2.08.08,3.08.4,1.33.43,2.05,1.36,2.12,2.71.07,1.31-.42,2.41-1.66,3.04Z"></path><path class="cls-2" d="m15.5,35.7h-.78c-.18-.07-.35-.16-.53-.21-2.58-.77-4.86-2.08-6.95-3.76-.85-.69-.8-.69-.14-1.58.8-1.08,1.52-2.21,2.27-3.32-1.22.88-2.31,1.84-3.45,2.74-.22.17-.6.14-.9.2.04-.29.03-.6.13-.87.32-.8.68-1.59,1.02-2.38l-.18-.08c-.46.45-.91.9-1.38,1.34-.66.62-.76.63-1.3-.11C.14,23.26-.2,18.4,1.31,13.37c.74-2.44,3.28-3.73,5.72-3.26,1.93.37,2.53,1.69,1.51,3.31,1.17,1.02,3.27.39,3.83-1.14.73-2.01-.07-3-2.17-2.69-.77.11-.99-.16-.72-.9.4-1.06,1.29-1.44,2.31-1.61.55-.09,1.1-.18,1.63-.33,2.15-.62,3.86.42,4.26,2.62.09.49.04,1,.14,1.48.14.67.26,1.37.58,1.96.62,1.14,2.23,1.41,3.17.63-.65-1.07-.79-1.62-.3-2.16.4-.44.93-.88,1.49-1.05,1.69-.5,3.24-.13,4.57,1.06,1.05.94,1.66,2.13,1.91,3.51.14.76.25,1.52.38,2.28v3.11c-.04.21-.1.41-.12.62-.33,2.59-1.17,4.97-2.82,7.04-.35.44-.66.49-1.05.07-.48-.51-.99-1.01-1.62-1.65.09.44.1.7.2.93.28.65.6,1.28.87,1.94.08.19.01.43.01.65-.23,0-.47.01-.7-.04-.14-.03-.26-.16-.37-.25-1.06-.9-2.12-1.81-3.16-2.7.03.08.07.23.14.34.72,1.09,1.41,2.21,2.19,3.26.37.5.39.83-.11,1.17-1.35.91-2.66,1.91-4.08,2.7-1.09.61-2.32.98-3.49,1.46Z"></path></g></svg> 