<?xml version="1.0" encoding="UTF-8"?> <svg xmlns="http://www.w3.org/2000/svg" xmlns:xlink="http://www.w3.org/1999/xlink" id="Layer_2" viewBox="0 0 61.12 51.39"><defs><style>.cls-1{clip-path:url(#clippath);}.cls-2,.cls-3{fill:none;}.cls-2,.cls-3,.cls-4{stroke-width:0px;}.cls-5{clip-path:url(#clippath-1);}.cls-6{clip-path:url(#clippath-4);}.cls-7{clip-path:url(#clippath-3);}.cls-8{clip-path:url(#clippath-2);}.cls-9{clip-path:url(#clippath-7);}.cls-10{clip-path:url(#clippath-8);}.cls-11{clip-path:url(#clippath-6);}.cls-12{clip-path:url(#clippath-5);}.cls-13{clip-path:url(#clippath-9);}.cls-14{clip-path:url(#clippath-10);}.cls-3{clip-rule:evenodd;}.cls-4{fill:#040404;}</style><clipPath id="clippath"><path class="cls-3" d="m11.36,17.39c-.1.37-.15.36-.16-.03-.02-.4.22-.61.3-.59.08.15,0,.26-.14.62Zm3.73-5.79q-.19.16-.09.08l.28-.24-.19.16Zm-2.33,3.13l-.05.11c.05-.11.11-.22.11-.22.05-.11,0,0-.05.11Zm3.34-3.65c-.25.08-.25.08-.1-.12.15-.21.52-.33.58-.24.17.02-.25.28-.48.37Zm-3.6,4.97c-.03.11-.08.1-.08.1t-.02-.13s.04-.11.08-.09l.02.13Zm.08.28c-.14.08-.15-.05-.03-.26.07-.22.12-.2.17-.18.06.15,0,.37-.13.44Zm.55.19c-.09-.03-.14-.16.07-.55.15-.18.2-.27.15-.06-.12.31-.15.63-.22.61Zm10.97,14.74c-.14-.11-.34-.25-.58-.43-.2-.15-.42-.26-.64-.4-.46-.28-.91-.49-1.28-.69-.94-.47-1.25-.63-1.52-.64-.25-.06-.35-.12-.35-.12-.05-.12-1.08-.59-2.38-1.56-1.23-.97-1.71-1.76-2.07-2.28-.32-.55-.48-.83-.64-1.03,0,0-.16-.27-.23-.46-.25-.35-.34-.43-.36-.2-.01.12-.05.02-.09-.08-.12-.29-.22-.39-.38-.34-.05.02-.13-.08-.21-.17-.08-.1-.13-.08-.23-.05-.07.14-.18.17-.23.18-.15.04-.5-.23-.67-.44,0,0-.08-.11-.05.01,0,0-.13-.09-.3-.31-.2-.21-.27-.33-.23-.08-.03.13-.03.13-.08.15-.23-.08-.37-.31-.42-.56,0,0-.09-.24-.15-.23-.15-.23-.79-.54-.84-.53l-.02-.13s-.05,0-.11.01c-.05,0-.16.02-.23-.11q-.05,0-.03.14c.02.13,0,.27.01.41-.03.14-.04.42-.05.7.04.27,0,.28-.06.29-.07-.12-.13-.12-.19.46-.04.15.05.72.25,1.53.24.8.64,1.85,1.28,2.89.37.66,1.02,1.52,1.44,1.96.29.37.86.86,1.09,1.05.22.21.47.37.6.46.12.09.26.14.5.32.26.13.85.6,2.14,1.38.8.44,1.53.79,2.26,1.16.38.18.73.37,1.12.58.17.1.35.21.55.32.1.06.17.12.26.17l.12.08.04.02s.05.03.07.06c.04-.06.19.5.24.91.07.49.12.86.16,1.15.1.7.12,1,.32,1.73.24.87.7,1.61,1.2,2.01.25.19.5.3.66.43.17.08.28.13.34.16.25.09.5.17.74.25.16.05.32.1.47.15.31.09.6.17.88.24.56.14,1.07.23,1.52.3.91.14,1.6.19,2.11.21,1.04.04,1.36.01,1.41.02.29.07,2.81-.13,3.84-.38.52-.13.91-.21,1.05-.18,0,0,.53-.1,1.04-.27.65-.2,1.45-.43,1.86-.58.05-.02.11-.04.19-.06.09-.04.2-.08.32-.12.22-.09.47-.17.72-.28.2-.13.44-.21.58-.38.17-.14.35-.23.44-.37.45-.5.81-1.33.91-1.79.03-.11.08-.26.12-.5.02-.12.03-.26.05-.43.01-.14.03-.25.03-.39.04-.54,0-1.32,0-2.18,0-.14.01-.29.02-.44,0-.03.02-.06.03-.08.42-.39.97-.82,1.29-1.07.66-.5,2.19-1.65,3.32-2.61,2.46-2.14,3.23-3.54,3.25-3.67.04-.15.35-.65.47-.75.1-.02.44-.65.7-1.3.26-.65.39-1.33.35-1.34.01-.15.09-.6.15-.58.05.01.32-1.02.35-2.23.01-.6-.05-1.3-.08-1.94-.09-.63-.22-1.17-.29-1.47-.11-.67-.45-1.33-.71-2.06-.16-.35-.36-.69-.56-1.04-.19-.35-.39-.71-.64-1.03l-.73-.98c-.26-.31-.54-.6-.82-.89-.53-.61-1.15-1.08-1.71-1.57-2.32-1.88-4.55-2.73-4.87-2.83-.12-.07-.49-.22-.99-.42-.18-.1-.52-.24-.89-.39-.38-.12-.82-.26-1.12-.36-.65-.18-1.44-.31-1.57-.35-.26-.06-.91-.21-1.44-.29-.66-.07-.92-.17-1.05-.19-.12-.08-.51-.2-.91-.24-.53-.06-.93-.16-1.06-.17-.13-.03-.81-.04-1.63-.03-1.48.07-1.48.02-4.01.23-.79.1-1.45.19-2.01.3-.55.13-1,.24-1.39.36-1.4.42-1.65.53-2.05.59-.38.13-1.41.51-2.4.99-.49.25-.98.48-1.37.7-.34.22-.63.4-.83.52-1.06.81-3.44,2.28-5.38,5.23-.12.17-.24.34-.34.52-.08.17-.16.34-.24.51-.14.3-.25.55-.27.6-.06.28-.17.38-.33.78-.08.27-.21.68-.29.95,0,.14-.09.38-.13.66-.04.31-.08.6-.11.88-.17.84-.12.98,0,1.26.06.14.17.41.18.55.02.41.25.8.51.77.1-.01.27.1.37.09.11.11.16-.02.21-.15.04-.25.1-.26.15-.26.05,0,.1-.13.1-.25.05-.12.1-.13.15-.13h.05c.05-.12.04-.24.1-.24.1-.01.37-.81.53-1.23.11-.44.28-.96.37-.82.05.01.08-.09.18-.4.09-.3.09-.31.06-.2l-.04.32.2-.27c.08-.09.19-.27.22-.36.03-.1.09-.3.14-.28.02.01.22-.25.43-.58.12-.19.24-.38.33-.54.14-.17.27-.34.38-.49.25-.33.38-.49.57-.6.22-.08.41-.2.47-.28.15-.14.39-.48.69-.63.38-.22.72-.61,1.24-1.01.34-.25,1.86-1.36,3.56-2.04.68-.28,1.22-.46,1.64-.63.42-.13.73-.23.99-.31.49-.16.7-.25,1.03-.38.43-.18.76-.33,1.9-.5.63-.12,1.14-.19,1.79-.22.65-.06,1.43-.06,2.56.03.67.05,2.13.13,3.7.5,1.57.34,3.23.88,4.31,1.35,2.47,1,3.74,1.92,4.55,2.48.77.6,1.1.88,1.4,1.12.44.44,1.6,1.54,2.24,2.92.16.34.28.7.42,1.04.14.34.16.7.25,1.03.1.32.08.64.1.92,0,.28.05.53.02.73-.04.52-.06.93-.16,1.28-.05.36-.18.67-.3,1.03-.04.24-.19.52-.3.83-.13.3-.33.6-.48.86-.27.44-.59.86-.56.89-.07.08-.22.24-.36.4-.17.13-.85.77-1.67,1.46-.82.69-1.83,1.43-2.36,1.86-.5.39-1.1.87-1.76,1.39-.18.15-.37.3-.57.47-.25.22-.6.49-.77.81-.46.58-.62,1.24-.72,1.76-.05.29-.1.92-.09,1.69,0,.35.02.75.03,1.18,0,.19,0,.39,0,.56,0,.08,0,.08-.01.12-.02.09-.09.15-.17.17-.1.03-.19.06-.27.08-.21.07-.41.12-.59.17-.36.09-.63.14-.74.15-.33.08-1.01.17-1.48.19-.34.06-1.5.19-2.53.27-.92.08-1.7.04-1.8.04,0,0-.33,0-1.18.01-.54-.03-1.6-.18-2.33-.37l-.63-.17-.34-.11h0c-.05.12-.21.03-.14,0,.02-.01.03-.03.03-.05-.01-.06-.07-.29-.1-.33l-.04-.31c.03-.12.03-.78-.03-1.68-.02-.18-.05-.38-.09-.57-.03-.18-.06-.38-.11-.56-.04-.18-.08-.36-.13-.49-.04-.12-.07-.2-.07-.2-.12-.33-.29-.63-.48-.92-.2-.28-.46-.51-.69-.77l-.12-.09Z"></path></clipPath><clipPath id="clippath-1"><path class="cls-3" d="m39.96,39.43c.05-.1.11-.1.16,0,.05.1-.05.17-.16.17-.11-.03-.11-.07,0-.17Zm-.58,2.15q.11-.06.16,0c.05.07-.05.17-.16.17-.11.03-.11-.1,0-.17Zm-.16-1.72s.05-.03.05-.03q.05,0,.05.03s0,.03-.05.03l-.05-.03Zm-.16-.07c.1-.03.16,0,.1.07,0,.07-.05.07-.1.07-.11-.03-.11-.1,0-.13Zm-.58,0c.11,0,.16.03.11.17-.05.07-.05.1-.11.03-.05-.1-.05-.2,0-.2Zm-11.52,3.49c0-.13-.05-.43-.05-.63,0-.26,0-.36-.11-.43-.05-.07-.05-.1-.05-.1.05-.03.11-.33.11-.86.05-1.03.05-1.29-.05-1.45,0,0-.05-.1-.05-.17-.11-.13-.16-.16-.27-.1-.05.03-.05,0-.05-.03,0-.1-.1-.13-.26-.13-.05,0-.11-.03-.16-.07-.05-.03-.11-.03-.21-.03-.11.03-.21.03-.27.03-.16,0-.42-.1-.53-.17,0,0-.05-.03-.05,0,0,0-.11-.03-.21-.1-.16-.07-.21-.1-.21-.03q-.05.03-.11.03c-.21-.03-.32-.1-.32-.17,0,0-.05-.07-.11-.07-.11-.07-.69-.17-.74-.17v-.03h-.1c-.05,0-.16,0-.21-.03q-.05,0-.05.03s-.05.07-.05.1c-.05.03-.11.1-.16.17,0,.07-.05.07-.11.07-.05-.03-.11-.03-.27.1-.16.07-.21.53-.11,1.06,0,.17.05.4.05.53,0,.1.05.26.05.33s.05.13.05.17.05.07.05.13c.05.07.05.23,0,.6,0,.5,0,.89.05,1.62.05.4.08.64.09.8.01.19.01.44.01.59-.01.85-.03,1.53-.04,1.69,1.45,1.13,1.83,1.46,1.78,1.42.02.08.52.46.77.58.14.04.22.1.21.16,0,0,.11.08.24.12.16.06.32.18.4.24.09.07.17.19.36.34.15.11.31.3.39.43.05.09.18.23.56.54.29,0,.51,0,.77.01.96,0,1.22-.05,1.5-.05.23,0,.73-.05,1.09-.05.79-.05,1.12-.05,1.16-.16.03-.05.17-.05.2,0,.03.11.63,0,.63-.11.03-.05.13-.05.13,0s.23.05.5.05.63.05.76.05c.29.03.63.04.98.06.26,0,.5,0,.73.01.34,0,.67,0,.98,0,.27-.19.53-.37.81-.57.11-.08.22-.16.34-.25.05-.04.11-.08.16-.13.2-.17.33-.29.34-.35.03-.02.11-.08.22-.15.11-.01.3-.21.44-.3.11-.14.24-.29.27-.31.05-.04.16-.17.27-.25.11-.14.19-.13.22-.15.06.02.25-.04.39-.14.19-.13.38-.19.43-.23.05-.03.3-.2.54-.44.24-.19.35-.29.53-.41,0-.22.01-.49.04-1.05.05-.66.05-1.27,0-1.38-.05-.36-.05-.43,0-.53,0-.2-.11-1.09-.16-1.26-.16-.33-.26-.99-.32-1.82,0-.2-.05-.4-.05-.43-.05-.07-.05-.1,0-.2v-.23c-.05-.07-.05-.23-.05-.36.05-.2,0-.23-.11-.3-.05-.03-.16-.1-.16-.13,0-.1-.21-.2-.48-.2-.1,0-.26-.03-.37-.03-.11-.03-.16,0-.21.03-.05.07-.11.07-.16.07s-.11.03-.11.07c-.05.03-.11.03-.16.03h-.05c-.05.03-.05.06-.11.06-.1,0-.42.23-.48.36-.05.13-.16.3-.27.26-.05,0-.05.03-.05.13v.07l-.05-.1-.11.1c-.05.03-.11.1-.11.13s0,.1-.05.1-.21.4-.21.63c0,.13-.05.2-.11.26-.11.07-.16.13-.16.17,0,.07,0,.2-.05.3-.05.13-.05.3,0,.5,0,.13.05.69.05,1.22,0,.86,0,.93.11,1.12.05.05.08.16.09.17.01.01.01.03.01.06,0,.05,0,.09-.07.11-.04,0-.08,0-.12-.02-.02,0-.05,0-.07,0-.06.02.04-.07-.24.1-.4.24-.83.5-1.12.7-.21.15-.38.29-.54.4-.16.11-.32.24-.27.21,0,.02-.02.03-.02.05,0,0-.01.02-.02.04-.03.01.03.02-.09.03-.23,0-.46,0-.7,0-.5,0-1.02-.01-1.3-.04h-.83c-.16.05-.43.11-.63.11-.17.05-.33.05-.33.11h-.17c-.13-.11-1.12-.11-1.49-.05-.11.03-.34.04-.57.04-.1,0-.2,0-.34,0-.07,0-.09,0-.09-.01l-.02-.02h-.09l-.05-.04s-.02-.04-.03-.06c-.09-.08-.17-.14-.24-.21-.15-.13-.26-.23-.29-.28-.08-.06-.21-.22-.28-.34-.08-.06-.31-.3-.55-.48-.11-.08-.2-.16-.27-.23-.09-.09-.03-.06-.05-.07l-.05.03s-.02-.01-.03-.02v-.02c-.11.04-.16,0-.11,0,.05,0,.05-.02,0-.02v-.02c.05-.03.11-.23.16-.43,0-.17.05-.33.05-.33v-.3Z"></path></clipPath><clipPath id="clippath-2"><path class="cls-3" d="m31.04,34.32c-.04.06-.09.07-.16.04-.06-.04.04-.09.14-.11.11,0,.11,0,.02.08Zm.41-1.06c-.1.04-.1.04-.16.02-.06-.02.04-.08.15-.09.1-.03.11.03,0,.07Zm.27.71s-.05.02-.05.02q-.05.01-.05,0s0-.01.05-.03h.06Zm.16,0c-.1.04-.16.03-.11,0,0-.03.04-.04.1-.05.11,0,.11.02.01.05Zm.57-.12c-.1.02-.16.02-.12-.04.05-.04.04-.05.1-.03.06.03.07.07.02.08Zm3.76-8.62s.07-.15.12-.21c.07-.07.09-.1.04-.19-.02-.06-.01-.06-.01-.06.05.03.17,0,.31-.14.31-.23.39-.27.37-.39,0,0,0-.06.01-.08-.03-.11-.05-.16-.14-.23-.04-.03-.03-.04-.02-.05.03-.02-.03-.11-.13-.24-.03-.04-.06-.09-.08-.14-.02-.05-.06-.09-.12-.17-.08-.08-.14-.16-.18-.2-.1-.12-.23-.36-.27-.46,0,0-.02-.05-.03-.04,0,0-.05-.09-.09-.19-.07-.14-.09-.2-.12-.18t-.08-.07c-.12-.18-.16-.28-.13-.3,0,0,0-.06-.04-.1-.04-.1-.35-.6-.38-.64h.01s-.06-.1-.06-.1c-.03-.04-.09-.13-.11-.18t-.04-.03s-.06-.02-.07-.01c-.05-.03-.1-.05-.16-.07-.03.02-.06-.02-.09-.06-.02-.05-.05-.1-.2-.18-.12-.1-.36.02-.52.29-.07.06-.14.18-.19.23-.04.04-.07.14-.1.16-.03.02-.02.09-.03.1-.01.01,0,.06-.02.09.01.06-.06.12-.23.22-.2.18-.34.34-.57.66-.21.38-.26.45-.33.53-.45.49-.79.85-.79.85-.06,0-.25.27-.29.42,0,.09-.03.13-.08.12,0,0-.04.06-.03.14,0,.1-.05.19-.08.24-.03.04-.12.11-.15.15-.03.04-.11.08-.17.08-.06,0-.16.05-.31.31-.1.19-.17.45-.23.56-.05.11-.13.36-.2.54-.12.41-.19.57-.1.62.04.04.02.1-.04.1-.11-.03-.12.31-.02.35.04.03.03.08-.02.06-.05-.02-.09.1-.14.23-.05.13-.16.29-.18.36-.15.28-.28.71-.38,1.07-.07.37-.09.68-.02.74,0,.02-.01.07-.03.14-.06.04-.04.19-.05.28.04.1.08.21.08.22,0,.04.04.13.03.2.04.09-.02.12-.02.14-.05.01-.11.06-.12.11,0,.07-.07.12-.07.13,0,.02-.02.11.04.22.04.2.04.2-.03.53-.06.21-.07.36-.01.46.06.2.06.23.01.29,0,.11.13.59.19.67.18.17.33.5.44.92.02.1.09.2.1.21.06.02.06.04.02.1,0,.03.02.08.03.12.06.02.08.11.09.17-.03.11.03.12.14.13.06,0,.17.01.17.03.01.05.23.05.48-.02.1-.02.26-.06.36-.08.11-.01.15-.04.2-.07.05-.04.1-.06.15-.07.05-.01.1-.04.1-.06.05-.03.1-.04.15-.06h.05s.05-.05.1-.07c.1-.03.39-.2.43-.26.04-.07.13-.15.24-.16.05-.01.05-.03.04-.06t0-.03l.06.03.1-.06s.1-.06.09-.07c0-.01,0-.04.04-.05.05-.01.17-.18.16-.26,0-.05.04-.08.09-.11.1-.04.15-.07.15-.08,0-.02,0-.07.04-.11.05-.05.04-.11-.02-.17,0-.04-.09-.24-.09-.43-.01-.31-.01-.33-.12-.4-.11-.05-.1-.09-.1-.21,0-.14.01-.23.18-.46.06-.14.23-.61.27-.86.06-.58.08-.69.06-.78-.01-.16.14-.72.27-.9.05-.13.07-.2.1-.3-.03-.08-.04-.19,0-.26-.02-.08,0-.14-.05-.16,0-.01.02-.04.03-.06.12,0,.26-.36.29-.51,0-.1.11-.33.21-.41,0-.02.1-.18.2-.35.15-.14.24-.3.31-.31.02-.03.11-.07.18-.08.02-.03.14-.11.2-.2.06-.08.15-.12.16-.13,0,0,.04-.05.04-.14.04-.05.12-.15.17-.21.05-.07.09-.12.1-.13-.08-.07-.02-.23.02-.19s.09-.03.06-.08l.02-.03s.14,0,.23-.01c.04-.04.12-.05.12-.05,0,0,.03-.04.07-.08Z"></path></clipPath><clipPath id="clippath-3"><path class="cls-3" d="m30.64,28.91c0,.06-.04.1-.09.13-.06.02-.01-.07.05-.15.08-.08.08-.07.04.03Zm.01-.8q-.07.08-.12.11s.01-.07.09-.14c.08-.07.1-.05.03.03Zm.49.05c-.06.08-.1.12-.08.07-.01,0,.03-.05.06-.09.07-.07.08-.07.02.02Zm.38-.44c-.07.08-.11.12-.08.06.03-.05.03-.05.07-.08.04-.03.05-.02.02.02Zm-2.28-5.62s-.11-.07-.14-.12c-.04-.07-.06-.09-.16-.05-.06.01-.06,0-.06,0,.04-.04.04-.14-.04-.27-.14-.31-.19-.38-.31-.36,0,0-.07,0-.08-.02-.12.02-.17.04-.24.12-.04.04-.04.03-.05.02-.02-.03-.12.02-.24.12-.04.03-.09.06-.14.08-.05.02-.09.06-.18.12-.08.07-.16.14-.2.17-.13.1-.35.23-.45.28,0,0-.05.03-.04.03,0,0-.09.06-.18.11-.14.08-.18.11-.17.13t-.08.07c-.17.13-.26.18-.27.17,0,0-.05.02-.09.06-.09.05-.55.42-.59.45h0s-.04.03-.08.06c-.04.03-.12.1-.16.13-.04.03-.04.04-.04.04l-.03.04-.11.12s-.04.04-.08.07c-.04.03-.08.06-.2.17-.11.12-.16.13-.01.16.02.03.08.03.1.05.01.01.07.01.08.02,0,.01.06,0,.06,0,0,0,.05-.02.06,0,.05-.02.07.01.07.11.06.1.11.16.24.29.19.11.21.14.23.19.18.4.18.52.18.52-.04.04.04.18.12.21.06,0,.08.02.03.06,0,0,.02.03.08.03.07,0,.09.05.11.07.01.02,0,.09,0,.11.01.02-.02.08-.05.12-.04.04-.06.1.01.23.05.09.16.17.19.23.03.05.14.14.19.22.15.15.2.23.29.18.05-.02.07,0,.03.04-.09.06.08.14.18.09.05-.02.06,0,.02.03-.05.03-.01.08.02.14.04.06.04.17.06.2.07.32.38.82.54.78,0,0,.02.03.04.06-.03.05.06.08.08.12.07.01.14.03.15.03.01.02.08.02.1.06.07,0,.04.05.04.06-.04.04-.07.09-.05.11.02.03,0,.08,0,.09,0,0,.03.05.11.07.1.06.1.05.16.23.02.12.07.19.15.21.11.06.12.07.1.13.04.05.29.2.37.21.21,0,.38.06.67.26.05.05.15.07.16.07.05-.02.06-.01.06.05.02.02.04.04.07.06.06-.02.13.03.19.07.06.1.1.07.19,0,.04-.04.12-.11.14-.1.04.03.18-.14.3-.38.05-.09.13-.23.18-.32.06-.09.07-.14.09-.19.01-.06.04-.1.06-.15.03-.05.05-.1.04-.1.02-.05.05-.1.07-.14l.03-.05s.02-.05.04-.1c.05-.09.2-.38.23-.42.03-.05.09-.13.15-.21.03-.04.04-.04.04-.04,0,0,0,0,0,0,.01-.01.02-.03.03-.04l.07-.08s.06-.09.06-.09c0,0,0,0,.03-.05.03-.04.12-.18.1-.2,0,0,.03-.05.06-.09.07-.08.11-.12.11-.12,0,0-.02-.02.02-.06.03-.05.01-.07-.05-.06-.02-.02-.1-.03-.17-.12-.1-.14-.11-.15-.22-.12-.1.04-.11.03-.15-.03-.05-.07-.08-.11-.03-.32,0-.1-.08-.41-.17-.55-.24-.28-.28-.35-.35-.36-.09-.05-.29-.37-.31-.52-.05-.08-.07-.12-.1-.18-.07,0-.15-.04-.17-.08-.07,0-.09-.04-.13-.02,0,0-.01-.02-.02-.04.07-.08-.05-.3-.14-.35-.08-.02-.16-.17-.15-.26,0-.01-.07-.12-.13-.23-.02-.14-.08-.25-.05-.3-.01-.02,0-.09.04-.15-.01-.02-.01-.12-.05-.19-.04-.06-.02-.14-.03-.15,0,0-.02-.04-.09-.06-.02-.04-.07-.11-.1-.17-.03-.05-.05-.09-.06-.1-.09.05-.2-.02-.15-.05.05-.03.01-.08-.04-.06v-.02s.04-.11.06-.18c-.02-.04,0-.11,0-.11l-.04-.07Z"></path></clipPath><clipPath id="clippath-4"><path class="cls-3" d="m59.93,26.23c.01.05,0,.1-.02.15-.02.05-.03-.05-.01-.15.02-.1.02-.1.03,0Zm-.33-.6q0,.1-.02.15s-.02-.05-.01-.16c0-.1.03-.1.03,0Zm.33-.12s0,.05,0,.05q0,.05-.01.05s0,0,0-.05v-.05Zm.03-.15c0,.1-.02.15-.02.1-.01,0,0-.05,0-.1.02-.1.03-.1.02,0Zm.06-.56c-.01.1-.02.15-.04.1,0-.05-.01-.05,0-.1.02-.05.04-.05.04,0Zm-4.38-1.56s-.08.04-.12.04c-.05,0-.07,0-.09.09-.02.05-.02.05-.02.05,0-.05-.05-.11-.14-.12-.18-.07-.23-.08-.27.02,0,0-.02.05-.04.05-.04.1-.05.15-.05.25,0,.05,0,.05-.01.05-.02,0-.04.1-.05.25,0,.05-.02.1-.03.15-.01.05-.02.1-.03.2,0,.1-.02.2-.02.25-.02.15-.06.4-.09.5,0,0-.01.05,0,.05,0,0-.02.1-.04.2-.03.15-.04.2-.03.2q0,.05,0,.1c-.03.2-.05.3-.06.3,0,0-.02.05-.02.1-.02.1-.1.65-.11.71h0s0,.05-.01.1c0,.05-.02.15-.03.2q0,.05,0,.05s0,.05.01.05c0,.05,0,.1.01.16.01,0,0,.05,0,.1-.01.05-.02.1-.01.25,0,.15.07.21.18.12.03,0,.08-.04.1-.04.02,0,.05-.04.07-.04.01,0,.03-.05.04-.05s.02-.05.03-.05c.02-.05.05-.05.11.01.09.01.16.02.3-.02.16-.08.19-.08.22-.08.31.08.38.14.38.15,0,.05.12.06.17.02.03-.05.05-.05.05,0,0,0,.02,0,.05-.04.04-.05.07-.04.09-.04.02,0,.05.06.07.06.02,0,.04.06.04.11,0,.05.03.11.13.12.07,0,.17-.03.21-.03.04,0,.14-.04.2-.03.15-.03.21-.03.22-.13.01-.05.04-.05.04,0,0,.1.11.01.12-.09.01-.05.03-.05.02,0,0,.05.04.06.08.06.05,0,.11.06.13.07.2.12.59.17.64.02,0,0,.02,0,.05,0,.01.05.07,0,.09.01.04-.05.08-.09.08-.09.01,0,.05-.05.07-.04.04-.05.04,0,.05,0,0,.05.01.1.03.11.02,0,.04.06.04.06s.04,0,.08-.04q.07-.04.18.02c.07.06.11.06.16.02.07-.04.08-.04.09.01.04,0,.21-.08.24-.13.08-.14.21-.23.36-.27.04,0,.08-.04.08-.04.02-.05.02-.05.04,0,.01,0,.03,0,.04,0,.02-.05.05-.05.07-.04.03.06.04,0,.07-.1.01-.05.04-.15.04-.15.02,0,.06-.2.09-.45.01-.1.03-.25.05-.35.02-.1.02-.15.02-.2,0-.05,0-.1,0-.15,0-.05,0-.1,0-.1,0-.05,0-.1.01-.15v-.05c0-.05,0-.05,0-.1.01-.1,0-.41-.02-.46-.02-.05-.04-.16-.02-.26,0-.05,0-.05-.02-.05t-.01,0l.02-.05v-.1c0-.05-.01-.1-.02-.1,0,0-.02,0-.01-.05,0-.05-.05-.21-.09-.22-.02,0-.03-.05-.04-.11,0-.1,0-.15-.01-.15-.01,0-.04,0-.05-.06-.02-.05-.05-.06-.09-.01-.02,0-.13.04-.23.03-.16-.02-.17-.02-.21.08-.04.1-.05.1-.11.09-.07,0-.11-.01-.21-.18-.07-.06-.29-.19-.42-.2-.29.02-.34.01-.39.06-.08.04-.35.01-.45-.05-.06,0-.1-.01-.15-.02-.04.05-.09.09-.12.09-.04.05-.07.04-.07.09,0,0-.02,0-.03,0-.01-.1-.19-.12-.26-.08-.05.05-.17.03-.22-.02-.01,0-.09-.01-.18-.02-.08-.06-.17-.07-.19-.12-.02,0-.05-.06-.07-.11-.02,0-.07-.06-.13-.06-.05,0-.08-.06-.09-.06,0,0-.03,0-.07.04-.03,0-.09,0-.13-.01-.04,0-.07,0-.08,0-.01.1-.09.14-.09.09,0-.05-.04-.06-.05,0,0,0-.01,0-.02,0,0-.05-.03-.11-.06-.16-.03,0-.05-.06-.05-.06,0,0-.02,0-.05,0Z"></path></clipPath><clipPath id="clippath-5"><rect class="cls-2" x="54.36" y="23.24" width="5.76" height="4.6"></rect></clipPath><clipPath id="clippath-6"><path class="cls-3" d="m56.63,12.36s.05.09.06.14c0,.05-.04-.04-.08-.14-.04-.1-.03-.1.02,0Zm-.46-.42q.04.09.06.14c.01.05-.04-.04-.08-.13-.04-.09-.03-.1.02,0Zm.09-.37c.04.09.06.14.03.1,0,0-.03-.04-.05-.09-.03-.1-.03-.1.02,0Zm-.21-.52c.04.1.05.14.02.1-.03-.04-.03-.04-.04-.09,0-.05,0-.06.02-.01Zm-3.26.17s-.03.07-.05.08c-.03.01-.04.02-.01.11.01.05,0,.05,0,.05-.02-.05-.08-.08-.14-.06-.14,0-.17.01-.15.11,0,0,0,.05,0,.05.02.1.04.15.08.24.02.05.02.05.02.05-.01,0,.02.1.08.24.02.05.04.1.05.15.02.05.03.1.07.19.04.09.08.19.1.23.06.14.14.38.17.48,0,0,.02.05.02.05,0,0,.04.1.07.19.05.14.06.19.07.19t.04.09c.07.19.1.29.1.29,0,0,.01.05.03.1.03.1.23.62.25.67h0s.02.05.04.09c.02.05.06.14.07.19t.02.04s.03.05.03.04c.02.04.05.09.08.13,0,0,.03.04.05.09.02.05.03.1.11.23.06.14.14.16.16.05.02,0,.03-.07.04-.07.01,0,.01-.06.02-.06,0,0,0-.05,0-.06,0,0-.01-.05,0-.05-.01-.05,0-.06.07-.03.06-.02.1-.04.17-.12.05-.13.07-.14.09-.15.22-.03.28,0,.29,0,.03.04.1.01.11-.04,0-.05,0-.06.03-.01,0,0,.02,0,.01-.06,0-.05.02-.06.03-.07.01,0,.05.03.06.03.01,0,.05.04.07.08.03.04.07.08.13.06.05-.02.08-.09.11-.1.03-.01.06-.08.11-.1.07-.08.11-.1.08-.19-.02-.05,0-.06.02-.01.04.09.07-.03.03-.12-.02-.05,0-.05.01,0,.02.05.05.04.08.02.03-.01.09.02.11.01.17.04.42-.06.38-.21,0,0,.02,0,.03-.01.03.04.04-.02.06-.02,0-.06,0-.11,0-.11,0,0,0-.06.02-.06,0-.06.03-.01.03-.01.02.05.05.09.06.08.02,0,.05.04.05.04,0,0,.02,0,.03-.07q.02-.06.11-.05c.06.03.09.02.1-.04.02-.06.03-.07.06-.02.02,0,.09-.15.09-.2-.02-.16.02-.28.09-.37.02,0,.03-.07.03-.07-.01-.05,0-.05.02,0,0,0,.02,0,.03-.01-.01-.05,0-.06.02-.06.04.04.03-.01,0-.11-.02-.05-.05-.15-.04-.15.01,0-.05-.2-.15-.43-.04-.1-.09-.24-.13-.33-.03-.1-.06-.14-.08-.19-.03-.04-.05-.09-.06-.14-.02-.05-.04-.09-.05-.09-.02-.05-.04-.09-.06-.14l-.02-.05s-.03-.04-.05-.09c-.04-.09-.18-.37-.21-.41-.04-.04-.09-.13-.13-.22-.02-.05-.02-.04-.03-.04h0s0-.05,0-.05l-.05-.09s-.05-.09-.05-.09c0,0-.01,0-.03-.04-.02-.05-.12-.17-.15-.16-.02,0-.04-.04-.07-.08-.05-.09-.07-.13-.08-.13,0,0-.02,0-.05-.03-.04-.04-.05-.03-.06.02-.02,0-.06.08-.12.1-.1.04-.11.04-.09.15.02.1.01.11-.03.12-.04.02-.07.03-.2-.08-.06-.03-.25-.06-.33-.03-.16.12-.19.13-.2.19-.03.07-.2.14-.28.11-.04.02-.07.03-.1.04,0,.06-.01.11-.03.12,0,.05-.02.06,0,.11,0,0-.01,0-.02,0-.05-.09-.17-.04-.19.02,0,.06-.08.09-.14.06,0,0-.06.02-.12.05-.08-.02-.13,0-.16-.04-.01,0-.05-.03-.09-.07-.01,0-.07-.03-.1-.01-.03.01-.08-.02-.08-.02,0,0-.02,0-.02.06-.02,0-.06.02-.08.03-.03.01-.05.02-.05.02.04.09,0,.16-.01.11-.02-.05-.04-.04-.03.01h-.01s-.07-.08-.11-.12c-.02,0-.06-.03-.06-.03,0,0-.02,0-.03.01Z"></path></clipPath><clipPath id="clippath-7"><path class="cls-3" d="m1.21,25.88s-.03-.1-.02-.15c.01-.05.04.05.05.15,0,.1,0,.1-.03,0Zm.45.51q-.02-.1-.02-.15c0-.05.04.05.05.15.02.1,0,.1-.03,0Zm-.29.19s-.01-.05-.01-.05q0-.05,0-.05s0,0,.01.05v.05Zm0,.15c-.02-.1-.02-.15,0-.1.01,0,.02.05.02.1,0,.1,0,.1-.02,0Zm.06.56c-.01-.1-.01-.15.02-.11.02.05.02.05.02.1-.01.05-.03.06-.04,0Zm4.62.56s.07-.06.11-.06c.05,0,.06,0,.07-.11,0-.05.01-.05.01-.05.01.05.07.1.17.08.19.03.24.03.26-.08,0,0,.01-.05.02-.05.01-.1.01-.15-.01-.25-.01-.05,0-.05,0-.05.02,0,.01-.1,0-.25,0-.05,0-.1,0-.15,0-.05,0-.1-.02-.2-.02-.1-.03-.2-.03-.25-.02-.15-.03-.41-.03-.51,0,0,0-.05,0-.05,0,0,0-.1,0-.2,0-.15,0-.21-.02-.2t-.02-.1c-.02-.2-.02-.31,0-.31,0,0,0-.05,0-.1,0-.1-.04-.66-.05-.71h0s0-.05-.01-.1c0-.05-.02-.15-.02-.2q0-.05-.01-.05s-.02-.05-.02-.05c-.01-.05-.03-.1-.05-.15-.01,0-.02-.05-.02-.1,0-.05,0-.1-.05-.25-.03-.15-.12-.19-.2-.08-.03,0-.07.06-.09.06-.02,0-.04.06-.06.06-.01,0-.02.05-.02.05s0,.05-.02.05c0,.05-.04.06-.11.01-.09,0-.16.02-.29.08-.13.12-.16.12-.2.12-.32-.01-.4-.06-.41-.06-.02-.05-.13-.04-.17.02-.02.05-.04.06-.05,0,0,0-.02,0-.04.06-.02.05-.06.06-.08.06-.02,0-.06-.05-.08-.04-.02,0-.05-.05-.06-.09-.02-.05-.05-.1-.15-.08-.07,0-.16.07-.2.07-.04,0-.13.06-.19.07-.14.07-.2.07-.19.18,0,.05-.03.05-.04,0-.02-.1-.11.01-.1.11,0,.05-.02.05-.02,0,0-.05-.05-.04-.1-.04-.05,0-.12-.04-.14-.03-.23-.08-.61-.04-.63.12,0,0-.02,0-.05,0-.02-.05-.06,0-.09.01-.02.05-.06.11-.06.11-.01,0-.04.06-.06.06-.02.05-.04,0-.05,0-.01-.05-.04-.1-.05-.1-.02,0-.05-.05-.05-.04s-.04,0-.07.06q-.06.06-.18.02c-.08-.04-.12-.04-.16.02-.06.06-.07.06-.1.01-.04,0-.19.12-.21.18-.04.16-.15.27-.29.34-.04,0-.07.06-.07.06,0,.05-.01.05-.04,0-.01,0-.03,0-.04,0,0,.05-.04.06-.06.06-.04-.05-.04,0-.04.11,0,.05,0,.15,0,.15-.02,0-.01.21.02.46.01.1.02.25.03.35,0,.1.02.15.03.2.02.05.02.1.03.15,0,.05.02.1.02.1.01.05.02.1.02.15v.05c.02.05.02.05.03.1.01.1.09.4.12.45.03.05.07.15.08.25,0,.05.01.05.03.05t.01,0v.05s.02.1.02.1c.01.05.03.1.04.1s.02,0,.02.05c0,.05.09.19.14.19.02,0,.04.05.06.1.02.1.04.15.05.15.01,0,.04,0,.06.04.03.05.06.04.09,0,.02,0,.12-.06.21-.08.16-.02.17-.02.19-.12.01-.1.03-.11.09-.11.06,0,.11-.01.24.13.08.04.33.12.45.1.28-.08.33-.09.37-.14.07-.06.34-.09.45-.05.06,0,.1-.01.15-.02.02-.05.07-.11.1-.11.03-.05.05-.06.05-.11,0,0,.02,0,.03,0,.04.1.21.08.27.02.04-.06.16-.07.21-.02.01,0,.09-.01.18-.02.1.04.19.03.21.08.02,0,.06.04.09.09.02,0,.08.04.14.04.05,0,.09.04.1.04,0,0,.03,0,.06-.06.03,0,.09-.01.13-.01.04,0,.07,0,.08,0-.01-.1.06-.16.07-.11,0,.05.05.05.05,0,0,0,.01,0,.02,0,.01.05.05.1.09.14.03,0,.07.04.07.04,0,0,.02,0,.05,0Z"></path></clipPath><clipPath id="clippath-8"><rect class="cls-2" x="1" y="23.17" width="5.69" height="5.03"></rect></clipPath><clipPath id="clippath-9"><path class="cls-3" d="m3.31,10.98c0-.05.03-.1.07-.14.04-.04,0,.06-.04.15-.05.09-.06.09-.03-.01Zm.09.67q.04-.1.07-.14s0,.06-.04.15c-.04.09-.06.08-.03-.01Zm-.43.13c.04-.09.07-.14.06-.08.01,0-.01.05-.04.1-.05.09-.06.08-.02-.01Zm-.25.5c.05-.09.07-.13.07-.08-.01.05,0,.05-.04.09-.04.04-.06.03-.03-.02Zm3.52,2.99s.09-.01.12,0c.04.02.06.03.11-.06.03-.04.04-.04.04-.04-.02.05,0,.12.09.16.14.13.18.15.26.07,0,0,.04-.04.05-.03.07-.08.1-.12.13-.22.02-.05.02-.04.03-.04.02,0,.07-.08.14-.22.02-.05.05-.09.08-.13.03-.04.05-.09.1-.18.04-.09.09-.18.11-.23.07-.14.2-.36.26-.44,0,0,.03-.04.02-.04,0,0,.05-.09.11-.17.08-.13.11-.17.1-.18t.04-.09c.1-.18.16-.26.17-.26,0,0,.03-.04.06-.08.06-.09.33-.58.35-.62h0s.02-.04.05-.09c.02-.05.07-.14.1-.18t.02-.05s.01-.05,0-.05c.02-.05.03-.1.04-.15-.01,0,.01-.05.03-.1.03-.04.05-.09.1-.24.06-.14,0-.22-.12-.18-.03-.01-.09.01-.11,0-.02,0-.07.02-.08.02-.01,0-.04.03-.05.03,0,0-.03.04-.05.03-.03.04-.06.03-.09-.05-.08-.04-.14-.07-.28-.09-.17.03-.2.01-.23,0-.26-.19-.3-.27-.31-.27.01-.05-.09-.1-.15-.08-.04.04-.06.03-.04-.02,0,0-.02-.01-.07.02-.05.03-.08.02-.1,0-.02,0-.03-.07-.04-.08-.02,0-.01-.07,0-.12.01-.05,0-.11-.08-.15-.06-.03-.17-.03-.2-.05-.04-.02-.14-.01-.2-.04-.15-.02-.2-.05-.26.04-.03.04-.05.03-.03-.02.04-.09-.1-.05-.15.04-.03.04-.04.04-.02-.01.02-.04-.01-.06-.06-.09-.04-.02-.08-.1-.1-.11-.15-.19-.49-.36-.59-.24,0,0-.02-.01-.04-.02,0-.05-.06-.03-.09-.04-.05.03-.1.06-.11.06-.01,0-.06.03-.08.02-.05.03-.04-.02-.04-.02.02-.05.03-.1,0-.11-.02-.01-.01-.06-.02-.07,0,0-.03-.02-.09.01q-.08.02-.16-.08c-.04-.08-.08-.1-.14-.07-.08.02-.09,0-.08-.04-.03-.02-.22,0-.27.03-.12.11-.27.15-.43.12-.03-.02-.09.01-.09.01-.03.04-.04.04-.03-.02-.01,0-.03-.01-.04-.02-.03.04-.06.03-.08.02,0-.06-.04-.02-.09.07-.03.04-.08.13-.09.12-.02,0-.12.17-.24.39-.05.09-.12.23-.17.32-.05.09-.07.14-.09.18-.01.05-.04.1-.06.14-.02.05-.04.09-.04.1-.02.05-.04.09-.06.14l-.02.04s-.01.05-.03.1c-.05.09-.15.38-.15.44s-.02.16-.07.25c-.02.04-.02.05,0,.06t.01,0l-.04.04-.03.1s-.03.1-.02.1c0,0,.02,0,0,.05-.02.04-.03.21,0,.23.02.01,0,.06,0,.11-.04.1-.05.15-.04.15.01,0,.03.02.03.07,0,.06.03.07.08.04.02.01.13.01.22.05.14.07.15.08.23,0,.07-.08.08-.07.14-.04.06.03.1.05.13.24.04.08.21.28.32.33.27.08.32.11.38.08.09-.01.33.11.4.2.06.03.09.05.13.07.05-.03.11-.06.15-.04.05-.03.08-.02.1-.06,0,0,.02,0,.03.01-.03.1.13.18.22.17.06-.03.17.03.19.1.01,0,.08.04.17.08.06.09.14.13.13.18.02,0,.02.07.02.12.02,0,.05.08.09.1.04.02.06.09.06.09,0,0,.03.01.08-.02.03.01.08.04.12.06.04.02.06.03.07.03.05-.09.14-.1.11-.06-.02.04.01.06.04.02,0,0,.01,0,.02,0-.02.05,0,.11,0,.17.03.01.03.07.03.07,0,0,.02.01.05.02Z"></path></clipPath><clipPath id="clippath-10"><path class="cls-3" d="m12.19,1.79s.07-.08.11-.1c.05-.03-.02.05-.1.12-.08.07-.08.06-.01-.01Zm-.23.57q.07-.08.11-.1s-.02.05-.1.12c-.07.07-.08.06-.01-.01Zm-.37.04c.07-.07.11-.1.08-.06,0,0-.03.04-.07.08-.08.07-.08.06-.01-.01Zm-.41.38c.08-.07.11-.1.09-.05-.03.04-.03.04-.07.07-.05.03-.05.02-.02-.02Zm1.27,2.97s.07,0,.09.02c.02.02.03.03.11-.03.04-.03.05-.03.05-.03-.04.04-.05.1,0,.15.05.13.07.15.16.1,0,0,.05-.03.05-.02.09-.06.13-.09.2-.16.04-.04.04-.03.04-.03,0,0,.09-.06.2-.16.04-.04.08-.07.12-.1.04-.03.08-.07.15-.14.07-.07.15-.14.18-.18.11-.1.31-.27.39-.33,0,0,.04-.03.04-.03,0,0,.08-.07.16-.13.12-.1.16-.13.15-.13t.07-.07c.15-.13.23-.2.24-.19,0,0,.04-.03.08-.06.08-.06.5-.43.54-.47h0s.04-.03.07-.06c.04-.04.11-.1.15-.14t.04-.04s.03-.04.03-.04c.03-.04.07-.08.1-.12,0,0,.03-.04.07-.07.04-.03.08-.07.18-.18.11-.11.11-.19-.01-.17-.01-.01-.07,0-.08-.01,0,0-.06.01-.06,0,0,0-.05.02-.05.02,0,0-.04.03-.05.02-.04.03-.06.01-.05-.05-.04-.04-.07-.08-.17-.11-.14,0-.15-.02-.17-.04-.11-.19-.1-.26-.11-.27.03-.04-.02-.1-.08-.09-.05.02-.06.01-.02-.02,0,0-.01-.01-.06.01-.05.02-.07,0-.08,0,0,0,.01-.06,0-.07,0,0,.02-.06.05-.1.03-.04.06-.09,0-.14-.03-.04-.11-.05-.13-.07-.02-.02-.1-.03-.13-.06-.1-.04-.13-.07-.21,0-.04.03-.05.02-.02-.02.07-.07-.05-.06-.13.01-.04.03-.05.02-.01-.01.04-.03.02-.06,0-.08-.02-.02-.01-.09-.02-.1-.02-.18-.2-.37-.33-.28,0,0-.01-.01-.02-.02.03-.04-.03-.03-.04-.05-.05.02-.1.04-.11.03,0,0-.06.01-.07,0-.05.02-.02-.02-.02-.02.04-.04.07-.08.06-.09-.01-.01.02-.06.02-.06,0,0-.02-.02-.07,0q-.07,0-.08-.09c0-.07-.02-.1-.07-.08-.07,0-.07,0-.04-.05-.02-.02-.17-.03-.22-.01-.14.07-.27.08-.38.04-.02-.02-.07,0-.07,0-.04.03-.05.03-.02-.02,0,0-.01-.02-.02-.02-.04.03-.06.01-.07,0,.02-.05-.02-.02-.1.04-.04.03-.12.09-.12.09,0,0-.17.12-.35.29-.07.07-.19.17-.27.24-.08.07-.11.1-.15.14-.03.04-.07.07-.11.11-.04.03-.07.07-.07.08-.03.04-.07.07-.11.11l-.04.03s-.03.04-.07.07c-.07.07-.28.3-.31.34-.03.05-.09.13-.17.2-.04.03-.03.04-.03.05t0,0l-.05.03-.07.08s-.07.08-.07.08c0,0,0,0-.03.04-.04.03-.12.17-.1.19.01.01-.02.05-.05.09-.07.07-.1.11-.1.12,0,0,.02.02-.01.06-.03.05-.01.06.04.04.01.01.09.03.14.08.07.08.08.08.17.03.09-.06.09-.05.12-.02.03.03.05.05,0,.22,0,.07.03.26.09.32.17.11.19.13.25.12.07,0,.2.14.2.22.03.03.05.05.07.07.05-.02.11-.03.13-.01.05-.02.07,0,.1-.04,0,0,0,0,.01.02-.06.08.02.17.09.17.06-.01.11.05.1.11,0,0,.04.05.08.09,0,.08.05.12.02.17,0,0-.01.06-.04.11,0,0,0,.07.02.1.02.02,0,.08,0,.08,0,0,.01.01.07,0,.01.01.04.04.06.07.02.02.03.04.04.04.07-.07.15-.06.11-.03-.04.04-.02.06.02.02,0,0,0,0,0,0-.04.04-.06.09-.08.14.01.01-.01.06-.01.06,0,0,.01.01.03.03Z"></path></clipPath></defs><g id="Layer_1-2"><g class="cls-1"><rect class="cls-4" x="8.48" y="3.07" width="44.9" height="40.31"></rect></g><g class="cls-5"><rect class="cls-4" x="21.09" y="37.57" width="21.62" height="13.82"></rect></g><g class="cls-8"><rect class="cls-4" x="28.05" y="19.4" width="10.01" height="16.45"></rect></g><g class="cls-7"><rect class="cls-4" x="23.67" y="20.27" width="9.43" height="10.68"></rect></g><g class="cls-6"><g class="cls-12"><rect class="cls-4" x="53.36" y="22.24" width="7.76" height="6.6"></rect></g></g><g class="cls-11"><rect class="cls-4" x="51.44" y="9.23" width="6.65" height="7.5"></rect></g><g class="cls-9"><g class="cls-10"><rect class="cls-4" y="22.17" width="7.69" height="7.03"></rect></g></g><g class="cls-13"><rect class="cls-4" x="1.52" y="8.85" width="8.49" height="7.64"></rect></g><g class="cls-14"><rect class="cls-4" x="9.59" width="7.61" height="7.02"></rect></g></g></svg> 