<?xml version="1.0" encoding="UTF-8"?> <svg xmlns="http://www.w3.org/2000/svg" id="Layer_2" viewBox="0 0 50.43 50.17"><defs><style>.cls-1{fill:#020202;stroke-width:0px;}</style></defs><g id="Layer_1-2"><path class="cls-1" d="m2.62,21.1c-.13.45-.19.44-.18-.03.01-.47.17-.76.3-.74.08.18.07.33-.12.77Zm3.35-7.89q-.16.26-.08.13l.24-.39-.16.26Zm-1.97,4.45l-.05.14c.05-.14.1-.29.1-.29.05-.14,0,0-.05.14Zm2.96-5.43c-.28.17-.28.17-.15-.1.13-.28.5-.57.6-.5.19-.05-.17.43-.45.6Zm-3.1,7.12c-.04.14-.1.13-.1.13q-.06-.01-.02-.16s.04-.15.1-.13l.02.16Zm.1.33c-.15.12-.17-.04-.04-.32.07-.29.13-.27.19-.26.08.18,0,.46-.15.57Zm.64.16c-.12-.03-.14-.18.06-.73.13-.26.16-.4.15-.11-.05.43-.16.85-.21.84Zm9.13,21.61c-.43-.32-1.46-.99-2.04-1.58-.83-.71-1.05-1.06-1.34-1.17-.23-.16-.32-.26-.32-.26-.04-.14-.86-1.07-2-2.93-1.08-1.82-1.5-3.09-1.8-3.91-.34-.82-.4-1.26-.57-1.57,0,0-.16-.38-.23-.65-.25-.51-.29-.64-.38-.34-.04.15-.06.01-.08-.13-.06-.41-.2-.53-.38-.5-.06,0-.14-.12-.22-.25s-.14-.12-.26-.11c-.1.16-.22.18-.27.19-.18.03-.54-.37-.71-.66,0,0-.08-.14-.06,0,0,0-.16-.13-.29-.43-.19-.29-.26-.44-.25-.13-.05.16-.05.16-.11.17-.25-.13-.38-.44-.4-.75,0,0-.08-.31-.14-.31-.14-.31-.82-.78-.88-.78v-.16s-.07,0-.13,0-.18,0-.25-.16q-.06,0-.05.17c0,.17-.04.33-.04.5-.05.17-.1.5-.14.84.02.34-.04.34-.1.34-.07-.16-.13-.16-.27.53-.14.34.04,2.79.98,5.39.31.8.73,1.93,1.04,2.54.22.47.65,1.21.8,1.52.14.31.39.57.47.72.09.15.23.26.4.55.23.26.63,1,1.74,2.52.36.53.8.95,1.2,1.41.41.45.81.91,1.31,1.33.94.89,2.07,1.8,3.65,2.8,3.54,2.02,4.44,2.1,5.37,2.49,4.24,1.51,7.08,1.43,8.71,1.5,1.65-.06,2.2-.07,2.29-.09.17,0,1.06-.11,2.07-.27,1-.19,2.1-.53,2.75-.72.62-.29,1.1-.46,1.28-.46,0,0,.14-.05.4-.15.23-.1.56-.21.85-.39.74-.43,1.66-.85,2.1-1.1.39-.22,1.38-.78,1.77-1,.43-.27.99-.65,1.3-.8.15-.08.41-.23.92-.59.46-.41,1.22-.98,2.22-2.03.34-.38.7-.78,1.07-1.19.36-.41.66-.88.97-1.29.64-.83,1.09-1.66,1.4-2.17.67-.99,1.68-3.36,2.26-5.14.29-.98.46-1.84.64-2.55.12-.72.19-1.32.26-1.79.14-.95.09-1.42.05-1.5-.05-.17-.02-.84.05-1.01.22-.17-.07-3.21-.19-3.19-.05-.16-.14-.66-.08-.67.03,0,0-.3-.06-.76-.08-.46-.12-1.09-.31-1.74-.17-.65-.34-1.44-.53-2.13-.24-.69-.45-1.29-.55-1.6-.52-1.43-1.34-3.08-2.36-4.68-.54-.78-1.11-1.57-1.72-2.31-.66-.7-1.24-1.45-1.93-2.04-2.64-2.5-5.34-3.84-5.75-3.94-.15-.07-.61-.29-1.22-.59-.41-.31-1.72-.69-2.51-.99-.81-.23-1.82-.37-1.98-.43-.13-.03-.43-.09-.78-.17-.37-.05-.75-.1-1.04-.14-.84-.07-1.16-.18-1.32-.2-.16-.1-.66-.17-1.16-.2-.67-.03-1.17-.12-1.34-.13-.17-.03-1.01.03-2.01.14-.92.05-1.37.19-2,.27-.31.04-.66.09-1.14.16-.47.09-1.05.24-1.83.42-1.95.5-3.21,1.04-4.08,1.55-.42.22-.75.39-1,.52-.27.16-.46.28-.61.38-.32.2-.51.29-.74.4-.45.23-1.55,1.08-2.61,1.93-.99.94-1.96,1.86-2.19,2.22-.25.34-.57.75-.95,1.23-.39.56-.78,1.14-1.18,1.72-.44.64-.82,1.41-1.29,2.19-.41.82-.83,1.71-1.21,2.66-.34.93-.63,1.87-.67,2.03-.03.34-.07.49-.25.95-.08.32-.2.8-.29,1.11-.03.33-.13,1.14-.24,1.79-.22.96-.14,1.14-.04,1.47.05.17.15.5.15.66-.02.49.19.97.49.97.12,0,.29.16.41.16.11.16.18,0,.25-.15.08-.31.14-.3.2-.3.06,0,.13-.15.14-.3.07-.15.13-.15.19-.14h.06c.07-.14.08-.29.13-.29.13,0,.49-1.01.68-1.56.15-.57.37-1.26.47-1.1.07.01.06-.13.16-.55q.11-.42.07-.28l-.05.43.22-.39c.09-.12.22-.38.26-.52.04-.14.11-.41.16-.39.05.01.15-.4.41-.88.24-.49.5-1.1.67-1.55.24-.5.42-.73.59-.95.23-.2.4-.41.46-.54.11-.25.42-.71.68-1.03.17-.22.34-.47.52-.76.21-.27.42-.58.64-.93.28-.47,1.77-2.28,3.48-3.66,2.87-2.12,3.23-2.06,3.9-2.56.22-.17.43-.31.73-.47.32-.13.74-.29,1.39-.53,1.44-.46,2.4-.78,5.16-.86.82-.03,2.62-.07,4.52.29.96.12,1.92.43,2.83.67.45.14.86.32,1.27.47.4.15.78.27,1.09.45,2.91,1.33,4.42,2.58,5.32,3.4.95.79,1.28,1.23,1.63,1.56.61.55,1.82,2.15,2.83,3.97,1,1.83,1.58,3.93,1.82,5.07.28,1.48.43,2.29.45,3.39.04.34.12.79.13,1.25,0,.46-.01.95-.03,1.36.06.7-.11,1.37-.03,1.39-.02.14-.06.41-.1.69-.06.27-.38,1.4-.74,2.64-.22.61-.46,1.24-.67,1.81-.26.55-.49,1.05-.64,1.4-.16.46-.68,1.24-1.17,2.08-.59.77-1.17,1.6-1.64,2.01-.1.1-.45.52-1,1.08-.59.51-1.29,1.23-2.15,1.82-.82.64-1.76,1.1-2.46,1.53-.75.35-1.32.6-1.51.66-.36.21-1.18.38-1.7.53-.19.08-.61.22-1.15.32-.54.1-1.15.32-1.76.38-.51.07-1.01.13-1.43.19-.39.04-.66,0-.73.02,0,0-.68.03-1.49.14-.68-.06-2.05-.04-2.99-.25-.47-.08-.88-.12-1.18-.19-.3-.08-.49-.13-.56-.15-.02.12-1.77-.26-1.74-.37.02-.06-.88-.39-1.03-.38l-.39-.14c-.1-.11-.81-.53-1.52-.93-.31-.14-.58-.36-.79-.49-.19-.14-.35-.25-.35-.25-.1-.09-.49-.24-1.02-.67Z"></path><path class="cls-1" d="m17.79,28.62c-.03-.1,0-.15.1-.15s.08.13.01.23c-.09.08-.12.06-.12-.08Zm1.08,1.22s-.05-.03-.02-.02l.07.05-.05-.03Zm-.81-.43l-.02-.02s.05.03.05.03c.02.02,0,0-.02-.02Zm.84.82q.02-.13.1-.15c.08-.02.08.13.01.23-.05.11-.14.05-.12-.08Zm-1.3-.71s.01-.07.01-.07t.06-.03s.02.02-.01.07l-.06.03Zm-.15.11c.05-.11.1-.15.12-.06.05.03.01.08-.02.13-.09.08-.14.05-.09-.07Zm-.38.54c.07-.1.13-.13.19-.02.01.08.03.1-.05.11-.1,0-.17-.05-.14-.1Zm17.33-8.23c.06-.09.16-.34.26-.48.13-.19.18-.26.11-.37-.02-.08,0-.1,0-.1.07.01.26-.17.52-.54.55-.69.68-.88.66-1.06,0,0,0-.1.03-.15-.03-.16-.07-.22-.2-.24-.07-.01-.05-.03-.03-.06.05-.07-.03-.16-.18-.26-.05-.03-.08-.09-.12-.15s-.08-.09-.18-.16c-.11-.04-.21-.11-.26-.15-.15-.1-.35-.34-.41-.46,0,0-.03-.06-.05-.03,0,0-.08-.09-.15-.21-.12-.15-.15-.21-.18-.16q-.07-.01-.11-.04c-.18-.16-.25-.27-.22-.32,0,0-.02-.08-.07-.11-.07-.11-.56-.56-.61-.59l.02-.02s-.05-.03-.1-.07c-.05-.03-.15-.1-.18-.16t-.07-.01s-.08.01-.1.04c-.07-.01-.15,0-.23.01-.03.05-.08.01-.13-.02-.03-.06-.08-.09-.3-.1-.18-.06-.45.24-.61.68-.08.12-.14.31-.21.41-.05.07-.08.22-.11.27-.03.05-.01.13-.03.15-.02.02.02.08-.01.13.02.08-.06.2-.29.42-.24.35-.43.63-.74,1.18-.29.63-.37.75-.46.89-.45.6-.74.96-.91,1.18-.16.19-.24.29-.25.29-.08.01-.39.46-.47.68-.01.13-.06.2-.13.19,0,0-.06.09-.08.22-.03.15-.13.29-.18.36-.05.07-.19.18-.24.25-.05.07-.16.13-.24.14-.08.01-.21.1-.48.49-.19.28-.38.66-.5.83-.11.16-.3.55-.48.8-.34.59-.5.83-.41.92.03.06-.03.15-.1.14-.11-.04-.31.44-.21.51.03.06-.01.13-.06.09-.05-.03-.16.13-.29.32-.13.19-.35.41-.42.5-.17.19-.36.43-.55.69-.1.14-.2.27-.29.39-.07.1-.14.2-.21.3-.04.08-.06.17-.03.27,0,0-.02.02-.03.03-.04-.05-.05.04-.07.05,0,.08-.03.16-.03.16-.01,0-.04.08-.07.08-.03.07-.05,0-.06,0-.01-.07-.03-.14-.05-.15-.02,0-.04-.08-.04-.08,0,0-.03-.01-.07.03-.07.03-.08.02-.16-.11,0-.02-.02-.04-.02-.06,0-.01-.01-.02-.08-.07-.1-.07-.19-.12-.27-.14-.29-.13-.33-.17-.37-.26-.14-.1-.83-.45-.98-.48-.34-.02-.87-.25-1.48-.61-.14-.1-.31-.15-.33-.17-.08.02-.1,0-.14-.1-.05-.03-.12-.08-.16-.12-.08.02-.2-.07-.29-.13-.1-.15-.16-.12-.28-.05-.06.03-.17.1-.2.08-.07-.05-.28.1-.45.34-.08.09-.19.23-.27.33-.09.08-.1.15-.12.21.01.08-.02.13-.06.18-.03.05-.05.11-.02.13-.01.07-.05.11-.08.16l-.03.05c-.01.07.01.08-.02.13-.07.1-.12.51-.06.62s.1.29,0,.38c-.03.05-.01.07.06.11q.07.05.05.03h-.1s0,.15,0,.15c-.01.07,0,.15.02.16s.07.05.03.1.14.39.3.51c.09.07.1.15.11.23-.02.13-.01.21.01.23.05.03.14.1.17.2.06.11.17.2.35.25.09.07.52.3.89.56.6.43.65.46.85.46.08-.02.14-.01.21.02.08.04.1.05.34.23.47.32.73.59,1.61,1.16.27.14.89.39,1.61.38.73.01,1.48-.25,1.92-.55.99-.7,1.39-1.42,1.67-1.81.3-.46.3-.49.34-.6.14-.31.88-1.39,1.2-1.75.18-.26.27-.4.4-.58.03-.15.11-.37.21-.51.03-.15.11-.27.06-.3.02-.02.05-.07.08-.12.16-.03.65-.73.77-1.02.06-.2.38-.66.58-.84.03-.05.26-.37.5-.72.29-.32.53-.67.63-.7.05-.07.19-.18.31-.24.05-.07.26-.27.4-.48.13-.19.29-.32.31-.34,0,0,.08-.12.13-.29.08-.12.24-.35.35-.51.11-.16.19-.28.21-.3-.1-.07.06-.41.11-.37.05.03.16-.13.13-.19l.05-.07c.07.01.21-.1.36-.2.08-.12.21-.2.21-.2.02-.02.06-.09.14-.21Z"></path></g></svg> 