<?xml version="1.0" encoding="UTF-8"?> <svg xmlns="http://www.w3.org/2000/svg" id="Layer_2" viewBox="0 0 100.5 100.5"><defs><style>.cls-1{fill:none;}.cls-1,.cls-2,.cls-3{stroke-width:0px;}.cls-3{fill:#c597fe;}</style></defs><g id="Layer_1-2"><path class="cls-3" d="m55.6,78.97H8.32c-4.1,0-7.44-3.34-7.44-7.44V11.34c0-4.1,3.34-7.44,7.44-7.44h75.4c4.1,0,7.44,3.34,7.44,7.44v36.42c0,2.55-2.07,4.61-4.61,4.61s-4.61-2.07-4.61-4.61V13.13H10.11v56.61h45.49c2.55,0,4.61,2.07,4.61,4.61s-2.07,4.61-4.61,4.61Z"></path><path class="cls-3" d="m85.7,30.37H8.1c-2.55,0-4.61-2.07-4.61-4.61s2.07-4.61,4.61-4.61h77.59c2.55,0,4.61,2.07,4.61,4.61s-2.07,4.61-4.61,4.61Z"></path><path class="cls-2" d="m74.35,89.91c-13.87,0-25.16-11.29-25.16-25.16s11.29-25.16,25.16-25.16,25.16,11.29,25.16,25.16-11.29,25.16-25.16,25.16Zm0-41.31c-8.91,0-16.16,7.25-16.16,16.16s7.25,16.16,16.16,16.16,16.16-7.25,16.16-16.16-7.25-16.16-16.16-16.16Z"></path><path class="cls-2" d="m47.12,96.48c-1.28,0-2.55-.54-3.44-1.59-1.61-1.9-1.37-4.74.53-6.34l12.21-10.33c1.89-1.6,4.73-1.37,6.34.53,1.61,1.9,1.37,4.74-.53,6.34l-12.21,10.33c-.84.71-1.88,1.06-2.9,1.06Z"></path><path class="cls-1" d="m100.5,100.5H0V0h100.5v100.5Zm-100-.5h99.5V.5H.5v99.5Z"></path></g></svg> 