<?xml version="1.0" encoding="UTF-8"?> <svg xmlns="http://www.w3.org/2000/svg" id="Layer_2" viewBox="0 0 749.99 144.46"><defs><style>.cls-1{fill:none;}.cls-1,.cls-2,.cls-3{stroke-width:0px;}.cls-3{fill:#020202;}</style></defs><g id="Layer_1-2"><path class="cls-2" d="m10.59,94.66c-1.25-17.43,8.48-30.84,26.5-32.13,14.91-1.07,25.76,6.91,29.33,21.48l-7.29.52c-2.95-10.57-10.94-16.31-21.58-15.55-13.15.94-20.63,10.66-19.59,25.15,1.08,15,9.85,23.38,23,22.44,10.98-.79,17.67-7.25,19.14-18.47l7.29-.52c-1.5,15.44-10.63,24.34-25.97,25.44-18.01,1.29-29.56-10.6-30.84-28.36Z"></path><path class="cls-2" d="m77.26,104.82l-1.73-29.69,6.96-.41,1.72,29.44c.37,6.37,5.02,9.55,11.31,9.19,8.3-.49,12.51-6.29,12.2-13l-1.58-27,6.96-.41,2.6,44.45-5.54.32-.98-6.67c-2.64,5.2-7.86,8.12-13.98,8.47-10.82.63-17.41-5.63-17.94-14.69Z"></path><path class="cls-2" d="m123.93,102.91l6.8-.33c.78,5.77,6.22,8.7,12.93,8.38,6.29-.3,9.2-2.88,8.98-7.33-.2-4.2-3.52-4.96-8.21-6.33l-6.57-1.87c-6.65-1.87-13.29-3.56-13.68-11.62-.36-7.55,5.28-12.7,15.01-13.17,9.82-.47,16.87,4.49,18.44,14.33l-6.8.33c-1.05-6.17-5.56-8.98-11.6-8.69-5.45.26-8.53,2.85-8.34,6.71.22,4.62,5.13,5.3,8.89,6.38l6.14,1.72c8.27,2.29,13.27,4.83,13.62,12.21.38,7.8-5.1,12.78-15.93,13.3-10.57.51-18.64-4.65-19.68-14.02Z"></path><path class="cls-2" d="m185.58,114.18c-8.65.35-13.44-3.91-13.77-12.14l-1.05-25.94-8.23.33-.24-5.88,8.23-.33-.61-15.19,6.97-.28.61,15.19,12-.48.24,5.88-12,.48,1.05,25.94c.18,4.45,2.46,6.71,6.57,6.54l4.95-.2.24,5.88-4.95.2Z"></path><path class="cls-2" d="m195.32,91.07c-.47-14.86,9.01-23.14,21.1-23.53,14.19-.45,22.15,9.55,22.55,22.14.49,15.36-8.57,23.89-21.08,24.29-14.27.45-22.15-9.46-22.58-22.9Zm36.52-1.16c-.32-9.99-6.33-16.61-15.23-16.32-8.9.28-14.48,7.27-14.16,17.26.36,11.42,7.19,17.33,15.25,17.08,9.49-.3,14.44-8.36,14.13-18.01Z"></path><path class="cls-2" d="m248.64,112.05l-.83-44.51,5.54-.1.8,6.88c2.93-4.84,8.67-8.06,15.05-8.18,6.72-.12,11.82,3.23,14.19,8.56,2.76-5.26,8.82-8.98,15.62-9.11,9.41-.17,15.58,6.35,15.74,15.42l.55,29.81-6.97.13-.55-29.56c-.11-5.96-3.88-9.76-9.84-9.65-8.31.15-13.08,5.79-13.04,12.59l.5,27.04-6.89.13-.55-29.56c-.11-5.96-3.88-9.76-9.84-9.65-8.31.15-13.08,5.79-13.04,12.59l.5,27.04-6.97.13Z"></path><path class="cls-2" d="m323.68,88.7c-.09-15.2,9.69-23.5,20.94-23.56,12.26-.07,20.21,8.11,20.55,22.39v1.93s-34.51.21-34.51.21c.48,9.49,6.06,15.92,15.05,15.87,6.22-.04,10.73-3.17,12.55-8.98l6.8-.04c-1.96,9.17-9.15,15.01-19.31,15.07-13.19.08-21.98-9.53-22.06-22.88Zm34.16-4.99c-1.31-7.8-6.04-12.56-13.18-12.52-7.06.04-12.24,4.69-13.62,12.68l26.8-.16Z"></path><path class="cls-2" d="m374.34,110.57l.11-44.52h5.54s.82,8.5.82,8.5c2.87-5.71,8.08-8.72,15.48-8.7h1.51s-.02,6.89-.02,6.89h-1.51c-9.41-.03-14.88,5.34-14.9,14.49l-.06,23.35-6.97-.02Z"></path><path class="cls-2" d="m423.14,92.96l7.39.11c.73,7.57,7.8,12.46,18.13,12.61,8.99.13,13.74-3.5,13.83-9.63.08-5.96-5.09-8.31-10.69-10.15l-10.12-3.34c-4.68-1.58-16.49-4.27-16.32-15.77.14-9.49,8.04-15.59,20.21-15.42,13.44.19,21.65,7.11,22.4,19.64l-7.31-.1c-.47-8.32-6.2-13.03-15.52-13.16-7.39-.11-12.65,3.18-12.73,8.81-.09,6.47,6.61,7.91,11.62,9.57l9.45,3.08c7.44,2.46,16.39,5.53,16.23,16.61-.15,10.33-8.13,16.43-21.15,16.24-14.78-.21-24.83-8-25.43-19.1Z"></path><path class="cls-2" d="m478.12,96.84l.74-29.73,6.97.17-.73,29.47c-.16,6.38,4.21,9.93,10.5,10.09,8.31.21,12.98-5.22,13.24-11.94l.67-27.04,6.97.17-1.11,44.5-5.54-.14-.42-6.73c-3.06,4.96-8.5,7.43-14.63,7.28-10.83-.27-16.88-7.06-16.65-16.13Z"></path><path class="cls-2" d="m526.23,129.68l2.17-61.29,5.54.2.47,8.09c3.39-5.43,9.39-8.75,16.61-8.49,11.75.42,19.65,10.11,19.17,23.71-.49,13.85-9.06,23.13-20.81,22.72-6.8-.24-12.32-3.55-15.32-8.87l-.86,24.18-6.97-.25Zm36.74-38.04c.35-9.99-5.02-17.16-13.33-17.45-8.4-.3-14.68,6.29-15.03,16.11-.37,10.41,5.42,17.93,13.9,18.23,8.23.29,14.11-6.64,14.47-16.89Z"></path><path class="cls-2" d="m577.77,131.56l2.85-61.25,5.54.26.38,8.09c3.45-5.39,9.48-8.64,16.7-8.3,11.75.55,19.53,10.33,18.9,23.92-.64,13.84-9.31,23.03-21.06,22.48-6.8-.32-12.27-3.68-15.22-9.03l-1.12,24.17-6.96-.32Zm37.15-37.62c.46-9.99-4.83-17.21-13.14-17.6-8.39-.39-14.75,6.12-15.21,15.94-.48,10.41,5.22,17.99,13.69,18.38,8.22.38,14.18-6.49,14.65-16.72Z"></path><path class="cls-2" d="m629.11,94.47c.86-14.84,11.05-22.25,23.13-21.54,14.17.82,21.21,11.5,20.48,24.08-.89,15.35-10.68,23.03-23.17,22.3-14.26-.83-21.22-11.41-20.44-24.83Zm36.48,2.12c.58-9.98-4.81-17.11-13.7-17.62s-15.07,5.94-15.65,15.92c-.66,11.41,5.61,17.91,13.66,18.38,9.48.55,15.13-7.03,15.69-16.68Z"></path><path class="cls-2" d="m680.4,120.27l3-44.41,5.53.37.27,8.52c3.23-5.51,8.63-8.17,16.01-7.67l1.51.1-.46,6.87-1.51-.1c-9.39-.63-15.2,4.36-15.81,13.5l-1.57,23.3-6.96-.47Z"></path><path class="cls-2" d="m729.74,123.78c-8.63-.65-12.9-5.43-12.28-13.64l1.95-25.88-8.21-.62.44-5.86,8.21.62,1.14-15.16,6.95.52-1.14,15.16,11.98.9-.44,5.86-11.98-.9-1.95,25.88c-.33,4.44,1.67,6.95,5.77,7.26l4.94.37-.44,5.86-4.94-.37Z"></path><path class="cls-3" d="m729.17,138.5c1.03.15,1.02.22-.02.21-1.04,0-1.72-.2-1.71-.34.36-.11.7-.09,1.72.13Zm-19.27-1.86q.69.05.34.02l-1.03-.07.69.05Zm11.04.67l.34.03-.69-.05c-.34-.03,0,0,.34.03Zm-14.12-1.24q.68.19-.02.21c-.69.02-1.72-.19-1.71-.33-.33-.16,1.04-.06,1.72.12Zm17.94,1.11c.34.03.34.1.34.1q0,.07-.35.04s-.34-.03-.34-.1l.35-.04Zm.71-.16c.33.17-.02.21-.7.09-.69-.05-.68-.12-.68-.19.36-.11,1.04-.06,1.38.11Zm.06-.77c-.01.14-.36.18-1.73,0-.68-.12-1.03-.15-.33-.17,1.04,0,2.07.09,2.07.16Zm-260.35-14.12c-1.37-.01-4.52-.05-6.57-.07-2.77-.06-3.8-.07-4.5.06-.69.06-1.04.05-1.04.05-.34-.08-3.46-.2-8.99-.29-10.72-.26-13.49-.25-15.22-.14,0,0-1.04.06-1.73.05-1.39.12-1.73.19-1.04.34.34.07,0,.07-.35.07-1.04-.01-1.39.12-1.39.33,0,.07-.35.14-.69.2-.35.07-.35.14-.35.28.34.14.34.28.34.35,0,.21-1.04.55-1.74.68,0,0-.35.07,0,.07,0,0-.35.14-1.04.27-.69.2-1.04.27-.35.28q.34.07.34.14c-.35.28-1.04.41-1.73.4,0,0-.69.06-.69.13-.69.13-1.74.89-1.74.96h-.35s0,.07,0,.14c0,.07,0,.21-.35.28q0,.07.34.07c.35,0,.69.08,1.04.08.35.07,1.04.15,1.73.23.69,0,.69.08.69.15-.35.07-.35.14,1.03.36.69.22,5.52.34,11.05.27,1.7,0,4.17,0,5.53,0,.99,0,2.79-.01,3.45-.01.69.01,1.38-.05,1.73-.04.35,0,.69-.06,1.38-.05.69-.06,2.42-.03,6.22.1,5.17.08,9.28.14,16.92.26,8.29.04,10.02.07,12.09.12,9.14.29,14.75.46,18.13.57,3.36.13,4.49.17,4.66.18.69.09,7.25.29,10.01.31,1.38-.03,2.42,0,2.76.08,0,0,1.38.04,2.76.02,1.73-.02,3.8.05,4.84.09,1,.05,3.14.16,4.14.22,1.04.04,2.41.16,3.1.25s2.41.22,8.28.43c4.13.13,9.33.3,11.74.38,2.41.08,7.61.25,11.39.38,8.29.29,11.74.44,12.09.32.35-.05,1.73,0,2.07.09.34.16,6.56.29,6.56.15.35-.05,1.38,0,1.38.07,0,.04.6.08,1.55.14.96.05,2.24.11,3.62.18,2.74.16,6.56.37,7.93.45,12.42.73,34.84,1.96,36.57,1.86.35.02,1.38.08,2.76.16,1.03.13,3.79.21,5.52.31,1.79.05,3.84.1,4.15.11.69.04,2.42.08,3.8.16,1.73.03,2.41.15,2.76.17.34.09,1.37.22,2.41.29,1.38.08,2.41.22,2.75.24.35.02,2.07.12,4.14.18q3.8.17,10.34.66c4.13.34,6.89.51,8.96.58,3.8.19,4.49.24,5.52.37,2.07.14,11.38.64,13.11.69,3.46.03,10.36.4,18.98.95,2.01.12,4.15.25,4.48.27.69-.02,1.04,0,2.07.16.69.05,1.72.13,2.41.18.69-.02,2.42.11,3.79.22,2.06.23,2.41.18,3.11.1.35-.04,1.05-.13,1.39-.1,1.03.08,2.09-.12,2.12-.47.01-.14.37-.32.38-.46.36-.11.02-.21-.32-.31-.68-.12-.68-.19-.67-.26s-.33-.17-.68-.19c-.34-.1-.33-.17-.33-.24v-.07c-.33-.1-.68-.12-.67-.19.01-.14-2.37-.74-3.74-.92s-3.09-.45-2.73-.56c0-.07-.34-.1-1.37-.18q-1.03-.08-.69-.05h1.04s-1.02-.21-1.02-.21c-.34-.1-1.02-.22-1.37-.25s-1.03-.08-1.03-.15c0-.02-.26-.06-.68-.13-.47-.06-1.06-.14-1.68-.22-1.33-.16-2.97-.34-4.17-.43-1.38-.1-2.06-.22-2.75-.34-.68-.19-1.36-.31-1.71-.33-.69-.05-2.07-.15-3.1-.29-1.38-.17-3.1-.29-5.17-.37-1.38-.09-7.27-.47-12.77-.82-8.97-.61-9.66-.66-11.74-.66-1.39.05-2.42-.02-5.88-.24-3.8-.24-6.21-.4-13.1-1.05-4.14-.31-17.94-1.32-25.19-1.71-16.23-.85-19.34-.99-21.76-1.05-2.07-.07-7.08-.32-12.31-.59-5.21-.27-10.63-.55-13.6-.71-3.8-.18-5.87-.28-8.64-.41-1.73,0-4.5-.06-6.57-.15-1.73,0-3.46-.08-3.46-.01-.35-.02-1.04-.05-1.73-.08-1.38-.21-11.74-.65-15.55-.71-2.42-.02-9.33-.3-12.44-.49-.69-.02-5.53-.19-10.71-.38-5.18-.25-10.37-.44-11.4-.53-1.04-.03-3.11-.17-4.49-.28-1.03-.04-4.52-.18-7.6-.3-2.77-.08-5.18-.23-5.53-.24,0,0-1.73-.05-3.81-.04-1.73-.05-5.19-.14-7.61-.2-2.42-.06-4.15-.11-4.49-.12,0,.07-1.13.09-2.25.09-.58,0-1.13-.02-1.55-.02-.42-.01-.7-.03-.7-.05,0-.07-2.42-.13-2.77-.07l-1.04-.02c-.34-.08-2.42-.19-4.49-.31-1.73-.04-3.46-.14-3.46-.14-.35,0-1.38-.03-3.11-.07Z"></path><path class="cls-3" d="m136.84,40.44c.09-.01,1.04-.32,1.2-.45.09-.01.16-.13.16-.13-.02-.1.14-.24.49-.35q.09-.01.19.02c.02.11.1.04.35-.11.16-.13.33-.22.33-.22,0,.05.09-.01.09-.01.16-.14.57-.37.84-.42.09-.01.27-.04.45-.02.18-.03.27-.04.35-.11s.16-.14.25-.16c.27-.05.43-.13.4-.3-.01-.06-.02-.11.08-.07.2.08.28,0,.41-.24-.02-.11.04-.3.04-.3.1-.27.09-.64-.22-1.82.18-.03.19-.09.2-.27.01-.13.14-.32.15-.41.02-.11.03-.18.03-.2,0,0-.07-.12-.05-.24-.07-.15-.14-.3-.22-.34v-.07c.1,0,.13-.16.04-.18-.09-.02.06-.29.24-.26,0-.02.03-.13.07-.29.04-.16.08-.38.11-.49.12-.11.14-.22.14-.22,0-.02-.05-.2,0-.37.06-.2.04-.44.06-.51-.06-.11-.11-.27-.09-.34-.07-.09.02-.43.07-.78.12-.33.23-.63.25-.68-.02-.23.17-.66.32-.77.19-.2.45-.84.35-.99.02-.04.04-.08.05-.1.08.04.13-.06.27-.12.06-.12.23-.25.36-.3.09-.16.14-.29.27-.5.12-.37.66-1.28.9-1.44.18-.06.25-.28.98-1.03.27-.38.74-1.14.85-1.4.1-.52.24-.61.41-.78.16-.15.21-.2.39-.13.22.04.24,0,.67-.34.27-.21.59-.38.67-.41.16,0,.24-.05.26-.17,0-.11.07-.16.1-.18.02-.01,0-.11-.06-.28-.01-.1-.03-.2.04-.25.12-.09.2-.44.16-.52-.05-.08,0-.1.01-.11s.01-.11-.01-.2l-.03-.19-.1-.05s.02,0,.04-.02c.06-.03.08-.04.03-.12-.11-.15-.09-.36-.05-.48.04-.12-.07-.69-.15-.85-.04-.08-.02-.09-.04-.18l-.04-.08c-.04-.08-.08-.16-.1-.25.02-.01,0-.11-.04-.19-.04-.08-.08-.16-.07-.27-.02-.09-.03-.19-.14-.34-.09-.16-.22-.39-.31-.55-.2-.4-.44-.68-.52-.64-.03.01-.16-.12-.23-.18-.14-.13-.21-.19-.33-.03-.11.06-.24.13-.34.09-.05.03-.14.08-.19.11-.04.12-.06.14-.16.09-.03.02-.24.03-.39.13-.68.36-1.32.54-1.71.54-.17.02-.95.42-1.1.54-.02.13-.07.16-.37.33-.2.06-.38.23-.59.56-.37.47-.37.47-.66.66-.19.07-.3.19-.32.21-.02.02-.02.15-.1.24-.06.07-.06.2-.01.28-.02.02,0,.13-.17.18-.08.09-.26.14-.29.19-.02.02-.2.11-.37.17-.1.12-.32.26-.31.38-.08.1-.13.17-.15.19-.32-.06-1.53,1.57-1.9,2.63-.06.11-.16.44-.28.65-.13.21-.22.4-.14.44.07.04.04.1-.04.1-.08-.13-.15-.25-.18-.31-.18-.18-.41-.45-.49-.61-.17-.11-.5-.92-1.01-1.64-.43-.76-.84-1.48-.89-1.58-.17-.21-.39-.56-.6-.92-.23-.34-.43-.68-.51-.88-.3-.58-1.26-2.07-1.59-2.12-.07-.09-.15-.18-.19-.23.07-.06-.11-.28-.23-.57-.22-.28-.45-.7-.57-.99-.3-.37-.52-.65-.98-1.12-.38-.34-1.05-1-1.68-1.64-.66-.62-1.31-1.19-1.55-1.46-.26-.34-.62-.75-2.88-2.45-.5-.39-1.31-.81-2.06-1.2-.76-.38-1.44-.74-1.79-.84-1.18-.29-1.55-.46-2.13-.75-.53-.27-.69-.33-.84-.58-.26-.3-.37-.34-1.79-.9-.87-.37-1.8-.72-2.02-.8-.31-.19-.59-.28-.84-.26-.19.03-.42-.03-.53-.07-.06-.02-.19.03-.35.17-.14.05-.27.1-.49.04-.39-.09-1.13.01-1.15.1-.02.09-.13.06-.19.05-.06-.01-.19.05-.26.12l-.21.14.14.13s-.04-.01-.11-.03c-.17-.04-.22-.05-.24.04.01.19-.3.3-.54.34-.24.04-.73.48-.76.65-.02.09-.07.08-.14.15l-.02.09c-.02.09-.04.18-.11.25-.05-.01-.12.06-.14.15-.02.09-.04.18-.16.24-.07.08-.14.15-.12.34-.03.18-.04.45-.07.63-.09.44,0,.83.14.87.05.01.11.21.15.31.06.2.09.3.41.28.2.05.45.1.53.22.1.02.25.06.35.08.17-.05.22-.04.3.07.05.01.33.17.62.24,1.19.45,2.1.93,2.49,1.33.22.14,1.38.83,1.66.93.17-.03.26,0,.73.29.25.18.59.36,1.16.54.87.33.88.33,1.32.65.23.2.43.33.47.36.04.03.21.02.38.12.12.08.3.07.38.02.04.03.17,0,.34.2.17.1.33.3.41.35.04.03.25.25.4.45.21.12.46.44.63.45.16.11.27.2.31.23,0,.2.69.7,1.46,1.37.76.69,1.74,1.41,2.37,2.01.13.14.57.46.84.74.28.27.5.53.56.47.07-.06.16.06.12.15-.13.12.27.91.44.83.1-.02.22.13.18.23-.13.17.24.49.81,1.51.3.44.63,1.09.82,1.37.21.27.48.95.77,1.46.41.72.61.88.73.93.13.04.3.17.38.3.06.13.27.36.33.5.06.13.19.4.21.67,0,.22.09.4.09.4.1,0,.17.14.17.36.04.2.16.51.29.77.11.28.22.51.28.54,0,.01.06.13.17.36-.1-.03-.21-.05-.32-.07-.39-.16-.76-.31-.81-.33-.26-.02-.8-.2-.96-.35-.27-.18-1.08-.47-1.24-.31-.06-.01-.11-.03-.14-.04.03-.09-.11-.12-.23-.25-.17-.05-.36-.19-.48-.32-.22-.06-.39-.11-.7-.17-.5-.02-1.81-.28-2.15-.39-.2-.1-.44-.2-1.84-.37-.62-.07-1.84.14-2.2.24-.59.28-.8.33-1.13.35-.3.03-.39.04-.53-.13-.2-.16-.27-.16-1.06-.02-.49.09-1.03.1-1.15.14-.21-.04-.36,0-.46.13-.07.11-.19.15-.25.16-.03,0-.07.11-.08.3-.03.1-.07.21-.19.24-.21.05-.47.45-.44.53.03.08-.03.11-.06.12-.03.01-.05.12-.05.21l-.02.2.11.05s.03-.01-.06.02-.11.04-.08.13c.09.16.02.38-.05.5-.08.13-.05.69.03.86.04.08.01.09.02.18l.04.08c.04.08.07.17.08.26-.02,0-.01.1.02.18.04.08.07.16.06.27.01.09.03.18.12.34.08.16.2.4.28.57.18.41.39.72.45.69.02,0,.13.14.18.22.11.15.16.23.24.1.08-.03.17-.07.24,0,.04-.01.1-.04.13-.05.03-.11.05-.11.11-.04.02,0,.16.03.28,0,.53-.04.95,0,1.21.24.12.07.68.15.79.13.05-.1.08-.12.31-.04.13.08.29.07.52-.05.37-.13.37-.13.6-.04.13.09.23.09.25.09.02,0,.08-.09.16-.09.06,0,.12-.09.14-.18.02,0,.06-.09.17,0,.08,0,.18.09.23.09.02,0,.14.1.24.2.1,0,.26.11.33.02.08,0,.14,0,.17.01.09.26,1.41.39,2.19.39.08.02.33-.02.5,0,.17.03.31.07.33-.01.02-.09.08-.07.08.02-.04.18.28.45.35.28.04-.08.13-.06.12.03-.03.19.18.22.64.47.22.08.49.26.63.31.14.04.41.23.64.34.33.14.47.09.54.03.07-.07.19-.12.25-.09.06.03.22-.01.28.02.06.03.18.09.24.21.04.12.12.16.12.16.06-.07.12-.04.15.07.12.16.48.33.56.27.01,0,.08.02.28.09.2.07.53.2,1.05.45.11.07.2.13.54.56.35.32.56.48.82.67.24.07.33.13.31.23.03.03,0,.11.02.12.02.01,0,.11.03.13.03.02.07.16.12.2.06.05.12.22.2.29.09.22.23.33.38.36.07.48.23.83.42.87.3.16.39.14.47.08.09-.01.18-.03.2.07.11.09.21.17.31.21,0,.05.11.09.12.14q0,.05.1.04c.08-.06.26-.09.35-.1l.18-.03v-.05Zm-20.6-11.35c-.03-.08.05-.12.16-.06.08.06.06.07.03.18-.08.13-.13.05-.2-.12Zm.34.93c-.04-.18.02-.2.1-.04.03.08.06.17,0,.19-.02.1-.08.03-.11-.15Zm.2.4s-.02,0-.06-.08c0,0-.03-.08,0-.09l.06.08c.03.08,0,.09,0,.09Zm.41.23s-.02,0-.05.02h.02s.05-.03.02-.02Zm.99-.28c-.07-.07-.07-.07-.07-.26,0-.19.11-.22.13-.03.04.18.01.37-.06.3Zm-.13.22l-.07.02s-.02,0,.02,0h.05Zm-1.1,1.21c-.1-.06-.13-.14-.1-.25,0-.19.03-.2.11-.04.06.17.08.35-.02.3Zm-5.91-28.12c-.24.04-.27-.06-.23-.24.02-.09.19-.05.33.08.09.11.03.1-.1.16Zm-.4.92c-.13.06-.16-.04-.06-.2.1-.16.2-.14.21.05-.02.09-.04.17-.15.15Zm-.06.26q-.05-.01-.03-.1s.02-.09.07-.07l.03.1c-.02.09-.07.08-.07.08Zm-.99,1.16c-.13-.12-.12-.21.06-.26.2-.14.25-.13.26.06-.04.18-.19.33-.32.2Zm3.1-.02s.04.01.06.02l-.11-.03q-.05-.02.05.02Zm.52-.03q-.08-.12.08-.26c.16-.14.37-.07.26.08-.06.17-.27.29-.34.18Zm35.6,11.51c-.09-.16-.13-.34-.01-.3.12.04.16.12.13.24.02.2,0,.21-.12.07Zm-.1.88s.01,0,.02-.01c-.02.01-.05.03-.02.01Zm-.76.3h.01s.01-.02-.01,0Zm1.31.01l-.07-.07c-.05-.08-.02-.09-.02-.09t.07.07s.05.08.02.09Zm-1.26.49c.06.18-.02.23-.11.07-.11-.15-.15-.34-.05-.29.1.04.1.04.16.22Zm1.35-.24c-.05-.08-.09-.16-.05-.18,0-.1.07-.04.13.13.07.17.03.19-.09.05Zm.46.87c-.09-.06-.07-.07-.07-.17.04-.12.1-.06.19.1.05.08-.01.11-.12.07Z"></path><rect class="cls-1" y="0" width="749.99" height="144.46"></rect></g></svg> 