<?xml version="1.0" encoding="UTF-8"?> <svg xmlns="http://www.w3.org/2000/svg" id="Layer_2" viewBox="0 0 100.5 100.5"><defs><style>.cls-1{fill:none;}.cls-1,.cls-2,.cls-3{stroke-width:0px;}.cls-3{fill:#fd9c8a;}</style></defs><g id="Layer_1-2"><path class="cls-2" d="m86.98,48.84h-6.24c-2.49,0-4.5-2.01-4.5-4.5s2.01-4.5,4.5-4.5h6.24c2.08,0,3.78-1.69,3.78-3.78v-12.81c0-2.08-1.69-3.78-3.78-3.78h-12.81c-1.05,0-2.02.42-2.74,1.18-1.71,1.8-4.56,1.88-6.36.17-1.8-1.71-1.88-4.56-.17-6.36,2.4-2.53,5.78-3.98,9.27-3.98h12.81c7.05,0,12.78,5.73,12.78,12.78v12.81c0,7.05-5.73,12.78-12.78,12.78Z"></path><path class="cls-2" d="m86.98,90.02h-12.81c-7.04,0-12.78-5.73-12.78-12.78v-5.22c0-2.49,2.01-4.5,4.5-4.5s4.5,2.01,4.5,4.5v5.22c0,2.08,1.69,3.78,3.78,3.78h12.81c2.08,0,3.78-1.69,3.78-3.78v-12.81c0-2.08-1.69-3.78-3.78-3.78h-8.57c-2.49,0-4.5-2.01-4.5-4.5s2.01-4.5,4.5-4.5h8.57c7.05,0,12.78,5.73,12.78,12.78v12.81c0,7.05-5.73,12.78-12.78,12.78Z"></path><path class="cls-3" d="m48.03,82.04c-20.38,0-36.95-16.58-36.95-36.95S27.65,8.13,48.03,8.13s36.95,16.58,36.95,36.95-16.58,36.95-36.95,36.95Zm0-64.91c-15.41,0-27.95,12.54-27.95,27.95s12.54,27.95,27.95,27.95,27.95-12.54,27.95-27.95-12.54-27.95-27.95-27.95Z"></path><path class="cls-2" d="m59.85,37.92h-22.97c-2.49,0-4.5-2.01-4.5-4.5s2.01-4.5,4.5-4.5h22.97c2.49,0,4.5,2.01,4.5,4.5s-2.01,4.5-4.5,4.5Z"></path><path class="cls-2" d="m59.85,49.7h-22.97c-2.49,0-4.5-2.01-4.5-4.5s2.01-4.5,4.5-4.5h22.97c2.49,0,4.5,2.01,4.5,4.5s-2.01,4.5-4.5,4.5Z"></path><path class="cls-2" d="m59.85,61.71h-22.97c-2.49,0-4.5-2.01-4.5-4.5s2.01-4.5,4.5-4.5h22.97c2.49,0,4.5,2.01,4.5,4.5s-2.01,4.5-4.5,4.5Z"></path><path class="cls-3" d="m5.25,92.37c-1.28,0-2.55-.54-3.44-1.59-1.61-1.9-1.37-4.74.53-6.34l19.18-16.23c1.9-1.6,4.74-1.37,6.34.53,1.61,1.9,1.37,4.74-.53,6.34l-19.18,16.23c-.85.72-1.88,1.06-2.91,1.06Z"></path><path class="cls-1" d="m100.5,100.5H0V0h100.5v100.5Zm-100-.5h99.5V.5H.5v99.5Z"></path></g></svg> 