<?xml version="1.0" encoding="UTF-8"?> <svg xmlns="http://www.w3.org/2000/svg" id="Layer_2" viewBox="0 0 47.13 44.86"><defs><style>.cls-1{fill:#020202;stroke-width:0px;}</style></defs><g id="Layer_1-2"><path class="cls-1" d="m14.83,15.98c.1-.01.14.03.13.13-.02.1-.14.05-.22-.04-.06-.11-.05-.12.09-.09Zm-1.34.45s.04-.02.02,0l-.06.03.04-.02Zm.59-.45h.02s-.04.01-.04.01c-.02.01,0,0,.02-.01Zm-.87.23c.08.1.08.1.05.17-.03.07-.12-.03-.15-.14-.05-.11.03-.13.1-.03Zm.84-.66s.05.03.05.03t.02.06s-.02.01-.05-.03l-.02-.06Zm-.09-.16c.09.08.12.14.05.12-.03.03-.07-.02-.1-.07-.06-.11-.03-.13.06-.05Zm-.43-.5c.08.09.1.15.02.14-.06-.03-.07-.02-.08-.08,0-.08.02-.1.06-.05Zm-.45-2.29s.07.11.09.16c0,.08,0,.1.13.12.06.02.06.03.06.03-.07.01-.11.1-.14.25-.1.29-.15.32-.05.41,0,0,.05.05.04.07.09.08.14.12.26.15.06.02.05.03.05.04-.02.03.09.09.25.18.05.03.1.07.15.11s.1.07.21.13c.11.04.22.1.27.13.16.08.4.28.48.38,0,0,.04.05.05.03,0,0,.1.08.17.18.13.13.17.18.19.14.06.01.07,0,.12.04.19.14.27.25.23.3,0,0,.02.08.07.11.07.11.56.56.61.6l-.02.03.1.07s.15.1.18.17t.07,0s.09-.03.11-.06c.07,0,.16-.03.25-.06.04-.06.09-.03.14,0,.03.06.08.1.32.06.19.03.55-.46.66-1.12.06-.19.09-.48.13-.63.03-.12,0-.32.02-.4.02-.08-.03-.16-.02-.2,0-.04-.05-.09-.04-.16-.06-.09,0-.27.06-.68.02-.57,0-1.04-.25-1.84-.35-.85-.47-1-.56-1.21-.43-.92-.85-1.43-1.12-1.72-.26-.3-.37-.38-.38-.4-.01-.11-.66-.59-1.01-.67-.18-.02-.29-.08-.3-.15,0,0-.16-.07-.34-.07-.22-.03-.46-.09-.59-.12-.12-.04-.36-.14-.49-.16-.13-.02-.29-.1-.38-.17-.08-.05-.31-.17-1.07-.1-.54.07-1.17.31-1.44.44-.3.1-.84.47-1.21.74-.76.66-.96,1.01-.91,1.11.02.07-.07.19-.15.18-.14-.05-.42.61-.31.67.03.06-.02.16-.07.13-.05-.03-.18.2-.31.48-.12.27-.32.65-.35.79-.26.63-.4,1.59-.32,2.39.07.8.34,1.43.45,1.48.01.03.04.14.1.28-.01.13.15.39.24.55.14.14.3.31.32.34.04.06.19.19.28.31.15.12.16.21.18.24-.02.07,0,.19.07.28.09.12.14.24.16.27.03.03.16.17.38.29.38.23.35.25.97.7.4.29.72.4.97.43.46.07.53.08.64.16.25.09,1.37-.01,1.55-.13.37-.23,1.11-.5,1.85-1.03.18-.12.32-.29.35-.31.02-.09.04-.11.16-.13.05-.05.13-.11.19-.16.01-.09.13-.21.23-.31.19-.11.16-.18.11-.31-.02-.06-.08-.19-.06-.22.06-.08-.07-.29-.32-.47-.09-.08-.23-.19-.32-.27-.08-.09-.15-.1-.21-.12-.08,0-.13-.03-.17-.07s-.11-.05-.12-.04c-.06-.02-.11-.06-.16-.09l-.05-.04c-.06-.02-.07,0-.12-.04-.1-.07-.45-.2-.54-.2-.09,0-.23-.03-.3-.12-.04-.04-.05-.03-.08,0-.03.02-.03.02-.02.02v-.07s-.12-.07-.12-.07c-.05-.04-.11-.07-.11-.06,0,0-.03.02-.06-.03-.04-.04-.24-.12-.28-.09-.03.01-.07-.03-.11-.08-.07-.1-.1-.15-.11-.14-.01,0-.03,0-.07-.04-.04-.04-.05-.05-.06.02-.01,0-.08.08-.15.07-.11,0-.12-.02-.19.09-.06.1-.08.1-.15.07-.07-.04-.13-.06-.13-.31-.04-.1-.13-.42-.19-.6-.2-.39-.16-.53-.23-.59-.08-.13.01-.63.15-.74.05-.09.07-.14.11-.2-.03-.07-.03-.17,0-.21-.02-.08.02-.1-.03-.15,0,0,.02-.02.03-.03.11.05.28-.08.32-.16.02-.07.15-.13.22-.07.01,0,.09-.02.18,0,.08.08.16.09.15.16.01.01.03.06.01.14.01,0,.03.08.07.11.04.03.03.11.04.1,0,0,.02.02.09,0,.03.02.07.08.1.12.03.05.05.08.06.08.1-.07.21.02.16.04-.05.02-.03.08.03.07v.03s-.07.1-.12.17c.01.04-.03.1-.03.1,0,0,0,.03.02.08Z"></path><path class="cls-1" d="m1.92,32.14c-.06.39-.12.39-.18,0-.06-.39.06-.66.18-.66.12.13.12.26,0,.66Zm.36-7.36q0,.26,0,.13v-.39.26Zm.12,4.21v.13-.26c0-.13,0,0,0,.13Zm.18-5.39q-.12.26-.18,0c-.06-.26.06-.66.18-.66.12-.13.12.39,0,.66Zm.18,6.84c0,.13-.06.13-.06.13q-.06,0-.06-.13s0-.13.06-.13l.06.13Zm.18.26c-.12.13-.18,0-.12-.26,0-.26.06-.26.12-.26.12.13.12.39,0,.53Zm.66,0c-.12,0-.18-.13-.12-.66.06-.26.06-.39.12-.13.06.39.06.79,0,.79Zm42.44,5.59c.23-.59.57-1.95.72-2.85.23-1.2.24-1.65.16-1.95-.03-.3-.02-.45-.02-.45.08-.12.21-1.57.19-3.6.06-4.08.06-5.13-.06-5.79,0,0-.06-.39-.06-.66-.12-.53-.18-.66-.3-.39-.06.13-.06,0-.06-.13,0-.39-.12-.53-.3-.53-.06,0-.12-.13-.18-.26-.06-.13-.12-.13-.24-.13-.12.13-.24.13-.3.13-.18,0-.48-.39-.6-.66,0,0-.06-.13-.06,0,0,0-.12-.13-.24-.39-.18-.26-.24-.39-.24-.13q-.06.13-.12.13c-.24-.13-.36-.39-.36-.66,0,0-.06-.26-.12-.26-.12-.26-.78-.66-.84-.66v-.13h-.12c-.06,0-.18,0-.24-.13q-.06,0-.06.13c0,.13-.06.26-.06.39-.06.13-.12.39-.18.66,0,.26-.06.26-.12.26-.06-.13-.12-.13-.3.39-.18.26-.24,2.1-.12,4.21.02.59.05,1.63.06,2.1,0,.39.06,1.05.06,1.31s.06.53.06.66.06.26.06.53c.05.24.08.98-.02,2.31-.01.44-.02.85-.07,1.26-.03.41-.08.82-.16,1.24-.13.85-.36,1.78-.79,2.88-.47,1.2-.91,1.82-1.22,2.22-.17.2-.29.35-.4.48-.13.11-.23.21-.34.31-1,.88-1.99,1.28-2.83,1.49-.83.23-1.52.24-2.03.25-1.04-.02-1.39-.09-1.44-.1-.1-.06-.66-.11-1.24-.28-.6-.14-1.23-.39-1.6-.56-.4-.1-.63-.31-.69-.4,0,0-.34-.2-.68-.42-.22-.12-.43-.31-.61-.49-.19-.17-.35-.33-.44-.46-.08-.1-.21-.29-.36-.5-.11-.21-.22-.41-.31-.54-.19-.25-.29-.68-.34-.88-.03-.1-.07-.28-.19-.65-.12-.36-.31-.91-.5-1.82-.14-.63-.24-1.39-.29-2.07-.02-.35-.05-.65-.05-.98,0-.35,0-.64,0-.86,0-.9,0-2.93,0-4.34-.01-3.15-.03-4.47-.15-4.61-.06-.13-.06-.66,0-.79.12-.13,0-2.5-.12-2.5-.06-.13-.06-.53,0-.53.05-.02.08-.87.02-2.08,0-.58-.1-1.28-.14-1.91-.09-.63-.18-1.18-.23-1.47-.28-1.32-.76-2.91-1.63-4.46-.85-1.54-2.11-3.01-3.54-4.03-1.42-1.02-2.94-1.63-4.1-1.86C14.41.05,13.61.01,13.42.06c-.15,0-.63-.05-1.25-.05-.23-.02-.65,0-1.11.03-.46.05-.97.15-1.35.2-.77.22-1.67.54-1.81.62-.15.06-.41.17-.7.3-.33.18-.65.35-.89.48-.68.44-.95.61-1.1.69-.18.03-.59.3-.96.63-.5.42-.84.78-.96.9-.12.11-.64.75-1.09,1.6-.43.77-.58,1.16-.81,1.7-.13.26-.24.57-.38.98-.16.41-.32.92-.49,1.61C.07,11.49-.01,12.66.03,13.53c.01.81.02,1.25.02,1.52,0,.3-.02.46-.04.66,0,.79.12,4.34.18,5,.18,1.31.3,3.94.36,7.23,0,.79.06,1.58.06,1.71.06.26.06.39,0,.79v.92c.06.26.06.92.06,1.45-.06.79,0,.92.12,1.18.06.13.18.39.18.53,0,.39.24.79.54.79.12,0,.3.13.42.13.12.13.18,0,.24-.13.06-.26.12-.26.18-.26s.12-.13.12-.26c.06-.13.12-.13.18-.13h.06c.06-.13.06-.26.12-.26.12,0,.48-.92.54-1.45.06-.53.18-1.18.3-1.05.06,0,.06-.13.06-.53s0-.39,0-.26l.06.39.12-.39c.06-.13.12-.39.12-.53s0-.39.06-.39.24-1.58.24-2.5c0-.53.06-.79.12-1.05.12-.26.18-.53.18-.66,0-.26,0-.79.06-1.18.06-.53.06-1.18,0-1.97,0-.51-.03-2.81-.06-4.86,0-1.7-.01-2.58-.02-3.22-.02-.59-.02-.78-.08-1.15-.11-.47-.09-.83.07-1.97.09-.63.22-1.11.4-1.7.22-.56.48-1.28,1.08-2.08.33-.5,1.12-1.49,2.25-2.13,1.15-.62,2.66-.89,3.78-.89,2.45-.04,3.65.65,4.38,1.08.72.47,1,.76,1.27.97.43.39,1.41,1.52,1.96,3.08.6,1.52.8,3.33.8,4.3.01.32.02.6.03.85v2.31c.06.66.12,1.71.12,2.49.06.66.06,1.31.12,1.31,0,.13,0,.39,0,.66-.13.53-.18,4.47-.13,5.92.03.47.02,1.32.03,2.3,0,1.04.11,2.12.17,2.8.07.29.33,2.42,1.41,4.54.46,1.09,1.18,2.08,1.79,2.83.64.74,1.17,1.25,1.35,1.42.15.12.41.35.77.65.27.2.6.45.91.68.21.14.69.37,1.28.68.61.25,1.33.56,2.05.71,1.26.32,2.37.45,2.53.45,0,0,.18,0,.52.02.31.02.76,0,1.24-.07.8.02,2.44-.29,3.55-.66.55-.22,1.02-.4,1.36-.57.33-.18.56-.31.63-.35-.02-.06,1.72-1.34,1.72-1.34.03.04.92-.73.96-.91l.33-.37c.07-.04.3-.23.56-.53.25-.3.57-.68.85-1.07.18-.3.38-.64.57-.95.16-.26.24-.44.24-.44.05-.15.29-.58.55-1.32Z"></path><path class="cls-1" d="m35.64,28.2c-.03-.09,0-.14.11-.15.1,0,.07.13,0,.22-.09.08-.11.06-.1-.08Zm.67,1.24s-.03-.04-.01-.02l.04.06-.03-.04Zm-.55-.5l-.02-.02.03.03s0,0-.02-.02Zm.39.83c.08-.1.08-.1.16-.09.07.01,0,.13-.11.18-.1.07-.14,0-.05-.1Zm-.81-.73s.02-.06.02-.06t.06-.03s.02.01-.02.06l-.06.03Zm-.15.11c.06-.1.12-.14.11-.07.03.03-.01.07-.05.11-.09.08-.12.06-.06-.05Zm-.43.5c.08-.09.13-.13.13-.04-.02.06,0,.07-.07.1-.07.02-.1,0-.06-.05Zm-1.33.94s.02-.08.04-.1c.03-.01.04-.02,0-.14-.02-.06-.01-.06-.01-.06.03.05.09.09.14.08.11.05.1.05.14-.06,0,0,.02-.06.03-.06.04-.12.06-.17.08-.29,0-.06.01-.06.02-.06.02,0,.06-.11.1-.28.01-.06.04-.11.07-.17.03-.05.04-.11.08-.23.02-.12.05-.23.07-.29.05-.17.18-.45.26-.55,0,0,.04-.05.02-.06,0,0,.06-.11.14-.21.1-.15.15-.2.1-.22,0-.07,0-.07.02-.12.1-.22.2-.31.25-.29,0,0,.07-.03.1-.09.09-.09.45-.66.48-.71h.03s.03-.04.05-.1.07-.16.14-.2q.03-.05-.01-.07s-.05-.08-.08-.1c-.01-.07-.06-.16-.12-.24-.08-.03-.05-.09-.03-.14.06-.04.08-.1-.02-.33-.02-.19-.64-.47-1.39-.41-.23-.02-.55.04-.73.05-.14,0-.36.08-.44.1-.09.01-.17.09-.21.1-.04,0-.08.07-.16.09-.07.07-.28.12-.75.22-.6.23-1.08.47-1.73,1.1-.64.75-.7.93-.85,1.11-.61.83-.83,1.42-.96,1.76-.14.34-.16.47-.17.48-.09.06-.21.78-.15,1.08.05.15.05.26-.01.3,0,0,0,.15.06.3.07.18.08.4.1.52.01.11-.02.34,0,.45.02.11,0,.27-.04.36-.04.09-.07.3.16.92.17.44.51.94.67,1.17.14.24.57.68.89,1,.76.64,1.17.8,1.25.73.07-.03.21.05.22.12-.03.14.73.32.76.2.06-.04.17,0,.16.05-.02.05.26.15.59.21.33.07.79.15.96.15.77.08,1.87-.17,2.64-.63.78-.45,1.22-1.01,1.23-1.14.03-.03.11-.11.21-.23.12-.05.28-.33.38-.49.07-.22.14-.44.14-.45.04-.07.07-.26.14-.39.03-.19.1-.23.12-.26.07,0,.17-.09.21-.19.06-.14.14-.22.16-.26.01-.03.07-.21.07-.44.03-.41.05-.4.18-1.08.09-.43.08-.73,0-.94-.09-.39-.11-.46-.06-.58,0-.23-.38-1.14-.53-1.27-.3-.27-.69-.85-1.3-1.47-.14-.16-.33-.26-.36-.29-.09,0-.12-.03-.16-.14-.05-.05-.13-.11-.19-.16-.09,0-.23-.1-.35-.18-.14-.17-.21-.14-.33-.06-.06.04-.18.11-.21.09-.09-.05-.28.12-.41.39-.06.1-.15.26-.21.37-.07.1-.08.16-.08.23.02.08-.01.13-.04.18s-.03.12-.02.13c0,.06-.04.12-.07.17l-.03.05c-.01.06,0,.07-.02.12-.05.11-.12.47-.12.56.02.09,0,.22-.08.31-.04.05-.02.05,0,.08.03.03.03.03.02.02l-.07.02-.05.12c-.03.05-.05.11-.04.12,0,0,.03.02-.01.07-.03.04-.08.26-.04.3.02.03-.01.09-.05.14-.08.09-.12.13-.12.14,0,.01.03.05-.01.1-.03.06-.01.09.06.11.02.02.13.15.18.31.06.26.05.28.17.33.12.04.13.07.12.19,0,.12-.01.22-.23.39-.08.13-.35.41-.44.49-.17.27-.22.25-.23.33-.04.1-.26.13-.32.04-.05-.01-.07-.01-.11-.03-.05.05-.12.08-.15.06-.06.04-.09,0-.12.06,0,0-.02-.01-.03-.02.04-.11-.12-.26-.23-.32-.09-.02-.2-.2-.17-.31,0-.02-.07-.15-.1-.32.02-.17.01-.34.07-.37,0-.03.06-.1.12-.13,0-.03.07-.12.08-.21.02-.07.09-.12.09-.13,0,0,.01-.04-.03-.11,0-.05.05-.12.07-.19.03-.05.05-.09.05-.09-.11-.06-.09-.18-.04-.15.05.03.08-.01.04-.05l.02-.02c.05.03.12.03.19.05.02-.02.08,0,.08,0,0,0,.02,0,.04-.03Z"></path></g></svg> 