<?xml version="1.0" encoding="UTF-8"?> <svg xmlns="http://www.w3.org/2000/svg" xmlns:xlink="http://www.w3.org/1999/xlink" id="Layer_2" viewBox="0 0 68.83 52"><defs><style>.cls-1{clip-path:url(#clippath);}.cls-2{clip-rule:evenodd;fill:none;}.cls-2,.cls-3,.cls-4{stroke-width:0px;}.cls-3{fill:#f39d8d;}.cls-4{fill:#020202;}</style><clipPath id="clippath"><path class="cls-2" d="m26,1h4.84c13.81,0,25,11.19,25,25s-11.19,25-25,25h-4.84c-13.81,0-25-11.19-25-25S12.19,1,26,1Z"></path></clipPath></defs><g id="Layer_1-2"><g class="cls-1"><rect class="cls-3" width="56.84" height="52"></rect></g><path class="cls-4" d="m55.75,22.97c.17.09.16.15-.03.18-.19.03-.29-.1-.26-.22.08-.1.14-.1.29.05Zm-2.89-1.47q.1.06.05.03l-.15-.09.1.06Zm1.68.66l.05.02-.1-.04c-.05-.02,0,0,.05.02Zm-1.93-1.18c.02.16.02.17-.1.15-.12-.02-.19-.22-.12-.31.03-.13.2,0,.22.16Zm2.61,1.01c.05.01.04.07.04.07q-.01.06-.07.04s-.05-.01-.04-.07l.07-.04Zm.15-.15c.02.13-.04.17-.13.09-.1-.03-.09-.08-.07-.14.08-.1.18-.08.2.05Zm.16-.64c-.03.12-.09.16-.26.06-.08-.08-.12-.09-.01-.13.16-.02.29.01.28.07Zm6.5-3.52c-.09.12-.25.45-.43.62-.21.25-.31.31-.29.45-.02.1-.05.13-.05.13-.07-.02-.37.19-.92.53-.55.3-.92.41-1.16.51-.24.11-.36.14-.44.23,0,0-.1.09-.18.11-.13.16-.17.21-.06.32.05.05.01.06-.03.06-.13.02-.15.14-.12.32,0,.06-.03.13-.06.19s-.03.13-.01.24c.06.11.08.23.09.29.03.18-.08.5-.18.63,0,0-.05.07,0,.06,0,0-.04.13-.14.26-.1.18-.15.25-.04.24.06.06.06.06.07.12-.04.24-.15.37-.27.37,0,0-.12.07-.12.13-.11.13-.3.8-.3.85h-.07s0,.06,0,.12c0,.06,0,.18-.07.24q0,.06.07.06c.07,0,.14.05.21.05.07.06.22.11.36.16.14,0,.15.05.15.11-.07.06-.07.12.25.29.16.16,1.25.12,2.38-.36.36-.13.84-.35,1.11-.49.21-.1.52-.31.65-.38.14-.06.23-.2.3-.24.06-.04.1-.13.22-.21.1-.13.42-.3,1.1-.76.85-.71,1.53-1.32,2.38-2.7.82-1.57.85-1.95,1.02-2.35.67-1.83.65-3.06.69-3.76-.01-.71,0-.96-.02-.99.02-.08-.02-.46-.09-.9-.08-.44-.24-.92-.34-1.19-.16-.26-.23-.47-.2-.56,0,0-.09-.28-.27-.53-.21-.31-.4-.7-.51-.89-.11-.19-.29-.59-.4-.78-.12-.18-.25-.45-.29-.61-.04-.15-.19-.52-1.1-1.41-.64-.64-1.6-1.23-2.06-1.48-.44-.29-1.48-.7-2.26-.96-.86-.23-1.48-.33-1.9-.35-.41-.05-.62-.01-.66.04-.08.06-.37.04-.44-.02-.07-.16-1.39.03-1.37.15-.07.06-.28.09-.29.03,0-.05-.51,0-1.08.12-.23.05-.57.13-.92.21-.3.09-.56.17-.7.22-1.25.4-2.88,1.39-3.93,2.56-1.08,1.15-1.64,2.33-1.64,2.53-.03.07-.13.26-.25.52-.16.17-.3.74-.43,1.08-.07.36-.1.8-.12.87-.04.14-.06.5-.1.78,0,.36-.07.49-.08.56-.08.06-.14.27-.15.49-.02.29-.08.5-.09.57-.01.07.01.44.09.86.04.39.11.58.14.85.04.27.07.61.23,1.28.18.85.42,1.39.67,1.75.39.69.51.79.56,1.01.1.19.48.66.86,1.1.41.41.83.8.99.89.63.36,1.78,1.18,3.39,1.77.39.14.79.23.86.25.15-.02.21,0,.4.1.13.03.33.08.46.12.14-.02.48.02.75.06.39.13.47.06.61-.05.07-.06.21-.17.28-.17.2.01.4-.22.4-.52,0-.12.06-.3.06-.42.06-.12,0-.18-.06-.24-.11-.07-.11-.13-.11-.19,0-.06-.05-.12-.11-.13-.05-.06-.05-.12-.05-.18v-.06c-.05-.06-.1-.07-.1-.13,0-.12-.33-.48-.51-.59-.19-.09-.41-.24-.34-.35.01-.06-.04-.06-.17-.09q-.14-.04-.09-.02l.15-.02-.11-.15c-.03-.07-.1-.15-.15-.16-.04-.01-.13-.03-.11-.09,0-.04-.43-.39-.71-.49-.15-.08-.21-.17-.26-.26-.02-.14-.07-.23-.11-.25-.08-.03-.21-.13-.29-.24-.11-.13-.28-.24-.5-.34-.14-.08-.71-.5-1.12-1.01-.64-.86-.61-.96-.84-1.13-.19-.1-.24-.22-.38-.62-.14-.44-.24-.75-.14-1.59-.03-.51.26-2.14.68-2.87.38-.87.74-1.32.97-1.6.23-.29.35-.4.44-.52.15-.2.63-.57,1.17-.88.55-.3,1.18-.46,1.53-.51.44-.08.68-.13,1.01-.13.2-.08.54-.13.79-.11.22-.06.42,0,.43-.07.04,0,.13.02.21.03.16.12,1.36.45,1.78.66.15.03.39.18.65.33.23.19.49.37.6.53.06.05.52.44.89.96.18.26.31.55.43.77.09.23.16.41.16.48.07.11.07.37.08.54.05.11.1.52.17.87.05.32.03.6.02.64,0,0,0,.2.08.44-.02.2-.01.61-.08.88-.03.28-.08.47-.1.51.12.02.05.56-.03.54-.06-.02-.16.25-.11.31l-.04.12c-.07.01-.24.21-.39.4-.09.18-.25.31-.25.31-.03.03-.07.14-.19.3Z"></path><path class="cls-4" d="m27.89,4.67c-.21-.06-.21-.12,0-.18.21-.06.36.06.36.18-.07.12-.14.12-.36,0Zm3.99.36q-.14,0-.07,0h.21-.14Zm-2.28.12h-.07.14c.07,0,0,0-.07,0Zm2.92.18q-.14-.12,0-.18c.14-.06.36.06.36.18.07.12-.21.12-.36,0Zm-3.71.18c-.07,0-.07-.06-.07-.06q0-.06.07-.06s.07,0,.07.06l-.07.06Zm-.14.18c-.07-.12,0-.18.14-.12.14,0,.14.06.14.12-.07.12-.21.12-.29,0Zm0,.66c0-.12.07-.18.36-.12.14.06.21.06.07.12-.21.06-.43.06-.43,0Zm-1.4,7.78c0-.29-.06-.93-.06-1.35,0-.57,0-.78-.12-.93-.06-.14-.06-.21-.06-.21.06-.07.12-.71.12-1.85.06-2.21.06-2.78-.06-3.14,0,0-.01-.06-.03-.12v-.06s-.02-.03-.02-.03c0,0,0-.01,0-.01h0s0,0,0,0h0s-.94,0-.94,0h0s-.02,0-.02,0c-.04,0-.02,0-.02,0h0s0,0,0,0h0s.02.02-.1-.07c-.1-.06-.21-.12-.26-.15-.16-.08-.36-.34-.37-.5,0,0,0-.08-.04-.04,0,0-.06-.12-.03-.29,0-.22.04-.31-.09-.23-.09,0-.1,0-.13-.05-.09-.24.01-.45.19-.53,0,0,.16-.13.14-.18.12-.18.4-.88.41-.94h.14s0-.07,0-.13c0-.06-.01-.18.14-.25,0-.06,0-.06-.16-.05-.16,0-.32-.03-.48,0-.17-.03-.51,0-.85.08-.31.14-.33.1-.36.05.13-.12.1-.23-.62.05-.19.04-.91.47-1.41,1.51-.12.26-.22.55-.29.87-.03.16-.06.33-.07.49-.01.15-.02.41-.01.42,0,.26.03.53.06.82,0,.36.06.86.06,1.14,0,.21.06.57.06.71s.06.28.06.36.06.14.06.29c.06.14.06.5,0,1.28,0,1.07,0,1.92.06,3.49.12,1.71.12,2.07.12,2.49-.04,2.08-.07,3.42-.08,4.26,0,.65.1,1.03.17,1.27.07.24.12.35.13.38.02.12.28.74.82,1.26.53.54,1.33.87,1.81.94.5.06.89.05,1.01.12,0,0,.54,0,1.07-.06.41-.06.8-.06,1.02-.06.21,0,.64.06.86.06s.5.06.64.12.5.12,1.71.12c.86,0,1.92-.06,2.42-.06.46-.01,1.63-.04,2.35-.06.85-.03,1.39-.05,1.86-.07.21-.01.4-.03.64-.04.19-.02.29-.04.32-.07.12-.05.63-.07.77-.02.08.05.68,0,1.17-.25.5-.24.89-.63.84-.68.06-.11.31-.36.35-.32.03.05.67-.57.9-1.49.14-.44.18-1.05.18-1.6.01-.44.03-.83.03-.99.12-2.57.12-7.2-.06-7.56v-.57c.06-.21,0-.78,0-1.14-.06-.36-.12-.78-.12-.86,0-.14-.06-.5-.06-.78-.06-.36,0-.5,0-.57.06-.07.12-.29.12-.5,0-.07,0-.14,0-.2,0-.08.01-.18.02-.27.02-.18.03-.31.03-.37-.01-.12.05-.8-.18-1.46-.19-.6-.37-.88-.61-1.24-.26-.33-.6-.85-1.62-1.3-.63-.27-1.27-.3-1.81-.29-.23,0-.45,0-.72.01-.13,0-.24.02-.35.03-.78.06-.93.06-1.14,0-.43,0-2.35.12-2.71.18-.71.18-2.14.3-3.92.36-.43,0-.86.06-.93.06-.14.06-.21.06-.43,0h-.5c-.14.06-.5.06-.78.06-.43-.06-.5,0-.64.12-.07.06-.21.18-.29.18-.21,0-.43.24-.43.54,0,.12-.07.3-.07.42-.07.12,0,.18.07.24.14.06.14.12.14.18s.07.12.14.12c.07.06.07.12.07.18v.06c.07.06.14.06.14.12,0,.12.5.48.78.54.29.06.64.18.57.3,0,.06.07.06.29.06s.21,0,.14,0l-.21.06.21.12c.07.06.21.12.29.12s.21,0,.21.06.86.24,1.35.24c.29,0,.43.06.57.12.14.12.29.18.36.18.14,0,.43,0,.64.06.29.06.64.06,1.07,0,.29,0,1.5-.06,2.64-.06,1.85,0,2,0,2.42-.12.07-.03.14-.05.21-.07.04,0,.07-.02.1-.02h.02s.07-.03.14-.03c.11-.03.31.07.14.35-.01.03-.03.07-.05.11,0-.07-.02.22-.03.45,0,.24-.02.49-.03.73-.04,1.01-.07,2.09-.07,2.84.06,3.35.06,3.99.12,4.49.03.43.04,1.46.04,2.54,0,.52,0,1.05-.01,1.54,0,.05-.02.09-.03.11,0,.07-.04.1-.09.12.01.07-.04.13-.1.13,0,.02-.02.03-.03.04,0,0-.02.02-.11.02-.13.01-.22.03-.22.06h-.36c-.29-.12-2.42-.12-3.21-.06-.5.06-1.92.06-2.57,0h-2.21c-1.07-.06-2.14-.06-2.35-.12-.1,0-.09-.06-.1-.12-.02,0-.03-.06-.04-.08-.02-.02.04-.07.04-.07,0,0,0,0-.06,0v-2.09c-.12,0-.18-.93-.12-.93s.06-.5,0-.57v-.21c.06-.07.12-.5.18-.93,0-.36.06-.71.06-.71v-.64Z"></path><path class="cls-4" d="m34.89,30.46c-.17-.09-.16-.15.03-.18.19-.03.29.1.26.22-.08.1-.14.1-.29-.05Zm2.89,1.47q-.1-.06-.05-.03l.15.09-.1-.06Zm-1.68-.66l-.05-.02c.05.02.1.04.1.04.05.02,0,0-.05-.02Zm1.93,1.18c-.02-.16-.02-.17.1-.15.12.02.19.22.12.31-.03.13-.2,0-.22-.16Zm-2.62-1.01c-.05-.01-.04-.07-.04-.07q.01-.06.07-.04s.05.01.04.07l-.07.04Zm-.15.15c-.02-.13.04-.17.13-.09.1.03.09.08.07.14-.08.1-.18.08-.2-.05Zm-.16.64c.03-.12.09-.16.26-.06.08.08.12.09.01.13-.16.02-.29-.01-.28-.07Zm-6.5,3.52c.09-.12.25-.45.43-.62.21-.24.31-.31.29-.45.02-.1.05-.13.05-.13.07.02.37-.19.92-.53.55-.3.92-.41,1.16-.51.24-.11.36-.14.44-.23,0,0,.1-.09.18-.11.13-.16.17-.21.06-.32-.05-.05-.01-.06.03-.06.13-.02.15-.14.12-.32,0-.06.03-.13.06-.19.04-.07.03-.13.01-.24-.06-.11-.08-.23-.09-.29-.03-.18.08-.5.18-.63,0,0,.05-.07,0-.06,0,0,.04-.13.14-.26.1-.18.15-.25.04-.24-.06-.06-.06-.06-.07-.12.04-.24.15-.37.27-.37,0,0,.12-.07.12-.13.11-.13.3-.8.3-.86h.07s0-.06,0-.12c0-.06,0-.18.07-.24q0-.06-.07-.06c-.07,0-.14-.05-.21-.05-.07-.06-.22-.11-.36-.16-.14,0-.15-.05-.15-.11.07-.06.07-.12-.25-.29-.16-.16-1.25-.12-2.38.36-.36.13-.84.35-1.11.49-.21.1-.52.31-.65.38-.14.06-.23.2-.3.24-.06.04-.1.13-.22.21-.1.13-.42.3-1.1.76-.85.71-1.53,1.32-2.38,2.7-.82,1.57-.85,1.95-1.02,2.35-.67,1.83-.65,3.06-.69,3.76.01.71,0,.96.02.99-.02.08.02.46.09.9.08.44.24.92.34,1.19.16.26.23.47.2.56,0,0,.09.28.27.53.21.31.4.7.51.89.11.19.29.59.4.78.12.18.25.45.29.61.04.15.19.52,1.1,1.41.64.64,1.6,1.23,2.06,1.48.44.29,1.48.7,2.26.96.86.23,1.48.33,1.9.35.41.05.62.01.66-.04.08-.06.37-.04.44.02.07.16,1.39-.03,1.37-.15.07-.06.28-.09.29-.03,0,.05.51,0,1.08-.12.23-.05.57-.13.92-.21.3-.09.56-.17.7-.22,1.25-.4,2.88-1.39,3.93-2.56,1.08-1.15,1.64-2.33,1.64-2.53.03-.07.13-.26.25-.52.16-.17.3-.74.43-1.08.07-.36.1-.8.12-.87.04-.14.06-.5.1-.78,0-.36.07-.49.08-.56.08-.06.14-.27.15-.49.02-.29.08-.5.09-.57.01-.07-.01-.44-.09-.86-.04-.39-.11-.58-.14-.85-.04-.27-.07-.61-.23-1.28-.18-.85-.42-1.39-.67-1.75-.39-.69-.51-.79-.56-1.01-.1-.19-.48-.66-.86-1.1-.41-.41-.83-.8-.99-.89-.63-.36-1.78-1.18-3.39-1.77-.39-.14-.79-.23-.86-.25-.15.02-.21,0-.4-.1-.13-.03-.33-.08-.46-.12-.14.02-.48-.02-.75-.06-.39-.13-.47-.06-.61.05-.07.06-.21.17-.28.17-.2-.01-.4.22-.4.52,0,.12-.06.3-.06.42-.06.12,0,.18.06.24.11.07.11.13.11.19,0,.06.05.12.11.13.05.06.05.12.05.18v.06c.05.06.1.07.1.13,0,.12.33.48.51.59.19.09.41.24.34.35-.01.06.04.06.17.09q.14.04.09.02l-.15.02.11.15c.03.07.1.15.15.16.04.01.13.03.11.09,0,.04.43.39.71.49.15.08.21.17.26.26.02.14.07.23.11.25.08.03.21.13.29.24.11.13.28.24.5.34.14.08.71.5,1.12,1.01.64.86.61.96.84,1.13.19.1.24.22.38.62.14.44.24.75.14,1.59.03.51-.26,2.14-.68,2.87-.38.87-.74,1.32-.97,1.6-.23.29-.35.4-.44.52-.15.2-.63.57-1.17.88-.55.3-1.18.46-1.53.51-.44.08-.68.13-1.01.13-.2.09-.54.13-.79.11-.22.06-.42,0-.43.07-.04,0-.13-.02-.21-.03-.16-.12-1.36-.45-1.78-.66-.15-.03-.39-.18-.65-.33-.23-.19-.49-.37-.6-.53-.06-.05-.52-.44-.89-.96-.18-.26-.31-.55-.43-.77-.09-.23-.16-.41-.16-.48-.07-.11-.07-.37-.08-.54-.05-.11-.1-.52-.17-.87-.05-.32-.03-.6-.02-.64,0,0,0-.2-.08-.44.02-.2.01-.61.08-.88.03-.28.08-.47.1-.51-.12-.02-.05-.56.03-.54.06.02.16-.25.11-.31l.04-.12c.07-.01.24-.21.39-.4.09-.18.25-.31.25-.31.03-.03.07-.14.19-.3Z"></path><path class="cls-4" d="m62.76,48.76c.21.06.21.12,0,.18-.21.06-.36-.06-.36-.18.07-.12.14-.12.36,0Zm-3.99-.36q.14,0,.07,0h-.21.14Zm2.28-.12h.07-.14c-.07,0,0,0,.07,0Zm-2.92-.18q.14.12,0,.18c-.14.06-.36-.06-.36-.18-.07-.12.21-.12.36,0Zm3.71-.18c.07,0,.07.06.07.06q0,.06-.07.06s-.07,0-.07-.06l.07-.06Zm.14-.18c.07.12,0,.18-.14.12-.14,0-.14-.06-.14-.12.07-.12.21-.12.28,0Zm0-.66c0,.12-.07.18-.36.12-.14-.06-.21-.06-.07-.12.21-.06.43-.06.43,0Zm1.4-7.78c0,.29.06.93.06,1.35,0,.57,0,.78.12.93.06.14.06.21.06.21-.06.07-.12.71-.12,1.85-.06,2.21-.06,2.78.06,3.14,0,0,.01.06.03.12v.06s.02.03.02.03c0,0,0,.02,0,.02h0s0,0,0,0h0s0,0,0,0h.94s0,0,0,0c.01,0,.02,0,.02,0,.04,0,.02,0,.02,0h0s0,0,0,0h0s-.02-.02.1.07c.1.06.21.12.26.15.16.08.36.34.37.5,0,0,0,.08.04.04,0,0,.05.12.03.29,0,.22-.04.31.09.23.09,0,.09,0,.13.05.09.24-.01.45-.19.53,0,0-.16.13-.14.18-.12.18-.4.88-.41.94h-.14s0,.07,0,.13c0,.06.01.18-.14.25,0,.06,0,.06.16.05.16,0,.32.03.48,0,.17.03.51,0,.85-.08.31-.14.33-.1.36-.05-.13.12-.1.23.62-.05.19-.04.91-.47,1.41-1.51.12-.26.22-.55.29-.87.03-.16.06-.33.07-.49.01-.15.02-.41.01-.42,0-.26-.03-.53-.06-.82,0-.36-.06-.86-.06-1.14,0-.21-.06-.57-.06-.71s-.06-.29-.06-.36-.06-.14-.06-.29c-.06-.14-.06-.5,0-1.28,0-1.07,0-1.92-.06-3.49-.12-1.71-.12-2.07-.12-2.49.04-2.08.07-3.42.08-4.26,0-.65-.1-1.03-.17-1.27-.07-.24-.12-.35-.13-.38-.02-.12-.28-.74-.82-1.26-.53-.54-1.33-.87-1.81-.94-.5-.06-.89-.06-1.01-.12,0,0-.54,0-1.07.06-.41.06-.8.06-1.02.06-.21,0-.64-.06-.86-.06s-.5-.06-.64-.12c-.14-.06-.5-.12-1.71-.12-.86,0-1.92.06-2.42.06-.46.01-1.63.04-2.35.06-.85.03-1.39.05-1.86.07-.21.01-.4.03-.64.04-.19.02-.29.04-.32.07-.12.05-.63.07-.77.02-.08-.05-.68.01-1.17.25-.5.24-.89.63-.84.68-.06.11-.31.36-.35.32-.03-.05-.67.57-.9,1.49-.14.44-.18,1.05-.18,1.6-.01.44-.03.83-.03.99-.12,2.57-.12,7.2.06,7.56v.57c-.06.21,0,.78,0,1.14.06.36.12.78.12.86,0,.14.06.5.06.78.06.36,0,.5,0,.57-.06.07-.12.29-.12.5,0,.07,0,.14,0,.2,0,.08-.01.18-.02.27-.02.18-.03.31-.03.37.01.12-.05.8.18,1.46.19.6.37.88.61,1.24.26.33.6.85,1.62,1.3.63.27,1.27.3,1.81.29.23,0,.45,0,.72-.01.13,0,.24-.02.35-.03.78-.06.93-.06,1.14,0,.43,0,2.35-.12,2.71-.18.71-.18,2.14-.3,3.92-.36.43,0,.86-.06.93-.06.14-.06.21-.06.43,0h.5c.14-.06.5-.06.78-.06.43.06.5,0,.64-.12.07-.06.21-.18.28-.18.21,0,.43-.24.43-.54,0-.12.07-.3.07-.42.07-.12,0-.18-.07-.24-.14-.06-.14-.12-.14-.18s-.07-.12-.14-.12c-.07-.06-.07-.12-.07-.18v-.06c-.07-.06-.14-.06-.14-.12,0-.12-.5-.48-.78-.54-.29-.06-.64-.18-.57-.3,0-.06-.07-.06-.29-.06s-.21,0-.14,0l.21-.06-.21-.12c-.07-.06-.21-.12-.29-.12s-.21,0-.21-.06-.86-.24-1.35-.24c-.29,0-.43-.06-.57-.12-.14-.12-.29-.18-.36-.18-.14,0-.43,0-.64-.06-.29-.06-.64-.06-1.07,0-.28,0-1.5.06-2.64.06-1.85,0-2,0-2.42.12-.07.03-.14.05-.21.07-.04,0-.07.02-.1.02h-.02s-.07.03-.14.03c-.11.03-.31-.07-.14-.35.01-.03.03-.07.05-.11.01.07.02-.22.03-.45,0-.24.02-.49.03-.73.04-1.01.07-2.09.07-2.84-.06-3.35-.06-3.99-.12-4.49-.03-.43-.04-1.46-.04-2.54,0-.52,0-1.05.01-1.54,0-.05.02-.09.03-.11,0-.07.04-.1.09-.12-.01-.07.04-.13.1-.13,0-.02.02-.03.03-.04,0,0,.02-.02.11-.02.13-.02.22-.03.22-.06h.36c.29.12,2.42.12,3.21.06.5-.06,1.92-.06,2.57,0h2.21c1.07.06,2.14.06,2.35.12.1,0,.09.06.1.12.02,0,.03.06.04.08.02.02-.04.07-.04.07,0,0,0,0,.06,0v2.09c.12,0,.18.93.12.93s-.06.5,0,.57v.21c-.06.07-.12.5-.18.93,0,.36-.06.71-.06.71v.64Z"></path></g></svg> 