<?xml version="1.0" encoding="UTF-8"?> <svg xmlns="http://www.w3.org/2000/svg" id="Layer_2" viewBox="0 0 749.99 144.46"><defs><style>.cls-1{fill:none;}.cls-1,.cls-2,.cls-3{stroke-width:0px;}.cls-3{fill:#020202;}</style></defs><g id="Layer_1-2"><path class="cls-2" d="m197.89,114.44l-1.85-59.47,20.99-.65c17.08-.53,29.35,11.16,29.88,28.5.55,17.76-10.96,30.45-28.04,30.98l-20.99.65Zm6.93-6.76l14.27-.44c12.32-.38,20.68-10.34,20.25-24.19-.4-12.83-9.38-22.58-21.7-22.2l-14.27.44,1.44,46.39Z"></path><path class="cls-2" d="m255.06,99.9c-.2-10.37,9.79-12.52,18.78-13.63,6.87-.81,12.82-.85,12.83-4.5-.2-5.69-4.95-9.59-11.75-9.46-6.54.13-11.57,3.88-12.23,9.25l-6.97.14c.68-8.85,8.54-15.21,19.25-15.42,11.13-.22,18.4,6.27,18.59,15.79l.43,21.92c.03,1.44.81,2.19,2.34,2.16l2.55-.05.11,5.78-3.99.08c-4.84.09-7.44-2.06-7.52-6.23l-.03-1.36c-2.53,5.24-7.57,8.56-15.39,8.72-10.2.2-16.84-4.94-17-13.18Zm31.85-5.98l-.11-5.86c-1.9,2.67-6.91,3.28-12.42,3.98-6.19.8-12.38,1.77-12.26,7.55.09,4.67,4.4,7.56,10.86,7.44,8.41-.17,14.09-5.63,13.94-13.11Z"></path><path class="cls-2" d="m323.67,111.61c-8.75.1-13.48-4.35-13.58-12.68l-.3-26.26-8.33.1-.07-5.95,8.33-.1-.18-15.38,7.05-.08.18,15.38,12.15-.14.07,5.95-12.15.14.3,26.26c.05,4.5,2.29,6.86,6.45,6.81l5.01-.06.07,5.95-5.01.06Z"></path><path class="cls-2" d="m335.02,98.63c-.04-10.37,9.99-12.36,19-13.33,6.88-.7,12.83-.64,12.91-4.29-.1-5.7-4.79-9.67-11.59-9.65-6.54.02-11.63,3.7-12.38,9.05l-6.97.02c.82-8.84,8.79-15.08,19.5-15.11,11.14-.04,18.3,6.57,18.33,16.09l.07,21.93c0,1.45.77,2.21,2.3,2.2h2.55s.02,5.77.02,5.77h-4c-4.85.03-7.4-2.17-7.42-6.34v-1.36c-2.62,5.2-7.71,8.44-15.53,8.47-10.2.04-16.76-5.21-16.79-13.46Zm31.94-5.46l-.02-5.87c-1.95,2.64-6.96,3.17-12.48,3.78-6.2.7-12.41,1.57-12.39,7.35.02,4.67,4.28,7.64,10.74,7.61,8.42-.03,14.18-5.4,14.15-12.88Z"></path><path class="cls-2" d="m403.51,94.74c.11-9.6,7.22-14.28,14.48-17.86-3.94-4.55-6.28-8.23-6.23-12.91.08-7.39,6.35-12.85,14.59-12.75,8.24.09,14.39,5.6,14.3,13-.08,7.14-5.82,10.81-12.23,13.97l15.2,15.98c1.83-4.23,2.83-9.4,2.89-15.44l7.22.08c-.09,8.24-1.87,15.19-4.99,20.68l8.32,8.76-5.41,4.61-7.22-7.73c-4.81,4.88-11.3,7.52-19.04,7.44-13-.15-22.02-7.47-21.9-17.84Zm36.32,5.51l-17.81-18.99c-5.99,3.08-11.12,6.59-11.2,13.13-.08,6.8,5.39,11.54,14.66,11.64,6.03.07,10.82-2,14.35-5.79Zm-6.48-35.94c.04-3.91-2.98-6.83-6.98-6.88-4.08-.05-7.26,2.89-7.3,6.89-.04,3.23,2.05,6.23,5.25,9.67,5.04-2.49,8.99-5.25,9.04-9.67Z"></path><path class="cls-2" d="m479.84,112.44l26.1-58.8,7.22.2,22.92,60.15-7.39-.2-6.5-17.18-27.53-.76-7.43,16.8-7.39-.2Zm17.72-22.98l22.09.61-10.3-27.24-11.79,26.63Z"></path><path class="cls-2" d="m545.16,114.38l2.16-59.46,7.14.26-2.16,59.46-7.13-.26Z"></path><path class="cls-3" d="m224.35,40.69c.09-.01,1.04-.32,1.2-.45.09-.01.16-.13.16-.13-.02-.1.14-.24.49-.35q.09-.01.19.02c.02.11.1.04.35-.11.16-.13.33-.22.33-.22,0,.05.09-.01.09-.01.16-.14.57-.37.84-.42.09-.01.27-.04.45-.02.18-.03.27-.04.35-.11s.16-.14.25-.16c.27-.05.43-.13.4-.3-.01-.06-.02-.11.08-.07.2.08.28,0,.41-.24-.02-.11.04-.3.04-.3.1-.27.09-.64-.22-1.82.18-.03.19-.09.2-.27.01-.13.14-.32.15-.41.02-.11.03-.18.03-.2,0,0-.07-.12-.05-.24-.07-.15-.14-.3-.22-.34v-.07c.1,0,.13-.16.04-.18-.09-.02.06-.29.24-.26,0-.02.03-.13.07-.29.04-.16.08-.38.11-.49.12-.11.14-.22.14-.22,0-.02-.05-.2,0-.37.06-.2.04-.44.06-.51-.06-.11-.11-.27-.09-.34-.07-.09.02-.43.07-.78.12-.33.23-.63.25-.68-.02-.23.17-.66.32-.77.19-.2.45-.84.35-.99.02-.04.04-.08.05-.1.08.04.13-.06.27-.12.06-.12.23-.25.36-.3.09-.16.14-.29.27-.5.12-.37.66-1.28.9-1.44.18-.06.25-.28.98-1.03.27-.38.74-1.14.85-1.4.1-.52.24-.61.41-.78.16-.15.21-.2.39-.13.22.04.24,0,.67-.34.27-.21.59-.38.67-.41.16,0,.24-.05.26-.17,0-.11.07-.16.1-.18.02-.01,0-.11-.06-.28-.01-.1-.03-.2.04-.25.12-.09.2-.44.16-.52-.05-.08,0-.1.01-.11s.01-.11-.01-.2l-.03-.19-.1-.05s.02,0,.04-.02c.06-.03.08-.04.03-.12-.11-.15-.09-.36-.05-.48.04-.12-.07-.69-.15-.85-.04-.08-.02-.09-.04-.18l-.04-.08c-.04-.08-.08-.16-.1-.25.02-.01,0-.11-.04-.19-.04-.08-.08-.16-.07-.27-.02-.09-.03-.19-.14-.34-.09-.16-.22-.39-.31-.55-.2-.4-.44-.68-.52-.64-.03.01-.16-.12-.23-.18-.14-.13-.21-.19-.33-.03-.11.06-.24.13-.34.09-.05.03-.14.08-.19.11-.04.12-.06.14-.16.09-.03.02-.24.03-.39.13-.68.36-1.32.54-1.71.54-.17.02-.95.42-1.1.54-.02.13-.07.16-.37.33-.2.06-.38.23-.59.56-.37.47-.37.47-.66.66-.19.07-.3.19-.32.21-.02.02-.02.15-.1.24-.06.07-.06.2-.01.28-.02.02,0,.13-.17.18-.08.09-.26.14-.29.19-.02.02-.2.11-.37.17-.1.12-.32.26-.31.38-.08.1-.13.17-.15.19-.32-.06-1.53,1.57-1.9,2.63-.06.11-.16.44-.28.65-.13.21-.22.4-.14.44.07.04.04.1-.04.1-.08-.13-.15-.25-.18-.31-.18-.18-.41-.45-.49-.61-.17-.11-.5-.92-1.01-1.64-.43-.76-.84-1.48-.89-1.58-.17-.21-.39-.56-.6-.92-.23-.34-.43-.68-.51-.88-.3-.58-1.26-2.07-1.59-2.12-.07-.09-.15-.18-.19-.23.07-.06-.11-.28-.23-.57-.22-.28-.45-.7-.57-.99-.3-.37-.52-.65-.98-1.12-.38-.34-1.05-1-1.68-1.64-.66-.62-1.31-1.19-1.55-1.46-.26-.34-.62-.75-2.88-2.45-.5-.39-1.31-.81-2.06-1.2-.76-.38-1.44-.74-1.79-.84-1.18-.29-1.55-.46-2.13-.75-.53-.27-.69-.33-.84-.58-.26-.3-.37-.34-1.79-.9-.87-.37-1.8-.72-2.02-.8-.31-.19-.59-.28-.84-.26-.19.03-.42-.03-.53-.07-.06-.02-.19.03-.35.17-.14.05-.27.1-.49.04-.39-.09-1.13.01-1.15.1-.02.09-.13.06-.19.05-.06-.01-.19.05-.26.12l-.21.14.14.13s-.04-.01-.11-.03c-.17-.04-.22-.05-.24.04.01.19-.3.3-.54.34-.24.04-.73.48-.76.65-.02.09-.07.08-.14.15l-.02.09c-.02.09-.04.18-.11.25-.05-.01-.12.06-.14.15-.02.09-.04.18-.16.24-.07.08-.14.15-.12.34-.03.18-.04.45-.07.63-.09.44,0,.83.14.87.05.01.11.21.15.31.06.2.09.3.41.28.2.05.45.1.53.22.1.02.25.06.35.08.17-.05.22-.04.3.07.05.01.33.17.62.24,1.19.45,2.1.93,2.49,1.33.22.14,1.38.83,1.66.93.17-.03.26,0,.73.29.25.18.59.36,1.16.54.87.33.88.33,1.32.65.23.2.43.33.47.36.04.03.21.02.38.12.12.08.3.07.38.02.04.03.17,0,.34.2.17.1.33.3.41.35.04.03.25.25.4.45.21.12.46.44.63.45.16.11.27.2.31.23,0,.2.69.7,1.46,1.37.76.69,1.74,1.41,2.37,2.01.13.14.57.46.84.74.28.27.5.53.56.47.07-.06.16.06.12.15-.13.12.27.91.44.83.1-.02.22.13.18.23-.13.17.24.49.81,1.51.3.44.63,1.09.82,1.37.21.27.48.95.77,1.46.41.72.61.88.73.93.13.04.3.17.38.3.06.13.27.36.33.5.06.13.19.4.21.67,0,.22.09.4.09.4.1,0,.17.14.17.36.04.2.16.51.29.77.11.28.22.51.28.54,0,.01.06.13.17.36-.1-.03-.21-.05-.32-.07-.39-.16-.76-.31-.81-.33-.26-.02-.8-.2-.96-.35-.27-.18-1.08-.47-1.24-.31-.06-.01-.11-.03-.14-.04.03-.09-.11-.12-.23-.25-.17-.05-.36-.19-.48-.32-.22-.06-.39-.11-.7-.17-.5-.02-1.81-.28-2.15-.39-.2-.1-.44-.2-1.84-.37-.62-.07-1.84.14-2.2.24-.59.28-.8.33-1.13.35-.3.03-.39.04-.53-.13-.2-.16-.27-.16-1.06-.02-.49.09-1.03.1-1.15.14-.21-.04-.36,0-.46.13-.07.11-.19.15-.25.16-.03,0-.07.11-.08.3-.03.1-.07.21-.19.24-.21.05-.47.45-.44.53.03.08-.03.11-.06.12-.03.01-.05.12-.05.21l-.02.2.11.05s.03-.01-.06.02-.11.04-.08.13c.09.16.02.38-.05.5-.08.13-.05.69.03.86.04.08.01.09.02.18l.04.08c.04.08.07.17.08.26-.02,0-.01.1.02.18.04.08.07.16.06.27.01.09.03.18.12.34.08.16.2.4.28.57.18.41.39.72.45.69.02,0,.13.14.18.22.11.15.16.23.24.1.08-.03.17-.07.24,0,.04-.01.1-.04.13-.05.03-.11.05-.11.11-.04.02,0,.16.03.28,0,.53-.04.95,0,1.21.24.12.07.68.15.79.13.05-.1.08-.12.31-.04.13.08.29.07.52-.05.37-.13.37-.13.6-.04.13.09.23.09.25.09.02,0,.08-.09.16-.09.06,0,.12-.09.14-.18.02,0,.06-.09.17,0,.08,0,.18.09.23.09.02,0,.14.1.24.2.1,0,.26.11.33.02.08,0,.14,0,.17.01.09.26,1.41.39,2.19.39.08.02.33-.02.5,0,.17.03.31.07.33-.01.02-.09.08-.07.08.02-.04.18.28.45.35.28.04-.08.13-.06.12.03-.03.19.18.22.64.47.22.08.49.26.63.31.14.04.41.23.64.34.33.14.47.09.54.03.07-.07.19-.12.25-.09.06.03.22-.01.28.02.06.03.18.09.24.21.04.12.12.16.12.16.06-.07.12-.04.15.07.12.16.48.33.56.27.01,0,.08.02.28.09.2.07.53.2,1.05.45.11.07.2.13.54.56.35.32.56.48.82.67.24.07.33.13.31.23.03.03,0,.11.02.12.02.01,0,.11.03.13.03.02.07.16.12.2.06.05.12.22.2.29.09.22.23.33.38.36.07.48.23.83.42.87.3.16.39.14.47.08.09-.01.18-.03.2.07.11.09.21.17.31.21,0,.05.11.09.12.14q0,.05.1.04c.08-.06.26-.09.35-.1l.18-.03v-.05Zm-20.6-11.35c-.03-.08.05-.12.16-.06.08.06.06.07.03.18-.08.13-.13.05-.2-.12Zm.34.93c-.04-.18.02-.2.1-.04.03.08.06.17,0,.19-.02.1-.08.03-.11-.15Zm.2.4s-.02,0-.06-.08c0,0-.03-.08,0-.09l.06.08c.03.08,0,.09,0,.09Zm.41.23s-.02,0-.05.02h.02s.05-.03.02-.02Zm.99-.28c-.07-.07-.07-.07-.07-.26,0-.19.11-.22.13-.03.04.18.01.37-.06.3Zm-.13.22l-.07.02s-.02,0,.02,0h.05Zm-1.1,1.21c-.1-.06-.13-.14-.1-.25,0-.19.03-.2.11-.04.06.17.08.35-.02.3Zm-5.91-28.12c-.24.04-.27-.06-.23-.24.02-.09.19-.05.33.08.09.11.03.1-.1.16Zm-.4.92c-.13.06-.16-.04-.06-.2.1-.16.2-.14.21.05-.02.09-.04.17-.15.15Zm-.06.26q-.05-.01-.03-.1s.02-.09.07-.07l.03.1c-.02.09-.07.08-.07.08Zm-.99,1.16c-.13-.12-.12-.21.06-.26.2-.14.25-.13.26.06-.04.18-.19.33-.32.2Zm3.1-.02s.04.01.06.02l-.11-.03q-.05-.02.05.02Zm.52-.03q-.08-.12.08-.26c.16-.14.37-.07.26.08-.06.17-.27.29-.34.18Zm35.6,11.51c-.09-.16-.13-.34-.01-.3.12.04.16.12.13.24.02.2,0,.21-.12.07Zm-.1.88s.01,0,.02-.01c-.02.01-.05.03-.02.01Zm-.76.3h.01s.01-.02-.01,0Zm1.31.01l-.07-.07c-.05-.08-.02-.09-.02-.09t.07.07s.05.08.02.09Zm-1.26.49c.06.18-.02.23-.11.07-.11-.15-.15-.34-.05-.29.1.04.1.04.16.22Zm1.35-.24c-.05-.08-.09-.16-.05-.18,0-.1.07-.04.13.13.07.17.03.19-.09.05Zm.46.87c-.09-.06-.07-.07-.07-.17.04-.12.1-.06.19.1.05.08-.01.11-.12.07Z"></path><path class="cls-3" d="m552.18,130.99c.25.07.24.14,0,.19-.25.05-.41-.08-.41-.21.09-.12.17-.12.42.01Zm-4.65-.56q.17,0,.08,0h-.25s0-.01.17,0Zm2.68-.02h.08c-.08,0-.17,0-.17,0-.08,0,0,0,.08,0Zm-3.41-.33q.16.13-.01.19c-.17.06-.41-.08-.41-.21-.08-.13.26-.12.42.02Zm4.35-.03c.08,0,.08.07.08.07q0,.06-.09.06s-.08,0-.08-.07l.09-.06Zm.18-.19c.08.13,0,.19-.17.12-.17,0-.16-.07-.16-.13.09-.12.26-.12.33.01Zm.03-.7c0,.13-.09.19-.42.11-.16-.07-.25-.07-.08-.13.25-.06.5-.05.5.02Zm-62.82-4.36c-.34-.01-1.09.03-1.6,0-.67-.02-.92-.03-1.1.09-.17.06-.25.06-.25.06-.08-.07-.83-.15-2.18-.19-2.6-.14-3.27-.14-3.69-.03,0,0-.25.06-.42.05-.34.12-.42.18-.26.31.08.07,0,.06-.09.06-.25,0-.34.12-.34.31,0,.06-.09.13-.17.19s-.09.13-.09.25c.08.13.08.26.07.32,0,.19-.26.5-.43.63,0,0-.09.06,0,.06,0,0-.09.13-.26.25-.17.19-.26.25-.09.25q.08.07.08.13c-.09.25-.26.38-.43.37,0,0-.17.06-.17.12-.17.12-.44.82-.44.88h-.08s0,.06,0,.13,0,.19-.09.25q0,.06.08.07c.08,0,.16.07.25.07.08.07.25.13.41.2.17,0,.16.07.16.13-.08.06-.09.13.24.32.16.2,1.32.28,2.65.19.42,0,1-.04,1.33-.03.25,0,.67-.04.83-.04.17,0,.33-.05.42-.05.08,0,.17-.06.33-.05.17-.06.58-.05,1.5.04,1.25.03,2.24.06,4.08.07,2-.06,2.42-.04,2.92-.02,2.15.13,3.51.21,4.36.26.78.06,1.08.09,1.12.09.16.07,1.74.14,2.41.11.34-.05.59-.04.67.03,0,0,.33.02.67-.03.42-.04.92-.02,1.17,0,.25.01.74.1.99.11s.58.09.74.16c.16.07.57.16,1.99.23,1,.05,2.25.05,2.83.08.58.03,1.84.03,2.75.08,2,.04,2.84.09,2.93-.03.09-.06.42-.04.5.03.07.13,1.58.09,1.59-.04.09-.06.34-.05.33.02s.58.1,1.25.13c.67.04,1.58.15,1.91.17,2.99.29,8.41.59,8.85.42.08,0,.33.02.67.04.25.08.92.05,1.34.07.42-.04.93-.08,1.01-.08.17,0,.59-.03.92-.02.42-.04.58.03.67.03.08.07.33.14.58.16.33.02.58.09.66.1.08,0,.5.02,1.01-.01q.92-.02,2.51.12c1,.11,1.67.15,2.17.1.92-.02,1.09-.01,1.34.06.5.02,2.77,0,3.19-.05.85-.16,2.53-.22,4.62-.2.5.02,1.01-.03,1.09-.03.17-.06.25-.05.5.02.17,0,.42.01.59.02.17-.06.59-.04.92-.03.5.08.59.02.76-.1.09-.06.26-.18.34-.18.25,0,.51-.24.53-.56,0-.13.1-.32.1-.44.09-.12,0-.19-.07-.26-.16-.07-.16-.13-.16-.2,0-.06-.08-.13-.16-.13-.08-.07-.08-.13-.07-.19v-.06c-.08-.07-.16-.07-.16-.13,0-.13-.56-.53-.89-.61s-.74-.22-.65-.34c0-.06-.08-.07-.33-.08s-.25,0-.17,0l.25-.06-.24-.14c-.08-.07-.24-.14-.33-.14-.08,0-.25,0-.25-.07,0-.06-.99-.29-1.57-.31-.33-.01-.5-.08-.66-.15-.16-.13-.32-.2-.41-.21-.17,0-.5-.02-.74-.09-.33-.08-.74-.09-1.25-.05-.33-.01-1.75,0-3.08-.07-2.16-.1-2.33-.11-2.83,0-.34.11-.59.1-1.42.06-.92-.04-1.5-.07-3.15-.35-.99-.11-4.31-.41-6.06-.5-3.92-.15-4.67-.19-5.26-.16-1,0-4.84-.2-6.25-.34-.92-.05-1.42-.08-2.08-.11-.42.04-1.09.07-1.59.04-.42.04-.84.02-.84.08-.08,0-.25-.01-.42-.02-.32-.15-2.83-.28-3.75-.26-.59.03-2.26-.05-3.01-.16-.17,0-1.34-.07-2.59-.13-1.25-.12-2.5-.19-2.75-.26-.25-.01-.75-.1-1.08-.18-.25-.01-1.08-.11-1.84-.15-.67-.03-1.25-.12-1.34-.12,0,0-.42-.02-.92.02-.42-.02-1.26-.05-1.84-.07-.59-.02-1.01-.04-1.09-.04,0,.13-1.1.15-1.09.08,0-.06-.58-.09-.67-.03h-.25c-.08-.08-.58-.16-1.08-.24-.42-.01-.84-.09-.84-.09-.08,0-.34-.01-.75-.03Z"></path><rect class="cls-1" y="0" width="749.99" height="144.46"></rect></g></svg> 