<?xml version="1.0" encoding="UTF-8"?> <svg xmlns="http://www.w3.org/2000/svg" id="Layer_2" viewBox="0 0 163.23 39.98"><defs><style>.cls-1{fill:none;}.cls-1,.cls-2{stroke-width:0px;}.cls-2{fill:#fff;}</style></defs><g id="Layer_1-2"><rect class="cls-1" width="163.23" height="39.98"></rect><path class="cls-2" d="m21.76,18.77c0-2.77-.54-4.83-1.61-6.18-1.07-1.34-2.7-2.01-4.89-2.01h-2.33v16.97h1.78c2.43,0,4.21-.72,5.34-2.17,1.13-1.44,1.7-3.65,1.7-6.62m8.3-.29c0,5.06-1.36,8.95-4.08,11.69-2.72,2.74-6.54,4.1-11.46,4.1H4.95V3.98h10.24c4.75,0,8.41,1.24,11,3.73,2.58,2.49,3.87,6.08,3.87,10.78m26.51,15.79h7.61V3.85h-7.61v30.42Zm18.31-11.35c0,1.94.25,3.42.76,4.44.51,1.02,1.36,1.53,2.55,1.53s2.02-.51,2.5-1.53c.49-1.02.73-2.5.73-4.44s-.25-3.38-.74-4.37c-.49-.99-1.34-1.48-2.53-1.48s-2,.49-2.51,1.47c-.51.98-.76,2.44-.76,4.38m14.29,0c0,3.7-.97,6.58-2.91,8.64-1.94,2.07-4.66,3.1-8.15,3.1s-6.02-1.06-7.99-3.17c-1.98-2.11-2.97-4.97-2.97-8.57s.97-6.55,2.91-8.59c1.94-2.04,4.67-3.06,8.17-3.06,2.17,0,4.08.47,5.74,1.42,1.66.94,2.94,2.3,3.85,4.06.9,1.76,1.35,3.82,1.35,6.17m3.02,11.35h7.62V11.67h-7.62v22.6Zm0-25.33h7.62V3.85h-7.62v5.09Zm23.05,19.57c1.03,0,2.25-.26,3.68-.78v5.69c-1.03.45-2,.77-2.93.97-.93.19-2.02.29-3.26.29-2.56,0-4.4-.64-5.53-1.93-1.13-1.28-1.69-3.25-1.69-5.91v-9.32h-2.67v-5.84h2.67v-5.77l7.67-1.33v7.11h4.86v5.84h-4.86v8.8c0,1.46.69,2.19,2.06,2.19m17.63,0c1.03,0,2.25-.26,3.68-.78v5.69c-1.03.45-2,.77-2.93.97-.93.19-2.01.29-3.26.29-2.56,0-4.4-.64-5.53-1.93-1.13-1.28-1.69-3.25-1.69-5.91v-9.32h-2.67v-5.84h2.67v-5.86l7.67-1.25v7.11h4.86v5.84h-4.86v8.8c0,1.46.69,2.19,2.06,2.19m13.29-8.34c.1-1.24.46-2.14,1.06-2.72.61-.58,1.35-.87,2.25-.87.98,0,1.75.32,2.33.98.58.65.88,1.52.91,2.61h-6.54Zm10.74-6.23c-1.81-1.77-4.38-2.66-7.7-2.66-3.49,0-6.18,1.02-8.06,3.06-1.88,2.04-2.82,4.97-2.82,8.79s1.02,6.54,3.05,8.55c2.03,2,4.89,3,8.56,3,1.76,0,3.28-.12,4.56-.36,1.27-.24,2.49-.67,3.68-1.28l-1.17-5.09c-.86.35-1.68.62-2.46.8-1.12.26-2.35.39-3.69.39-1.47,0-2.63-.36-3.48-1.08-.85-.72-1.3-1.71-1.35-2.97h13.61v-3.47c0-3.34-.91-5.89-2.72-7.67m-116.74,6.23c.1-1.24.46-2.14,1.06-2.72.6-.58,1.35-.87,2.25-.87.97,0,1.75.32,2.33.98.58.65.88,1.52.91,2.61h-6.54Zm10.74-6.23c-1.81-1.77-4.38-2.66-7.7-2.66-3.49,0-6.18,1.02-8.06,3.06-1.88,2.04-2.83,4.97-2.83,8.79s1.02,6.54,3.05,8.55c2.03,2,4.88,3,8.56,3,1.76,0,3.28-.12,4.56-.36,1.27-.24,2.49-.67,3.68-1.28l-1.17-5.09c-.86.35-1.68.62-2.46.8-1.12.26-2.35.39-3.69.39-1.47,0-2.63-.36-3.48-1.08-.85-.72-1.3-1.71-1.35-2.97h13.61v-3.47c0-3.34-.91-5.89-2.72-7.67"></path></g></svg> 