<?xml version="1.0" encoding="UTF-8"?> <svg xmlns="http://www.w3.org/2000/svg" id="Layer_2" viewBox="0 0 749.99 144.46"><defs><style>.cls-1{fill:none;}.cls-1,.cls-2,.cls-3{stroke-width:0px;}.cls-3{fill:#020202;}</style></defs><g id="Layer_1-2"><path class="cls-2" d="m30.19,122.68l-4.06-59.37,20.95-1.43c17.05-1.17,29.74,10.07,30.93,27.37,1.21,17.73-9.82,30.83-26.87,32l-20.95,1.43Zm6.68-7.02l14.25-.97c12.3-.84,20.29-11.1,19.34-24.92-.88-12.81-10.21-22.22-22.51-21.38l-14.25.97,3.17,46.31Z"></path><path class="cls-2" d="m84.66,61.07c-.18-2.97,1.98-5.31,4.96-5.49,2.97-.18,5.31,1.9,5.48,4.87.17,2.97-1.9,5.39-4.87,5.57s-5.4-1.98-5.57-4.95Zm5.12,57.68l-2.66-44.97,7.04-.42,2.66,44.97-7.04.42Z"></path><path class="cls-2" d="m107.24,120.34l7.04-.36c.27,5.35,5.91,9.15,13.81,8.74,9.25-.47,13.81-6.24,13.42-13.96l-.37-7.3c-2.9,4.83-8.18,8.16-15.05,8.51-11.97.61-21.01-8.12-21.69-21.36-.69-13.5,7.49-23.28,19.38-23.88,7.21-.37,13.25,2.73,16.58,8l.37-7.85,5.52-.28,2.24,43.8c.58,11.37-6.66,19.57-20.07,20.26-12.14.62-20.67-4.82-21.16-14.32Zm33.13-27.82c-.49-9.68-6.78-16.16-15.27-15.73-8.4.43-13.91,7.52-13.41,17.37.49,9.68,6.69,16.08,15.1,15.65,8.49-.43,14.08-7.53,13.58-17.29Z"></path><path class="cls-2" d="m155.38,57.38c-.13-2.97,2.07-5.28,5.04-5.41,2.97-.13,5.28,1.98,5.4,4.96.13,2.97-1.98,5.36-4.95,5.49s-5.36-2.06-5.49-5.04Zm4.2,57.75l-1.95-45,7.05-.31,1.95,45-7.05.31Z"></path><path class="cls-2" d="m196.23,113.65c-8.75.33-13.59-3.99-13.91-12.32l-1-26.25-8.32.32-.23-5.95,8.33-.32-.58-15.38,7.05-.27.58,15.38,12.15-.46.23,5.95-12.15.46,1,26.25c.17,4.5,2.47,6.8,6.63,6.64l5.01-.19.23,5.95-5.01.19Z"></path><path class="cls-2" d="m207.21,100.39c-.3-10.37,9.67-12.61,18.64-13.81,6.86-.88,12.81-.97,12.79-4.63-.25-5.69-5.04-9.55-11.84-9.35-6.54.19-11.53,3.99-12.14,9.37l-6.97.2c.59-8.86,8.4-15.3,19.1-15.61,11.13-.33,18.46,6.09,18.74,15.61l.64,21.92c.04,1.44.83,2.19,2.36,2.14l2.55-.07.17,5.78-3.99.12c-4.84.14-7.46-1.99-7.58-6.16l-.04-1.36c-2.48,5.26-7.49,8.64-15.3,8.87-10.2.3-16.89-4.78-17.13-13.02Zm31.79-6.29l-.17-5.86c-1.88,2.69-6.88,3.35-12.38,4.1-6.18.86-12.36,1.89-12.19,7.67.14,4.67,4.47,7.52,10.93,7.33,8.41-.25,14.03-5.77,13.81-13.25Z"></path><path class="cls-2" d="m258.96,111.81l-1.42-63.73,7.05-.16,1.42,63.73-7.05.16Z"></path><path class="cls-2" d="m294.49,81.12c-.17-17.68,10.5-30.62,28.35-30.79,17.17-.17,28.93,11.79,29.11,30.23.17,17.85-10.5,30.96-28.51,31.13-17,.17-28.76-11.79-28.94-30.57Zm50.14-.49c-.14-14.7-8.56-23.89-21.74-23.76-13.09.13-21.24,9.47-21.1,24.17.14,14.87,8.48,24.23,21.57,24.1,13.26-.13,21.41-9.64,21.27-24.52Z"></path><path class="cls-2" d="m362,127.48l.21-62.05,5.61.02.74,8.16c3.25-5.6,9.21-9.15,16.52-9.12,11.9.04,20.2,9.59,20.15,23.36-.05,14.03-8.41,23.69-20.31,23.65-6.89-.02-12.57-3.19-15.78-8.47l-.08,24.48-7.06-.02Zm35.92-39.66c.03-10.12-5.64-17.19-14.05-17.22-8.5-.03-14.64,6.84-14.68,16.78-.04,10.54,6.06,17.96,14.64,17.99,8.33.03,14.05-7.18,14.09-17.55Z"></path><path class="cls-2" d="m411.88,88.3c.19-15.38,10.24-23.59,21.63-23.45,12.41.15,20.29,8.58,20.37,23.03l-.02,1.96-34.93-.43c.31,9.61,5.83,16.22,14.93,16.34,6.29.08,10.92-3.01,12.86-8.85l6.88.08c-2.16,9.24-9.54,15.01-19.82,14.89-13.34-.17-22.06-10.05-21.89-23.56Zm34.65-4.42c-1.18-7.92-5.88-12.82-13.1-12.91-7.14-.09-12.47,4.52-14.01,12.58l27.11.34Z"></path><path class="cls-2" d="m462.35,111.35l.92-45.04,5.61.11.67,8.6c3.01-5.72,8.34-8.67,15.82-8.52l1.53.03-.14,6.97-1.53-.03c-9.52-.19-15.15,5.13-15.34,14.39l-.48,23.62-7.05-.14Z"></path><path class="cls-2" d="m490.67,99.08c.3-10.37,10.38-12.03,19.41-12.71,6.9-.48,12.85-.23,13.04-3.88.08-5.69-4.48-9.82-11.28-10.01-6.54-.19-11.74,3.32-12.66,8.65l-6.97-.2c1.1-8.81,9.27-14.79,19.97-14.48,11.13.32,18.08,7.15,17.8,16.66l-.62,21.92c-.04,1.44.7,2.23,2.23,2.27l2.55.07-.17,5.78-3.99-.11c-4.84-.14-7.33-2.42-7.21-6.58l.04-1.36c-2.78,5.11-7.97,8.19-15.79,7.97-10.2-.29-16.59-5.75-16.35-13.99Zm32.1-4.44l.17-5.86c-2.03,2.58-7.06,2.95-12.6,3.38-6.22.5-12.45,1.18-12.61,6.95-.13,4.67,4.03,7.77,10.49,7.95,8.41.24,14.34-4.95,14.55-12.42Z"></path><path class="cls-2" d="m558.61,114.09c-8.75-.32-13.25-5-12.95-13.32l.97-26.25-8.33-.31.22-5.95,8.33.31.57-15.38,7.05.26-.57,15.38,12.15.45-.22,5.95-12.15-.45-.97,26.25c-.17,4.5,1.95,6.96,6.12,7.12l5.01.19-.22,5.95-5.01-.19Z"></path><path class="cls-2" d="m572.32,114.65l1.91-45.01,7.05.3-1.91,45.01-7.05-.3Zm.75-57.91c.13-2.97,2.51-5.08,5.49-4.96s5.09,2.43,4.96,5.4-2.43,5.17-5.4,5.05-5.17-2.52-5.04-5.49Z"></path><path class="cls-2" d="m589.27,92.36c.75-15.03,11-22.6,23.23-21.99,14.35.72,21.56,11.46,20.92,24.2-.78,15.54-10.62,23.39-23.27,22.75-14.43-.72-21.56-11.38-20.88-24.96Zm36.93,1.85c.5-10.1-5.01-17.27-14.01-17.72-9-.45-15.2,6.13-15.71,16.24-.58,11.55,5.82,18.08,13.97,18.49,9.59.48,15.26-7.24,15.74-17Z"></path><path class="cls-2" d="m640.92,117.99l2.76-44.96,5.6.34.26,6.91c3.34-4.56,9.39-7.34,16.09-6.93,9.67.59,15.73,7.27,15.13,17.19l-1.83,29.78-7.04-.43,1.81-29.52c.38-6.28-3.44-10.52-10.23-10.93-8.06-.49-13.32,4.8-13.83,11.67l-1.68,27.32-7.04-.43Z"></path><path class="cls-2" d="m688.04,106.71l6.87.5c.09,5.89,5.19,9.49,11.98,9.98,6.36.46,9.59-1.78,9.91-6.27.31-4.24-2.93-5.41-7.48-7.36l-6.37-2.68c-6.45-2.68-12.92-5.19-12.33-13.33.55-7.63,6.84-12.12,16.67-11.41,9.92.72,16.4,6.55,16.78,16.64l-6.87-.5c-.31-6.33-4.5-9.7-10.6-10.14-5.51-.4-8.91,1.83-9.19,5.73-.34,4.66,4.51,5.95,8.15,7.49l5.96,2.47c8.03,3.31,12.74,6.46,12.2,13.92-.57,7.88-6.68,12.22-17.61,11.43-10.68-.77-18.16-6.94-18.07-16.47Z"></path><path class="cls-3" d="m708.15,137.58c1.39.17,1.38.24-.02.21-1.4-.03-2.31-.24-2.3-.38.47-.11.94-.07,2.32.17Zm-25.94-2.24q.93.06.46.03l-1.39-.09.93.06Zm14.85.87l.46.03c-.46-.03-.93-.06-.93-.06-.46-.03,0,0,.46.03Zm-19-1.51q.92.2-.01.21c-.93.01-2.31-.22-2.31-.36-.45-.17,1.4-.05,2.32.15Zm24.13,1.45c.46.03.46.1.46.1q0,.07-.47.04s-.46-.03-.46-.1l.47-.04Zm.94-.14c.45.17-.02.21-.94.07-.93-.07-.92-.14-.92-.21.47-.11,1.4-.04,1.85.14Zm.06-.77c-.01.14-.48.18-2.33-.03-.92-.14-1.39-.17-.45-.17,1.4.03,2.79.13,2.78.2Zm-350.35-12.88c-1.85.03-6.07.1-8.84.14-3.72.03-5.12.04-6.05.19-.93.08-1.39.08-1.39.08-.47-.07-4.65-.1-12.09-.04-14.42.05-18.14.08-20.46.24,0,0-1.39.08-2.32.09-1.86.16-2.32.23-1.39.36.47.07,0,.07-.46.07-1.4.01-1.86.16-1.85.37,0,.07-.46.14-.93.22-.46.07-.46.14-.46.28.47.14.47.28.47.35,0,.21-1.39.57-2.31.72,0,0-.46.07,0,.07,0,0-.46.14-1.39.29-.93.22-1.39.29-.46.28q.47.07.47.14c-.46.28-1.39.43-2.32.44,0,0-.93.08-.93.15-.93.15-2.31.93-2.31,1h-.46s0,.07,0,.14c0,.07,0,.21-.46.28q0,.07.47.07c.46,0,.93.06,1.4.06.47.07,1.4.13,2.33.19.93,0,.93.06.93.13-.46.07-.46.14,1.4.34.93.2,7.44.22,14.87.02,2.3-.04,5.59-.1,7.43-.13,1.36-.03,3.74-.09,4.64-.11.93,0,1.86-.09,2.32-.09.46,0,.93-.08,1.86-.09.93-.08,3.25-.1,8.36-.07,6.96-.08,12.51-.14,22.76-.26,11.15-.22,13.47-.27,16.26-.25,12.31.07,19.86.1,24.39.17,4.52.06,6.04.08,6.27.09.93.08,9.76.14,13.47.09,1.86-.05,3.25-.03,3.72.04,0,0,1.86.02,3.72-.03,2.32-.04,5.11-.01,6.5,0,1.37.03,4.2.1,5.57.13,1.39.02,3.25.11,4.18.19.93.08,3.25.19,11.15.32,5.56.07,12.55.17,15.79.21,3.24.05,10.23.16,15.33.25,11.15.2,15.79.33,16.26.19.47-.06,2.32-.01,2.79.07.23.08,2.44.13,4.58.15,1.03,0,2.08,0,2.93.01.79,0,1.32-.03,1.32-.06.47-.06,1.86-.01,1.86.06,0,.02.2.04.56.06.38.02.9.04,1.52.07,1.28.04,3.02.1,4.88.15,3.7.14,8.83.33,10.68.4,16.71.68,46.88,1.86,49.21,1.8.46.02,1.86.08,3.71.16,1.39.13,5.11.23,7.43.33,2.32.03,5.11.09,5.58.11.91.03,3.29.12,5.11.18,2.32.04,3.25.16,3.71.18.46.09,1.85.23,3.24.3,1.86.09,3.24.23,3.71.25.46.03,2.78.13,5.57.21q5.11.2,13.92.75c5.56.36,9.27.58,12.06.68,5.11.23,6.03.28,7.42.43,2.74.14,15.15.75,17.63.87,4.65.07,13.93.53,25.53,1.27,2.78.19,5.57.31,6.03.34.93,0,1.4.03,2.78.2.93.07,2.32.17,3.24.24.93,0,3.25.17,5.1.3,2.78.27,3.24.24,4.18.17.47-.04,1.41-.11,1.87-.07,1.39.1,2.8-.08,2.83-.42.01-.14.49-.31.5-.45.47-.11.02-.21-.44-.31-.92-.14-.92-.21-.91-.28s-.45-.17-.92-.21c-.46-.1-.45-.17-.45-.24v-.07c-.45-.1-.92-.14-.91-.21.01-.14-3.2-.8-5.05-1-1.85-.21-4.16-.52-3.68-.62,0-.07-.46-.1-1.85-.21q-1.39-.1-.93-.07l1.4.03-1.38-.24c-.46-.1-1.38-.24-1.85-.28s-1.39-.1-1.39-.17c0,0-.09-.03-.24-.05-.18-.02-.41-.05-.67-.09-.61-.07-1.4-.16-2.26-.25-1.79-.18-3.99-.39-5.62-.5-1.86-.13-2.78-.26-3.7-.39-.92-.2-1.84-.34-2.31-.37-.93-.06-2.78-.19-4.17-.35-1.85-.2-4.17-.36-6.96-.46-1.85-.11-9.76-.58-17.18-1.02-12.07-.71-13-.76-15.8-.78-1.87.04-3.26-.06-7.9-.31-5.11-.27-8.36-.45-17.64-1.16-5.57-.35-24.15-1.42-33.91-1.82-21.84-.89-26.03-.98-29.28-1.06-5.66-.19-26.91-.91-34.86-1.18-5.11-.15-7.9-.24-11.62-.35-2.33,0-6.05-.02-8.84-.09-1.21,0-2.33,0-3.2-.01-.87,0-1.45,0-1.45.03-.47-.01-1.4-.04-2.32-.06-1.86-.2-15.81-.51-20.92-.54-3.26,0-12.56-.19-16.74-.31-.93-.01-7.44-.12-14.42-.23-6.97-.16-13.95-.23-15.35-.32-1.4-.02-4.19-.12-6.04-.21-1.39-.02-6.07-.09-10.23-.15-3.72-.03-6.98-.12-7.44-.12,0,0-2.33-.02-5.12.03-2.33,0-6.98-.02-10.23-.03-3.26,0-5.58-.01-6.05-.01,0,.07-1.51.12-3.02.14-.77,0-1.52.01-2.08.01-.28,0-.51,0-.69,0-.17,0-.26-.01-.26-.02,0-.03-.81-.05-1.69-.06-.87,0-1.8.02-2.03.06h-1.4c-.47-.05-3.26-.1-6.05-.15-2.33.02-4.65-.03-4.65-.03-.47,0-1.86.02-4.19.03Z"></path><path class="cls-3" d="m119.3,41.51c.09-.01,1.04-.32,1.2-.45.09-.01.16-.13.16-.13-.02-.1.14-.24.49-.35q.09-.01.19.02c.02.11.1.04.35-.11.16-.13.33-.22.33-.22,0,.05.09-.01.09-.01.16-.14.57-.37.84-.42.09-.01.27-.04.45-.02.18-.03.27-.04.35-.11s.16-.14.25-.16c.27-.05.43-.13.4-.3-.01-.06-.02-.11.08-.07.2.08.28,0,.41-.24-.02-.11.04-.3.04-.3.1-.27.09-.64-.22-1.82.18-.03.19-.09.2-.27.01-.13.14-.32.15-.41.02-.11.03-.18.03-.2,0,0-.07-.12-.05-.24-.07-.15-.14-.3-.22-.34v-.07c.1,0,.13-.16.04-.18-.09-.02.06-.29.24-.26,0-.02.03-.13.07-.29.04-.16.08-.38.11-.49.12-.11.14-.22.14-.22,0-.02-.05-.2,0-.37.06-.2.04-.44.06-.51-.06-.11-.11-.27-.09-.34-.07-.09.02-.43.07-.78.12-.33.23-.63.25-.68-.02-.23.17-.66.32-.77.19-.2.45-.84.35-.99.02-.04.04-.08.05-.1.08.04.13-.06.27-.12.06-.12.23-.25.36-.3.09-.16.14-.29.27-.5.12-.37.66-1.28.9-1.44.18-.06.25-.28.98-1.03.27-.38.74-1.14.85-1.4.1-.52.24-.61.41-.78.16-.15.21-.2.39-.13.22.04.24,0,.67-.34.27-.21.59-.38.67-.41.16,0,.24-.05.26-.17,0-.11.07-.16.1-.18.02-.01,0-.11-.06-.28-.01-.1-.03-.2.04-.25.12-.09.2-.44.16-.52-.05-.08,0-.1.01-.11s.01-.11-.01-.2l-.03-.19-.1-.05s.02,0,.04-.02c.06-.03.08-.04.03-.12-.11-.15-.09-.36-.05-.48.04-.12-.07-.69-.15-.85-.04-.08-.02-.09-.04-.18l-.04-.08c-.04-.08-.08-.16-.1-.25.02-.01,0-.11-.04-.19-.04-.08-.08-.16-.07-.27-.02-.09-.03-.19-.14-.34-.09-.16-.22-.39-.31-.55-.2-.4-.44-.68-.52-.64-.03.01-.16-.12-.23-.18-.14-.13-.21-.19-.33-.03-.11.06-.24.13-.34.09-.05.03-.14.08-.19.11-.04.12-.06.14-.16.09-.03.02-.24.03-.39.13-.68.36-1.32.54-1.71.54-.17.02-.95.42-1.1.54-.02.13-.07.16-.37.33-.2.06-.38.23-.59.56-.37.47-.37.47-.66.66-.19.07-.3.19-.32.21-.02.02-.02.15-.1.24-.06.07-.06.2-.01.28-.02.02,0,.13-.17.18-.08.09-.26.14-.29.19-.02.02-.2.11-.37.17-.1.12-.32.26-.31.38-.08.1-.13.17-.15.19-.32-.06-1.53,1.57-1.9,2.63-.06.11-.16.44-.28.65-.13.21-.22.4-.14.44.07.04.04.1-.04.1-.08-.13-.15-.25-.18-.31-.18-.18-.41-.45-.49-.61-.17-.11-.5-.92-1.01-1.64-.43-.76-.84-1.48-.89-1.58-.17-.21-.39-.56-.6-.92-.23-.34-.43-.68-.51-.88-.3-.58-1.26-2.07-1.59-2.12-.07-.09-.15-.18-.19-.23.07-.06-.11-.28-.23-.57-.22-.28-.45-.7-.57-.99-.3-.37-.52-.65-.98-1.12-.38-.34-1.05-1-1.68-1.64-.66-.62-1.31-1.19-1.55-1.46-.26-.34-.62-.75-2.88-2.45-.5-.39-1.31-.81-2.06-1.2-.76-.38-1.44-.74-1.79-.84-1.18-.29-1.55-.46-2.13-.75-.53-.27-.69-.33-.84-.58-.26-.3-.37-.34-1.79-.9-.87-.37-1.8-.72-2.02-.8-.31-.19-.59-.28-.84-.26-.19.03-.42-.03-.53-.07-.06-.02-.19.03-.35.17-.14.05-.27.1-.49.04-.39-.09-1.13.01-1.15.1-.02.09-.13.06-.19.05-.06-.01-.19.05-.26.12l-.21.14.14.13s-.04-.01-.11-.03c-.17-.04-.22-.05-.24.04.01.19-.3.3-.54.34-.24.04-.73.48-.76.65-.02.09-.07.08-.14.15l-.02.09c-.02.09-.04.18-.11.25-.05-.01-.12.06-.14.15-.02.09-.04.18-.16.24-.07.08-.14.15-.12.34-.03.18-.04.45-.07.63-.09.44,0,.83.14.87.05.01.11.21.15.31.06.2.09.3.41.28.2.05.45.1.53.22.1.02.25.06.35.08.17-.05.22-.04.3.07.05.01.33.17.62.24,1.19.45,2.1.93,2.49,1.33.22.14,1.38.83,1.66.93.17-.03.26,0,.73.29.25.18.59.36,1.16.54.87.33.88.33,1.32.65.23.2.43.33.47.36.04.03.21.02.38.12.12.08.3.07.38.02.04.03.17,0,.34.2.17.1.33.3.41.35.04.03.25.25.4.45.21.12.46.44.63.45.16.11.27.2.31.23,0,.2.69.7,1.46,1.37.76.69,1.74,1.41,2.37,2.01.13.14.57.46.84.74.28.27.5.53.56.47.07-.06.16.06.12.15-.13.12.27.91.44.83.1-.02.22.13.18.23-.13.17.24.49.81,1.51.3.44.63,1.09.82,1.37.21.27.48.95.77,1.46.41.72.61.88.73.93.13.04.3.17.38.3.06.13.27.36.33.5.06.13.19.4.21.67,0,.22.09.4.09.4.1,0,.17.14.17.36.04.2.16.51.29.77.11.28.22.51.28.54,0,.01.06.13.17.36-.1-.03-.21-.05-.32-.07-.39-.16-.76-.31-.81-.33-.26-.02-.8-.2-.96-.35-.27-.18-1.08-.47-1.24-.31-.06-.01-.11-.03-.14-.04.03-.09-.11-.12-.23-.25-.17-.05-.36-.19-.48-.32-.22-.06-.39-.11-.7-.17-.5-.02-1.81-.28-2.15-.39-.2-.1-.44-.2-1.84-.37-.62-.07-1.84.14-2.2.24-.59.28-.8.33-1.13.35-.3.03-.39.04-.53-.13-.2-.16-.27-.16-1.06-.02-.49.09-1.03.1-1.15.14-.21-.04-.36,0-.46.13-.07.11-.19.15-.25.16-.03,0-.07.11-.08.3-.03.1-.07.21-.19.24-.21.05-.47.45-.44.53.03.08-.03.11-.06.12-.03.01-.05.12-.05.21l-.02.2.11.05s.03-.01-.06.02-.11.04-.08.13c.09.16.02.38-.05.5-.08.13-.05.69.03.86.04.08.01.09.02.18l.04.08c.04.08.07.17.08.26-.02,0-.01.1.02.18.04.08.07.16.06.27.01.09.03.18.12.34.08.16.2.4.28.57.18.41.39.72.45.69.02,0,.13.14.18.22.11.15.16.23.24.1.08-.03.17-.07.24,0,.04-.01.1-.04.13-.05.03-.11.05-.11.11-.04.02,0,.16.03.28,0,.53-.04.95,0,1.21.24.12.07.68.15.79.13.05-.1.08-.12.31-.04.13.08.29.07.52-.05.37-.13.37-.13.6-.04.13.09.23.09.25.09.02,0,.08-.09.16-.09.06,0,.12-.09.14-.18.02,0,.06-.09.17,0,.08,0,.18.09.23.09.02,0,.14.1.24.2.1,0,.26.11.33.02.08,0,.14,0,.17.01.09.26,1.41.39,2.19.39.08.02.33-.02.5,0,.17.03.31.07.33-.01.02-.09.08-.07.08.02-.04.18.28.45.35.28.04-.08.13-.06.12.03-.03.19.18.22.64.47.22.08.49.26.63.31.14.04.41.23.64.34.33.14.47.09.54.03.07-.07.19-.12.25-.09.06.03.22-.01.28.02.06.03.18.09.24.21.04.12.12.16.12.16.06-.07.12-.04.15.07.12.16.48.33.56.27.01,0,.08.02.28.09.2.07.53.2,1.05.45.11.07.2.13.54.56.35.32.56.48.82.67.24.07.33.13.31.23.03.03,0,.11.02.12.02.01,0,.11.03.13.03.02.07.16.12.2.06.05.12.22.2.29.09.22.23.33.38.36.07.48.23.83.42.87.3.16.39.14.47.08.09-.01.18-.03.2.07.11.09.21.17.31.21,0,.05.11.09.12.14q0,.05.1.04c.08-.06.26-.09.35-.1l.18-.03v-.05Zm-20.6-11.35c-.03-.08.05-.12.16-.06.08.06.06.07.03.18-.08.13-.13.05-.2-.12Zm.34.93c-.04-.18.02-.2.1-.04.03.08.06.17,0,.19-.02.1-.08.03-.11-.15Zm.2.4s-.02,0-.06-.08c0,0-.03-.08,0-.09l.06.08c.03.08,0,.09,0,.09Zm.41.23s-.02,0-.05.02h.02s.05-.03.02-.02Zm.99-.28c-.07-.07-.07-.07-.07-.26,0-.19.11-.22.13-.03.04.18.01.37-.06.3Zm-.13.22l-.07.02s-.02,0,.02,0h.05Zm-1.1,1.21c-.1-.06-.13-.14-.1-.25,0-.19.03-.2.11-.04.06.17.08.35-.02.3Zm-5.91-28.12c-.24.04-.27-.06-.23-.24.02-.09.19-.05.33.08.09.11.03.1-.1.16Zm-.4.92c-.13.06-.16-.04-.06-.2.1-.16.2-.14.21.05-.02.09-.04.17-.15.15Zm-.06.26q-.05-.01-.03-.1s.02-.09.07-.07l.03.1c-.02.09-.07.08-.07.08Zm-.99,1.16c-.13-.12-.12-.21.06-.26.2-.14.25-.13.26.06-.04.18-.19.33-.32.2Zm3.1-.02s.04.01.06.02l-.11-.03q-.05-.02.05.02Zm.52-.03q-.08-.12.08-.26c.16-.14.37-.07.26.08-.06.17-.27.29-.34.18Zm35.6,11.51c-.09-.16-.13-.34-.01-.3.12.04.16.12.13.24.02.2,0,.21-.12.07Zm-.1.88s.01,0,.02-.01c-.02.01-.05.03-.02.01Zm-.76.3h.01s.01-.02-.01,0Zm1.31.01l-.07-.07c-.05-.08-.02-.09-.02-.09t.07.07s.05.08.02.09Zm-1.26.49c.06.18-.02.23-.11.07-.11-.15-.15-.34-.05-.29.1.04.1.04.16.22Zm1.35-.24c-.05-.08-.09-.16-.05-.18,0-.1.07-.04.13.13.07.17.03.19-.09.05Zm.46.87c-.09-.06-.07-.07-.07-.17.04-.12.1-.06.19.1.05.08-.01.11-.12.07Z"></path><rect class="cls-1" width="749.99" height="144.46"></rect></g></svg> 