<?xml version="1.0" encoding="UTF-8"?> <svg xmlns="http://www.w3.org/2000/svg" id="Layer_2" viewBox="0 0 98.79 84.27"><defs><style>.cls-1,.cls-2{stroke-width:0px;}.cls-2{fill:#fd9c8a;}</style></defs><g id="Layer_1-2"><path class="cls-1" d="m49.63,69.63c-5,0-10-1.89-13.8-5.68-3.69-3.68-5.73-8.56-5.73-13.77s2.04-10.09,5.73-13.77c7.61-7.57,20-7.58,27.61,0,3.69,3.68,5.73,8.57,5.73,13.77s-2.03,10.09-5.73,13.77c-3.81,3.79-8.81,5.68-13.8,5.68Zm0-29.89c-2.7,0-5.39,1.02-7.45,3.06h0c-1.98,1.97-3.07,4.59-3.07,7.38s1.09,5.41,3.07,7.38c4.11,4.09,10.79,4.09,14.89,0,1.98-1.97,3.07-4.59,3.07-7.38s-1.09-5.41-3.07-7.38c-2.05-2.04-4.75-3.06-7.45-3.06Zm-10.62-.13h0,0Z"></path><path class="cls-2" d="m11.48,50.35c-2.94,0-5.88-1.11-8.11-3.34-2.17-2.16-3.37-5.04-3.37-8.1s1.2-5.94,3.37-8.1h0c4.47-4.45,11.75-4.45,16.22,0,2.17,2.16,3.37,5.04,3.37,8.1s-1.2,5.94-3.37,8.1c-2.24,2.23-5.18,3.34-8.11,3.34Zm-1.75-13.16c-.46.46-.72,1.07-.72,1.72s.25,1.26.72,1.72c.97.96,2.54.96,3.51,0,.46-.46.71-1.07.71-1.72s-.25-1.26-.72-1.72c-.97-.96-2.54-.96-3.51,0h0Z"></path><path class="cls-2" d="m85.86,41.19c-1.2,0-2.39-.47-3.28-1.41-.14-.15-14.78-15.33-33.08-15.33-13.07,0-24.09,7.83-29.49,12.5-1.88,1.63-4.73,1.42-6.36-.46-1.63-1.88-1.42-4.73.46-6.36,6.35-5.49,19.39-14.69,35.38-14.69,22.24,0,38.93,17.41,39.63,18.15,1.71,1.81,1.62,4.66-.18,6.37-.87.82-1.98,1.23-3.09,1.23Z"></path><path class="cls-1" d="m15.83,19.86c-1.36,0-2.71-.62-3.6-1.79-1.5-1.99-1.1-4.81.88-6.31C18.93,7.37,31.39,0,49.51,0s30.38,7.14,36.41,11.4c2.03,1.44,2.52,4.25,1.08,6.28-1.44,2.03-4.25,2.52-6.28,1.08-4.15-2.93-15.5-9.75-31.21-9.75s-27.01,6.95-30.97,9.94c-.81.61-1.77.91-2.71.91Z"></path><path class="cls-2" d="m49.75,84.27c-22.24,0-38.93-17.41-39.63-18.15-1.71-1.81-1.62-4.66.18-6.37,1.81-1.71,4.66-1.63,6.37.18.14.15,14.78,15.33,33.07,15.33,13,0,23.98-7.76,29.36-12.39,1.89-1.62,4.73-1.41,6.35.48,1.62,1.89,1.41,4.73-.48,6.35-6.33,5.44-19.32,14.56-35.23,14.56Z"></path><path class="cls-2" d="m87.3,71.96c-2.94,0-5.88-1.11-8.11-3.34-2.17-2.16-3.37-5.04-3.37-8.1s1.2-5.94,3.37-8.1h0c4.47-4.45,11.75-4.45,16.22,0,2.17,2.16,3.37,5.04,3.37,8.1s-1.2,5.94-3.37,8.1c-2.24,2.23-5.18,3.34-8.11,3.34Zm-1.75-13.16h0c-.46.46-.72,1.07-.72,1.72s.25,1.26.72,1.72c.97.96,2.54.96,3.51,0,.46-.46.71-1.07.71-1.72s-.25-1.26-.72-1.72c-.97-.96-2.54-.96-3.51,0Z"></path></g></svg> 