<?xml version="1.0" encoding="UTF-8"?> <svg xmlns="http://www.w3.org/2000/svg" id="Layer_2" viewBox="0 0 100.5 100.5"><defs><style>.cls-1{fill:none;}.cls-1,.cls-2,.cls-3{stroke-width:0px;}.cls-3{fill:#8ee167;}</style></defs><g id="Layer_1-2"><path class="cls-3" d="m84.08,92.82H16.42c-3.99,0-7.24-3.25-7.24-7.24v-34.44c0-2.46,1.99-4.45,4.45-4.45s4.45,1.99,4.45,4.45v32.77h64.32v-32.77c0-2.46,1.99-4.45,4.45-4.45s4.45,1.99,4.45,4.45v34.44c0,3.99-3.25,7.24-7.24,7.24Z"></path><path class="cls-2" d="m87.17,92.82H13.78c-2.46,0-4.45-1.99-4.45-4.45s1.99-4.45,4.45-4.45h73.38c2.46,0,4.45,1.99,4.45,4.45s-1.99,4.45-4.45,4.45Z"></path><path class="cls-3" d="m92.35,52.81H8.15c-2.3,0-4.48-1.11-5.84-2.96-1.36-1.86-1.75-4.27-1.06-6.46L10.62,12.79c.97-3.06,3.74-5.09,6.91-5.09h65.42c3.17,0,5.94,2.03,6.9,5.05l9.4,30.67c.68,2.15.29,4.57-1.07,6.42-1.36,1.85-3.54,2.96-5.84,2.96Zm-1.59-6.76s0,.02,0,.03v-.03Zm-81.01-.04v.02s0-.02,0-.02Zm.64-2.1h79.71l-8.37-27.3H18.77l-8.37,27.3Z"></path><path class="cls-3" d="m23.84,50.03c-.34,0-.68-.04-1.02-.12-2.39-.56-3.88-2.96-3.32-5.35l7.42-31.59c.56-2.39,2.95-3.88,5.35-3.32,2.39.56,3.88,2.96,3.32,5.35l-7.42,31.59c-.48,2.05-2.31,3.44-4.33,3.44Z"></path><path class="cls-3" d="m76.66,51.88c-2.04,0-3.88-1.41-4.34-3.49l-7.42-33.44c-.53-2.4.98-4.78,3.38-5.31,2.4-.54,4.78.98,5.31,3.38l7.42,33.44c.53,2.4-.98,4.78-3.38,5.31-.33.07-.65.11-.97.11Z"></path><path class="cls-3" d="m48.86,50.03c-2.46,0-4.45-1.99-4.45-4.45V12.14c0-2.46,1.99-4.45,4.45-4.45s4.45,1.99,4.45,4.45v33.44c0,2.46-1.99,4.45-4.45,4.45Z"></path><path class="cls-2" d="m66.47,88.17c-2.46,0-4.45-1.99-4.45-4.45v-17.01h-24.46v17.01c0,2.46-1.99,4.45-4.45,4.45s-4.45-1.99-4.45-4.45v-18.67c0-3.99,3.25-7.24,7.24-7.24h27.79c3.99,0,7.24,3.25,7.24,7.24v18.67c0,2.46-1.99,4.45-4.45,4.45Z"></path><path class="cls-1" d="m100.5,100.5H0V0h100.5v100.5Zm-100-.5h99.5V.5H.5v99.5Z"></path></g></svg> 