<?xml version="1.0" encoding="UTF-8"?> <svg xmlns="http://www.w3.org/2000/svg" id="Layer_2" viewBox="0 0 58.34 48.37"><defs><style>.cls-1{fill:#020202;stroke-width:0px;}</style></defs><g id="Layer_1-2"><path class="cls-1" d="m51.88,28.96c.02.21-.04.23-.17.06-.13-.17-.06-.33.05-.38.14.02.16.08.12.32Zm-1.42-3.58q.08.12.04.06l-.11-.17.08.12Zm1.21,1.87l.03.06c-.03-.06-.06-.13-.06-.13-.03-.06,0,0,.03.06Zm-1.31-2.57c-.02.19-.02.19-.15.1-.13-.08-.16-.31-.06-.39.05-.13.23.1.21.28Zm1.96,3.12c.03.06-.02.09-.02.09q-.06.02-.09-.04s-.03-.06.02-.09l.09.04Zm.23.06c-.09.11-.16.07-.17-.08-.06-.13,0-.15.05-.18.14.02.2.15.12.26Zm.61-.26c-.11.05-.2,0-.27-.29,0-.16-.04-.23.08-.12.15.18.25.38.19.41ZM5.25,19.44c-.23.22-.65.78-.95,1.14-.41.47-.54.66-.54.86-.05.16-.09.22-.09.22-.09.03-.58.53-1.25,1.57-.66,1-1.03,1.65-1.24,2.1-.22.45-.31.68-.33.88,0,0-.04.23-.1.37-.01.33.01.42.18.33.08-.04.05.02.02.09-.09.21,0,.32.16.39.06.02.08.11.11.2.03.09.08.11.19.16.14-.02.25.03.31.05.17.07.36.38.42.56,0,0,.03.09.06.02,0,0,.09.11.15.28.12.19.15.28.2.15q.08-.04.14-.02c.2.15.26.32.22.45,0,0,0,.15.06.17.06.17.62.58.67.59l-.02.06s.06.02.11.04c.06.02.17.06.2.14q.06.02.08-.04c.02-.06.1-.1.12-.16.08-.04.18-.14.28-.23.04-.12.1-.1.16-.08.03.08.09.1.35-.07.21-.06.58-.83.9-1.75.14-.27.27-.69.4-.89.09-.16.19-.45.25-.56.06-.11.07-.24.1-.3.03-.05.02-.13.08-.24.02-.13.18-.4.62-.91.55-.73.98-1.32,1.89-2.3.97-1.1,1.23-1.28,1.52-1.5,1.3-.97,2.2-1.43,2.74-1.7.52-.24.73-.34.75-.35.14,0,1.19-.5,1.65-.71.21-.14.39-.21.47-.18,0,0,.23-.09.45-.23.28-.15.64-.26.82-.32.18-.06.56-.11.76-.16.19-.05.46-.06.6-.04.14.02.47,0,1.55-.25.76-.17,1.7-.42,2.14-.48.44-.08,1.39-.27,2.09-.35,1.52-.2,2.15-.19,2.21-.32.06-.06.32-.07.38-.01.06.12,1.2.02,1.21-.11.07-.06.26-.05.25.01,0,.06.44.09.95.12.51.04,1.19.19,1.44.21,1.12.22,2.66.58,3.95.97,1.29.4,2.33.8,2.51.77.06.03.23.11.47.21.15.14.64.29.93.43.31.09.68.21.74.24.12.05.42.16.65.28.31.1.39.22.45.25.03.08.16.24.32.33.22.13.35.28.41.31.06.03.32.2.68.36.62.34.62.34,1.55,1.11.57.51.94.84,1.27,1.05.56.41.64.52.74.68.3.24,1.51,1.41,1.75,1.62.53.37,1.43,1.29,2.21,2.65.12.21.39.67.41.7.11.09.14.15.16.34.06.11.12.29.16.4.1.09.21.39.3.62.07.37.13.42.28.5.07.04.23.13.24.19.05.18.34.3.63.23.12-.03.31-.01.43-.04.14.04.17-.04.21-.13.02-.15.08-.16.13-.18.06-.02.1-.1.08-.17.04-.08.1-.1.15-.12l.06-.02c.04-.08.02-.15.07-.17.11-.03.32-.63.28-.93-.05-.3-.07-.69.07-.66.06-.02.03-.09-.05-.3q-.08-.21-.05-.14l.14.19.03-.26c.03-.09.03-.26,0-.33-.03-.07-.1-.21-.04-.23.05-.02-.16-.95-.43-1.42-.15-.27-.17-.43-.2-.6.03-.2,0-.36-.04-.43-.08-.13-.25-.39-.33-.62-.12-.29-.33-.63-.66-.96-.18-.26-1.02-1.27-1.87-2.15-1.38-1.42-1.52-1.49-1.93-1.7-.31-.1-.47-.26-1.05-.73-.65-.51-1.04-.83-2.18-1.81-.69-.57-3.22-2.17-4.68-2.76-1.61-.69-2.62-.99-3.27-1.19-.64-.21-.95-.25-1.2-.3-.44-.1-1.5-.35-2.61-.56-1.12-.21-2.29-.35-2.92-.43-.82-.05-1.27-.09-1.87-.09-.37.06-.97.1-1.41.12-.37.07-.74.08-.74.15-.07,0-.22.01-.37.02-.15-.05-.78-.03-1.47.02-.68.08-1.43.17-1.82.27-.5.13-1.93.39-2.58.47-.14.04-1.13.24-2.17.52-1.04.19-2.14.57-2.37.57-.22.06-.66.18-.96.22-.21.08-.95.29-1.57.58-.41.17-1.08.45-1.13.47,0,0-.34.18-.72.45-.34.18-.99.59-1.46.87-.45.31-.76.53-.83.57.06.09-.71.73-.73.69-.04-.05-.46.29-.48.38l-.18.14c-.1,0-.48.26-.87.53-.29.26-.61.49-.61.49-.05.06-.22.22-.49.5Z"></path><path class="cls-1" d="m3.53,34.07c-.05-.2,0-.23.15-.09.15.13.12.3.02.37-.14.01-.17-.05-.17-.27Zm1.84,3.15q-.08-.1-.04-.05l.13.15-.08-.1Zm-1.38-1.58l-.04-.05c.04.05.08.11.08.11.04.05,0,0-.04-.05Zm1.54,2.22c0-.18,0-.18.13-.12.13.06.17.29.09.37-.04.13-.22-.07-.22-.25Zm-2.25-2.62c-.04-.06.01-.09.01-.09q.05-.03.09.02s.04.05-.01.09l-.09-.02Zm-.22-.01c.06-.12.15-.1.17.04.08.11.03.14-.02.18-.14.01-.22-.1-.15-.22Zm-.55.36c.1-.07.19-.04.29.22.03.15.07.2-.06.12-.17-.14-.28-.31-.23-.34Zm46.55,5.03c.22-.19.66-.67.97-.98.41-.41.57-.56.58-.76.05-.15.1-.2.1-.2.08-.02.6-.43,1.32-1.38,1.43-1.8,1.65-2.42,1.75-2.78,0,0,.05-.23.11-.37.03-.33,0-.42-.17-.34-.09.04-.05-.03-.02-.09.1-.2.02-.32-.14-.39-.05-.03-.08-.12-.1-.21s-.08-.11-.19-.16c-.14.01-.25-.04-.3-.06-.17-.08-.34-.38-.41-.55,0,0-.03-.09-.06-.02,0,0-.09-.11-.15-.28-.12-.19-.15-.27-.2-.15-.08.04-.08.04-.13.01-.2-.15-.26-.31-.22-.43,0,0-.01-.14-.07-.16-.07-.16-.62-.55-.68-.57l.02-.05s-.06-.02-.11-.04-.17-.06-.21-.13q-.06-.02-.08.03c-.02.05-.1.08-.12.14-.08.03-.17.11-.27.2-.04.1-.1.08-.15.06-.04-.07-.09-.09-.34.04-.2.04-.54.68-.88,1.48-.13.23-.28.6-.41.77-.09.14-.2.4-.27.49-.06.09-.08.22-.12.26-.04.04-.02.12-.09.21-.03.12-.18.36-.65.79-.57.64-1.04,1.15-1.98,2.04-1.01,1-1.27,1.16-1.56,1.37-1.31.89-2.18,1.34-2.7,1.6-.5.24-.71.34-.73.35-.14,0-1.15.51-1.57.74-.2.15-.36.23-.44.19,0,0-.22.09-.42.23-.26.17-.59.3-.76.35-.17.06-.53.12-.7.18-.17.06-.42.07-.55.05-.13-.02-.43.02-1.41.28-.69.18-1.56.42-1.97.49-.41.08-1.29.28-1.95.35-1.43.22-2.04.23-2.1.36-.06.06-.3.08-.36.02-.07-.12-1.16.03-1.16.15-.06.06-.25.06-.25,0,0-.06-.43-.06-.92-.07-.49-.02-1.16-.1-1.41-.13-1.1-.12-2.64-.33-3.93-.54-1.27-.2-2.28-.43-2.45-.38-.06-.02-.23-.06-.46-.13-.15-.11-.63-.18-.91-.28-.3-.03-.66-.1-.71-.12-.11-.04-.41-.09-.63-.18-.3-.05-.38-.16-.44-.18-.03-.08-.17-.2-.33-.27-.21-.1-.35-.23-.4-.25-.05-.02-.31-.16-.66-.26-.59-.26-.61-.24-1.51-.88-.54-.43-.93-.72-1.25-.89-.56-.35-.65-.44-.75-.59-.18-.14-1.32-1.02-1.8-1.39-.55-.29-1.48-1.08-2.43-2.27-.22-.29-.48-.56-.51-.61-.12-.07-.15-.12-.21-.3-.07-.1-.17-.26-.23-.36-.12-.07-.28-.33-.41-.54-.14-.35-.22-.37-.39-.41-.08-.02-.25-.07-.28-.13-.09-.16-.39-.21-.66-.07-.11.06-.3.09-.4.14-.14,0-.16.08-.18.17.01.14-.04.17-.09.2-.05.03-.07.11-.04.17-.02.09-.07.12-.13.15l-.05.03c-.02.09.01.15-.04.17-.11.06-.19.65-.09.91.08.27.17.62.03.62-.05.03-.01.09.1.26s.11.17.07.12l-.16-.14v.24c0,.09.02.24.06.3.04.06.12.17.07.21-.05.03.28.83.58,1.23.17.23.21.37.25.52,0,.19.03.34.08.39.09.11.27.33.37.53.14.26.38.53.71.81.19.21,1.07,1.06,1.93,1.82,1.39,1.22,1.54,1.27,1.94,1.44.3.08.46.2,1.05.61.66.45,1.07.73,2.26,1.57.37.22,1.19.69,2.12,1.1.93.42,1.96.79,2.68,1,3.25.81,3.89.75,4.36.8.82.09,3.97.4,5.15.45.76.01,1.18.02,1.73,0,.35-.07.9-.14,1.31-.16.34-.08.69-.1.68-.16.07,0,.21-.02.34-.03.28.11,2.36-.11,3.1-.32.47-.13,1.83-.41,2.46-.5.13-.03,1.09-.26,2.08-.58,1.02-.25,2-.63,2.22-.66.19-.08.61-.17.89-.23.19-.09.87-.3,1.44-.59.51-.25.98-.42,1.04-.46,0,0,.31-.17.65-.42.31-.16.91-.54,1.34-.79.42-.27.71-.46.77-.5-.06-.1.66-.66.69-.62.03.05.44-.24.46-.33l.17-.12c.1.01.47-.2.84-.43.28-.22.6-.4.6-.4.05-.05.22-.19.49-.43Z"></path><path class="cls-1" d="m5.88,13.24s-.1.07-.17.06.04-.07.15-.11c.12-.03.12-.02.02.05Zm.14-.65s0,.02,0,0v-.03s-.01,0,0,.02Zm.23.26h0s0,0,0,0c0,0,0,0,0,0Zm.02-.45q-.1.06-.17.06c-.06,0,.04-.07.15-.11.11-.05.12-.01.02.05Zm.35.43s-.05.03-.05.03q-.06.02-.06.01s0,0,.05-.03h.06Zm.18-.04c-.11.05-.17.06-.12.02,0-.02.05-.04.11-.06.12-.03.12-.01.01.04Zm.62-.23c-.11.04-.17.05-.13,0,.05-.04.05-.05.11-.05.07,0,.08.04.02.06Zm-2.08-7.67s-.12-.09-.15-.15c-.04-.07-.06-.1-.17-.06-.06.01-.07,0-.07,0,.05-.04.05-.15-.03-.3-.1-.31-.15-.39-.28-.37,0,0-.07,0-.08-.02-.13.02-.18.04-.28.12-.05.04-.05.03-.06.02-.02-.03-.12.02-.28.11-.05.03-.11.05-.17.07-.06.02-.11.05-.21.11-.1.07-.2.13-.26.16-.16.09-.43.21-.55.25,0,0-.06.02-.05.03,0,0-.11.05-.22.09-.17.07-.22.09-.21.11t-.1.07c-.21.11-.33.15-.34.14,0,0-.06.01-.11.04-.11.04-.7.35-.75.38h0s-.05.02-.1.05c-.05.03-.16.09-.21.11q-.05.03-.05.04s-.04.05-.04.06c-.05.04-.09.08-.13.13,0,.02-.04.05-.09.08-.06.02-.11.05-.25.17-.15.11-.13.25.05.32.02.04.11.07.13.1.01.03.09.04.1.05,0,.02.07,0,.08.01s.06-.01.07,0c.06-.01.08.03.08.15.07.12.12.23.28.38.22.15.24.19.26.24.18.48.19.62.19.62-.04.04.04.21.13.25.07,0,.08.03.03.07,0,0,.02.03.09.04.07.02.1.07.11.09.01.03-.02.1,0,.13.01.03-.02.09-.07.13-.05.04-.08.11,0,.26.05.1.17.21.2.27.03.06.15.16.19.26.15.18.19.27.31.23.06-.02.07.02.02.05-.1.06.08.17.19.12.06-.02.07.01.02.03-.05.03-.03.09,0,.16.03.07.02.19.04.23.03.36.28.93.46.91,0,0,.02.04.03.07-.04.05.04.1.06.14.07.02.15.05.16.06,0,.02.08.04.1.07.07.02.03.06.03.07-.05.03-.1.08-.08.11.01.04-.03.08-.03.09,0,0,.02.05.1.08q.1.08.11.27c-.01.13.02.2.09.23.09.08.1.09.06.14.02.05.23.25.3.28.2.03.38.16.53.37.02.05.1.09.1.1.06,0,.07,0,.02.05,0,.02.02.05.02.06.06,0,.08.04.09.08-.04.08.02.06.14.04.06-.01.18-.03.18-.02.01.03.25-.03.53-.13.11-.04.28-.1.4-.13.12-.03.17-.06.22-.09.05-.04.11-.06.16-.08s.11-.05.11-.06c.05-.03.11-.05.17-.07l.06-.02c.05-.03.05-.04.11-.06.11-.04.43-.23.47-.29.04-.06.14-.15.25-.18.06-.02.05-.03.04-.06t0-.02h.07s.1-.06.1-.06c.05-.03.1-.07.1-.08,0,0-.01-.03.05-.05s.18-.2.16-.27c-.01-.04.03-.08.08-.12.1-.06.15-.1.15-.11,0-.02-.02-.06.02-.11.04-.06.02-.11-.06-.15-.01-.04-.13-.18-.2-.34-.1-.25-.11-.27-.24-.29-.13,0-.14-.02-.18-.12-.04-.11-.07-.17.02-.44,0-.14-.04-.57-.13-.78-.25-.43-.29-.52-.37-.56-.11-.09-.3-.53-.32-.72-.05-.1-.07-.16-.11-.24-.08-.02-.17-.07-.19-.13-.08-.02-.1-.07-.15-.04,0,0-.01-.03-.02-.05.09-.09-.04-.37-.15-.45-.09-.04-.18-.23-.16-.34,0-.02-.07-.15-.14-.29-.02-.17-.09-.31-.05-.36-.01-.03.01-.11.05-.18-.01-.03,0-.15-.05-.23-.04-.07-.02-.17-.02-.18,0,0-.02-.05-.11-.08-.02-.05-.07-.14-.11-.2s-.06-.11-.06-.12c-.11.06-.22-.04-.17-.06s.02-.09-.04-.07v-.03s.06-.12.08-.21c-.02-.05,0-.12,0-.12,0,0-.02-.04-.04-.08Z"></path><path class="cls-1" d="m19.06,7.64c-.06.02-.12.01-.18-.02-.06-.03.06-.03.18-.02.12.02.12.03,0,.04Zm.41-.42s0,.02,0,0,0-.02,0-.02v.02Zm.09.28h0s0,0,0,0c0,0,0,0,0,0Zm.22-.31q-.12,0-.18-.02c-.06-.02.06-.03.18-.02.12,0,.12.04,0,.04Zm.13.45s-.06,0-.06,0q-.06,0-.06-.02s0,0,.06,0l.06.02Zm.18.04c-.12,0-.18-.02-.12-.03,0-.02.06,0,.12,0,.12.02.12.04,0,.03Zm.66.08c-.12-.01-.18-.03-.11-.06.06,0,.06-.02.12,0,.06.03.05.06,0,.05Zm2-6.04s-.05-.11-.04-.16c0-.07.01-.09-.11-.12-.06-.02-.06-.03-.06-.03.06,0,.13-.07.15-.2.09-.25.1-.31-.02-.37,0,0-.06-.03-.05-.05-.11-.05-.17-.06-.29-.06-.06,0-.06,0-.06-.02,0-.02-.12-.05-.29-.07-.06,0-.12-.02-.18-.04-.06-.02-.12-.02-.24-.04-.12,0-.24-.02-.3-.03-.18-.02-.47-.08-.59-.11,0,0-.06-.02-.06,0,0,0-.12-.02-.24-.05-.18-.04-.24-.05-.24-.04q-.06,0-.12,0c-.24-.04-.35-.07-.35-.08,0,0-.06-.02-.12-.03-.12-.03-.77-.14-.83-.14h0s-.06-.02-.12-.02c-.06,0-.18-.02-.24-.04q-.06,0-.06,0s-.06,0-.06.02c-.06,0-.12.01-.18.02,0,.02-.06,0-.12,0-.06-.02-.12-.02-.3-.01-.18,0-.25.1-.15.25,0,.04.05.11.04.14,0,.02.05.07.05.09,0,.02.06.04.05.05s.06.02.06.04c.06.02.05.06-.02.15-.01.12-.03.22.01.41.1.21.09.25.08.3-.11.43-.18.52-.18.53-.06,0-.08.17-.03.24.06.04.05.06,0,.07,0,0,0,.03.05.07.05.05.05.1.05.12,0,.02-.07.07-.07.09,0,.02-.07.05-.13.06s-.13.04-.14.18c-.01.1.03.23.03.29,0,.06.04.19.03.28.04.2.03.29.14.31.06.02.05.05,0,.05-.12,0-.02.16.1.17.06.02.06.04,0,.03s-.07.05-.07.12c0,.07-.08.15-.08.18-.15.28-.22.81-.05.88,0,0,0,.03,0,.07-.06.02-.01.09-.02.13.05.05.11.1.11.11,0,.02.05.06.05.1.05.05,0,.06,0,.07-.06,0-.12.02-.13.04,0,.03-.07.05-.07.06,0,0,0,.05.05.11q.05.1-.03.25c-.07.09-.08.16-.03.21.05.1.05.11-.02.13,0,.05.09.29.14.33.17.1.27.28.3.49,0,.05.05.11.05.11.06.02.06.03,0,.05,0,.02,0,.04,0,.06.06.02.05.06.05.1-.07.04,0,.06.11.09.06.02.18.05.17.05,0,.02.23.08.53.11.12.01.3.04.42.06.12.02.18.02.24.02.06,0,.12,0,.18,0,.06,0,.12,0,.12,0,.06,0,.12,0,.18.01h.06c.06,0,.06,0,.12,0,.12.01.48,0,.55-.03.06-.03.19-.05.31-.03.06,0,.06,0,.06-.03s0-.02,0-.02l.06.03h.12c.06-.01.12-.02.12-.03,0,0,0-.02.06-.02.06,0,.25-.07.26-.13,0-.03.07-.04.13-.05.12,0,.18-.01.18-.02,0-.02,0-.05.07-.07.06-.03.07-.07.01-.12,0-.03-.04-.18-.02-.31.03-.21.03-.23-.09-.29-.12-.05-.11-.07-.1-.15.01-.09.02-.15.22-.29.07-.09.23-.41.25-.58-.01-.39,0-.47-.06-.53-.05-.11,0-.48.07-.62.01-.09.02-.14.02-.21-.05-.05-.11-.12-.1-.17-.05-.05-.05-.09-.11-.1,0,0,0-.02,0-.04.12-.02.15-.26.1-.36-.05-.06-.03-.23.04-.3,0-.02.02-.13.03-.25.07-.12.09-.24.15-.26,0-.02.07-.07.13-.09,0-.02.07-.1.08-.17,0-.07.07-.12.08-.12,0,0,0-.04-.05-.1,0-.04.01-.12.02-.18,0-.06.01-.1.01-.11-.12-.01-.17-.13-.11-.12s.07-.05,0-.07c0,0,0-.02,0-.02.06,0,.13-.04.19-.08,0-.04.07-.07.07-.07,0,0,0-.03,0-.07Z"></path><path class="cls-1" d="m35.63,8.55c-.06,0-.12-.02-.17-.06-.05-.04.07-.01.18.03.11.05.11.06-.01.04Zm.49-.27s0,.01,0,0c0,0,0-.01,0-.02h0Zm.02.27h0s0,0,0,0c0,0,0,0,0,0Zm.28-.23q-.12-.03-.17-.06c-.05-.04.07-.01.18.03.11.04.1.06-.01.04Zm.02.44s-.06-.01-.06-.01q-.06-.02-.05-.03s0,0,.06.01l.05.03Zm.16.08c-.11-.04-.17-.06-.11-.06,0-.01.06,0,.12.03.11.05.1.06-.01.03Zm.62.24c-.11-.04-.17-.07-.1-.08.06,0,.06,0,.11.04.05.04.04.06-.02.04Zm3.27-4.99s-.02-.12,0-.16c.02-.06.03-.08-.08-.14-.05-.04-.05-.04-.05-.04.06.01.14-.03.18-.14.14-.2.16-.26.07-.34,0,0-.05-.04-.04-.06-.1-.07-.15-.1-.27-.13-.06-.01-.06-.02-.05-.03,0-.02-.1-.07-.27-.14-.06-.02-.11-.05-.16-.08s-.11-.05-.22-.09c-.11-.04-.23-.08-.28-.1-.17-.06-.44-.19-.55-.25,0,0-.05-.03-.06-.02,0,0-.11-.05-.22-.11-.16-.08-.22-.11-.22-.09q-.06-.01-.11-.04c-.22-.09-.33-.15-.32-.17,0,0-.05-.04-.11-.06-.11-.06-.71-.32-.77-.34h0s-.06-.03-.11-.05c-.06-.02-.17-.06-.22-.09q-.06-.02-.06-.01s-.06,0-.06,0c-.06-.01-.12-.02-.18-.03,0,.01-.06,0-.12-.03-.05-.03-.11-.05-.29-.09-.17-.05-.27.03-.2.19-.01.04.02.11.01.14,0,.02.03.08.03.09s.04.05.04.06c0,0,.05.04.04.05.05.04.04.07-.05.13-.04.11-.08.19-.08.38.05.22.03.25.01.3-.2.36-.29.43-.3.43-.06,0-.11.13-.08.21.04.05.04.07-.02.06,0,0-.01.03.03.08.04.06.03.1.02.12,0,.02-.08.04-.09.06,0,.02-.08.03-.14.02-.06,0-.13,0-.18.13-.03.09-.02.22-.04.27-.02.05,0,.18-.04.26-.01.19-.04.27.07.32.05.03.04.06-.02.04-.11-.04-.05.14.06.18.05.03.04.05-.01.03s-.08.03-.1.09c-.02.06-.11.12-.12.14-.21.22-.39.69-.24.79,0,0-.01.03-.02.06-.06,0-.03.08-.04.12.04.06.08.12.08.13,0,.01.04.07.03.1.04.06-.02.05-.02.06-.06-.01-.12-.01-.13,0-.01.03-.08.03-.08.04,0,0-.02.04.02.11q.03.1-.08.22c-.09.06-.11.12-.07.19.03.1.02.12-.04.12-.02.04.02.28.06.34.14.14.2.32.18.53-.02.04.02.11.02.12.05.04.05.04-.02.04,0,.01-.01.04-.02.05.05.04.04.07.03.1-.07.02-.02.05.09.11.05.03.16.09.16.09,0,.02.21.13.49.24.11.04.28.11.39.16.11.05.17.06.23.08.06,0,.12.03.17.05.06.02.11.04.12.03.06.01.11.04.17.06l.06.02c.06.01.06,0,.12.03.11.04.47.12.53.11.07,0,.19,0,.3.05.06.02.06.01.07,0t0-.01l.05.04.12.02c.06.01.12.02.12.01,0,0,0-.02.06,0,.06.02.26,0,.28-.05.01-.03.07-.02.13-.01.12.03.18.04.18.03,0-.01.02-.04.08-.04.07,0,.08-.04.04-.11.01-.03,0-.17.05-.29.07-.19.08-.2-.02-.29-.1-.07-.09-.09-.06-.17.03-.08.05-.13.27-.21.09-.06.31-.31.37-.46.07-.36.1-.43.06-.5-.02-.11.11-.44.21-.54.03-.08.05-.12.07-.18-.04-.06-.08-.14-.06-.18-.04-.06-.03-.09-.08-.12,0,0,0-.02.01-.04.12.01.21-.2.18-.3-.04-.07.02-.22.1-.26,0-.01.04-.12.09-.22.1-.09.14-.19.2-.19,0-.02.08-.04.15-.05,0-.02.09-.07.12-.14.02-.06.1-.09.1-.09,0,0,.01-.04-.03-.1.01-.04.04-.11.06-.16.02-.05.03-.09.04-.09-.11-.04-.13-.16-.08-.14.06.02.08-.03.02-.06,0,0,0-.01,0-.02.06.01.13,0,.2-.03.01-.04.08-.05.08-.05,0,0,.01-.03.03-.06Z"></path><path class="cls-1" d="m49.91,16.2c-.06-.02-.1-.07-.12-.13-.02-.06.08,0,.16.1.08.09.07.1-.04.04Zm.66-.13s-.01.01,0,0l.02-.02h-.01Zm-.15.31h0s.01,0,.01,0c0,0,0,0,0,0Zm.43-.15q-.1-.07-.12-.13c-.03-.06.08,0,.16.1.09.08.06.11-.04.03Zm-.26.49s-.05-.04-.05-.04t-.03-.05s0,0,.05.04l.03.05Zm.11.14c-.09-.08-.12-.13-.07-.1.01-.01.06.03.1.07.08.09.06.11-.03.03Zm.45.48c-.08-.09-.12-.14-.05-.12.06.03.06.02.09.08.02.06,0,.08-.04.04Zm6.48-3.92s.06-.13.11-.16c.06-.05.09-.07.03-.17-.02-.06-.01-.07-.01-.07.04.04.15.03.28-.06.28-.14.34-.19.31-.31,0,0-.01-.07,0-.08-.04-.12-.07-.17-.16-.26-.04-.04-.04-.05-.03-.05.02-.02-.04-.12-.15-.26-.04-.05-.06-.1-.09-.16s-.06-.1-.14-.2c-.08-.09-.15-.19-.19-.23-.11-.14-.27-.4-.32-.51,0,0-.03-.05-.04-.05l-.12-.21c-.09-.16-.12-.21-.14-.2t-.08-.09c-.14-.2-.19-.31-.18-.32,0,0-.02-.06-.06-.11-.06-.11-.43-.65-.46-.7h0s-.04-.05-.07-.1c-.04-.05-.11-.14-.14-.2t-.04-.04s-.05-.04-.06-.03c-.04-.04-.1-.08-.15-.11-.02.01-.05-.04-.09-.08-.03-.05-.06-.1-.21-.22-.13-.13-.28-.09-.34.11-.04.03-.06.12-.1.15-.03.02-.03.1-.05.11-.02.01,0,.07,0,.08s.02.06,0,.07c.02.06-.02.09-.15.12-.12.1-.22.17-.37.36-.12.25-.16.28-.21.32-.47.3-.61.34-.61.34-.05-.03-.21.09-.24.19,0,.07-.02.09-.07.05,0,0-.03.03-.03.1,0,.08-.05.12-.08.14-.02.02-.11.01-.14.03-.02.02-.09,0-.15-.03-.05-.03-.13-.05-.27.07-.1.08-.18.23-.24.27-.06.05-.14.19-.23.27-.15.21-.23.28-.16.37.03.05,0,.08-.05.04-.09-.08-.15.13-.07.22.03.05,0,.07-.03.03-.04-.05-.09,0-.16.06s-.19.08-.22.11c-.36.16-.88.61-.79.78,0,0-.03.03-.06.06-.06-.02-.09.08-.12.11,0,.08,0,.17-.01.17-.02.01-.01.09-.05.12,0,.08-.05.05-.06.06-.05-.04-.11-.06-.13-.04-.03.03-.09,0-.1.01,0,0-.05.04-.05.13q-.04.12-.23.21c-.13.04-.2.1-.2.18-.04.12-.06.14-.12.11-.05.04-.17.32-.17.4.05.2-.02.43-.17.65-.05.04-.05.13-.06.14.03.06.02.06-.05.04-.01.01-.04.04-.05.05.03.06-.01.09-.04.12-.09,0-.05.05.02.15.03.05.1.15.09.16-.02.02.12.22.33.43.08.09.2.22.28.31.08.09.12.13.17.17.06.03.1.07.14.12.04.04.09.08.1.07.05.04.09.08.13.12l.04.04s.06.03.1.07c.08.09.38.3.45.31.07.02.19.07.26.16.04.04.05.04.07.02t.01-.01l.02.06.1.07s.1.07.11.06c0,0,.02-.02.06.02.04.04.25.09.3.04.03-.03.08,0,.14.03.1.07.15.1.16.1.01-.01.04-.04.11-.02.07.02.11-.02.11-.1.03-.03.11-.19.23-.29.19-.17.2-.19.17-.32-.05-.12-.03-.14.04-.2.08-.07.13-.12.4-.12.13-.04.5-.21.66-.35.31-.35.37-.41.39-.5.05-.12.39-.42.56-.48.08-.07.13-.11.19-.16,0-.08.02-.17.07-.21,0-.08.04-.11,0-.16l.04-.03c.11.07.33-.13.38-.24.01-.09.17-.22.27-.23.02-.01.12-.1.24-.19.15-.05.27-.14.33-.11.02-.02.11,0,.18.01.02-.02.14-.03.21-.09.06-.05.15-.05.16-.05,0,0,.04-.03.05-.11.04-.03.12-.09.17-.13.05-.04.09-.07.1-.08-.07-.09-.01-.22.03-.17.04.05.09,0,.06-.05l.02-.02s.13.05.21.06c.04-.03.11-.01.11-.01,0,0,.03-.02.07-.05Z"></path><path class="cls-1" d="m35.26,28.86c-.06.18-.12.18-.18,0-.07-.18.04-.3.16-.31.12.05.13.12.02.31Zm-.56-3.48q.06.12.03.06l-.09-.17.06.12Zm.85,1.9l.02.06c-.02-.06-.03-.13-.03-.13-.02-.06,0,0,.02.06Zm-.89-2.56c-.03.18-.03.17-.15.1-.12-.08-.12-.31-.03-.38.06-.13.21.11.18.28Zm1.37,3.23c.01.07-.05.08-.05.08q-.06,0-.07-.06s-.01-.07.05-.08l.07.06Zm.2.12c-.12.08-.17.02-.14-.12-.02-.14.04-.15.1-.16.13.05.16.2.04.28Zm.66-.07c-.12.01-.19-.05-.18-.36.03-.16.02-.24.11-.09.1.22.14.45.07.45Zm-.12,8.41c.2-.25.55-.86.79-1.26.33-.53.42-.74.39-.93.02-.16.05-.23.05-.23.08-.04.47-.62.88-1.78.79-2.24.74-2.89.69-3.27,0,0-.03-.23-.02-.38-.09-.31-.15-.39-.28-.25-.06.07-.06,0-.06-.08.01-.22-.1-.3-.28-.31-.06,0-.12-.08-.17-.15s-.12-.08-.24-.08c-.12.07-.24.06-.3.06-.18,0-.47-.22-.59-.36,0,0-.06-.07-.06,0,0,0-.12-.07-.24-.2-.18-.13-.24-.19-.24-.06-.06.06-.06.06-.12.06-.24-.06-.36-.18-.36-.31,0,0-.07-.12-.13-.12-.13-.12-.79-.26-.85-.25v-.06s-.06,0-.12,0c-.06,0-.18.01-.24-.04q-.06,0-.06.06c0,.05-.06.11-.05.16-.06.06-.11.16-.17.27,0,.1-.06.11-.12.11-.06-.05-.12-.05-.3.16-.18.1-.24.78-.25,1.6-.04.25-.05.61-.1.8-.04.15-.04.41-.08.51-.03.1,0,.21-.02.26-.02.05.03.12,0,.21.02.11-.06.37-.34.86-.33.69-.62,1.24-1.25,2.14-.69.99-.94,1.12-1.16,1.32-1.07.81-1.85,1.09-2.31,1.26-.46.16-.62.17-.64.19-.11-.02-1.01.21-1.39.3-.19.08-.33.09-.39.04,0,0-.19,0-.38.08-.24.07-.54.06-.68.04-.14,0-.42-.1-.56-.12-.14-.02-.31-.12-.38-.2-.07-.08-.3-.17-.96-.44-.47-.19-.99-.49-1.18-.68-.21-.17-.62-.55-.82-.94-.49-.81-.51-1.32-.64-1.33-.07-.03-.1-.22-.05-.27.1-.06-.07-.88-.17-.9-.06-.05-.05-.2,0-.2.06,0,.07-.34.12-.74.04-.4.23-.93.28-1.13.27-.87.83-2.02,1.46-2.9.63-.88,1.27-1.49,1.31-1.64.04-.03.15-.13.31-.26.16-.03.44-.34.65-.46.18-.18.41-.39.45-.4.09-.04.28-.23.46-.29.2-.15.32-.13.36-.15.07.04.22.06.36.01.18-.06.33-.04.37-.04.05,0,.27-.08.53-.16.24-.06.37-.1.54-.09.17-.01.39,0,.8.08.48.14.78.24,1.05.29.46.13.54.2.63.32.25.09,1.3.81,1.48,1,.44.24,1.22.99,1.64,2.18.09.29.21.56.21.62.08.09.08.14.05.29.03.1.02.25.03.34.06.09.09.34.07.54-.08.29-.01.34.09.46.05.06.15.17.14.23-.03.15.18.36.47.43.12.03.28.13.4.16.11.09.17.04.24,0,.08-.11.14-.1.2-.09s.13-.04.14-.11c.07-.05.13-.04.19-.03h.06c.07-.05.08-.12.14-.11.13.03.56-.43.62-.74.09-.3.19-.68.31-.61.06,0,.06-.08.04-.31-.01-.24-.01-.24,0-.16l.07.23.11-.25c.05-.08.11-.25.09-.33-.01-.08-.04-.24.02-.25.03,0,.05-.25.05-.58-.01-.32-.09-.71-.16-.98-.1-.31-.11-.48-.11-.66.05-.2.04-.38.01-.46-.07-.15-.22-.45-.28-.7-.09-.33-.33-.68-.64-1.07-.19-.27-1.06-1.38-2.12-2.21-1.76-1.3-2.05-1.23-2.53-1.36-.37,0-.6-.12-1.44-.31-.48-.11-.85-.15-1.32-.2-.47-.05-1.04-.11-1.88-.08-.5.02-1.59.2-2.67.62-1.09.4-2.14,1.05-2.8,1.56-1.44,1.19-2.08,2.07-2.5,2.63-.4.57-.56.84-.67,1.09-.21.41-.77,1.39-1.17,2.5-.41,1.1-.67,2.29-.77,2.96-.09.86-.11,1.34-.09,1.99.07.4.19,1.04.29,1.53.13.39.24.8.3.78.02.08.07.24.12.4,0,.17.18.88.57,1.6.38.73.97,1.44,1.32,1.76.24.2.66.6,1.15.95.48.35,1,.67,1.33.86.15.08,1.2.59,2.39.84,1.17.34,2.38.33,2.61.38.24,0,.71.04,1.04.06.24-.01,1.04-.06,1.73-.22.43-.1,1.18-.28,1.24-.3,0,0,.38-.13.79-.36.37-.15,1.08-.48,1.55-.76.48-.27.8-.5.87-.54-.06-.09.72-.74.75-.7.04.05.46-.3.48-.4l.17-.16c.09-.01.49-.28.85-.58.28-.28.57-.55.57-.55.05-.06.21-.24.44-.55Z"></path></g></svg> 