<?xml version="1.0" encoding="UTF-8"?> <svg xmlns="http://www.w3.org/2000/svg" xmlns:xlink="http://www.w3.org/1999/xlink" width="68px" height="50px" viewBox="0 0 68 50" version="1.1"><title>Group 153</title><defs><path d="M25,0 C11.193,0 0,11.193 0,25 L0,25 C0,38.807 11.193,50 25,50 L25,50 L29.839,50 C43.645,50 54.839,38.807 54.839,25 L54.839,25 C54.839,11.193 43.645,0 29.839,0 L29.839,0 L25,0 Z" id="path-1"></path></defs><g id="Design" stroke="none" stroke-width="1" fill="none" fill-rule="evenodd"><g id="Group-114" transform="translate(0, -0)"><g id="Group-3"><mask id="mask-2" fill="white"><use xlink:href="#path-1"></use></mask><g id="Clip-2"></g><polygon id="Fill-1" fill="#91E968" mask="url(#mask-2)" points="-1 51 55.839 51 55.839 -1 -1 -1"></polygon></g><g id="Group-14" transform="translate(15.7149, 1.6895)"><path d="M5.4624311,35.5932311 C5.4624311,35.4652311 5.4024311,35.1782311 5.4024311,34.9862311 C5.4024311,34.7302311 5.4024311,34.6352311 5.2824311,34.5712311 C5.2224311,34.5072311 5.2224311,34.4752311 5.2224311,34.4752311 C5.2824311,34.4432311 5.3424311,34.1552311 5.3424311,33.6442311 C5.4024311,32.6542311 5.4024311,32.3982311 5.2824311,32.2382311 C5.2824311,32.2382311 5.2224311,32.1422311 5.2224311,32.0792311 C5.1024311,31.9512311 5.0424311,31.9192311 4.9224311,31.9832311 C4.8624311,32.0152311 4.8624311,31.9832311 4.8624311,31.9512311 C4.8624311,31.8552311 4.7424311,31.8232311 4.5624311,31.8232311 C4.5024311,31.8232311 4.4424311,31.7912311 4.3824311,31.7592311 C4.3224311,31.7272311 4.2624311,31.7272311 4.1424311,31.7272311 C4.0224311,31.7592311 3.9024311,31.7592311 3.8424311,31.7592311 C3.6624311,31.7592311 3.3624311,31.6632311 3.2424311,31.5992311 C3.2424311,31.5992311 3.1824311,31.5672311 3.1824311,31.5992311 C3.1824311,31.5992311 3.0624311,31.5672311 2.9424311,31.5042311 C2.7624311,31.4402311 2.7024311,31.4082311 2.7024311,31.4722311 C2.6424311,31.5042311 2.6424311,31.5042311 2.5824311,31.5042311 C2.3424311,31.4722311 2.2224311,31.4082311 2.2224311,31.3442311 C2.2224311,31.3442311 2.1624311,31.2802311 2.1024311,31.2802311 C1.9824311,31.2162311 1.3224311,31.1202311 1.2624311,31.1202311 L1.2624311,31.0882311 L1.1424311,31.0882311 C1.0824311,31.0882311 0.962431101,31.0882311 0.902431101,31.0562311 C0.842431101,31.0562311 0.842431101,31.0562311 0.842431101,31.0882311 C0.842431101,31.1202311 0.782431101,31.1522311 0.782431101,31.1842311 C0.722431101,31.2162311 0.662431101,31.2802311 0.602431101,31.3442311 C0.602431101,31.4082311 0.542431101,31.4082311 0.482431101,31.4082311 C0.422431101,31.3762311 0.362431101,31.3762311 0.182431101,31.5042311 C0.00243110129,31.5672311 -0.0575688987,32.0152311 0.0624311013,32.5262311 C0.0624311013,32.6862311 0.122431101,32.9092311 0.122431101,33.0372311 C0.122431101,33.1332311 0.182431101,33.2932311 0.182431101,33.3572311 C0.182431101,33.4212311 0.242431101,33.4842311 0.242431101,33.5162311 C0.242431101,33.5482311 0.302431101,33.5802311 0.302431101,33.6442311 C0.362431101,33.7082311 0.362431101,33.8682311 0.302431101,34.2192311 C0.302431101,34.6982311 0.302431101,35.0822311 0.362431101,35.7852311 C0.482431101,36.5512311 0.482431101,36.7112311 0.482431101,36.9032311 C0.452431101,37.7502311 0.422431101,38.2692311 0.400431101,38.5802311 C0.375431101,38.8572311 0.363431101,39.0032311 0.362431101,39.0122311 C0.302431101,39.0762311 0.302431101,39.6832311 0.362431101,39.9382311 C0.422431101,40.0662311 0.422431101,40.1622311 0.362431101,40.1942311 C0.362431101,40.1942311 0.362431101,40.3222311 0.422431101,40.4492311 C0.482431101,40.6092311 0.482431101,40.8012311 0.482431101,40.8972311 C0.482431101,41.0122311 0.422431101,41.1412311 0.422431101,41.3242311 C0.422431101,41.5002311 0.362431101,41.7402311 0.302431101,41.8692311 C0.242431101,41.9962311 0.182431101,42.3142311 0.182431101,43.3672311 C0.182431101,44.1122311 0.242431101,44.9952311 0.242431101,45.4182311 C0.247431101,45.5732311 0.262431101,45.9792311 0.277431101,46.4142311 C0.693431101,46.4032311 1.0444311,46.3942311 1.2764311,46.3882311 C2.7684311,46.3282311 3.3534311,46.3282311 3.4614311,46.2082311 C3.5444311,46.1482311 3.7724311,46.1482311 3.8104311,46.2082311 C3.8324311,46.3282311 4.9294311,46.2082311 4.9304311,46.0882311 C4.9944311,46.0282311 5.1614311,46.0282311 5.1584311,46.0882311 C5.1564311,46.1182311 5.2554311,46.1332311 5.4134311,46.1412311 C5.5584311,46.1442311 5.6494311,46.1462311 5.7704311,46.1482311 C6.0264311,46.1482311 6.3774311,46.2082311 6.5054311,46.2082311 C7.6554311,46.3282311 9.7324311,46.3282311 9.8924311,46.1482311 L10.1474311,46.1482311 C10.2434311,46.2082311 10.4994311,46.1482311 10.6594311,46.1482311 C10.8184311,46.0882311 11.0104311,46.0282311 11.0424311,46.0282311 C11.1064311,46.0282311 11.2664311,45.9682311 11.3934311,45.9682311 C11.5534311,45.9082311 11.6174311,45.9682311 11.6494311,45.9682311 C11.6814311,46.0282311 11.7774311,46.0882311 11.8734311,46.0882311 C12.0004311,46.0882311 12.0964311,46.1482311 12.1284311,46.1482311 C12.1604311,46.1482311 12.3204311,46.1482311 12.5124311,46.0882311 C12.8634311,46.0282311 12.8634311,46.0282311 13.4704311,46.0882311 C13.8544311,46.1482311 14.1094311,46.1482311 14.3014311,46.0882311 C14.6524311,46.0282311 14.7164311,46.0282311 14.8124311,46.0882311 C15.0044311,46.0882311 15.8664311,45.9682311 16.0264311,45.9082311 C16.3464311,45.7282311 16.9854311,45.6082311 17.7834311,45.5482311 C17.9754311,45.5482311 18.1674311,45.4882311 18.1994311,45.4882311 C18.2634311,45.4282311 18.2954311,45.4282311 18.3904311,45.4882311 L18.6144311,45.4882311 C18.6784311,45.4282311 18.8384311,45.4282311 18.9664311,45.4282311 C19.1574311,45.4882311 19.1894311,45.4282311 19.2534311,45.3082311 C19.2854311,45.2482311 19.3494311,45.1282311 19.3814311,45.1282311 C19.4774311,45.1282311 19.5734311,44.8882311 19.5734311,44.5882311 C19.5824311,44.4682311 19.5954311,44.2882311 19.6054311,44.1682311 C19.6364311,44.0482311 19.6054311,43.9882311 19.5734311,43.9282311 C19.5094311,43.8682311 19.5094311,43.8082311 19.5094311,43.7482311 C19.5094311,43.6882311 19.4774311,43.6282311 19.4454311,43.6282311 C19.4134311,43.5682311 19.4134311,43.5082311 19.4134311,43.4482311 L19.4134311,43.3882311 C19.3814311,43.3282311 19.3494311,43.3282311 19.3494311,43.2682311 C19.3494311,43.1482311 19.1254311,42.7882311 18.9974311,42.7282311 C18.8704311,42.6682311 18.7104311,42.5482311 18.7424311,42.4282311 C18.7424311,42.3682311 18.7104311,42.3682311 18.6144311,42.3682311 L18.5504311,42.3682311 L18.6464311,42.3082311 L18.5504311,42.1882311 C18.5184311,42.1282311 18.4544311,42.0682311 18.4224311,42.0682311 C18.3904311,42.0682311 18.3274311,42.0682311 18.3274311,42.0082311 C18.3274311,41.9482311 17.9434311,41.7682311 17.7194311,41.7682311 C17.5924311,41.7682311 17.5284311,41.7082311 17.4644311,41.6482311 C17.4004311,41.5282311 17.3364311,41.4682311 17.3044311,41.4682311 C17.2404311,41.4682311 17.1124311,41.4682311 17.0174311,41.4082311 C16.8894311,41.3482311 16.7294311,41.3482311 16.5374311,41.4082311 C16.4104311,41.4082311 15.8664311,41.4682311 15.3554311,41.4682311 C14.5254311,41.4682311 14.4614311,41.4682311 14.2694311,41.5882311 C14.1414311,41.7082311 14.0454311,41.7082311 13.7264311,41.7082311 C13.3744311,41.7082311 13.1514311,41.7082311 12.5124311,41.5282311 C12.1284311,41.4682311 10.8504311,41.3482311 10.1794311,41.3482311 C8.6784311,41.4082311 8.3904311,41.4082311 8.1664311,41.4682311 C7.7834311,41.5282311 6.3134311,41.5282311 5.7704311,41.4682311 L5.4194311,41.4682311 C5.3964311,41.5282311 5.3444311,41.5882311 5.3174311,41.5882311 C5.2714311,41.6482311 5.2444311,41.6482311 5.2134311,41.7082311 L5.1854311,41.7082311 C5.2174311,41.6132311 5.1574311,41.5932311 5.0714311,41.6192311 C5.0644311,41.6102311 5.0544311,41.6052311 5.0424311,41.6052311 C4.9824311,41.6262311 4.9824311,41.5002311 5.0424311,41.4282311 L5.0424311,41.2762311 C5.0574311,41.2382311 5.0684311,41.2772311 5.0784311,41.1822311 C5.0874311,41.0632311 5.0954311,40.9622311 5.1024311,40.8652311 C5.1174311,40.6732311 5.1324311,40.5292311 5.1624311,40.4812311 C5.1624311,40.3852311 5.2224311,40.1942311 5.2824311,40.0662311 C5.2824311,39.9702311 5.3424311,39.6512311 5.3424311,39.3632311 C5.3424311,39.1082311 5.4024311,38.8842311 5.4024311,38.8522311 C5.4024311,38.8522311 5.4024311,38.6922311 5.3424311,38.5002311 L5.3424311,37.7982311 L5.3424311,37.3822311 C5.2224311,37.3822311 5.1624311,36.9672311 5.2224311,36.9672311 C5.2824311,36.9672311 5.2824311,36.7432311 5.2224311,36.7112311 L5.2224311,36.6152311 C5.2824311,36.5832311 5.3424311,36.3922311 5.4024311,36.2002311 C5.4024311,36.0402311 5.4624311,35.8812311 5.4624311,35.8812311 L5.4624311,35.5932311 Z M18.4544311,42.4882311 C18.4544311,42.6082311 18.4224311,42.6682311 18.2954311,42.6082311 C18.2314311,42.5482311 18.1994311,42.5482311 18.2634311,42.4882311 C18.3584311,42.4282311 18.4544311,42.4282311 18.4544311,42.4882311 L18.4544311,42.4882311 Z M18.4544311,43.1482311 C18.4864311,43.2682311 18.4544311,43.3282311 18.3904311,43.2682311 C18.3274311,43.2682311 18.3274311,43.2082311 18.3274311,43.1482311 C18.3584311,43.0282311 18.4224311,43.0282311 18.4544311,43.1482311 L18.4544311,43.1482311 Z M18.3904311,43.3282311 C18.4224311,43.3282311 18.4224311,43.3882311 18.4224311,43.3882311 C18.4224311,43.4482311 18.4224311,43.4482311 18.3904311,43.4482311 C18.3904311,43.4482311 18.3584311,43.4482311 18.3584311,43.3882311 L18.3904311,43.3282311 Z M16.7294311,43.5082311 C16.7934311,43.6282311 16.7934311,43.6282311 16.7294311,43.6882311 C16.6654311,43.7482311 16.5694311,43.6282311 16.5694311,43.5082311 C16.5374311,43.3882311 16.6654311,43.3882311 16.7294311,43.5082311 L16.7294311,43.5082311 Z M18.8064311,44.1682311 C18.9024311,44.2282311 18.9024311,44.2882311 18.8064311,44.3482311 C18.7104311,44.4082311 18.6464311,44.2882311 18.6464311,44.1682311 C18.6784311,44.0482311 18.7104311,44.0482311 18.8064311,44.1682311 L18.8064311,44.1682311 Z" id="Fill-4" fill="#020202"></path><path d="M37.5504311,41.2286311 C37.4054311,41.2286311 37.0794311,41.2886311 36.8614311,41.2886311 C36.5724311,41.2886311 36.4634311,41.2886311 36.3904311,41.4086311 C36.3184311,41.4686311 36.2824311,41.4686311 36.2824311,41.4686311 C36.2454311,41.4086311 35.9194311,41.3486311 35.3394311,41.3486311 C34.2164311,41.2886311 33.9264311,41.2886311 33.7454311,41.4086311 C33.7454311,41.4086311 33.6364311,41.4686311 33.5644311,41.4686311 C33.4194311,41.5886311 33.3824311,41.6486311 33.4554311,41.7686311 C33.4914311,41.8286311 33.4554311,41.8286311 33.4194311,41.8286311 C33.3104311,41.8286311 33.2744311,41.9486311 33.2744311,42.1286311 C33.2744311,42.1886311 33.2384311,42.2486311 33.2014311,42.3086311 C33.1654311,42.3686311 33.1654311,42.4286311 33.1654311,42.5486311 C33.2014311,42.6686311 33.2014311,42.7886311 33.2014311,42.8486311 C33.2014311,43.0286311 33.0934311,43.3286311 33.0204311,43.4486311 C33.0204311,43.4486311 32.9844311,43.5086311 33.0204311,43.5086311 C33.0204311,43.5086311 32.9844311,43.6286311 32.9114311,43.7486311 C32.8394311,43.9286311 32.8034311,43.9886311 32.8754311,43.9886311 C32.9114311,44.0486311 32.9114311,44.0486311 32.9114311,44.1086311 C32.8754311,44.3486311 32.8034311,44.4686311 32.7304311,44.4686311 C32.7304311,44.4686311 32.6584311,44.5286311 32.6584311,44.5886311 C32.5854311,44.7086311 32.4774311,45.3686311 32.4774311,45.4286311 L32.4404311,45.4286311 L32.4404311,45.5486311 C32.4404311,45.6086311 32.4404311,45.7286311 32.4044311,45.7886311 C32.4044311,45.8486311 32.4044311,45.8486311 32.4404311,45.8486311 C32.4774311,45.8486311 32.5134311,45.9086311 32.5494311,45.9086311 C32.5854311,45.9686311 32.6584311,46.0286311 32.7304311,46.0886311 C32.8034311,46.0886311 32.8034311,46.1486311 32.8034311,46.2086311 C32.7664311,46.2686311 32.7664311,46.3286311 32.9114311,46.5086311 C32.9844311,46.6886311 33.4914311,46.7486311 34.0714311,46.6286311 C34.2524311,46.6286311 34.5064311,46.5686311 34.6514311,46.5686311 C34.7604311,46.5686311 34.9414311,46.5086311 35.0134311,46.5086311 C35.0864311,46.5086311 35.1584311,46.4486311 35.1944311,46.4486311 C35.2314311,46.4486311 35.2674311,46.3886311 35.3394311,46.3886311 C35.4124311,46.3286311 35.5934311,46.3286311 35.9924311,46.3886311 C36.5354311,46.3886311 36.9704311,46.3886311 37.7674311,46.3286311 C38.6374311,46.2086311 38.8184311,46.2086311 39.0364311,46.2086311 C39.9964311,46.2386311 40.5854311,46.2686311 40.9384311,46.2906311 C41.2564311,46.3156311 41.4164311,46.3276311 41.4284311,46.3286311 C41.5004311,46.3886311 42.1894311,46.3886311 42.4794311,46.3286311 C42.6234311,46.2686311 42.7324311,46.2686311 42.7684311,46.3286311 C42.7684311,46.3286311 42.9134311,46.3286311 43.0584311,46.2686311 C43.2404311,46.2086311 43.4574311,46.2086311 43.5664311,46.2086311 C43.6744311,46.2086311 43.8924311,46.2686311 44.0014311,46.2686311 C44.1094311,46.2686311 44.2544311,46.3286311 44.3274311,46.3886311 C44.3994311,46.4486311 44.5804311,46.5086311 45.1964311,46.5086311 C45.6314311,46.5086311 46.1754311,46.4486311 46.4294311,46.4486311 C46.5844311,46.4436311 46.9364311,46.4316311 47.3434311,46.4186311 C47.8314311,46.4066311 48.2784311,46.3956311 48.5714311,46.3886311 C50.1854311,46.3286311 50.8494311,46.3286311 50.8144311,46.2086311 C50.8294311,46.1486311 51.0884311,46.1486311 51.2104311,46.2086311 C51.2674311,46.2466311 51.4164311,46.2606311 51.5894311,46.2576311 C51.5844311,45.8726311 51.5024311,45.2476311 51.4204311,45.1846311 C51.3604311,45.0716311 51.3604311,44.8816311 51.4204311,44.9266311 C51.4804311,44.9736311 51.4804311,44.5156311 51.4804311,43.9936311 C51.4804311,43.4746311 51.5404311,42.7746311 51.5404311,42.5076311 C51.6004311,41.0146311 51.6304311,40.4306311 51.6224311,39.5876311 C51.6154311,38.8136311 51.5704311,38.1796311 51.4804311,38.0886311 L51.4804311,37.7986311 C51.5404311,37.6896311 51.4804311,37.4006311 51.4804311,37.2186311 C51.4204311,37.0376311 51.3604311,36.8206311 51.3604311,36.7836311 C51.3604311,36.7116311 51.3004311,36.5306311 51.3004311,36.3856311 C51.2404311,36.2046311 51.3004311,36.1316311 51.3004311,36.0956311 C51.3604311,36.0596311 51.4204311,35.9506311 51.4204311,35.8416311 C51.4204311,35.6966311 51.4804311,35.5876311 51.4804311,35.5516311 C51.4804311,35.5156311 51.4804311,35.3346311 51.4204311,35.1166311 C51.3604311,34.7186311 51.3604311,34.7186311 51.4204311,34.0296311 C51.4804311,33.5946311 51.4804311,33.3046311 51.4204311,33.0876311 C51.3604311,32.6886311 51.3604311,32.6166311 51.4204311,32.5076311 C51.4204311,32.2906311 51.3004311,31.3116311 51.2404311,31.1306311 C51.0604311,30.7686311 50.9404311,30.0436311 50.8804311,29.1376311 C50.8804311,28.9206311 50.8204311,28.7026311 50.8204311,28.6666311 C50.7604311,28.5936311 50.7604311,28.5576311 50.8204311,28.4486311 L50.8204311,28.1956311 C50.7604311,28.1226311 50.7604311,27.9416311 50.7604311,27.7966311 C50.8204311,27.5796311 50.7604311,27.5426311 50.6404311,27.4706311 C50.5804311,27.4346311 50.4604311,27.3616311 50.4604311,27.3256311 C50.4604311,27.2166311 50.2204311,27.1086311 49.9204311,27.1086311 C49.8004311,27.1086311 49.6204311,27.0716311 49.5004311,27.0716311 C49.3804311,27.0356311 49.3204311,27.0716311 49.2604311,27.1086311 C49.2004311,27.1806311 49.1404311,27.1806311 49.0804311,27.1806311 C49.0204311,27.1806311 48.9604311,27.2166311 48.9604311,27.2536311 C48.9004311,27.2896311 48.8404311,27.2896311 48.7804311,27.2896311 L48.7204311,27.2896311 C48.6604311,27.3256311 48.6604311,27.3616311 48.6004311,27.3616311 C48.4804311,27.3616311 48.1204311,27.6156311 48.0604311,27.7606311 C48.0004311,27.9056311 47.8804311,28.0866311 47.7604311,28.0506311 C47.7004311,28.0506311 47.7004311,28.0866311 47.7004311,28.1956311 L47.7004311,28.2676311 L47.6404311,28.1586311 L47.5204311,28.2676311 C47.4604311,28.3036311 47.4004311,28.3766311 47.4004311,28.4126311 C47.4004311,28.4486311 47.4004311,28.5216311 47.3404311,28.5216311 C47.2804311,28.5216311 47.1004311,28.9566311 47.1004311,29.2096311 C47.1004311,29.3546311 47.0404311,29.4276311 46.9804311,29.4996311 C46.8604311,29.5726311 46.8004311,29.6446311 46.8004311,29.6816311 C46.8004311,29.7536311 46.8004311,29.8986311 46.7404311,30.0076311 C46.6804311,30.1526311 46.6804311,30.3336311 46.7404311,30.5506311 C46.7404311,30.6956311 46.8004311,31.3116311 46.8004311,31.8916311 C46.8004311,32.8336311 46.8004311,32.9066311 46.9204311,33.1236311 C47.0404311,33.2686311 47.0404311,33.3776311 47.0404311,33.7396311 C47.0404311,34.1386311 47.0404311,34.3926311 46.8604311,35.1166311 C46.8004311,35.5516311 46.6804311,37.0016311 46.6804311,37.7626311 C46.7404311,39.4656311 46.7404311,39.7916311 46.8004311,40.0456311 C46.8154311,40.1546311 46.8264311,40.3396311 46.8344311,40.5666311 C46.8374311,40.7856311 46.8414311,41.0096311 46.8454311,41.2396311 C46.8454311,41.2976311 46.8304311,41.3546311 46.8004311,41.3636311 L46.8004311,41.4426311 C46.8264311,41.4736311 46.8534311,41.5096311 46.8744311,41.5436311 C46.8864311,41.5696311 46.8834311,41.5886311 46.8674311,41.5886311 C46.8944311,41.6486311 46.8634311,41.6486311 46.9064311,41.7086311 L46.8744311,41.7086311 C46.7624311,41.5886311 46.6454311,41.5886311 46.5844311,41.6486311 C46.6454311,41.6786311 46.3364311,41.6936311 46.0934311,41.6936311 C45.8404311,41.6936311 45.5774311,41.6786311 45.4144311,41.6486311 L44.2914311,41.6486311 C43.7474311,41.5886311 43.2034311,41.5886311 43.0954311,41.5286311 C42.9864311,41.5286311 42.7684311,41.4686311 42.6234311,41.4086311 C42.5154311,41.4086311 42.1524311,41.3486311 41.8264311,41.3486311 C41.5364311,41.3486311 41.2834311,41.2886311 41.2464311,41.2886311 C41.2464311,41.2886311 41.0654311,41.2886311 40.8484311,41.3486311 L40.0514311,41.3486311 L39.5794311,41.3486311 C39.5794311,41.4686311 39.1084311,41.5286311 39.1084311,41.4686311 C39.1084311,41.4086311 38.8554311,41.4086311 38.8184311,41.4686311 L38.7104311,41.4686311 C38.6734311,41.4086311 38.4564311,41.3486311 38.2394311,41.2886311 C38.0574311,41.2886311 37.8764311,41.2286311 37.8764311,41.2286311 L37.5504311,41.2286311 Z M47.8204311,28.3766311 C47.9404311,28.3766311 48.0004311,28.4126311 47.9404311,28.5576311 C47.8804311,28.6306311 47.8804311,28.6666311 47.8204311,28.5936311 C47.7604311,28.4856311 47.7604311,28.3766311 47.8204311,28.3766311 L47.8204311,28.3766311 Z M48.4804311,28.3766311 C48.6004311,28.3406311 48.6604311,28.3766311 48.6004311,28.4486311 C48.6004311,28.5216311 48.5404311,28.5216311 48.4804311,28.5216311 C48.3604311,28.4856311 48.3604311,28.4126311 48.4804311,28.3766311 L48.4804311,28.3766311 Z M48.6604311,28.4486311 C48.6604311,28.4126311 48.7204311,28.4126311 48.7204311,28.4126311 C48.7804311,28.4126311 48.7804311,28.4126311 48.7804311,28.4486311 C48.7804311,28.4486311 48.7804311,28.4856311 48.7204311,28.4856311 L48.6604311,28.4486311 Z M48.8404311,30.3336311 C48.9604311,30.2606311 48.9604311,30.2606311 49.0204311,30.3336311 C49.0804311,30.4056311 48.9604311,30.5146311 48.8404311,30.5146311 C48.7204311,30.5506311 48.7204311,30.4056311 48.8404311,30.3336311 L48.8404311,30.3336311 Z M49.1404311,30.0076311 L49.1404311,29.9706311 L49.1404311,30.0796311 L49.1404311,30.0076311 Z M49.5004311,27.9776311 C49.5604311,27.8696311 49.6204311,27.8696311 49.6804311,27.9776311 C49.7404311,28.0866311 49.6204311,28.1586311 49.5004311,28.1586311 C49.3804311,28.1226311 49.3804311,28.0866311 49.5004311,27.9776311 L49.5004311,27.9776311 Z" id="Fill-6" fill="#020202"></path><path d="M46.5602311,9.9156311 C46.5602311,10.0266311 46.6202311,10.2746311 46.6202311,10.4406311 C46.6202311,10.6616311 46.6202311,10.7446311 46.7402311,10.8006311 C46.8002311,10.8556311 46.8002311,10.8836311 46.8002311,10.8836311 C46.7402311,10.9106311 46.6802311,11.1596311 46.6802311,11.6016311 C46.6202311,12.4586311 46.6202311,12.6796311 46.7402311,12.8186311 C46.7402311,12.8186311 46.8002311,12.9006311 46.8002311,12.9566311 C46.9202311,13.0666311 46.9802311,13.0946311 47.1002311,13.0396311 C47.1602311,13.0116311 47.1602311,13.0396311 47.1602311,13.0666311 C47.1602311,13.1496311 47.2802311,13.1776311 47.4602311,13.1776311 C47.5202311,13.1776311 47.5802311,13.2056311 47.6402311,13.2326311 C47.7002311,13.2606311 47.7602311,13.2606311 47.8802311,13.2606311 C48.0002311,13.2326311 48.1202311,13.2326311 48.1802311,13.2326311 C48.3602311,13.2326311 48.6602311,13.3156311 48.7802311,13.3706311 C48.7802311,13.3706311 48.8402311,13.3986311 48.8402311,13.3706311 C48.8402311,13.3706311 48.9602311,13.3986311 49.0802311,13.4536311 C49.2602311,13.5096311 49.3202311,13.5366311 49.3202311,13.4816311 C49.3802311,13.4536311 49.3802311,13.4536311 49.4402311,13.4536311 C49.6802311,13.4816311 49.8002311,13.5366311 49.8002311,13.5926311 C49.8002311,13.5926311 49.8602311,13.6476311 49.9202311,13.6476311 C50.0402311,13.7026311 50.7002311,13.7856311 50.7602311,13.7856311 L50.7602311,13.8136311 L50.8802311,13.8136311 C50.9402311,13.8136311 51.0602311,13.8136311 51.1202311,13.8406311 C51.1802311,13.8406311 51.1802311,13.8406311 51.1802311,13.8136311 C51.1802311,13.7856311 51.2402311,13.7576311 51.2402311,13.7306311 C51.3002311,13.7026311 51.3602311,13.6476311 51.4202311,13.5926311 C51.4202311,13.5366311 51.4802311,13.5366311 51.5402311,13.5366311 C51.6002311,13.5646311 51.6602311,13.5646311 51.8402311,13.4536311 C52.0202311,13.3986311 52.0802311,13.0116311 51.9602311,12.5696311 C51.9602311,12.4316311 51.9002311,12.2376311 51.9002311,12.1266311 C51.9002311,12.0446311 51.8402311,11.9056311 51.8402311,11.8506311 C51.8402311,11.7956311 51.7802311,11.7396311 51.7802311,11.7126311 C51.7802311,11.6846311 51.7202311,11.6576311 51.7202311,11.6016311 C51.6602311,11.5466311 51.6602311,11.4086311 51.7202311,11.1046311 C51.7202311,10.6896311 51.7202311,10.3576311 51.6602311,9.7496311 C51.5402311,9.0866311 51.5402311,8.9476311 51.5402311,8.7826311 C51.5702311,8.0496311 51.6002311,7.6006311 51.6222311,7.3306311 C51.6462311,7.0946311 51.6592311,6.9646311 51.6602311,6.9576311 C51.7202311,6.9026311 51.7202311,6.3776311 51.6602311,6.1566311 C51.6002311,6.0456311 51.6002311,5.9626311 51.6602311,5.9346311 C51.6602311,5.9346311 51.6602311,5.8246311 51.6002311,5.7136311 C51.5702311,5.6446311 51.5552311,5.5686311 51.5482311,5.4996311 C51.5402311,5.4346311 51.5402311,5.2776311 51.5402311,5.2156311 C51.5402311,5.0656311 51.6002311,4.7546311 51.6002311,4.6006311 C51.6002311,4.4476311 51.6602311,4.2306311 51.7202311,4.1096311 C51.7802311,3.9906311 51.8402311,3.7066311 51.8402311,2.7956311 C51.8402311,2.1506311 51.7802311,1.3966311 51.7802311,1.0296311 C51.7762311,0.917631101 51.7642311,0.619631101 51.7502311,0.271631101 C51.4192311,0.286631101 51.0642311,0.302631101 50.7752311,0.302631101 C49.4772311,0.362631101 48.9712311,0.362631101 48.8642311,0.482631101 C48.7852311,0.542631101 48.5882311,0.542631101 48.5612311,0.482631101 C48.5562311,0.362631101 47.5932311,0.482631101 47.5782311,0.602631101 C47.5172311,0.662631101 47.3722311,0.662631101 47.3822311,0.602631101 C47.3932311,0.542631101 47.0432311,0.542631101 46.6452311,0.542631101 C46.3482311,0.542631101 46.0992311,0.482631101 45.9712311,0.482631101 C44.9762311,0.362631101 43.1792311,0.362631101 43.0412311,0.542631101 L42.8202311,0.542631101 C42.7372311,0.482631101 42.5162311,0.542631101 42.3782311,0.542631101 C42.2402311,0.602631101 42.0742311,0.662631101 42.0462311,0.662631101 C41.9912311,0.662631101 41.8532311,0.722631101 41.7422311,0.722631101 C41.6042311,0.782631101 41.5482311,0.722631101 41.5212311,0.722631101 C41.4932311,0.662631101 41.4102311,0.602631101 41.3272311,0.602631101 C41.2172311,0.602631101 41.1342311,0.542631101 41.1062311,0.542631101 C41.0792311,0.542631101 40.9402311,0.542631101 40.7742311,0.602631101 C40.4702311,0.662631101 40.4702311,0.662631101 39.9452311,0.602631101 C39.6132311,0.542631101 39.3922311,0.542631101 39.2262311,0.602631101 C38.9222311,0.662631101 38.8672311,0.662631101 38.7842311,0.602631101 C38.6182311,0.602631101 37.8722311,0.722631101 37.7342311,0.782631101 C37.4572311,0.962631101 36.9042311,1.0826311 36.2132311,1.1426311 C36.0472311,1.1426311 35.8822311,1.2026311 35.8542311,1.2026311 C35.7992311,1.2626311 35.7712311,1.2626311 35.6882311,1.2026311 L35.4952311,1.2026311 C35.4392311,1.2626311 35.3012311,1.2626311 35.1912311,1.2626311 C35.0252311,1.2026311 34.9972311,1.2626311 34.9422311,1.3826311 C34.9142311,1.4426311 34.8592311,1.5626311 34.8312311,1.5626311 C34.7482311,1.5626311 34.6652311,1.8026311 34.6652311,2.1026311 C34.6572311,2.2226311 34.6462311,2.4026311 34.6382311,2.5226311 C34.6102311,2.6426311 34.6382311,2.7026311 34.6652311,2.7626311 C34.7212311,2.8226311 34.7212311,2.8826311 34.7212311,2.9426311 C34.7212311,3.0026311 34.7482311,3.0626311 34.7762311,3.0626311 C34.8042311,3.1226311 34.8042311,3.1826311 34.8042311,3.2426311 L34.8042311,3.3026311 C34.8312311,3.3626311 34.8592311,3.3626311 34.8592311,3.4226311 C34.8592311,3.5426311 35.0522311,3.9026311 35.1632311,3.9626311 C35.2732311,4.0226311 35.4122311,4.1426311 35.3842311,4.2626311 C35.3842311,4.3226311 35.4122311,4.3226311 35.4952311,4.3226311 L35.5502311,4.3226311 L35.4672311,4.3826311 L35.5502311,4.5026311 C35.5782311,4.5626311 35.6332311,4.6226311 35.6602311,4.6226311 C35.6882311,4.6226311 35.7432311,4.6226311 35.7432311,4.6826311 C35.7432311,4.7426311 36.0752311,4.9226311 36.2692311,4.9226311 C36.3792311,4.9226311 36.4342311,4.9826311 36.4902311,5.0426311 C36.5452311,5.1626311 36.6002311,5.2226311 36.6282311,5.2226311 C36.6832311,5.2226311 36.7942311,5.2226311 36.8772311,5.2826311 C36.9872311,5.3426311 37.1262311,5.3426311 37.2912311,5.2826311 C37.4022311,5.2826311 37.8722311,5.2226311 38.3142311,5.2226311 C39.0332311,5.2226311 39.0882311,5.2226311 39.2542311,5.1026311 C39.3652311,4.9826311 39.4482311,4.9826311 39.7242311,4.9826311 C40.0282311,4.9826311 40.2222311,4.9826311 40.7742311,5.1626311 C41.1062311,5.2226311 42.2122311,5.3426311 42.7922311,5.3426311 C44.0922311,5.2826311 44.3402311,5.2826311 44.5342311,5.2226311 C44.8462311,5.1626311 46.1802311,5.1626311 46.5642311,5.2226311 L46.6252311,5.2226311 C46.6522311,5.1626311 46.7032311,5.1026311 46.7272311,5.1026311 C46.7732311,5.0426311 46.7972311,5.0426311 46.8312311,4.9826311 L46.8552311,4.9826311 C46.8142311,5.0826311 46.8712311,5.0986311 46.9552311,5.0666311 C46.9622311,5.0716311 46.9702311,5.0736311 46.9802311,5.0716311 C47.0402311,5.0436311 47.0402311,5.1536311 46.9802311,5.2246311 L46.9802311,5.3566311 C46.9522311,5.3996311 46.9362311,5.4246311 46.9202311,5.4476311 C46.9162311,5.4566311 46.9132311,5.4516311 46.9092311,5.4706311 C46.9042311,5.5016311 46.9002311,5.5326311 46.8962311,5.5666311 C46.8862311,5.6236311 46.8752311,5.6656311 46.8602311,5.6866311 C46.8602311,5.7696311 46.8002311,5.9346311 46.7402311,6.0456311 C46.7402311,6.1286311 46.6802311,6.4046311 46.6802311,6.6536311 C46.6802311,6.8746311 46.6202311,7.0686311 46.6202311,7.0956311 C46.6202311,7.0956311 46.6202311,7.2346311 46.6802311,7.3996311 L46.6802311,8.0086311 L46.6802311,8.3676311 C46.8002311,8.3676311 46.8602311,8.7266311 46.8002311,8.7266311 C46.7402311,8.7266311 46.7402311,8.9206311 46.8002311,8.9476311 L46.8002311,9.0306311 C46.7402311,9.0586311 46.6802311,9.2246311 46.6202311,9.3906311 C46.6202311,9.5286311 46.5602311,9.6666311 46.5602311,9.6666311 L46.5602311,9.9156311 Z M35.6332311,4.2026311 C35.6332311,4.0826311 35.6602311,4.0226311 35.7712311,4.0826311 C35.8262311,4.1426311 35.8542311,4.1426311 35.7992311,4.2026311 C35.7162311,4.2626311 35.6332311,4.2626311 35.6332311,4.2026311 L35.6332311,4.2026311 Z M35.6332311,3.5426311 C35.6052311,3.4226311 35.6332311,3.3626311 35.6882311,3.4226311 C35.7432311,3.4226311 35.7432311,3.4826311 35.7432311,3.5426311 C35.7162311,3.6626311 35.6602311,3.6626311 35.6332311,3.5426311 L35.6332311,3.5426311 Z M35.6882311,3.3626311 C35.6602311,3.3626311 35.6602311,3.3026311 35.6602311,3.3026311 C35.6602311,3.2426311 35.6602311,3.2426311 35.6882311,3.2426311 C35.6882311,3.2426311 35.7162311,3.2426311 35.7162311,3.3026311 L35.6882311,3.3626311 Z M37.1262311,3.1826311 C37.0702311,3.0626311 37.0702311,3.0626311 37.1262311,3.0026311 C37.1812311,2.9426311 37.2642311,3.0626311 37.2642311,3.1826311 C37.2912311,3.3026311 37.1812311,3.3026311 37.1262311,3.1826311 L37.1262311,3.1826311 Z M35.3292311,2.5226311 C35.2462311,2.4626311 35.2462311,2.4026311 35.3292311,2.3426311 C35.4122311,2.2826311 35.4672311,2.4026311 35.4672311,2.5226311 C35.4392311,2.6426311 35.4122311,2.6426311 35.3292311,2.5226311 L35.3292311,2.5226311 Z" id="Fill-8" fill="#020202"></path><path d="M13.0648311,5.4624311 C13.1868311,5.4624311 13.4618311,5.4024311 13.6448311,5.4024311 C13.8888311,5.4024311 13.9798311,5.4024311 14.0408311,5.2824311 C14.1018311,5.2224311 14.1328311,5.2224311 14.1328311,5.2224311 C14.1628311,5.2824311 14.4378311,5.3424311 14.9258311,5.3424311 C15.8708311,5.4024311 16.1148311,5.4024311 16.2678311,5.2824311 C16.2678311,5.2824311 16.3588311,5.2224311 16.4198311,5.2224311 C16.5418311,5.1024311 16.5728311,5.0424311 16.5118311,4.9224311 C16.4808311,4.8624311 16.5118311,4.8624311 16.5418311,4.8624311 C16.6338311,4.8624311 16.6638311,4.7424311 16.6638311,4.5624311 C16.6638311,4.5024311 16.6948311,4.4424311 16.7248311,4.3824311 C16.7558311,4.3224311 16.7558311,4.2624311 16.7558311,4.1424311 C16.7248311,4.0224311 16.7248311,3.9024311 16.7248311,3.8424311 C16.7248311,3.6624311 16.8168311,3.3624311 16.8778311,3.2424311 C16.8778311,3.2424311 16.9078311,3.1824311 16.8778311,3.1824311 C16.8778311,3.1824311 16.9078311,3.0624311 16.9688311,2.9424311 C17.0298311,2.7624311 17.0608311,2.7024311 16.9998311,2.7024311 C16.9688311,2.6424311 16.9688311,2.6424311 16.9688311,2.5824311 C16.9998311,2.3424311 17.0608311,2.2224311 17.1218311,2.2224311 C17.1218311,2.2224311 17.1828311,2.1624311 17.1828311,2.1024311 C17.2438311,1.9824311 17.3348311,1.3224311 17.3348311,1.2624311 L17.3658311,1.2624311 L17.3658311,1.1424311 C17.3658311,1.0824311 17.3658311,0.962431101 17.3958311,0.902431101 C17.3958311,0.842431101 17.3958311,0.842431101 17.3658311,0.842431101 C17.3348311,0.842431101 17.3048311,0.782431101 17.2738311,0.782431101 C17.2438311,0.722431101 17.1828311,0.662431101 17.1218311,0.602431101 C17.0608311,0.602431101 17.0608311,0.542431101 17.0608311,0.482431101 C17.0908311,0.422431101 17.0908311,0.362431101 16.9688311,0.182431101 C16.9078311,0.00243110129 16.4808311,-0.0575688987 15.9928311,0.0624311013 C15.8408311,0.0624311013 15.6268311,0.122431101 15.5048311,0.122431101 C15.4138311,0.122431101 15.2608311,0.182431101 15.1998311,0.182431101 C15.1388311,0.182431101 15.0778311,0.242431101 15.0478311,0.242431101 C15.0168311,0.242431101 14.9868311,0.302431101 14.9258311,0.302431101 C14.8648311,0.362431101 14.7118311,0.362431101 14.3768311,0.302431101 C13.9188311,0.302431101 13.5528311,0.302431101 12.8818311,0.362431101 C12.1498311,0.482431101 11.9968311,0.482431101 11.8138311,0.482431101 C11.0058311,0.452431101 10.5098311,0.422431101 10.2128311,0.400431101 C9.9498311,0.375431101 9.8098311,0.363431101 9.8008311,0.362431101 C9.7398311,0.302431101 9.1608311,0.302431101 8.9168311,0.362431101 C8.7948311,0.422431101 8.7028311,0.422431101 8.6728311,0.362431101 C8.6728311,0.362431101 8.5508311,0.362431101 8.4288311,0.422431101 C8.2758311,0.482431101 8.0928311,0.482431101 8.0018311,0.482431101 C7.9098311,0.482431101 7.7268311,0.422431101 7.6348311,0.422431101 C7.5438311,0.422431101 7.4218311,0.362431101 7.3608311,0.302431101 C7.2998311,0.242431101 7.1468311,0.182431101 6.6288311,0.182431101 C6.2628311,0.182431101 5.8048311,0.242431101 5.5918311,0.242431101 C5.4738311,0.247431101 5.1798311,0.258431101 4.8388311,0.272431101 C4.4918311,0.287431101 4.1218311,0.302431101 3.8048311,0.302431101 C2.4468311,0.362431101 1.8878311,0.362431101 1.9158311,0.482431101 C1.9028311,0.542431101 1.6848311,0.542431101 1.5828311,0.482431101 C1.4298311,0.362431101 0.513831101,0.482431101 0.644831101,0.602431101 C0.645831101,0.614431101 0.639831101,0.623431101 0.630831101,0.630431101 C0.659831101,0.728431101 0.650831101,0.823431101 0.602831101,0.777431101 C0.542831101,0.718431101 0.542831101,1.1044311 0.542831101,1.5434311 C0.542831101,1.9804311 0.482831101,2.5504311 0.482831101,2.7754311 C0.452831101,3.2594311 0.429831101,3.8584311 0.415831101,4.4894311 C0.409831101,5.0514311 0.404831101,5.5104311 0.399831101,5.9594311 C0.407831101,6.6114311 0.452831101,7.1454311 0.542831101,7.2224311 L0.542831101,7.4664311 C0.482831101,7.5574311 0.542831101,7.8014311 0.542831101,7.9544311 C0.602831101,8.1064311 0.662831101,8.2894311 0.662831101,8.3204311 C0.662831101,8.3814311 0.722831101,8.5334311 0.722831101,8.6554311 C0.782831101,8.8084311 0.722831101,8.8694311 0.722831101,8.8994311 C0.662831101,8.9304311 0.602831101,9.0214311 0.602831101,9.1134311 C0.602831101,9.2354311 0.542831101,9.3264311 0.542831101,9.3574311 C0.542831101,9.3874311 0.542831101,9.5404311 0.602831101,9.7234311 C0.662831101,10.0584311 0.662831101,10.0584311 0.602831101,10.6384311 C0.542831101,11.0044311 0.542831101,11.2484311 0.602831101,11.4314311 C0.662831101,11.7664311 0.662831101,11.8274311 0.602831101,11.9194311 C0.602831101,12.1024311 0.722831101,12.9264311 0.782831101,13.0784311 C0.962831101,13.3834311 1.0828311,13.9934311 1.1428311,14.7564311 C1.1428311,14.9394311 1.2028311,15.1224311 1.2028311,15.1524311 C1.2628311,15.2134311 1.2628311,15.2444311 1.2028311,15.3354311 L1.2028311,15.5494311 C1.2628311,15.6104311 1.2628311,15.7624311 1.2628311,15.8844311 C1.2028311,16.0674311 1.2628311,16.0984311 1.3828311,16.1594311 C1.4428311,16.1894311 1.5628311,16.2504311 1.5628311,16.2814311 C1.5628311,16.3724311 1.8028311,16.4644311 2.1028311,16.4644311 C2.2228311,16.4724311 2.4028311,16.4864311 2.5228311,16.4944311 C2.6428311,16.5254311 2.7028311,16.4944311 2.7628311,16.4644311 C2.8228311,16.4034311 2.8828311,16.4034311 2.9428311,16.4034311 C3.0028311,16.4034311 3.0628311,16.3724311 3.0628311,16.3424311 C3.1228311,16.3114311 3.1828311,16.3114311 3.2428311,16.3114311 L3.3028311,16.3114311 C3.3628311,16.2814311 3.3628311,16.2504311 3.4228311,16.2504311 C3.5428311,16.2504311 3.9028311,16.0374311 3.9628311,15.9154311 C4.0228311,15.7934311 4.1428311,15.6404311 4.2628311,15.6714311 C4.3228311,15.6714311 4.3228311,15.6404311 4.3228311,15.5494311 L4.3228311,15.4884311 L4.3828311,15.5794311 L4.5028311,15.4884311 C4.5628311,15.4574311 4.6228311,15.3964311 4.6228311,15.3664311 C4.6228311,15.3354311 4.6228311,15.2744311 4.6828311,15.2744311 C4.7428311,15.2744311 4.9228311,14.9084311 4.9228311,14.6954311 C4.9228311,14.5734311 4.9828311,14.5124311 5.0428311,14.4514311 C5.1628311,14.3904311 5.2228311,14.3294311 5.2228311,14.2984311 C5.2228311,14.2374311 5.2228311,14.1154311 5.2828311,14.0244311 C5.3428311,13.9024311 5.3428311,13.7494311 5.2828311,13.5664311 C5.2828311,13.4444311 5.2228311,12.9264311 5.2228311,12.4374311 C5.2228311,11.6444311 5.2228311,11.5834311 5.1028311,11.4004311 C4.9828311,11.2784311 4.9828311,11.1874311 4.9828311,10.8824311 C4.9828311,10.5464311 4.9828311,10.3334311 5.1628311,9.7234311 C5.2228311,9.3574311 5.3428311,8.1374311 5.3428311,7.4964311 C5.2828311,6.0624311 5.2828311,5.7884311 5.2228311,5.5744311 C5.2078311,5.4274311 5.1958311,5.4564311 5.1888311,5.4294311 C5.1808311,5.4094311 5.1778311,5.3844311 5.1778311,5.3604311 C5.1778311,5.3124311 5.1928311,5.2694311 5.2228311,5.2714311 L5.2228311,5.2224311 L5.2408311,5.2224311 C5.1968311,5.1624311 5.1808311,5.1024311 5.2058311,5.1024311 C5.1838311,5.0424311 5.2108311,5.0424311 5.1738311,4.9824311 L5.2008311,4.9824311 C5.2948311,5.1024311 5.3938311,5.1024311 5.4448311,5.0424311 C5.3898311,5.0124311 5.6838311,4.9974311 5.8738311,4.9974311 C6.0868311,4.9974311 6.3088311,5.0124311 6.4458311,5.0424311 L7.3908311,5.0424311 C7.8488311,5.1024311 8.3068311,5.1024311 8.3978311,5.1624311 C8.4898311,5.1624311 8.6728311,5.2224311 8.7948311,5.2824311 C8.8858311,5.2824311 9.1908311,5.3424311 9.4658311,5.3424311 C9.7098311,5.3424311 9.9228311,5.4024311 9.9538311,5.4024311 C9.9538311,5.4024311 10.1058311,5.4024311 10.2888311,5.3424311 L10.9598311,5.3424311 L11.3568311,5.3424311 C11.3568311,5.2224311 11.7528311,5.1624311 11.7528311,5.2224311 C11.7528311,5.2824311 11.9668311,5.2824311 11.9968311,5.2224311 L12.0888311,5.2224311 C12.1188311,5.2824311 12.3018311,5.3424311 12.4848311,5.4024311 C12.6378311,5.4024311 12.7898311,5.4624311 12.7898311,5.4624311 L13.0648311,5.4624311 Z M4.2028311,15.3964311 C4.0828311,15.3964311 4.0228311,15.3664311 4.0828311,15.2444311 C4.1428311,15.1834311 4.1428311,15.1524311 4.2028311,15.2134311 C4.2628311,15.3054311 4.2628311,15.3964311 4.2028311,15.3964311 L4.2028311,15.3964311 Z M3.5428311,15.3964311 C3.4228311,15.4274311 3.3628311,15.3964311 3.4228311,15.3354311 C3.4228311,15.2744311 3.4828311,15.2744311 3.5428311,15.2744311 C3.6628311,15.3054311 3.6628311,15.3664311 3.5428311,15.3964311 L3.5428311,15.3964311 Z M3.3628311,15.3354311 C3.3628311,15.3664311 3.3028311,15.3664311 3.3028311,15.3664311 C3.2428311,15.3664311 3.2428311,15.3664311 3.2428311,15.3354311 C3.2428311,15.3354311 3.2428311,15.3054311 3.3028311,15.3054311 L3.3628311,15.3354311 Z M3.1828311,13.7494311 C3.0628311,13.8104311 3.0628311,13.8104311 3.0028311,13.7494311 C2.9428311,13.6884311 3.0628311,13.5974311 3.1828311,13.5974311 C3.3028311,13.5664311 3.3028311,13.6884311 3.1828311,13.7494311 L3.1828311,13.7494311 Z M2.5228311,15.7324311 C2.4628311,15.8234311 2.4028311,15.8234311 2.3428311,15.7324311 C2.2828311,15.6404311 2.4028311,15.5794311 2.5228311,15.5794311 C2.6428311,15.6104311 2.6428311,15.6404311 2.5228311,15.7324311 L2.5228311,15.7324311 Z" id="Fill-10" fill="#020202"></path><path d="M33.9451311,32.7130311 L36.1141311,32.7670311 C36.4331311,32.7670311 36.5401311,32.7370311 36.5441311,32.7360311 C36.6071311,32.7090311 36.6771311,32.6740311 36.7431311,32.6340311 L36.6291311,31.9660311 C36.5601311,31.6540311 36.4611311,31.2230311 36.3221311,30.6970311 C35.7831311,28.8400311 35.3121311,27.9450311 34.6341311,26.9510311 C34.1171311,26.1920311 33.8681311,26.0080311 33.8651311,26.0060311 L33.7411311,25.9080311 C33.7091311,25.8780311 33.6831311,25.8620311 33.6611311,25.8470311 C33.5841311,25.7920311 33.5211311,25.7430311 33.4631311,25.6880311 C33.4391311,25.6690311 33.0691311,25.4130311 33.0691311,25.4130311 C32.9341311,25.3140311 32.7431311,25.1710311 32.6001311,25.0970311 L32.4701311,25.0200311 C32.3431311,24.9420311 32.1841311,24.8460311 32.0151311,24.7540311 C31.8271311,24.6710311 31.5761311,24.5540311 31.3701311,24.4490311 C30.7391311,24.1850311 30.0441311,23.9830311 29.5371311,23.8360311 C29.0511311,23.6950311 28.7761311,23.6150311 28.5691311,23.4800311 C28.4341311,23.4090311 28.2751311,23.3200311 28.1391311,23.1970311 C28.0491311,23.1650311 27.9651311,23.1340311 27.8951311,23.1050311 C27.8491311,23.0930311 27.8031311,23.0790311 27.7571311,23.0640311 C26.9941311,22.9350311 26.8621311,22.3090311 26.8991311,21.9950311 L26.9811311,21.3020311 L27.0791311,21.2860311 L27.1201311,20.9330311 L27.7311311,20.9890311 C27.9011311,20.8760311 28.0781311,20.7910311 28.2261311,20.7380311 C28.3061311,20.7040311 28.3981311,20.6770311 28.5031311,20.6600311 C28.5701311,20.6030311 28.6521311,20.5490311 28.7511311,20.5030311 L28.7631311,20.3510311 L29.4191311,20.2970311 C29.5761311,20.0430311 29.8311311,19.8780311 30.1491311,19.8310311 C30.1991311,19.8030311 30.2521311,19.7800311 30.3081311,19.7610311 L30.3191311,19.7250311 L29.8861311,19.7250311 L29.5701311,19.2290311 L29.3071311,18.7520311 L29.4621311,18.4880311 C29.4371311,18.1520311 29.5601311,17.7210311 30.1181311,17.2760311 C30.2321311,17.0390311 30.3581311,16.9050311 30.5421311,16.7100311 L30.7281311,16.5110311 C30.7461311,16.4880311 30.7821311,16.4240311 30.8201311,16.3630311 L30.8881311,16.2600311 C30.9241311,16.1820311 30.9551311,16.1140311 30.9711311,16.0650311 L31.0131311,15.9540311 C31.0611311,15.8370311 31.1291311,15.6780311 31.1581311,15.5630311 L31.1711311,15.5130311 L31.1891311,15.4640311 C31.2221311,15.3760311 31.2401311,15.3320311 31.2511311,15.2930311 L31.2431311,15.1990311 L31.2451311,15.1850311 C31.2551311,15.1080311 31.2991311,14.7080311 31.2461311,14.3500311 C31.1991311,13.9890311 31.0831311,13.6570311 30.9101311,13.3780311 C30.7701311,13.1530311 30.5731311,12.9800311 30.2811311,12.7570311 C29.7691311,12.3880311 29.2571311,12.2100311 28.9211311,12.1290311 C28.6501311,12.0550311 28.0701311,11.8930311 27.4681311,11.8470311 C27.2511311,11.8270311 27.0481311,11.8200311 26.8581311,11.8200311 C26.4541311,11.8200311 26.1041311,11.8520311 25.9601311,11.8710311 L25.8961311,11.8790311 C25.8961311,11.8790311 25.8231311,11.8780311 25.8201311,11.8780311 C25.7201311,11.8780311 25.6621311,11.8820311 25.5721311,11.8990311 C25.4011311,11.9250311 25.2031311,11.9650311 24.8121311,12.1050311 C24.3541311,12.2910311 23.7711311,12.5270311 22.9201311,13.0490311 C22.2871311,13.4560311 21.9881311,13.7140311 21.7471311,13.9210311 C21.5491311,14.1030311 21.4551311,14.1950311 21.2541311,14.4890311 C21.1431311,14.6650311 21.0281311,14.8880311 20.9311311,15.1260311 C20.9271311,15.1390311 20.9041311,15.1940311 20.8711311,15.2630311 C20.8371311,15.3360311 20.7941311,15.4270311 20.7741311,15.5330311 L20.7471311,15.6620311 C20.7181311,15.8030311 20.6931311,15.9210311 20.6631311,16.0270311 C20.6631311,16.0550311 20.6681311,16.0880311 20.6871311,16.1530311 C20.7141311,16.2760311 20.7621311,16.4160311 20.8981311,16.6370311 L20.9271311,16.6860311 C20.9861311,16.7670311 21.1581311,16.9830311 21.3531311,17.1610311 L21.4191311,17.2270311 C21.5551311,17.3780311 21.7741311,17.5730311 21.9741311,17.7550311 C22.1941311,17.9540311 22.3951311,18.1410311 22.5051311,18.2620311 L22.8331311,18.5570311 C22.9951311,18.7060311 23.1311311,18.8410311 23.2081311,18.9190311 C23.3461311,19.0410311 23.6861311,19.3530311 24.0871311,19.8470311 C24.2901311,20.1120311 24.4901311,20.3980311 24.7101311,20.7240311 L25.0451311,21.2260311 C25.1721311,21.4150311 25.3341311,21.6560311 25.4381311,21.8900311 L25.8291311,22.7710311 L23.3031311,23.7640311 L21.9081311,24.3700311 L21.8501311,24.4020311 C21.1791311,24.7700311 20.6521311,25.1030311 20.1911311,25.4490311 C19.2011311,26.1730311 18.2201311,27.1260311 17.4901311,28.0710311 C17.2721311,28.3300311 16.7291311,29.0990311 16.4211311,29.6970311 C16.3141311,29.8910311 16.2381311,30.0630311 16.1701311,30.2150311 C16.1131311,30.3420311 16.0601311,30.4590311 16.0101311,30.5580311 C15.9761311,30.6270311 15.9461311,30.6990311 15.9251311,30.7510311 C15.8871311,30.8410311 15.8451311,30.9230311 15.7981311,30.9960311 C15.7891311,31.1020311 15.7681311,31.2200311 15.7341311,31.3490311 C15.7171311,31.4460311 15.6751311,31.6620311 15.6251311,31.8770311 C15.5711311,32.0720311 15.5411311,32.2380311 15.5161311,32.3710311 L22.1511311,32.4140311 C23.9781311,32.4430311 24.4561311,32.4850311 24.7021311,32.5270311 C24.8621311,32.5540311 25.2131311,32.5870311 25.4631311,32.5900311 L26.6881311,32.6410311 C26.8151311,32.6430311 27.0371311,32.6470311 27.2841311,32.6470311 C27.5191311,32.6470311 27.7771311,32.6440311 28.0121311,32.6330311 C28.2801311,32.6160311 28.5641311,32.6120311 28.7281311,32.6120311 L29.0111311,32.6160311 L29.0821311,32.6390311 C29.1161311,32.6410311 29.1581311,32.6410311 29.2071311,32.6410311 C29.3181311,32.6410311 29.4511311,32.6360311 29.6021311,32.6270311 C29.8121311,32.6220311 30.0391311,32.6200311 30.2891311,32.6200311 C30.3091311,32.6200311 32.0861311,32.6230311 32.6221311,32.6730311 L33.9451311,32.7130311 Z M34.1101311,37.1300311 C33.7901311,37.1430311 33.4581311,37.1460311 33.2471311,37.1460311 L33.0081311,37.1450311 L32.7941311,37.1360311 C32.5221311,37.1220311 31.9911311,37.0970311 31.4051311,37.0880311 L29.1891311,37.0220311 C28.7521311,36.9830311 28.1831311,36.9430311 27.9001311,36.9390311 L27.8051311,36.9330311 C27.6641311,36.9160311 26.9391311,36.8960311 26.2991311,36.8780311 C25.7751311,36.8630311 25.1751311,36.8460311 24.5751311,36.8250311 L21.4851311,36.7760311 C20.7951311,36.7410311 19.4421311,36.7130311 18.4991311,36.7130311 C18.2651311,36.7130311 17.4451311,36.7220311 17.4451311,36.7220311 C16.8701311,36.7220311 16.0881311,36.7130311 15.3581311,36.6990311 L14.4111311,36.6760311 C14.1121311,36.6710311 13.7731311,36.6650311 13.4841311,36.6120311 C12.6671311,36.4790311 12.1831311,36.0940311 11.9521311,35.8520311 C11.5901311,35.5140311 11.4031311,35.1130311 11.3201311,34.8880311 C11.2271311,34.7000311 11.1551311,34.4520311 11.1191311,34.1270311 C11.0921311,33.8630311 11.0901311,33.6180311 11.1111311,33.3670311 L11.1431311,32.7500311 C11.2141311,32.0320311 11.3711311,31.0990311 11.5201311,30.4910311 C11.7811311,29.5960311 12.0291311,28.9090311 12.6191311,27.7340311 C13.1261311,26.7490311 14.1441311,25.2290311 15.2841311,24.0370311 C16.4581311,22.7820311 17.7921311,21.7890311 18.3941311,21.4010311 C18.5601311,21.2790311 18.7551311,21.1410311 19.0391311,20.9690311 C18.7081311,20.6610311 18.3151311,20.2750311 17.9161311,19.7980311 C17.4761311,19.2670311 16.7141311,18.1720311 16.5221311,16.7760311 C16.3441311,15.4990311 16.6211311,14.4210311 16.8851311,13.7410311 C17.1191311,13.1280311 17.4371311,12.5500311 17.8291311,12.0310311 C18.1841311,11.5690311 18.6051311,11.1410311 19.0851311,10.7530311 C19.4071311,10.4890311 19.6941311,10.2710311 19.9591311,10.0820311 C20.5201311,9.6800311 20.9611311,9.3950311 21.4821311,9.0980311 C22.1271311,8.7460311 22.5031311,8.5760311 22.7981311,8.4410311 C22.9541311,8.3700311 23.0841311,8.3120311 23.2231311,8.2370311 L23.2631311,8.2150311 L23.3541311,8.1780311 C23.6711311,8.0450311 23.9461311,7.9310311 24.5301311,7.8010311 L24.6401311,7.7800311 C25.0471311,7.7040311 25.6621311,7.5890311 26.6031311,7.5890311 C26.9011311,7.5890311 27.2331311,7.6000311 27.6061311,7.6290311 C28.6111311,7.7140311 29.6241311,7.9400311 30.4671311,8.2650311 C31.2321311,8.5530311 31.8551311,8.8960311 32.1541311,9.1030311 C32.8661311,9.5290311 33.3891311,9.9770311 33.8001311,10.5260311 C33.9151311,10.6600311 34.0581311,10.8800311 34.1911311,11.0910311 C34.3431311,11.3130311 34.4701311,11.5370311 34.5561311,11.7330311 C34.6231311,11.8900311 34.7661311,12.2180311 34.8011311,12.6110311 C34.8561311,12.8570311 34.9091311,13.1180311 34.9891311,13.5950311 C35.0261311,13.7850311 35.0391311,14.0230311 35.0501311,14.2720311 L35.0601311,14.4850311 L35.0571311,14.5320311 C35.0431311,14.8260311 35.0231311,15.1270311 34.9811311,15.3920311 C34.9201311,15.7580311 34.8461311,16.1950311 34.6541311,16.5170311 C34.6451311,16.5480311 34.6371311,16.5790311 34.6311311,16.6050311 C34.5411311,16.8800311 34.4021311,17.1460311 34.2921311,17.3120311 C34.2151311,17.4460311 34.1281311,17.5730311 34.0321311,17.6960311 L34.0161311,17.6870311 C33.8881311,17.9170311 33.7481311,18.1110311 33.5481311,18.2250311 C33.5371311,18.2390311 33.5261311,18.2520311 33.5141311,18.2660311 C33.3971311,18.4060311 33.2581311,18.5690311 33.1201311,18.7110311 C32.7411311,19.1490311 31.9731311,19.5830311 31.4811311,19.6470311 C31.4581311,19.6560311 31.3811311,19.6820311 31.3811311,19.6820311 C31.4491311,19.6900311 31.6731311,19.7250311 31.6731311,19.7250311 L32.4341311,19.9500311 C32.6991311,20.0290311 33.0991311,20.1470311 33.6991311,20.4620311 L34.2791311,20.7540311 L34.9891311,21.1970311 C35.2601311,21.3540311 35.5361311,21.5720311 35.8281311,21.8020311 C36.2011311,22.0750311 36.5371311,22.3940311 36.8471311,22.7010311 C37.5901311,23.4230311 38.0631311,24.0660311 38.3291311,24.4770311 C38.5991311,24.8640311 38.7341311,25.1130311 38.8041311,25.2760311 C38.8191311,25.2980311 38.8391311,25.3260311 38.8661311,25.3610311 C39.1321311,25.6410311 39.3561311,26.0370311 39.7181311,26.8590311 C39.9491311,27.3780311 40.3671311,28.4110311 40.5021311,28.9600311 C40.6821311,29.5910311 40.7491311,29.8280311 40.7721311,29.9900311 C40.7721311,29.9900311 40.8501311,30.4930311 40.9541311,30.9900311 C40.9871311,31.2430311 41.0861311,32.0930311 41.0931311,32.5000311 C41.1181311,32.6910311 41.1201311,32.8990311 41.1181311,33.0990311 C41.1311311,33.4050311 41.0521311,33.8950311 40.8601311,34.3180311 C40.6651311,34.7800311 40.4581311,35.0530311 40.2691311,35.2140311 C40.2131311,35.2790311 40.1601311,35.3390311 40.0991311,35.4050311 C39.9571311,35.5620311 39.7481311,35.7610311 39.5331311,35.9370311 C39.4781311,35.9840311 39.4211311,36.0300311 39.3641311,36.0730311 L39.4321311,36.2290311 L38.6091311,36.6030311 C38.4831311,36.6680311 38.3071311,36.7590311 37.9691311,36.8810311 C37.5331311,37.0360311 36.9931311,37.1320311 36.4441311,37.1520311 C36.2981311,37.1570311 36.1591311,37.1590311 36.0231311,37.1590311 C35.8481311,37.1590311 34.1101311,37.1300311 34.1101311,37.1300311 L34.1101311,37.1300311 Z" id="Fill-12" fill="#000000"></path></g></g></g></svg> 