<?xml version="1.0" encoding="UTF-8"?> <svg xmlns="http://www.w3.org/2000/svg" id="Layer_2" viewBox="0 0 163.23 39.98"><defs><style>.cls-1{fill:none;}.cls-1,.cls-2{stroke-width:0px;}.cls-2{fill:#fff;}</style></defs><g id="Layer_1-2"><path class="cls-2" d="m105.13,34.91c.02-.34.06-.69.06-1.03,0-10.64,0-21.28,0-31.92V.86h19.21v3.89h3.96v5.92h9.45v14.4h4.98v9.94h-.93c-11.94,0-23.89,0-35.83,0-.31,0-.62-.07-.93-.11,0,0,.01.02.01.02Zm17.83-9.85v-12.9h-16.33v7.96h10.68v4.94h5.65Zm5.5-12.92v12.9h7.92v-12.9h-7.92Zm-21.83-1.51h16.34v-4.4h-16.34v4.4Zm-.02,22.91h9.19v-6.97h-9.19v6.97Zm21.84.01h7.93v-6.99h-7.93v6.99Zm-5.48-31.3h-16.34v2.48h16.34v-2.48Zm0,24.29h-5.63v7.02h5.63v-7.02Zm1.51-14.39v12.89h2.43v-12.89h-2.43Zm-17.85,12.87h9.17v-3.46h-9.17v3.46Zm31.26,1.51v7.01h3.5v-7.01h-3.5Zm-10.95,7.05v-7.03h-2.46v7.03h2.46Zm0-22.93v-4.4h-2.48v4.4h2.48Z"></path><path class="cls-2" d="m28.07,27.25c0,2.04-.02,3.95.02,5.85,0,.2.31.48.54.58.37.16.79.2,1.18.29q1.58.37,1.39,2.1h-12.43v-1.76c.69-.19,1.45-.34,2.17-.61.26-.1.59-.47.59-.71.03-7.03.02-14.06.02-21.09,0-.09-.03-.18-.07-.36h-3.04v-2.01c3.14-.62,6.08-2.36,9.6-2.28v2.61c.69-.38,1.2-.73,1.76-.95,1.33-.53,2.65-1.19,4.03-1.45,2.78-.52,5.49.92,6.93,3.65,1.93,3.69,2.01,7.51.06,11.19-2.04,3.84-5.59,5.08-9.71,5.09-.97,0-1.94-.09-3.05-.14Zm0-2.36c3.45.49,5.96-1.03,6.81-4.09.49-1.78.56-3.6.14-5.4-.64-2.76-2.46-4.08-5.27-3.85-.25.02-.5.08-.75.07-.73-.05-.96.26-.95.99.04,2.92.02,5.84.02,8.76,0,1.16,0,2.31,0,3.52Z"></path><path class="cls-2" d="m58.84,15.54c-.17.25-.34.5-.5.76-2.1,3.46-4.2,6.92-6.28,10.39-.31.52-.65.74-1.27.72-1.34-.05-2.69-.01-4.12-.01v-15.76c-1.29-.15-2.49-.28-3.76-.43v-1.84c3.11-.56,6.12-1.97,9.56-1.66v12.4c.07.03.14.06.21.09.17-.27.36-.52.52-.8,2.21-3.69,4.43-7.37,6.62-11.07.29-.49.61-.69,1.19-.67,1.25.04,2.5.01,3.84.01v14.74c.28-.27.44-.38.55-.53,1.32-1.76,2.65-3.51,3.93-5.29.25-.35.41-.85.42-1.28.05-2.07.05-4.15.02-6.22,0-.62.22-.99.72-1.3,1.29-.8,3.15-.75,4.25.14,1.18.95,1.61,2.52.97,4.1-.39.95-.9,1.88-1.52,2.69-3.09,4.08-6.24,8.11-9.38,12.15-.16.21-.42.47-.64.48-1.69.04-3.37.02-5.18.02v-11.81c-.06-.01-.11-.02-.17-.03Z"></path><path class="cls-2" d="m88.37,9.39c-2.3.45-3.76,1.63-4.44,3.69-.77,2.33-.8,4.7,0,7.02,1.09,3.13,3.75,4.54,6.94,3.62,1.46-.42,2.86-1.07,4.39-1.66,0,1.02.02,2.04-.02,3.05,0,.19-.2.46-.37.54-3.47,1.66-7.09,2.52-10.95,1.84-4.25-.75-7.41-4.37-7.69-8.69-.46-7.08,4.44-11.95,11.72-11.56,1.35.07,2.71.44,4.01.85,1.19.38,2.12,1.22,2.68,2.37,1.28,2.59-.39,5.21-3.27,5.07-.79-.04-1.58-.35-2.35-.58-.51-.15-.69-.52-.68-1.07.04-1.47.01-2.94.01-4.5Z"></path><path class="cls-2" d="m105.12,34.9v4.53h-17.59v-4.43c.32,0,.65,0,.98,0,5.23,0,10.46,0,15.69,0,.31,0,.62-.05.94-.08,0,0-.02-.02-.02-.02Z"></path><rect class="cls-1" width="163.23" height="39.98"></rect></g></svg> 