<svg xmlns="http://www.w3.org/2000/svg" xmlns:xlink="http://www.w3.org/1999/xlink" viewBox="0,0,256,256" width="200px" height="200px" fill-rule="nonzero"><defs><linearGradient x1="45.172" y1="12.305" x2="54.672" y2="86.472" gradientUnits="userSpaceOnUse" id="color-1"><stop offset="0.004" stop-color="#ffe8c7"></stop><stop offset="0.724" stop-color="#f1bc70"></stop><stop offset="1" stop-color="#ebab4d"></stop></linearGradient></defs><g fill="none" fill-rule="nonzero" stroke="none" stroke-width="1" stroke-linecap="butt" stroke-linejoin="miter" stroke-miterlimit="10" stroke-dasharray="" stroke-dashoffset="0" font-family="none" font-weight="none" font-size="none" text-anchor="none" style="mix-blend-mode: normal"><g transform="scale(2.56,2.56)"><path d="M53,91c-20.953,0 -38,-17.047 -38,-38c0,-20.953 17.047,-38 38,-38c20.953,0 38,17.047 38,38c0,20.953 -17.047,38 -38,38z" fill="#f6db6d" opacity="0.35"></path><circle cx="50" cy="50" r="37" fill="#545454"></circle><path d="M50,88c-20.953,0 -38,-17.047 -38,-38c0,-20.953 17.047,-38 38,-38c20.953,0 38,17.047 38,38c0,20.953 -17.047,38 -38,38zM50,14c-19.851,0 -36,16.149 -36,36c0,19.851 16.149,36 36,36c19.851,0 36,-16.149 36,-36c0,-19.851 -16.149,-36 -36,-36zM72,50c0,-0.552 -0.448,-1 -1,-1h-42c-0.552,0 -1,0.448 -1,1c0,0.552 0.448,1 1,1h42c0.552,0 1,-0.448 1,-1zM72,62c0,-0.552 -0.448,-1 -1,-1h-42c-0.552,0 -1,0.448 -1,1c0,0.552 0.448,1 1,1h42c0.552,0 1,-0.448 1,-1zM72,38c0,-0.552 -0.448,-1 -1,-1h-42c-0.552,0 -1,0.448 -1,1c0,0.552 0.448,1 1,1h42c0.552,0 1,-0.448 1,-1z" fill="url(#color-1)"></path></g></g></svg>