<?xml version="1.0" encoding="UTF-8"?> <svg xmlns="http://www.w3.org/2000/svg" xmlns:xlink="http://www.w3.org/1999/xlink" id="Layer_2" viewBox="0 0 52.27 51.46"><defs><style>.cls-1{clip-path:url(#clippath);}.cls-2,.cls-3{fill:none;}.cls-2,.cls-3,.cls-4{stroke-width:0px;}.cls-5{clip-path:url(#clippath-1);}.cls-3{clip-rule:evenodd;}.cls-4{fill:#040404;}</style><clipPath id="clippath"><path class="cls-3" d="m37,16.39c-.34.41-.38.37-.14-.09.22-.46.45-.73.56-.68.01.2-.04.38-.42.77Zm-.15-9.36q.24.27.12.14l-.37-.41.24.27Zm1.83,5.42v.18c0-.18,0-.37,0-.37,0-.18,0,0,0,.18Zm-2.84-6.76c.22.32.22.31-.1.13-.32-.18-.7-.59-.65-.67-.09-.2.53.22.75.54Zm2.82,8.84c-.05.18-.1.17-.1.17q-.05-.02,0-.2s.05-.18.1-.17v.2Zm.05.42c-.18.14-.14-.05,0-.4.09-.37.15-.36.2-.35.05.21-.02.6-.21.75Zm.58.19c-.1-.03-.08-.24.17-1.02.16-.38.16-.6.16-.18-.09.61-.25,1.22-.32,1.19Zm10.92,22.73c-.18-.75-.83-2.4-1.31-3.48-.64-1.45-.96-1.96-1.26-2.25-.25-.32-.35-.49-.35-.49-.02-.11-.24-.55-.75-1.28-.48-.74-1.25-1.76-2.42-2.89-.56-.56-1.09-1.04-1.61-1.43-.51-.4-.97-.77-1.42-1.03-.45-.28-.84-.53-1.2-.75-.37-.19-.7-.35-.99-.5-1.16-.61-1.8-.73-2.27-.89,0,0-.7-.21-.94-.28-.78-.12-.98-.12-.64.09.17.11-.02.05-.2,0-.55-.17-.77-.12-.81.04-.01.05-.21.05-.41.07-.2.01-.21.07-.24.17.16.15.13.26.11.31-.04.16-.65.31-1.02.34,0,0-.19.01-.01.05,0,0-.2.07-.58.1-.38.08-.57.1-.22.18q.16.09.15.15c-.22.17-.58.21-.93.16,0,0-.36,0-.37.06-.37.05-.97.58-.98.63l-.17-.03-.02.11c0,.06-.02.17-.2.19q0,.06.16.08c.17.03.33.11.49.13.16.08.48.19.81.3.33.05.32.11.31.16-.18.04-.17.06.43.37.28.26,2.56.69,4.88,1.67.35.18.78.38,1.19.56.39.21.76.44,1.02.6.42.22,1.03.69,1.29.86.25.18.52.35.63.46.11.11.26.17.49.39.26.17.85.7,1.83,2.13,1.33,1.95,2.22,3.68,3.24,7.19.26.97.44,1.76.58,2.41.11.67.2,1.18.27,1.59.02.13.04.24.06.35,0,.03,0,.06,0,.09,0,.05-.03.1-.05.14-.02.03-.02.03-.05.07-.03.05-.09.1-.14.15-.11.1-.24.21-.38.31-.28.2-.6.37-.89.49-.35.15-1.01.18-1.73.16-1.52-.04-2.68-.07-3.56-.09-1.72-.05-2.33-.07-2.41-.07-.36-.06-3.75-.11-5.18-.08-.72.04-1.25.04-1.43-.02,0,0-.72-.01-1.43.03-.89.04-1.97.03-2.5.02-.48-.02-1.66-.07-2.15-.09-.54,0-1.25-.07-1.61-.14-.36-.06-1.25-.13-4.29-.18-2.12-.01-4.84-.03-6.08-.04-1.23,0-3.96-.03-5.9-.04-.48,0-.92,0-1.33,0-.06,0-.11,0-.16.01-.11,0-.17-.08-.17-.14,0-.06-.01-.12-.03-.13l-.02-.03c0-.05-.02-.11-.03-.12-.06-.17.05-.8.13-.94.09-.07.15-.82.35-1.54.08-.36.15-.72.21-.99.07-.27.11-.45.08-.46,0-.17.17-.63.22-.61.03.01.11-.26.31-.66.2-.4.42-.97.74-1.54.6-1.16,1.64-2.65,2.07-3.15,1.24-1.6,3.07-3.48,5.13-4.99,1.02-.77,2.11-1.42,3.16-1.99.08-.06.36-.18.61-.28.25-.11.5-.22.74-.32.49-.21.96-.42,1.43-.62,1.03-.4,2-.79,2.91-1.14-.12-.28-.35-.62-.57-.94-.21-.31-.4-.6-.59-.89-.37-.55-.71-1.03-1.02-1.44-.67-.83-1.23-1.33-1.42-1.49-.1-.11-.35-.36-.65-.63-.19-.17-.42-.39-.7-.64-.37-.41-1.43-1.29-1.94-1.85-.58-.52-1.06-1.18-1.11-1.29-.14-.23-.46-.78-.55-1.26-.18-.6-.09-.87-.1-.99.06-.13.13-.5.22-.89.1-.52.32-.88.36-1,.05-.12.3-.76.75-1.48.44-.65.7-.9,1.12-1.29.46-.4,1.05-.92,2.36-1.75,1.66-1.02,2.83-1.49,3.68-1.83.8-.28,1.25-.38,1.61-.44.34-.06.54-.07.78-.06.46-.06,1.75-.17,3.03-.05,1.28.1,2.48.44,2.85.54.75.18,1.88.57,3.04,1.41.59.45,1.12.9,1.52,1.55.4.65.71,1.45.83,2.36.13.87.02,1.78,0,1.92.03.31-.04.46-.19.88-.07.29-.25.71-.36.98-.04.14-.15.38-.28.66-.17.24-.33.54-.52.76-.6.65-.71.72-.84,1.02-.07.15-.26.39-.38.48-.35.27-.7.61-.58.89.05.1-.04.33,0,.43-.11.18.06.15.25.13.35-.11.37-.06.4-.01.03.05.22.02.39-.07.18-.06.21-.01.24.04l.03.05c.19-.06.35-.17.38-.13.05.12,1.42-.47,1.95-1.13.58-.58,1.17-1.44,1.17-1.21.05.03.15-.16.43-.72.24-.58.23-.58.16-.39-.05.21-.12.4-.2.6.13-.17.25-.35.36-.54.13-.18.33-.56.4-.76.06-.21.16-.62.22-.61.04,0,.25-.61.39-1.44.07-.42.09-.89.12-1.36-.02-.47-.03-.93-.1-1.31-.15-.89-.24-1.33-.35-1.79-.02-.48-.22-.93-.31-1.14-.1-.22-.27-.53-.49-.86-.21-.33-.43-.69-.67-.97-.62-.83-1.42-1.49-2.55-2.17-.36-.25-1.34-.81-2.67-1.31-1.33-.51-3-.89-4.63-1.03-2.66-.2-4.1.1-5.01.27-.95.21-1.33.38-1.9.62-.73.39-1.33.57-3.07,1.52-.95.54-1.68,1.02-2.58,1.66-.45.32-.93.69-1.48,1.14-.56.45-1.29,1.12-1.96,1.99-.4.53-.99,1.42-1.46,2.66-.47,1.22-.8,2.85-.55,4.59.24,1.78,1.17,3.41,2.12,4.56.96,1.15,1.89,1.96,2.58,2.6.19.17.38.34.57.51l.24.22h.02s.06.06.06.06c.03.03.09.07.07.09-.12.06-.22.11-.3.15-.04.02-.08.04-.11.06-.06.03-.12.07-.18.1-.26.15-.5.29-.72.41-.86.48-1.32.81-1.74,1.11-.98.63-3.25,2.32-5.25,4.46-2.03,2.12-3.71,4.71-4.47,6.2-.97,1.93-1.39,3.05-1.83,4.57-.24.97-.51,2.54-.63,3.73-.02.43-.04.81-.06,1.15-.03.41-.02.75.01,1.04.06.57.22.89.23.88.08.26.32.81.77,1.21.2.22.77.73,1.87.91.52.09,1.29.08,1.87.1.39,0,.8.02,1.21.03,1.68.03,3.51.05,4.49.04,1.25-.04,4.83.02,6.43.1.36,0,2.86.05,5.54.09,2.68.1,5.36.14,5.9.2.54,0,1.61.08,2.32.15.52.01,2.38.07,3.93.12,1.43.02,2.68.1,2.86.1,0,0,.89.01,1.97-.02.45,0,1.12.02,1.83.03.72,0,1.44.04,2.24,0,.78-.03,1.6-.16,2.22-.39.64-.23.89-.38,1.02-.45-.02-.05.66-.44,1.28-.96.32-.26.63-.55.86-.81.23-.25.38-.44.39-.44.02.02.41-.45.66-1.05.27-.59.34-1.28.31-1.45,0-.32,0-.71-.05-.98.02-.25-.08-1.34-.21-2.48-.2-.93-.34-1.88-.34-1.88-.03-.19-.19-.75-.45-1.68Z"></path></clipPath><clipPath id="clippath-1"><rect class="cls-2" x="1" y="1" width="50.27" height="49.46"></rect></clipPath></defs><g id="Layer_1-2"><g class="cls-1"><g class="cls-5"><rect class="cls-4" width="52.27" height="51.46"></rect></g></g></g></svg> 