<?xml version="1.0" encoding="UTF-8"?> <svg xmlns="http://www.w3.org/2000/svg" xmlns:xlink="http://www.w3.org/1999/xlink" id="Layer_2" viewBox="0 0 61.72 49.75"><defs><style>.cls-1{clip-path:url(#clippath);}.cls-2,.cls-3{fill:none;}.cls-2,.cls-3,.cls-4{stroke-width:0px;}.cls-5{clip-path:url(#clippath-1);}.cls-3{clip-rule:evenodd;}.cls-4{fill:#040404;}</style><clipPath id="clippath"><path class="cls-3" d="m20.74,3.38c-.56-.02-.56-.08,0-.17.55-.09.93,0,.93.12-.18.12-.36.13-.92.05Zm10.37-.12q-.37.01-.18,0l.55-.02h-.37Zm-5.91.33h-.18c.18,0,.37,0,.37,0,.18,0,0,0-.18,0Zm7.58-.1q-.37-.1,0-.17c.37-.06.93.03.93.15.19.11-.55.12-.92.02Zm-9.59.53c-.18,0-.19-.05-.19-.05q0-.06.18-.07s.18,0,.19.05l-.18.06Zm-.36.18c-.19-.1,0-.17.36-.13.37-.02.37.04.37.09-.18.12-.55.14-.74.04Zm.03.61c0-.11.18-.18.92-.16.37.04.56.03.19.1-.55.08-1.1.11-1.1.06ZM6.07,20.39c-.06-.72-.2-2.35-.25-3.44-.06-1.45-.06-1.99-.18-2.35-.06-.36-.06-.54-.06-.54.06-.18.07-1.83.12-4.7.02-.64.09-1,.16-1.16.07-.13.12-.21.23-.3.21-.18.63-.35,1-.43.77-.17,1.28-.17,1.63-.23,0,0,.42-.04.79,0,.72-.04.93-.08.57-.23-.18-.07,0-.06.19-.04.56.05.78-.04.79-.21,0-.06.2-.1.41-.14.2-.04.21-.1.21-.21-.19-.12-.18-.23-.18-.29.01-.16.61-.41.99-.52,0,0,.19-.06,0-.06,0,0,.2-.11.57-.24.37-.19.54-.27.17-.23-.19-.04-.19-.04-.19-.1.17-.23.51-.37.84-.43,0,0,.32-.13.31-.18.32-.19.48-.93.44-.97l.11-.06s-.03-.05-.05-.1c-.03-.05-.08-.15,0-.25-.03-.05-.03-.05-.13,0-.1.06-.23.04-.33.09-.13-.01-.36,0-.62,0-.25.04-.26-.02-.27-.07.12-.07.12-.12-.42-.24-.14-.07-.66-.1-1.65-.21-.49-.05-1.09-.12-1.83-.17-.82-.05-1.7-.03-2.66.14-.6.08-1.34.26-2.06.57-.73.3-1.43.76-1.89,1.2-.36.31-.79.82-1.07,1.36-.31.53-.47,1.08-.54,1.36-.16.58-.16,1.09-.18,1.33-.02.24.02.48,0,.89.05.4.02,1.32-.03,3.4.02,2.83.07,5.09.43,9.22.49,4.49.66,5.42.8,6.54.16,1.24.28,2.31.53,3.49.25,1.15.68,2.32,1.42,3.28.74.97,1.68,1.58,2.5,1.94.84.38,1.53.48,2.1.57,1.12.14,1.79.12,2.2.12.41,0,.59,0,.64,0,.19.03,1.2-.02,2.16-.01.98,0,1.83.15,2.22.31.21.07.38.15.52.23.13.1.22.18.25.24,0,0,.38.28.79.69.51.5,1.05,1.33,1.32,1.8.27.43.78,1.43,1.09,1.94.3.5.72,1.23.93,1.61l.11.17c.09.12.18.25.27.38.21.31.51.62.94,1.03.22.19.44.48.74.67.31.2.64.42,1,.66.39.18.81.37,1.27.59.47.21,1.08.51,1.58.69.05-.1.12-.22.19-.35.49-.92,1-1.89,1.5-2.89.23-.52.48-1.02.7-1.55l.23-.57.16-.43c.43-1.15.74-2.2.92-2.87.15-.52.34-1.29.51-2.15l.06-.33.03-.17v-.03s.01-.11.01-.11v-.15c.06,0,.11,0,.16,0,1.94-.05,3.28-.08,4.23-.1,1.05-.04,1.56-.08,1.65-.14.18-.06.93-.08,1.12-.03.19.11,3.54-.12,3.54-.23.18-.06.74-.09.75-.03,0,.03.33.03.84.01.52-.03,1.21-.06,1.96-.09,1.45-.07,3.56-.18,4.28-.22.86-.05,1.72-.09,2.78-.19,1.05-.11,2.31-.26,3.67-.93.67-.33,1.35-.84,1.89-1.46.54-.62.91-1.3,1.17-1.94.52-1.31.68-2.38.88-3.39.77-4.09.72-7.51.65-7.99,0-.19,0-.77-.01-1.55.05-.58-.08-2.13-.18-3.09-.14-.96-.35-2.1-.38-2.29-.06-.38-.25-1.33-.41-2.08-.23-.94-.27-1.32-.31-1.51,0-.2-.05-.78-.21-1.34-.15-.61-.32-1.35-.36-1.51-.08-.2-.26-1.05-.85-2.33-.57-1.17-1.09-1.86-2.03-2.54-.48-.34-1.1-.62-1.83-.79-.73-.18-1.57-.22-2.42-.25-2.23-.12-3.72-.14-4.84-.1-2.05.03-2.42.03-2.98-.03-1.12-.02-6.14.11-7.07.19-1.86.19-5.57.36-10.21.61-1.11.05-2.23.15-2.41.17-.37.07-.55.08-1.11.06-.37.02-.93.05-1.3.07-.37.08-1.3.12-2.04.17-1.12.01-1.3.08-1.66.22-.18.07-.55.2-.73.22-.56.04-1.09.3-1.08.58,0,.11-.16.29-.16.4-.18.12.01.17.2.21.37.03.38.09.38.14,0,.06.19.1.38.09.19.04.19.1.2.15v.06c.19.04.38.03.38.09,0,.11,1.32.36,2.06.37.74,0,1.67.07,1.49.19,0,.06.19.04.74.01s.55-.03.37-.02l-.55.09.56.08c.19.05.56.08.74.07.18,0,.55-.03.56.03,0,.03.56.06,1.27.07s1.59.02,2.23,0c.74-.03,1.11.01,1.48.06.37.1.74.14.92.13.37-.01,1.1-.03,1.66,0,.74.03,1.65.01,2.76-.07.74-.01,3.86-.14,6.8-.14,4.78,0,5.15.03,6.25-.07.74-.1,1.29-.09,3.13-.05.51.01.96.03,1.43.04.47.01.91.03,1.28.08.37.05.67.15.77.25.11.09.29.29.52.9.07.18.17.44.27.79.11.39.23.82.37,1.3.26.98.53,2.13.75,3.35.47,2.43.67,5.1.71,6.93.12,4.11-.29,6.55-.52,8.1-.26,1.56-.4,2.25-.52,2.71-.11.41-.34,1.04-.66,1.33-.28.32-1.07.66-2.29.79-.59.07-1.3.12-1.99.17-.68.05-1.35.09-1.98.13-1.26.08-2.37.13-3.15.16-2.02.09-3.12.15-4.58.21-.91.09-2.38.19-3.48.22-.92.08-1.83.09-1.83.15-.18,0-.55,0-.92.01-.24-.03-.96-.05-1.91-.06-1.55,0-3.37-.01-5.12-.02-.16,1.15-.28,2.34-.44,3.28-.04.22-.07.44-.11.65-.02.11-.04.22-.06.33-.04.21-.08.4-.11.57-.1.59-.38,1.72-.77,2.86-.1.28-.2.57-.31.85l-.16.41-.13.31c-.04.09-.09.16-.13.21l-.09.18c-.07.06-.2-.06-.28-.12-.04-.03-.08-.08-.12-.12-.02-.02-.05-.06-.05-.06.03.03-.09-.1-.18-.24-.66-.98-1.3-2.2-1.91-3.21-.61-1.02-1.19-1.83-1.41-2.11-.39-.53-1.42-1.6-2.32-2.18-.17-.09-.45-.24-.81-.43-.36-.14-.83-.36-1.31-.46-.98-.27-2.09-.36-3.02-.35-1.67.03-2.81.04-2.97.03,0,0-.84.02-1.55-.05-.64-.13-1.19-.41-1.48-1.03-.32-.63-.46-1.49-.49-1.62-.12.1-.5-2.23-.45-2.25.06,0-.11-1.27-.18-1.44l-.07-.54c.03-.19-.04-1.27-.09-2.36-.09-.9-.11-1.81-.11-1.81-.01-.18-.05-.72-.12-1.63Z"></path></clipPath><clipPath id="clippath-1"><rect class="cls-2" x="1" y="1" width="59.72" height="47.75"></rect></clipPath></defs><g id="Layer_1-2"><g class="cls-1"><g class="cls-5"><rect class="cls-4" width="61.72" height="49.75"></rect></g></g></g></svg> 