<?xml version="1.0" encoding="UTF-8"?> <svg xmlns="http://www.w3.org/2000/svg" id="Layer_2" viewBox="0 0 51.64 48.04"><defs><style>.cls-1{fill:#020202;stroke-width:0px;}</style></defs><g id="Layer_1-2"><path class="cls-1" d="m2.89,23.63c-.27-.02-.28-.07-.03-.18.25-.1.44-.01.46.1-.07.13-.15.15-.43.07Zm4.83-.16q-.17,0-.09,0h.26s0-.01-.17,0Zm-2.72.35h-.09c.09,0,.17,0,.17,0,.09,0,0,0-.09,0Zm3.51-.1q-.18-.11,0-.18c.17-.07.43.04.44.16.09.12-.25.13-.43.02Zm-4.39.57c-.08.01-.09-.05-.09-.05q0-.06.08-.07s.08-.01.09.05l-.08.07Zm-.14.2c-.1-.11-.02-.18.15-.14.17-.02.18.04.18.1-.07.13-.23.15-.33.05Zm.09.65c-.02-.12.06-.19.4-.18.17.04.25.03.1.11-.24.09-.48.13-.49.07Zm1.66,12.32c-.07-.3-.23-.98-.3-1.44-.07-.62-.1-.85-.23-.99-.07-.15-.08-.23-.08-.23.06-.08.04-.78.04-2.02.09-2.4.29-3.01.19-3.41,0,0-.02-.24,0-.39-.07-.33-.11-.42-.26-.28-.07.07-.06-.01-.05-.09.04-.23-.06-.33-.24-.37-.06-.01-.1-.1-.14-.19-.04-.09-.1-.1-.22-.13-.13.06-.25.03-.31.02-.18-.03-.42-.34-.5-.53,0,0-.04-.1-.06-.01,0,0-.1-.11-.18-.3-.14-.21-.18-.3-.22-.14q-.08.07-.13.06c-.22-.14-.29-.33-.25-.5,0,0-.02-.18-.07-.2-.07-.2-.65-.62-.71-.64l.02-.09-.12-.03c-.06-.02-.17-.05-.21-.15q-.06-.02-.08.07c-.02.09-.1.16-.12.25-.08.07-.18.24-.29.41-.04.18-.1.17-.16.15-.03-.1-.1-.12-.36.21-.21.14-.57,1.43-.62,2.96-.07.47-.05,1.14-.08,1.51-.02.28.03.76.02.95,0,.19.04.38.05.47,0,.09.06.19.06.38.06.19.05.65.04,1.69.09,1.4.2,2.53.67,4.54.61,2.16.81,2.58.97,3.11.18.59.38,1.11.54,1.58.03.09.12.32.2.5.08.18.17.36.26.52.19.33.41.62.64.86.94.98,2.01,1.25,2.76,1.39,1.12.18,1.31.17,1.37.18.17.07,1.8.19,2.49.18.35-.04.6-.02.69.05,0,0,.34.02.69-.01.43-.03.95,0,1.21.03.18.02.84.11,1.03.13.26.02.6.1.76.18.17.07.59.16,2.05.27.97.08,2.46.12,3.3.03.4-.04,1.06-.11,1.89-.41.91-.33,1.8-.97,2.33-1.69.58-.76.86-1.66.96-2.19.11-.54.13-.95.15-1.18.03-.49.03-.73-.03-.78-.05-.09-.01-.44.05-.52.13-.07.17-1.64.04-1.65-.05-.09-.03-.35.03-.35.06,0,.12-.6.18-1.29.07-.62.19-1.68.22-1.99.4-3.12.57-8.8.38-9.24,0-.09,0-.35.01-.7.1-.41-.06-1.65-.11-2.37-.05-.74-.59-1.3-.68-1.42-.16-.23-.74-.63-1.23-.8-.65-.17-.92-.23-1.05-.26-.11-.08-.54-.18-1-.16-.31,0-.57,0-.78-.01-.25,0-.24-.02-.31-.02-.08,0-.51,0-1.01.07q-.93.07-2.55,0c-1.03-.06-1.72-.07-2.23,0-.95.06-1.12.06-1.39,0-.52,0-2.88.14-3.32.22-.87.21-2.63.36-4.83.64-.53.06-1.05.17-1.14.19-.17.08-.26.1-.53.07-.18.02-.44.06-.62.08-.17.08-.61.16-.96.22-.54.03-.62.11-.77.27-.08.08-.23.23-.31.25-.26.05-.47.34-.4.64.03.12-.02.31,0,.43-.06.13.04.18.14.22.18.02.19.08.21.14.01.06.11.1.19.08.1.04.11.1.12.16v.06c.11.04.19.02.2.08.03.12.67.34,1.01.35.34,0,.77.05.7.18,0,.06.09.04.34,0q.25-.03.16-.02l-.24.09.26.09c.09.05.26.09.34.07s.24-.03.25.03c0,.05,1.01.12,1.58.06.33-.03.5.02.67.06.17.11.34.15.42.15.16-.02.49-.04.74.01.33.04.74.01,1.24-.06.33-.01,1.74-.13,3.1-.13,2.2-.01,2.38,0,2.89-.12.34-.12.6-.12,1.46-.11.95,0,1.55.01,3.3.18.29,0,.7.02,1.19.04.11.02.11.04.15.06.08.05,0,.16.01.19-.01,3.91-.09,4.72-.04,5.3.03,1.02-.23,4.9-.43,6.34-.09.93-.13,1.44-.2,2.11.02.43,0,1.11-.05,1.62.01.43-.03.85.03.86,0,.07-.02.2-.04.33-.04.05-.08.2-.13.32-.04.08-.06.1-.1.15-.09.09-.11.12-.42.23-.14.06-.52.12-1.01.12-.49,0-1.07-.06-1.46-.12-.17-.01-1.37-.1-2.66-.19-1.28-.15-2.57-.24-2.82-.32-.26-.02-.77-.12-1.11-.2-.26-.02-1.11-.14-1.88-.2-.69-.05-1.29-.15-1.34-.16,0,0-.07,0-.22-.01-.1,0-.35-.02-.31.01-.02,0-.05-.02-.07-.04-.01-.02,0,0-.02-.04-.06-.16-.1-.27-.11-.31-.11.04-.52-.9-.46-.92.06-.02-.11-.54-.2-.6l-.07-.23c.04-.09-.04-.56-.1-1.03-.09-.38-.13-.77-.13-.77-.02-.08-.06-.3-.14-.68Z"></path><path class="cls-1" d="m17.42,9.89c.06-.03.12-.03.18.02s-.07.06-.19.05c-.12-.03-.12-.04,0-.07Zm-.43.72s0-.03,0-.01v.04s0,0,0-.03Zm-.08-.44h0s0,.01,0,.01c0,.01,0,0,0-.01Zm-.23.54q.12-.02.18.02c.06.03-.07.06-.19.05-.12,0-.12-.05,0-.07Zm-.11-.72s.06,0,.06,0q.06,0,.06.02s0,.01-.06,0l-.06-.02Zm-.18-.05c.12,0,.18.02.12.04,0,.03-.06.02-.12.02-.12-.03-.12-.05,0-.05Zm-.66-.07c.12.01.18.03.11.08-.06.02-.06.04-.12,0-.06-.05-.05-.09,0-.08Zm-1.66,10.44c0,.06.07.18.07.27,0,.11,0,.16.13.18.06.03.06.04.06.04-.06.02-.11.15-.1.38-.04.45-.03.56.09.63,0,0,.06.04.06.07.12.05.18.06.3.02.06-.02.06,0,.06.01,0,.04.12.05.3.04.06,0,.12,0,.18.02s.12,0,.24,0c.12-.02.24-.03.3-.03.18-.01.48,0,.6.03,0,0,.06,0,.06,0,0,0,.12,0,.24.02.18.01.24.02.24,0q.06-.02.12-.02c.24,0,.36.01.36.04,0,0,.06.02.12.02.12.02.78,0,.84,0h0s.06,0,.12,0c.06,0,.18-.01.24,0q.06,0,.06-.02s.06-.03.06-.04c.06-.02.12-.05.18-.08,0-.03.06-.03.12-.03.06,0,.12,0,.3-.06.18-.04.23-.22.09-.41,0-.06-.07-.15-.07-.2,0-.04-.06-.1-.07-.12,0-.03-.06-.05-.06-.06,0-.01-.06-.02-.06-.05-.06-.02-.06-.09-.01-.23-.01-.19-.01-.35-.08-.63-.13-.31-.13-.37-.13-.45.02-.35.05-.56.07-.69.02-.11.04-.18.04-.18.06-.03.06-.27,0-.38-.06-.05-.06-.09,0-.1,0,0,0-.05-.06-.11-.06-.07-.06-.14-.06-.18,0-.04.06-.12.06-.16s.06-.09.12-.12c.06-.03.12-.09.12-.31,0-.16-.05-.35-.05-.45,0-.09-.06-.29-.05-.43-.05-.32-.05-.45-.17-.47-.06-.02-.06-.07,0-.08.12,0,0-.25-.11-.25-.06-.02-.06-.05,0-.05.06,0,.06-.09.07-.2s.07-.25.07-.3c.14-.47.18-1.33,0-1.4,0-.01,0-.05,0-.11.06-.04,0-.15.01-.21-.06-.07-.11-.15-.11-.17,0-.03-.05-.1-.05-.15-.06-.07,0-.09,0-.11.06,0,.12-.05.13-.08,0-.05.07-.09.07-.1,0-.01,0-.08-.05-.16q-.05-.15.03-.4c.07-.15.08-.26.03-.34-.05-.15-.05-.18.02-.21,0-.08-.08-.44-.14-.52-.17-.15-.26-.42-.29-.76,0-.08-.04-.16-.04-.18-.06-.03-.06-.05,0-.08v-.09s-.04-.1-.04-.15c.07-.07,0-.09-.11-.13-.06-.02-.17-.06-.17-.07,0-.04-.23-.1-.53-.14-.12-.02-.3-.04-.42-.06-.12-.03-.18-.02-.24-.01-.06.02-.12.01-.18,0-.06,0-.12,0-.12.01-.06,0-.12,0-.18,0h-.06c-.06,0-.06.01-.12,0-.12-.01-.49.05-.55.09-.07.05-.19.11-.31.08-.06,0-.06,0-.07.05t0,.03l-.06-.05-.12.03c-.06,0-.12.03-.12.04,0,.01,0,.04-.06.04-.06,0-.26.14-.26.24,0,.06-.07.08-.13.1-.12.02-.18.04-.19.05,0,.03,0,.08-.07.12-.06.05-.07.12-.02.21,0,.06.03.3.02.52-.03.36-.03.39.08.48.12.06.11.11.1.24-.01.15-.02.25-.22.51-.07.16-.23.71-.24,1,.02.66.02.78.07.88.05.17.02.81-.05,1.04,0,.15,0,.24-.01.35.06.07.11.19.11.27.06.07.06.14.12.14,0,.01,0,.04,0,.07-.12.05-.13.47-.08.62.06.1.05.38,0,.5,0,.03,0,.22,0,.43-.06.21-.06.42-.12.46,0,.04-.06.13-.12.18,0,.04-.06.18-.06.31,0,.11-.06.21-.06.23,0,0,0,.07.06.15,0,.07,0,.21,0,.31,0,.1,0,.17,0,.18.12,0,.18.18.12.18s-.06.1,0,.11v.04c-.06.02-.12.1-.17.19,0,.07-.06.14-.06.14,0,.01,0,.06,0,.13Z"></path><path class="cls-1" d="m19.13,6.09c-.33.02-.34-.03-.05-.17.3-.14.53-.08.56.04-.07.14-.18.17-.52.14Zm5.91-1.05q-.21.05-.1.02l.31-.07-.21.05Zm-3.3.88l-.1.03.21-.05c.1-.03,0,0-.1.03Zm4.3-.79q-.23-.08-.04-.18c.2-.1.54-.05.56.07.13.1-.29.18-.52.1Zm-5.35,1.42c-.1.03-.12-.03-.12-.03q-.01-.06.09-.08s.1-.03.12.03l-.09.08Zm-.16.23c-.13-.09-.04-.17.18-.17.21-.05.22,0,.24.06-.07.14-.28.19-.41.1Zm.16.64c-.03-.12.06-.2.48-.24.22,0,.32-.02.13.09-.29.14-.6.21-.61.15Zm16.52,35.07c-.38-.02-1.46-.09-2.03-.13-.85-.08-1.17-.11-1.4,0-.22.04-.33.03-.33.03-.1-.07-1.05-.22-2.76-.37-3.33-.35-4.04-.47-4.92-.35,0,0-.37.06-.58.06-.44.13-.53.19-.32.31.11.06,0,.06-.1.06-.31,0-.41.13-.41.31,0,.06-.1.12-.2.18-.1.06-.1.12-.1.24.1.12.1.24.1.3,0,.18-.31.48-.52.6,0,0-.1.06,0,.06,0,0-.11.12-.32.23-.22.17-.33.22-.12.23.1.07.1.07.1.13-.12.23-.35.34-.58.32,0,0-.24.03-.25.09-.12.05-.32.2-.51.35-.2.14-.4.26-.41.29,0,0,.02.02-.22-.09,0,0-.03.05-.05.11-.03.05-.07.17-.36.09-.03.05-.03.06.23.18.03.02.18.09.35.17.09.04.2.09.29.11.08.05.2.1.34.16l.42.15c.27.02.27.08.26.14-.15.04-.13.12.38.32.12.1.64.18,1.29.19.33,0,.69,0,1.04,0,.14,0,.3-.01.47-.02.08,0,.03-.01.16,0,.1,0,.21,0,.32,0,.53.05,1.28.06,1.71.1.32.03.86.02,1.07.04s.43-.02.54-.01.22-.04.43-.02c.22-.04.75,0,1.92.18,1.6.15,2.88.26,5.22.42,2.56.11,3.1.17,3.82.21,1.56.11,3.08.02,4.38-.47,1.3-.48,2.21-1.29,2.71-1.92.52-.65.74-1.12.89-1.41.14-.29.19-.43.2-.46.09-.13.36-.87.5-1.66.15-.78.2-1.61.2-2.02-.02-.43,0-.75.07-.86,0,0,.04-.43.01-.86-.02-.54.03-1.18.06-1.5.02-.32.14-.96.16-1.28.02-.32.11-.75.19-.96.08-.21.18-.74.3-2.57.09-1.29.13-2.9.17-3.65.03-.72.09-2.41.14-3.55.07-2.58.11-3.65,0-3.77-.06-.11-.04-.54.03-.64.13-.1.08-2.04-.04-2.04-.06-.11-.04-.43.02-.43.06,0,.09-.75.11-1.61.04-.79.11-2.07.13-2.47.11-1.93.2-4.65.22-6.94,0-.57,0-1.11,0-1.63,0-.19,0-.38,0-.56,0-.22,0-.43-.02-.64-.03-.41-.09-.78-.19-1.11-.39-1.32-1.24-1.87-1.43-1.97-.14-.11-.59-.43-1.3-.63-.25-.11-.76-.21-1.34-.22-.29,0-.59,0-.88.02-.18.01-.35.02-.49.03-.54.08-1.19.17-1.3.18-.22,0-.76.1-1.19.13-.54.09-.76.04-.87.05-.11-.05-.44-.09-.77-.06-.43.03-.76,0-.87,0-.11,0-.65.05-1.3.17q-1.19.17-3.25.33c-1.3.09-2.17.21-2.81.36-1.18.22-1.39.27-1.72.25-.65.08-3.52.7-4.04.87-1.04.37-3.14.9-5.76,1.59-.63.14-1.25.37-1.35.39-.2.11-.3.14-.63.16-.21.05-.52.14-.73.19-.19.11-.72.25-1.14.37-.64.11-.73.2-.91.38-.09.09-.26.26-.37.29-.31.09-.56.41-.47.7.03.12-.02.32.01.43-.07.14.05.17.17.2.22,0,.24.06.26.11s.14.09.24.06c.12.03.14.09.15.14l.02.06c.12.03.22,0,.24.06.03.12.84.26,1.27.2.43-.05.97-.07.9.07.02.06.12.03.42-.05q.31-.08.2-.05l-.29.14.34.03c.12.03.34.04.44.01.1-.03.31-.08.32-.02.02.06,1.28-.08,2-.24.41-.1.63-.08.84-.07.23.07.45.08.55.06.2-.04.61-.13.93-.14.42-.03.93-.14,1.54-.32.41-.08,2.15-.49,3.8-.76,2.69-.44,2.9-.45,3.51-.66.4-.17.71-.23,1.75-.35,1.15-.14,1.88-.23,3.98-.24.7-.03,2.06-.09,3.47-.15.76-.02,1.52-.05,2.23-.07.18,0,.36,0,.53-.01h.23s.01,0,.02,0h.04c.07,0,.1.05.11.09v.04c0,.18,0,.34,0,.5,0,.31,0,.58,0,.83,0,.96.01,1.38.04,1.76.05,1.28-.06,6.17-.19,7.97-.04,1.17-.06,1.81-.09,2.66.04.53.07,1.39.04,2.02.04.53.01,1.07.07,1.07,0,.11-.01.32-.02.53-.14.42-.3,3.61-.31,4.78.02.75-.11,2.87-.23,3.82-.01.21-.12,1.7-.23,3.29-.17,1.59-.3,3.18-.39,3.49-.03.32-.14.95-.23,1.37-.02.14-.06.48-.11.9-.05.38-.12.79-.19,1.13-.12.62-.34.91-.36.95,0,0-.05.1-.2.4-.11.13-.37.32-.76.43-.38.1-.78.13-.85.13.04.14-1.08.2-1.1.12.01-.05-.66-.1-.77-.05l-.3-.03c-.09-.07-.72-.19-1.36-.31-.53-.05-1.06-.16-1.06-.16-.11,0-.43-.04-.96-.09Z"></path></g></svg> 