<?xml version="1.0" encoding="UTF-8"?> <svg xmlns="http://www.w3.org/2000/svg" width="59" height="51" viewBox="0 0 59 51" fill="none"><path fill-rule="evenodd" clip-rule="evenodd" d="M25.8047 0.163574H30.6437C44.4507 0.163574 55.6437 11.3566 55.6437 25.1636C55.6437 38.9706 44.4507 50.1636 30.6437 50.1636H25.8047C11.9977 50.1636 0.804688 38.9706 0.804688 25.1636C0.804688 11.3566 11.9977 0.163574 25.8047 0.163574Z" fill="#FFCE07"></path><g clip-path="url(#clip0_360_11729)"><path d="M49.6514 44.5234C50.0916 44.5753 50.0916 44.6271 49.6514 44.679C49.2112 44.7308 48.9263 44.6271 48.9263 44.5234C49.073 44.4197 49.2198 44.4197 49.6514 44.5234ZM41.5027 44.2123C41.6983 44.2123 41.7472 44.2123 41.6494 44.2123H41.2092H41.5027ZM46.164 44.1086H46.3108H46.0173C45.8705 44.1086 46.0173 44.1086 46.164 44.1086ZM40.1992 43.9531C40.3949 44.0222 40.3949 44.0741 40.1992 44.1086C39.9057 44.1605 39.4741 44.0568 39.4741 43.9531C39.3274 43.8494 39.9143 43.8494 40.1992 43.9531ZM47.7696 43.7976C47.9163 43.7976 47.9163 43.8494 47.9163 43.8494C47.9163 43.884 47.8674 43.9013 47.7696 43.9013C47.7696 43.9013 47.6228 43.9013 47.6228 43.8494L47.7696 43.7976ZM48.0631 43.642C48.2098 43.7457 48.0631 43.7976 47.7696 43.7457C47.4761 43.7457 47.4761 43.6939 47.4761 43.642C47.6228 43.5383 47.9163 43.5383 48.0544 43.642H48.0631ZM48.0631 43.0717C48.0631 43.1754 47.9163 43.2272 47.338 43.1754C47.0445 43.1236 46.8977 43.1236 47.1912 43.0717C47.6315 43.0199 48.0631 43.0199 48.0631 43.0717ZM54.0969 25.4178C54.1056 25.9708 54.1315 27.3534 54.1487 28.183C54.1487 29.3495 54.1487 29.7816 54.2523 30.0754C54.3041 30.3692 54.3041 30.5161 54.3041 30.5161C54.2523 30.663 54.2005 31.9764 54.2005 34.3009C54.1487 38.8202 54.1487 39.9868 54.2523 40.7127C54.2523 40.7127 54.261 40.8336 54.2782 40.9719C54.2782 41.0497 54.2868 41.1361 54.2955 41.2052C54.2955 41.2484 54.2955 41.283 54.2955 41.3089C54.3818 41.499 54.3991 41.5768 54.5372 41.4904C54.5976 41.4472 54.589 41.499 54.5717 41.5595C54.5285 41.7237 54.589 41.8187 54.7271 41.8879C54.7703 41.9051 54.7961 42.0002 54.7961 42.0953C54.7961 42.1903 54.8393 42.2162 54.9256 42.2767C55.0551 42.2594 55.1501 42.3026 55.1932 42.3372C55.3313 42.4063 55.3831 42.8384 55.2623 43.0976C55.2623 43.0976 55.2105 43.2272 55.2968 43.1322C55.2968 43.1322 55.2968 43.2964 55.1414 43.547C55.0206 43.8408 54.8997 43.9617 55.1501 43.7976C55.2968 43.7544 55.2968 43.7544 55.3313 43.7976C55.34 44.0482 55.1242 44.342 54.8134 44.4716C54.8134 44.4716 54.5199 44.6444 54.5372 44.6962C54.2782 44.9123 53.7862 45.5517 53.7689 45.6036H53.5617C53.5617 45.6036 53.5617 45.6641 53.5617 45.7159C53.5617 45.7677 53.5704 45.8714 53.3546 45.9319C53.3546 45.9838 53.3546 45.9838 53.579 45.9751C53.8035 45.9751 54.0279 45.9838 54.2523 45.9492C54.4854 45.9579 54.9429 45.8974 55.3918 45.7505C55.8147 45.5517 55.832 45.5776 55.8579 45.6295C55.6766 45.7764 55.7025 45.8887 56.6089 45.4394C56.8333 45.3443 57.7483 44.7654 58.3699 43.4001C58.5166 43.0631 58.6461 42.6829 58.7238 42.2681C58.7583 42.0607 58.7928 41.8447 58.8015 41.6286C58.8015 41.5163 58.8101 41.404 58.8187 41.2916V41.0842C58.8101 40.5571 58.7928 39.9954 58.7669 39.4165C58.7497 38.7338 58.7238 37.6278 58.7151 37.0834C58.7151 36.6427 58.6633 35.9168 58.6633 35.623C58.6633 35.3292 58.6116 35.0441 58.6116 34.8972C58.6116 34.7503 58.5598 34.6034 58.5598 34.3182C58.508 34.0244 58.508 33.2985 58.5598 31.6913C58.5598 29.5051 58.5598 27.7595 58.508 24.5537C58.4044 21.054 58.4044 20.3281 58.4044 19.4554C58.4389 15.6187 58.4648 13.2424 58.4734 11.8079C58.4734 11.7215 58.4734 11.6351 58.4734 11.5487C58.4734 11.4191 58.4734 11.2981 58.4648 11.1771C58.4648 10.9352 58.413 10.7105 58.3871 10.5118C58.3094 10.1143 58.2058 9.80318 58.1109 9.56987C57.9123 9.10325 57.7915 8.91314 57.757 8.86129C57.6706 8.6539 56.9628 7.49599 55.6076 6.86518C54.9515 6.54546 54.166 6.36399 53.4582 6.36399C52.9661 6.36399 52.6208 6.38127 52.3187 6.38992C51.7404 6.44176 51.3001 6.44176 51.1534 6.38992C51.1534 6.38992 50.575 6.38992 49.988 6.44176C49.2629 6.49361 48.3911 6.49361 47.9509 6.49361C47.5624 6.48497 46.5956 6.4504 46.2072 6.44176C45.7669 6.44176 45.1886 6.38992 44.8951 6.33807C44.6016 6.28622 43.8765 6.23438 41.3991 6.23438C39.6813 6.25166 37.4542 6.27758 36.4529 6.28622C35.4515 6.29486 33.2244 6.32079 31.6534 6.33807C28.1574 6.38992 26.7072 6.38992 26.5604 6.49361C26.4137 6.54546 25.8353 6.54546 25.6886 6.49361C25.654 6.46769 25.4641 6.4504 25.1965 6.4504C25.0239 6.44176 24.342 6.4504 23.8327 6.58866C22.7364 6.83926 21.9077 7.56512 21.9509 7.60832C21.7868 7.7725 21.3034 8.26505 21.2689 8.23913C21.2517 8.22185 20.9495 8.507 20.6215 9.06004C20.2849 9.60443 19.9741 10.4686 19.9568 11.4104C19.9396 12.5511 19.9137 14.2361 19.8964 14.8064C19.7928 20.0516 19.7928 29.5223 19.9482 30.2482V31.4148C19.8964 31.8555 19.9482 33.0134 19.9482 33.7479C20 34.4737 20.0518 35.3465 20.0518 35.4934C20.0518 35.7872 20.1036 36.5131 20.1036 37.092C20.1554 37.8179 20.1036 38.1117 20.1036 38.2586C20.0518 38.4055 20 38.8375 20 39.2782C20 39.8572 19.9482 40.2979 19.9482 40.4448C19.9482 40.5139 19.9482 40.7213 19.9482 41.0497C19.9482 41.1274 19.9482 41.2225 19.9482 41.3175C19.9568 41.4558 19.9655 41.6027 19.9827 41.7582C20.0259 42.0693 20.095 42.3977 20.2072 42.7261C20.656 43.9272 21.1222 44.4111 21.7523 44.99C22.0803 45.2666 22.4861 45.5604 23.0903 45.811C23.3924 45.9319 23.7463 46.0529 24.1693 46.1134C24.3765 46.1566 24.6009 46.1652 24.8426 46.1825C24.998 46.1825 25.1706 46.1825 25.3519 46.1912C27.0956 46.243 28.261 46.243 29.1328 46.1912C30.7297 46.1393 31.0232 46.1393 31.4635 46.1912C32.3353 46.1912 36.2629 46.0875 36.9967 46.0356C38.4555 45.8801 41.3645 45.7764 44.9987 45.7245C45.8705 45.7245 46.7424 45.6727 46.8891 45.6727C47.1826 45.6208 47.3293 45.6208 47.761 45.6727H48.7795C49.073 45.6208 49.7981 45.6208 50.3765 45.6208C51.2483 45.6727 51.3951 45.6208 51.6886 45.5172C51.8353 45.4653 52.1288 45.3616 52.2669 45.3616C52.7072 45.3616 53.1388 45.1542 53.1388 44.895C53.1388 44.7913 53.2855 44.6358 53.2855 44.5321C53.4323 44.4284 53.2855 44.3765 53.1388 44.3247C52.8453 44.2728 52.8453 44.221 52.8453 44.1691C52.8453 44.1173 52.6985 44.0654 52.5518 44.0654C52.405 44.0136 52.405 43.9617 52.405 43.9099V43.8581C52.2583 43.8062 52.1115 43.8062 52.1115 43.7544C52.1115 43.6507 51.093 43.3396 50.5146 43.2877C49.9363 43.2359 49.2025 43.1322 49.3493 43.0285C49.3493 42.9767 49.2025 42.9767 48.7709 42.9767C48.3393 42.9767 48.3307 42.9767 48.4774 42.9767L48.9177 42.9248L48.4774 42.8211C48.3307 42.7693 48.0372 42.7174 47.8991 42.7174C47.761 42.7174 47.4588 42.7174 47.4588 42.6656C47.4588 42.6396 47.0186 42.5878 46.4575 42.5446C45.8964 42.5014 45.2058 42.4582 44.6965 42.4582C44.1182 42.4582 43.8247 42.4063 43.5312 42.3545C43.2377 42.2508 42.9529 42.1989 42.8061 42.1989C42.5126 42.1989 41.9343 42.1989 41.494 42.1471C40.9157 42.0953 40.1819 42.0953 39.3101 42.1471C38.7317 42.1471 36.2198 42.173 33.9236 42.1989C30.1428 42.1989 29.8493 42.1989 28.9774 42.3026C28.3991 42.4063 27.9588 42.4063 26.5 42.4063C26.1029 42.4063 25.7404 42.4063 25.3692 42.4063C25.2052 42.4063 24.9548 42.4063 24.8599 42.3977C24.7908 42.3977 24.7218 42.3804 24.6441 42.3631C24.3765 42.294 24.0226 42.0348 23.9363 41.5595C23.9363 41.4904 23.9017 41.404 23.919 41.2916C23.919 40.9719 23.9363 40.6176 23.9363 40.2201C23.9535 39.3733 23.9708 38.3795 23.988 37.3599C24.0053 35.2687 24.0312 33.0566 24.0485 31.553C23.9967 24.7006 23.9967 23.3957 23.9449 22.3761C23.919 21.5033 23.9104 19.3862 23.9104 17.1827C23.9104 16.0853 23.9104 14.962 23.919 13.9509C23.919 13.4498 23.919 12.9831 23.9276 12.5511C23.9276 12.3437 23.9276 12.1449 23.9276 11.9548C23.9276 11.8598 23.9276 11.7734 23.9276 11.687C23.9276 11.6092 23.9276 11.4969 23.9276 11.4969C23.9621 11.0129 24.2211 10.7796 24.5232 10.65C24.5664 10.6155 24.6268 10.5895 24.6959 10.5636C24.7304 10.555 24.7649 10.5377 24.8081 10.5377L24.8772 10.5204H25.0584C25.5505 10.4945 26.0598 10.4772 26.5 10.4772C27.2251 10.4253 27.9588 10.4253 27.9588 10.3735H28.6839C29.2623 10.4772 33.6301 10.4772 35.2357 10.4253C36.2543 10.3735 39.1633 10.3735 40.4754 10.4253H44.99C47.174 10.4772 49.3579 10.4772 49.7895 10.529C50.2297 10.529 51.1016 10.5809 51.6799 10.6327C51.8871 10.6327 52.3619 10.65 52.9575 10.6587H53.1819C53.2596 10.6587 53.3546 10.6587 53.3546 10.6759C53.3977 10.6759 53.4409 10.6846 53.4841 10.6932C53.5704 10.7191 53.6481 10.7451 53.7258 10.7883C54.0193 10.9525 54.0624 11.2549 54.071 11.2808C54.071 11.2808 54.0883 11.324 54.1056 11.3932C54.1228 11.4364 54.1228 11.4536 54.1315 11.5401C54.1315 11.7129 54.1487 11.9203 54.1574 12.1622V17.2605C54.261 17.2605 54.3127 19.1529 54.261 19.1529C54.2092 19.1529 54.2092 20.1726 54.261 20.3195V20.7602C54.2092 20.9071 54.1574 21.7798 54.1056 22.6526C54.1056 23.3785 54.0538 24.113 54.0538 24.113V25.4264L54.0969 25.4178Z" fill="#020202"></path><path d="M22.6059 18.2891C22.4937 18.2372 22.4937 18.1854 22.6059 18.1335C22.7181 18.0817 22.7872 18.1854 22.7872 18.2891C22.7527 18.3927 22.7095 18.3927 22.6059 18.2891ZM24.6776 18.6001C24.6258 18.6001 24.6143 18.6001 24.6431 18.6001H24.7553H24.6776ZM23.495 18.7038H23.4605H23.5382C23.5382 18.7038 23.5382 18.7038 23.5037 18.7038H23.495ZM25.0056 18.8594C24.9539 18.7902 24.9539 18.7384 25.0056 18.7038C25.0833 18.652 25.1869 18.7557 25.1869 18.8594C25.2214 18.9631 25.0747 18.9631 25.0056 18.8594ZM23.0807 19.0149L23.0461 18.9631C23.0461 18.9285 23.0577 18.9112 23.0807 18.9112C23.0807 18.9112 23.1152 18.9112 23.1152 18.9631L23.0807 19.0149ZM23.003 19.1705C22.9685 19.0668 23.003 19.0149 23.0807 19.0668C23.1584 19.0668 23.1584 19.1186 23.1584 19.1705C23.1238 19.2741 23.0461 19.2741 23.0116 19.1705H23.003ZM23.003 19.7408C23.003 19.6371 23.0375 19.5852 23.1843 19.6371C23.262 19.6889 23.2965 19.6889 23.2188 19.7408C23.1066 19.7926 22.9944 19.7926 22.9944 19.7408H23.003ZM50.8589 20.8296C51.0056 20.8296 51.3423 20.7777 51.5581 20.7777C51.8516 20.7777 51.9638 20.7777 52.0415 20.674C52.1192 20.6222 52.1537 20.6222 52.1537 20.6222C52.1882 20.674 52.5249 20.7259 53.1119 20.7259C54.26 20.7777 54.5535 20.7777 54.7347 20.674C54.7347 20.674 54.8469 20.6222 54.916 20.6222C55.0627 20.5185 55.0973 20.4666 55.0282 20.3629C54.9937 20.3111 55.0282 20.3111 55.0628 20.3111C55.175 20.3111 55.2095 20.2074 55.2095 20.0519C55.2095 20 55.244 19.9482 55.2872 19.8963C55.3217 19.8445 55.3217 19.7926 55.3217 19.6889C55.2872 19.5852 55.2872 19.4815 55.2872 19.4297C55.2872 19.2741 55.3994 19.0149 55.4685 18.9112C55.4685 18.9112 55.503 18.8594 55.4685 18.8594C55.4685 18.8594 55.503 18.7557 55.5807 18.652C55.6584 18.4964 55.6929 18.4446 55.6152 18.4446C55.5922 18.41 55.5807 18.3755 55.5807 18.3409C55.6152 18.1335 55.6929 18.0298 55.762 18.0298C55.762 18.0298 55.8396 17.978 55.8396 17.9261C55.9173 17.8224 56.0209 17.2521 56.0209 17.2003H56.0554V17.0966C56.0554 17.0447 56.0554 16.941 56.09 16.8892C56.09 16.8546 56.0785 16.8373 56.0554 16.8373C56.0554 16.8373 55.9778 16.7855 55.9432 16.7855C55.9087 16.7336 55.831 16.6818 55.762 16.6299C55.6843 16.6299 55.6843 16.5781 55.6843 16.5263C55.7188 16.4744 55.7188 16.4226 55.572 16.267C55.4944 16.1115 54.9851 16.0596 54.3894 16.1633C54.2082 16.1633 53.9492 16.2152 53.8025 16.2152C53.6902 16.2152 53.509 16.267 53.4313 16.267C53.3536 16.267 53.2845 16.3189 53.25 16.3189C53.2155 16.3189 53.1723 16.3707 53.1033 16.3707C53.0256 16.4226 52.8443 16.4226 52.4386 16.3707C51.8861 16.3707 51.4373 16.3707 50.6258 16.4226C49.7367 16.5263 49.5554 16.5263 49.331 16.5263C47.3715 16.4744 46.9313 16.4226 46.8967 16.4226C46.8191 16.3707 46.1199 16.3707 45.8264 16.4226C45.6796 16.4744 45.5674 16.4744 45.5329 16.4226C45.5329 16.4226 45.3861 16.4226 45.2394 16.4744C45.0581 16.5263 44.8337 16.5263 44.7214 16.5263C44.6092 16.5263 44.3848 16.4744 44.2812 16.4744C44.1776 16.4744 44.0222 16.4226 43.9446 16.3707C43.8669 16.3189 43.6856 16.267 43.0554 16.267C42.6152 16.267 42.0541 16.3189 41.7952 16.3189C41.5362 16.3189 40.9837 16.3707 40.578 16.3707C39.6889 16.4226 39.3177 16.4226 39.2832 16.5263C39.2487 16.5781 39.1019 16.5781 39.0588 16.5263C39.0242 16.4226 38.3596 16.5263 38.3596 16.6299C38.325 16.6818 38.2128 16.6818 38.2128 16.6299C38.2128 16.5781 37.9539 16.5781 37.6604 16.5781C37.3669 16.5781 36.9612 16.5263 36.8144 16.5263C35.4851 16.4226 33.0853 16.4226 32.8954 16.5781H32.6019C32.4897 16.5263 32.1962 16.5781 32.0149 16.5781C31.8337 16.6299 31.6092 16.6818 31.5747 16.6818C31.497 16.6818 31.3157 16.7336 31.169 16.7336C30.9877 16.7855 30.91 16.7336 30.8755 16.7336C30.841 16.6818 30.7288 16.6299 30.6165 16.6299C30.4698 16.6299 30.3576 16.5781 30.323 16.5781C30.2885 16.5781 30.0986 16.5781 29.8828 16.6299C29.6123 16.6645 29.244 16.6645 28.7779 16.6299C28.3376 16.5781 28.0355 16.5781 27.8197 16.6299C27.414 16.6818 27.3363 16.6818 27.2327 16.6299C27.0083 16.6299 26.0156 16.7336 25.8257 16.7855C25.4545 16.941 24.7208 17.0447 23.7971 17.0966C23.5727 17.0966 23.3569 17.1484 23.3137 17.1484C23.2361 17.2003 23.2015 17.2003 23.0893 17.1484H22.8303C22.7527 17.2003 22.5714 17.2003 22.4246 17.2003C22.2002 17.1484 22.1657 17.2003 22.088 17.304C22.0535 17.3558 21.9758 17.4595 21.9412 17.4595C21.829 17.4595 21.7168 17.6669 21.7168 17.9261C21.7168 18.0298 21.6823 18.1854 21.6823 18.2891C21.6477 18.3927 21.6823 18.4446 21.7168 18.4964C21.7945 18.5483 21.7945 18.6001 21.7945 18.652C21.7945 18.7038 21.829 18.7557 21.8722 18.7557C21.9067 18.8075 21.9067 18.8594 21.9067 18.9112V18.9631C21.9412 19.0149 21.9844 19.0149 21.9844 19.0668C21.9844 19.1705 22.2434 19.4815 22.3901 19.5334C22.5369 19.5852 22.7268 19.6889 22.6836 19.7926C22.6836 19.8445 22.7181 19.8445 22.8303 19.8445C22.9426 19.8445 22.9426 19.8445 22.908 19.8445L22.7958 19.8963L22.908 20C22.9426 20.0519 23.0203 20.1037 23.0548 20.1037C23.0893 20.1037 23.167 20.1037 23.167 20.1555C23.167 20.2074 23.6072 20.3629 23.8662 20.3629C24.0129 20.3629 24.0906 20.4148 24.1597 20.4666C24.2374 20.5703 24.3064 20.6222 24.341 20.6222C24.4187 20.6222 24.5654 20.6222 24.6776 20.674C24.8244 20.7259 25.0143 20.7259 25.2301 20.674C25.3768 20.674 26.007 20.6222 26.594 20.6222C27.5521 20.6222 27.6298 20.6222 27.8542 20.5185C28.001 20.4148 28.1132 20.4148 28.4844 20.4148C28.8901 20.4148 29.1491 20.4148 29.8914 20.5703C30.3317 20.6222 31.8164 20.7259 32.5847 20.7259C34.3197 20.674 34.6564 20.674 34.9153 20.6222C35.3556 20.5703 37.0561 20.5703 37.6863 20.6222H38.6099C38.7912 20.5703 39.0933 20.5185 39.3091 20.5185C39.4904 20.4666 39.6803 20.4666 39.6803 20.4148H39.8616C40.0083 20.5185 41.1218 20.5185 41.5276 20.4666C41.7865 20.4148 42.5289 20.4148 42.8569 20.4666H44.005C44.5574 20.5185 45.1099 20.5185 45.2221 20.5703C45.3343 20.5703 45.5588 20.6222 45.7055 20.674C45.8177 20.674 46.1889 20.7259 46.5169 20.7259C46.8104 20.7259 47.0694 20.7777 47.1039 20.7777C47.1039 20.7777 47.2852 20.7777 47.5096 20.7259H48.8045C48.8045 20.6222 49.2878 20.5703 49.2878 20.6222C49.2878 20.674 49.5468 20.674 49.5813 20.6222H49.6936C49.7281 20.674 49.9525 20.7259 50.177 20.7777C50.3582 20.7777 50.5481 20.8296 50.5481 20.8296H50.8848H50.8589Z" fill="#020202"></path><path d="M26.5415 27.0942C26.5156 27.0424 26.5156 26.9905 26.5415 26.9387C26.5674 26.8868 26.576 26.9905 26.576 27.0942C26.576 27.1979 26.5587 27.1979 26.5415 27.0942ZM26.9644 27.4053H26.9903H26.9731H26.9644ZM27.0335 27.6645C27.022 27.5954 27.022 27.5436 27.0335 27.509C27.0508 27.4572 27.068 27.5609 27.068 27.6645C27.068 27.7682 27.0421 27.7682 27.0335 27.6645ZM26.6451 27.7682C26.6451 27.7337 26.6451 27.7164 26.6451 27.7164C26.6451 27.7164 26.6451 27.7164 26.6451 27.7682ZM26.6278 27.9756C26.6278 27.8719 26.6278 27.8201 26.6451 27.8719C26.6623 27.8719 26.6623 27.9238 26.6623 27.9756C26.6623 28.0793 26.6364 28.0793 26.6364 27.9756H26.6278ZM26.6278 28.5459C26.6278 28.4423 26.6278 28.3904 26.6623 28.4423C26.6796 28.4941 26.6882 28.4941 26.6623 28.5459C26.6364 28.5978 26.6192 28.5978 26.6192 28.5459H26.6278ZM32.3077 29.6347C32.3077 29.6347 32.4027 29.5829 32.4545 29.5829C32.5149 29.5829 32.5408 29.5829 32.5494 29.4792C32.5667 29.4273 32.5753 29.4273 32.5753 29.4273C32.5753 29.4792 32.653 29.531 32.7739 29.531C33.0069 29.5829 33.0674 29.5829 33.1019 29.4792C33.1019 29.4792 33.1278 29.4273 33.1364 29.4273C33.1623 29.3237 33.171 29.2718 33.1623 29.1681C33.1623 29.1163 33.1623 29.1163 33.1623 29.1163C33.1882 29.1163 33.1882 29.0126 33.1882 28.857C33.1882 28.8052 33.1882 28.7533 33.2055 28.7015C33.2227 28.6496 33.2055 28.5978 33.2055 28.4941C33.2055 28.3904 33.2055 28.2867 33.2055 28.2349C33.2055 28.0793 33.2314 27.8201 33.24 27.7164V27.6645C33.24 27.6645 33.24 27.5609 33.2659 27.4572C33.2832 27.3016 33.2918 27.2498 33.2659 27.2498C33.2659 27.2152 33.2659 27.1806 33.2659 27.1461C33.2659 26.9387 33.2918 26.835 33.3004 26.835C33.3004 26.835 33.3177 26.7831 33.3177 26.7313C33.335 26.6276 33.3522 26.0573 33.3522 26.0054V25.9017C33.3522 25.8499 33.3522 25.7462 33.3522 25.6944C33.3522 25.6598 33.3522 25.6425 33.3522 25.6425C33.3522 25.6425 33.335 25.5907 33.3263 25.5907C33.3263 25.5388 33.3004 25.487 33.2918 25.4351C33.2745 25.4351 33.2745 25.3833 33.2745 25.3314C33.2745 25.2796 33.2745 25.2277 33.2486 25.0722C33.2314 24.9167 33.1278 24.8648 33.0069 24.9685C32.9724 24.9685 32.9206 25.0203 32.8861 25.0203C32.8602 25.0203 32.8257 25.0722 32.8084 25.0722C32.7911 25.0722 32.7825 25.124 32.7739 25.124C32.7652 25.124 32.7566 25.1759 32.748 25.1759C32.7307 25.2277 32.6962 25.2277 32.6099 25.1759C32.4976 25.1759 32.4027 25.1759 32.2387 25.2277C32.0574 25.3314 32.0229 25.3314 31.9711 25.3314C31.574 25.2796 31.4791 25.2277 31.4704 25.2277C31.4532 25.1759 31.315 25.1759 31.2546 25.2277C31.2287 25.2796 31.2028 25.2796 31.1942 25.2277C31.1942 25.2277 31.1683 25.2277 31.1338 25.2796C31.0992 25.3314 31.0474 25.3314 31.0302 25.3314C31.0129 25.3314 30.9611 25.2796 30.9439 25.2796C30.9266 25.2796 30.8921 25.2277 30.8748 25.1759C30.8575 25.124 30.823 25.0722 30.6935 25.0722C30.6072 25.0722 30.4864 25.124 30.4346 25.124C30.3828 25.124 30.2706 25.1759 30.1842 25.1759C30.003 25.2277 29.9253 25.2277 29.9166 25.3314C29.9166 25.3833 29.8821 25.3833 29.8735 25.3314C29.8735 25.2277 29.7267 25.3314 29.7267 25.4351C29.7267 25.487 29.7008 25.487 29.7008 25.4351C29.7008 25.3833 29.649 25.3833 29.5886 25.3833C29.5282 25.3833 29.4419 25.3314 29.416 25.3314C29.1484 25.2277 28.6563 25.2277 28.6218 25.3833H28.5614C28.5355 25.3314 28.4751 25.3833 28.4405 25.3833C28.406 25.4351 28.3542 25.487 28.3542 25.487C28.337 25.487 28.3024 25.5388 28.2679 25.5388C28.2334 25.5907 28.2161 25.5388 28.2075 25.5388C28.2075 25.487 28.1816 25.4351 28.1557 25.4351C28.1298 25.4351 28.1039 25.3833 28.0953 25.3833C28.0866 25.3833 28.0521 25.3833 28.0089 25.4351C27.9514 25.4697 27.8766 25.4697 27.7845 25.4351C27.6982 25.3833 27.6378 25.3833 27.586 25.4351C27.4996 25.487 27.491 25.487 27.4651 25.4351C27.4219 25.4351 27.2148 25.5388 27.1802 25.5907C27.1026 25.7462 26.9558 25.8499 26.7659 25.9017C26.7227 25.9017 26.6796 25.9536 26.671 25.9536C26.6537 26.0054 26.6451 26.0054 26.6278 25.9536H26.576C26.5587 26.0054 26.5242 26.0054 26.4897 26.0054C26.4465 25.9536 26.4379 26.0054 26.4206 26.1091C26.4206 26.161 26.3947 26.2647 26.3947 26.2647C26.3688 26.2647 26.3516 26.4721 26.3516 26.7313C26.3516 26.835 26.3516 26.9905 26.3516 27.0942C26.3516 27.1979 26.3516 27.2498 26.3516 27.3016C26.3688 27.3535 26.3688 27.4053 26.3688 27.4572C26.3688 27.509 26.3688 27.5609 26.3861 27.5609C26.3861 27.6127 26.3861 27.6645 26.3861 27.7164V27.7682C26.3861 27.8201 26.4034 27.8201 26.4034 27.8719C26.4034 27.9756 26.4551 28.2867 26.4897 28.3386C26.5156 28.3904 26.5587 28.4941 26.5501 28.5978C26.5501 28.6496 26.5501 28.6496 26.576 28.6496C26.6019 28.6496 26.6019 28.6496 26.5933 28.6496L26.5674 28.7015L26.5933 28.8052C26.5933 28.857 26.6192 28.9089 26.6192 28.9089C26.6192 28.9089 26.6451 28.9089 26.6451 28.9607C26.6451 29.0126 26.7314 29.1681 26.7918 29.1681C26.8177 29.1681 26.835 29.22 26.8522 29.2718C26.8695 29.3755 26.8781 29.4273 26.8868 29.4273C26.904 29.4273 26.9299 29.4273 26.9558 29.4792C26.9817 29.531 27.0249 29.531 27.068 29.4792C27.0939 29.4792 27.2234 29.4273 27.3443 29.4273C27.5428 29.4273 27.5514 29.4273 27.6032 29.3237C27.6291 29.22 27.655 29.22 27.7327 29.22C27.819 29.22 27.8708 29.22 28.0176 29.3755C28.1039 29.4273 28.406 29.531 28.57 29.531C28.9239 29.4792 28.993 29.4792 29.0448 29.4273C29.1311 29.3755 29.485 29.3755 29.6059 29.4273H29.7958C29.8303 29.3755 29.8907 29.3237 29.9425 29.3237C29.9771 29.2718 30.0202 29.2718 30.0202 29.22H30.0548C30.0806 29.3237 30.3137 29.3237 30.3914 29.2718C30.4432 29.22 30.5986 29.22 30.659 29.2718H30.8921C31.0043 29.3237 31.1165 29.3236 31.1424 29.3755C31.1683 29.3755 31.2115 29.4273 31.2374 29.4792C31.2632 29.4792 31.3323 29.531 31.4014 29.531C31.4618 29.531 31.5136 29.5829 31.5222 29.5829C31.5222 29.5829 31.5567 29.5829 31.6085 29.531H31.8761C31.8761 29.4273 31.9711 29.3755 31.9711 29.4273C31.9711 29.4792 32.0229 29.4792 32.0315 29.4273H32.0574C32.0574 29.4792 32.1092 29.531 32.1524 29.5829C32.1869 29.5829 32.23 29.6347 32.23 29.6347H32.2991H32.3077Z" fill="#020202"></path><path d="M35.4087 26.8955C35.3828 26.8437 35.3828 26.7918 35.4087 26.74C35.4346 26.6881 35.4432 26.7918 35.4432 26.8955C35.4432 26.9992 35.4259 26.9992 35.4087 26.8955ZM35.8316 27.2066H35.8575H35.8403H35.8316ZM35.9007 27.4658C35.8892 27.3967 35.8892 27.3448 35.9007 27.3103C35.918 27.2584 35.9352 27.3621 35.9352 27.4658C35.9352 27.5695 35.9093 27.5695 35.9007 27.4658ZM35.5122 27.5695C35.5122 27.5349 35.5122 27.5177 35.5122 27.5177C35.5122 27.5177 35.5122 27.5177 35.5122 27.5695ZM35.495 27.7769C35.495 27.6732 35.495 27.6214 35.5122 27.6732C35.5295 27.6732 35.5295 27.7251 35.5295 27.7769C35.5295 27.8806 35.5036 27.8806 35.5036 27.7769H35.495ZM35.495 28.3472C35.495 28.2435 35.495 28.1917 35.5295 28.2435C35.5468 28.2954 35.5554 28.2954 35.5295 28.3472C35.5036 28.3991 35.4863 28.3991 35.4863 28.3472H35.495ZM41.1749 29.436C41.1749 29.436 41.2699 29.3842 41.3217 29.3842C41.3821 29.3842 41.408 29.3842 41.4166 29.2805C41.4339 29.2286 41.4425 29.2286 41.4425 29.2286C41.4425 29.2805 41.5202 29.3323 41.6411 29.3323C41.8741 29.3842 41.9346 29.3842 41.9691 29.2805C41.9691 29.2805 41.995 29.2286 42.0036 29.2286C42.0295 29.1249 42.0381 29.0731 42.0295 28.9694C42.0295 28.9175 42.0295 28.9175 42.0295 28.9175C42.0554 28.9175 42.0554 28.8138 42.0554 28.6583C42.0554 28.6064 42.0554 28.5546 42.0727 28.5028C42.0727 28.4509 42.0727 28.3991 42.0727 28.2954C42.0727 28.1917 42.0727 28.088 42.0727 28.0361C42.0727 27.8806 42.0986 27.6214 42.1072 27.5177V27.4658C42.1072 27.4658 42.1072 27.3621 42.1331 27.2584C42.1504 27.1029 42.159 27.051 42.1331 27.051C42.1331 27.0165 42.1331 26.9819 42.1331 26.9473C42.1331 26.74 42.159 26.6363 42.1676 26.6363C42.1676 26.6363 42.1849 26.5844 42.1849 26.5326C42.2021 26.4289 42.2194 25.8586 42.2194 25.8067V25.703C42.2194 25.6512 42.2194 25.5475 42.2194 25.4956C42.2194 25.4611 42.2194 25.4438 42.2194 25.4438C42.2194 25.4438 42.2021 25.3919 42.1935 25.3919C42.1935 25.3401 42.1676 25.2882 42.159 25.2364C42.1417 25.2364 42.1417 25.1845 42.1417 25.1327C42.1417 25.0809 42.1417 25.029 42.1158 24.8735C42.0986 24.7179 41.995 24.6661 41.8741 24.7698C41.8396 24.7698 41.7878 24.8216 41.7533 24.8216C41.7274 24.8216 41.6929 24.8735 41.6756 24.8735C41.6583 24.8735 41.6497 24.9253 41.6411 24.9253C41.6324 24.9253 41.6238 24.9772 41.6152 24.9772C41.5979 25.029 41.5634 25.029 41.477 24.9772C41.3648 24.9772 41.2699 24.9772 41.1059 25.029C40.9246 25.1327 40.8901 25.1327 40.8383 25.1327C40.4412 25.0809 40.3462 25.029 40.3376 25.029C40.3203 24.9772 40.1822 24.9772 40.1218 25.029C40.0959 25.0809 40.07 25.0809 40.0614 25.029C40.0614 25.029 40.0355 25.029 40.001 25.0809C39.9664 25.1327 39.9146 25.1327 39.8974 25.1327C39.8801 25.1327 39.8283 25.0809 39.811 25.0809C39.7938 25.0809 39.7593 25.029 39.742 24.9772C39.7247 24.9253 39.6902 24.8735 39.5607 24.8735C39.4744 24.8735 39.3535 24.9253 39.3018 24.9253C39.25 24.9253 39.1377 24.9772 39.0514 24.9772C38.8701 25.029 38.7925 25.029 38.7838 25.1327C38.7838 25.1845 38.7493 25.1845 38.7407 25.1327C38.7407 25.029 38.5939 25.1327 38.5939 25.2364C38.5939 25.2882 38.568 25.2882 38.568 25.2364C38.568 25.1845 38.5162 25.1845 38.4558 25.1845C38.3954 25.1845 38.3091 25.1327 38.2832 25.1327C38.0156 25.029 37.5235 25.029 37.489 25.1845H37.4286C37.4027 25.1327 37.3423 25.1845 37.3077 25.1845C37.2732 25.2364 37.2214 25.2882 37.2214 25.2882C37.2041 25.2882 37.1696 25.3401 37.1351 25.3401C37.1006 25.3919 37.0833 25.3401 37.0747 25.3401C37.0747 25.2882 37.0488 25.2364 37.0229 25.2364C36.997 25.2364 36.9711 25.1845 36.9624 25.1845C36.9538 25.1845 36.9193 25.1845 36.8761 25.2364C36.8186 25.271 36.7438 25.271 36.6517 25.2364C36.5654 25.1845 36.5049 25.1845 36.4531 25.2364C36.3668 25.2882 36.3582 25.2882 36.3323 25.2364C36.2891 25.2364 36.082 25.3401 36.0474 25.3919C35.9697 25.5475 35.823 25.6512 35.6331 25.703C35.5899 25.703 35.5468 25.7549 35.5381 25.7549C35.5209 25.8067 35.5122 25.8067 35.495 25.7549H35.4432C35.4259 25.8067 35.3914 25.8067 35.3569 25.8067C35.3137 25.7549 35.3051 25.8067 35.2878 25.9104C35.2878 25.9623 35.2619 26.0659 35.2619 26.0659C35.236 26.0659 35.2188 26.2733 35.2188 26.5326C35.2188 26.6363 35.2188 26.7918 35.2188 26.8955C35.2188 26.9992 35.2188 27.051 35.2188 27.1029C35.236 27.1547 35.236 27.2066 35.236 27.2584C35.236 27.3103 35.236 27.3621 35.2533 27.3621C35.2533 27.414 35.2533 27.4658 35.2533 27.5177V27.5695C35.2533 27.6214 35.2705 27.6214 35.2705 27.6732C35.2705 27.7769 35.3223 28.088 35.3569 28.1398C35.3914 28.1917 35.4259 28.2954 35.4173 28.3991C35.4173 28.4509 35.4173 28.4509 35.4432 28.4509C35.4691 28.4509 35.4691 28.4509 35.4604 28.4509L35.4346 28.5028L35.4604 28.6065C35.4604 28.6583 35.4863 28.7101 35.4863 28.7101C35.4863 28.7101 35.5122 28.7101 35.5122 28.762C35.5122 28.8138 35.5986 28.9694 35.659 28.9694C35.6849 28.9694 35.7021 29.0212 35.7194 29.0731C35.7367 29.1768 35.7453 29.2286 35.7539 29.2286C35.7712 29.2286 35.7971 29.2286 35.823 29.2805C35.8489 29.3323 35.8921 29.3323 35.9352 29.2805C35.9611 29.2805 36.0906 29.2286 36.2114 29.2286C36.41 29.2286 36.4186 29.2286 36.4704 29.1249C36.4963 29.0212 36.5222 29.0212 36.5999 29.0212C36.6862 29.0212 36.738 29.0212 36.8848 29.1768C36.9711 29.2286 37.2732 29.3323 37.4372 29.3323C37.7911 29.2805 37.8602 29.2805 37.912 29.2286C37.9983 29.1768 38.3522 29.1768 38.4731 29.2286H38.663C38.6975 29.1768 38.7579 29.1249 38.8097 29.1249C38.8442 29.0731 38.8874 29.0731 38.8874 29.0212H38.9219C38.9478 29.1249 39.1809 29.1249 39.2586 29.0731C39.3104 29.0212 39.4658 29.0212 39.5262 29.0731H39.7593C39.8715 29.1249 39.9837 29.1249 40.0096 29.1768C40.0355 29.1768 40.0786 29.2286 40.1045 29.2805C40.1304 29.2805 40.1995 29.3323 40.2685 29.3323C40.329 29.3323 40.3808 29.3842 40.3894 29.3842C40.3894 29.3842 40.4239 29.3842 40.4757 29.3323H40.7433C40.7433 29.2286 40.8383 29.1768 40.8383 29.2286C40.8383 29.2805 40.8901 29.2805 40.8987 29.2286H40.9246C40.9246 29.2805 40.9764 29.3323 41.0195 29.3842C41.0541 29.3842 41.0972 29.436 41.0972 29.436H41.1663H41.1749Z" fill="#020202"></path><path d="M44.7641 26.8955C44.7382 26.8437 44.7382 26.7918 44.7641 26.74C44.79 26.6881 44.7987 26.7918 44.7987 26.8955C44.7987 26.9992 44.7814 26.9992 44.7641 26.8955ZM45.1871 27.2066H45.213H45.1957H45.1871ZM45.2562 27.4658C45.2446 27.3967 45.2446 27.3448 45.2562 27.3103C45.2734 27.2584 45.2907 27.3621 45.2907 27.4658C45.2907 27.5695 45.2648 27.5695 45.2562 27.4658ZM44.8677 27.5695C44.8677 27.5349 44.8677 27.5177 44.8677 27.5177C44.8677 27.5177 44.8677 27.5177 44.8677 27.5695ZM44.8504 27.7769C44.8504 27.6732 44.8504 27.6214 44.8677 27.6732C44.885 27.6732 44.885 27.7251 44.885 27.7769C44.885 27.8806 44.8591 27.8806 44.8591 27.7769H44.8504ZM44.8504 28.3472C44.8504 28.2435 44.8504 28.1917 44.885 28.2435C44.9022 28.2954 44.9109 28.2954 44.885 28.3472C44.8591 28.3991 44.8418 28.3991 44.8418 28.3472H44.8504ZM50.5304 29.436C50.5304 29.436 50.6253 29.3842 50.6771 29.3842C50.7376 29.3842 50.7635 29.3842 50.7721 29.2805C50.7894 29.2286 50.798 29.2286 50.798 29.2286C50.798 29.2805 50.8757 29.3323 50.9965 29.3323C51.2296 29.3842 51.29 29.3842 51.3246 29.2805C51.3246 29.2805 51.3504 29.2286 51.3591 29.2286C51.385 29.1249 51.3936 29.0731 51.385 28.9694C51.385 28.9175 51.385 28.9175 51.385 28.9175C51.4109 28.9175 51.4109 28.8138 51.4109 28.6583C51.4109 28.6064 51.4109 28.5546 51.4281 28.5028C51.4281 28.4509 51.4281 28.3991 51.4281 28.2954C51.4281 28.1917 51.4281 28.088 51.4281 28.0361C51.4281 27.8806 51.454 27.6214 51.4627 27.5177V27.4658C51.4627 27.4658 51.4627 27.3621 51.4886 27.2584C51.5058 27.1029 51.5145 27.051 51.4886 27.051C51.4886 27.0165 51.4886 26.9819 51.4886 26.9473C51.4886 26.74 51.5145 26.6363 51.5231 26.6363C51.5231 26.6363 51.5404 26.5844 51.5404 26.5326C51.5576 26.4289 51.5749 25.8586 51.5749 25.8067V25.703C51.5749 25.6512 51.5749 25.5475 51.5749 25.4956C51.5749 25.4611 51.5749 25.4438 51.5749 25.4438C51.5749 25.4438 51.5576 25.3919 51.549 25.3919C51.549 25.3401 51.5231 25.2882 51.5145 25.2364C51.4972 25.2364 51.4972 25.1845 51.4972 25.1327C51.4972 25.0809 51.4972 25.029 51.4713 24.8735C51.454 24.7179 51.3504 24.6661 51.2296 24.7698C51.1951 24.7698 51.1433 24.8216 51.1087 24.8216C51.0829 24.8216 51.0483 24.8735 51.0311 24.8735C51.0138 24.8735 51.0052 24.9253 50.9965 24.9253C50.9879 24.9253 50.9793 24.9772 50.9706 24.9772C50.9534 25.029 50.9188 25.029 50.8325 24.9772C50.7203 24.9772 50.6253 24.9772 50.4613 25.029C50.2801 25.1327 50.2455 25.1327 50.1937 25.1327C49.7967 25.0809 49.7017 25.029 49.6931 25.029C49.6758 24.9772 49.5377 24.9772 49.4773 25.029C49.4514 25.0809 49.4255 25.0809 49.4168 25.029C49.4168 25.029 49.391 25.029 49.3564 25.0809C49.3219 25.1327 49.2701 25.1327 49.2528 25.1327C49.2356 25.1327 49.1838 25.0809 49.1665 25.0809C49.1493 25.0809 49.1147 25.029 49.0975 24.9772C49.0802 24.9253 49.0457 24.8735 48.9162 24.8735C48.8299 24.8735 48.709 24.9253 48.6572 24.9253C48.6054 24.9253 48.4932 24.9772 48.4069 24.9772C48.2256 25.029 48.1479 25.029 48.1393 25.1327C48.1393 25.1845 48.1048 25.1845 48.0961 25.1327C48.0961 25.029 47.9494 25.1327 47.9494 25.2364C47.9494 25.2882 47.9235 25.2882 47.9235 25.2364C47.9235 25.1845 47.8717 25.1845 47.8113 25.1845C47.7508 25.1845 47.6645 25.1327 47.6386 25.1327C47.371 25.029 46.879 25.029 46.8445 25.1845H46.784C46.7582 25.1327 46.6977 25.1845 46.6632 25.1845C46.6287 25.2364 46.5769 25.2882 46.5769 25.2882C46.5596 25.2882 46.5251 25.3401 46.4906 25.3401C46.456 25.3919 46.4388 25.3401 46.4301 25.3401C46.4301 25.2882 46.4042 25.2364 46.3783 25.2364C46.3524 25.2364 46.3265 25.1845 46.3179 25.1845C46.3093 25.1845 46.2748 25.1845 46.2316 25.2364C46.174 25.271 46.0992 25.271 46.0072 25.2364C45.9208 25.1845 45.8604 25.1845 45.8086 25.2364C45.7223 25.2882 45.7137 25.2882 45.6878 25.2364C45.6446 25.2364 45.4374 25.3401 45.4029 25.3919C45.3252 25.5475 45.1785 25.6512 44.9886 25.703C44.9454 25.703 44.9022 25.7549 44.8936 25.7549C44.8763 25.8067 44.8677 25.8067 44.8504 25.7549H44.7987C44.7814 25.8067 44.7469 25.8067 44.7123 25.8067C44.6692 25.7549 44.6605 25.8067 44.6433 25.9104C44.6433 25.9623 44.6174 26.0659 44.6174 26.0659C44.5915 26.0659 44.5742 26.2733 44.5742 26.5326C44.5742 26.6363 44.5742 26.7918 44.5742 26.8955C44.5742 26.9992 44.5742 27.051 44.5742 27.1029C44.5915 27.1547 44.5915 27.2066 44.5915 27.2584C44.5915 27.3103 44.5915 27.3621 44.6087 27.3621C44.6087 27.414 44.6087 27.4658 44.6087 27.5177V27.5695C44.6087 27.6214 44.626 27.6214 44.626 27.6732C44.626 27.7769 44.6778 28.088 44.7123 28.1398C44.7469 28.1917 44.7814 28.2954 44.7728 28.3991C44.7728 28.4509 44.7728 28.4509 44.7987 28.4509C44.8246 28.4509 44.8246 28.4509 44.8159 28.4509L44.79 28.5028L44.8159 28.6065C44.8159 28.6583 44.8418 28.7101 44.8418 28.7101C44.8418 28.7101 44.8677 28.7101 44.8677 28.762C44.8677 28.8138 44.954 28.9694 45.0145 28.9694C45.0404 28.9694 45.0576 29.0212 45.0749 29.0731C45.0921 29.1768 45.1008 29.2286 45.1094 29.2286C45.1267 29.2286 45.1526 29.2286 45.1785 29.2805C45.2044 29.3323 45.2475 29.3323 45.2907 29.2805C45.3166 29.2805 45.4461 29.2286 45.5669 29.2286C45.7655 29.2286 45.7741 29.2286 45.8259 29.1249C45.8518 29.0212 45.8777 29.0212 45.9554 29.0212C46.0417 29.0212 46.0935 29.0212 46.2402 29.1768C46.3265 29.2286 46.6287 29.3323 46.7927 29.3323C47.1466 29.2805 47.2157 29.2805 47.2674 29.2286C47.3538 29.1768 47.7077 29.1768 47.8285 29.2286H48.0184C48.053 29.1768 48.1134 29.1249 48.1652 29.1249C48.1997 29.0731 48.2429 29.0731 48.2429 29.0212H48.2774C48.3033 29.1249 48.5364 29.1249 48.6141 29.0731C48.6659 29.0212 48.8212 29.0212 48.8817 29.0731H49.1147C49.2269 29.1249 49.3392 29.1249 49.3651 29.1768C49.391 29.1768 49.4341 29.2286 49.46 29.2805C49.4859 29.2805 49.555 29.3323 49.624 29.3323C49.6844 29.3323 49.7362 29.3842 49.7449 29.3842C49.7449 29.3842 49.7794 29.3842 49.8312 29.3323H50.0988C50.0988 29.2286 50.1937 29.1768 50.1937 29.2286C50.1937 29.2805 50.2455 29.2805 50.2542 29.2286H50.2801C50.2801 29.2805 50.3319 29.3323 50.375 29.3842C50.4095 29.3842 50.4527 29.436 50.4527 29.436H50.5218H50.5304Z" fill="#020202"></path><path d="M26.5415 34.6206C26.5156 34.5687 26.5156 34.5169 26.5415 34.4651C26.5674 34.4132 26.576 34.5169 26.576 34.6206C26.576 34.7243 26.5587 34.7243 26.5415 34.6206ZM26.9644 34.9317H26.9903H26.9731H26.9644ZM27.0335 35.1909C27.022 35.1218 27.022 35.0699 27.0335 35.0354C27.0508 34.9835 27.068 35.0872 27.068 35.1909C27.068 35.2946 27.0421 35.2946 27.0335 35.1909ZM26.6451 35.2946C26.6451 35.26 26.6451 35.2428 26.6451 35.2428C26.6451 35.2428 26.6451 35.2428 26.6451 35.2946ZM26.6278 35.502C26.6278 35.3983 26.6278 35.3465 26.6451 35.3983C26.6623 35.3983 26.6623 35.4501 26.6623 35.502C26.6623 35.6057 26.6364 35.6057 26.6364 35.502H26.6278ZM26.6278 36.0723C26.6278 35.9686 26.6278 35.9168 26.6623 35.9686C26.6796 36.0205 26.6882 36.0205 26.6623 36.0723C26.6364 36.1242 26.6192 36.1242 26.6192 36.0723H26.6278ZM32.3077 37.1611C32.3077 37.1611 32.4027 37.1093 32.4545 37.1093C32.5149 37.1093 32.5408 37.1093 32.5494 37.0056C32.5667 36.9537 32.5753 36.9537 32.5753 36.9537C32.5753 37.0056 32.653 37.0574 32.7739 37.0574C33.0069 37.1093 33.0674 37.1093 33.1019 37.0056C33.1019 37.0056 33.1278 36.9537 33.1364 36.9537C33.1623 36.85 33.171 36.7982 33.1623 36.6945C33.1623 36.6426 33.1623 36.6426 33.1623 36.6426C33.1882 36.6426 33.1882 36.5389 33.1882 36.3834C33.1882 36.3315 33.1882 36.2797 33.2055 36.2279C33.2227 36.176 33.2055 36.1242 33.2055 36.0205C33.2055 35.9168 33.2055 35.8131 33.2055 35.7612C33.2055 35.6057 33.2314 35.3465 33.24 35.2428V35.1909C33.24 35.1909 33.24 35.0872 33.2659 34.9835C33.2832 34.828 33.2918 34.7761 33.2659 34.7761C33.2659 34.7416 33.2659 34.707 33.2659 34.6724C33.2659 34.4651 33.2918 34.3614 33.3004 34.3614C33.3004 34.3614 33.3177 34.3095 33.3177 34.2577C33.335 34.154 33.3522 33.5837 33.3522 33.5318V33.4281C33.3522 33.3763 33.3522 33.2726 33.3522 33.2207C33.3522 33.1862 33.3522 33.1689 33.3522 33.1689C33.3522 33.1689 33.335 33.117 33.3263 33.117C33.3263 33.0652 33.3004 33.0133 33.2918 32.9615C33.2745 32.9615 33.2745 32.9096 33.2745 32.8578C33.2745 32.8059 33.2745 32.7541 33.2486 32.5986C33.2314 32.443 33.1278 32.3912 33.0069 32.4949C32.9724 32.4949 32.9206 32.5467 32.8861 32.5467C32.8602 32.5467 32.8257 32.5986 32.8084 32.5986C32.7911 32.5986 32.7825 32.6504 32.7739 32.6504C32.7652 32.6504 32.7566 32.7023 32.748 32.7023C32.7307 32.7541 32.6962 32.7541 32.6099 32.7023C32.4976 32.7023 32.4027 32.7023 32.2387 32.7541C32.0574 32.8578 32.0229 32.8578 31.9711 32.8578C31.574 32.8059 31.4791 32.7541 31.4704 32.7541C31.4532 32.7023 31.315 32.7023 31.2546 32.7541C31.2287 32.8059 31.2028 32.8059 31.1942 32.7541C31.1942 32.7541 31.1683 32.7541 31.1338 32.8059C31.0992 32.8578 31.0474 32.8578 31.0302 32.8578C31.0129 32.8578 30.9611 32.8059 30.9439 32.8059C30.9266 32.8059 30.8921 32.7541 30.8748 32.7023C30.8575 32.6504 30.823 32.5986 30.6935 32.5986C30.6072 32.5986 30.4864 32.6504 30.4346 32.6504C30.3828 32.6504 30.2706 32.7023 30.1842 32.7023C30.003 32.7541 29.9253 32.7541 29.9166 32.8578C29.9166 32.9096 29.8821 32.9096 29.8735 32.8578C29.8735 32.7541 29.7267 32.8578 29.7267 32.9615C29.7267 33.0133 29.7008 33.0133 29.7008 32.9615C29.7008 32.9096 29.649 32.9096 29.5886 32.9096C29.5282 32.9096 29.4419 32.8578 29.416 32.8578C29.1484 32.7541 28.6563 32.7541 28.6218 32.9096H28.5614C28.5355 32.8578 28.4751 32.9096 28.4405 32.9096C28.406 32.9615 28.3542 33.0133 28.3542 33.0133C28.337 33.0133 28.3024 33.0652 28.2679 33.0652C28.2334 33.117 28.2161 33.0652 28.2075 33.0652C28.2075 33.0133 28.1816 32.9615 28.1557 32.9615C28.1298 32.9615 28.1039 32.9096 28.0953 32.9096C28.0866 32.9096 28.0521 32.9096 28.0089 32.9615C27.9514 32.9961 27.8766 32.9961 27.7845 32.9615C27.6982 32.9096 27.6378 32.9096 27.586 32.9615C27.4996 33.0133 27.491 33.0133 27.4651 32.9615C27.4219 32.9615 27.2148 33.0652 27.1802 33.117C27.1026 33.2726 26.9558 33.3763 26.7659 33.4281C26.7227 33.4281 26.6796 33.48 26.671 33.48C26.6537 33.5318 26.6451 33.5318 26.6278 33.48H26.576C26.5587 33.5318 26.5242 33.5318 26.4897 33.5318C26.4465 33.48 26.4379 33.5318 26.4206 33.6355C26.4206 33.6873 26.3947 33.791 26.3947 33.791C26.3688 33.791 26.3516 33.9984 26.3516 34.2577C26.3516 34.3614 26.3516 34.5169 26.3516 34.6206C26.3516 34.7243 26.3516 34.7761 26.3516 34.828C26.3688 34.8798 26.3688 34.9317 26.3688 34.9835C26.3688 35.0354 26.3688 35.0872 26.3861 35.0872C26.3861 35.1391 26.3861 35.1909 26.3861 35.2428V35.2946C26.3861 35.3465 26.4034 35.3465 26.4034 35.3983C26.4034 35.502 26.4551 35.8131 26.4897 35.8649C26.5156 35.9168 26.5587 36.0205 26.5501 36.1242C26.5501 36.176 26.5501 36.176 26.576 36.176C26.6019 36.176 26.6019 36.176 26.5933 36.176L26.5674 36.2279L26.5933 36.3315C26.5933 36.3834 26.6192 36.4352 26.6192 36.4352C26.6192 36.4352 26.6451 36.4352 26.6451 36.4871C26.6451 36.5389 26.7314 36.6945 26.7918 36.6945C26.8177 36.6945 26.835 36.7463 26.8522 36.7982C26.8695 36.9019 26.8781 36.9537 26.8868 36.9537C26.904 36.9537 26.9299 36.9537 26.9558 37.0056C26.9817 37.0574 27.0249 37.0574 27.068 37.0056C27.0939 37.0056 27.2234 36.9537 27.3443 36.9537C27.5428 36.9537 27.5514 36.9537 27.6032 36.85C27.6291 36.7463 27.655 36.7463 27.7327 36.7463C27.819 36.7463 27.8708 36.7463 28.0176 36.9019C28.1039 36.9537 28.406 37.0574 28.57 37.0574C28.9239 37.0056 28.993 37.0056 29.0448 36.9537C29.1311 36.9019 29.485 36.9019 29.6059 36.9537H29.7958C29.8303 36.9019 29.8907 36.85 29.9425 36.85C29.9771 36.7982 30.0202 36.7982 30.0202 36.7463H30.0548C30.0806 36.85 30.3137 36.85 30.3914 36.7982C30.4432 36.7463 30.5986 36.7463 30.659 36.7982H30.8921C31.0043 36.85 31.1165 36.85 31.1424 36.9019C31.1683 36.9019 31.2115 36.9537 31.2374 37.0056C31.2632 37.0056 31.3323 37.0574 31.4014 37.0574C31.4618 37.0574 31.5136 37.1093 31.5222 37.1093C31.5222 37.1093 31.5567 37.1093 31.6085 37.0574H31.8761C31.8761 36.9537 31.9711 36.9019 31.9711 36.9537C31.9711 37.0056 32.0229 37.0056 32.0315 36.9537H32.0574C32.0574 37.0056 32.1092 37.0574 32.1524 37.1093C32.1869 37.1093 32.23 37.1611 32.23 37.1611H32.2991H32.3077Z" fill="#020202"></path><path d="M35.4087 34.4219C35.3828 34.37 35.3828 34.3182 35.4087 34.2663C35.4346 34.2145 35.4432 34.3182 35.4432 34.4219C35.4432 34.5256 35.4259 34.5256 35.4087 34.4219ZM35.8316 34.7329H35.8575H35.8403H35.8316ZM35.9007 34.9922C35.8892 34.9231 35.8892 34.8712 35.9007 34.8366C35.918 34.7848 35.9352 34.8885 35.9352 34.9922C35.9352 35.0959 35.9093 35.0959 35.9007 34.9922ZM35.5122 35.0959C35.5122 35.0613 35.5122 35.044 35.5122 35.044C35.5122 35.044 35.5122 35.044 35.5122 35.0959ZM35.495 35.3033C35.495 35.1996 35.495 35.1477 35.5122 35.1996C35.5295 35.1996 35.5295 35.2514 35.5295 35.3033C35.5295 35.407 35.5036 35.407 35.5036 35.3033H35.495ZM35.495 35.8736C35.495 35.7699 35.495 35.718 35.5295 35.7699C35.5468 35.8217 35.5554 35.8217 35.5295 35.8736C35.5036 35.9254 35.4863 35.9254 35.4863 35.8736H35.495ZM41.1749 36.9624C41.1749 36.9624 41.2699 36.9105 41.3217 36.9105C41.3821 36.9105 41.408 36.9105 41.4166 36.8068C41.4339 36.755 41.4425 36.755 41.4425 36.755C41.4425 36.8068 41.5202 36.8587 41.6411 36.8587C41.8741 36.9105 41.9346 36.9105 41.9691 36.8068C41.9691 36.8068 41.995 36.755 42.0036 36.755C42.0295 36.6513 42.0381 36.5994 42.0295 36.4957C42.0295 36.4439 42.0295 36.4439 42.0295 36.4439C42.0554 36.4439 42.0554 36.3402 42.0554 36.1847C42.0554 36.1328 42.0554 36.081 42.0727 36.0291C42.0899 35.9773 42.0727 35.9254 42.0727 35.8217C42.0727 35.718 42.0727 35.6143 42.0727 35.5625C42.0727 35.407 42.0986 35.1477 42.1072 35.044V34.9922C42.1072 34.9922 42.1072 34.8885 42.1331 34.7848C42.1504 34.6293 42.159 34.5774 42.1331 34.5774C42.1331 34.5428 42.1331 34.5083 42.1331 34.4737C42.1331 34.2663 42.159 34.1626 42.1676 34.1626C42.1676 34.1626 42.1849 34.1108 42.1849 34.0589C42.2021 33.9552 42.2194 33.3849 42.2194 33.3331V33.2294C42.2194 33.1775 42.2194 33.0738 42.2194 33.022C42.2194 32.9874 42.2194 32.9701 42.2194 32.9701C42.2194 32.9701 42.2021 32.9183 42.1935 32.9183C42.1935 32.8665 42.1676 32.8146 42.159 32.7628C42.1417 32.7628 42.1417 32.7109 42.1417 32.6591C42.1417 32.6072 42.1417 32.5554 42.1158 32.3998C42.0986 32.2443 41.995 32.1924 41.8741 32.2961C41.8396 32.2961 41.7878 32.348 41.7533 32.348C41.7274 32.348 41.6929 32.3998 41.6756 32.3998C41.6583 32.3998 41.6497 32.4517 41.6411 32.4517C41.6324 32.4517 41.6238 32.5035 41.6152 32.5035C41.5979 32.5554 41.5634 32.5554 41.477 32.5035C41.3648 32.5035 41.2699 32.5035 41.1059 32.5554C40.9246 32.6591 40.8901 32.6591 40.8383 32.6591C40.4412 32.6072 40.3462 32.5554 40.3376 32.5554C40.3203 32.5035 40.1822 32.5035 40.1218 32.5554C40.0959 32.6072 40.07 32.6072 40.0614 32.5554C40.0614 32.5554 40.0355 32.5554 40.001 32.6072C39.9664 32.6591 39.9146 32.6591 39.8974 32.6591C39.8801 32.6591 39.8283 32.6072 39.811 32.6072C39.7938 32.6072 39.7593 32.5554 39.742 32.5035C39.7247 32.4517 39.6902 32.3998 39.5607 32.3998C39.4744 32.3998 39.3535 32.4517 39.3018 32.4517C39.25 32.4517 39.1377 32.5035 39.0514 32.5035C38.8701 32.5554 38.7925 32.5554 38.7838 32.6591C38.7838 32.7109 38.7493 32.7109 38.7407 32.6591C38.7407 32.5554 38.5939 32.6591 38.5939 32.7628C38.5939 32.8146 38.568 32.8146 38.568 32.7628C38.568 32.7109 38.5162 32.7109 38.4558 32.7109C38.3954 32.7109 38.3091 32.6591 38.2832 32.6591C38.0156 32.5554 37.5235 32.5554 37.489 32.7109H37.4286C37.4027 32.6591 37.3423 32.7109 37.3077 32.7109C37.2732 32.7628 37.2214 32.8146 37.2214 32.8146C37.2041 32.8146 37.1696 32.8665 37.1351 32.8665C37.1006 32.9183 37.0833 32.8665 37.0747 32.8665C37.0747 32.8146 37.0488 32.7628 37.0229 32.7628C36.997 32.7628 36.9711 32.7109 36.9624 32.7109C36.9538 32.7109 36.9193 32.7109 36.8761 32.7628C36.8186 32.7973 36.7438 32.7973 36.6517 32.7628C36.5654 32.7109 36.5049 32.7109 36.4531 32.7628C36.3668 32.8146 36.3582 32.8146 36.3323 32.7628C36.2891 32.7628 36.082 32.8665 36.0474 32.9183C35.9697 33.0738 35.823 33.1775 35.6331 33.2294C35.5899 33.2294 35.5468 33.2812 35.5381 33.2812C35.5209 33.3331 35.5122 33.3331 35.495 33.2812H35.4432C35.4259 33.3331 35.3914 33.3331 35.3569 33.3331C35.3137 33.2812 35.3051 33.3331 35.2878 33.4368C35.2878 33.4886 35.2619 33.5923 35.2619 33.5923C35.236 33.5923 35.2188 33.7997 35.2188 34.0589C35.2188 34.1626 35.2188 34.3182 35.2188 34.4219C35.2188 34.5256 35.2188 34.5774 35.2188 34.6293C35.236 34.6811 35.236 34.7329 35.236 34.7848C35.236 34.8366 35.236 34.8885 35.2533 34.8885C35.2533 34.9403 35.2533 34.9922 35.2533 35.044V35.0959C35.2533 35.1477 35.2705 35.1477 35.2705 35.1996C35.2705 35.3033 35.3223 35.6143 35.3569 35.6662C35.3914 35.718 35.4259 35.8217 35.4173 35.9254C35.4173 35.9773 35.4173 35.9773 35.4432 35.9773C35.4691 35.9773 35.4691 35.9773 35.4604 35.9773L35.4346 36.0291L35.4604 36.1328C35.4604 36.1847 35.4863 36.2365 35.4863 36.2365C35.4863 36.2365 35.5122 36.2365 35.5122 36.2884C35.5122 36.3402 35.5986 36.4957 35.659 36.4957C35.6849 36.4957 35.7021 36.5476 35.7194 36.5994C35.7367 36.7031 35.7453 36.755 35.7539 36.755C35.7712 36.755 35.7971 36.755 35.823 36.8068C35.8489 36.8587 35.8921 36.8587 35.9352 36.8068C35.9611 36.8068 36.0906 36.755 36.2114 36.755C36.41 36.755 36.4186 36.755 36.4704 36.6513C36.4963 36.5476 36.5222 36.5476 36.5999 36.5476C36.6862 36.5476 36.738 36.5476 36.8848 36.7031C36.9711 36.755 37.2732 36.8587 37.4372 36.8587C37.7911 36.8068 37.8602 36.8068 37.912 36.755C37.9983 36.7031 38.3522 36.7031 38.4731 36.755H38.663C38.6975 36.7031 38.7579 36.6513 38.8097 36.6513C38.8442 36.5994 38.8874 36.5994 38.8874 36.5476H38.9219C38.9478 36.6513 39.1809 36.6513 39.2586 36.5994C39.3104 36.5476 39.4658 36.5476 39.5262 36.5994H39.7593C39.8715 36.6513 39.9837 36.6513 40.0096 36.7031C40.0355 36.7031 40.0786 36.755 40.1045 36.8068C40.1304 36.8068 40.1995 36.8587 40.2685 36.8587C40.329 36.8587 40.3808 36.9105 40.3894 36.9105C40.3894 36.9105 40.4239 36.9105 40.4757 36.8587H40.7433C40.7433 36.755 40.8383 36.7031 40.8383 36.755C40.8383 36.8068 40.8901 36.8068 40.8987 36.755H40.9246C40.9246 36.8068 40.9764 36.8587 41.0195 36.9105C41.0541 36.9105 41.0972 36.9624 41.0972 36.9624H41.1663H41.1749Z" fill="#020202"></path><path d="M44.7641 34.4219C44.7382 34.37 44.7382 34.3182 44.7641 34.2663C44.79 34.2145 44.7987 34.3182 44.7987 34.4219C44.7987 34.5256 44.7814 34.5256 44.7641 34.4219ZM45.1871 34.7329H45.213H45.1957H45.1871ZM45.2562 34.9922C45.2446 34.9231 45.2446 34.8712 45.2562 34.8366C45.2734 34.7848 45.2907 34.8885 45.2907 34.9922C45.2907 35.0959 45.2648 35.0959 45.2562 34.9922ZM44.8677 35.0959C44.8677 35.0613 44.8677 35.044 44.8677 35.044C44.8677 35.044 44.8677 35.044 44.8677 35.0959ZM44.8504 35.3033C44.8504 35.1996 44.8504 35.1477 44.8677 35.1996C44.885 35.1996 44.885 35.2514 44.885 35.3033C44.885 35.407 44.8591 35.407 44.8591 35.3033H44.8504ZM44.8504 35.8736C44.8504 35.7699 44.8504 35.718 44.885 35.7699C44.9022 35.8217 44.9109 35.8217 44.885 35.8736C44.8591 35.9254 44.8418 35.9254 44.8418 35.8736H44.8504ZM50.5304 36.9624C50.5304 36.9624 50.6253 36.9105 50.6771 36.9105C50.7376 36.9105 50.7635 36.9105 50.7721 36.8068C50.7894 36.755 50.798 36.755 50.798 36.755C50.798 36.8068 50.8757 36.8587 50.9965 36.8587C51.2296 36.9105 51.29 36.9105 51.3246 36.8068C51.3246 36.8068 51.3504 36.755 51.3591 36.755C51.385 36.6513 51.3936 36.5994 51.385 36.4957C51.385 36.4439 51.385 36.4439 51.385 36.4439C51.4109 36.4439 51.4109 36.3402 51.4109 36.1847C51.4109 36.1328 51.4109 36.081 51.4281 36.0291C51.4281 35.9773 51.4281 35.9254 51.4281 35.8217C51.4281 35.718 51.4281 35.6143 51.4281 35.5625C51.4281 35.407 51.454 35.1477 51.4627 35.044V34.9922C51.4627 34.9922 51.4627 34.8885 51.4886 34.7848C51.5058 34.6293 51.5145 34.5774 51.4886 34.5774C51.4886 34.5428 51.4886 34.5083 51.4886 34.4737C51.4886 34.2663 51.5145 34.1626 51.5231 34.1626C51.5231 34.1626 51.5404 34.1108 51.5404 34.0589C51.5576 33.9552 51.5749 33.3849 51.5749 33.3331V33.2294C51.5749 33.1775 51.5749 33.0738 51.5749 33.022C51.5749 32.9874 51.5749 32.9701 51.5749 32.9701C51.5749 32.9701 51.5576 32.9183 51.549 32.9183C51.549 32.8665 51.5231 32.8146 51.5145 32.7628C51.4972 32.7628 51.4972 32.7109 51.4972 32.6591C51.4972 32.6072 51.4972 32.5554 51.4713 32.3998C51.454 32.2443 51.3504 32.1924 51.2296 32.2961C51.1951 32.2961 51.1433 32.348 51.1087 32.348C51.0829 32.348 51.0483 32.3998 51.0311 32.3998C51.0138 32.3998 51.0052 32.4517 50.9965 32.4517C50.9879 32.4517 50.9793 32.5035 50.9706 32.5035C50.9534 32.5554 50.9188 32.5554 50.8325 32.5035C50.7203 32.5035 50.6253 32.5035 50.4613 32.5554C50.2801 32.6591 50.2455 32.6591 50.1937 32.6591C49.7967 32.6072 49.7017 32.5554 49.6931 32.5554C49.6758 32.5035 49.5377 32.5035 49.4773 32.5554C49.4514 32.6072 49.4255 32.6072 49.4168 32.5554C49.4168 32.5554 49.391 32.5554 49.3564 32.6072C49.3219 32.6591 49.2701 32.6591 49.2528 32.6591C49.2356 32.6591 49.1838 32.6072 49.1665 32.6072C49.1493 32.6072 49.1147 32.5554 49.0975 32.5035C49.0802 32.4517 49.0457 32.3998 48.9162 32.3998C48.8299 32.3998 48.709 32.4517 48.6572 32.4517C48.6054 32.4517 48.4932 32.5035 48.4069 32.5035C48.2256 32.5554 48.1479 32.5554 48.1393 32.6591C48.1393 32.7109 48.1048 32.7109 48.0961 32.6591C48.0961 32.5554 47.9494 32.6591 47.9494 32.7628C47.9494 32.8146 47.9235 32.8146 47.9235 32.7628C47.9235 32.7109 47.8717 32.7109 47.8113 32.7109C47.7508 32.7109 47.6645 32.6591 47.6386 32.6591C47.371 32.5554 46.879 32.5554 46.8445 32.7109H46.784C46.7582 32.6591 46.6977 32.7109 46.6632 32.7109C46.6287 32.7628 46.5769 32.8146 46.5769 32.8146C46.5596 32.8146 46.5251 32.8665 46.4906 32.8665C46.456 32.9183 46.4388 32.8665 46.4301 32.8665C46.4301 32.8146 46.4042 32.7628 46.3783 32.7628C46.3524 32.7628 46.3265 32.7109 46.3179 32.7109C46.3093 32.7109 46.2748 32.7109 46.2316 32.7628C46.174 32.7973 46.0992 32.7973 46.0072 32.7628C45.9208 32.7109 45.8604 32.7109 45.8086 32.7628C45.7223 32.8146 45.7137 32.8146 45.6878 32.7628C45.6446 32.7628 45.4374 32.8665 45.4029 32.9183C45.3252 33.0738 45.1785 33.1775 44.9886 33.2294C44.9454 33.2294 44.9022 33.2812 44.8936 33.2812C44.8763 33.3331 44.8677 33.3331 44.8504 33.2812H44.7987C44.7814 33.3331 44.7469 33.3331 44.7123 33.3331C44.6692 33.2812 44.6605 33.3331 44.6433 33.4368C44.6433 33.4886 44.6174 33.5923 44.6174 33.5923C44.5915 33.5923 44.5742 33.7997 44.5742 34.0589C44.5742 34.1626 44.5742 34.3182 44.5742 34.4219C44.5742 34.5256 44.5742 34.5774 44.5742 34.6293C44.5915 34.6811 44.5915 34.7329 44.5915 34.7848C44.5915 34.8366 44.5915 34.8885 44.6087 34.8885C44.6087 34.9403 44.6087 34.9922 44.6087 35.044V35.0959C44.6087 35.1477 44.626 35.1477 44.626 35.1996C44.626 35.3033 44.6778 35.6143 44.7123 35.6662C44.7469 35.718 44.7814 35.8217 44.7728 35.9254C44.7728 35.9773 44.7728 35.9773 44.7987 35.9773C44.8246 35.9773 44.8246 35.9773 44.8159 35.9773L44.79 36.0291L44.8159 36.1328C44.8159 36.1847 44.8418 36.2365 44.8418 36.2365C44.8418 36.2365 44.8677 36.2365 44.8677 36.2884C44.8677 36.3402 44.954 36.4957 45.0145 36.4957C45.0404 36.4957 45.0576 36.5476 45.0749 36.5994C45.0921 36.7031 45.1008 36.755 45.1094 36.755C45.1267 36.755 45.1526 36.755 45.1785 36.8068C45.2044 36.8587 45.2475 36.8587 45.2907 36.8068C45.3166 36.8068 45.4461 36.755 45.5669 36.755C45.7655 36.755 45.7741 36.755 45.8259 36.6513C45.8518 36.5476 45.8777 36.5476 45.9554 36.5476C46.0417 36.5476 46.0935 36.5476 46.2402 36.7031C46.3265 36.755 46.6287 36.8587 46.7927 36.8587C47.1466 36.8068 47.2157 36.8068 47.2674 36.755C47.3538 36.7031 47.7077 36.7031 47.8285 36.755H48.0184C48.053 36.7031 48.1134 36.6513 48.1652 36.6513C48.1997 36.5994 48.2429 36.5994 48.2429 36.5476H48.2774C48.3033 36.6513 48.5364 36.6513 48.6141 36.5994C48.6659 36.5476 48.8212 36.5476 48.8817 36.5994H49.1147C49.2269 36.6513 49.3392 36.6513 49.3651 36.7031C49.391 36.7031 49.4341 36.755 49.46 36.8068C49.4859 36.8068 49.555 36.8587 49.624 36.8587C49.6844 36.8587 49.7362 36.9105 49.7449 36.9105C49.7449 36.9105 49.7794 36.9105 49.8312 36.8587H50.0988C50.0988 36.755 50.1937 36.7031 50.1937 36.755C50.1937 36.8068 50.2455 36.8068 50.2542 36.755H50.2801C50.2801 36.8068 50.3319 36.8587 50.375 36.9105C50.4095 36.9105 50.4527 36.9624 50.4527 36.9624H50.5218H50.5304Z" fill="#020202"></path></g><defs><clipPath id="clip0_360_11729"><rect width="39" height="40" fill="white" transform="translate(19.793 6.21729)"></rect></clipPath></defs></svg> 