<?xml version="1.0" encoding="UTF-8"?> <svg xmlns="http://www.w3.org/2000/svg" width="74" height="54" viewBox="0 0 74 54" fill="none"><g clip-path="url(#clip0_366_14403)"><path fill-rule="evenodd" clip-rule="evenodd" d="M32.9883 1.80713H37.8283C51.6383 1.80713 62.8283 12.9971 62.8283 26.8071C62.8283 40.6171 51.6383 51.8071 37.8283 51.8071H32.9883C19.1783 51.8071 7.98828 40.6171 7.98828 26.8071C7.98828 12.9971 19.1883 1.80713 32.9883 1.80713Z" fill="#FFCE07"></path><path d="M29.8006 21.3773C29.6806 21.7573 29.6206 21.7573 29.6206 21.3473C29.6206 20.9373 29.7806 20.6973 29.9006 20.7173C29.9906 20.8673 29.9806 20.9973 29.8006 21.3773ZM32.7106 14.6473C32.6173 14.7939 32.5939 14.8306 32.6406 14.7573L32.8406 14.4273L32.7006 14.6473H32.7106ZM31.0406 18.4473L31.0006 18.5673C31.0406 18.4473 31.0906 18.3273 31.0906 18.3273C31.1306 18.2073 31.0906 18.3273 31.0506 18.4473H31.0406ZM33.5906 13.8273C33.3406 13.9673 33.3406 13.9673 33.4406 13.7273C33.5506 13.4873 33.8806 13.2473 33.9706 13.3173C34.1406 13.2873 33.8406 13.6973 33.5906 13.8273ZM30.9806 19.8973C30.9506 20.0173 30.8906 20.0073 30.8906 20.0073C30.8506 20.0006 30.8406 19.9539 30.8606 19.8673C30.8606 19.8673 30.8906 19.7473 30.9506 19.7573L30.9806 19.8973ZM31.0906 20.1873C30.9406 20.2773 30.9206 20.1473 31.0406 19.9173C31.1006 19.6673 31.1606 19.6873 31.2206 19.7073C31.3006 19.8573 31.2406 20.0973 31.0906 20.1973V20.1873ZM31.7306 20.3473C31.6106 20.3173 31.5906 20.1873 31.7706 19.7273C31.8906 19.5073 31.9206 19.3873 31.9206 19.6473C31.8906 20.0173 31.8006 20.3673 31.7406 20.3573L31.7306 20.3473ZM39.5506 38.4273C39.1906 38.1573 38.3206 37.6073 37.8406 37.1173C37.1506 36.5273 36.9606 36.2373 36.7106 36.1573C36.5106 36.0273 36.4306 35.9473 36.4306 35.9473C36.4006 35.8273 35.7206 35.0373 34.7706 33.4873C33.8706 31.9673 33.5306 30.9073 33.2706 30.2173C32.9806 29.5373 32.9306 29.1673 32.7806 28.9073C32.7806 28.9073 32.6406 28.5873 32.5806 28.3673C32.3506 27.9473 32.3106 27.8373 32.2106 28.0873C32.1706 28.2173 32.1506 28.0973 32.1306 27.9873C32.0806 27.6373 31.9406 27.5473 31.7606 27.5673C31.7006 27.5673 31.6206 27.4673 31.5506 27.3573C31.4706 27.2473 31.4106 27.2573 31.2906 27.2673C31.1906 27.4073 31.0706 27.4273 31.0106 27.4273C30.8306 27.4573 30.4806 27.1273 30.3206 26.8873C30.3206 26.8873 30.2406 26.7673 30.2606 26.8873C30.2606 26.8873 30.1106 26.7773 29.9806 26.5273C29.7906 26.2873 29.7206 26.1573 29.7306 26.4173C29.6973 26.5106 29.6606 26.5573 29.6206 26.5573C29.3706 26.4473 29.2406 26.1873 29.2306 25.9173C29.2306 25.9173 29.1606 25.6473 29.1006 25.6573C28.9706 25.3973 28.2906 24.9973 28.2306 24.9873V24.8473C28.2306 24.8473 28.1606 24.8473 28.1006 24.8473C28.0406 24.8473 27.9206 24.8473 27.8506 24.7073C27.8106 24.7073 27.7939 24.7539 27.8006 24.8473C27.8006 24.9873 27.7506 25.1373 27.7606 25.2773C27.7106 25.4273 27.6606 25.7173 27.6206 26.0073C27.6306 26.2973 27.5806 26.3073 27.5206 26.3073C27.4506 26.1673 27.3906 26.1673 27.2506 26.7773C27.1006 27.0773 27.2506 29.2073 28.0806 31.4673C28.3506 32.1673 28.7206 33.1473 28.9906 33.6773C29.1806 34.0773 29.5606 34.7273 29.6906 34.9873C29.8106 35.2573 30.0306 35.4773 30.1106 35.6073C30.1906 35.7373 30.3206 35.8273 30.4706 36.0873C30.6706 36.3073 31.0306 36.9573 31.9806 38.2773C32.3006 38.7373 32.6806 39.0973 33.0306 39.4973C33.3906 39.8873 33.7406 40.2873 34.1706 40.6473C34.9906 41.4173 35.9706 42.2073 37.3406 43.0773C40.4206 44.8173 41.2006 44.8873 42.0006 45.2273C45.6806 46.5473 48.1406 46.4773 49.5506 46.5373C50.9806 46.4873 51.4606 46.4873 51.5306 46.4673C51.6806 46.4673 52.4506 46.3773 53.3206 46.2373C54.1906 46.0773 55.1506 45.7773 55.7106 45.6073C56.2506 45.3473 56.6606 45.1973 56.8206 45.2073C56.8206 45.2073 56.9406 45.1573 57.1606 45.0773C57.3606 44.9873 57.6406 44.8973 57.8906 44.7273C58.5306 44.3473 59.3306 43.9873 59.7106 43.7673C60.0306 43.5873 60.9206 43.0873 61.2506 42.9073C61.6206 42.6673 62.1106 42.3473 62.3906 42.2273C62.5306 42.1673 62.7506 42.0273 63.2006 41.7273C63.6006 41.3773 64.2606 40.8773 65.1306 39.9673C66.3906 38.6973 67.6206 36.8273 68.1206 35.9173C68.7006 35.0573 69.5706 32.9973 70.0806 31.4573C70.3306 30.6073 70.4806 29.8573 70.6306 29.2373C70.7406 28.6073 70.7906 28.0873 70.8506 27.6773C70.9706 26.8573 70.9206 26.4473 70.8806 26.3673C70.8306 26.2173 70.8606 25.6373 70.9206 25.4873C71.1206 25.3473 70.8606 22.6973 70.7406 22.7173C70.6906 22.5773 70.6106 22.1473 70.6706 22.1373C70.7006 22.1373 70.6706 21.8773 70.6206 21.4773C70.5506 21.0773 70.5206 20.5273 70.3606 19.9673C70.2106 19.3973 70.0706 18.7173 69.9006 18.1173C69.6906 17.5173 69.5106 16.9873 69.4306 16.7273C68.9806 15.4873 68.2706 14.0573 67.3906 12.6573C66.9206 11.9773 66.4306 11.2973 65.9006 10.6473C65.3306 10.0473 64.8306 9.38726 64.2206 8.87726C61.9306 6.70726 59.5806 5.54726 59.2206 5.47726C59.0906 5.41726 58.6906 5.22726 58.1706 4.96726C57.8106 4.68726 56.6806 4.36726 55.9906 4.10726C55.2806 3.91726 54.4106 3.79726 54.2706 3.74726C54.1606 3.72726 53.9006 3.66726 53.5906 3.60726C53.2606 3.56726 52.9306 3.52726 52.6906 3.48726C51.9606 3.43726 51.6906 3.33726 51.5406 3.31726C51.4006 3.21726 50.9706 3.15726 50.5406 3.12726C49.9606 3.09726 49.5206 3.01726 49.3806 3.00726C49.2306 2.97726 48.5006 3.03726 47.6306 3.13726C46.8306 3.18726 46.4406 3.30726 45.9006 3.37726C45.6406 3.41726 45.3406 3.45726 44.9106 3.51726C44.5006 3.59726 44.0006 3.72726 43.3306 3.87726C41.6306 4.30726 40.5406 4.76726 39.7906 5.21726C39.0706 5.57726 38.6706 5.81726 38.3906 6.00726C38.1106 6.17726 37.9506 6.25726 37.7406 6.34726C37.3506 6.54726 36.3906 7.28726 35.4806 8.02726C34.6206 8.83726 33.7906 9.64726 33.6006 9.95726C32.7306 11.1073 30.9406 13.4073 29.6406 16.7273C29.3506 17.5273 29.1106 18.3473 29.0706 18.4873C29.0606 18.7773 29.0206 18.9173 28.8606 19.3073C28.7906 19.5773 28.6806 19.9973 28.6106 20.2673C28.5906 20.5573 28.5106 21.2573 28.4106 21.8173C28.2106 22.6473 28.2906 22.7973 28.3906 23.0873C28.4406 23.2373 28.5506 23.5173 28.5406 23.6573C28.5206 24.0773 28.7406 24.4973 29.0406 24.4973C29.1606 24.4973 29.3306 24.6373 29.4506 24.6373C29.5606 24.7673 29.6306 24.6373 29.7006 24.5073C29.7706 24.2473 29.8306 24.2473 29.8906 24.2473C29.9506 24.2473 30.0206 24.1173 30.0206 23.9873C30.0906 23.8573 30.1506 23.8673 30.2106 23.8673H30.2706C30.3406 23.7473 30.3406 23.6173 30.4006 23.6173C30.5306 23.6173 30.8906 22.7673 31.0606 22.2973C31.2006 21.8173 31.4006 21.2373 31.5006 21.3773C31.5706 21.3873 31.5606 21.2673 31.6506 20.9173C31.7106 20.6839 31.7306 20.6073 31.7106 20.6873L31.6806 21.0473L31.8906 20.7273C31.9806 20.6273 32.1006 20.4073 32.1306 20.2973C32.1606 20.1873 32.2206 19.9573 32.2806 19.9673C32.3206 19.9773 32.4206 19.6373 32.6406 19.2373C32.8506 18.8273 33.0806 18.3273 33.2206 17.9373C33.4206 17.5173 33.5806 17.3373 33.7306 17.1473C33.9406 16.9873 34.0906 16.8173 34.1406 16.7073C34.2306 16.4973 34.4906 16.1173 34.7206 15.8473C34.8606 15.6673 35.0106 15.4573 35.1606 15.2173C35.3306 14.9873 35.5106 14.7273 35.6906 14.4373C35.9206 14.0473 37.1606 12.5273 38.6006 11.3673C41.0006 9.58726 41.3006 9.64726 41.8506 9.20726C42.0306 9.05726 42.2006 8.93726 42.4606 8.79726C42.7306 8.68726 43.0806 8.55726 43.6306 8.35726C44.8406 7.97726 45.6506 7.70726 47.9606 7.66726C48.6506 7.64726 50.1606 7.61726 51.7406 7.92726C52.5406 8.02726 53.3406 8.29726 54.1006 8.48726C54.8306 8.76726 55.5306 8.98726 56.0706 9.25726C58.5006 10.3673 59.7606 11.4073 60.5206 12.0973C61.3106 12.7573 61.5906 13.1273 61.8906 13.3973C62.4106 13.8573 63.4206 15.1973 64.2606 16.7173C65.1006 18.2473 65.5806 20.0073 65.7706 20.9573C66.0006 22.1973 66.1306 22.8773 66.1506 23.7973C66.1906 24.0873 66.2606 24.4573 66.2706 24.8473C66.2706 25.2373 66.2706 25.6373 66.2506 25.9873C66.3106 26.5773 66.1606 27.1373 66.2506 27.1473C66.2306 27.2573 66.2006 27.4873 66.1606 27.7173C65.9606 28.4173 65.7606 29.0873 65.5206 29.9273C65.3306 30.4373 65.1406 30.9573 64.9606 31.4473C64.7406 31.9073 64.5506 32.3273 64.4306 32.6173C64.3006 33.0073 63.8706 33.6673 63.4506 34.3573C62.9506 34.9973 62.4706 35.6973 62.0706 36.0373C61.9906 36.1173 61.6906 36.4773 61.2306 36.9373C60.7406 37.3673 60.1506 37.9673 59.4306 38.4573C58.7406 38.9873 57.9506 39.3673 57.3706 39.7373C56.7406 40.0273 56.2706 40.2373 56.1006 40.2873C55.8006 40.4673 55.1106 40.5973 54.6706 40.7173C54.5106 40.7773 54.1606 40.8973 53.7106 40.9773C53.2606 41.0573 52.7506 41.2373 52.2406 41.2873C51.8206 41.3373 51.4006 41.3973 51.0406 41.4373C50.7106 41.4673 50.4806 41.4373 50.4306 41.4473C50.4306 41.4473 49.8606 41.4773 49.1806 41.5673C48.6106 41.5173 47.4706 41.5273 46.6806 41.3573C46.2906 41.2973 45.9506 41.2573 45.7006 41.1973C45.4506 41.1373 45.2906 41.0873 45.2306 41.0773C45.2106 41.1973 43.7406 40.8873 43.7706 40.7873C43.7906 40.7273 43.0406 40.4573 42.9106 40.4773L42.5906 40.3573C42.5106 40.2573 41.9206 39.8973 41.3306 39.5573C41.0706 39.4473 40.8506 39.2573 40.6706 39.1373C40.5106 39.0273 40.3806 38.9273 40.3806 38.9273C40.2906 38.8573 39.9706 38.7273 39.5306 38.3673L39.5506 38.4273Z" fill="#020202"></path><path d="M34.8395 41.1173C34.9195 41.1273 34.9495 41.1773 34.9595 41.2573C34.9595 41.3373 34.8595 41.2573 34.7795 41.1673C34.7095 41.0673 34.7295 41.0573 34.8395 41.1173ZM33.9095 41.4273C33.9095 41.4273 33.9295 41.4073 33.9195 41.4173C33.9095 41.4273 33.8995 41.4373 33.8795 41.4473L33.8995 41.4273H33.9095ZM34.2295 40.9973H34.2395L34.2195 41.0073C34.2095 41.0173 34.2195 41.0073 34.2295 40.9973ZM33.6095 41.2873C33.6762 41.334 33.7162 41.3807 33.7295 41.4273C33.7395 41.4973 33.6295 41.4273 33.5495 41.3373C33.4595 41.2573 33.5095 41.2173 33.6095 41.2873ZM34.1395 40.6073L34.1895 40.6473C34.1895 40.6473 34.1995 40.6673 34.2195 40.7073C34.2195 40.7073 34.2095 40.7173 34.1695 40.6673L34.1395 40.6073ZM34.0495 40.4473C34.1395 40.5273 34.1695 40.5873 34.0995 40.5573C34.0795 40.5773 34.0395 40.5373 33.9995 40.4873C33.9295 40.3873 33.9595 40.3673 34.0495 40.4473ZM33.6195 39.9473C33.6995 40.0373 33.7195 40.0973 33.6395 40.0873C33.5795 40.0673 33.5595 40.0773 33.5495 40.0073C33.5495 39.9273 33.5895 39.8973 33.6195 39.9473ZM23.4795 46.8773C23.4795 46.8773 23.3595 47.0573 23.2795 47.1173C23.1795 47.1973 23.1395 47.2373 23.1995 47.3473C23.2095 47.4173 23.1995 47.4273 23.1995 47.4273C23.1495 47.3873 22.9995 47.4373 22.7995 47.6073C22.3795 47.8873 22.2795 47.9673 22.2895 48.1173C22.2895 48.1173 22.2895 48.1973 22.2695 48.2173C22.2995 48.3473 22.3195 48.4073 22.4295 48.4773C22.4795 48.5173 22.4695 48.5273 22.4595 48.5373C22.4195 48.5673 22.4895 48.6673 22.5995 48.8073C22.6395 48.8573 22.6695 48.9073 22.6895 48.9673C22.7095 49.0273 22.7595 49.0673 22.8295 49.1573C22.9195 49.2373 22.9995 49.3273 23.0395 49.3773C23.1595 49.5173 23.3095 49.7773 23.3695 49.8873C23.3695 49.8873 23.3995 49.9473 23.4095 49.9373C23.4095 49.9373 23.4695 50.0373 23.5295 50.1473C23.6195 50.3073 23.6495 50.3573 23.6695 50.3373C23.7029 50.364 23.7329 50.3907 23.7595 50.4173C23.8995 50.6073 23.9595 50.7273 23.9295 50.7473C23.9295 50.7473 23.9395 50.8173 23.9795 50.8573C24.0295 50.9673 24.4195 51.5073 24.4595 51.5473H24.4495C24.4495 51.5473 24.4895 51.6073 24.5295 51.6473C24.5695 51.6973 24.6495 51.7873 24.6695 51.8373C24.6695 51.8373 24.6862 51.8507 24.7195 51.8773C24.7195 51.8773 24.7795 51.8973 24.7995 51.8873C24.8495 51.9273 24.9095 51.9473 24.9795 51.9773C24.9995 51.9573 25.0395 51.9973 25.0795 52.0473C25.1095 52.1073 25.1495 52.1473 25.3095 52.2473C25.4495 52.3673 25.6595 52.2673 25.7795 52.0073C25.8395 51.9573 25.8895 51.8373 25.9395 51.7973C25.9795 51.7673 25.9995 51.6673 26.0195 51.6473C26.0395 51.6273 26.0295 51.5573 26.0395 51.5473C26.0495 51.5373 26.0295 51.4773 26.0495 51.4573C26.0395 51.3873 26.0995 51.3373 26.2695 51.2673C26.4595 51.1073 26.5995 50.9873 26.8395 50.7073C27.0595 50.3673 27.1195 50.3073 27.1995 50.2473C27.8895 49.7373 28.0795 49.6573 28.0895 49.6473C28.1495 49.6673 28.3895 49.4773 28.4495 49.3473C28.4595 49.2573 28.4995 49.2273 28.5495 49.2673C28.5495 49.2673 28.5995 49.2273 28.6095 49.1373C28.6295 49.0373 28.7095 48.9773 28.7395 48.9473C28.7695 48.9173 28.8895 48.8973 28.9295 48.8673C28.9695 48.8373 29.0595 48.8373 29.1195 48.8673C29.1795 48.8973 29.2795 48.8873 29.4895 48.7073C29.6395 48.5773 29.7795 48.3773 29.8695 48.3073C29.9595 48.2373 30.0995 48.0273 30.2395 47.9173C30.4995 47.6173 30.6195 47.5173 30.5595 47.4173C30.5295 47.3573 30.5795 47.3173 30.6295 47.3573C30.7195 47.4373 30.8595 47.1573 30.7895 47.0673C30.7595 47.0073 30.7995 46.9773 30.8395 47.0273C30.8795 47.0773 30.9695 46.9973 31.0595 46.9173C31.1495 46.8373 31.3295 46.7673 31.3795 46.7273C31.8995 46.4373 32.7095 45.7673 32.6495 45.5773C32.6595 45.5673 32.6995 45.5373 32.7495 45.4973C32.8295 45.5073 32.8895 45.3773 32.9495 45.3273C32.9695 45.2273 33.0095 45.1173 33.0195 45.1073C33.0395 45.0873 33.0695 44.9873 33.1195 44.9473C33.1395 44.8473 33.2095 44.8773 33.2195 44.8673C33.2695 44.9073 33.3495 44.9173 33.3795 44.8873C33.4295 44.8473 33.5095 44.8573 33.5195 44.8473C33.5295 44.8373 33.5895 44.7873 33.6295 44.6773C33.6962 44.5707 33.8195 44.4673 33.9995 44.3673C34.1895 44.2873 34.2895 44.2073 34.3195 44.0973C34.4195 43.9373 34.4395 43.9173 34.5195 43.9273C34.5895 43.8673 34.8495 43.4873 34.8695 43.3973C34.8695 43.1573 35.0495 42.8573 35.3195 42.5473C35.3895 42.4873 35.4295 42.3773 35.4395 42.3673C35.4295 42.2973 35.4395 42.2873 35.5095 42.3073C35.5295 42.2873 35.5695 42.2573 35.5995 42.2373C35.5895 42.1673 35.6495 42.1173 35.6995 42.0773C35.8095 42.0573 35.7895 42.0073 35.7295 41.8873C35.6995 41.8273 35.6495 41.7173 35.6595 41.7073C35.6995 41.6773 35.5795 41.4573 35.3895 41.2273C35.3095 41.1373 35.2095 40.9873 35.1295 40.8973C35.0595 40.7973 35.0095 40.7573 34.9595 40.7273C34.8995 40.7073 34.8595 40.6573 34.8195 40.6073C34.7795 40.5573 34.7295 40.5273 34.7195 40.5373C34.6695 40.4973 34.6295 40.4573 34.5895 40.4073L34.5495 40.3573C34.4995 40.3173 34.4895 40.3373 34.4495 40.2873C34.3695 40.1973 34.0495 39.9973 33.9695 39.9873C33.8795 39.9873 33.7395 39.9473 33.6795 39.8373C33.6395 39.7873 33.6295 39.7973 33.5895 39.8373C33.5495 39.8773 33.5495 39.8673 33.5695 39.8573V39.7773L33.4495 39.7173C33.3995 39.6773 33.3395 39.6573 33.3195 39.6673C33.3095 39.6773 33.2795 39.6973 33.2395 39.6573C33.1995 39.6073 32.9395 39.5973 32.8495 39.6773C32.7995 39.7173 32.7395 39.6973 32.6695 39.6773C32.5695 39.6073 32.4995 39.5773 32.4895 39.5873C32.4695 39.6073 32.4195 39.6473 32.3395 39.6373C32.2495 39.6373 32.1895 39.6873 32.1495 39.7973C32.0995 39.8373 31.9295 40.0673 31.7295 40.2273C31.4095 40.4973 31.3795 40.5173 31.3895 40.6773C31.4195 40.8073 31.3895 40.8373 31.2595 40.9473C31.1195 41.0673 31.0395 41.1373 30.6695 41.2073C30.4795 41.2873 29.9095 41.6173 29.6495 41.8373C29.1095 42.3773 28.9995 42.4673 28.9495 42.5873C28.8395 42.7573 28.2695 43.2373 28.0195 43.3673C27.8795 43.4873 27.8095 43.5473 27.7095 43.6273C27.6895 43.7273 27.6295 43.8573 27.5495 43.9173C27.5295 44.0173 27.4695 44.0673 27.4995 44.1173C27.4895 44.1273 27.4595 44.1473 27.4395 44.1673C27.3095 44.1173 26.9395 44.4273 26.8395 44.5973C26.7895 44.7173 26.5395 44.9273 26.3895 44.9773C26.3695 44.9973 26.1895 45.1473 26.0095 45.2973C25.7895 45.4073 25.5995 45.5673 25.5195 45.5473C25.4795 45.5773 25.3695 45.5973 25.2795 45.5873C25.2395 45.6173 25.0795 45.6773 24.9695 45.7673C24.8695 45.8473 24.7495 45.8773 24.7295 45.8873C24.7295 45.8873 24.6695 45.9373 24.6295 46.0473C24.5695 46.0973 24.4395 46.2073 24.3595 46.2773C24.2695 46.3473 24.2095 46.4073 24.1995 46.4173C24.2795 46.5073 24.1595 46.6873 24.1195 46.6473C24.0795 46.6073 23.9895 46.6773 24.0195 46.7273C24.0095 46.7373 23.9995 46.7473 23.9795 46.7573C23.9295 46.7173 23.8195 46.7373 23.6995 46.7573C23.6395 46.8073 23.5395 46.8173 23.5395 46.8173C23.5295 46.8273 23.4895 46.8573 23.4295 46.9073L23.4795 46.8773Z" fill="#020202"></path><path d="M57.3797 22.0474C57.4297 22.1074 57.4297 22.1674 57.3797 22.2274C57.3297 22.2874 57.2897 22.1674 57.2897 22.0474C57.2997 21.9274 57.3197 21.9274 57.3697 22.0474H57.3797ZM56.4297 21.7174C56.4297 21.7174 56.4597 21.7174 56.4497 21.7174H56.3997C56.3997 21.7174 56.3997 21.7174 56.4297 21.7174ZM56.9597 21.5774H56.9797H56.9497C56.9297 21.5774 56.9497 21.5774 56.9697 21.5774H56.9597ZM56.2697 21.4174C56.2964 21.4974 56.2964 21.5574 56.2697 21.5974C56.2397 21.6574 56.1897 21.5374 56.1797 21.4174C56.1597 21.2974 56.2297 21.2974 56.2597 21.4174H56.2697ZM57.1297 21.2074L57.1497 21.2674C57.1497 21.3074 57.1464 21.3274 57.1397 21.3274C57.1397 21.3274 57.1197 21.3274 57.1197 21.2674V21.2074H57.1297ZM57.1597 21.0274C57.1797 21.1474 57.1597 21.2074 57.1297 21.1474C57.0997 21.1474 57.0897 21.0874 57.0897 21.0274C57.0997 20.9074 57.1397 20.9074 57.1597 21.0274ZM57.1397 20.3674C57.1397 20.4874 57.1297 20.5474 57.0597 20.4874C57.0197 20.4274 57.0097 20.4274 57.0397 20.3674C57.0897 20.3074 57.1397 20.3074 57.1397 20.3674ZM44.6097 19.0674C44.5397 19.0674 44.3897 19.1274 44.2897 19.1274C44.1597 19.1274 44.0997 19.1274 44.0697 19.2474C44.0397 19.3074 44.0197 19.3074 44.0197 19.3074C43.9997 19.2474 43.8497 19.1874 43.5797 19.1874C43.0597 19.1174 42.9197 19.1174 42.8397 19.2374C42.8397 19.2374 42.7897 19.2974 42.7597 19.2974C42.6897 19.4174 42.6697 19.4774 42.7097 19.5974C42.7297 19.6574 42.7097 19.6574 42.6897 19.6574C42.6397 19.6574 42.6197 19.7774 42.6197 19.9574C42.6197 20.0174 42.5997 20.0774 42.5797 20.1374C42.5597 20.1974 42.5597 20.2574 42.5597 20.3774C42.5797 20.4974 42.5797 20.6174 42.5697 20.6774C42.5697 20.8574 42.5197 21.1574 42.4797 21.2774C42.4797 21.2774 42.4597 21.3374 42.4797 21.3374C42.4797 21.3374 42.4597 21.4574 42.4297 21.5774C42.3997 21.7574 42.3797 21.8174 42.4097 21.8174C42.423 21.8574 42.4297 21.8974 42.4297 21.9374C42.4097 22.1774 42.3797 22.2974 42.3397 22.2974C42.3397 22.2974 42.3097 22.3574 42.3097 22.4174C42.2797 22.5374 42.2197 23.1974 42.2197 23.2574H42.1997C42.1997 23.2574 42.1997 23.3174 42.1997 23.3774C42.1997 23.4374 42.1997 23.5574 42.1797 23.6174C42.1797 23.6574 42.1864 23.6774 42.1997 23.6774C42.1997 23.6774 42.2297 23.7374 42.2497 23.7374C42.2697 23.7974 42.2997 23.8574 42.3297 23.9174C42.3597 23.9174 42.3597 23.9774 42.3597 24.0374C42.3397 24.0974 42.3397 24.1574 42.4097 24.3374C42.4397 24.5174 42.6697 24.5774 42.9397 24.4574C43.0197 24.4574 43.1397 24.3974 43.2097 24.3974C43.2597 24.3974 43.3397 24.3374 43.3797 24.3374C43.4097 24.3374 43.4497 24.2774 43.4597 24.2774C43.4797 24.2774 43.4897 24.2174 43.5297 24.2174C43.5597 24.1574 43.6497 24.1574 43.8297 24.2174C44.0797 24.2174 44.2797 24.2174 44.6497 24.1674C45.0497 24.0574 45.1297 24.0574 45.2297 24.0574C45.6697 24.0974 45.9397 24.1274 46.0997 24.1574C46.2397 24.1874 46.3197 24.1974 46.3197 24.1974C46.3497 24.2574 46.6697 24.2674 46.7997 24.1974C46.8697 24.1374 46.9197 24.1374 46.9297 24.1974C46.9297 24.1974 46.9997 24.1974 47.0597 24.1374C47.1397 24.0774 47.2397 24.0774 47.2897 24.0774C47.3397 24.0774 47.4397 24.1374 47.4897 24.1374C47.5397 24.1374 47.6097 24.1974 47.6397 24.2574C47.6697 24.3174 47.7597 24.3774 48.0397 24.3874C48.2397 24.3874 48.4897 24.3374 48.6097 24.3374C48.7297 24.3374 48.9797 24.2874 49.1697 24.2874C49.5697 24.2374 49.7397 24.2374 49.7597 24.1174C49.7797 24.0574 49.8397 24.0574 49.8597 24.1174C49.8797 24.2374 50.1797 24.1174 50.1797 23.9974C50.1997 23.9374 50.2497 23.9374 50.2497 23.9974C50.2497 24.0574 50.3697 24.0574 50.4997 24.0574C50.6397 24.0574 50.8197 24.1174 50.8897 24.1174C51.4997 24.2474 52.5997 24.2474 52.6897 24.0674C52.7097 24.0674 52.7597 24.0674 52.8297 24.0674C52.8797 24.1274 53.0197 24.0674 53.0997 24.0674C53.1797 24.0074 53.2897 23.9474 53.2997 23.9474C53.3297 23.9474 53.4197 23.8874 53.4897 23.8874C53.5697 23.8274 53.6097 23.8874 53.6297 23.8874C53.6497 23.9474 53.6997 24.0074 53.7497 24.0074C53.8197 24.0074 53.8697 24.0674 53.8897 24.0674C53.9097 24.0674 53.9897 24.0674 54.0897 24.0074C54.2164 23.9674 54.3864 23.9674 54.5997 24.0074C54.8097 24.0674 54.9397 24.0674 55.0397 24.0074C55.2297 23.9474 55.2597 23.9474 55.3097 24.0074C55.4097 24.0074 55.8697 23.8774 55.9497 23.8174C56.1197 23.6374 56.4497 23.5074 56.8697 23.4274C56.9697 23.4274 57.0697 23.3574 57.0897 23.3574C57.1197 23.2974 57.1397 23.2974 57.1897 23.3574C57.2197 23.3574 57.2697 23.3574 57.3097 23.3574C57.3397 23.2974 57.4297 23.2974 57.4897 23.2874C57.5897 23.3474 57.6097 23.2874 57.6397 23.1574C57.6497 23.0974 57.6797 22.9774 57.6997 22.9774C57.7497 22.9774 57.7897 22.7374 57.7797 22.4374C57.7797 22.3174 57.7797 22.1374 57.7797 22.0174C57.7897 21.8974 57.7797 21.8374 57.7497 21.7774C57.7097 21.7174 57.7097 21.6574 57.7097 21.5974C57.7097 21.5374 57.6897 21.4774 57.6697 21.4774C57.6497 21.4174 57.6497 21.3574 57.6497 21.2974V21.2374C57.6297 21.1774 57.6097 21.1774 57.6097 21.1174C57.6097 20.9974 57.4697 20.6374 57.4097 20.5874C57.3397 20.5274 57.2497 20.4174 57.2697 20.2974C57.2697 20.2374 57.2497 20.2374 57.1997 20.2374C57.1997 20.2374 57.1897 20.2374 57.1697 20.2374L57.2197 20.1774L57.1697 20.0574C57.1497 19.9974 57.1197 19.9374 57.0997 19.9374C57.0797 19.9374 57.0497 19.9374 57.0497 19.8774C57.0497 19.8174 56.8397 19.6474 56.7297 19.6474C56.6597 19.6474 56.6297 19.5874 56.5997 19.5274C56.5597 19.4074 56.5297 19.3474 56.5097 19.3474C56.4797 19.3474 56.4097 19.3474 56.3597 19.2874C56.2897 19.2274 56.2097 19.2274 56.1097 19.2874C56.0397 19.2874 55.7697 19.3574 55.5097 19.3574C55.0797 19.3574 55.0497 19.3574 54.9597 19.4874C54.8997 19.6074 54.8497 19.6074 54.6797 19.6074C54.4997 19.6074 54.3797 19.6074 54.0497 19.4374C53.8497 19.3774 53.1997 19.2674 52.8497 19.2574C52.0797 19.3174 51.9297 19.3174 51.8097 19.3774C51.6097 19.4374 50.8497 19.4274 50.5697 19.3674C50.3897 19.3674 50.2897 19.3674 50.1497 19.3674C50.0697 19.4274 49.9297 19.4874 49.8297 19.4874C49.7497 19.5474 49.6597 19.5474 49.6597 19.6074C49.6397 19.6074 49.6097 19.6074 49.5797 19.6074C49.5197 19.4874 49.0197 19.4774 48.8297 19.5374C48.7097 19.5974 48.3797 19.5874 48.2297 19.5274C48.1997 19.5274 47.9597 19.5274 47.7097 19.5274C47.4597 19.4674 47.2097 19.4574 47.1597 19.3974C47.1097 19.3974 47.0097 19.3374 46.9397 19.2774C46.8897 19.2774 46.7197 19.2174 46.5697 19.2074C46.4397 19.2074 46.3197 19.1474 46.2997 19.1474C46.2997 19.1474 46.2197 19.1474 46.1097 19.2074C46.0297 19.2074 45.8597 19.2074 45.7397 19.2074C45.6197 19.2074 45.5397 19.2074 45.5197 19.2074C45.5197 19.3274 45.2997 19.3874 45.2997 19.3274C45.2997 19.2674 45.1797 19.2674 45.1697 19.3274H45.1197C45.0997 19.2674 44.9997 19.2074 44.8997 19.1474C44.8197 19.1474 44.7297 19.0874 44.7297 19.0874H44.5797L44.6097 19.0674Z" fill="#020202"></path><path d="M42.6208 28.8675C42.5708 28.8075 42.5708 28.7474 42.6208 28.6874C42.6708 28.6274 42.7108 28.7475 42.7108 28.8675C42.7008 28.9875 42.6808 28.9875 42.6308 28.8675H42.6208ZM43.5708 29.1975C43.5708 29.1975 43.5408 29.1975 43.5508 29.1975H43.6008C43.6008 29.1975 43.6008 29.1975 43.5708 29.1975ZM43.0408 29.3375H43.0208H43.0508C43.0708 29.3375 43.0508 29.3375 43.0308 29.3375H43.0408ZM43.7308 29.4975C43.7041 29.4175 43.7041 29.3575 43.7308 29.3175C43.7608 29.2575 43.8208 29.3775 43.8208 29.4975C43.8408 29.6175 43.7708 29.6175 43.7408 29.4975H43.7308ZM42.8708 29.7075L42.8508 29.6475C42.8508 29.6075 42.8541 29.5875 42.8608 29.5875C42.8608 29.5875 42.8808 29.5875 42.8808 29.6475V29.7075H42.8708ZM42.8408 29.8875C42.8208 29.7675 42.8408 29.7074 42.8708 29.7674C42.9008 29.7674 42.9108 29.8275 42.9108 29.8875C42.9008 30.0075 42.8608 30.0075 42.8408 29.8875ZM42.8608 30.5475C42.8608 30.4275 42.8708 30.3674 42.9408 30.4274C42.9808 30.4874 42.9908 30.4875 42.9608 30.5475C42.9108 30.6075 42.8608 30.6075 42.8608 30.5475ZM55.3908 31.8474C55.4608 31.8474 55.6108 31.7875 55.7108 31.7875C55.8408 31.7875 55.9008 31.7875 55.9308 31.6675C55.9608 31.6075 55.9808 31.6075 55.9808 31.6075C56.0008 31.6674 56.1508 31.7275 56.4208 31.7275C56.9408 31.7975 57.0808 31.7974 57.1608 31.6774C57.1608 31.6774 57.2108 31.6175 57.2408 31.6175C57.3108 31.4975 57.3308 31.4375 57.2908 31.3175C57.2708 31.2575 57.2908 31.2575 57.3108 31.2575C57.3608 31.2575 57.3808 31.1375 57.3808 30.9575C57.3808 30.8975 57.4008 30.8375 57.4108 30.7775C57.4308 30.7175 57.4308 30.6575 57.4308 30.5375C57.4108 30.4175 57.4108 30.2975 57.4208 30.2375C57.4208 30.0575 57.4708 29.7575 57.5108 29.6375C57.5108 29.6375 57.5308 29.5775 57.5108 29.5775C57.5108 29.5775 57.5308 29.4575 57.5608 29.3375C57.5908 29.1575 57.6108 29.0974 57.5808 29.0974C57.5674 29.0574 57.5608 29.0175 57.5608 28.9775C57.5808 28.7375 57.6108 28.6175 57.6508 28.6175C57.6508 28.6175 57.6808 28.5575 57.6808 28.4975C57.7108 28.3775 57.7708 27.7175 57.7708 27.6575H57.7908C57.7908 27.6575 57.7908 27.5975 57.7908 27.5375C57.7908 27.4775 57.7908 27.3575 57.8108 27.2975C57.8108 27.2575 57.8041 27.2375 57.7908 27.2375C57.7908 27.2375 57.7608 27.1774 57.7408 27.1774C57.7208 27.1174 57.6908 27.0575 57.6608 26.9975C57.6308 26.9975 57.6308 26.9375 57.6308 26.8775C57.6508 26.8175 57.6508 26.7575 57.5808 26.5775C57.5508 26.3975 57.3208 26.3375 57.0508 26.4575C56.9708 26.4575 56.8508 26.5174 56.7808 26.5174C56.7308 26.5174 56.6508 26.5775 56.6108 26.5775C56.5808 26.5775 56.5408 26.6375 56.5308 26.6375C56.5108 26.6375 56.5008 26.6975 56.4608 26.6975C56.4308 26.7575 56.3408 26.7575 56.1608 26.6975C55.9108 26.6975 55.7108 26.6975 55.3408 26.7475C54.9408 26.8575 54.8608 26.8575 54.7608 26.8575C54.3208 26.8175 54.0508 26.7875 53.8908 26.7575C53.7508 26.7275 53.6708 26.7175 53.6708 26.7175C53.6408 26.6575 53.3208 26.6475 53.1908 26.7175C53.1208 26.7775 53.0708 26.7775 53.0608 26.7175C53.0608 26.7175 52.9908 26.7175 52.9308 26.7775C52.8508 26.8375 52.7508 26.8375 52.7008 26.8375C52.6508 26.8375 52.5508 26.7775 52.5008 26.7775C52.4508 26.7775 52.3808 26.7175 52.3508 26.6575C52.3208 26.5975 52.2408 26.5375 51.9508 26.5275C51.7508 26.5275 51.5008 26.5775 51.3808 26.5775C51.2608 26.5775 51.0108 26.6275 50.8208 26.6275C50.4208 26.6775 50.2508 26.6775 50.2308 26.7975C50.2108 26.8575 50.1408 26.8575 50.1308 26.7975C50.1208 26.6775 49.8108 26.7975 49.8108 26.9175C49.7908 26.9775 49.7408 26.9775 49.7408 26.9175C49.7408 26.8575 49.6208 26.8575 49.4908 26.8575C49.3508 26.8575 49.1708 26.7975 49.1008 26.7975C48.4908 26.6675 47.3908 26.6674 47.3008 26.8474C47.2808 26.8474 47.2308 26.8474 47.1608 26.8474C47.1108 26.7874 46.9708 26.8474 46.8908 26.8474C46.8108 26.9074 46.7008 26.9675 46.6908 26.9675C46.6608 26.9675 46.5708 27.0275 46.5008 27.0275C46.4208 27.0875 46.3808 27.0275 46.3608 27.0275C46.3408 26.9675 46.2908 26.9075 46.2408 26.9075C46.1708 26.9075 46.1208 26.8474 46.1008 26.8474C46.0808 26.8474 46.0008 26.8475 45.9008 26.9075C45.7741 26.9475 45.6041 26.9475 45.3908 26.9075C45.1808 26.8475 45.0508 26.8475 44.9508 26.9075C44.7608 26.9675 44.7308 26.9675 44.6808 26.9075C44.5808 26.9075 44.1208 27.0374 44.0408 27.0974C43.8708 27.2774 43.5408 27.4075 43.1208 27.4875C43.0208 27.4875 42.9208 27.5575 42.9008 27.5575C42.8708 27.6175 42.8508 27.6175 42.8008 27.5575C42.7708 27.5575 42.7208 27.5575 42.6808 27.5575C42.6508 27.6175 42.5608 27.6175 42.5008 27.6275C42.4008 27.5675 42.3808 27.6275 42.3508 27.7575C42.3408 27.8175 42.3108 27.9374 42.2908 27.9374C42.2408 27.9374 42.2008 28.1775 42.2108 28.4775C42.2108 28.5975 42.2108 28.7775 42.2108 28.8975C42.2008 29.0175 42.2108 29.0775 42.2408 29.1375C42.2808 29.1975 42.2808 29.2575 42.2808 29.3175C42.2808 29.3775 42.3008 29.4374 42.3208 29.4374C42.3408 29.4974 42.3408 29.5575 42.3408 29.6175V29.6774C42.3608 29.7374 42.3808 29.7375 42.3808 29.7975C42.3808 29.9175 42.5208 30.2775 42.5808 30.3275C42.6508 30.3875 42.7408 30.4975 42.7208 30.6175C42.7208 30.6775 42.7408 30.6774 42.7908 30.6774C42.8408 30.6774 42.8408 30.6774 42.8208 30.6774L42.7708 30.7375L42.8208 30.8575C42.8408 30.9174 42.8708 30.9775 42.8908 30.9775C42.9108 30.9775 42.9408 30.9775 42.9408 31.0375C42.9408 31.0975 43.1508 31.2674 43.2608 31.2674C43.3308 31.2674 43.3608 31.3275 43.4008 31.3875C43.4408 31.5075 43.4708 31.5675 43.4908 31.5675C43.5208 31.5675 43.5908 31.5675 43.6408 31.6275C43.7108 31.6875 43.7908 31.6875 43.8908 31.6275C43.9608 31.6275 44.2308 31.5575 44.4908 31.5575C44.9208 31.5575 44.9508 31.5574 45.0408 31.4274C45.1008 31.3074 45.1508 31.3075 45.3208 31.3075C45.5008 31.3075 45.6208 31.3075 45.9508 31.4775C46.1508 31.5375 46.8008 31.6475 47.1508 31.6575C47.9208 31.5975 48.0708 31.5975 48.1908 31.5375C48.3908 31.4775 49.1508 31.4875 49.4308 31.5475C49.6108 31.5475 49.7108 31.5475 49.8508 31.5475C49.9308 31.4875 50.0708 31.4274 50.1708 31.4274C50.2508 31.3674 50.3408 31.3675 50.3408 31.3075C50.3608 31.3075 50.3908 31.3075 50.4208 31.3075C50.4808 31.4275 50.9808 31.4375 51.1708 31.3775C51.2908 31.3175 51.6208 31.3275 51.7708 31.3875C51.8008 31.3875 52.0408 31.3875 52.2908 31.3875C52.5408 31.4475 52.7908 31.4574 52.8408 31.5174C52.8908 31.5174 52.9908 31.5775 53.0608 31.6375C53.1108 31.6375 53.2808 31.6975 53.4308 31.7075C53.5608 31.7075 53.6808 31.7674 53.7008 31.7674C53.7008 31.7674 53.7808 31.7675 53.8908 31.7075C53.9708 31.7075 54.1408 31.7075 54.2608 31.7075C54.3808 31.7075 54.4608 31.7075 54.4808 31.7075C54.4808 31.5875 54.7008 31.5275 54.7008 31.5875C54.7008 31.6475 54.8208 31.6475 54.8308 31.5875H54.8808C54.9008 31.6475 55.0008 31.7074 55.1008 31.7674C55.1808 31.7674 55.2708 31.8275 55.2708 31.8275H55.4208L55.3908 31.8474Z" fill="#020202"></path></g><defs><clipPath id="clip0_366_14403"><rect width="72.53" height="53.18" fill="white" transform="translate(0.941406 0.217285)"></rect></clipPath></defs></svg> 