<?xml version="1.0" encoding="UTF-8"?> <svg xmlns="http://www.w3.org/2000/svg" width="73" height="54" viewBox="0 0 73 54" fill="none"><mask id="mask0_373_20327" style="mask-type:luminance" maskUnits="userSpaceOnUse" x="4" y="1" width="56" height="51"><path d="M29.3398 1.29053H34.1798C47.9898 1.29053 59.1798 12.4805 59.1798 26.2905C59.1798 40.1005 47.9898 51.2905 34.1798 51.2905H29.3398C15.5298 51.2905 4.33984 40.1005 4.33984 26.2905C4.33984 12.4805 15.5398 1.29053 29.3398 1.29053Z" fill="white"></path></mask><g mask="url(#mask0_373_20327)"><path d="M60.1798 0.290527H3.33984V52.2905H60.1798V0.290527Z" fill="#FFCE07"></path></g><mask id="mask1_373_20327" style="mask-type:luminance" maskUnits="userSpaceOnUse" x="17" y="1" width="52" height="52"><path d="M20.001 23.1608C19.871 23.6108 19.811 23.6108 19.821 23.1308C19.831 22.6508 19.991 22.3608 20.121 22.3908C20.201 22.5708 20.191 22.7208 20.001 23.1608ZM23.381 15.2008C23.2743 15.3741 23.2476 15.4175 23.301 15.3308L23.541 14.9308L23.381 15.1908V15.2008ZM21.391 19.6908L21.341 19.8308C21.391 19.6908 21.441 19.5408 21.441 19.5408L21.391 19.6808V19.6908ZM24.381 14.2108C24.101 14.3908 24.101 14.3908 24.231 14.1108C24.371 13.8308 24.741 13.5308 24.831 13.6008C25.021 13.5508 24.651 14.0308 24.381 14.2108ZM21.261 21.3908C21.221 21.5408 21.161 21.5208 21.161 21.5208C21.121 21.5141 21.1143 21.4608 21.141 21.3608C21.141 21.3608 21.181 21.2108 21.241 21.2308L21.261 21.3908ZM21.361 21.7308C21.211 21.8508 21.191 21.6908 21.321 21.4108C21.391 21.1208 21.451 21.1308 21.511 21.1508C21.591 21.3308 21.511 21.6108 21.361 21.7308ZM22.001 21.8908C21.881 21.8608 21.861 21.7008 22.061 21.1508C22.191 20.8808 22.231 20.7408 22.211 21.0408C22.161 21.4808 22.051 21.9008 21.991 21.8808L22.001 21.8908ZM31.211 43.7008C30.771 43.3708 29.731 42.7008 29.151 42.1108C28.321 41.3908 28.091 41.0408 27.801 40.9308C27.571 40.7708 27.481 40.6608 27.481 40.6608C27.431 40.5208 26.611 39.5808 25.461 37.7008C24.371 35.8708 23.951 34.5808 23.641 33.7508C23.291 32.9208 23.241 32.4708 23.071 32.1708C23.071 32.1708 22.911 31.7808 22.841 31.5108C22.591 31.0008 22.551 30.8608 22.461 31.1608C22.421 31.3108 22.401 31.1708 22.381 31.0308C22.321 30.6108 22.181 30.4908 22.001 30.5208C21.941 30.5208 21.861 30.4008 21.781 30.2608C21.701 30.1308 21.641 30.1308 21.521 30.1508C21.421 30.3108 21.301 30.3308 21.241 30.3408C21.061 30.3708 20.701 29.9708 20.531 29.6808C20.531 29.6808 20.451 29.5408 20.471 29.6808C20.471 29.6808 20.311 29.5508 20.181 29.2508C19.991 28.9608 19.921 28.8108 19.931 29.1208C19.8976 29.2275 19.861 29.2841 19.821 29.2908C19.571 29.1608 19.441 28.8508 19.421 28.5308C19.421 28.5308 19.341 28.2208 19.281 28.2208C19.141 27.9108 18.461 27.4408 18.401 27.4408V27.2708H18.271C18.211 27.2708 18.091 27.2708 18.021 27.1008C17.981 27.1008 17.9643 27.1575 17.971 27.2708C17.971 27.4408 17.921 27.6108 17.931 27.7708C17.881 27.9408 17.831 28.2808 17.791 28.6208C17.811 28.9608 17.751 28.9608 17.691 28.9708C17.621 28.8008 17.561 28.8008 17.421 29.5108C17.281 29.8608 17.461 32.3208 18.411 34.9408C18.721 35.7508 19.141 36.8908 19.461 37.5008C19.681 37.9708 20.111 38.7208 20.261 39.0308C20.401 39.3508 20.651 39.6008 20.731 39.7508C20.821 39.9008 20.961 40.0108 21.141 40.3108C21.261 40.4408 21.421 40.6908 21.681 41.1108C21.941 41.5308 22.361 42.0708 22.891 42.8508C23.261 43.3808 23.701 43.8108 24.101 44.2708C24.511 44.7208 24.921 45.1908 25.421 45.6108C26.371 46.5108 27.511 47.4308 29.101 48.4308C32.671 50.4708 33.571 50.5508 34.511 50.9408C38.781 52.4708 41.651 52.3808 43.281 52.4508C44.941 52.3908 45.501 52.3808 45.581 52.3608C45.751 52.3608 46.641 52.2508 47.661 52.0908C48.671 51.9008 49.781 51.5508 50.431 51.3608C51.061 51.0708 51.531 50.8908 51.721 50.8908C51.721 50.8908 51.861 50.8308 52.121 50.7408C52.351 50.6408 52.681 50.5308 52.971 50.3408C53.711 49.9108 54.641 49.4908 55.091 49.2308C55.481 49.0108 56.481 48.4408 56.871 48.2208C57.301 47.9408 57.871 47.5608 58.181 47.4108C58.341 47.3308 58.601 47.1808 59.111 46.8208C59.571 46.4008 60.341 45.8308 61.341 44.7708C61.681 44.3908 62.051 43.9808 62.421 43.5708C62.781 43.1508 63.091 42.6908 63.401 42.2708C64.051 41.4408 64.501 40.6008 64.811 40.0908C65.491 39.0908 66.501 36.7008 67.091 34.9108C67.381 33.9208 67.561 33.0608 67.741 32.3408C67.861 31.6108 67.931 31.0108 68.001 30.5308C68.141 29.5808 68.091 29.1008 68.051 29.0208C68.001 28.8408 68.031 28.1708 68.101 28.0008C68.321 27.8308 68.031 24.7608 67.911 24.7808C67.861 24.6108 67.771 24.1108 67.831 24.1108C67.861 24.1108 67.831 23.8108 67.771 23.3508C67.691 22.8908 67.651 22.2508 67.461 21.5908C67.291 20.9308 67.121 20.1408 66.921 19.4508C66.681 18.7608 66.471 18.1508 66.361 17.8408C65.841 16.4008 65.011 14.7408 63.981 13.1208C63.441 12.3308 62.861 11.5408 62.251 10.7908C61.591 10.0908 61.001 9.32082 60.301 8.74082C57.641 6.22082 54.921 4.87082 54.511 4.77082C54.361 4.70082 53.901 4.48082 53.291 4.18082C52.871 3.86082 51.561 3.48082 50.761 3.18082C49.941 2.95082 48.931 2.81082 48.771 2.75082C48.631 2.72082 48.331 2.65082 47.991 2.58082C47.611 2.53082 47.241 2.48082 46.941 2.44082C46.101 2.37082 45.771 2.26082 45.611 2.24082C45.451 2.14082 44.951 2.07082 44.441 2.04082C43.771 2.01082 43.261 1.92082 43.091 1.91082C42.921 1.88082 42.071 1.95082 41.061 2.05082C40.131 2.10082 39.681 2.24082 39.051 2.33082C38.741 2.37082 38.391 2.43082 37.901 2.50082C37.431 2.59082 36.841 2.74082 36.061 2.93082C34.091 3.44082 32.831 3.98082 31.951 4.49082C31.531 4.71082 31.201 4.88082 30.941 5.02082C30.671 5.19082 30.481 5.30082 30.321 5.40082C30.001 5.60082 29.811 5.70082 29.571 5.80082C29.111 6.03082 28.001 6.88082 26.941 7.75082C25.941 8.69082 24.971 9.63082 24.741 9.99082C24.491 10.3308 24.171 10.7508 23.791 11.2308C23.401 11.8008 23.011 12.3708 22.601 12.9608C22.161 13.6008 21.781 14.3808 21.301 15.1708C20.891 15.9908 20.471 16.8908 20.081 17.8508C19.741 18.7908 19.451 19.7408 19.401 19.9008C19.371 20.2408 19.331 20.4008 19.151 20.8608C19.071 21.1808 18.951 21.6608 18.861 21.9808C18.831 22.3108 18.731 23.1308 18.621 23.7808C18.401 24.7508 18.481 24.9308 18.581 25.2608C18.631 25.4308 18.731 25.7608 18.731 25.9208C18.711 26.4108 18.921 26.9008 19.221 26.9008C19.341 26.9008 19.511 27.0608 19.631 27.0608C19.741 27.2208 19.811 27.0608 19.881 26.9108C19.951 26.6008 20.021 26.6008 20.071 26.6008C20.131 26.6008 20.201 26.4508 20.211 26.3008C20.281 26.1508 20.341 26.1508 20.401 26.1608H20.461C20.531 26.0108 20.541 25.8608 20.601 25.8708C20.731 25.8708 21.091 24.8608 21.281 24.2908C21.431 23.7208 21.661 23.0208 21.751 23.1808C21.821 23.1908 21.811 23.0408 21.911 22.6208C21.9843 22.3408 22.0076 22.2475 21.981 22.3408L21.931 22.7708L22.161 22.3808C22.251 22.2608 22.381 21.9908 22.421 21.8608C22.461 21.7208 22.531 21.4508 22.581 21.4608C22.631 21.4708 22.741 21.0608 22.991 20.5708C23.231 20.0708 23.501 19.4608 23.671 19.0008C23.921 18.5008 24.091 18.2708 24.271 18.0408C24.501 17.8408 24.671 17.6208 24.731 17.5008C24.841 17.2508 25.161 16.7908 25.411 16.4608C25.581 16.2408 25.751 15.9808 25.931 15.6908C26.141 15.4208 26.351 15.1108 26.581 14.7508C26.861 14.2808 28.371 12.4508 30.101 11.0608C32.991 8.92082 33.361 8.99082 34.031 8.48082C34.261 8.31082 34.461 8.17082 34.771 8.00082C35.091 7.86082 35.521 7.71082 36.181 7.47082C37.631 7.01082 38.601 6.68082 41.391 6.60082C42.221 6.57082 44.041 6.53082 45.961 6.89082C46.931 7.01082 47.901 7.32082 48.811 7.56082C49.261 7.70082 49.681 7.89082 50.091 8.03082C50.491 8.18082 50.871 8.31082 51.191 8.48082C54.131 9.83082 55.651 11.0908 56.561 11.9208C57.511 12.7208 57.851 13.1708 58.211 13.4908C58.831 14.0508 60.051 15.6708 61.071 17.5008C62.081 19.3508 62.671 21.4708 62.901 22.6108C63.181 24.1008 63.331 24.9208 63.351 26.0308C63.391 26.3708 63.471 26.8208 63.481 27.2908C63.481 27.7608 63.471 28.2508 63.451 28.6608C63.511 29.3708 63.331 30.0508 63.411 30.0608C63.391 30.2008 63.351 30.4808 63.311 30.7508C63.251 31.0208 62.921 32.1708 62.561 33.4208C62.331 34.0308 62.101 34.6708 61.881 35.2508C61.621 35.8108 61.391 36.3108 61.241 36.6608C61.071 37.1208 60.551 37.9108 60.051 38.7608C59.451 39.5408 58.871 40.3708 58.391 40.7908C58.291 40.8908 57.931 41.3208 57.381 41.8808C56.791 42.4008 56.081 43.1308 55.211 43.7208C54.381 44.3708 53.441 44.8308 52.731 45.2708C51.971 45.6208 51.401 45.8708 51.201 45.9408C50.841 46.1508 50.011 46.3308 49.481 46.4808C49.291 46.5608 48.861 46.7008 48.321 46.8008C47.781 46.9008 47.161 47.1208 46.541 47.1808C46.021 47.2508 45.521 47.3208 45.091 47.3708C44.701 47.4008 44.421 47.3708 44.351 47.3908C44.351 47.3908 43.671 47.4208 42.841 47.5308C42.161 47.4708 40.771 47.4908 39.831 47.2808C39.361 47.2008 38.941 47.1608 38.641 47.0908C38.341 47.0108 38.141 46.9608 38.081 46.9408C38.051 47.0608 36.291 46.6808 36.321 46.5708C36.341 46.5108 35.431 46.1808 35.281 46.1908L34.891 46.0508C34.791 45.9408 34.071 45.5208 33.351 45.1108C33.041 44.9708 32.771 44.7508 32.551 44.6108C32.361 44.4708 32.201 44.3608 32.201 44.3608C32.091 44.2708 31.711 44.1108 31.171 43.6908L31.211 43.7008Z" fill="white"></path></mask><g mask="url(#mask1_373_20327)"><mask id="mask2_373_20327" style="mask-type:luminance" maskUnits="userSpaceOnUse" x="17" y="1" width="52" height="52"><path d="M68.1928 1.90088H17.3828V52.4509H68.1928V1.90088Z" fill="white"></path></mask><g mask="url(#mask2_373_20327)"><path d="M69.1928 0.900879H16.3828V53.4509H69.1928V0.900879Z" fill="#040404"></path></g></g><mask id="mask3_373_20327" style="mask-type:luminance" maskUnits="userSpaceOnUse" x="34" y="15" width="21" height="23"><path d="M36.6989 30.4706C36.6389 30.6306 36.5789 30.6306 36.5189 30.4706C36.4589 30.3106 36.5789 30.2006 36.6989 30.2006C36.8189 30.2606 36.8189 30.3106 36.6989 30.4706ZM37.0589 27.4106V27.4706V27.3106V27.4206V27.4106ZM37.1789 29.1606V29.2206V29.1106V29.1606ZM37.3589 26.9206C37.2789 26.9939 37.2189 26.9939 37.1789 26.9206C37.1189 26.8106 37.2389 26.6506 37.3589 26.6506C37.4789 26.5906 37.4789 26.8106 37.3589 26.9206ZM37.5389 29.7606C37.5389 29.8206 37.4789 29.8206 37.4789 29.8206C37.4389 29.8206 37.4189 29.8006 37.4189 29.7606C37.4189 29.7606 37.4189 29.7006 37.4789 29.7006L37.5389 29.7606ZM37.7189 29.8706C37.5989 29.9306 37.5389 29.8706 37.5989 29.7606C37.5989 29.6506 37.6589 29.6506 37.7189 29.6506C37.8389 29.7006 37.8389 29.8106 37.7189 29.8706ZM38.3789 29.8706C38.2589 29.8706 38.1989 29.8206 38.2589 29.6006C38.3189 29.4906 38.3189 29.4406 38.3789 29.5506C38.4389 29.7106 38.4389 29.8806 38.3789 29.8806V29.8706ZM41.2489 31.4906C41.0589 31.6006 40.6689 31.9006 40.3889 32.0706C39.9189 32.3506 40.1289 32.2206 40.1189 32.3606C40.1389 32.4206 40.1189 32.4206 40.1189 32.4206C40.1089 32.3606 40.0489 32.3206 39.9189 32.3106C39.6889 32.2006 39.6789 32.1106 39.5589 32.1606C39.5589 32.1606 39.4989 32.1706 39.4889 32.1606C39.3589 32.1906 39.2989 32.2006 39.2089 32.2806C39.1689 32.3206 39.1489 32.3106 39.1489 32.2906C39.1289 32.2506 39.0089 32.2906 38.8489 32.3606C38.7989 32.3806 38.7289 32.3906 38.6589 32.3906C38.5989 32.3906 38.5389 32.4106 38.4289 32.4506C38.3289 32.5206 38.2189 32.5706 38.1589 32.5906C37.9889 32.6606 37.6789 32.6606 37.5289 32.6006C37.5289 32.6006 37.4589 32.5706 37.4689 32.6206C37.4689 32.6206 37.3389 32.6206 37.1989 32.5406C37.0089 32.4806 36.9389 32.4406 36.9589 32.5406C36.9089 32.6106 36.9089 32.6106 36.8489 32.6206C36.6089 32.6206 36.4589 32.5206 36.4389 32.3906C36.4389 32.3906 36.3589 32.2706 36.2989 32.2806C36.1689 32.1806 35.4989 31.9906 35.4389 31.9806V31.9006H35.3189C35.2589 31.9006 35.1389 31.9006 35.0789 31.8206C35.0389 31.8206 35.0189 31.8506 35.0189 31.9106C35.0189 32.0006 34.9689 32.0906 34.9689 32.1806C34.9189 32.2706 34.8589 32.4606 34.8389 32.6506C34.8689 32.8306 34.8189 32.8406 34.7589 32.8606C34.6889 32.7806 34.6189 32.7806 34.5289 33.2106C34.4689 33.3206 34.5089 33.7506 34.7389 34.3006C34.9589 34.8606 35.4189 35.5106 36.0589 36.0206C36.4189 36.3806 37.0489 36.7206 37.4089 36.9006C37.6789 37.0406 38.1589 37.1706 38.3589 37.2206C38.5489 37.2806 38.7589 37.2706 38.8489 37.2906C38.9489 37.3106 39.0589 37.2606 39.2489 37.2906C39.4489 37.2506 39.9389 37.3606 41.0089 37.2406C41.3689 37.1806 41.7389 37.0506 42.0789 36.9206C42.2589 36.8606 42.4189 36.7806 42.5789 36.6706C42.6789 36.6106 42.7789 36.5506 42.8889 36.4806C43.1989 36.2806 43.5689 36.0406 44.1389 35.6806C45.2089 34.9106 45.4389 34.7706 45.7189 34.6006C46.9289 33.9306 47.7189 33.4906 48.2289 33.2106C48.6689 32.9806 48.8589 32.8806 48.8789 32.8706C48.9989 32.8706 49.8989 32.3406 50.2389 32.0606C50.3989 31.9006 50.5389 31.8106 50.6189 31.8406C50.6189 31.8406 50.8089 31.7306 50.9689 31.5706C51.0189 31.5206 51.0789 31.4806 51.1289 31.4306C51.1589 31.4106 51.1889 31.3806 51.2189 31.3706C51.2789 31.3306 51.3289 31.3006 51.3789 31.2706C51.5889 31.1406 51.7689 31.0106 51.9089 30.9406C52.1789 30.8106 52.7289 30.5206 52.9289 30.3306C53.1389 30.1606 53.4289 29.9206 53.6089 29.8006C53.6889 29.7406 53.8189 29.6306 54.0189 29.3406C54.2189 29.0606 54.4589 28.5806 54.6089 27.7806C54.6989 27.2206 54.6589 26.5606 54.4989 26.0006C54.3489 25.4406 54.0889 24.9806 53.9089 24.7006C53.6589 24.3206 53.1489 23.7206 52.3789 23.2706C52.0089 23.0406 51.6889 22.8406 51.4189 22.6706C50.2789 22.0206 49.8189 21.7306 49.7089 21.8006C49.6289 21.8206 49.4489 21.7006 49.4289 21.6206C49.4489 21.4906 48.5489 21.0606 48.4889 21.1706C48.4089 21.1906 48.2689 21.1006 48.2989 21.0506C48.3289 21.0006 48.0089 20.7906 47.6389 20.5606C47.2689 20.3206 46.7989 19.9506 46.6089 19.8406C45.8089 19.2606 44.6689 18.5006 43.6689 17.8806C43.1789 17.5706 42.7189 17.3006 42.3689 17.1006C41.7789 16.7506 41.3089 16.5006 41.2089 16.4806C41.1289 16.4406 40.8689 16.2906 40.5289 16.1606C40.2889 15.9806 39.5789 15.8706 39.1389 15.8706C38.6989 15.8906 38.1989 16.0606 38.1089 16.0806C37.9389 16.1206 37.5389 16.2906 37.2289 16.4506C36.8689 16.6906 36.7089 16.7606 36.6289 16.8006C36.5289 16.8006 36.2789 16.9106 36.0889 17.1006C35.8289 17.3406 35.6389 17.5206 35.5689 17.5906C35.5189 17.6606 35.2489 18.0306 35.1089 18.5606C34.8689 19.5206 34.8389 19.4806 34.7889 21.3206C34.7289 21.9906 34.7289 22.4206 34.7889 22.7506C34.8489 23.3506 34.8489 23.4606 34.7889 23.6206C34.7889 23.9506 34.9089 25.4206 34.9689 25.7006C35.1489 26.2506 35.2689 27.3406 35.3289 28.7006C35.3289 29.0306 35.3889 29.3606 35.3889 29.4106C35.4489 29.5206 35.4489 29.5706 35.3889 29.7406V30.1206C35.4489 30.2306 35.4489 30.5006 35.4489 30.7206C35.3889 31.0506 35.4489 31.1006 35.5689 31.2106C35.6289 31.2606 35.7489 31.3706 35.7489 31.4306C35.7489 31.5906 35.9889 31.7606 36.2889 31.7606C36.4089 31.7606 36.5889 31.8206 36.7089 31.8206C36.8289 31.8706 36.8889 31.8206 36.9489 31.7606C37.0089 31.6506 37.0689 31.6506 37.1289 31.6506C37.1889 31.6506 37.2489 31.5906 37.2489 31.5406C37.3089 31.4806 37.3689 31.4806 37.4289 31.4806H37.4889C37.5489 31.4206 37.5489 31.3706 37.6089 31.3706C37.7289 31.3706 38.0889 30.9906 38.1489 30.7706C38.2089 30.5506 38.3289 30.2806 38.4489 30.3306C38.5089 30.3306 38.5089 30.2706 38.5089 30.1106V30.0006L38.5689 30.1606L38.6889 30.0006C38.7489 29.9506 38.8089 29.8406 38.8089 29.7806C38.8089 29.7206 38.8089 29.6206 38.8689 29.6206C38.9289 29.6206 39.1089 28.9606 39.1089 28.5806C39.1089 28.3606 39.1689 28.2506 39.2289 28.1406C39.3489 28.0306 39.4089 27.9206 39.4089 27.8706C39.4089 27.7606 39.4089 27.5406 39.4689 27.3806C39.5289 27.1606 39.5289 26.8906 39.4689 26.5606C39.4689 26.3406 39.4089 25.4106 39.4089 24.5406C39.4089 23.1206 39.4089 23.0106 39.2889 22.6806C39.1689 22.4606 39.1689 22.3006 39.1689 21.7506C39.1689 21.6006 39.1689 21.4706 39.1689 21.3306C39.1689 21.3006 39.1689 21.2806 39.1889 21.2606C39.2089 21.2106 39.2489 21.1606 39.3489 21.1506C39.4289 21.0706 39.6489 21.1506 39.6589 21.2006H39.6989C39.6989 21.2006 39.6889 21.1906 39.7489 21.2206C39.8489 21.2806 39.9389 21.3406 40.0289 21.3906C40.3789 21.6006 40.6489 21.7606 40.8589 21.8906C41.2789 22.1406 41.4789 22.2506 41.6489 22.3206C42.2389 22.6206 44.3589 23.9706 45.1089 24.5206C45.6189 24.8406 45.8889 25.0206 46.2589 25.2506C46.5189 25.3506 46.9189 25.5306 47.1989 25.7106C47.4589 25.8106 47.6889 25.9506 47.7289 25.9006C47.7789 25.9306 47.8689 25.9906 47.9589 26.0506C47.9989 26.1306 48.1989 26.2906 48.4589 26.4706C48.5989 26.5706 48.7389 26.6606 48.8689 26.7506C48.8889 26.7606 48.9089 26.7806 48.9389 26.7906C48.9789 26.8106 49.0189 26.8206 49.0589 26.8306C49.1789 26.8106 49.2889 27.0106 49.1889 27.0906C49.1889 27.1006 49.1889 27.2406 49.0789 27.3206C48.9989 27.3406 48.9389 27.3506 48.8889 27.3606C48.8589 27.3706 48.8689 27.3606 48.8089 27.3806C48.7089 27.4306 48.6289 27.4606 48.5889 27.4706C48.4489 27.5506 48.1389 27.6706 47.9189 27.7306C47.7789 27.8106 47.2789 28.0406 46.8589 28.2906C46.4789 28.5106 46.1189 28.6606 46.0789 28.6806C46.0789 28.6806 45.8389 28.8206 45.5889 29.0406C45.3489 29.1806 44.8789 29.4606 44.5589 29.6506C44.2289 29.8406 43.9989 29.9806 43.9489 30.0106C44.0089 30.1106 43.4289 30.5306 43.3989 30.4806C43.3689 30.4306 43.0389 30.6206 43.0189 30.7006L42.8789 30.7806C42.7989 30.7606 42.4889 30.8706 42.1789 30.9906C41.9389 31.1306 41.6789 31.2206 41.6789 31.2206C41.6289 31.2506 41.4889 31.3306 41.2589 31.4706L41.2489 31.4906Z" fill="white"></path></mask><g mask="url(#mask3_373_20327)"><path d="M55.6887 14.9004H33.4688V38.3804H55.6887V14.9004Z" fill="#040404"></path></g></svg> 