<?xml version="1.0" encoding="UTF-8"?> <svg xmlns="http://www.w3.org/2000/svg" width="62" height="51" viewBox="0 0 62 51" fill="none"><path fill-rule="evenodd" clip-rule="evenodd" d="M25.3008 0.653809H30.1398C43.9468 0.653809 55.1398 11.8468 55.1398 25.6538C55.1398 39.4608 43.9468 50.6538 30.1398 50.6538H25.3008C11.4938 50.6538 0.300781 39.4608 0.300781 25.6538C0.300781 11.8468 11.4938 0.653809 25.3008 0.653809Z" fill="#FFCE07"></path><g clip-path="url(#clip0_368_15298)"><path d="M33.1005 34.1179C33.1605 34.1779 33.1605 34.2379 33.1005 34.2979C33.0305 34.3579 33.0005 34.2379 33.0105 34.1179C33.0405 33.9979 33.0605 33.9979 33.1105 34.1179H33.1005ZM32.0105 33.6379C32.0105 33.6379 32.0505 33.6379 32.0305 33.6379H31.9705C31.9705 33.6379 31.9705 33.6279 32.0105 33.6379ZM32.6505 33.6079H32.6705H32.6305C32.6105 33.6079 32.6305 33.6079 32.6505 33.6079ZM31.8905 33.3179C31.9105 33.4379 31.9105 33.4379 31.8605 33.4979C31.8105 33.5479 31.7705 33.4179 31.8005 33.3079C31.8005 33.1879 31.8805 33.1979 31.8905 33.3279V33.3179ZM32.9005 33.2779L32.9105 33.3379C32.9105 33.3779 32.9038 33.3979 32.8905 33.3979C32.8905 33.3979 32.8705 33.3979 32.8805 33.3379L32.9005 33.2779ZM32.9505 33.0979C32.9505 33.2179 32.9405 33.2779 32.9005 33.2179C32.8605 33.2179 32.8705 33.1579 32.8705 33.0979C32.9005 32.9779 32.9305 32.9879 32.9405 33.0979H32.9505ZM33.0005 32.4379C33.0005 32.5579 32.9705 32.6179 32.9005 32.5479C32.8705 32.4879 32.8505 32.4779 32.9005 32.4279C32.9605 32.3779 33.0105 32.3779 33.0005 32.4379ZM31.5905 27.1079C31.5905 27.1079 31.7505 26.9979 31.8305 26.9779C31.9405 26.9479 31.9805 26.9379 31.9805 26.8179C31.9905 26.7479 32.0105 26.7479 32.0105 26.7479C32.0405 26.7979 32.1805 26.8379 32.4105 26.7979C32.8705 26.7879 32.9805 26.7979 33.0505 26.6579C33.0505 26.6579 33.0905 26.5979 33.1205 26.5979C33.1705 26.4779 33.1905 26.4179 33.1505 26.2979C33.1305 26.2379 33.1505 26.2379 33.1605 26.2379C33.2105 26.2379 33.2205 26.1179 33.2105 25.9379C33.2105 25.8779 33.2205 25.8179 33.2305 25.7579C33.2405 25.6979 33.2405 25.6379 33.2305 25.5179C33.2105 25.3979 33.2005 25.2779 33.2005 25.2179C33.2005 25.0379 33.2305 24.7379 33.2705 24.6179C33.2705 24.6179 33.2905 24.5579 33.2705 24.5579C33.2705 24.5579 33.2805 24.4379 33.3205 24.3179C33.3505 24.1379 33.3705 24.0779 33.3305 24.0779C33.3105 24.0179 33.3105 24.0179 33.3105 23.9579C33.3205 23.7179 33.3605 23.5979 33.4105 23.5979C33.4105 23.5979 33.4505 23.5379 33.4505 23.4779C33.4905 23.3579 33.5505 22.6979 33.5505 22.6379H33.5705C33.5705 22.6379 33.5705 22.5779 33.5705 22.5179C33.5705 22.4579 33.5705 22.3379 33.5905 22.2779C33.5905 22.2379 33.5838 22.2179 33.5705 22.2179C33.5705 22.2179 33.5205 22.1579 33.5005 22.1579C33.4805 22.0979 33.4305 22.0379 33.3805 21.9779C33.3305 21.9779 33.3305 21.9179 33.3305 21.8579C33.3505 21.7979 33.3505 21.7379 33.2505 21.5579C33.2005 21.3879 32.8305 21.3179 32.4305 21.4879C32.3005 21.4979 32.1305 21.5779 32.0305 21.5879C31.9505 21.5879 31.8305 21.6679 31.7805 21.6779C31.7305 21.6779 31.6905 21.7579 31.6605 21.7579C31.6305 21.7579 31.6205 21.8279 31.5705 21.8379C31.5305 21.9079 31.4105 21.9279 31.1205 21.9179C30.7505 22.0079 30.4405 22.0679 29.9205 22.3079C29.3705 22.6179 29.2605 22.6779 29.1205 22.7379C28.4805 22.9779 28.0805 23.1779 27.8505 23.2979C27.6505 23.3979 27.5205 23.4579 27.5205 23.4679C27.4405 23.4379 27.0105 23.7479 26.8705 23.9479C26.8205 24.0679 26.7605 24.1179 26.6905 24.0879C26.6905 24.0879 26.6005 24.1679 26.5605 24.2879C26.5005 24.4279 26.3705 24.5479 26.3105 24.6079C26.2505 24.6579 26.0805 24.7479 26.0305 24.8179C25.9705 24.8879 25.8505 24.9379 25.7605 24.9379C25.6805 24.9479 25.5205 24.9979 25.2205 25.4579C24.9905 25.7579 24.8305 26.2379 24.7305 26.4379C24.6305 26.6379 24.5105 27.1379 24.4105 27.4879C24.2705 28.2879 24.3005 28.6279 24.4105 28.6679C24.4705 28.7079 24.4605 28.8379 24.4005 28.8679C24.2605 28.8979 24.4205 29.4979 24.5405 29.4879C24.6005 29.5179 24.6105 29.6079 24.5505 29.6179C24.4905 29.6179 24.5005 29.8579 24.5605 30.1079C24.6105 30.3579 24.6405 30.7279 24.6905 30.8479C24.8105 31.4279 25.1605 32.1679 25.5505 32.6779C25.9405 33.1879 26.3405 33.5179 26.4505 33.4879C26.4705 33.5079 26.5305 33.5679 26.6105 33.6379C26.6305 33.7379 26.8405 33.8479 26.9505 33.9279C27.1005 33.9679 27.2605 34.0179 27.2805 34.0379C27.3205 34.0679 27.4605 34.1079 27.5505 34.1679C27.6905 34.1879 27.7005 34.2679 27.7305 34.2779C27.7205 34.3379 27.7505 34.4379 27.8205 34.4779C27.9105 34.5379 27.9505 34.6279 27.9705 34.6479C27.9905 34.6679 28.1105 34.7379 28.2705 34.7579C28.5505 34.8379 28.5505 34.8479 28.9605 35.1079C29.2205 35.2879 29.4105 35.3679 29.5705 35.3679C29.8505 35.3979 29.9005 35.4179 29.9505 35.4979C30.0905 35.5579 30.7805 35.6179 30.9105 35.5879C31.1905 35.4779 31.6805 35.4579 32.2705 35.4679C32.4105 35.4879 32.5605 35.4379 32.5805 35.4379C32.6305 35.3879 32.6505 35.3879 32.7205 35.4479C32.7705 35.4479 32.8405 35.4479 32.8805 35.4579C32.9305 35.3979 33.0505 35.4079 33.1405 35.4079C33.2805 35.4779 33.3005 35.4079 33.3505 35.2979C33.3705 35.2379 33.4205 35.1179 33.4405 35.1179C33.5105 35.1179 33.5805 34.8779 33.5805 34.5779C33.5805 34.4579 33.6005 34.2779 33.6005 34.1579C33.6205 34.0379 33.6005 33.9779 33.5805 33.9179C33.5405 33.8579 33.5405 33.7979 33.5405 33.7379C33.5405 33.6779 33.5205 33.6179 33.5005 33.6179C33.4805 33.5579 33.4805 33.4979 33.4805 33.4379V33.3779C33.4605 33.3179 33.4405 33.3179 33.4405 33.2579C33.4405 33.1379 33.3205 32.7779 33.2505 32.7079C33.1805 32.6479 33.1005 32.5179 33.1305 32.4079C33.1305 32.3479 33.1205 32.3479 33.0705 32.3479C33.0372 32.3479 33.0272 32.3479 33.0405 32.3479L33.0905 32.2879L33.0505 32.1679C33.0405 32.1079 33.0105 32.0479 32.9905 32.0479C32.9705 32.0479 32.9405 32.0479 32.9505 31.9779C32.9505 31.9179 32.7805 31.7179 32.6705 31.7079C32.6105 31.7079 32.5805 31.6379 32.5605 31.5779C32.5505 31.4579 32.5305 31.3879 32.5105 31.3879C32.4805 31.3879 32.4205 31.3679 32.3905 31.3079C32.3405 31.2379 32.2705 31.2279 32.1705 31.2679C32.1105 31.2679 31.8605 31.2579 31.6305 31.1979C31.2805 31.0779 31.2505 31.0679 31.1305 31.1579C31.0305 31.2479 30.9905 31.2279 30.8605 31.1679C30.7105 31.1079 30.6105 31.0579 30.4605 30.7779C30.2705 30.5779 29.9105 30.1979 29.8405 30.1179C29.4305 29.8179 29.4305 29.7479 29.3405 29.7279C29.2205 29.6679 29.0505 29.3379 29.1305 29.2279C29.1005 29.1579 29.1305 29.1279 29.1105 29.0779C29.0405 29.0479 28.9805 28.9979 28.9905 28.9579C28.9305 28.9179 28.9305 28.8879 28.8705 28.8779C28.8705 28.8779 28.8705 28.8579 28.8705 28.8379C29.0005 28.8279 29.0405 28.6379 29.0205 28.5279C28.9905 28.4579 29.0605 28.2879 29.1705 28.2479C29.1905 28.2379 29.2405 28.1179 29.3605 27.9979C29.5005 27.9079 29.6405 27.7979 29.7005 27.8179C29.7305 27.7979 29.8105 27.7879 29.8905 27.8179C29.9205 27.7979 30.0505 27.7779 30.1305 27.7079C30.2105 27.6579 30.3205 27.6579 30.3305 27.6479C30.3305 27.6479 30.3805 27.6179 30.4105 27.5179C30.4605 27.4779 30.5805 27.4279 30.6605 27.3779C30.7405 27.3379 30.8005 27.2979 30.8105 27.2979C30.7605 27.1879 30.9005 27.0679 30.9205 27.1179C30.9405 27.1779 31.0305 27.1379 31.0205 27.0779L31.0605 27.0579C31.0605 27.0579 31.1905 27.1279 31.2905 27.1579C31.3605 27.1379 31.4405 27.1679 31.4405 27.1679C31.4505 27.1679 31.4905 27.1479 31.5605 27.1279L31.5905 27.1079Z" fill="#020202"></path><path d="M44.3503 44.5379C44.4103 44.2879 44.4703 44.2879 44.5303 44.5379C44.5903 44.7879 44.4703 44.9579 44.3503 44.9579C44.2303 44.8779 44.2303 44.7879 44.3503 44.5379ZM42.4203 47.8879C42.527 47.8879 42.5536 47.8879 42.5003 47.8879H42.2603C42.2603 47.8879 42.2603 47.8879 42.4203 47.8879ZM43.8803 46.4079V46.3379C43.8803 46.4079 43.8803 46.4879 43.8803 46.4879C43.8803 46.5579 43.8803 46.4879 43.8803 46.4179V46.4079ZM41.6803 47.5879C41.8403 47.7079 41.8403 47.7079 41.7003 47.7679C41.5603 47.8279 41.3203 47.7079 41.3103 47.5879C41.2403 47.4679 41.5403 47.4679 41.6703 47.5879H41.6803ZM43.5203 45.5479C43.5203 45.4879 43.5803 45.4879 43.5803 45.4879C43.6203 45.4879 43.6403 45.5112 43.6403 45.5579C43.6403 45.5579 43.6403 45.6279 43.5803 45.6179L43.5203 45.5479ZM43.3403 45.4079C43.4603 45.3479 43.5203 45.4079 43.4603 45.5379C43.4603 45.6679 43.4003 45.6479 43.3403 45.6379C43.2203 45.5579 43.2203 45.4579 43.3403 45.4079ZM42.6803 45.3779C42.8003 45.3779 42.8603 45.4379 42.8003 45.5979C42.7403 45.6679 42.7403 45.7079 42.6803 45.6079C42.6203 45.4779 42.6203 45.3779 42.6803 45.3779ZM23.8203 12.7679C23.8203 12.7679 23.7903 12.7079 23.8203 12.7079C23.9503 12.7079 24.0203 12.7079 24.1503 12.6979C24.3203 12.6879 24.4203 12.6579 24.5003 12.5979C24.6703 12.5379 24.7503 12.5379 24.7503 12.5379C24.8303 12.5979 25.5803 12.6579 26.9103 12.6579C29.4903 12.7179 30.1603 12.7179 30.5703 12.5979C30.5703 12.5979 30.8203 12.5379 30.9903 12.5379C31.3203 12.4179 31.4103 12.3579 31.2403 12.2379C31.1603 12.1779 31.2403 12.1779 31.3203 12.1779C31.5703 12.1779 31.6503 12.0579 31.6503 11.8779C31.6503 11.8179 31.7303 11.7579 31.8203 11.6979C31.9003 11.6379 31.9003 11.5779 31.9003 11.4579C31.8203 11.3379 31.8203 11.2179 31.8203 11.1579C31.8203 10.9779 32.0703 10.6779 32.2403 10.5579C32.2403 10.5579 32.3203 10.4979 32.2403 10.4979C32.2403 10.4979 32.3203 10.3779 32.4903 10.2579C32.6603 10.0779 32.7403 10.0179 32.5703 10.0179C32.517 9.97786 32.4903 9.93786 32.4903 9.89786C32.5703 9.65786 32.7403 9.53786 32.9103 9.53786C32.9103 9.53786 33.0803 9.47786 33.0803 9.41786C33.2503 9.29786 33.5003 8.63786 33.5003 8.57786H33.5803C33.5803 8.57786 33.5803 8.51786 33.5803 8.45786C33.5803 8.39786 33.5803 8.27786 33.6603 8.21786C33.6603 8.17786 33.6336 8.15786 33.5803 8.15786C33.5003 8.15786 33.4103 8.09786 33.3303 8.09786C33.2503 8.03786 33.0803 7.97786 32.9103 7.91786C32.7403 7.91786 32.7403 7.85786 32.7403 7.79786C32.8203 7.73786 32.8203 7.67786 32.4903 7.49786C32.3203 7.31786 31.1603 7.25786 29.8303 7.37786C29.4103 7.37786 28.8303 7.43786 28.5003 7.43786C28.2503 7.43786 27.8303 7.49786 27.6703 7.49786C27.5103 7.49786 27.3403 7.55786 27.2503 7.55786C27.1703 7.55786 27.0803 7.61786 26.9203 7.61786C26.7503 7.67786 26.3403 7.67786 25.4203 7.61786C24.7303 7.61786 24.1103 7.61786 23.3903 7.61786C22.8003 7.63786 22.1303 7.57786 21.5203 7.73786C20.9203 7.87786 20.3103 8.16786 19.7503 8.73786C19.2603 9.26786 19.0503 9.80786 18.9403 10.2379C18.8303 10.6779 18.8203 11.0779 18.8203 11.3379C18.8403 12.4779 18.8403 12.8079 18.8503 13.2279C18.8103 15.3879 18.7903 16.7479 18.7803 17.5979C18.7603 18.3779 18.7503 18.6879 18.7503 18.7179C18.6903 18.8879 18.6903 20.4679 18.7503 21.1279C18.8103 21.4579 18.8103 21.7079 18.7503 21.7979C18.7503 21.7979 18.7503 22.1279 18.8103 22.4679C18.8703 22.8879 18.8703 23.3879 18.8703 23.6379C18.8703 23.8879 18.8103 24.3879 18.8103 24.6379C18.8103 24.8879 18.7503 25.2179 18.6903 25.3879C18.6303 25.5579 18.5703 25.9679 18.5703 27.3779C18.5903 28.3179 18.6203 29.6579 18.6403 30.2079C18.6503 30.7579 18.6903 32.0979 18.7103 32.9579C18.7703 34.9579 18.7803 35.7879 18.9003 35.8679C18.9603 35.9479 18.9603 36.2879 18.9003 36.3679C18.7803 36.4479 18.9003 37.9479 19.0203 37.9479C19.0803 38.0279 19.0803 38.2779 19.0203 38.2779C18.9603 38.2779 18.9603 38.8579 18.9603 39.5279C18.9603 40.1979 18.9003 41.1079 18.9003 41.4379C18.8803 42.0879 18.8703 42.7779 18.8503 43.4779C18.8503 44.3579 18.8403 45.2479 18.8303 46.1079C18.7303 47.5679 19.1303 48.6579 19.9903 49.4179C20.8303 50.1479 21.7303 50.2979 22.5203 50.2979C23.2803 50.2779 23.8003 50.2479 23.9103 50.2079C23.9903 50.2079 24.2403 50.2079 24.5803 50.2079C24.8303 50.2679 25.5003 50.2079 25.9103 50.2079C26.3303 50.1479 26.8303 50.0879 26.9103 50.0879C27.0803 50.0879 27.4903 50.0279 27.8303 50.0279C28.2503 49.9679 28.4103 50.0279 28.5003 50.0279C28.5803 50.0879 28.8303 50.1479 29.0803 50.1479C29.4103 50.1479 29.6603 50.2079 29.7503 50.2079C29.8303 50.2079 30.2503 50.2079 30.7503 50.1479C31.3636 50.1079 32.197 50.1079 33.2503 50.1479C34.2503 50.2079 34.9203 50.2079 35.4103 50.1479C36.3303 50.0879 36.4903 50.0879 36.7403 50.1479C37.2403 50.1479 39.4903 50.0279 39.9003 49.9679C40.1103 49.9279 40.3703 49.8779 40.6703 49.8479C40.8403 49.8279 41.0003 49.8079 41.1603 49.7979L41.4403 49.7779L41.9103 49.7579C42.5403 49.7379 43.2503 49.7179 43.8503 49.4979C44.4603 49.2979 45.1003 48.8079 45.4203 48.1079C45.7203 47.4879 45.6703 46.6879 45.6703 46.5579C45.6103 46.2779 45.6103 46.1579 45.6703 45.7779C45.6703 45.5579 45.6703 45.2379 45.6703 45.0179C45.6103 44.8479 45.6103 44.4379 45.6103 44.0979C45.6703 43.5979 45.6103 43.5179 45.4903 43.3479C45.4303 43.2679 45.3103 43.0979 45.3103 43.0179C45.3103 42.7679 45.0703 42.5179 44.7703 42.5179C44.6503 42.5179 44.4703 42.4379 44.3503 42.4379C44.2303 42.3579 44.1703 42.4379 44.1103 42.5179C44.0503 42.6879 43.9903 42.6879 43.9303 42.6879C43.8703 42.6879 43.8103 42.7679 43.8103 42.8579C43.7503 42.9379 43.6903 42.9379 43.6303 42.9379H43.5703C43.5103 43.0179 43.5103 43.1079 43.4503 43.1079C43.3303 43.1079 42.9703 43.6879 42.9103 44.0279C42.8503 44.3579 42.7303 44.7779 42.6103 44.6979C42.5503 44.6979 42.5503 44.7779 42.5503 45.0279C42.5503 45.1945 42.5503 45.2512 42.5503 45.1979L42.4903 44.9479L42.3703 45.1979C42.3103 45.3279 42.2503 45.3379 42.2503 45.3679C42.2503 45.3979 42.2503 45.4479 42.1903 45.4379C42.1203 45.4479 41.9703 45.6179 41.9303 45.7079C41.9003 45.7679 41.8203 45.7379 41.7503 45.6979C41.6303 45.5979 41.5803 45.5479 41.5703 45.5479C41.5603 45.5479 41.5203 45.5479 41.4803 45.4879C41.4603 45.4579 41.4403 45.4379 41.4303 45.4379C41.4303 45.4379 41.4203 45.4379 41.4103 45.4479C41.4103 45.4479 41.4103 45.4479 41.4103 45.4579C41.3603 45.4579 41.2903 45.4679 41.2303 45.4779C40.9003 45.4779 39.4803 45.5379 38.1503 45.5379C35.9903 45.5379 35.8203 45.5379 35.3203 45.6579C34.9903 45.7779 34.7403 45.7779 33.9003 45.7779C32.9803 45.7779 32.4003 45.7779 30.7403 45.5979C29.7403 45.5379 26.4103 45.4179 24.6603 45.4179C24.3803 45.4179 24.1203 45.4179 23.8803 45.4279C23.8703 45.4279 23.8503 45.4279 23.8403 45.4379C23.6503 45.4779 23.7003 45.3379 23.6403 45.3379C23.6403 45.3179 23.6303 45.3379 23.6203 45.2679C23.6203 45.0579 23.6103 44.8179 23.6003 44.5679C23.6003 44.0379 23.6003 43.4279 23.5803 42.7979C23.5803 41.5379 23.5803 40.2279 23.6203 39.5179C23.6203 38.5979 23.6203 38.0979 23.6203 37.4379C23.5603 37.0179 23.5003 36.3579 23.5003 35.8579C23.4403 35.4379 23.4403 35.0279 23.3803 35.0279C23.3803 34.9479 23.3803 34.7779 23.3803 34.6079C23.5003 34.2779 23.4903 31.7779 23.4303 30.8579C23.3703 30.2779 23.3703 28.6079 23.4303 27.8579C23.4303 27.6879 23.4303 26.5279 23.4303 25.2779C23.4903 24.0279 23.4803 22.7779 23.5403 22.5279C23.5403 22.2779 23.6003 21.7779 23.6603 21.4479C23.6603 21.1979 23.7203 20.3679 23.7203 19.6179C23.7203 18.9479 23.7803 18.3679 23.7803 18.2879C23.7803 18.2879 23.7803 17.8679 23.7203 17.3679C23.7203 16.9479 23.7203 16.1179 23.7203 15.5379C23.7203 14.9579 23.7203 14.5379 23.7203 14.4579C23.6003 14.4579 23.5403 13.3779 23.6003 13.3779C23.6603 13.3979 23.6603 12.7479 23.6003 12.7579V12.7379H23.7003C23.7003 12.7379 23.7503 12.7279 23.7803 12.7379C23.7803 12.7279 23.8403 12.7679 23.8403 12.7679H23.8203Z" fill="#020202"></path><path d="M54.3494 42.9678C54.7394 43.0278 54.7394 43.0878 54.3494 43.1478C53.9594 43.2078 53.6994 43.0878 53.6994 42.9678C53.8294 42.8478 53.9594 42.8478 54.3494 42.9678ZM47.0794 42.6078C47.2527 42.6078 47.2961 42.6078 47.2094 42.6078H46.8194C46.8194 42.6078 46.8194 42.6078 47.0794 42.6078ZM51.2294 42.4878H51.3594C51.2294 42.4878 51.0994 42.4878 51.0994 42.4878C50.9694 42.4878 51.0994 42.4878 51.2294 42.4878ZM45.9094 42.3078C46.0827 42.3878 46.0827 42.4478 45.9094 42.4878C45.6494 42.5478 45.2594 42.4278 45.2594 42.3078C45.1294 42.1878 45.6494 42.1878 45.9094 42.3078ZM52.6594 42.1278C52.7894 42.1278 52.7894 42.1878 52.7894 42.1878C52.7894 42.2278 52.7461 42.2478 52.6594 42.2478C52.6594 42.2478 52.5294 42.2478 52.5294 42.1878L52.6594 42.1278ZM52.9194 41.9478C53.0494 42.0678 52.9194 42.1278 52.6594 42.0678C52.3994 42.0678 52.3994 42.0078 52.3994 41.9478C52.5294 41.8278 52.7894 41.8278 52.9194 41.9478ZM52.9194 41.2878C52.9194 41.4078 52.7894 41.4678 52.2694 41.4078C52.0094 41.3478 51.8794 41.3478 52.1394 41.2878C52.5294 41.2278 52.9194 41.2278 52.9194 41.2878ZM56.1294 25.0778C56.1394 25.5578 56.1794 26.8278 56.1994 27.5478C56.1994 28.5878 56.1994 28.9778 56.3194 29.2378C56.3794 29.4978 56.3794 29.6278 56.3794 29.6278C56.3194 29.7578 56.2594 30.9278 56.2694 32.9978C56.2194 37.0178 56.2194 38.0578 56.3394 38.7078C56.3394 38.7078 56.3994 39.0978 56.3994 39.3578C56.5194 39.8778 56.5794 40.0078 56.6994 39.7478C56.7594 39.6178 56.7594 39.7478 56.7594 39.8778C56.7594 40.2678 56.8794 40.3978 57.0594 40.3978C57.1194 40.3978 57.1794 40.5278 57.2394 40.6578C57.2994 40.7878 57.3594 40.7878 57.4794 40.7878C57.5994 40.6578 57.7194 40.6578 57.7794 40.6578C57.9594 40.6578 58.2594 41.0478 58.3794 41.3078C58.3794 41.3078 58.4394 41.4378 58.4394 41.3078C58.4394 41.3078 58.5594 41.4578 58.6794 41.6778C58.8394 41.9078 58.8294 42.0978 58.8994 41.8278C58.9794 41.7078 58.9794 41.6978 59.0394 41.7078C59.2794 41.8578 59.2994 42.3078 59.0594 42.6078C59.0594 42.6078 58.8494 42.9278 58.8794 42.9678C58.7694 43.1378 58.6494 43.4378 58.4894 43.6978C58.3394 43.9578 58.1594 44.1678 58.1694 44.1978L57.8994 44.2378C57.8994 44.2378 57.8994 44.2978 57.9094 44.3578C57.9094 44.4178 57.9294 44.5378 57.6294 44.6078C57.6294 44.6678 57.6294 44.6778 57.9394 44.6578C58.2494 44.6278 58.5694 44.6078 58.8694 44.4878C59.1894 44.4278 59.8294 44.1578 60.3294 43.6078C60.7594 43.0078 60.7594 42.9878 60.8294 43.0278C60.7694 43.2178 60.7494 43.3178 60.8594 43.2078C60.9494 43.0978 61.2594 42.7578 61.4294 41.8978C61.4994 41.5278 61.5194 41.5178 61.5494 41.2378C61.5794 40.9978 61.5994 40.6778 61.6094 40.3078C61.6294 39.5578 61.6094 38.5878 61.5494 37.5478C61.5294 36.9678 61.4994 35.9378 61.4894 35.4678C61.4894 35.0778 61.4294 34.4278 61.4294 34.1678C61.4294 33.9078 61.3694 33.6478 61.3694 33.5178C61.3694 33.3878 61.3094 33.2578 61.3094 32.9978C61.2494 32.7378 61.2494 32.0878 61.3094 30.6578C61.3094 28.7078 61.3094 27.1578 61.2394 24.2978C61.1094 21.1878 61.1094 20.5378 61.1094 19.7578C61.1394 16.3578 61.1594 14.2378 61.1794 12.9478C61.1994 11.7078 61.2094 11.2578 61.2094 11.1978C61.2694 10.9178 61.2594 8.52777 61.2094 7.37777C61.1494 6.41777 61.1594 5.69777 61.1594 5.45777C61.1594 5.45777 61.1294 5.22777 61.0294 4.91777C60.9394 4.62777 60.7594 4.24777 60.4694 3.90777C60.1294 3.48777 59.6394 3.10777 59.1594 2.88777C58.6894 2.66777 58.2294 2.57777 57.8794 2.54777C57.5394 2.50777 57.0094 2.50777 56.4694 2.48777C56.0794 2.47777 55.7194 2.46777 55.5294 2.45777C55.1394 2.45777 54.6194 2.39777 54.3594 2.33777C54.0994 2.27777 53.4494 2.21777 51.2494 2.21777C49.7294 2.23777 47.7194 2.26777 46.8394 2.27777C45.9594 2.28777 43.9494 2.31777 42.5594 2.33777C39.4394 2.39777 38.1694 2.39777 37.9994 2.51777C37.7594 2.57777 36.8294 2.56777 36.5794 2.51777C36.4194 2.44777 35.3394 2.50777 34.5494 3.09777C33.6894 3.67777 33.3794 4.65777 33.4494 4.66777C33.4194 4.87777 33.2794 5.46777 33.2394 5.45777C33.2094 5.44777 33.1194 5.80777 33.1294 6.45777C33.1294 6.95777 33.1294 7.59777 33.1294 8.28777C33.1094 9.26777 33.0894 10.7778 33.0794 11.2678C32.9694 15.9378 32.9894 24.3778 33.1694 25.0178C33.1694 25.1478 33.1694 25.5378 33.1694 26.0578C33.1094 26.4478 33.1694 27.4878 33.1694 28.1378C33.2294 28.7878 33.2894 29.5678 33.2894 29.6978C33.2894 29.9578 33.3494 30.6078 33.3494 31.1278C33.4094 31.7778 33.3494 32.0378 33.3494 32.1678C33.2894 32.2978 33.2294 32.6878 33.2294 33.0778C33.2294 33.5978 33.1694 33.9878 33.1694 34.1178C33.1694 34.2478 33.1694 34.8978 33.2294 35.6778C33.2694 36.6311 33.2694 37.9278 33.2294 39.5678C33.2194 40.1578 33.2094 40.6678 33.1994 41.1078C33.1794 41.7078 33.2394 42.2278 33.3794 42.6278C33.6294 43.4378 34.2194 44.0378 34.7594 44.3378C35.7494 44.8878 36.4994 44.8278 37.0194 44.8478C37.5194 44.8478 37.8494 44.8678 38.1394 44.8978C38.9194 44.8978 42.4194 44.7778 43.0694 44.7178C44.3694 44.5378 46.9594 44.4178 50.2094 44.3578C50.9894 44.3578 51.7694 44.2978 51.8994 44.2978C52.1594 44.2378 52.2894 44.2378 52.6794 44.2978C52.9394 44.2978 53.3294 44.2978 53.5894 44.2978C53.8494 44.2378 54.4994 44.2378 55.0194 44.2378C55.7994 44.2978 55.9294 44.2378 56.1894 44.1178C56.3194 44.0578 56.5794 43.9378 56.7094 43.9378C57.0994 43.9378 57.4894 43.6978 57.4894 43.3978C57.4894 43.2778 57.6194 43.0978 57.6194 42.9778C57.7494 42.8578 57.6194 42.7978 57.4894 42.7378C57.2294 42.6778 57.2294 42.6178 57.2294 42.5578C57.2294 42.4978 57.0994 42.4378 56.9694 42.4378C56.8394 42.3778 56.8394 42.3178 56.8394 42.2578V42.1978C56.7094 42.1378 56.5794 42.1378 56.5794 42.0778C56.5794 41.9578 55.6694 41.5978 55.1494 41.5378C54.6294 41.4778 53.9794 41.3578 54.1094 41.2378C54.1094 41.1778 53.9794 41.1778 53.5894 41.1778C53.3294 41.1778 53.2427 41.1778 53.3294 41.1778L53.7194 41.1178L53.3294 40.9978C53.1994 40.9378 52.9394 40.8778 52.8094 40.8778C52.6794 40.8778 52.4194 40.8778 52.4194 40.8178C52.4194 40.7578 50.8594 40.5778 49.9494 40.5778C49.4294 40.5778 49.1694 40.5178 48.9094 40.4578C48.6494 40.3378 48.3894 40.2778 48.2594 40.2778C47.9994 40.2778 47.4794 40.2778 47.0894 40.2178C46.5694 40.1578 45.9194 40.1578 45.1394 40.2178C44.6294 40.2178 42.3694 40.2478 40.3394 40.2778C39.4994 40.2778 38.8494 40.2778 38.3394 40.2778C37.9894 40.2778 38.1094 40.2778 38.0594 40.2778C38.0394 40.2778 38.0294 40.2778 38.0094 40.2778C37.9494 40.2878 37.9094 40.3278 37.8194 40.3578C37.6594 40.4378 37.5994 40.3478 37.6194 40.1178C37.6194 39.5778 37.6294 39.1678 37.6394 38.5478C37.6594 37.8178 37.6994 36.9378 37.7894 35.6478C37.8494 34.0878 37.9594 28.8978 37.9494 26.1778C37.8794 20.0778 37.8694 18.9078 37.8094 18.0078C37.7494 16.4478 37.7294 10.4778 37.7894 8.27777C37.7894 7.92777 37.7894 7.65777 37.7894 7.40777C37.7894 7.36777 37.7894 7.31777 37.8194 7.28777C37.7994 7.17777 37.9194 7.13777 38.0294 7.13777C38.6394 7.07777 39.3194 7.07777 39.3094 7.01777C39.4394 7.01777 39.6994 7.01777 39.9594 7.01777C40.4794 7.13777 44.3694 7.13777 45.7994 7.07777C46.7094 7.01777 49.2994 7.01777 50.4694 7.07777C50.7294 7.07777 52.5494 7.07777 54.4894 7.07777C54.9994 7.08777 55.4694 7.09777 55.9294 7.11777H56.0994H56.1394H56.1794L56.2594 7.13777C56.3594 7.13777 56.4094 7.20777 56.3894 7.25777C56.4294 7.29777 56.3494 7.42777 56.2894 7.46777C56.2894 7.05777 56.2294 8.67777 56.2394 9.77777C56.2394 10.8178 56.1794 11.7278 56.1794 11.8578C56.1794 11.8578 56.1794 12.5078 56.2394 13.2878C56.2394 13.9378 56.2394 15.2378 56.2394 16.1378C56.2394 17.0478 56.2394 17.6978 56.2394 17.8278C56.3594 17.8278 56.4194 19.5178 56.3594 19.5178C56.2994 19.5178 56.2994 20.4278 56.3594 20.5578V20.9478C56.2994 21.0778 56.2394 21.8578 56.1794 22.6378C56.1794 23.2878 56.1194 23.9378 56.1194 23.9378C56.1194 24.0678 56.1194 24.4578 56.1194 25.1078L56.1294 25.0778Z" fill="#020202"></path><path d="M48.5084 19.4478C48.3984 19.3778 48.3984 19.3178 48.5284 19.2678C48.6584 19.2178 48.7284 19.3478 48.7084 19.4678C48.6584 19.5878 48.6184 19.5778 48.5084 19.4478ZM50.5884 20.2178C50.5418 20.2045 50.5284 20.2012 50.5484 20.2078L50.6584 20.2378L50.5884 20.2178ZM49.3684 20.0378H49.3284H49.4084C49.4484 20.0378 49.4084 20.0378 49.3684 20.0378ZM50.8084 20.6078C50.7784 20.4678 50.7784 20.4678 50.8684 20.4378C50.9584 20.4078 51.0284 20.5578 50.9784 20.6778C50.9784 20.7978 50.8384 20.7478 50.8084 20.6078ZM48.8984 20.3278L48.8684 20.2578C48.8684 20.2178 48.8818 20.2012 48.9084 20.2078C48.9084 20.2078 48.9484 20.2078 48.9384 20.2778L48.8984 20.3278ZM48.7984 20.4978C48.7784 20.3778 48.8184 20.3178 48.8884 20.3878C48.9584 20.3978 48.9484 20.4578 48.9384 20.5178C48.8884 20.6278 48.8184 20.6178 48.7984 20.4978ZM48.7084 21.1478C48.7284 21.0278 48.7684 20.9778 48.8884 21.0578C48.9484 21.1278 48.9784 21.1378 48.9084 21.1778C48.7984 21.2178 48.6984 21.2078 48.7084 21.1478ZM43.8184 23.3178C43.8784 23.2678 44.0184 23.1078 44.1484 23.0378C44.3084 22.9378 44.3984 22.9178 44.3884 22.7778C44.4084 22.6978 44.4384 22.6878 44.4384 22.6878C44.4884 22.7278 44.7284 22.6878 45.1484 22.5478C45.9984 22.3578 46.2484 22.3678 46.3784 22.2178C46.3784 22.2178 46.4584 22.1478 46.5184 22.1478C46.6284 22.0178 46.6484 21.9578 46.5784 21.8378C46.5384 21.7778 46.5784 21.7778 46.6084 21.7778C46.6984 21.7778 46.7184 21.6478 46.7084 21.4678C46.7084 21.4078 46.7284 21.3478 46.7584 21.2778C46.7884 21.2178 46.7784 21.1578 46.7784 21.0378C46.7384 20.9178 46.7284 20.7978 46.7184 20.7378C46.7084 20.5578 46.7884 20.2478 46.8584 20.1278C46.8584 20.1278 46.8884 20.0678 46.8584 20.0678C46.8584 20.0678 46.8884 19.9478 46.9584 19.8278C47.0284 19.6478 47.0684 19.5878 46.9884 19.5878C46.9618 19.5478 46.9484 19.5078 46.9484 19.4678C46.9784 19.2278 47.0584 19.1078 47.1384 19.0978C47.1384 19.0978 47.2184 19.0378 47.2184 18.9778C47.2984 18.8578 47.4184 18.1878 47.4184 18.1278H47.4584C47.4584 18.1278 47.4584 18.0678 47.4584 18.0078C47.4584 17.9478 47.4584 17.8278 47.4984 17.7678C47.4984 17.7278 47.4818 17.7078 47.4484 17.7078C47.4484 17.7078 47.3584 17.6478 47.3084 17.6478C47.2584 17.5878 47.1684 17.5278 47.0784 17.4778C46.9884 17.4778 46.9784 17.4178 46.9784 17.3578C47.0184 17.2978 47.0184 17.2378 46.8184 17.0678C46.7184 16.8878 46.0184 16.8578 45.2584 17.1178C45.0184 17.1478 44.6884 17.2778 44.4984 17.3278C44.3484 17.3578 44.1284 17.4678 44.0284 17.4978C43.9284 17.5278 43.8584 17.6078 43.8084 17.6278C43.7584 17.6378 43.7284 17.7178 43.6384 17.7478C43.5584 17.8278 43.3284 17.8978 42.7884 18.0478C42.0884 18.3578 41.5184 18.5878 40.5784 19.3678C39.6184 20.3078 39.4784 20.6378 39.2484 20.9178C38.2584 22.2578 38.1484 23.5778 38.1484 24.2278C38.1684 24.9278 38.2384 25.1478 38.2384 25.1778C38.1684 25.3478 38.6284 26.6078 38.9984 26.9778C39.1884 27.1678 39.2984 27.2978 39.2884 27.3878C39.2884 27.3878 39.4384 27.5978 39.6384 27.7278C39.8784 27.8978 40.1184 28.1578 40.2484 28.2578C40.3784 28.3678 40.5884 28.6278 40.7184 28.7278C40.8484 28.8178 40.9884 28.9878 41.0484 29.1078C41.1084 29.2178 41.2984 29.4378 42.0884 29.8478C42.6484 30.1378 43.3884 30.3278 43.7184 30.4178C44.0484 30.5278 44.7784 30.6478 45.2984 30.7278C46.4484 30.8478 46.9184 30.8278 46.9684 30.7278C47.0184 30.6678 47.2084 30.6778 47.2484 30.7278C47.2984 30.8678 48.1484 30.7178 48.1384 30.5978C48.1784 30.5378 48.3184 30.5278 48.3284 30.5978C48.3284 30.6578 48.6584 30.6278 49.0384 30.5978C49.4084 30.5578 49.9384 30.5278 50.1284 30.4878C50.9784 30.3878 52.1884 30.0478 53.1584 29.4978C54.1384 28.9778 54.8484 28.2478 54.8784 28.0878C54.9184 28.0478 55.0384 27.9178 55.1984 27.7578C55.3684 27.6878 55.6184 27.2478 55.7884 27.0078C55.9084 26.7078 56.0284 26.3478 56.0584 26.2978C56.1084 26.1778 56.1784 25.8578 56.2684 25.6178C56.3084 25.2878 56.3884 25.1778 56.3984 25.1078C56.4684 25.0578 56.5884 24.8778 56.5984 24.6678C56.6284 24.3978 56.6984 24.1978 56.6984 24.1278C56.7084 24.0578 56.6884 23.7078 56.5784 23.3078C56.3484 22.6078 56.4184 22.5578 55.9184 21.4678C55.5884 20.7878 55.2584 20.4478 54.9784 20.2478C54.4984 19.8478 54.4084 19.8178 54.3284 19.6578C54.0784 19.4178 52.8384 18.7878 52.5884 18.7878C52.0684 18.7178 51.1584 18.4878 50.0384 18.3078C49.7684 18.2478 49.4984 18.2778 49.4484 18.2578C49.3484 18.2978 49.3084 18.2978 49.1784 18.2178C49.0884 18.1978 48.9584 18.1878 48.8684 18.1778C48.7684 18.2278 48.5484 18.2078 48.3784 18.1878C48.1184 18.1078 48.0684 18.1778 47.9784 18.2878C47.9284 18.3478 47.8384 18.4678 47.7984 18.4578C47.6684 18.4578 47.5384 18.6878 47.5384 18.9878C47.5384 19.1078 47.4984 19.2878 47.4984 19.4078C47.4584 19.5278 47.4984 19.5878 47.5384 19.6478C47.6184 19.7078 47.6184 19.7678 47.6184 19.8278C47.6184 19.8878 47.6584 19.9478 47.6884 19.9478C47.7284 20.0078 47.7284 20.0678 47.7184 20.1278V20.1878C47.7484 20.2478 47.7884 20.2478 47.7884 20.3078C47.7884 20.4278 48.0184 20.7978 48.1584 20.8578C48.2884 20.9278 48.4484 21.0678 48.4084 21.1878C48.4084 21.2478 48.4384 21.2478 48.5384 21.2578C48.6051 21.2578 48.6284 21.2578 48.6084 21.2578L48.4984 21.3078L48.5784 21.4378C48.6084 21.4978 48.6584 21.5678 48.6884 21.5678C48.7184 21.5678 48.7784 21.5878 48.7784 21.6478C48.7784 21.7178 49.1184 21.9278 49.3184 21.9878C49.4384 22.0178 49.4784 22.0878 49.5284 22.1578C49.5584 22.2878 49.5984 22.3578 49.6284 22.3678C49.6784 22.3878 49.7884 22.4178 49.8584 22.4978C49.9484 22.5878 50.0784 22.6278 50.2484 22.6378C50.3584 22.6678 50.7984 22.8078 51.1384 23.0078C51.6384 23.3578 51.6184 23.3878 51.7884 23.3778C51.9384 23.3478 51.9784 23.3978 52.0784 23.5378C52.1584 23.6678 52.2484 23.8078 52.0784 23.9778C52.0384 24.0278 52.0284 24.0778 51.9584 24.1478C51.8384 24.2878 51.7284 24.4078 51.6684 24.4778C51.4084 24.7878 51.1184 25.0078 50.9284 25.1178C50.7484 25.2478 50.6384 25.2878 50.5784 25.3678C50.4484 25.4678 50.0784 25.6278 49.6584 25.7478C49.2284 25.8578 48.7684 25.9278 48.5084 25.9178C48.1784 25.9478 47.9984 25.9678 47.7584 25.9678C47.6084 26.0378 47.3584 26.0878 47.1784 26.0878C47.0184 26.1478 46.8684 26.1378 46.8584 26.1878C46.8284 26.1878 46.7684 26.1878 46.7084 26.1678C46.5884 26.0578 45.6984 25.9078 45.3684 25.8778C45.1484 25.8778 44.5884 25.6978 44.3984 25.5278C44.3484 25.5078 43.9884 25.3478 43.6884 25.1378C43.3984 24.8878 43.2184 24.6678 43.2184 24.5878C43.1684 24.5478 43.1784 24.4278 43.1784 24.3578C43.1584 24.3178 43.1384 24.1878 43.1284 24.1378C43.1084 24.0878 43.1684 24.0578 43.1584 24.0478C43.1584 24.0478 43.1784 24.0378 43.0984 24.0178C43.1084 23.9978 43.0984 23.9678 43.1184 23.9378C43.1384 23.8978 43.1484 23.8678 43.1484 23.8578C43.0484 23.8178 43.0684 23.6478 43.1184 23.6778C43.1684 23.7078 43.2284 23.6378 43.1884 23.5878L43.2084 23.5478C43.2584 23.5778 43.3884 23.5478 43.4884 23.5078C43.5584 23.4478 43.6784 23.4278 43.6784 23.4278C43.6884 23.4178 43.7284 23.3778 43.8284 23.3178H43.8184Z" fill="#020202"></path></g><defs><clipPath id="clip0_368_15298"><rect width="43.06" height="48.09" fill="white" transform="translate(18.5703 2.21777)"></rect></clipPath></defs></svg> 