<?xml version="1.0" encoding="UTF-8"?> <svg xmlns="http://www.w3.org/2000/svg" id="Layer_2" viewBox="0 0 163.23 39.98"><defs><style>.cls-1{fill:none;}.cls-1,.cls-2,.cls-3{stroke-width:0px;}.cls-2{fill-rule:evenodd;}.cls-2,.cls-3{fill:#fff;}</style></defs><g id="Layer_1-2"><rect class="cls-1" width="163.23" height="39.98"></rect><path class="cls-2" d="m60.31.97h23.08v29.16h-23.08V.97Zm.83,28.34h21.43V1.8h-21.43v27.52h0ZM85.88.97h23.07v29.16h-23.07V.97Zm.82,28.34h21.43V1.8h-21.43v27.52h0ZM111.43.97h23.08v29.16h-23.08V.97Zm.83,28.34h21.42V1.8h-21.42v27.52h0ZM34.76.97h23.07v29.16h-23.07V.97Zm.82,28.34h21.43V1.8h-21.43v27.52h0Z"></path><path class="cls-3" d="m54.03,15.83l-7.25-.06-8.8,9.48c-.02.08-.05.16-.07.23l.07-.23c1.49-5,2.82-9.44,2.82-9.44l-5.34.09-6.94,23.29h5.39c.04-.2,1.24-4.45,2.66-9.2.38-.02.87-.04.87-.04l4.26,9.24h6.83l-5.62-11.85,11.13-11.51Z"></path><path class="cls-3" d="m125.47,22.19h6.76c1.2-3.53-1.14-8.08-8.96-8.07-4.63,0-13.36,2.6-16.15,12.39-2.61,9.13,3.19,12.91,10.83,12.72,3.53-.09,8.94-.55,10.24-1.07l3.13-12.71-11.36-.03-1.14,4.45,5.21.19-1.02,4.15s.2.79-3.67.8c-4.87,0-6.23-3.4-4.61-8.99,1.48-5.18,3.27-6.72,7.65-6.97,1.14-.06,3.12.45,3.05,2.48,0,.19.1.47.04.64Z"></path><path class="cls-3" d="m87.6,29.25v-13.35l-9.13-.02-7.01,23.25,5.97.02,5.14-18.1.2,18.08,5.09.06,11.25-17.95-3.82,17.95h5.88l4.81-23.36h-9.41c-4.45,6.87-6.42,10.17-8.27,13.22-.03.05-.7.19-.7.19Z"></path><path class="cls-3" d="m64.26,15.83h-6.1l-7.15,23.31,6.07.02,2.67-9.03h2.65c8.16-.19,10.69-3.76,11.53-7.44,1.53-6.74-3.62-6.87-9.66-6.87Zm3.94,6.99c-.79,2.34-1.78,3.05-4.51,3.18-1.15.05-.91,0-2.61,0l1.78-6.55c5.18,0,6.55-.19,5.34,3.37Z"></path></g></svg> 