<?xml version="1.0" encoding="UTF-8"?> <svg xmlns="http://www.w3.org/2000/svg" xmlns:xlink="http://www.w3.org/1999/xlink" width="120px" height="120px" viewBox="0 0 120 120" version="1.1"><title>Group 87</title><defs><polygon id="path-1" points="0 119.13 119.13 119.13 119.13 0 0 0"></polygon></defs><g id="Design" stroke="none" stroke-width="1" fill="none" fill-rule="evenodd"><g id="Homepage" transform="translate(-725, -9027)"><g id="Footer" transform="translate(-111, 8057)"><g id="Group-85" transform="translate(334, 667)"><g id="Group-87" transform="translate(502, 303)"><path d="M81.8345,52.5697 C80.9095,50.6197 79.7195,49.4967 77.2085,49.4967 C74.8955,49.4307 73.4415,50.6197 72.6705,52.5897 C71.8685,54.6817 71.9395,57.2997 72.6485,59.6737 C73.4085,62.2177 74.8295,63.0777 77.3075,63.0777 C80.0835,63.0777 81.2725,61.6567 81.9005,59.5747 C82.5595,57.3917 82.6605,54.4527 81.8345,52.5697 M88.5905,56.3657 C88.6695,58.6247 88.0605,60.7127 86.8805,62.5807 C85.4165,64.8977 83.2445,66.3157 80.5715,66.9547 C78.2315,67.5137 75.8685,67.5597 73.5645,66.9267 C71.8415,66.4517 70.3335,65.5187 68.9865,64.2547 C65.6105,61.0867 64.8695,54.7707 67.0815,50.7777 C68.8615,47.5657 71.6045,45.8017 75.1875,45.2587 C77.7545,44.8687 80.2645,45.1267 82.6205,46.2077 C85.9005,47.7127 87.6975,50.4047 88.3505,53.8937 C88.5025,54.7047 88.5145,55.5407 88.5905,56.3657" id="Fill-1" fill="#000000"></path><path d="M60.384,47.7143 L60.384,45.6843 C61.746,45.6843 63.362,45.6733 64.685,45.7033 C64.814,45.7063 64.752,45.9633 64.754,46.1043 C64.777,48.2183 64.77,50.3333 64.77,52.5373 C63.386,52.5373 61.678,52.5363 60.489,52.5363 C60.22,52.1333 59.972,51.7723 59.769,51.4883 C59.573,51.2143 59.42,51.0133 59.332,50.9173 C58.639,49.9263 56.689,48.4723 54.121,48.7213 C53.153,48.8363 51.414,49.0693 51.204,50.2893 C51.039,51.2483 51.427,52.0373 52.275,52.4073 C53.147,52.7873 54.728,53.1383 55.665,53.2633 C57.912,53.6933 59.586,54.0073 61.678,55.0483 C64.085,56.2443 65.575,58.4173 65.351,60.8083 C65.129,63.1723 63.867,64.9793 61.84,66.0603 C58.61,67.7833 55.308,67.6803 52.118,65.8223 C51.498,65.4613 50.943,64.9873 50.253,64.4893 L50.253,66.7693 L45.791,66.7693 L45.791,59.3063 L50.25,59.3063 C51.332,61.5783 52.998,62.9953 55.614,63.1593 C56.816,63.2353 57.965,63.1313 59.061,62.6493 C60.011,62.2313 60.455,61.4953 60.381,60.5283 C60.307,59.5653 59.711,58.9163 58.851,58.6853 C57.605,58.3503 56.317,58.1513 55.037,57.9643 C53.331,57.7143 51.865,57.2613 50.18,56.6673 C48.098,55.8743 47.018,54.9483 46.424,53.2353 C45.83,51.5223 46.032,49.5563 47.176,48.2713 C49.332,45.8473 52.05,45.0233 55.231,45.3733 C57.122,45.5813 58.72,46.3173 60.091,47.6053 C60.134,47.6463 60.211,47.6523 60.384,47.7143" id="Fill-3" fill="#000000"></path><path d="M44.0008,49.8438 L40.2048,49.8438 L40.2048,62.5688 L44.0318,62.5688 L44.0318,66.8408 C39.7728,66.8078 36.0468,66.8348 31.4898,66.8348 C31.4898,65.4928 31.4148,63.9418 31.4148,62.5818 L35.2098,62.5818 L35.2098,49.8408 L31.4158,49.8408 L31.4158,45.7418 L44.0008,45.7418 L44.0008,49.8438 Z" id="Fill-5" fill="#000000"></path><path d="M42.5772,83.4187 C42.7202,82.9567 42.9352,82.5537 43.2222,82.2087 C43.5092,81.8637 43.8702,81.5957 44.3042,81.4027 C44.7392,81.2097 45.2382,81.1127 45.8032,81.1127 C46.2332,81.1127 46.6432,81.1807 47.0322,81.3157 C47.4222,81.4497 47.7652,81.6427 48.0612,81.8927 C48.3572,82.1437 48.5922,82.4527 48.7672,82.8207 C48.9412,83.1877 49.0292,83.6007 49.0292,84.0567 C49.0292,84.5317 48.9522,84.9397 48.8002,85.2807 C48.6472,85.6207 48.4462,85.9227 48.1952,86.1867 C47.9442,86.4517 47.6602,86.6917 47.3422,86.9067 C47.0242,87.1207 46.7032,87.3347 46.3812,87.5447 C46.0582,87.7557 45.7452,87.9817 45.4402,88.2237 C45.1352,88.4657 44.8662,88.7477 44.6342,89.0707 L49.0822,89.0707 L49.0822,90.7097 L42.1742,90.7097 C42.1742,90.1637 42.2522,89.6887 42.4092,89.2847 C42.5662,88.8817 42.7792,88.5207 43.0482,88.2027 C43.3162,87.8847 43.6322,87.5917 43.9952,87.3227 C44.3582,87.0547 44.7412,86.7807 45.1442,86.5027 C45.3502,86.3597 45.5702,86.2147 45.8032,86.0657 C46.0362,85.9177 46.2482,85.7547 46.4412,85.5757 C46.6342,85.3967 46.7952,85.1947 46.9252,84.9707 C47.0552,84.7467 47.1202,84.4917 47.1202,84.2047 C47.1202,83.7477 46.9882,83.3917 46.7232,83.1367 C46.4592,82.8807 46.1212,82.7527 45.7092,82.7527 C45.4312,82.7527 45.1952,82.8187 45.0032,82.9487 C44.8102,83.0777 44.6562,83.2477 44.5392,83.4587 C44.4232,83.6687 44.3402,83.9017 44.2912,84.1577 C44.2422,84.4127 44.2172,84.6657 44.2172,84.9167 L42.3892,84.9167 C42.3712,84.3787 42.4342,83.8807 42.5772,83.4187" id="Fill-7" fill="#000000"></path><path d="M55.003,84.5273 C54.622,85.1543 54.304,85.8223 54.049,86.5303 C53.793,87.2383 53.596,87.9543 53.457,88.6803 C53.318,89.4063 53.244,90.0833 53.235,90.7103 L51.192,90.7103 C51.3,89.3033 51.629,87.9503 52.181,86.6513 C52.731,85.3513 53.455,84.1603 54.351,83.0763 L49.889,83.0763 L49.889,81.3013 L56.313,81.3013 L56.313,82.9413 C55.821,83.3713 55.384,83.9003 55.003,84.5273" id="Fill-9" fill="#000000"></path><path d="M59.0549,86.9396 C59.0729,87.3206 59.1289,87.6876 59.2229,88.0426 C59.3169,88.3956 59.4669,88.6986 59.6739,88.9486 C59.8789,89.2006 60.1749,89.3256 60.5609,89.3256 C60.9539,89.3256 61.2569,89.2006 61.4669,88.9486 C61.6779,88.6986 61.8299,88.3956 61.9249,88.0426 C62.0189,87.6876 62.0739,87.3206 62.0919,86.9396 C62.1099,86.5586 62.1189,86.2346 62.1189,85.9646 C62.1189,85.8046 62.1169,85.6096 62.1129,85.3806 C62.1079,85.1526 62.0899,84.9176 62.0589,84.6756 C62.0269,84.4336 61.9819,84.1936 61.9249,83.9556 C61.8659,83.7186 61.7789,83.5066 61.6629,83.3176 C61.5459,83.1296 61.3979,82.9766 61.2189,82.8606 C61.0399,82.7446 60.8199,82.6856 60.5609,82.6856 C60.2999,82.6856 60.0829,82.7446 59.9089,82.8606 C59.7339,82.9766 59.5899,83.1296 59.4779,83.3176 C59.3659,83.5066 59.2789,83.7186 59.2159,83.9556 C59.1529,84.1936 59.1089,84.4336 59.0819,84.6756 C59.0549,84.9176 59.0389,85.1526 59.0349,85.3806 C59.0299,85.6096 59.0279,85.8046 59.0279,85.9646 C59.0279,86.2346 59.0369,86.5586 59.0549,86.9396 M57.3949,83.6606 C57.5789,83.0386 57.8269,82.5386 58.1409,82.1616 C58.4549,81.7856 58.8199,81.5166 59.2369,81.3556 C59.6529,81.1936 60.0939,81.1126 60.5609,81.1126 C61.0349,81.1126 61.4809,81.1936 61.8979,81.3556 C62.3139,81.5166 62.6809,81.7856 62.9999,82.1616 C63.3169,82.5386 63.5679,83.0386 63.7519,83.6606 C63.9359,84.2836 64.0279,85.0516 64.0279,85.9646 C64.0279,86.9066 63.9359,87.6926 63.7519,88.3246 C63.5679,88.9556 63.3169,89.4596 62.9999,89.8356 C62.6809,90.2126 62.3139,90.4816 61.8979,90.6426 C61.4809,90.8036 61.0349,90.8846 60.5609,90.8846 C60.0939,90.8846 59.6529,90.8036 59.2369,90.6426 C58.8199,90.4816 58.4549,90.2126 58.1409,89.8356 C57.8269,89.4596 57.5789,88.9556 57.3949,88.3246 C57.2109,87.6926 57.1199,86.9066 57.1199,85.9646 C57.1199,85.0516 57.2109,84.2836 57.3949,83.6606" id="Fill-11" fill="#000000"></path><path d="M66.5276,86.9396 C66.5456,87.3206 66.6016,87.6876 66.6956,88.0426 C66.7896,88.3956 66.9396,88.6986 67.1466,88.9486 C67.3516,89.2006 67.6476,89.3256 68.0336,89.3256 C68.4266,89.3256 68.7296,89.2006 68.9396,88.9486 C69.1506,88.6986 69.3026,88.3956 69.3976,88.0426 C69.4916,87.6876 69.5466,87.3206 69.5646,86.9396 C69.5826,86.5586 69.5916,86.2346 69.5916,85.9646 C69.5916,85.8046 69.5896,85.6096 69.5856,85.3806 C69.5806,85.1526 69.5626,84.9176 69.5316,84.6756 C69.4996,84.4336 69.4546,84.1936 69.3976,83.9556 C69.3386,83.7186 69.2516,83.5066 69.1356,83.3176 C69.0186,83.1296 68.8706,82.9766 68.6916,82.8606 C68.5126,82.7446 68.2926,82.6856 68.0336,82.6856 C67.7726,82.6856 67.5556,82.7446 67.3816,82.8606 C67.2066,82.9766 67.0626,83.1296 66.9506,83.3176 C66.8386,83.5066 66.7516,83.7186 66.6886,83.9556 C66.6256,84.1936 66.5816,84.4336 66.5546,84.6756 C66.5276,84.9176 66.5116,85.1526 66.5076,85.3806 C66.5026,85.6096 66.5006,85.8046 66.5006,85.9646 C66.5006,86.2346 66.5096,86.5586 66.5276,86.9396 M64.8676,83.6606 C65.0516,83.0386 65.2996,82.5386 65.6136,82.1616 C65.9276,81.7856 66.2926,81.5166 66.7096,81.3556 C67.1256,81.1936 67.5666,81.1126 68.0336,81.1126 C68.5076,81.1126 68.9536,81.1936 69.3706,81.3556 C69.7866,81.5166 70.1536,81.7856 70.4726,82.1616 C70.7896,82.5386 71.0406,83.0386 71.2246,83.6606 C71.4086,84.2836 71.5006,85.0516 71.5006,85.9646 C71.5006,86.9066 71.4086,87.6926 71.2246,88.3246 C71.0406,88.9556 70.7896,89.4596 70.4726,89.8356 C70.1536,90.2126 69.7866,90.4816 69.3706,90.6426 C68.9536,90.8036 68.5076,90.8846 68.0336,90.8846 C67.5666,90.8846 67.1256,90.8036 66.7096,90.6426 C66.2926,90.4816 65.9276,90.2126 65.6136,89.8356 C65.2996,89.4596 65.0516,88.9556 64.8676,88.3246 C64.6836,87.6926 64.5926,86.9066 64.5926,85.9646 C64.5926,85.0516 64.6836,84.2836 64.8676,83.6606" id="Fill-13" fill="#000000"></path><path d="M75.1427,90.7098 L75.1427,84.6078 L72.7777,84.6078 L72.7777,83.1698 C73.1087,83.1788 73.4297,83.1538 73.7387,83.0958 C74.0477,83.0378 74.3247,82.9348 74.5717,82.7868 C74.8177,82.6388 75.0267,82.4438 75.1967,82.2028 C75.3667,81.9598 75.4787,81.6598 75.5327,81.3018 L77.0517,81.3018 L77.0517,90.7098 L75.1427,90.7098 Z" id="Fill-15" fill="#000000"></path><path d="M45.4121,77.7568 L44.8811,76.9718 C49.3201,73.9728 54.7081,72.3208 60.0531,72.3208 C64.9351,72.3208 70.3411,73.9878 74.8851,76.8958 L74.3751,77.6938 C69.9791,74.8818 64.7591,73.2688 60.0531,73.2688 C54.8951,73.2688 49.6961,74.8628 45.4121,77.7568" id="Fill-17" fill="#000000"></path><path d="M71.8354,75.6933 C73.0654,74.2913 74.1574,72.6693 75.0684,70.8683 L74.0024,70.8683 C73.1194,72.5283 72.0774,74.0203 70.9124,75.3063 L71.8354,75.6933 Z" id="Fill-19" fill="#000000"></path><path d="M74.5067,77.7935 C77.0527,75.9575 79.2837,73.6235 81.0607,70.8685 L79.9107,70.8685 C78.1707,73.4245 76.0887,75.5655 73.6497,77.2595 L74.5067,77.7935 Z" id="Fill-21" fill="#000000"></path><path d="M46.2319,77.0842 C44.0049,75.4502 41.6869,73.2412 40.0959,70.8692 L38.9509,70.8692 C40.5709,73.4202 43.0569,75.9272 45.3719,77.6962 L46.2319,77.0842 Z" id="Fill-23" fill="#000000"></path><path d="M67.1255,74.1978 C67.5965,73.1668 68.0185,72.0488 68.3795,70.8688 L67.3815,70.8688 C67.0535,71.9018 66.6725,72.8918 66.2515,73.8098 L67.1255,74.1978 Z" id="Fill-25" fill="#000000"></path><mask id="mask-2" fill="white"><use xlink:href="#path-1"></use></mask><g id="Clip-28"></g><polygon id="Fill-27" fill="#000000" mask="url(#mask-2)" points="59.544 72.987 60.492 72.987 60.492 70.869 59.544 70.869"></polygon><path d="M53.7903,73.6743 C53.3993,72.8023 53.0423,71.8623 52.7273,70.8693 L51.7313,70.8693 C52.0623,71.9443 52.4413,72.9653 52.8593,73.9133 L53.7903,73.6743 Z" id="Fill-29" fill="#000000" mask="url(#mask-2)"></path><path d="M49.1645,75.2748 C48.0115,73.9918 46.9805,72.5098 46.1075,70.8688 L45.0365,70.8688 C45.9405,72.6538 47.0245,74.2688 48.2475,75.6708 L49.1645,75.2748 Z" id="Fill-30" fill="#000000" mask="url(#mask-2)"></path><path d="M59.9588,34.1582 C57.1188,34.1582 54.3228,33.4152 51.8738,32.0102 L52.3448,31.1882 C54.6508,32.5112 57.2838,33.2102 59.9588,33.2102 C62.6288,33.2102 65.2558,32.5142 67.5578,31.1962 L68.0288,32.0192 C65.5838,33.4182 62.7938,34.1582 59.9588,34.1582" id="Fill-31" fill="#000000" mask="url(#mask-2)"></path><path d="M59.9588,40.1771 C54.9598,40.1771 49.9668,38.6741 45.5218,35.8311 L46.0318,35.0321 C50.3248,37.7771 55.1408,39.2291 59.9588,39.2291 C65.1198,39.2291 70.0988,37.7081 74.3568,34.8321 L74.8878,35.6161 C70.4728,38.6001 65.3098,40.1771 59.9588,40.1771" id="Fill-32" fill="#000000" mask="url(#mask-2)"></path><path d="M46.0092,41.6292 C48.1312,37.6382 51.1762,34.6192 54.6292,33.0982 L54.2472,32.2302 C50.4712,33.8952 47.1702,37.2312 44.9432,41.6292 L46.0092,41.6292 Z" id="Fill-33" fill="#000000" mask="url(#mask-2)"></path><path d="M40.1013,41.6292 C44.6483,34.9462 52.0183,30.9692 59.9583,30.9692 C68.0283,30.9692 75.4343,34.9462 79.9153,41.6292 L81.0603,41.6292 C76.4443,34.3602 68.5603,30.0212 59.9583,30.0212 C51.4893,30.0212 43.6393,34.3602 38.9513,41.6292 L40.1013,41.6292 Z" id="Fill-34" fill="#000000" mask="url(#mask-2)"></path><path d="M52.6296,41.6292 C53.6866,38.3012 55.2976,35.4312 56.9836,33.9092 L56.3496,33.2062 C54.4656,34.9042 52.7496,37.9722 51.6326,41.6292 L52.6296,41.6292 Z" id="Fill-35" fill="#000000" mask="url(#mask-2)"></path><polygon id="Fill-36" fill="#000000" mask="url(#mask-2)" points="59.52 41.629 60.468 41.629 60.468 34.004 59.52 34.004"></polygon><path d="M67.2847,41.6292 L68.2797,41.6292 C67.1317,37.8882 65.3897,34.8062 63.4627,33.1462 L62.8447,33.8642 C64.5927,35.3702 66.1897,38.1842 67.2847,41.6292" id="Fill-37" fill="#000000" mask="url(#mask-2)"></path><path d="M73.9037,41.6292 L74.9757,41.6292 C72.7947,37.3222 69.5637,34.0052 65.8747,32.2882 L65.4747,33.1472 C68.8487,34.7182 71.8257,37.7212 73.9037,41.6292" id="Fill-38" fill="#000000" mask="url(#mask-2)"></path><path d="M59.5651,19.4044 C37.4201,19.4044 19.4041,37.4204 19.4041,59.5654 C19.4041,81.7094 37.4201,99.7264 59.5651,99.7264 C81.7101,99.7264 99.7261,81.7094 99.7261,59.5654 C99.7261,37.4204 81.7101,19.4044 59.5651,19.4044 M59.5651,101.3204 C36.5411,101.3204 17.8101,82.5884 17.8101,59.5654 C17.8101,36.5414 36.5411,17.8104 59.5651,17.8104 C82.5891,17.8104 101.3201,36.5414 101.3201,59.5654 C101.3201,82.5884 82.5891,101.3204 59.5651,101.3204" id="Fill-39" fill="#000000" mask="url(#mask-2)"></path><path d="M59.5651,1.542 C27.5711,1.542 1.5421,27.571 1.5421,59.565 C1.5421,91.559 27.5711,117.588 59.5651,117.588 C91.5581,117.588 117.5871,91.559 117.5871,59.565 C117.5871,27.571 91.5581,1.542 59.5651,1.542 M59.5651,119.13 C26.7201,119.13 0.0001,92.41 0.0001,59.565 C0.0001,26.72 26.7201,-1.42108547e-14 59.5651,-1.42108547e-14 C92.4091,-1.42108547e-14 119.1291,26.72 119.1291,59.565 C119.1291,92.41 92.4091,119.13 59.5651,119.13" id="Fill-40" fill="#000000" mask="url(#mask-2)"></path><polygon id="Fill-41" fill="#000000" mask="url(#mask-2)" points="12.3576 84.572 18.9106 81.015 19.3836 81.888 12.8306 85.444"></polygon><path d="M12.9086,81.0906 L13.6956,80.7526 L13.6866,80.7336 C12.9406,80.6526 12.4086,80.2446 12.0926,79.5086 C11.9526,79.1826 11.8806,78.8916 11.8776,78.6356 C11.8736,78.3796 11.9226,78.1506 12.0246,77.9476 C12.1276,77.7446 12.2776,77.5686 12.4746,77.4186 C12.6716,77.2696 12.9046,77.1376 13.1736,77.0226 L16.4356,75.6216 L16.7866,76.4376 L13.4276,77.8796 C13.1206,78.0116 12.9156,78.2046 12.8136,78.4616 C12.7116,78.7166 12.7276,79.0016 12.8616,79.3156 C12.9696,79.5646 13.1006,79.7636 13.2556,79.9136 C13.4106,80.0626 13.5846,80.1676 13.7776,80.2286 C13.9706,80.2906 14.1746,80.3106 14.3886,80.2906 C14.6036,80.2706 14.8236,80.2116 15.0476,80.1166 L17.8486,78.9136 L18.1986,79.7286 L13.2386,81.8586 L12.9086,81.0906 Z" id="Fill-42" fill="#000000" mask="url(#mask-2)"></path><path d="M11.8189,76.3259 L11.0729,76.5639 L10.7959,75.6989 L10.0309,75.9429 C9.6119,76.0769 9.2579,76.0569 8.9639,75.8839 C8.6719,75.7109 8.4509,75.3919 8.3029,74.9279 C8.2769,74.8479 8.2549,74.7549 8.2349,74.6479 C8.2159,74.5409 8.2059,74.4429 8.20683163,74.3559 L8.9439,74.1199 C8.9399,74.2019 8.9469,74.2869 8.9649,74.3759 C8.9819,74.4659 9.0029,74.5469 9.0259,74.6199 C9.0919,74.8259 9.1829,74.9719 9.2979,75.0599 C9.4139,75.1469 9.5849,75.1539 9.8099,75.0819 L10.5259,74.8529 L10.2079,73.8589 L10.9539,73.6199 L11.2719,74.6149 L15.6689,73.2099 L15.9389,74.0549 L11.5429,75.4599 L11.8189,76.3259 Z" id="Fill-43" fill="#000000" mask="url(#mask-2)"></path><path d="M13.1766,71.1474 C13.4066,71.0084 13.5886,70.8474 13.7236,70.6614 C13.8586,70.4764 13.9486,70.2734 13.9936,70.0534 C14.0396,69.8334 14.0376,69.6114 13.9896,69.3874 C13.9416,69.1624 13.8516,68.9594 13.7206,68.7774 C13.5886,68.5954 13.4236,68.4474 13.2246,68.3334 C13.0256,68.2194 12.7936,68.1474 12.5256,68.1154 C12.2596,68.0834 11.9666,68.1014 11.6456,68.1704 C11.3266,68.2394 11.0516,68.3424 10.8216,68.4804 C10.5916,68.6194 10.4066,68.7814 10.2686,68.9674 C10.1306,69.1534 10.0386,69.3574 9.9936,69.5764 C9.9486,69.7964 9.9496,70.0184 9.9976,70.2434 C10.0456,70.4674 10.1356,70.6704 10.2666,70.8524 C10.3986,71.0344 10.5656,71.1824 10.7676,71.2954 C10.9696,71.4094 11.2046,71.4814 11.4716,71.5134 C11.7376,71.5454 12.0316,71.5264 12.3506,71.4584 C12.6716,71.3894 12.9466,71.2864 13.1766,71.1474 M11.4256,72.4464 C11.0656,72.4104 10.7386,72.3094 10.4426,72.1454 C10.1476,71.9804 9.8946,71.7534 9.6826,71.4644 C9.4716,71.1754 9.3206,70.8234 9.2316,70.4074 C9.1416,69.9854 9.1336,69.6004 9.2086,69.2534 C9.2836,68.9064 9.4216,68.5974 9.6236,68.3264 C9.8256,68.0554 10.0826,67.8294 10.3966,67.6474 C10.7106,67.4664 11.0616,67.3344 11.4496,67.2514 C11.8366,67.1684 12.2096,67.1454 12.5666,67.1824 C12.9236,67.2194 13.2496,67.3204 13.5446,67.4854 C13.8396,67.6494 14.0916,67.8754 14.2986,68.1624 C14.5056,68.4484 14.6546,68.8034 14.7456,69.2254 C14.8346,69.6404 14.8436,70.0224 14.7726,70.3724 C14.7016,70.7224 14.5656,71.0324 14.3636,71.3044 C14.1616,71.5754 13.9056,71.8004 13.5956,71.9814 C13.2856,72.1624 12.9366,72.2934 12.5486,72.3774 C12.1596,72.4594 11.7866,72.4834 11.4256,72.4464" id="Fill-44" fill="#000000" mask="url(#mask-2)"></path><path d="M8.5511,65.5021 L9.6831,65.3781 L9.6801,65.3571 C9.2201,65.1901 8.8701,64.9631 8.6281,64.6741 C8.3871,64.3851 8.2461,64.0021 8.2081,63.5231 L9.1411,63.4201 C9.1801,63.7731 9.2621,64.0691 9.3861,64.3071 C9.5111,64.5461 9.6741,64.7311 9.8781,64.8621 C10.0821,64.9941 10.3211,65.0801 10.5941,65.1191 C10.8681,65.1591 11.1781,65.1601 11.5241,65.1231 L13.9121,64.8601 L14.0091,65.7421 L8.6421,66.3321 L8.5511,65.5021 Z" id="Fill-45" fill="#000000" mask="url(#mask-2)"></path><path d="M8.1613,61.3959 L8.9553,61.4129 L8.9553,61.3919 C8.3513,60.9749 8.0573,60.3879 8.0743,59.6289 C8.0813,59.2949 8.1573,58.9939 8.3023,58.7249 C8.4473,58.4569 8.6873,58.2709 9.0243,58.1659 C8.7353,57.9789 8.5153,57.7359 8.3603,57.4369 C8.2073,57.1379 8.1343,56.8099 8.1423,56.4549 C8.1473,56.1839 8.1823,55.9389 8.2463,55.7209 C8.3103,55.5029 8.4063,55.3169 8.5353,55.1629 C8.6633,55.0089 8.8283,54.8909 9.0283,54.8079 C9.2283,54.7259 9.4683,54.6869 9.7463,54.6929 L13.7033,54.7779 L13.6843,55.6649 L10.1443,55.5899 C9.9773,55.5859 9.8203,55.5969 9.6733,55.6209 C9.5273,55.6459 9.3993,55.6949 9.2903,55.7699 C9.1803,55.8439 9.0923,55.9479 9.0273,56.0819 C8.9613,56.2169 8.9263,56.3919 8.9223,56.6069 C8.9123,57.0459 9.0303,57.3929 9.2753,57.6489 C9.5213,57.9049 9.8523,58.0379 10.2703,58.0469 L13.6313,58.1189 L13.6123,59.0059 L10.0733,58.9299 C9.8993,58.9269 9.7393,58.9389 9.5923,58.9669 C9.4453,58.9949 9.3173,59.0459 9.2073,59.1209 C9.0983,59.1949 9.0123,59.2959 8.9503,59.4229 C8.8883,59.5509 8.8553,59.7149 8.8513,59.9169 C8.8453,60.1749 8.8933,60.3969 8.9933,60.5829 C9.0943,60.7699 9.2163,60.9229 9.3593,61.0409 C9.5033,61.1579 9.6533,61.2449 9.8083,61.3009 C9.9643,61.3559 10.0943,61.3849 10.1983,61.3879 L13.5603,61.4589 L13.5413,62.3459 L8.1443,62.2309 L8.1613,61.3959 Z" id="Fill-46" fill="#000000" mask="url(#mask-2)"></path><path d="M11.7923,49.7667 C11.8553,49.8907 11.8883,50.0457 11.8943,50.2307 C11.9003,50.4157 11.8983,50.6077 11.8873,50.8067 C11.8763,51.0067 11.8683,51.2087 11.8633,51.4127 C11.8583,51.6167 11.8763,51.8047 11.9163,51.9737 C11.9563,52.1447 12.0303,52.2897 12.1393,52.4117 C12.2473,52.5337 12.4113,52.6137 12.6293,52.6527 C12.7723,52.6787 12.8993,52.6707 13.0083,52.6297 C13.1173,52.5897 13.2113,52.5277 13.2883,52.4467 C13.3673,52.3647 13.4303,52.2657 13.4793,52.1467 C13.5293,52.0287 13.5653,51.8997 13.5893,51.7637 C13.6413,51.4757 13.6463,51.2217 13.6043,51.0017 C13.5623,50.7827 13.4933,50.5967 13.3973,50.4457 C13.3013,50.2937 13.1893,50.1747 13.0603,50.0887 C12.9313,50.0017 12.8053,49.9477 12.6823,49.9257 L11.7923,49.7667 Z M14.7693,48.8337 C14.8313,49.0007 14.8393,49.2177 14.7913,49.4847 C14.7513,49.7107 14.6553,49.8797 14.5053,49.9907 C14.3543,50.1017 14.1353,50.1317 13.8473,50.0797 C14.0923,50.3717 14.2503,50.6877 14.3203,51.0287 C14.3903,51.3697 14.3923,51.7257 14.3263,52.0957 C14.2833,52.3357 14.2153,52.5587 14.1223,52.7647 C14.0283,52.9707 13.9103,53.1427 13.7653,53.2797 C13.6203,53.4167 13.4463,53.5147 13.2403,53.5727 C13.0363,53.6317 12.7993,53.6377 12.5323,53.5897 C12.2303,53.5367 11.9933,53.4407 11.8193,53.3037 C11.6463,53.1667 11.5143,53.0037 11.4243,52.8147 C11.3343,52.6257 11.2773,52.4167 11.2543,52.1897 C11.2313,51.9637 11.2193,51.7327 11.2183,51.4997 C11.2133,51.2517 11.2183,51.0167 11.2323,50.7967 C11.2473,50.5767 11.2463,50.3807 11.2313,50.2077 C11.2163,50.0357 11.1743,49.8937 11.1053,49.7827 C11.0373,49.6717 10.9213,49.6007 10.7563,49.5717 C10.5643,49.5377 10.4033,49.5457 10.2743,49.5967 C10.1453,49.6487 10.0393,49.7247 9.9573,49.8267 C9.8753,49.9297 9.8113,50.0487 9.7663,50.1857 C9.7203,50.3227 9.6853,50.4597 9.6613,50.5957 C9.5953,50.9667 9.6103,51.2867 9.7073,51.5587 C9.8043,51.8307 10.0453,52.0117 10.4323,52.1017 L10.2763,52.9757 C9.9503,52.9037 9.6843,52.7847 9.4803,52.6217 C9.2763,52.4587 9.1223,52.2607 9.0183,52.0307 C8.9153,51.7997 8.8553,51.5477 8.8403,51.2717 C8.8263,50.9977 8.8453,50.7087 8.8993,50.4077 C8.9423,50.1677 9.0013,49.9327 9.0783,49.7017 C9.1543,49.4717 9.2623,49.2697 9.4033,49.0977 C9.5433,48.9247 9.7193,48.7957 9.9313,48.7137 C10.1443,48.6317 10.4043,48.6177 10.7113,48.6727 L13.4403,49.1587 C13.6453,49.1957 13.7983,49.2107 13.8983,49.2037 C13.9983,49.1967 14.0603,49.1247 14.0843,48.9877 C14.0983,48.9117 14.1003,48.8207 14.0913,48.7127 L14.7693,48.8337 Z" id="Fill-47" fill="#000000" mask="url(#mask-2)"></path><path d="M10.4599,44.4342 L11.2139,44.6452 L10.9249,45.6812 L14.1529,46.5832 C14.2539,46.6112 14.3369,46.6252 14.4019,46.6252 C14.4669,46.6252 14.5229,46.6062 14.5689,46.5692 C14.6159,46.5322 14.6559,46.4722 14.6889,46.3912 C14.7229,46.3102 14.7589,46.2032 14.7959,46.0682 L14.9059,45.6762 L15.6599,45.8872 L15.4769,46.5412 C15.4149,46.7622 15.3469,46.9472 15.2729,47.0962 C15.1989,47.2452 15.1079,47.3572 14.9999,47.4322 C14.8929,47.5072 14.7589,47.5472 14.5979,47.5532 C14.4369,47.5592 14.2369,47.5282 13.9949,47.4602 L10.6859,46.5362 L10.4389,47.4212 L9.6839,47.2102 L9.9319,46.3252 L8.3729,45.8902 L8.6119,45.0352 L10.1709,45.4702 L10.4599,44.4342 Z" id="Fill-48" fill="#000000" mask="url(#mask-2)"></path><path d="M11.1662,42.3539 L16.2692,44.1179 L15.9792,44.9569 L10.8762,43.1929 L11.1662,42.3539 Z M9.9582,42.8759 L8.9322,42.5209 L9.2222,41.6819 L10.2482,42.0369 L9.9582,42.8759 Z" id="Fill-49" fill="#000000" mask="url(#mask-2)"></path><path d="M15.3353,41.4008 C15.6023,41.4258 15.8453,41.4038 16.0633,41.3338 C16.2823,41.2638 16.4753,41.1538 16.6413,41.0038 C16.8083,40.8538 16.9393,40.6738 17.0333,40.4648 C17.1273,40.2548 17.1753,40.0378 17.1773163,39.8138 C17.1783,39.5888 17.1333,39.3718 17.0403,39.1628 C16.9473,38.9528 16.8033,38.7568 16.6073,38.5728 C16.4113,38.3888 16.1643,38.2298 15.8653,38.0958 C15.5673,37.9618 15.2843,37.8828 15.0163,37.8568 C14.7493,37.8328 14.5053,37.8538 14.2843,37.9228 C14.0623,37.9908 13.8683,38.0998 13.7013,38.2498 C13.5343,38.4008 13.4043,38.5798 13.3093,38.7898 C13.2153,38.9998 13.1673,39.2158 13.1653,39.4398 C13.1633,39.6648 13.2113,39.8828 13.3063,40.0938 C13.4023,40.3048 13.5493,40.5018 13.7443,40.6858 C13.9403,40.8688 14.1883,41.0278 14.4863,41.1628 C14.7853,41.2968 15.0683,41.3758 15.3353,41.4008 M13.1553,41.4108 C12.8863,41.1678 12.6823,40.8928 12.5413,40.5858 C12.4013,40.2778 12.3313,39.9448 12.3322894,39.5868 C12.3333,39.2288 12.4213,38.8558 12.5953,38.4688 C12.7723,38.0748 12.9943,37.7598 13.2603,37.5248 C13.5263,37.2898 13.8213,37.1228 14.1443,37.0238 C14.4673,36.9248 14.8083,36.8948 15.1683,36.9348 C15.5283,36.9748 15.8893,37.0758 16.2513,37.2388 C16.6133,37.4018 16.9263,37.6038 17.1923,37.8458 C17.4573,38.0868 17.6603,38.3618 17.8013,38.6688 C17.9413,38.9758 18.0103,39.3068 18.0073,39.6608 C18.0053,40.0138 17.9153,40.3878 17.7383,40.7808 C17.5643,41.1688 17.3443,41.4828 17.0803,41.7218 C16.8153,41.9618 16.5223,42.1318 16.1993,42.2298 C15.8753,42.3288 15.5353,42.3598 15.1783,42.3208 C14.8223,42.2828 14.4623,42.1818 14.1003,42.0198 C13.7383,41.8568 13.4243,41.6538 13.1553,41.4108" id="Fill-50" fill="#000000" mask="url(#mask-2)"></path><path d="M15.009,33.9808 L15.739,34.4278 L15.75,34.4098 C15.385,33.7538 15.411,33.0848 15.829,32.4018 C16.015,32.0988 16.21,31.8718 16.417,31.7208 C16.624,31.5698 16.839,31.4778 17.064,31.4438 C17.289,31.4108 17.519,31.4308 17.755,31.5058 C17.991,31.5808 18.233,31.6948 18.483,31.8468 L21.51,33.7008 L21.047,34.4578 L17.93,32.5488 C17.645,32.3748 17.368,32.3198 17.1,32.3838 C16.833,32.4488 16.61,32.6268 16.431,32.9178 C16.29,33.1488 16.202,33.3708 16.17,33.5838 C16.138,33.7968 16.152,33.9998 16.214,34.1928 C16.275,34.3858 16.376,34.5638 16.517,34.7278 C16.657,34.8908 16.832,35.0358 17.039,35.1628 L19.64,36.7558 L19.177,37.5128 L14.573,34.6938 L15.009,33.9808 Z" id="Fill-51" fill="#000000" mask="url(#mask-2)"></path><path d="M21.8533,23.1791 C21.4523,23.2591 21.0773,23.4881 20.7283,23.8671 C20.5863,24.0201 20.4623,24.1851 20.3563,24.3621 C20.2503,24.5391 20.1793,24.7171 20.1443,24.8991 C20.1103,25.0801 20.1213,25.2611 20.1773,25.4411 C20.2343,25.6211 20.3523,25.7931 20.5303,25.9591 C20.6993,26.1141 20.8823,26.1901 21.0793,26.1881 C21.2763,26.1851 21.4853,26.1311 21.7053,26.0261 C21.9243,25.9211 22.1533,25.7841 22.3903,25.6141 C22.6273,25.4451 22.8713,25.2751 23.1233,25.1051 C23.3753,24.9351 23.6323,24.7771 23.8953,24.6311 C24.1583,24.4851 24.4253,24.3831 24.6963,24.3251 C24.9673,24.2681 25.2383,24.2721 25.5093,24.3371 C25.7813,24.4031 26.0523,24.5611 26.3223,24.8111 C26.6143,25.0801 26.8043,25.3761 26.8903,25.6971 C26.9763,26.0191 26.9913,26.3431 26.9323,26.6681 C26.8743,26.9931 26.7583,27.3091 26.5823,27.6161 C26.4073,27.9241 26.2043,28.2031 25.9733,28.4531 C25.6893,28.7601 25.3833,29.0151 25.0533,29.2181 C24.7253,29.4211 24.3863,29.5531 24.0393,29.6171 C23.6923,29.6801 23.3413,29.6601 22.9873,29.5551 C22.6333,29.4511 22.2903,29.2461 21.9573,28.9391 L22.5953,28.2481 C22.8253,28.4601 23.0643,28.5991 23.3143,28.6631 C23.5623,28.7271 23.8083,28.7361 24.0503,28.6891 C24.2923,28.6421 24.5283,28.5451 24.7593,28.3981 C24.9893,28.2511 25.1993,28.0751 25.3883,27.8711 C25.5393,27.7071 25.6763,27.5281 25.7993,27.3331 C25.9223,27.1391 26.0073,26.9411 26.0563,26.7391 C26.1043,26.5381 26.1033,26.3371 26.0513,26.1371 C25.9983,25.9371 25.8723,25.7451 25.6723,25.5611 C25.4833,25.3861 25.2843,25.2941 25.0743,25.2861 C24.8643,25.2771 24.6463,25.3211 24.4183,25.4191 C24.1903,25.5171 23.9573,25.6491 23.7173,25.8161 C23.4773,25.9841 23.2333,26.1531 22.9833,26.3261 C22.7343,26.4991 22.4813,26.6601 22.2233,26.8111 C21.9663,26.9621 21.7083,27.0721 21.4503,27.1411 C21.1913,27.2111 20.9333,27.2191 20.6753,27.1641 C20.4163,27.1111 20.1623,26.9681 19.9113,26.7371 C19.6353,26.4821 19.4483,26.2051 19.3503,25.9061 C19.2513,25.6061 19.2243,25.3031 19.2663,24.9961 C19.3073,24.6901 19.4063,24.3871 19.5623,24.0911 C19.7183,23.7931 19.9113,23.5201 20.1423,23.2691 C20.4023,22.9881 20.6763,22.7581 20.9653,22.5791 C21.2533,22.3991 21.5533,22.2861 21.8633,22.2361 C22.1753,22.1871 22.4873,22.2101 22.8023,22.3061 C23.1163,22.4021 23.4283,22.5841 23.7393,22.8521 L23.1023,23.5431 C22.6703,23.2201 22.2543,23.0991 21.8533,23.1791" id="Fill-52" fill="#000000" mask="url(#mask-2)"></path><path d="M28.9133,20.3315 C28.7313,20.2375 28.5453,20.1825 28.3543,20.1645 C28.1633,20.1465 27.9703,20.1665 27.7773,20.2225 C27.5843,20.2795 27.4023,20.3785 27.2313,20.5205 C27.0543,20.6675 26.9203,20.8305 26.8293,21.0105 C26.7393,21.1895 26.6873,21.3755 26.6743,21.5665 C26.6623,21.7585 26.6843,21.9495 26.7433,22.1405 C26.8023,22.3315 26.8943,22.5115 27.0163,22.6815 L29.4023,20.6985 C29.2573,20.5475 29.0943,20.4245 28.9133,20.3315 M31.2933,22.8615 C31.1783,23.3545 30.8853,23.7975 30.4143,24.1885 C30.0823,24.4645 29.7503,24.6505 29.4173,24.7455 C29.0853,24.8415 28.7553,24.8615 28.4293,24.8065 C28.1033,24.7515 27.7873,24.6245 27.4813,24.4255 C27.1763,24.2275 26.8873,23.9745 26.6143,23.6675 C26.3513,23.3515 26.1593,23.0215 26.0383,22.6795 C25.9163,22.3375 25.8623,21.9975 25.8763,21.6605 C25.8903,21.3225 25.9723,21.0015 26.1203,20.6965 C26.2703,20.3915 26.4863,20.1205 26.7713,19.8845 C27.1403,19.5775 27.5093,19.3995 27.8803,19.3495 C28.2513,19.3005 28.6073,19.3315 28.9513,19.4455 C29.2933,19.5585 29.6083,19.7305 29.8963,19.9625 C30.1843,20.1945 30.4273,20.4405 30.6253,20.7005 L27.5173,23.2835 C27.6633,23.4695 27.8283,23.6245 28.0123,23.7485 C28.1963,23.8715 28.3933,23.9515 28.6053,23.9885 C28.8173,24.0255 29.0363,24.0125 29.2653,23.9485 C29.4933,23.8865 29.7203,23.7615 29.9443,23.5745 C30.2333,23.3335 30.4153,23.0705 30.4883,22.7825 C30.5623,22.4955 30.5143,22.1915 30.3463,21.8685 L31.0213,21.3085 C31.3173,21.8495 31.4083,22.3675 31.2933,22.8615" id="Fill-53" fill="#000000" mask="url(#mask-2)"></path><path d="M33.1666,16.5963 C32.8776,16.5593 32.5746,16.6433 32.2596,16.8473 C31.9906,17.0203 31.7976,17.2163 31.6796,17.4323 C31.5626,17.6493 31.5036,17.8733 31.5006,18.1073 C31.4976,18.3413 31.5426,18.5793 31.6336,18.8233 C31.7246,19.0673 31.8436,19.3023 31.9916,19.5303 C32.1276,19.7413 32.2846,19.9303 32.4626,20.0963 C32.6406,20.2633 32.8326,20.3903 33.0376,20.4773 C33.2426,20.5643 33.4606,20.6003 33.6906,20.5843 C33.9206,20.5683 34.1526,20.4843 34.3866,20.3333 C34.7546,20.0953 34.9806,19.8133 35.0636,19.4863 C35.1466,19.1593 35.0976,18.8053 34.9186,18.4233 L35.6816,17.9303 C35.962563,18.5453 36.0326,19.1133 35.8926,19.6343 C35.7536,20.1553 35.3936,20.6033 34.8146,20.9763 C34.4696,21.1993 34.1276,21.3413 33.7906,21.4013 C33.4526,21.4623 33.1286,21.4483 32.8176,21.3593 C32.5076,21.2693 32.2146,21.1123 31.9416,20.8873 C31.6676,20.6623 31.4206,20.3803 31.2026,20.0413 C30.9826,19.7013 30.8226,19.3563 30.7186,19.0043 C30.6156,18.6523 30.5826,18.3093 30.6196,17.9743 C30.6556,17.6403 30.7686,17.3223 30.9566,17.0233 C31.1436,16.7243 31.4156,16.4593 31.7726,16.2283 C32.0306,16.0623 32.2916,15.9373 32.5556,15.8533 C32.8206,15.7693 33.0816,15.7363 33.3366,15.7533 C33.5916,15.7703 33.8386,15.8413 34.0766,15.9653 C34.3136,16.0893 34.5346,16.2763 34.7376,16.5263 L33.9656,17.0253 C33.7226,16.7763 33.4556,16.6333 33.1666,16.5963" id="Fill-54" fill="#000000" mask="url(#mask-2)"></path><path d="M40.8255,17.5701 L40.4515,16.8001 L40.4335,16.8091 C40.4095,17.1911 40.3005,17.5171 40.1055,17.7851 C39.9105,18.0541 39.6345,18.2741 39.2775,18.4471 C38.9585,18.6021 38.6715,18.6891 38.4165,18.7071 C38.1635,18.7261 37.9325,18.6891 37.7245,18.5961 C37.5175,18.5031 37.3355,18.3611 37.1775,18.1711 C37.0195,17.9801 36.8765,17.7531 36.7495,17.4901 L35.2015,14.2941 L36.0005,13.9081 L37.5935,17.1981 C37.7395,17.4981 37.9425,17.6941 38.2025,17.7841 C38.4625,17.8751 38.7465,17.8461 39.0535,17.6971 C39.2985,17.5791 39.4915,17.4391 39.6335,17.2771 C39.7755,17.1151 39.8725,16.9371 39.9245,16.7411 C39.9775,16.5461 39.9885,16.3411 39.9585,16.1271 C39.9285,15.9141 39.8605,15.6981 39.7545,15.4781 L38.4255,12.7341 L39.2245,12.3471 L41.5775,17.2061 L40.8255,17.5701 Z" id="Fill-55" fill="#000000" mask="url(#mask-2)"></path><path d="M41.6588,11.4211 L42.0498,12.4901 L42.0688,12.4831 C42.1208,11.9971 42.2588,11.6021 42.4808,11.2981 C42.7028,10.9941 43.0428,10.7661 43.4978,10.6141 L43.8218,11.4971 C43.4878,11.6181 43.2208,11.7691 43.0188,11.9461 C42.8168,12.1241 42.6758,12.3271 42.5968,12.5571 C42.5178,12.7861 42.4918,13.0381 42.5178,13.3141 C42.5448,13.5891 42.6188,13.8901 42.7378,14.2171 L43.5638,16.4731 L42.7308,16.7781 L40.8738,11.7081 L41.6588,11.4211 Z" id="Fill-56" fill="#000000" mask="url(#mask-2)"></path><path d="M45.3687,10.1999 L46.9037,15.3759 L46.0527,15.6279 L44.5177,10.4529 L45.3687,10.1999 Z M44.2417,9.5209 L43.9327,8.4799 L44.7837,8.2279 L45.0927,9.2689 L44.2417,9.5209 Z" id="Fill-57" fill="#000000" mask="url(#mask-2)"></path><path d="M49.227,9.2372 L49.404,10.0002 L48.356,10.2432 L49.112,13.5082 C49.136,13.6102 49.164,13.6892 49.195,13.7462 C49.226,13.8042 49.269,13.8442 49.324,13.8662 C49.379,13.8892 49.45,13.8962 49.538,13.8862 C49.625,13.8772 49.737,13.8572 49.872,13.8252 L50.269,13.7332 L50.446,14.4962 L49.784,14.6492 C49.56,14.7012 49.365,14.7302 49.199,14.7372 C49.032,14.7432 48.89,14.7172 48.773,14.6582 C48.656,14.6002 48.556,14.5022 48.475,14.3632 C48.392,14.2252 48.323,14.0342 48.267,13.7902 L47.491,10.4432 L46.596,10.6502 L46.42,9.8872 L47.314,9.6802 L46.949,8.1032 L47.814,7.9032 L48.179,9.4802 L49.227,9.2372 Z" id="Fill-58" fill="#000000" mask="url(#mask-2)"></path><path d="M53.532,14.7316 C53.465,15.0076 53.393,15.2416 53.318,15.4356 C53.243,15.6286 53.152,15.7906 53.047,15.9206 C52.942,16.0506 52.819,16.1526 52.678,16.2236 C52.536,16.2956 52.369,16.3446 52.176,16.3716 C52.073,16.3856 51.968,16.3926 51.863,16.3936 C51.758,16.3936 51.654,16.3836 51.553,16.3626 L51.443,15.5556 C51.523,15.5796 51.615,15.5966 51.718,15.6066 C51.821,15.6176 51.908,15.6176 51.977,15.6086 C52.156,15.5846 52.3,15.5206 52.409,15.4176 C52.518,15.3146 52.593,15.1796 52.633,15.0126 L52.872,14.0626 L50.021,9.0366 L51.015,8.8996 L53.177,13.0616 L53.198,13.0596 L54.098,8.4766 L55.029,8.3496 L53.532,14.7316 Z" id="Fill-59" fill="#000000" mask="url(#mask-2)"></path><polygon id="Fill-60" fill="#000000" mask="url(#mask-2)" points="61.3651 6.1351 63.2271 12.5621 66.0601 6.4961 67.4141 6.6001 66.8431 14.0341 65.9051 13.9621 66.3811 7.7781 66.3601 7.7761 63.5631 13.7821 62.7201 13.7171 60.8731 7.3541 60.8521 7.3521 60.3771 13.5371 59.4391 13.4651 60.0111 6.0311"></polygon><path d="M72.0962,12.4344 C71.9682,12.4894 71.8122,12.5144 71.6272,12.5094 C71.4422,12.5054 71.2502,12.4914 71.0522,12.4684 C70.8532,12.4464 70.6522,12.4264 70.4482,12.4094 C70.2452,12.3934 70.0572,12.4004 69.8852,12.4304 C69.7132,12.4604 69.5632,12.5264 69.4362,12.6274 C69.3072,12.7294 69.2182,12.8874 69.1662,13.1024 C69.1332,13.2444 69.1332,13.3704 69.1672,13.4824 C69.2012,13.5944 69.2572,13.6904 69.3342,13.7734 C69.4112,13.8554 69.5072,13.9244 69.6232,13.9814 C69.7382,14.0364 69.8642,14.0804 69.9992,14.1134 C70.2832,14.1814 70.5362,14.2004 70.7582,14.1714 C70.9802,14.1434 71.1692,14.0844 71.3262,13.9974 C71.4822,13.9104 71.6082,13.8044 71.7022,13.6814 C71.7962,13.5574 71.8572,13.4354 71.8862,13.3134 L72.0962,12.4344 Z M72.8552,15.4604 C72.6852,15.5134 72.4682,15.5084 72.2042,15.4454 C71.9812,15.3914 71.8182,15.2864 71.7152,15.1294 C71.6142,14.9734 71.5962,14.7524 71.6642,14.4684 C71.3592,14.6964 71.0342,14.8344 70.6902,14.8854 C70.3452,14.9354 69.9902,14.9164 69.6242,14.8294 C69.3872,14.7724 69.1682,14.6914 68.9682,14.5864 C68.7672,14.4814 68.6032,14.3524 68.4752,14.2004 C68.3472,14.0484 68.2592,13.8684 68.2122,13.6604 C68.1652,13.4524 68.1732,13.2154 68.2362,12.9514 C68.3082,12.6534 68.4162,12.4224 68.5632,12.2574 C68.7102,12.0914 68.8812,11.9694 69.0752,11.8904 C69.2692,11.8114 69.4802,11.7674 69.7072,11.7574 C69.9352,11.7474 70.1662,11.7484 70.3992,11.7614 C70.6482,11.7704 70.8812,11.7884 71.1002,11.8164 C71.3192,11.8434 71.5152,11.8544 71.6882,11.8484 C71.8612,11.8434 72.0052,11.8104 72.1202,11.7484 C72.2352,11.6864 72.3122,11.5744 72.3502,11.4114 C72.3962,11.2214 72.3972,11.0604 72.3532,10.9284 C72.3102,10.7964 72.2392,10.6864 72.1422,10.5984 C72.0452,10.5114 71.9292,10.4404 71.7962,10.3874 C71.6622,10.3344 71.5262,10.2914 71.3912,10.2584 C71.0262,10.1714 70.7042,10.1684 70.4272,10.2484 C70.1502,10.3294 69.9552,10.5604 69.8432,10.9414 L68.9802,10.7354 C69.0712,10.4134 69.2042,10.1554 69.3792,9.9614 C69.5552,9.7664 69.7612,9.6244 69.9972,9.5344 C70.2332,9.4434 70.4892,9.3994 70.7642,9.40038334 C71.0392,9.4014 71.3262,9.4384 71.6242,9.5094 C71.8612,9.5654 72.0922,9.6384 72.3172,9.7284 C72.5432,9.8184 72.7382,9.9374 72.9032,10.0884 C73.0672,10.2374 73.1842,10.4204 73.2552,10.6374 C73.3242,10.8544 73.3242,11.1144 73.2512,11.4184 L72.6072,14.1144 C72.5592,14.3174 72.5352,14.4684 72.5362,14.5694 C72.5382,14.6694 72.6062,14.7354 72.7422,14.7674 C72.8162,14.7864 72.9072,14.7934 73.0152,14.7904 L72.8552,15.4604 Z" id="Fill-61" fill="#000000" mask="url(#mask-2)"></path><path d="M76.242,10.9627 L75.942,11.7647 L75.962,11.7717 C76.537,11.2887 77.199,11.1867 77.949,11.4667 C78.282,11.5917 78.541,11.7407 78.729,11.9147 C78.916,12.0897 79.048,12.2837 79.124,12.4977 C79.2,12.7117 79.224,12.9417 79.195,13.1877 C79.166,13.4327 79.101,13.6927 78.998,13.9667 L77.754,17.2927 L76.923,16.9817 L78.204,13.5577 C78.32,13.2447 78.322,12.9637 78.208,12.7117 C78.093,12.4617 77.876,12.2767 77.557,12.1567 C77.303,12.0617 77.068,12.0187 76.853,12.0267 C76.638,12.0367 76.441,12.0887 76.264,12.1857 C76.087,12.2827 75.931,12.4167 75.797,12.5857 C75.663,12.7547 75.553,12.9527 75.468,13.1817 L74.4,16.0377 L73.569,15.7267 L75.46,10.6697 L76.242,10.9627 Z" id="Fill-62" fill="#000000" mask="url(#mask-2)"></path><path d="M83.1517,16.8831 C83.0147,16.9061 82.8567,16.8911 82.6787,16.8421 C82.5007,16.7921 82.3177,16.7311 82.1307,16.6621 C81.9437,16.5911 81.7527,16.5231 81.5607,16.4581 C81.3667,16.3921 81.1827,16.3521 81.0087,16.3401 C80.8347,16.3271 80.6727,16.3541 80.5247,16.4211 C80.3757,16.4881 80.2507,16.6191 80.1477,16.8161 C80.0797,16.9451 80.0497,17.0681 80.0557,17.1841 C80.0617,17.3011 80.0917,17.4081 80.1457,17.5071 C80.2007,17.6061 80.2767,17.6961 80.3757,17.7791 C80.4737,17.8611 80.5847,17.9351 80.7077,17.9991 C80.9667,18.1351 81.2077,18.2151 81.4297,18.2411 C81.6517,18.2671 81.8497,18.2571 82.0227,18.2111 C82.1957,18.1641 82.3437,18.0931 82.4647,17.9961 C82.5857,17.8991 82.6757,17.7951 82.7337,17.6851 L83.1517,16.8831 Z M83.1487,20.0031 C82.9707,20.0121 82.7617,19.9551 82.5207,19.8291 C82.3177,19.7231 82.1857,19.5811 82.1247,19.4041 C82.0637,19.2271 82.1007,19.0091 82.2357,18.7501 C81.8857,18.8961 81.5367,18.9521 81.1897,18.9161 C80.8427,18.8801 80.5027,18.7761 80.1697,18.6021 C79.9537,18.4891 79.7617,18.3571 79.5937,18.2061 C79.4247,18.0561 79.2957,17.8911 79.2097,17.7121 C79.1217,17.5331 79.0807,17.3371 79.0867,17.1231 C79.0917,16.9101 79.1567,16.6841 79.2827,16.4431 C79.4247,16.1711 79.5857,15.9731 79.7697,15.8481 C79.9517,15.7241 80.1467,15.6471 80.3547,15.6181 C80.5617,15.5891 80.7777,15.5981 81.0007,15.6431 C81.2247,15.6891 81.4477,15.7471 81.6707,15.8161 C81.9097,15.8861 82.1317,15.9601 82.3367,16.0401 C82.5427,16.1201 82.7307,16.1791 82.8987,16.2151 C83.0677,16.2531 83.2157,16.2561 83.3427,16.2231 C83.4697,16.1921 83.5717,16.1021 83.6487,15.9531 C83.7387,15.7801 83.7787,15.6241 83.7687,15.4861 C83.7587,15.3471 83.7177,15.2241 83.6447,15.1151 C83.5717,15.0061 83.4767,14.9101 83.3597,14.8251 C83.2427,14.7411 83.1237,14.6661 82.9997,14.6011 C82.6657,14.4281 82.3557,14.3461 82.0667,14.3571 C81.7787,14.3671 81.5337,14.5431 81.3317,14.8861 L80.5447,14.4751 C80.7117,14.1851 80.9047,13.9671 81.1217,13.8221 C81.3387,13.6761 81.5727,13.5881 81.8247,13.5581 C82.0757,13.5281 82.3337,13.5471 82.6007,13.6161 C82.8677,13.6851 83.1357,13.7891 83.4077,13.9311 C83.6247,14.0441 83.8307,14.1711 84.0267,14.3131 C84.2247,14.4551 84.3837,14.6191 84.5077,14.8051 C84.6297,14.9901 84.6987,15.1961 84.7137,15.4241 C84.7287,15.6511 84.6637,15.9031 84.5197,16.1801 L83.2367,18.6381 C83.1407,18.8221 83.0807,18.9631 83.0577,19.0611 C83.0347,19.1581 83.0847,19.2391 83.2077,19.3041 C83.2757,19.3391 83.3617,19.3691 83.4677,19.3931 L83.1487,20.0031 Z" id="Fill-63" fill="#000000" mask="url(#mask-2)"></path><path d="M86.6675,21.3345 C86.9055,21.3505 87.1335,21.3135 87.3485,21.2215 C87.5645,21.1295 87.7685,20.9975 87.9595,20.8245 C88.1505,20.6525 88.3175,20.4635 88.4605,20.2575 C88.5945,20.0625 88.7045,19.8545 88.7895,19.6345 C88.8745,19.4135 88.9185,19.1925 88.9235,18.9715 C88.9285,18.7505 88.8825,18.5385 88.7855,18.3365 C88.6885,18.1345 88.5255,17.9535 88.2965,17.7945 C88.0615,17.6325 87.8305,17.5385 87.6035,17.5125 C87.3755,17.4855 87.1575,17.5115 86.9485,17.5865 C86.7395,17.6625 86.5435,17.7805 86.3605,17.9415 C86.1765,18.1025 86.0125,18.2885 85.8655,18.5005 C85.7265,18.7015 85.6085,18.9155 85.5095,19.1435 C85.4115,19.3725 85.3545,19.6015 85.3385,19.8315 C85.3235,20.0625 85.3605,20.2835 85.4525,20.4945 C85.5425,20.7055 85.7095,20.8935 85.9495,21.0595 C86.1895,21.2265 86.4295,21.3175 86.6675,21.3345 M86.2185,23.9755 C85.6365,24.1065 84.9915,23.9265 84.2805,23.4355 C84.0755,23.2935 83.8805,23.1245 83.6975,22.9305 C83.5145,22.7365 83.3715,22.5275 83.2675,22.3035 C83.1645,22.0795 83.1125,21.8445 83.1125,21.5995 C83.1135,21.3535 83.1915,21.1075 83.3455,20.8595 L84.0755,21.3645 C83.9905,21.4995 83.9555,21.6405 83.9685,21.7855 C83.9835,21.9305 84.0255,22.0705 84.0975,22.2045 C84.1705,22.3385 84.2625,22.4645 84.3765,22.5815 C84.4905,22.6985 84.6075,22.7985 84.7275,22.8815 C84.9685,23.0475 85.2005,23.1465 85.4235,23.1785 C85.6475,23.2105 85.8635,23.1905 86.0735,23.1205 C86.2835,23.0495 86.4835,22.9275 86.6755,22.7555 C86.8665,22.5825 87.0465,22.3735 87.2175,22.1275 L87.4195,21.8355 L87.4025,21.8235 C87.0855,22.0115 86.7565,22.0815 86.4125,22.0335 C86.0685,21.9865 85.7535,21.8635 85.4675,21.6665 C85.1345,21.4365 84.8865,21.1755 84.7245,20.8855 C84.5615,20.5955 84.4665,20.2905 84.4415,19.9725 C84.4155,19.6545 84.4555,19.3305 84.5605,19.0015 C84.6655,18.6725 84.8235,18.3555 85.0335,18.0515 C85.2155,17.7885 85.4365,17.5425 85.6975,17.3115 C85.9585,17.0815 86.2475,16.9095 86.5635,16.7935 C86.8805,16.6775 87.2215,16.6385 87.5855,16.6745 C87.9495,16.7105 88.3235,16.8615 88.7075,17.1275 C88.9885,17.3205 89.2025,17.5605 89.3525,17.8455 C89.5025,18.1315 89.5575,18.4425 89.5195,18.7805 L89.5285,18.7865 L89.9675,18.1505 L90.6545,18.6265 L87.8455,22.6885 C87.3425,23.4155 86.7995,23.8445 86.2185,23.9755" id="Fill-64" fill="#000000" mask="url(#mask-2)"></path><path d="M93.791,23.4096 C93.856,23.2156 93.884,23.0226 93.873,22.8316 C93.862,22.6396 93.814,22.4526 93.73,22.2696 C93.646,22.0876 93.52,21.9226 93.355,21.7746 C93.183,21.6206 93.002,21.5126 92.811,21.4496 C92.62,21.3866 92.429,21.3626 92.238,21.3786 C92.046,21.3946 91.86,21.4456 91.68,21.5316 C91.5,21.6186 91.336,21.7356 91.186,21.8826 L93.5,23.9466 C93.628,23.7816 93.726,23.6026 93.791,23.4096 M91.642,26.1376 C91.137,26.0976 90.656,25.8736 90.199,25.4656 C89.876,25.1786 89.644,24.8766 89.5,24.5616 C89.356,24.2476 89.288,23.9246 89.294,23.5946 C89.3,23.2636 89.378,22.9326 89.529,22.6006 C89.681,22.2696 89.888,21.9456 90.152,21.6296 C90.425,21.3236 90.722,21.0856 91.042,20.9136 C91.363,20.7426 91.691,20.6386 92.027,20.6026 C92.363,20.5666 92.692,20.5996 93.017,20.7016 C93.34,20.8046 93.639,20.9786 93.915,21.2246 C94.273,21.5446 94.505,21.8836 94.609,22.2426 C94.713,22.6016 94.734,22.9586 94.673,23.3146 C94.612,23.6716 94.488,24.0086 94.302,24.3266 C94.115,24.6456 93.908,24.9226 93.68,25.1576 L90.664,22.4666 C90.502,22.6386 90.373,22.8246 90.278,23.0246 C90.184,23.2246 90.134,23.4316 90.129,23.6466 C90.124,23.8616 90.169,24.0776 90.266,24.2936 C90.361,24.5096 90.519,24.7156 90.737,24.9106 C91.017,25.1606 91.305,25.3006 91.6,25.3306 C91.895,25.3606 92.189,25.2696 92.483,25.0556 L93.137,25.6396 C92.646,26.0126 92.147,26.1786 91.642,26.1376" id="Fill-65" fill="#000000" mask="url(#mask-2)"></path><path d="M97.4025,24.7233 L96.7895,25.2273 L96.8025,25.2433 C97.5325,25.1673 98.1385,25.4213 98.6195,26.0083 C98.8315,26.2663 98.9695,26.5443 99.0345,26.8433 C99.0985,27.1413 99.0375,27.4383 98.8495,27.7373 C99.1905,27.6913 99.5165,27.7323 99.8285,27.8593 C100.1405,27.9863 100.4085,28.1873 100.6335,28.4613 C100.8055,28.6713 100.9385,28.8803 101.0325,29.0873 C101.1255,29.2943 101.1735,29.4973 101.1755,29.6983 C101.1785,29.8993 101.1305,30.0963 101.0325,30.2893 C100.9345,30.4823 100.7775,30.6673 100.5625,30.8443 L97.5035,33.3543 L96.9405,32.6693 L99.6765,30.4233 C99.8055,30.3163 99.9175,30.2063 100.0135,30.0923 C100.1085,29.9783 100.1735,29.8573 100.2085,29.7293 C100.2425,29.6023 100.2415,29.4653 100.2045,29.3213 C100.1665,29.1763 100.0795,29.0203 99.9415,28.8533 C99.6645,28.5153 99.3485,28.3273 98.9955,28.2933 C98.6435,28.2583 98.3055,28.3733 97.9815,28.6383 L95.3835,30.7723 L94.8205,30.0863 L97.5555,27.8403 C97.6905,27.7293 97.8045,27.6163 97.8975,27.4993 C97.9915,27.3823 98.0545,27.2593 98.0895,27.1323 C98.1245,27.0043 98.1235,26.8723 98.0875,26.7353 C98.0515,26.5973 97.9695,26.4513 97.8415,26.2953 C97.6785,26.0963 97.4975,25.9583 97.3005,25.8823 C97.1025,25.8063 96.9105,25.7693 96.7245,25.7733 C96.5385,25.7773 96.3685,25.8093 96.2145,25.8683 C96.0605,25.9273 95.9425,25.9893 95.8625,26.0553 L93.2635,28.1893 L92.6995,27.5033 L96.8725,24.0773 L97.4025,24.7233 Z" id="Fill-66" fill="#000000" mask="url(#mask-2)"></path><path d="M103.2272,35.6247 C103.3492,35.4607 103.4342,35.2857 103.4812,35.0997 C103.5292,34.9137 103.5412,34.7207 103.5172,34.5217 C103.4922,34.3217 103.4232,34.1257 103.3112,33.9337 C103.1942,33.7357 103.0542,33.5777 102.8922,33.4597 C102.7292,33.3407 102.5542,33.2597 102.3672,33.2167 C102.1802,33.1737 101.9882,33.1657 101.7902,33.1937 C101.5922,33.2207 101.4002,33.2817 101.2132,33.3757 L102.7862,36.0477 C102.9592,35.9307 103.1062,35.7887 103.2272,35.6247 M100.3482,37.5677 C99.8792,37.3757 99.4902,37.0147 99.1792,36.4867 C98.9602,36.1157 98.8302,35.7577 98.7892,35.4137 C98.7482,35.0707 98.7812,34.7417 98.8882,34.4287 C98.9952,34.1157 99.1702,33.8247 99.4152,33.5547 C99.6612,33.2857 99.9572,33.0407 100.3042,32.8197 C100.6582,32.6117 101.0132,32.4747 101.3712,32.4097 C101.7292,32.3447 102.0732,32.3457 102.4032,32.4137 C102.7342,32.4817 103.0382,32.6137 103.3152,32.8097 C103.5922,33.0067 103.8252,33.2637 104.0122,33.5817 C104.2552,33.9957 104.3722,34.3897 104.3622,34.7627 C104.3522,35.1367 104.2632,35.4837 104.0962,35.8037 C103.9292,36.1247 103.7082,36.4077 103.4342,36.6547 C103.1582,36.9017 102.8772,37.1017 102.5882,37.2557 L100.5372,33.7727 C100.3302,33.8867 100.1512,34.0247 99.9992,34.1867 C99.8492,34.3487 99.7372,34.5307 99.6672,34.7337 C99.5972,34.9367 99.5752,35.1557 99.6002,35.3907 C99.6252,35.6267 99.7132,35.8697 99.8612,36.1227 C100.0512,36.4467 100.2822,36.6677 100.5542,36.7867 C100.8262,36.9047 101.1342,36.9077 101.4792,36.7937 L101.9242,37.5487 C101.3422,37.7547 100.8172,37.7607 100.3482,37.5677" id="Fill-67" fill="#000000" mask="url(#mask-2)"></path><path d="M106.1388,37.8611 L105.3528,38.2021 L105.3608,38.2211 C106.1088,38.2991 106.6408,38.7051 106.9598,39.4401 C107.1018,39.7651 107.1738,40.0561 107.1788,40.3121 C107.1838,40.5681 107.1348,40.7981 107.0338,41.0011 C106.9328,41.2051 106.7838,41.3811 106.5868,41.5311 C106.3898,41.6811 106.1578,41.8141 105.8898,41.9301 L102.6318,43.3431 L102.2788,42.5291 L105.6318,41.0741 C105.9378,40.9421 106.1418,40.7471 106.2438,40.4901 C106.3448,40.2341 106.3268,39.9491 106.1918,39.6361 C106.0838,39.3871 105.9518,39.1881 105.7958,39.0391 C105.6408,38.8911 105.4658,38.7861 105.2728,38.7261 C105.0798,38.6661 104.8758,38.6461 104.6608,38.6671 C104.4468,38.6881 104.2278,38.7471 104.0038,38.8441 L101.2068,40.0581 L100.8538,39.2431 L105.8058,37.0941 L106.1388,37.8611 Z" id="Fill-68" fill="#000000" mask="url(#mask-2)"></path><path d="M108.866,45.092 L108.121,45.332 L107.791,44.308 L104.6,45.335 C104.501,45.367 104.424,45.4 104.369,45.436 C104.316,45.472 104.279,45.518 104.261,45.576 C104.242,45.633 104.242,45.704 104.259,45.79 C104.275,45.876 104.305,45.986 104.347,46.118 L104.472,46.505 L103.727,46.746 L103.519,46.099 C103.449,45.881 103.403,45.688 103.383,45.523 C103.363,45.358 103.377,45.214 103.425,45.093 C103.474,44.971 103.564,44.863 103.695,44.77 C103.825,44.677 104.011,44.592 104.249,44.515 L107.519,43.463 L107.238,42.588 L107.984,42.349 L108.265,43.223 L109.805,42.727 L110.077,43.572 L108.536,44.068 L108.866,45.092 Z" id="Fill-69" fill="#000000" mask="url(#mask-2)"></path><path d="M111.6015,53.3336 C111.7935,52.9726 111.8525,52.5376 111.7805,52.0266 C111.7515,51.8206 111.7025,51.6196 111.6325,51.4256 C111.5635,51.2316 111.4695,51.0646 111.3505,50.9226 C111.2325,50.7816 111.0855,50.6746 110.9105,50.6056 C110.7355,50.5346 110.5275,50.5166 110.2855,50.5506 C110.0585,50.5836 109.8835,50.6766 109.7615,50.8306 C109.6395,50.9846 109.5485,51.1806 109.4905,51.4166 C109.4325,51.6536 109.3945,51.9176 109.3755,52.2086 C109.3565,52.4986 109.3335,52.7966 109.3065,53.0986 C109.2785,53.4016 109.2385,53.7006 109.1855,53.9966 C109.1325,54.2916 109.0425,54.5636 108.9155,54.8096 C108.7875,55.0556 108.6135,55.2636 108.3915,55.4316 C108.1685,55.6006 107.8745,55.7106 107.5095,55.7626 C107.1165,55.8176 106.7685,55.7776 106.4645,55.6406 C106.1605,55.5046 105.9015,55.3106 105.6865,55.0596 C105.4715,54.8086 105.3005,54.5186 105.1725,54.1886 C105.0455,53.8576 104.9575,53.5246 104.9105,53.1866 C104.8525,52.7726 104.8485,52.3746 104.9005,51.9916 C104.9515,51.6076 105.0625,51.2616 105.2335,50.9526 C105.4035,50.6436 105.6415,50.3846 105.9465,50.1776 C106.2505,49.9686 106.6275,49.8336 107.0755,49.7696 L107.2065,50.7006 C106.8965,50.7446 106.6375,50.8426 106.4305,50.9946 C106.2235,51.1476 106.0615,51.3316 105.9445,51.5486 C105.8275,51.7656 105.7525,52.0096 105.7215,52.2816 C105.6895,52.5526 105.6925,52.8266 105.7315,53.1026 C105.7625,53.3226 105.8155,53.5416 105.8875,53.7606 C105.9605,53.9786 106.0595,54.1706 106.1855,54.3356 C106.3105,54.5006 106.4675,54.6256 106.6545,54.7116 C106.8425,54.7986 107.0715,54.8226 107.3395,54.7836 C107.5945,54.7486 107.7925,54.6516 107.9315,54.4956 C108.0715,54.3386 108.1755,54.1406 108.2435,53.9026 C108.3115,53.6646 108.3575,53.3996 108.3795,53.1086 C108.4015,52.8166 108.4255,52.5206 108.4485,52.2176 C108.4725,51.9156 108.5075,51.6176 108.5545,51.3226 C108.6005,51.0276 108.6785,50.7576 108.7885,50.5146 C108.8985,50.2706 109.0555,50.0656 109.2605,49.8996 C109.4655,49.7326 109.7365,49.6266 110.0745,49.5786 C110.4475,49.5256 110.7795,49.5566 111.0735,49.6696 C111.3675,49.7826 111.6195,49.9526 111.8315,50.1796 C112.0425,50.4066 112.2145,50.6736 112.3455,50.9826 C112.4765,51.2906 112.5665,51.6136 112.6145,51.9516 C112.6675,52.3306 112.6725,52.6886 112.6285,53.0256 C112.5845,53.3616 112.4835,53.6666 112.3245,53.9386 C112.1665,54.2106 111.9505,54.4376 111.6775,54.6206 C111.4045,54.8026 111.0655,54.9296 110.6605,55.0006 L110.5295,54.0706 C111.0525,53.9406 111.4095,53.6946 111.6015,53.3336" id="Fill-70" fill="#000000" mask="url(#mask-2)"></path><path d="M104.7966,59.1531 C104.5306,59.0531 104.3066,58.9541 104.1236,58.8561 C103.9406,58.7571 103.7906,58.6491 103.6746,58.5291 C103.5576,58.4081 103.4716,58.2741 103.4166,58.1251 C103.3626,57.9771 103.3336,57.8051 103.3306,57.6101 C103.3286,57.5061 103.3336,57.4011 103.3466,57.2971 C103.3586,57.1921 103.3816,57.0901 103.4146,56.9921 L104.2286,56.9791 C104.1946,57.0571 104.1676,57.1461 104.1446,57.2471 C104.1216,57.3481 104.1106,57.4341 104.1126,57.5031 C104.1146,57.6851 104.1606,57.8351 104.2506,57.9551 C104.3386,58.0761 104.4636,58.1661 104.6246,58.2261 L105.5396,58.5771 L110.8716,56.3491 L110.8876,57.3521 L106.4966,59.0001 L106.4966,59.0211 L110.9376,60.4631 L110.9536,61.4031 L104.7966,59.1531 Z" id="Fill-71" fill="#000000" mask="url(#mask-2)"></path><path d="M106.6212,62.9466 C106.4782,63.0166 106.3592,63.1146 106.2672,63.2426 C106.1742,63.3696 106.1022,63.5166 106.0512,63.6826 C105.9992,63.8496 105.9652,64.0216 105.9482,64.2026 C105.9342,64.3416 105.9302,64.4876 105.9362,64.6426 C105.9422,64.7966 105.9662,64.9406 106.0092,65.0746 C106.0532,65.2076 106.1232,65.3216 106.2232,65.4146 C106.3222,65.5086 106.4552,65.5636 106.6212,65.5796 C106.8502,65.6016 107.0312,65.5326 107.1662,65.3706 C107.3012,65.2086 107.4172,65.0016 107.5152,64.7496 C107.6142,64.4956 107.7072,64.2206 107.7952,63.9206 C107.8842,63.6216 107.9952,63.3476 108.1282,63.0986 C108.2602,62.8496 108.4322,62.6476 108.6432,62.4936 C108.8532,62.3386 109.1332,62.2786 109.4792,62.3116 C109.7492,62.3386 109.9762,62.4226 110.1572,62.5616 C110.3392,62.7026 110.4822,62.8736 110.5852,63.0766 C110.6872,63.2786 110.7562,63.5026 110.7922,63.7466 C110.8282,63.9916 110.8342,64.2316 110.8112,64.4676 C110.7812,64.7716 110.7282,65.0506 110.6512,65.3016 C110.5742,65.5526 110.4622,65.7706 110.3142,65.9556 C110.1672,66.1406 109.9782,66.2816 109.7482,66.3786 C109.5192,66.4746 109.2402,66.5176 108.9122,66.5066 L108.9992,65.6226 C109.1732,65.6256 109.3222,65.5946 109.4432,65.5296 C109.5652,65.4646 109.6662,65.3766 109.7472,65.2656 C109.8272,65.1546 109.8912,65.0296 109.9352,64.8906 C109.9812,64.7516 110.0102,64.6096 110.0252,64.4646 C110.0372,64.3326 110.0402,64.1986 110.0322,64.0606 C110.0252,63.9236 110.0002,63.7966 109.9592,63.6816 C109.9182,63.5646 109.8582,63.4686 109.7772,63.3906 C109.6982,63.3126 109.5882,63.2666 109.4502,63.2536 C109.2982,63.2386 109.1662,63.2796 109.0552,63.3776 C108.9442,63.4756 108.8482,63.6046 108.7652,63.7646 C108.6832,63.9236 108.6102,64.1056 108.5452,64.3086 C108.4792,64.5126 108.4122,64.7166 108.3432,64.9186 C108.2732,65.1356 108.1932,65.3466 108.1032,65.5516 C108.0132,65.7556 107.9032,65.9336 107.7732,66.0856 C107.6432,66.2366 107.4862,66.3546 107.3032,66.4386 C107.1202,66.5216 106.9012,66.5506 106.6442,66.5266 C106.3192,66.4946 106.0552,66.4006 105.8532,66.2446 C105.6522,66.0886 105.4962,65.8956 105.3862,65.6636 C105.2752,65.4326 105.2072,65.1776 105.1822,64.8996 C105.1562,64.6206 105.1572,64.3456 105.1842,64.0756 C105.2132,63.7776 105.2722,63.4966 105.3602,63.2326 C105.4492,62.9686 105.5752,62.7396 105.7372,62.5456 C105.8992,62.3516 106.1022,62.2036 106.3462,62.1006 C106.5912,61.9996 106.8802,61.9576 107.2142,61.9756 L107.1282,62.8596 C106.9332,62.8476 106.7642,62.8766 106.6212,62.9466" id="Fill-72" fill="#000000" mask="url(#mask-2)"></path><path d="M109.7549,70.5524 L108.9859,70.4054 L109.1869,69.3484 L105.8949,68.7204 C105.7919,68.7014 105.7079,68.6944 105.6439,68.6994 C105.5789,68.7044 105.5239,68.7274 105.4819,68.7694 C105.4379,68.8104 105.4029,68.8724 105.3769,68.9574 C105.3499,69.0404 105.3239,69.1504 105.2979,69.2874 L105.2209,69.6874 L104.4519,69.5404 L104.5789,68.8734 C104.6229,68.6484 104.6739,68.4574 104.7359,68.3034 C104.7969,68.1484 104.8779,68.0284 104.9789,67.9454 C105.0799,67.8624 105.2099,67.8104 105.3699,67.7914 C105.5299,67.7724 105.7329,67.7864 105.9789,67.8334 L109.3539,68.4774 L109.5259,67.5744 L110.2949,67.7214 L110.1229,68.6234 L111.7129,68.9274 L111.5469,69.7984 L109.9559,69.4954 L109.7549,70.5524 Z" id="Fill-73" fill="#000000" mask="url(#mask-2)"></path><path d="M106.9151,74.9882 C107.1181,74.9632 107.3031,74.9062 107.4721,74.8142 C107.6411,74.7212 107.7891,74.5982 107.9181,74.4432 C108.0461,74.2892 108.1421,74.1052 108.2051,73.8912 C108.2701,73.6702 108.2891,73.4612 108.2641,73.2612 C108.2391,73.0612 108.1781,72.8792 108.0821,72.7132 C107.9851,72.5462 107.8601,72.4012 107.7041,72.2762 C107.5481,72.1502 107.3731,72.0512 107.1761,71.9792 L106.3041,74.9562 C106.5091,75.0012 106.7121,75.0122 106.9151,74.9882 M103.5281,74.2192 C103.3471,73.7462 103.3441,73.2152 103.5151,72.6272 C103.6371,72.2122 103.8091,71.8732 104.0311,71.6082 C104.2541,71.3432 104.5161,71.1422 104.8171,71.0052 C105.1181,70.8692 105.4511,70.7982 105.8161,70.7922 C106.1791,70.7862 106.5611,70.8342 106.9591,70.9372 C107.3531,71.0522 107.6961,71.2182 107.9891,71.4342 C108.2811,71.6502 108.5161,71.9022 108.6921,72.1902 C108.8691,72.4772 108.9811,72.7892 109.0281,73.1252 C109.0741,73.4622 109.0451,73.8072 108.9421,74.1612 C108.8071,74.6222 108.6001,74.9772 108.3201,75.2252 C108.0411,75.4732 107.7271,75.6462 107.3791,75.7442 C107.0321,75.8412 106.6731,75.8742 106.3061,75.8432 C105.9381,75.8122 105.5991,75.7432 105.2891,75.6372 L106.4241,71.7592 C106.1991,71.6862 105.9761,71.6502 105.7551,71.6502 C105.5331,71.6502 105.3241,71.6942 105.1281,71.7822 C104.9321,71.8702 104.7571,72.0042 104.6031,72.1832 C104.4491,72.3632 104.3301,72.5932 104.2481,72.8742 C104.1431,73.2352 104.1391,73.5552 104.2391,73.8342 C104.3391,74.1132 104.5481,74.3402 104.8671,74.5132 L104.6201,75.3552 C104.0731,75.0712 103.7081,74.6922 103.5281,74.2192" id="Fill-74" fill="#000000" mask="url(#mask-2)"></path><path d="M107.2797,78.8102 L106.5627,78.4712 L106.5537,78.4902 C106.9347,79.1162 106.9627,79.7732 106.6387,80.4592 C106.4967,80.7612 106.3037,81.0062 106.0617,81.1912 C105.8207,81.3772 105.5247,81.4492 105.1747,81.4072 C105.3617,81.6962 105.4637,82.0082 105.4827,82.3442 C105.5007,82.6802 105.4347,83.0082 105.2827,83.3292 C105.1667,83.5752 105.0347,83.7842 104.8877,83.9572 C104.7407,84.1302 104.5767,84.2602 104.3967,84.3482 C104.2167,84.4372 104.0187,84.4782 103.8017,84.4712 C103.5857,84.4662 103.3507,84.4032 103.0997,84.2842 L99.5207,82.5932 L99.8997,81.7912 L103.1007,83.3032 C103.2517,83.3752 103.3997,83.4292 103.5437,83.4662 C103.6877,83.5032 103.8247,83.5112 103.9547,83.4872 C104.0847,83.4642 104.2077,83.4042 104.3227,83.3092 C104.4377,83.2132 104.5407,83.0672 104.6327,82.8722 C104.8197,82.4752 104.8547,82.1102 104.7347,81.7772 C104.6147,81.4432 104.3657,81.1872 103.9887,81.0092 L100.9487,79.5722 L101.3277,78.7702 L104.5287,80.2822 C104.6857,80.3562 104.8377,80.4112 104.9827,80.4452 C105.1277,80.4792 105.2657,80.4842 105.3967,80.4612 C105.5267,80.4382 105.6457,80.3812 105.7547,80.2892 C105.8627,80.1982 105.9607,80.0622 106.0467,79.8792 C106.1567,79.6462 106.2047,79.4242 106.1887,79.2132 C106.1727,79.0012 106.1237,78.8132 106.0407,78.6462 C105.9577,78.4802 105.8557,78.3392 105.7367,78.2252 C105.6177,78.1112 105.5107,78.0322 105.4167,77.9872 L102.3757,76.5512 L102.7547,75.7482 L107.6367,78.0542 L107.2797,78.8102 Z" id="Fill-75" fill="#000000" mask="url(#mask-2)"></path><path d="M91.1281,97.6446 C91.1281,96.9956 91.6541,96.4686 92.3041,96.4686 C92.9531,96.4686 93.4801,96.9956 93.4801,97.6446 C93.4801,98.2936 92.9531,98.8206 92.3041,98.8206 C91.6541,98.8206 91.1281,98.2936 91.1281,97.6446" id="Fill-76" fill="#000000" mask="url(#mask-2)"></path><path d="M37.3673,100.806 C37.1583,100.352 36.8113,99.983 36.3253,99.698 C35.9103,99.454 35.5093,99.324 35.1233,99.306 C34.7373,99.289 34.3713,99.356 34.0263,99.506 C33.6813,99.656 33.3643,99.874 33.0763,100.157 C32.7873,100.441 32.5363,100.765 32.3243,101.127 C32.0913,101.523 31.9173,101.924 31.8013,102.33 C31.6843,102.736 31.6453,103.127 31.6823,103.501 C31.7193,103.876 31.8423,104.229 32.0483,104.559 C32.2553,104.89 32.5663,105.176 32.9813,105.42 C33.2853,105.599 33.5853,105.707 33.8813,105.746 C34.1763,105.784 34.4623,105.764 34.7393,105.687 C35.0153,105.609 35.2743,105.476 35.5163,105.286 C35.7573,105.097 35.9723,104.866 36.1583,104.592 L37.0823,105.134 C36.4783,105.955 35.7773,106.459 34.9803,106.645 C34.1833,106.831 33.3403,106.663 32.4533,106.142 C31.9153,105.826 31.4993,105.459 31.2063,105.039 C30.9123,104.618 30.7273,104.168 30.6513,103.688 C30.5763,103.207 30.6013,102.708 30.7273,102.19 C30.8523,101.671 31.0643,101.159 31.3603,100.653 C31.6573,100.148 32.0073,99.715 32.4093,99.354 C32.8133,98.994 33.2483,98.73 33.7183,98.561 C34.1873,98.392 34.6843,98.333 35.2083,98.383 C35.7313,98.433 36.2593,98.614 36.7913,98.926 C37.1533,99.139 37.4683,99.389 37.7353,99.676 C38.0023,99.963 38.2073,100.275 38.3503,100.611 C38.4923,100.948 38.5653,101.306 38.5683,101.687 C38.5713,102.068 38.4903,102.458 38.3263,102.858 L37.4023,102.316 C37.5873,101.763 37.5753,101.259 37.3673,100.806" id="Fill-77" fill="#000000" mask="url(#mask-2)"></path><polygon id="Fill-78" fill="#000000" mask="url(#mask-2)" points="45.9741 103.2703 45.6501 104.1123 41.4631 102.5013 40.5451 104.8893 44.4481 106.3903 44.1241 107.2323 40.2211 105.7313 39.2221 108.3293 43.4401 109.9523 43.1171 110.7943 37.8991 108.7863 40.7881 101.2753"></polygon><path d="M50.3549,108.0272 C50.5829,108.0372 50.7909,108.0062 50.9789,107.9342 C51.1669,107.8622 51.3289,107.7472 51.4669,107.5872 C51.6039,107.4282 51.7029,107.2052 51.7629,106.9192 C51.8469,106.5222 51.8049,106.1752 51.6369,105.8782 C51.4689,105.5822 51.1379,105.3812 50.6459,105.2782 L48.0439,104.7292 L47.4649,107.4752 L49.6489,107.9362 C49.8909,107.9872 50.1259,108.0172 50.3549,108.0272 L50.3549,108.0272 Z M50.8869,104.4072 C51.6369,104.5652 52.1849,104.8732 52.5299,105.3292 C52.8759,105.7862 52.9799,106.3342 52.8459,106.9742 C52.7449,107.4522 52.5489,107.8482 52.2549,108.1622 C51.9629,108.4772 51.5629,108.6502 51.0569,108.6822 L51.0529,108.7042 C51.2719,108.7962 51.4419,108.9092 51.5629,109.0422 C51.6849,109.1752 51.7729,109.3222 51.8269,109.4832 C51.8819,109.6442 51.9109,109.8182 51.9139,110.0022 C51.9169,110.1882 51.9099,110.3782 51.8909,110.5742 C51.8659,110.7682 51.8359,110.9652 51.8009,111.1652 C51.7659,111.3652 51.7439,111.5642 51.7329,111.7622 C51.7219,111.9592 51.7259,112.1502 51.7449,112.3342 C51.7639,112.5182 51.8139,112.6892 51.8969,112.8442 L50.7279,112.5972 C50.6709,112.5022 50.6449,112.3812 50.6479,112.2362 C50.6519,112.0912 50.6679,111.9312 50.6969,111.7562 C50.7269,111.5822 50.7579,111.3942 50.7929,111.1942 C50.8279,110.9942 50.8459,110.7962 50.8499,110.5962 C50.8609,110.3992 50.8629,110.2092 50.8549,110.0272 C50.8469,109.8452 50.8089,109.6792 50.7399,109.5302 C50.6719,109.3822 50.5689,109.2532 50.4309,109.1432 C50.2919,109.0332 50.0949,108.9512 49.8379,108.8972 L47.2789,108.3582 L46.5699,111.7212 L45.5219,111.5012 L47.1819,103.6262 L50.8869,104.4072 Z" id="Fill-79" fill="#000000" mask="url(#mask-2)"></path><polygon id="Fill-80" fill="#000000" mask="url(#mask-2)" points="53.6253 105.8595 53.6773 104.9585 60.1023 105.3305 60.0503 106.2315 57.3723 106.0755 56.9593 113.2105 55.8903 113.1485 56.3033 106.0145"></polygon><polygon id="Fill-81" fill="#000000" mask="url(#mask-2)" points="62.2521 105.1479 62.6241 113.1869 61.5551 113.2369 61.1821 105.1979"></polygon><polygon id="Fill-82" fill="#000000" mask="url(#mask-2)" points="69.4202 104.2531 69.5562 105.1451 65.3892 105.7811 65.7752 108.3101 69.4302 107.7521 69.5662 108.6431 65.9112 109.2021 66.4682 112.8451 65.4102 113.0071 64.1942 105.0511"></polygon><polygon id="Fill-83" fill="#000000" mask="url(#mask-2)" points="71.7686 103.5778 73.8226 111.3588 72.7866 111.6328 70.7336 103.8508"></polygon><polygon id="Fill-84" fill="#000000" mask="url(#mask-2)" points="78.8208 101.0844 79.1458 101.9254 74.9618 103.5434 75.8848 105.9304 79.7848 104.4214 80.1108 105.2624 76.2098 106.7704 77.2148 109.3674 81.4298 107.7364 81.7548 108.5774 76.5408 110.5944 73.6378 103.0894"></polygon><path d="M86.0259,105.2703 C86.1299,105.2093 86.2549,105.1253 86.4009,105.0173 C86.5469,104.9103 86.6889,104.7753 86.8279,104.6103 C86.9669,104.4463 87.0879,104.2553 87.1909,104.0383 C87.2949,103.8203 87.3559,103.5723 87.3739,103.2913 C87.3929,103.0103 87.3569,102.6933 87.2679,102.3403 C87.1779,101.9883 87.0089,101.5983 86.7579,101.1703 C86.5149,100.7553 86.2559,100.4083 85.9839,100.1273 C85.7109,99.8473 85.4149,99.6473 85.0949,99.5253 C84.7749,99.4033 84.4349,99.3683 84.0729,99.4193 C83.7109,99.4703 83.3159,99.6213 82.8879,99.8713 L81.3319,100.7843 L84.4899,106.1713 L86.0259,105.2703 Z M82.3349,99.1513 C83.4039,98.5233 84.3869,98.3143 85.2829,98.5193 C86.1789,98.7263 86.9539,99.3863 87.6079,100.5013 C87.9499,101.0853 88.1879,101.6403 88.3229,102.1673 C88.4569,102.6933 88.4779,103.1903 88.3859,103.6583 C88.2949,104.1253 88.0859,104.5643 87.7589,104.9733 C87.4319,105.3813 86.9809,105.7553 86.4039,106.0943 L84.0209,107.4903 L79.9519,100.5473 L82.3349,99.1513 Z" id="Fill-85" fill="#000000" mask="url(#mask-2)"></path><path d="M25.4951,97.5711 C25.4951,96.9221 26.0211,96.3951 26.6711,96.3951 C27.3201,96.3951 27.8471,96.9221 27.8471,97.5711 C27.8471,98.2201 27.3201,98.7471 26.6711,98.7471 C26.0211,98.7471 25.4951,98.2201 25.4951,97.5711" id="Fill-86" fill="#000000" mask="url(#mask-2)"></path></g></g></g></g></g></svg> 