<?xml version="1.0" encoding="UTF-8"?> <svg xmlns="http://www.w3.org/2000/svg" xmlns:xlink="http://www.w3.org/1999/xlink" width="124px" height="123px" viewBox="0 0 124 123" version="1.1"><title>Group 54</title><defs><polygon id="path-1" points="0 122.774 123.112 122.774 123.112 0 0 0"></polygon></defs><g id="Design" stroke="none" stroke-width="1" fill="none" fill-rule="evenodd"><g id="Homepage" transform="translate(-857, -9025)"><g id="Footer" transform="translate(-111, 8057)"><g id="Group-85" transform="translate(334, 667)"><g id="Group-54" transform="translate(634, 301)"><polygon id="Fill-1" fill="#000000" points="31.5449 39.0015 37.5569 56.6775 37.6289 56.6775 43.3159 39.0015 51.2729 39.0015 51.2729 64.7055 45.9809 64.7055 45.9809 46.4895 45.9079 46.4895 39.6079 64.7055 35.2529 64.7055 28.9519 46.6695 28.8809 46.6695 28.8809 64.7055 23.5889 64.7055 23.5889 39.0015"></polygon><g id="Group-53"><path d="M67.9404,60.314 C68.4924,60.314 69.0204,60.259 69.5244,60.152 C70.0294,60.043 70.4724,59.864 70.8564,59.612 C71.2404,59.36 71.5464,59.017 71.7744,58.585 C72.0024,58.154 72.1174,57.602 72.1174,56.929 C72.1174,55.61 71.7444,54.668 71.0014,54.104 C70.2564,53.54 69.2724,53.257 68.0484,53.257 L61.8924,53.257 L61.8924,60.314 L67.9404,60.314 Z M67.6174,49.406 C68.6254,49.406 69.4534,49.166 70.1004,48.686 C70.7494,48.206 71.0734,47.425 71.0734,46.345 C71.0734,45.746 70.9644,45.253 70.7494,44.87 C70.5334,44.486 70.2454,44.186 69.8844,43.969 C69.5244,43.753 69.1104,43.604 68.6424,43.52 C68.1744,43.436 67.6884,43.394 67.1844,43.394 L61.8924,43.394 L61.8924,49.406 L67.6174,49.406 Z M68.3364,39.002 C69.5604,39.002 70.6764,39.11 71.6844,39.326 C72.6924,39.542 73.5564,39.896 74.2764,40.387 C74.9974,40.879 75.5544,41.534 75.9514,42.349 C76.3464,43.166 76.5444,44.173 76.5444,45.374 C76.5444,46.669 76.2514,47.75 75.6634,48.614 C75.0744,49.478 74.2054,50.186 73.0524,50.738 C74.6364,51.194 75.8184,51.992 76.5984,53.131 C77.3784,54.272 77.7684,55.646 77.7684,57.253 C77.7684,58.549 77.5164,59.671 77.0124,60.62 C76.5084,61.568 75.8304,62.342 74.9784,62.942 C74.1274,63.542 73.1544,63.986 72.0624,64.274 C70.9704,64.562 69.8484,64.706 68.6974,64.706 L56.2414,64.706 L56.2414,39.002 L68.3364,39.002 Z" id="Fill-2" fill="#000000"></path><polygon id="Fill-4" fill="#000000" points="100.8086 39.0015 100.8086 43.7535 87.2366 43.7535 87.2366 49.2615 99.6926 49.2615 99.6926 53.6535 87.2366 53.6535 87.2366 59.9535 101.0966 59.9535 101.0966 64.7055 81.5846 64.7055 81.5846 39.0015"></polygon><path d="M27.2656,70.8316 C27.2116,70.6256 27.1386,70.4356 27.0456,70.2616 C26.9526,70.0886 26.8316,69.9376 26.6856,69.8116 C26.5386,69.6856 26.3676,69.5866 26.1706,69.5176 C25.9736,69.4466 25.7446,69.4116 25.4856,69.4116 C25.1056,69.4116 24.7776,69.4886 24.5006,69.6426 C24.2236,69.7956 23.9986,70.0006 23.8256,70.2566 C23.6526,70.5136 23.5236,70.8056 23.4406,71.1316 C23.3576,71.4586 23.3156,71.7916 23.3156,72.1316 C23.3156,72.4716 23.3576,72.8056 23.4406,73.1316 C23.5236,73.4586 23.6526,73.7506 23.8256,74.0066 C23.9986,74.2636 24.2236,74.4686 24.5006,74.6216 C24.7776,74.7746 25.1056,74.8526 25.4856,74.8526 C25.7656,74.8526 26.0116,74.8036 26.2256,74.7066 C26.4386,74.6096 26.6216,74.4776 26.7756,74.3076 C26.9286,74.1366 27.0486,73.9376 27.1356,73.7116 C27.2216,73.4846 27.2796,73.2416 27.3056,72.9816 L28.5256,72.9816 C28.4986,73.4086 28.4076,73.7986 28.2506,74.1516 C28.0936,74.5056 27.8816,74.8106 27.6156,75.0666 C27.3486,75.3236 27.0356,75.5216 26.6756,75.6616 C26.3156,75.8016 25.9186,75.8716 25.4856,75.8716 C24.9526,75.8716 24.4736,75.7726 24.0506,75.5766 C23.6266,75.3806 23.2686,75.1116 22.9756,74.7716 C22.6816,74.4326 22.4566,74.0346 22.3006,73.5816 C22.1436,73.1286 22.0656,72.6446 22.0656,72.1316 C22.0656,71.6256 22.1436,71.1446 22.3006,70.6916 C22.4566,70.2386 22.6816,69.8416 22.9756,69.5016 C23.2686,69.1616 23.6266,68.8926 24.0506,68.6916 C24.4736,68.4916 24.9526,68.3926 25.4856,68.3926 C25.8856,68.3926 26.2616,68.4466 26.6156,68.5576 C26.9686,68.6666 27.2806,68.8266 27.5506,69.0366 C27.8206,69.2466 28.0386,69.5016 28.2046,69.8016 C28.3716,70.1026 28.4756,70.4446 28.5156,70.8316 L27.2656,70.8316 Z" id="Fill-6" fill="#000000"></path><polygon id="Fill-8" fill="#000000" points="33.165 68.5621 38.306 68.5621 38.306 69.6421 34.415 69.6421 34.415 71.5111 38.016 71.5111 38.016 72.5321 34.415 72.5321 34.415 74.6221 38.375 74.6221 38.375 75.7021 33.165 75.7021"></polygon><path d="M44.2148,71.8121 L46.2648,71.8121 C46.6648,71.8121 46.9688,71.7161 47.1748,71.5271 C47.3818,71.3361 47.4858,71.0511 47.4858,70.6711 C47.4858,70.4451 47.4508,70.2601 47.3848,70.1171 C47.3188,69.9731 47.2268,69.8621 47.1108,69.7821 C46.9928,69.7021 46.8608,69.6481 46.7098,69.6221 C46.5608,69.5951 46.4048,69.5821 46.2448,69.5821 L44.2148,69.5821 L44.2148,71.8121 Z M42.9648,68.5621 L46.3748,68.5621 C47.1618,68.5621 47.7518,68.7321 48.1458,69.0721 C48.5378,69.4121 48.7358,69.8851 48.7358,70.4921 C48.7358,70.8321 48.6858,71.1141 48.5848,71.3361 C48.4858,71.5601 48.3678,71.7401 48.2358,71.8761 C48.1018,72.0131 47.9698,72.1121 47.8398,72.1711 C47.7098,72.2321 47.6148,72.2721 47.5548,72.2911 L47.5548,72.3121 C47.6618,72.3251 47.7768,72.3581 47.9008,72.4121 C48.0238,72.4651 48.1388,72.5501 48.2448,72.6661 C48.3518,72.7841 48.4408,72.9351 48.5098,73.1221 C48.5798,73.3081 48.6148,73.5411 48.6148,73.8221 C48.6148,74.2421 48.6468,74.6241 48.7098,74.9661 C48.7738,75.3101 48.8718,75.5551 49.0048,75.7021 L47.6648,75.7021 C47.5708,75.5481 47.5168,75.3781 47.4998,75.1921 C47.4838,75.0051 47.4748,74.8251 47.4748,74.6521 C47.4748,74.3251 47.4548,74.0431 47.4148,73.8071 C47.3748,73.5701 47.3018,73.3741 47.1948,73.2161 C47.0878,73.0601 46.9438,72.9451 46.7598,72.8721 C46.5758,72.7981 46.3418,72.7611 46.0548,72.7611 L44.2148,72.7611 L44.2148,75.7021 L42.9648,75.7021 L42.9648,68.5621 Z" id="Fill-10" fill="#000000"></path><polygon id="Fill-12" fill="#000000" points="52.6455 68.5621 58.4255 68.5621 58.4255 69.6421 56.1555 69.6421 56.1555 75.7021 54.9055 75.7021 54.9055 69.6421 52.6455 69.6421"></polygon><mask id="mask-2" fill="white"><use xlink:href="#path-1"></use></mask><g id="Clip-15"></g><polygon id="Fill-14" fill="#000000" mask="url(#mask-2)" points="62.755 75.702 64.005 75.702 64.005 68.562 62.755 68.562"></polygon><polygon id="Fill-16" fill="#000000" mask="url(#mask-2)" points="69.0352 68.5621 73.9662 68.5621 73.9662 69.6421 70.2852 69.6421 70.2852 71.5111 73.5152 71.5111 73.5152 72.5321 70.2852 72.5321 70.2852 75.7021 69.0352 75.7021"></polygon><polygon id="Fill-17" fill="#000000" mask="url(#mask-2)" points="78.465 75.702 79.715 75.702 79.715 68.562 78.465 68.562"></polygon><polygon id="Fill-18" fill="#000000" mask="url(#mask-2)" points="84.7451 68.5621 89.8861 68.5621 89.8861 69.6421 85.9951 69.6421 85.9951 71.5111 89.5961 71.5111 89.5961 72.5321 85.9951 72.5321 85.9951 74.6221 89.9551 74.6221 89.9551 75.7021 84.7451 75.7021"></polygon><path d="M95.7949,74.6822 L97.0249,74.6822 C97.5119,74.6822 97.9099,74.6172 98.2199,74.4872 C98.5299,74.3572 98.7739,74.1762 98.9499,73.9472 C99.1269,73.7162 99.2469,73.4472 99.3109,73.1362 C99.3729,72.8272 99.4049,72.4922 99.4049,72.1312 C99.4049,71.7722 99.3729,71.4372 99.3109,71.1262 C99.2469,70.8172 99.1269,70.5462 98.9499,70.3172 C98.7739,70.0862 98.5299,69.9072 98.2199,69.7772 C97.9099,69.6472 97.5119,69.5812 97.0249,69.5812 L95.7949,69.5812 L95.7949,74.6822 Z M94.5449,68.5622 L97.5049,68.5622 C98.0519,68.5622 98.5249,68.6552 98.9249,68.8412 C99.3249,69.0292 99.6509,69.2842 99.9049,69.6072 C100.1579,69.9302 100.3469,70.3082 100.4699,70.7422 C100.5939,71.1752 100.6549,71.6382 100.6549,72.1312 C100.6549,72.6252 100.5939,73.0882 100.4699,73.5222 C100.3469,73.9552 100.1579,74.3332 99.9049,74.6572 C99.6509,74.9802 99.3249,75.2352 98.9249,75.4212 C98.5249,75.6082 98.0519,75.7022 97.5049,75.7022 L94.5449,75.7022 L94.5449,68.5622 Z" id="Fill-19" fill="#000000" mask="url(#mask-2)"></path><polygon id="Fill-20" fill="#000000" mask="url(#mask-2)" points="29.1514 26.9234 29.9834 26.2134 33.1684 28.0614 33.1774 28.0534 31.8314 24.6374 32.6534 23.9354 35.5324 27.3104 34.9694 27.7894 32.7484 25.1864 32.7384 25.1944 34.0244 28.5964 33.5384 29.0114 30.3804 27.2054 30.3714 27.2144 32.5924 29.8184 32.0304 30.2974"></polygon><polygon id="Fill-21" fill="#000000" mask="url(#mask-2)" points="34.4609 22.6715 35.0999 22.2315 37.6159 25.8845 36.9769 26.3245"></polygon><polygon id="Fill-22" fill="#000000" mask="url(#mask-2)" points="36.9277 21.0162 37.6427 20.6162 41.0067 22.4772 41.0177 22.4712 39.4207 19.6202 40.0657 19.2592 42.2337 23.1282 41.5177 23.5302 38.1617 21.6702 38.1467 21.6792 39.7407 24.5252 39.0947 24.8862"></polygon><path d="M44.0596,18.0513 C43.8406,18.1403 43.6696,18.2603 43.5456,18.4133 C43.4216,18.5663 43.3396,18.7373 43.2996,18.9243 C43.2596,19.1133 43.2536,19.3113 43.2826,19.5183 C43.3106,19.7263 43.3636,19.9273 43.4436,20.1233 C43.5226,20.3193 43.6236,20.5013 43.7476,20.6703 C43.8726,20.8393 44.0136,20.9773 44.1726,21.0843 C44.3326,21.1923 44.5096,21.2583 44.7056,21.2813 C44.9006,21.3063 45.1076,21.2743 45.3266,21.1853 C45.5446,21.0963 45.7156,20.9763 45.8396,20.8233 C45.9626,20.6703 46.0446,20.5003 46.0846,20.3123 C46.1246,20.1233 46.1316,19.9263 46.1036,19.7183 C46.0756,19.5113 46.0216,19.3093 45.9426,19.1133 C45.8636,18.9173 45.7616,18.7353 45.6376,18.5663 C45.5136,18.3983 45.3716,18.2593 45.2126,18.1523 C45.0526,18.0443 44.8756,17.9793 44.6806,17.9543 C44.4856,17.9313 44.2786,17.9633 44.0596,18.0513 M43.8226,17.4643 C44.1296,17.3403 44.4276,17.2863 44.7186,17.3033 C45.0086,17.3203 45.2786,17.3923 45.5266,17.5193 C45.7746,17.6473 45.9966,17.8223 46.1926,18.0473 C46.3876,18.2723 46.5446,18.5303 46.6636,18.8223 C46.7826,19.1173 46.8496,19.4143 46.8656,19.7123 C46.8796,20.0103 46.8426,20.2903 46.7526,20.5553 C46.6636,20.8193 46.5196,21.0573 46.3216,21.2693 C46.1226,21.4803 45.8706,21.6483 45.5636,21.7733 C45.2556,21.8973 44.9576,21.9513 44.6676,21.9373 C44.3786,21.9223 44.1096,21.8513 43.8616,21.7233 C43.6136,21.5953 43.3916,21.4193 43.1956,21.1953 C42.9996,20.9703 42.8426,20.7103 42.7226,20.4143 C42.6056,20.1223 42.5386,19.8273 42.5236,19.5303 C42.5076,19.2333 42.5446,18.9513 42.6346,18.6883 C42.7246,18.4233 42.8686,18.1853 43.0656,17.9713 C43.2626,17.7573 43.5146,17.5883 43.8226,17.4643" id="Fill-23" fill="#000000" mask="url(#mask-2)"></path><path d="M49.0771,17.8902 L50.3081,17.5652 C50.5491,17.5012 50.7161,17.3972 50.8091,17.2492 C50.9031,17.1032 50.9211,16.9152 50.8601,16.6872 C50.8241,16.5512 50.7751,16.4452 50.7131,16.3692 C50.6491,16.2942 50.5771,16.2422 50.4941,16.2112 C50.4111,16.1822 50.3231,16.1712 50.2281,16.1792 C50.1341,16.1872 50.0391,16.2032 49.9421,16.2292 L48.7231,16.5502 L49.0771,17.8902 Z M47.8101,16.1362 L49.8591,15.5952 C50.3321,15.4712 50.7131,15.4792 51.0031,15.6212 C51.2931,15.7632 51.4861,16.0162 51.5831,16.3802 C51.6371,16.5842 51.6511,16.7622 51.6271,16.9112 C51.6011,17.0622 51.5601,17.1892 51.5021,17.2912 C51.4431,17.3952 51.3801,17.4752 51.3111,17.5322 C51.2431,17.5882 51.1921,17.6272 51.1591,17.6492 L51.1621,17.6612 C51.2281,17.6522 51.3031,17.6542 51.3861,17.6662 C51.4681,17.6792 51.5511,17.7112 51.6331,17.7652 C51.7161,17.8182 51.7931,17.8952 51.8641,17.9962 C51.9361,18.0972 51.9941,18.2322 52.0391,18.4002 C52.1051,18.6522 52.1841,18.8762 52.2771,19.0732 C52.3701,19.2692 52.4681,19.4012 52.5711,19.4672 L51.7651,19.6802 C51.6851,19.6032 51.6261,19.5092 51.5861,19.4002 C51.5471,19.2902 51.5131,19.1832 51.4851,19.0792 C51.4331,18.8832 51.3771,18.7172 51.3151,18.5812 C51.2541,18.4462 51.1791,18.3392 51.0901,18.2612 C51.0011,18.1842 50.8951,18.1382 50.7731,18.1232 C50.6521,18.1092 50.5051,18.1232 50.3331,18.1692 L49.2271,18.4602 L49.6931,20.2272 L48.9421,20.4252 L47.8101,16.1362 Z" id="Fill-24" fill="#000000" mask="url(#mask-2)"></path><polygon id="Fill-25" fill="#000000" mask="url(#mask-2)" points="53.2852 14.857 54.0512 14.728 54.7862 19.102 54.0202 19.231"></polygon><polygon id="Fill-26" fill="#000000" mask="url(#mask-2)" points="55.7656 14.4556 59.3446 14.1546 59.4006 14.8226 57.9946 14.9406 58.3106 18.6926 57.5366 18.7576 57.2216 15.0066 55.8226 15.1236"></polygon><polygon id="Fill-27" fill="#000000" mask="url(#mask-2)" points="62.251 16.8355 60.65 14.1005 61.551 14.1215 62.678 16.1375 63.88 14.1775 64.749 14.1975 63.027 16.8545 62.985 18.5935 62.209 18.5745"></polygon><polygon id="Fill-28" fill="#000000" mask="url(#mask-2)" points="65.2744 16.691 67.0734 16.875 67.0044 17.543 65.2064 17.358"></polygon><path d="M71.1104,15.6431 C70.8804,15.5951 70.6704,15.6011 70.4824,15.6591 C70.2954,15.7171 70.1314,15.8131 69.9944,15.9481 C69.8564,16.0811 69.7414,16.2431 69.6494,16.4311 C69.5574,16.6201 69.4904,16.8171 69.4474,17.0241 C69.4044,17.2301 69.3864,17.4381 69.3964,17.6481 C69.4054,17.8571 69.4474,18.0501 69.5194,18.2281 C69.5924,18.4071 69.7044,18.5601 69.8524,18.6881 C70.0024,18.8161 70.1914,18.9041 70.4234,18.9531 C70.6544,19.0001 70.8634,18.9961 71.0504,18.9371 C71.2384,18.8781 71.4014,18.7831 71.5394,18.6481 C71.6764,18.5141 71.7924,18.3531 71.8834,18.1641 C71.9754,17.9771 72.0444,17.7791 72.0874,17.5731 C72.1304,17.3661 72.1464,17.1581 72.1364,16.9491 C72.1284,16.7391 72.0864,16.5451 72.0134,16.3681 C71.9404,16.1901 71.8294,16.0371 71.6804,15.9081 C71.5324,15.7801 71.3414,15.6921 71.1104,15.6431 M71.2394,15.0231 C71.5644,15.0901 71.8424,15.2111 72.0744,15.3871 C72.3064,15.5621 72.4904,15.7721 72.6264,16.0161 C72.7614,16.2591 72.8474,16.5301 72.8854,16.8251 C72.9234,17.1211 72.9114,17.4221 72.8464,17.7311 C72.7824,18.0421 72.6724,18.3271 72.5204,18.5821 C72.3684,18.8381 72.1804,19.0511 71.9604,19.2211 C71.7384,19.3911 71.4864,19.5081 71.2044,19.5751 C70.9224,19.6411 70.6184,19.6401 70.2944,19.5731 C69.9694,19.5051 69.6904,19.3851 69.4584,19.2111 C69.2254,19.0391 69.0424,18.8311 68.9064,18.5861 C68.7704,18.3421 68.6834,18.0731 68.6464,17.7771 C68.6084,17.4821 68.6224,17.1771 68.6864,16.8661 C68.7514,16.5571 68.8594,16.2751 69.0114,16.0191 C69.1644,15.7631 69.3514,15.5501 69.5724,15.3801 C69.7944,15.2111 70.0464,15.0921 70.3294,15.0241 C70.6114,14.9561 70.9154,14.9561 71.2394,15.0231" id="Fill-29" fill="#000000" mask="url(#mask-2)"></path><polygon id="Fill-30" fill="#000000" mask="url(#mask-2)" points="74.9453 15.9693 75.6873 16.2383 75.2843 19.7003 75.2963 19.7043 77.2943 16.8213 78.0413 17.0923 77.7023 20.5763 77.7143 20.5813 79.6473 17.6743 80.3883 17.9433 77.7253 21.6963 76.9843 21.4273 77.3053 17.9353 77.2943 17.9313 75.2853 20.8113 74.5313 20.5373"></polygon><polygon id="Fill-31" fill="#000000" mask="url(#mask-2)" points="82.1133 18.7935 82.8373 19.1785 83.0923 23.0145 83.1023 23.0205 84.6363 20.1355 85.2893 20.4815 83.2073 24.3985 82.4833 24.0145 82.2313 20.1865 82.2153 20.1775 80.6833 23.0575 80.0313 22.7105"></polygon><polygon id="Fill-32" fill="#000000" mask="url(#mask-2)" points="87.1963 21.6656 89.8213 23.4826 89.4393 24.0346 87.4523 22.6596 86.7913 23.6146 88.6303 24.8876 88.2693 25.4086 86.4303 24.1366 85.6913 25.2036 87.7153 26.6026 87.3333 27.1546 84.6723 25.3126"></polygon><path d="M89.5137,28.1129 L90.0877,28.6179 C90.3147,28.8179 90.5267,28.9519 90.7247,29.0179 C90.9227,29.0849 91.1107,29.0999 91.2867,29.0659 C91.4637,29.0309 91.6297,28.9549 91.7867,28.8369 C91.9447,28.7169 92.0967,28.5749 92.2437,28.4069 C92.3917,28.2389 92.5147,28.0699 92.6127,27.8989 C92.7097,27.7279 92.7657,27.5529 92.7777,27.3739 C92.7887,27.1939 92.7497,27.0099 92.6597,26.8219 C92.5677,26.6339 92.4087,26.4399 92.1817,26.2409 L91.6087,25.7359 L89.5137,28.1129 Z M91.4447,24.7469 L92.8247,25.9629 C93.0787,26.1869 93.2617,26.4249 93.3707,26.6759 C93.4817,26.9269 93.5287,27.1799 93.5137,27.4349 C93.4987,27.6899 93.4317,27.9429 93.3117,28.1959 C93.1907,28.4489 93.0297,28.6899 92.8267,28.9199 C92.6237,29.1499 92.4057,29.3409 92.1697,29.4919 C91.9347,29.6429 91.6917,29.7429 91.4407,29.7889 C91.1897,29.8359 90.9327,29.8209 90.6687,29.7439 C90.4067,29.6669 90.1477,29.5149 89.8927,29.2909 L88.5127,28.0759 L91.4447,24.7469 Z" id="Fill-33" fill="#000000" mask="url(#mask-2)"></path><path d="M25.7412,84.2095 L26.4462,85.2635 C26.5512,85.4175 26.6802,85.5175 26.8382,85.5625 C26.9942,85.6055 27.1552,85.5725 27.3202,85.4625 C27.5072,85.3375 27.6062,85.2035 27.6192,85.0605 C27.6332,84.9165 27.5812,84.7575 27.4632,84.5815 L26.7582,83.5285 L25.7412,84.2095 Z M24.1262,85.2925 L24.8902,86.4335 C25.0212,86.6295 25.1752,86.7475 25.3482,86.7875 C25.5222,86.8275 25.7022,86.7855 25.8882,86.6615 C26.0702,86.5395 26.1752,86.3915 26.2002,86.2175 C26.2252,86.0425 26.1732,85.8575 26.0412,85.6615 L25.2762,84.5215 L24.1262,85.2925 Z M26.8512,82.5305 L28.0522,84.3215 C28.2732,84.6515 28.3752,84.9675 28.3572,85.2685 C28.3402,85.5695 28.1782,85.8225 27.8722,86.0275 C27.6852,86.1515 27.4962,86.2135 27.3032,86.2105 C27.1092,86.2085 26.9202,86.1465 26.7342,86.0265 L26.7242,86.0335 C26.8282,86.2935 26.8362,86.5375 26.7472,86.7665 C26.6592,86.9945 26.4892,87.1935 26.2382,87.3615 C26.0942,87.4585 25.9412,87.5225 25.7812,87.5565 C25.6212,87.5885 25.4582,87.5805 25.2932,87.5315 C25.1292,87.4815 24.9622,87.3895 24.7932,87.2535 C24.6242,87.1165 24.4612,86.9305 24.3022,86.6925 L23.1672,85.0005 L26.8512,82.5305 Z" id="Fill-34" fill="#000000" mask="url(#mask-2)"></path><path d="M29.7051,86.6256 L30.2151,87.2126 L28.2641,88.9066 C28.1511,89.0056 28.0421,89.1096 27.9351,89.2216 C27.8301,89.3326 27.7531,89.4536 27.7051,89.5856 C27.6581,89.7176 27.6501,89.8616 27.6821,90.0186 C27.7131,90.1746 27.8121,90.3486 27.9771,90.5386 C28.1431,90.7296 28.3021,90.8516 28.4521,90.9036 C28.6021,90.9576 28.7461,90.9696 28.8831,90.9406 C29.0201,90.9126 29.1511,90.8536 29.2761,90.7646 C29.4011,90.6746 29.5201,90.5806 29.6331,90.4826 L31.5841,88.7876 L32.0931,89.3736 L29.9501,91.2356 C29.7341,91.4236 29.5181,91.5536 29.3021,91.6266 C29.0851,91.6996 28.8711,91.7226 28.6581,91.6956 C28.4461,91.6696 28.2401,91.5946 28.0401,91.4726 C27.8401,91.3496 27.6501,91.1856 27.4721,90.9786 C27.2921,90.7716 27.1551,90.5616 27.0621,90.3466 C26.9691,90.1316 26.9241,89.9166 26.9271,89.7026 C26.9301,89.4886 26.9821,89.2796 27.0851,89.0756 C27.1871,88.8716 27.3471,88.6756 27.5621,88.4876 L29.7051,86.6256 Z" id="Fill-35" fill="#000000" mask="url(#mask-2)"></path><path d="M31.5801,92.9996 C31.4661,93.1256 31.3911,93.2526 31.3521,93.3806 C31.3151,93.5086 31.3091,93.6356 31.3351,93.7616 C31.3601,93.8876 31.4111,94.0096 31.4871,94.1256 C31.5631,94.2416 31.6591,94.3536 31.7761,94.4586 C31.9021,94.5726 32.0221,94.6546 32.1391,94.7066 C32.2541,94.7576 32.3601,94.7856 32.4571,94.7896 C32.5541,94.7936 32.6421,94.7766 32.7211,94.7386 C32.8001,94.7016 32.8661,94.6516 32.9221,94.5906 C33.0361,94.4646 33.0921,94.3466 33.0891,94.2346 C33.0861,94.1236 33.0621,94.0246 33.0171,93.9386 C32.9391,93.7906 32.8401,93.6266 32.7201,93.4476 C32.6001,93.2696 32.4531,93.0466 32.2821,92.7796 C32.1741,92.6146 32.1001,92.4606 32.0601,92.3146 C32.0211,92.1706 32.0071,92.0366 32.0181,91.9126 C32.0301,91.7896 32.0611,91.6756 32.1131,91.5716 C32.1661,91.4686 32.2301,91.3726 32.3091,91.2866 C32.4581,91.1216 32.6231,91.0096 32.8021,90.9496 C32.9801,90.8916 33.1631,90.8736 33.3491,90.8956 C33.5341,90.9196 33.7171,90.9776 33.8961,91.0686 C34.0751,91.1616 34.2381,91.2736 34.3861,91.4076 C34.5581,91.5626 34.7001,91.7316 34.8111,91.9136 C34.9231,92.0966 34.9961,92.2836 35.0311,92.4776 C35.0651,92.6706 35.0581,92.8626 35.0071,93.0546 C34.9561,93.2456 34.8531,93.4286 34.6981,93.6006 L34.1221,93.0786 C34.2991,92.8536 34.3611,92.6386 34.3111,92.4346 C34.2621,92.2296 34.1381,92.0366 33.9371,91.8566 C33.8701,91.7956 33.7951,91.7396 33.7121,91.6896 C33.6291,91.6396 33.5431,91.6036 33.4561,91.5836 C33.3681,91.5626 33.2801,91.5626 33.1911,91.5836 C33.1031,91.6036 33.0211,91.6556 32.9461,91.7386 C32.8411,91.8556 32.7951,91.9796 32.8071,92.1106 C32.8191,92.2426 32.8681,92.3776 32.9551,92.5176 C32.9641,92.5306 33.0011,92.5886 33.0641,92.6876 C33.1281,92.7866 33.1991,92.8976 33.2791,93.0206 C33.3581,93.1426 33.4361,93.2616 33.5131,93.3776 C33.5891,93.4936 33.6431,93.5776 33.6751,93.6296 C33.7511,93.7606 33.8041,93.8916 33.8301,94.0206 C33.8571,94.1516 33.8641,94.2786 33.8501,94.4026 C33.8351,94.5266 33.8021,94.6446 33.7511,94.7536 C33.6991,94.8626 33.6341,94.9606 33.5571,95.0466 C33.3901,95.2306 33.2101,95.3536 33.0171,95.4166 C32.8231,95.4786 32.6271,95.4966 32.4301,95.4686 C32.2311,95.4396 32.0371,95.3746 31.8461,95.2706 C31.6541,95.1676 31.4771,95.0426 31.3141,94.8956 C31.1271,94.7256 30.9721,94.5426 30.8471,94.3466 C30.7231,94.1506 30.6431,93.9486 30.6051,93.7426 C30.5691,93.5366 30.5811,93.3256 30.6431,93.1096 C30.7031,92.8946 30.8241,92.6836 31.0041,92.4786 L31.5801,92.9996 Z" id="Fill-36" fill="#000000" mask="url(#mask-2)"></path><polygon id="Fill-37" fill="#000000" mask="url(#mask-2)" points="36.8096 93.5728 37.4296 94.0408 34.7576 97.5808 34.1376 97.1128"></polygon><polygon id="Fill-38" fill="#000000" mask="url(#mask-2)" points="38.7393 95.0172 39.4373 95.4482 39.4453 99.2922 39.4563 99.2992 41.1723 96.5182 41.8013 96.9062 39.4713 100.6812 38.7743 100.2502 38.7673 96.4142 38.7523 96.4052 37.0403 99.1812 36.4103 98.7922"></polygon><polygon id="Fill-39" fill="#000000" mask="url(#mask-2)" points="43.2227 97.648 46.1217 98.986 45.8407 99.595 43.6467 98.583 43.1607 99.637 45.1907 100.575 44.9247 101.15 42.8947 100.213 42.3507 101.392 44.5837 102.422 44.3037 103.032 41.3647 101.676"></polygon><path d="M46.9883,102.4566 C46.9353,102.6176 46.9183,102.7646 46.9353,102.8966 C46.9533,103.0286 46.9993,103.1466 47.0733,103.2526 C47.1483,103.3576 47.2443,103.4476 47.3603,103.5226 C47.4773,103.5986 47.6103,103.6606 47.7603,103.7096 C47.9223,103.7636 48.0653,103.7896 48.1923,103.7896 C48.3183,103.7896 48.4263,103.7716 48.5163,103.7356 C48.6073,103.6996 48.6803,103.6486 48.7373,103.5826 C48.7943,103.5166 48.8353,103.4436 48.8613,103.3646 C48.9143,103.2036 48.9163,103.0726 48.8693,102.9726 C48.8213,102.8716 48.7593,102.7906 48.6823,102.7306 C48.5513,102.6266 48.3943,102.5186 48.2123,102.4026 C48.0293,102.2886 47.8053,102.1446 47.5403,101.9706 C47.3743,101.8636 47.2443,101.7526 47.1493,101.6366 C47.0543,101.5196 46.9873,101.4026 46.9473,101.2856 C46.9073,101.1676 46.8903,101.0516 46.8953,100.9356 C46.9013,100.8186 46.9223,100.7066 46.9583,100.5966 C47.0273,100.3836 47.1323,100.2146 47.2713,100.0876 C47.4113,99.9616 47.5703,99.8706 47.7503,99.8156 C47.9283,99.7616 48.1193,99.7396 48.3203,99.7516 C48.5213,99.7636 48.7163,99.7996 48.9053,99.8616 C49.1253,99.9346 49.3233,100.0306 49.5003,100.1516 C49.6763,100.2726 49.8193,100.4146 49.9283,100.5766 C50.0393,100.7396 50.1103,100.9186 50.1413,101.1136 C50.1743,101.3106 50.1533,101.5186 50.0813,101.7376 L49.3423,101.4966 C49.4123,101.2186 49.3833,100.9956 49.2553,100.8296 C49.1263,100.6636 48.9333,100.5376 48.6773,100.4546 C48.5923,100.4256 48.5003,100.4056 48.4033,100.3936 C48.3073,100.3816 48.2153,100.3846 48.1273,100.4006 C48.0383,100.4176 47.9583,100.4536 47.8853,100.5086 C47.8133,100.5626 47.7593,100.6436 47.7243,100.7496 C47.6753,100.8986 47.6833,101.0316 47.7483,101.1456 C47.8123,101.2616 47.9133,101.3646 48.0483,101.4576 C48.0623,101.4666 48.1193,101.5036 48.2173,101.5676 C48.3163,101.6336 48.4263,101.7056 48.5493,101.7846 C48.6713,101.8636 48.7913,101.9416 48.9073,102.0176 C49.0243,102.0926 49.1073,102.1466 49.1583,102.1816 C49.2813,102.2696 49.3823,102.3676 49.4603,102.4766 C49.5373,102.5846 49.5943,102.6976 49.6333,102.8166 C49.6703,102.9356 49.6863,103.0566 49.6843,103.1776 C49.6813,103.2986 49.6623,103.4136 49.6263,103.5236 C49.5493,103.7606 49.4333,103.9456 49.2833,104.0816 C49.1323,104.2176 48.9603,104.3126 48.7673,104.3666 C48.5753,104.4216 48.3713,104.4406 48.1533,104.4246 C47.9363,104.4076 47.7243,104.3646 47.5153,104.2966 C47.2753,104.2176 47.0583,104.1136 46.8663,103.9846 C46.6733,103.8566 46.5173,103.7056 46.4003,103.5316 C46.2823,103.3576 46.2083,103.1606 46.1763,102.9386 C46.1443,102.7166 46.1693,102.4756 46.2503,102.2146 L46.9883,102.4566 Z" id="Fill-40" fill="#000000" mask="url(#mask-2)"></path><path d="M51.8359,103.8629 C51.8029,104.0299 51.8019,104.1769 51.8349,104.3059 C51.8679,104.4359 51.9279,104.5489 52.0139,104.6439 C52.0999,104.7399 52.2049,104.8179 52.3299,104.8799 C52.4549,104.9409 52.5949,104.9869 52.7489,105.0179 C52.9149,105.0519 53.0619,105.0609 53.1869,105.0469 C53.3129,105.0319 53.4179,105.0019 53.5029,104.9559 C53.5889,104.9099 53.6549,104.8499 53.7039,104.7779 C53.7529,104.7059 53.7849,104.6289 53.8019,104.5479 C53.8359,104.3809 53.8229,104.2509 53.7639,104.1559 C53.7049,104.0619 53.6339,103.9889 53.5519,103.9389 C53.4079,103.8499 53.2399,103.7599 53.0449,103.6679 C52.8509,103.5759 52.6109,103.4589 52.3269,103.3159 C52.1499,103.2289 52.0089,103.1339 51.8999,103.0299 C51.7929,102.9259 51.7129,102.8169 51.6589,102.7049 C51.6059,102.5919 51.5749,102.4789 51.5659,102.3629 C51.5589,102.2479 51.5659,102.1329 51.5889,102.0189 C51.6339,101.7999 51.7179,101.6199 51.8419,101.4769 C51.9659,101.3359 52.1129,101.2269 52.2849,101.1519 C52.4559,101.0769 52.6429,101.0339 52.8439,101.0219 C53.0449,101.0089 53.2429,101.0229 53.4379,101.0629 C53.6649,101.1089 53.8729,101.1819 54.0629,101.2819 C54.2509,101.3819 54.4099,101.5059 54.5379,101.6539 C54.6659,101.8019 54.7579,101.9719 54.8119,102.1629 C54.8659,102.3529 54.8699,102.5619 54.8239,102.7899 L54.0639,102.6349 C54.0999,102.3509 54.0449,102.1339 53.8979,101.9829 C53.7509,101.8339 53.5449,101.7309 53.2809,101.6769 C53.1919,101.6599 53.0989,101.6499 53.0019,101.6499 C52.9039,101.6489 52.8139,101.6619 52.7279,101.6889 C52.6419,101.7169 52.5659,101.7599 52.4999,101.8239 C52.4349,101.8859 52.3909,101.9719 52.3689,102.0819 C52.3379,102.2359 52.3599,102.3669 52.4389,102.4729 C52.5159,102.5799 52.6269,102.6719 52.7729,102.7479 C52.7879,102.7549 52.8489,102.7849 52.9539,102.8379 C53.0599,102.8909 53.1779,102.9499 53.3079,103.0139 C53.4389,103.0789 53.5659,103.1419 53.6909,103.2029 C53.8159,103.2639 53.9049,103.3089 53.9589,103.3369 C54.0919,103.4099 54.2029,103.4969 54.2929,103.5939 C54.3829,103.6929 54.4529,103.7999 54.5039,103.9139 C54.5549,104.0269 54.5859,104.1439 54.5979,104.2649 C54.6089,104.3849 54.6039,104.5029 54.5799,104.6169 C54.5299,104.8599 54.4389,105.0579 54.3049,105.2109 C54.1699,105.3629 54.0109,105.4769 53.8259,105.5529 C53.6419,105.6309 53.4399,105.6739 53.2229,105.6809 C53.0059,105.6899 52.7889,105.6739 52.5739,105.6299 C52.3269,105.5789 52.0999,105.5019 51.8929,105.3959 C51.6859,105.2909 51.5139,105.1589 51.3769,104.9999 C51.2399,104.8419 51.1439,104.6529 51.0859,104.4359 C51.0279,104.2199 51.0239,103.9769 51.0749,103.7089 L51.8359,103.8629 Z" id="Fill-41" fill="#000000" mask="url(#mask-2)"></path><polygon id="Fill-42" fill="#000000" mask="url(#mask-2)" points="59.0576 101.9342 62.2496 102.0122 62.2336 102.6832 59.8176 102.6232 59.7886 103.7862 62.0246 103.8402 62.0086 104.4742 59.7736 104.4182 59.7416 105.7172 62.2016 105.7772 62.1846 106.4482 58.9486 106.3692"></polygon><polygon id="Fill-43" fill="#000000" mask="url(#mask-2)" points="63.5967 101.9732 64.4137 101.8962 66.7347 104.9612 66.7467 104.9592 66.4427 101.7062 67.1787 101.6372 67.5917 106.0542 66.7757 106.1302 64.4607 103.0712 64.4427 103.0732 64.7457 106.3202 64.0107 106.3892"></polygon><polygon id="Fill-44" fill="#000000" mask="url(#mask-2)" points="68.3594 101.4556 71.8714 100.7026 72.0114 101.3586 70.6324 101.6546 71.4224 105.3356 70.6634 105.4986 69.8734 101.8166 68.5004 102.1116"></polygon><polygon id="Fill-45" fill="#000000" mask="url(#mask-2)" points="73.0215 100.3707 76.0495 99.3587 76.2625 99.9947 73.9705 100.7607 74.3385 101.8627 76.4595 101.1537 76.6615 101.7547 74.5405 102.4637 74.9515 103.6947 77.2845 102.9157 77.4975 103.5517 74.4275 104.5777"></polygon><path d="M78.8936,100.3394 L80.0446,99.7954 C80.2696,99.6894 80.4146,99.5554 80.4806,99.3944 C80.5456,99.2324 80.5286,99.0444 80.4276,98.8314 C80.3676,98.7044 80.2996,98.6094 80.2236,98.5464 C80.1486,98.4844 80.0676,98.4444 79.9806,98.4314 C79.8936,98.4174 79.8046,98.4224 79.7136,98.4474 C79.6226,98.4724 79.5316,98.5054 79.4416,98.5484 L78.3016,99.0874 L78.8936,100.3394 Z M77.3296,98.8464 L79.2446,97.9414 C79.6856,97.7324 80.0626,97.6714 80.3726,97.7574 C80.6846,97.8444 80.9206,98.0584 81.0816,98.3994 C81.1716,98.5894 81.2186,98.7614 81.2216,98.9124 C81.2246,99.0654 81.2066,99.1964 81.1686,99.3094 C81.1296,99.4214 81.0816,99.5114 81.0256,99.5794 C80.9676,99.6484 80.9246,99.6954 80.8966,99.7234 L80.9026,99.7344 C80.9656,99.7134 81.0396,99.7014 81.1226,99.6984 C81.2066,99.6954 81.2926,99.7134 81.3836,99.7504 C81.4746,99.7874 81.5646,99.8494 81.6536,99.9354 C81.7426,100.0224 81.8246,100.1434 81.8986,100.3004 C82.0096,100.5364 82.1286,100.7424 82.2556,100.9184 C82.3816,101.0954 82.5026,101.2064 82.6166,101.2534 L81.8636,101.6094 C81.7706,101.5474 81.6946,101.4664 81.6356,101.3664 C81.5776,101.2664 81.5246,101.1664 81.4786,101.0694 C81.3916,100.8864 81.3056,100.7334 81.2206,100.6104 C81.1346,100.4884 81.0416,100.3984 80.9406,100.3374 C80.8386,100.2774 80.7266,100.2524 80.6046,100.2594 C80.4816,100.2674 80.3396,100.3094 80.1786,100.3854 L79.1456,100.8734 L79.9256,102.5254 L79.2236,102.8564 L77.3296,98.8464 Z" id="Fill-46" fill="#000000" mask="url(#mask-2)"></path><path d="M83.6299,97.9508 L84.5909,97.3438 C84.6639,97.2978 84.7339,97.2388 84.7969,97.1698 C84.8599,97.0998 84.9099,97.0208 84.9449,96.9318 C84.9799,96.8448 84.9919,96.7488 84.9839,96.6438 C84.9739,96.5398 84.9319,96.4288 84.8569,96.3088 C84.7779,96.1858 84.6969,96.0968 84.6109,96.0378 C84.5259,95.9788 84.4379,95.9448 84.3489,95.9348 C84.2589,95.9258 84.1699,95.9358 84.0819,95.9678 C83.9939,95.9988 83.9059,96.0418 83.8179,96.0968 L82.8469,96.7108 L83.6299,97.9508 Z M81.8519,96.5898 L83.5069,95.5448 C83.7729,95.3768 84.0139,95.2778 84.2309,95.2498 C84.4469,95.2208 84.6379,95.2348 84.8019,95.2928 C84.9659,95.3498 85.1079,95.4368 85.2279,95.5538 C85.3469,95.6688 85.4429,95.7838 85.5159,95.8998 C85.5889,96.0148 85.6509,96.1508 85.7029,96.3058 C85.7549,96.4628 85.7729,96.6268 85.7539,96.8008 C85.7359,96.9728 85.6669,97.1498 85.5459,97.3318 C85.4259,97.5138 85.2329,97.6878 84.9659,97.8558 L83.9679,98.4858 L84.8769,99.9258 L84.2209,100.3408 L81.8519,96.5898 Z" id="Fill-47" fill="#000000" mask="url(#mask-2)"></path><path d="M87.7393,95.026 L88.7263,94.221 C88.9193,94.064 89.0273,93.899 89.0523,93.727 C89.0773,93.554 89.0153,93.377 88.8663,93.193 C88.7773,93.085 88.6883,93.008 88.6003,92.965 C88.5113,92.922 88.4243,92.905 88.3363,92.912 C88.2493,92.92 88.1643,92.946 88.0813,92.992 C87.9983,93.039 87.9183,93.092 87.8423,93.156 L86.8643,93.953 L87.7393,95.026 Z M85.8613,93.952 L87.5043,92.613 C87.8823,92.304 88.2333,92.155 88.5553,92.164 C88.8793,92.173 89.1593,92.324 89.3973,92.616 C89.5313,92.78 89.6173,92.935 89.6573,93.082 C89.6963,93.228 89.7113,93.361 89.7003,93.479 C89.6893,93.597 89.6653,93.696 89.6263,93.776 C89.5873,93.856 89.5563,93.913 89.5363,93.946 L89.5443,93.956 C89.6003,93.921 89.6693,93.891 89.7493,93.868 C89.8293,93.845 89.9183,93.841 90.0153,93.856 C90.1123,93.87 90.2153,93.908 90.3213,93.97 C90.4283,94.033 90.5373,94.131 90.6473,94.266 C90.8113,94.468 90.9763,94.64 91.1423,94.781 C91.3073,94.921 91.4513,95.001 91.5733,95.018 L90.9273,95.545 C90.8223,95.507 90.7293,95.447 90.6483,95.364 C90.5663,95.281 90.4923,95.197 90.4243,95.114 C90.2963,94.957 90.1763,94.829 90.0633,94.73 C89.9513,94.632 89.8393,94.566 89.7253,94.533 C89.6133,94.5 89.4983,94.501 89.3813,94.538 C89.2633,94.574 89.1363,94.649 88.9983,94.761 L88.1123,95.483 L89.2663,96.899 L88.6653,97.389 L85.8613,93.952 Z" id="Fill-48" fill="#000000" mask="url(#mask-2)"></path><polygon id="Fill-49" fill="#000000" mask="url(#mask-2)" points="89.7227 90.6246 90.2767 90.0806 93.3847 93.2446 92.8307 93.7886"></polygon><path d="M94.0332,90.4263 C94.1622,90.5363 94.2912,90.6083 94.4202,90.6423 C94.5492,90.6763 94.6772,90.6783 94.8022,90.6493 C94.9282,90.6203 95.0472,90.5663 95.1612,90.4873 C95.2752,90.4063 95.3842,90.3073 95.4852,90.1873 C95.5952,90.0583 95.6752,89.9353 95.7222,89.8183 C95.7712,89.7013 95.7962,89.5943 95.7972,89.4973 C95.7982,89.4013 95.7782,89.3133 95.7382,89.2363 C95.6982,89.1573 95.6472,89.0923 95.5842,89.0383 C95.4552,88.9283 95.3352,88.8763 95.2232,88.8813 C95.1122,88.8883 95.0142,88.9143 94.9302,88.9623 C94.7842,89.0443 94.6232,89.1483 94.4482,89.2743 C94.2732,89.3993 94.0542,89.5523 93.7932,89.7313 C93.6312,89.8443 93.4782,89.9223 93.3352,89.9653 C93.1922,90.0093 93.0582,90.0273 92.9342,90.0193 C92.8102,90.0113 92.6952,89.9833 92.5912,89.9343 C92.4852,89.8853 92.3882,89.8223 92.3002,89.7473 C92.1302,89.6033 92.0122,89.4423 91.9492,89.2643 C91.8852,89.0873 91.8622,88.9053 91.8802,88.7193 C91.8962,88.5323 91.9492,88.3493 92.0362,88.1673 C92.1232,87.9863 92.2312,87.8193 92.3602,87.6673 C92.5112,87.4913 92.6762,87.3443 92.8542,87.2283 C93.0332,87.1113 93.2192,87.0313 93.4102,86.9913 C93.6022,86.9513 93.7952,86.9533 93.9882,86.9983 C94.1812,87.0433 94.3662,87.1413 94.5432,87.2923 L94.0382,87.8833 C93.8072,87.7133 93.5912,87.6553 93.3882,87.7113 C93.1852,87.7673 92.9972,87.8983 92.8222,88.1033 C92.7622,88.1723 92.7102,88.2483 92.6622,88.3333 C92.6142,88.4183 92.5812,88.5043 92.5632,88.5923 C92.5452,88.6803 92.5482,88.7683 92.5712,88.8563 C92.5942,88.9443 92.6482,89.0243 92.7332,89.0973 C92.8532,89.1983 92.9782,89.2413 93.1092,89.2253 C93.2402,89.2093 93.3742,89.1553 93.5112,89.0663 C93.5242,89.0563 93.5802,89.0183 93.6782,88.9513 C93.7752,88.8853 93.8842,88.8103 94.0042,88.7273 C94.1242,88.6443 94.2412,88.5633 94.3542,88.4843 C94.4692,88.4043 94.5512,88.3473 94.6012,88.3143 C94.7302,88.2343 94.8592,88.1783 94.9892,88.1473 C95.1192,88.1153 95.2462,88.1063 95.3702,88.1163 C95.4942,88.1273 95.6122,88.1563 95.7232,88.2053 C95.8342,88.2543 95.9332,88.3163 96.0222,88.3913 C96.2112,88.5523 96.3402,88.7293 96.4082,88.9203 C96.4752,89.1123 96.4982,89.3073 96.4762,89.5053 C96.4532,89.7033 96.3932,89.9013 96.2962,90.0943 C96.1982,90.2883 96.0782,90.4693 95.9352,90.6363 C95.7712,90.8283 95.5942,90.9893 95.4012,91.1193 C95.2092,91.2493 95.0102,91.3353 94.8042,91.3783 C94.5992,91.4213 94.3872,91.4143 94.1712,91.3603 C93.9532,91.3053 93.7392,91.1913 93.5282,91.0173 L94.0332,90.4263 Z" id="Fill-50" fill="#000000" mask="url(#mask-2)"></path><polygon id="Fill-51" fill="#000000" mask="url(#mask-2)" points="94.4424 85.2398 96.2244 82.5898 96.7814 82.9638 95.4324 84.9688 96.3964 85.6178 97.6444 83.7608 98.1714 84.1148 96.9224 85.9708 98.0004 86.6958 99.3734 84.6538 99.9294 85.0278 98.1244 87.7148"></polygon><path d="M61.5557,118.2164 L66.0197,120.9404 L70.0317,117.5894 L74.8477,119.6194 L78.3127,115.7064 L83.3787,116.9904 L86.2177,112.6024 L91.4177,113.1124 L93.5697,108.3484 L98.7897,108.0784 L100.2077,103.0474 L105.3317,102.0054 L105.9907,96.8204 L110.9017,95.0304 L110.7817,89.8044 L115.3717,87.3044 L114.4717,82.1554 L118.6347,78.9944 L116.9727,74.0384 L120.6157,70.2894 L118.2297,65.6374 L121.2747,61.3864 L118.2297,57.1364 L120.6157,52.4844 L116.9727,48.7354 L118.6357,43.7784 L114.4727,40.6194 L115.3717,35.4714 L110.7827,32.9704 L110.9027,27.7444 L105.9917,25.9544 L105.3337,20.7694 L100.2107,19.7284 L98.7917,14.6964 L93.5717,14.4264 L91.4197,9.6614 L86.2187,10.1724 L83.3807,5.7834 L78.3137,7.0674 L74.8487,3.1534 L70.0317,5.1844 L66.0197,1.8334 L61.5557,4.5574 L57.0927,1.8334 L53.0807,5.1844 L48.2647,3.1534 L44.7997,7.0674 L39.7327,5.7824 L36.8947,10.1714 L31.6947,9.6604 L29.5427,14.4244 L24.3237,14.6954 L22.9047,19.7264 L17.7807,20.7674 L17.1217,25.9524 L12.2107,27.7424 L12.3307,32.9684 L7.7407,35.4694 L8.6397,40.6184 L4.4767,43.7784 L6.1397,48.7354 L2.4967,52.4844 L4.8827,57.1364 L1.8377,61.3864 L4.8827,65.6374 L2.4967,70.2894 L6.1397,74.0374 L4.4767,78.9934 L8.6397,82.1544 L7.7397,87.3024 L12.3297,89.8024 L12.2097,95.0294 L17.1207,96.8184 L17.7787,102.0044 L22.9017,103.0454 L24.3207,108.0764 L29.5397,108.3474 L31.6917,113.1124 L36.8937,112.6014 L39.7317,116.9894 L44.7987,115.7064 L48.2637,119.6194 L53.0807,117.5894 L57.0927,120.9404 L61.5557,118.2164 Z M56.9577,122.7744 L52.8217,119.3204 L47.8557,121.4124 L44.2837,117.3784 L39.0597,118.7024 L36.1337,114.1774 L30.7717,114.7034 L28.5537,109.7924 L23.1737,109.5144 L21.7097,104.3284 L16.4307,103.2544 L15.7537,97.9094 L10.6907,96.0664 L10.8147,90.6794 L6.0827,88.1014 L7.0107,82.7934 L2.7187,79.5344 L4.4327,74.4264 L0.6787,70.5614 L3.1367,65.7664 L-0.0003,61.3864 L3.1367,57.0074 L0.6787,52.2124 L4.4327,48.3464 L2.7187,43.2374 L7.0107,39.9784 L6.0837,34.6704 L10.8157,32.0914 L10.6917,26.7054 L15.7547,24.8614 L16.4327,19.5154 L21.7127,18.4434 L23.1747,13.2574 L28.5567,12.9794 L30.7727,8.0694 L36.1347,8.5954 L39.0607,4.0704 L44.2847,5.3954 L47.8567,1.3614 L52.8217,3.4534 L56.9557,-0.0006 L61.5557,2.8074 L66.1557,-0.0006 L70.2907,3.4534 L75.2567,1.3614 L78.8287,5.3954 L84.0527,4.0704 L86.9787,8.5964 L92.3417,8.0704 L94.5577,12.9814 L99.9387,13.2594 L101.4027,18.4454 L106.6817,19.5194 L107.3587,24.8624 L112.4217,26.7074 L112.2977,32.0934 L117.0287,34.6724 L116.1017,39.9794 L120.3937,43.2374 L118.6797,48.3464 L122.4337,52.2124 L119.9757,57.0074 L123.1127,61.3864 L119.9757,65.7664 L122.4337,70.5614 L118.6797,74.4274 L120.3927,79.5354 L116.1007,82.7944 L117.0287,88.1034 L112.2967,90.6814 L112.4187,96.0684 L107.3577,97.9124 L106.6797,103.2574 L101.3997,104.3304 L99.9367,109.5164 L94.5557,109.7934 L92.3397,114.7044 L86.9777,114.1784 L84.0507,118.7034 L78.8277,117.3784 L75.2557,121.4124 L70.2907,119.3204 L66.1557,122.7744 L61.5557,119.9664 L56.9577,122.7744 Z" id="Fill-52" fill="#000000" mask="url(#mask-2)"></path></g></g></g></g></g></g></svg> 