<?xml version="1.0" encoding="UTF-8"?> <svg xmlns="http://www.w3.org/2000/svg" id="Layer_2" viewBox="0 0 100.5 100.5"><defs><style>.cls-1{fill:none;}.cls-1,.cls-2,.cls-3{stroke-width:0px;}.cls-3{fill:#c597fe;}</style></defs><g id="Layer_1-2"><path class="cls-3" d="m39.17,97.19H10.45c-4.14,0-7.5-3.36-7.5-7.5v-19.46c0-4.14,3.36-7.5,7.5-7.5h28.72c4.14,0,7.5,3.36,7.5,7.5v19.46c0,4.14-3.36,7.5-7.5,7.5Zm-27.22-9h25.72v-16.46H11.95v16.46Z"></path><path class="cls-3" d="m90.05,97.19h-28.73c-4.14,0-7.5-3.36-7.5-7.5v-19.46c0-4.14,3.36-7.5,7.5-7.5h28.73c4.14,0,7.5,3.36,7.5,7.5v19.46c0,4.14-3.36,7.5-7.5,7.5Zm-27.23-9h25.73v-16.46h-25.73v16.46Z"></path><path class="cls-2" d="m49.58,60.66c-1.95,0-3.89-.57-5.55-1.72-2.07-1.43-4.05-2.76-5.93-4.03-12.37-8.3-22.13-14.86-22.13-28.74,0-9.27,5.48-18.07,13.34-21.4,6.71-2.85,14.19-1.45,20.92,3.81,6.62-4.96,14.14-6.14,21.04-3.16,7.86,3.38,13.14,11.72,13.14,20.75,0,12.82-13,21.68-28.05,31.93l-1.3.88c-1.64,1.12-3.56,1.68-5.47,1.68Zm-13.14-48.35c-1.18,0-2.39.23-3.62.75-4.55,1.93-7.86,7.45-7.86,13.12,0,8.72,5.56,12.82,18.15,21.27,1.92,1.29,3.94,2.64,6.04,4.1.25.17.57.18.82,0l1.3-.89c12.94-8.82,24.12-16.43,24.12-24.49,0-5.48-3.09-10.5-7.7-12.48-4.45-1.92-9.42-.6-13.98,3.71-2.01,1.89-5.12,1.87-7.1-.04h0c-2.57-2.49-6.2-5.05-10.18-5.05Z"></path><path class="cls-1" d="m100.5,100.5H0V0h100.5v100.5Zm-100-.5h99.5V.5H.5v99.5Z"></path></g></svg> 