<?xml version="1.0" encoding="UTF-8"?> <svg xmlns="http://www.w3.org/2000/svg" width="73" height="54" viewBox="0 0 73 54" fill="none"><g clip-path="url(#clip0_14354_4919)"><path fill-rule="evenodd" clip-rule="evenodd" d="M30.1201 2.95068H34.9601C48.7701 2.95068 59.9601 14.1407 59.9601 27.9507C59.9601 41.7607 48.7701 52.9507 34.9601 52.9507H30.1201C16.3101 52.9507 5.12012 41.7607 5.12012 27.9507C5.12012 14.1407 16.3101 2.95068 30.1201 2.95068Z" fill="#FFEA97"></path><path d="M45.9094 36.8307C46.0194 36.6907 46.0694 36.7107 46.0594 36.8907C46.0494 37.0707 45.9094 37.1307 45.8094 37.1007C45.7294 37.0107 45.7494 36.9607 45.9094 36.8407V36.8307ZM44.4794 39.6307C44.5061 39.564 44.5127 39.5473 44.4994 39.5807L44.4394 39.7407L44.4794 39.6407V39.6307ZM45.0294 37.9307L45.0494 37.8807L45.0094 37.9807C44.9894 38.0307 45.0094 37.9807 45.0294 37.9307ZM44.0394 40.0007C44.1794 39.9407 44.1794 39.9407 44.1894 40.0607C44.1894 40.1807 44.0394 40.3007 43.9394 40.2607C43.8194 40.2707 43.8994 40.0607 44.0394 40.0007ZM44.9494 37.2407C44.9694 37.1907 45.0194 37.2107 45.0194 37.2107C45.0194 37.2107 45.0294 37.234 45.0494 37.2807C45.0494 37.2807 45.0294 37.3307 44.9794 37.3107L44.9494 37.2407ZM44.8394 37.0807C44.9594 37.0707 44.9894 37.1407 44.8994 37.2207C44.8594 37.3207 44.8094 37.3007 44.7594 37.2907C44.6794 37.2007 44.7194 37.1007 44.8394 37.0807ZM44.2894 36.8707C44.3894 36.9107 44.4194 36.9807 44.2894 37.1707C44.1994 37.2507 44.1794 37.3107 44.1694 37.1807C44.1694 37.0107 44.2394 36.8507 44.2894 36.8707ZM30.1194 38.8607C30.1594 38.6507 30.1794 38.1507 30.2394 37.8507C30.3094 37.4307 30.3494 37.3007 30.2594 37.1707C30.2294 37.0607 30.2394 37.0107 30.2394 37.0107C30.2994 36.9707 30.4394 36.5307 30.6594 35.8107C31.1694 34.4607 31.3794 34.1607 31.3794 33.9007C31.3794 33.9007 31.3994 33.7507 31.4394 33.6707C31.4294 33.4507 31.4194 33.3807 31.2694 33.4107C31.1994 33.4307 31.2194 33.3807 31.2494 33.3407C31.3194 33.2107 31.2494 33.1207 31.1194 33.0407C31.0694 33.0107 31.0494 32.9407 31.0294 32.8707C31.0094 32.8007 30.9594 32.7707 30.8694 32.7207C30.7494 32.7107 30.6594 32.6607 30.6094 32.6307C30.4694 32.5507 30.3194 32.2807 30.2894 32.1207C30.2894 32.1207 30.2694 32.0507 30.2394 32.0907C30.2394 32.0907 30.1694 31.9907 30.1394 31.8407C30.0694 31.6607 30.0494 31.5907 29.9894 31.6807C29.9094 31.7007 29.9094 31.7007 29.8694 31.6807C29.7194 31.5207 29.6894 31.3707 29.7594 31.2707C29.7594 31.2707 29.7794 31.1407 29.7294 31.1207C29.6994 30.9707 29.3094 30.4907 29.2694 30.4607L29.2994 30.4107C29.2994 30.4107 29.2594 30.3807 29.2094 30.3507C29.1694 30.3207 29.0794 30.2607 29.0694 30.1807C29.0694 30.1807 29.0427 30.1873 28.9894 30.2007C28.9594 30.2507 28.8794 30.2707 28.8394 30.3207C28.7594 30.3407 28.6494 30.4107 28.5394 30.4907C28.4694 30.5907 28.4294 30.5607 28.3794 30.5407C28.3694 30.4607 28.3294 30.4307 28.0494 30.5507C27.8494 30.5707 27.3194 31.3107 26.9594 32.3107C26.8194 32.6107 26.6794 33.0507 26.5894 33.3007C26.5194 33.4807 26.4494 33.8107 26.4094 33.9307C26.3694 34.0507 26.3794 34.1907 26.3594 34.2507C26.3394 34.3107 26.3594 34.3907 26.3294 34.5107C26.3494 34.6507 26.2394 34.9607 26.0394 35.6107C25.8294 36.5107 25.6994 37.2307 25.5494 38.4707C25.4394 39.8207 25.3994 40.0707 25.3394 40.4007C25.2694 40.7507 25.2094 41.0707 25.1494 41.3607C25.1094 41.5307 25.0794 41.6907 25.0394 41.8507C24.9894 42.0907 24.9394 42.3207 24.8694 42.5407C24.6194 43.4207 24.4494 44.0707 24.3594 44.5407C24.1794 45.4807 24.2094 45.7407 24.1994 45.7807C24.1694 45.8807 24.1494 46.3407 24.2594 46.7307C24.3494 47.1307 24.5394 47.4807 24.6994 47.6507C24.7494 47.7007 24.7894 47.7407 24.8194 47.7607L24.8494 47.7907H24.8594C24.8594 47.7907 24.8594 47.8307 24.9194 47.7607C25.1794 47.5007 25.3294 47.3407 25.4694 47.2107C25.6194 47.0607 25.8394 46.8407 26.3394 46.3407C26.3394 46.3507 26.3594 46.3707 26.3694 46.3907C26.3694 46.3907 26.3894 46.4407 26.4594 46.5007C26.4694 46.5207 26.4894 46.5307 26.4994 46.5607C26.4894 46.5807 26.4594 46.5607 26.4294 46.5507C26.3794 46.5307 26.3394 46.4907 26.2894 46.4607C26.2794 46.4507 26.2094 46.4007 26.2694 46.4107C26.2994 46.4107 26.3294 46.4307 26.3594 46.4407C26.4194 46.4707 26.4894 46.4707 26.5494 46.4807C26.5794 46.4807 26.6094 46.4907 26.6394 46.5007H26.6794C26.5994 46.6507 26.5294 46.7807 26.4594 46.9107C26.1494 47.4607 25.8994 47.9107 25.6794 48.3007C25.7094 48.3007 25.7294 48.3007 25.7494 48.3107C25.9594 48.3407 26.2794 48.4407 26.4794 48.4607C26.6794 48.4607 26.8894 48.5807 27.0194 48.6107C27.1694 48.6107 27.4494 48.7907 29.0194 48.1107C29.5794 47.8507 30.2094 47.5107 30.7794 47.1607C31.2894 46.8607 31.7294 46.6007 31.9594 46.4607C32.1794 46.3307 32.7994 45.9607 33.1394 45.7607C33.2794 45.6307 33.3694 45.6407 33.4194 45.5507C33.4494 45.4907 33.4894 45.5307 33.4594 45.5907C33.4094 45.7007 33.5494 45.7307 33.6494 45.6807C33.6994 45.6607 33.7194 45.6907 33.6694 45.7207C33.6494 45.7407 33.6394 45.7607 33.6494 45.7807C33.7294 45.9407 33.7994 46.0907 33.8794 46.2607C34.0594 46.6407 34.2694 47.2107 34.3594 47.4107C34.4694 47.6707 34.5694 47.9207 34.6694 48.1707L34.9294 48.7607C35.0394 49.0007 35.1394 49.2307 35.2694 49.4807C35.7694 50.5307 36.3994 51.5207 37.0794 52.0007L37.3294 52.1807L37.3594 52.2007C37.3594 52.2007 37.3994 52.1207 37.4194 52.0807L37.5394 51.7907L37.7794 51.2207L38.0194 50.6607L38.1394 50.3907C38.1394 50.3907 38.1794 50.2807 38.1894 50.2707H38.2094L38.3694 50.4007C38.4594 50.4707 38.6394 50.5007 38.6594 50.6007C38.5394 50.6307 38.4294 50.6007 38.3294 50.5707C38.2794 50.5607 38.2294 50.5407 38.1894 50.5207C38.1694 50.5107 38.1494 50.5007 38.1494 50.4707C38.1694 50.4607 38.1894 50.4507 38.2094 50.4407C38.2894 50.4207 38.3694 50.4207 38.4294 50.4107C38.4794 50.4107 38.5294 50.4107 38.5894 50.4007C38.5994 50.4007 38.6094 50.3707 38.6194 50.4207L38.6394 50.6607C38.6494 50.7707 38.6594 50.8807 38.6694 51.0007C38.6794 51.1307 38.6994 51.3307 38.7294 51.5907C38.7394 51.7207 38.7594 51.8607 38.7694 52.0207C38.7894 52.1707 38.7994 52.4107 38.8294 52.3307C38.9394 52.3107 39.0894 52.3007 39.2494 52.2607C39.4994 52.2707 40.1194 51.9907 40.4494 51.7507C40.7794 51.4907 41.0994 51.0807 41.1594 51.0207C41.2694 50.8907 41.5294 50.5407 41.6994 50.2007C41.8894 49.7407 42.0094 49.6207 42.0594 49.5307C42.1394 49.4907 42.3194 49.2607 42.4594 49.0107C42.6294 48.6707 42.8294 48.3607 42.8294 48.3607C42.8494 48.3107 42.9794 48.0507 43.0694 47.7207C43.2161 47.3273 43.4561 46.814 43.7894 46.1807C44.1194 45.5807 44.3094 45.1707 44.3994 44.8407C44.6094 44.2507 44.6494 44.1407 44.7694 44.0107C44.9094 43.7007 45.4094 42.2507 45.4694 41.9607C45.5394 41.3707 45.8694 40.2907 46.3394 38.9507C46.4594 38.6307 46.5294 38.3007 46.5494 38.2507C46.5494 38.1307 46.5594 38.0707 46.6694 37.9307L46.8094 37.5607C46.7994 37.4407 46.8994 37.1707 46.9794 36.9607C47.1494 36.6607 47.1194 36.5907 47.0594 36.4507C47.0294 36.3807 46.9694 36.2407 46.9894 36.1807C47.0494 36.0207 46.9094 35.7907 46.6494 35.7007C46.5494 35.6607 46.4194 35.5607 46.3194 35.5207C46.2394 35.4307 46.1694 35.4607 46.0994 35.5007C46.0094 35.5907 45.9594 35.5707 45.9094 35.5507C45.8594 35.5307 45.7894 35.5707 45.7694 35.6207C45.6994 35.6507 45.6494 35.6407 45.5994 35.6207L45.5494 35.6007C45.4794 35.6307 45.4594 35.6907 45.4094 35.6707C45.3094 35.6307 44.8694 35.8907 44.7494 36.0807C44.6194 36.2707 44.4194 36.4907 44.3394 36.4007C44.2894 36.3807 44.2694 36.4307 44.2094 36.5907C44.1694 36.6973 44.1561 36.7307 44.1694 36.6907V36.5207L44.0194 36.6407C43.9494 36.6707 43.8594 36.7607 43.8394 36.8107C43.8194 36.8607 43.7794 36.9707 43.7294 36.9507C43.6794 36.9307 43.2894 37.4907 43.1494 37.8507C43.0694 38.0607 42.9794 38.1407 42.8894 38.2207C42.7494 38.2807 42.6594 38.3707 42.6394 38.4207C42.5994 38.5207 42.5194 38.7307 42.4094 38.8607C42.2794 39.0407 42.1694 39.3007 42.0994 39.6207C42.0194 39.8207 41.7094 40.7107 41.3594 41.5207C40.7894 42.8307 40.7394 42.9307 40.7094 43.2807C40.7094 43.5207 40.6494 43.6807 40.4194 44.1807C40.1694 44.7307 40.0094 45.0807 39.3894 46.0207C39.2994 46.1907 39.1694 46.4107 39.0294 46.6607C38.9994 46.6807 38.9694 46.7007 38.9494 46.7107C38.8994 46.7307 38.8694 46.7207 38.8494 46.7307C38.8194 46.7607 38.7794 46.7807 38.8294 46.8007C38.8094 46.8007 38.7894 46.8007 38.7794 46.8007C38.7594 46.8007 38.7394 46.8007 38.7194 46.8007C38.7094 46.8007 38.6894 46.7907 38.6694 46.7607C38.6494 46.7407 38.6294 46.7007 38.5394 46.5007C38.2194 45.7707 37.8894 45.0407 37.6294 44.4507C37.4194 44.0007 36.9994 43.1807 36.5494 42.5407C36.3994 42.3207 36.1394 42.1407 35.9094 41.9107C35.6594 41.7107 35.3894 41.5407 35.1394 41.4007C34.6994 41.2407 34.2094 41.2407 34.2094 41.2707C34.1194 41.2707 33.9394 41.2207 33.7594 41.2207C33.6694 41.2107 33.4194 41.2207 33.0894 41.2607C32.7594 41.3507 32.3094 41.4607 31.8794 41.6607C31.6594 41.7607 31.4394 41.8607 31.2194 41.9607C31.0094 42.0607 30.9494 42.1007 30.8094 42.1807C30.5694 42.3107 30.3694 42.4307 30.2394 42.5207C30.1594 42.5807 30.0294 42.6607 29.8794 42.7507C29.7694 42.8107 29.6794 42.8707 29.5794 42.9307C29.5194 42.9607 29.4594 42.9807 29.4194 42.9707C29.3994 42.9707 29.2994 43.0407 29.1794 43.0907C29.1394 43.0807 29.0994 43.0807 29.0694 43.0607C29.0394 43.0507 29.0294 43.0007 29.0594 42.9707C29.0894 43.0007 29.1394 42.8807 29.1994 42.7807C29.1994 42.7607 29.2694 42.6607 29.2694 42.6507C29.2694 42.6307 29.3394 42.5807 29.3394 42.5807C29.3394 42.5807 29.3394 42.5807 29.2794 42.5807C29.2794 42.5707 29.2794 42.5407 29.2894 42.5307C29.3394 42.2507 29.3794 42.0507 29.3894 42.0107C29.2794 41.9907 29.3694 41.2407 29.4194 41.2507C29.4694 41.2507 29.5394 40.8607 29.4994 40.8007L29.5294 40.6307C29.5894 40.5807 29.6994 40.2507 29.8094 39.9307C29.8594 39.6507 29.9494 39.3907 29.9494 39.3907C29.9494 39.3407 29.9894 39.1707 30.0294 38.9007L30.1194 38.8607Z" fill="#020202"></path><path d="M56.4498 29.6009C56.4498 29.4409 56.4898 29.4209 56.5998 29.5409C56.6998 29.6609 56.6398 29.8009 56.5398 29.8309C56.4198 29.8309 56.3998 29.7709 56.4498 29.5909V29.6009ZM57.1598 32.3609C57.1398 32.3009 57.1331 32.2842 57.1398 32.3109L57.1898 32.4509L57.1598 32.3609ZM56.4898 30.8909L56.4698 30.8409L56.5098 30.9309C56.5298 30.9809 56.5098 30.9309 56.4898 30.8809V30.8909ZM57.0598 32.8809C57.1298 32.7509 57.1298 32.7509 57.2098 32.8309C57.2998 32.9109 57.2498 33.0809 57.1498 33.1209C57.0698 33.2009 56.9998 33.0109 57.0598 32.8809ZM55.9898 30.4809L56.0198 30.4109C56.0198 30.4109 56.0431 30.4209 56.0898 30.4409C56.0898 30.4409 56.1098 30.4909 56.0598 30.5109L55.9898 30.4809ZM55.8098 30.4509C55.8898 30.3609 55.9598 30.3909 55.9498 30.5109C55.9898 30.6009 55.9398 30.6209 55.8898 30.6409C55.7698 30.6409 55.7398 30.5409 55.8198 30.4509H55.8098ZM55.2598 30.6609C55.3598 30.6209 55.4298 30.6509 55.4498 30.8609C55.4398 30.9709 55.4498 31.0209 55.3698 30.9409C55.2698 30.8209 55.2098 30.6809 55.2598 30.6609ZM48.3198 45.7709C48.3198 45.7709 48.2898 45.8209 48.2798 45.8109C48.2598 45.7809 48.2598 45.7709 48.1598 45.8109C48.1198 45.8509 48.0498 45.7309 48.0598 45.7509C48.0698 45.6809 47.8798 45.2309 47.3798 44.4809C46.3698 42.9509 46.3498 42.9509 46.1698 42.8409C46.1698 42.8409 46.0798 42.7809 46.0498 42.7309C45.8998 42.6609 45.8298 42.6409 45.7598 42.7509C45.7298 42.8109 45.7098 42.7709 45.6998 42.7409C45.6498 42.6409 45.5398 42.6509 45.3898 42.7109C45.3398 42.7309 45.2798 42.7109 45.2098 42.7009C45.1398 42.6809 45.0898 42.7009 44.9998 42.7409C44.9198 42.8209 44.8198 42.8609 44.7698 42.8909C44.6198 42.9509 44.3198 42.9309 44.1898 42.8809C44.1898 42.8809 44.1198 42.8509 44.1398 42.9009C44.1398 42.9009 44.0198 42.9009 43.8898 42.8409C43.6998 42.8009 43.6398 42.7709 43.6698 42.8709C43.6398 42.9409 43.6398 42.9409 43.5898 42.9609C43.3698 42.9909 43.2298 42.9309 43.1998 42.8309C43.1998 42.8309 43.1198 42.7509 43.0598 42.7709C42.9298 42.7109 42.3198 42.7509 42.2698 42.7709L42.2498 42.7209C42.2498 42.7209 42.1998 42.7409 42.1498 42.7509C42.0998 42.7709 41.9998 42.8009 41.9298 42.7709C41.8964 42.7842 41.8864 42.8075 41.8998 42.8409C41.9198 42.8909 41.8898 42.9609 41.8998 43.0109C41.8698 43.0809 41.8498 43.2009 41.8398 43.3209C41.8798 43.4209 41.8298 43.4509 41.7798 43.4609C41.7098 43.4209 41.6598 43.4409 41.5898 43.7209C41.5298 43.8009 41.5698 44.0409 41.6998 44.3909C41.8298 44.7409 42.0998 45.2409 42.4498 45.6709C42.6398 45.9609 42.9198 46.2309 43.0198 46.3809C43.1098 46.5009 43.2798 46.6509 43.3398 46.7309C43.3898 46.8009 43.4898 46.8509 43.5098 46.8809C43.5398 46.9209 43.5998 46.9209 43.6598 47.0009C43.7498 47.0409 43.8798 47.2309 44.1098 47.6909C44.2098 47.8609 44.2598 47.9309 44.3998 48.1809C44.5598 48.4709 44.7098 48.7509 44.8898 49.0709C45.2298 49.7109 45.6098 50.4509 46.1498 51.1809C46.7598 51.9209 47.1298 52.1109 47.3698 52.2709C47.6198 52.4109 47.7498 52.4709 47.8998 52.5309C48.0198 52.5809 48.1298 52.6209 48.2398 52.6509L48.3298 52.6709H48.3698L48.3798 52.6809V52.5709L48.3998 52.3309C48.4198 52.0109 48.4398 51.6909 48.4598 51.3809L48.4898 50.9109V50.6809C48.4898 50.6809 48.5198 50.6809 48.5198 50.6709C48.5698 50.6809 48.6098 50.7009 48.6598 50.7009C48.6898 50.7009 48.7998 50.7009 48.7398 50.7409C48.6498 50.7709 48.5698 50.7809 48.4898 50.7809C48.4698 50.7309 48.6098 50.7209 48.6498 50.6909C48.7098 50.6509 48.7598 50.6209 48.8098 50.5909L48.8398 50.5709C48.8398 50.5709 48.8498 50.4909 48.8898 50.6809C48.9498 50.9409 48.9998 51.1909 49.0498 51.4309C49.1398 51.8609 49.2298 52.2609 49.3098 52.6209C49.8898 52.2709 50.1998 52.0409 50.4198 51.9009C50.5998 51.6909 50.6798 51.6009 50.6898 51.5909C50.8198 51.6409 51.6098 50.2709 51.8098 49.4809C51.9098 49.1109 51.9998 48.8409 52.0698 48.7909C52.0698 48.7909 52.1998 48.4309 52.2698 48.0609C52.3198 47.8309 52.3898 47.5809 52.4598 47.3609C52.5198 47.1709 52.5498 47.0709 52.5798 46.9909C52.6298 46.8509 52.7798 46.6009 52.8198 46.4609C52.8698 46.3209 52.9798 46.1709 53.0698 46.1009C53.1098 46.0709 53.1598 46.0009 53.2398 45.8509C53.2998 45.7609 53.2998 45.7809 53.3198 45.7409C53.3298 45.7109 53.3398 45.6009 53.3798 45.6009C53.3998 45.6009 53.4798 45.5709 53.5298 45.5909C53.5398 45.5909 53.7398 45.6609 53.8298 45.6909C53.9398 45.7309 54.0498 45.7709 54.1398 45.8009C54.3198 45.8709 54.4698 45.9209 54.6298 45.9809C54.8898 46.0709 55.0298 46.1009 55.0698 46.0609C55.1398 46.0309 55.3198 46.1109 55.3398 46.1809C55.3398 46.2409 55.5598 46.3409 55.7898 46.4109C55.8998 46.4509 56.0198 46.4709 56.1098 46.4909C56.1998 46.5109 56.3298 46.5309 56.3298 46.5009C56.4298 46.4809 56.6498 46.5809 56.6298 46.6309C56.6198 46.6809 57.1298 46.9109 57.8198 47.1609C58.4898 47.4309 59.3998 47.6909 59.6898 47.6909C59.8698 47.7209 60.0498 47.7409 60.2098 47.7209L60.4698 47.7009H60.5998C60.5998 47.7009 60.5798 47.5709 60.5598 47.5009L60.4698 47.2409C60.3498 46.8809 60.2298 46.5209 60.1198 46.1709L60.0298 45.9009L59.9798 45.7609C59.9798 45.7609 59.9898 45.7609 59.9998 45.7409H60.0998C60.2398 45.7409 60.3698 45.6609 60.5098 45.6509C60.5598 45.6409 60.5498 45.7009 60.5198 45.7109C60.4898 45.7409 60.4698 45.7609 60.4398 45.7809C60.3798 45.8209 60.3198 45.8609 60.2498 45.8909C60.2098 45.9109 60.0698 45.9809 60.0998 45.8909C60.1398 45.8309 60.1898 45.7809 60.2398 45.7309L60.3898 45.5709C60.3498 45.5009 60.5598 45.7109 60.6698 45.8109L61.0598 46.1809L61.8398 46.9209C61.9298 47.0109 61.9198 46.9809 61.9298 46.9709L61.9598 46.9409L62.0098 46.8809L62.1098 46.7609L62.2898 46.5109C63.1998 45.1409 62.9098 43.6309 62.7598 43.3909L62.5998 42.7009C62.5998 42.4409 62.3798 41.7409 62.2398 41.3109C62.1198 41.0809 61.9798 40.8009 61.9698 40.7509C61.9398 40.6509 61.8198 40.4209 61.7598 40.2309C61.6398 40.0009 61.6598 39.8909 61.6398 39.8409C61.6798 39.7809 61.6798 39.6109 61.6398 39.4709C61.5798 39.2709 61.5898 39.1109 61.5698 39.0609C61.5598 39.0109 61.4798 38.7709 61.3398 38.4909C61.1931 38.1442 61.0398 37.6542 60.8798 37.0209C60.7398 36.4209 60.6198 36.0309 60.4698 35.7509C60.2398 35.2309 60.2098 35.1409 60.2098 34.9709C60.1098 34.6809 59.5598 33.4109 59.4198 33.1809C59.0998 32.7509 58.6498 31.8309 58.1498 30.6509C58.0398 30.3609 57.8798 30.1009 57.8598 30.0509C57.7698 29.9709 57.7598 29.9309 57.7498 29.7609C57.7098 29.6709 57.6598 29.5209 57.6198 29.4309C57.5298 29.3509 57.4398 29.1209 57.3698 28.9309C57.3398 28.7809 57.2598 28.5909 57.1998 28.5309C57.1398 28.4509 57.0698 28.4209 56.9798 28.3909C56.8898 28.3509 56.7098 28.3009 56.6598 28.2509C56.5098 28.0909 56.1698 28.1509 55.9598 28.3409C55.8798 28.4109 55.6998 28.5109 55.6198 28.5909C55.4898 28.6609 55.4898 28.7109 55.5098 28.7509C55.5698 28.8109 55.5298 28.8409 55.4898 28.8709C55.4498 28.9009 55.4498 28.9509 55.4898 28.9709C55.4898 29.0209 55.4398 29.0509 55.3998 29.0909L55.3598 29.1209C55.3598 29.1709 55.3798 29.2009 55.3398 29.2309C55.2698 29.2909 55.1298 29.6409 55.1098 29.7609C55.1298 29.9709 55.1198 30.2409 55.0098 30.2309C54.9598 30.2509 54.9798 30.3009 55.0298 30.4409C55.0798 30.5809 55.0798 30.5809 55.0698 30.5309L54.9698 30.4109L54.9198 30.5909C54.8898 30.6609 54.8698 30.7709 54.8898 30.8109C54.9098 30.8609 54.9398 30.9509 54.8898 30.9709C54.8398 30.9909 54.8998 31.6109 55.0298 31.9309C55.0998 32.1209 55.0798 32.2309 55.0698 32.3409C54.9998 32.4709 54.9898 32.5809 55.0098 32.6309C55.0498 32.7209 55.1098 32.9109 55.1098 33.0709C55.1298 33.2809 55.2098 33.5109 55.3698 33.7709C55.4398 33.9609 55.7698 34.7309 56.0298 35.4809C56.4498 36.7009 56.4798 36.7909 56.6698 37.0409C56.8298 37.2009 56.8798 37.3409 57.0298 37.8109C57.1998 38.3309 57.2998 38.6609 57.4398 39.6609C57.5298 40.0309 57.6798 40.6609 57.8198 41.2709C57.9098 41.6409 57.9998 41.9909 58.0798 42.3009C58.1398 42.5309 58.1198 42.4709 58.1198 42.4909V42.5109C58.2198 42.6309 58.1798 42.7009 58.2198 42.7809C58.1798 42.8709 58.3398 42.8309 58.1998 42.8509C58.1198 42.8409 58.0398 42.7809 58.0098 42.7409C57.8498 42.6709 57.7598 42.6309 57.6398 42.5809C57.3898 42.5309 56.9998 42.4209 56.7198 42.2909C56.4698 42.2409 56.2198 42.1309 56.1998 42.1809C56.1498 42.1609 56.0598 42.1209 55.9598 42.0809C55.9198 42.0309 55.7998 41.9609 55.6298 41.8809C55.4298 41.7909 55.2998 41.7109 54.9398 41.5809C54.0998 41.2309 53.1898 41.0509 52.7298 41.0709C52.5798 41.0509 52.3798 41.1209 52.1298 41.1409C51.8798 41.1709 51.5998 41.2309 51.3498 41.4109C51.0898 41.5609 50.8498 41.7009 50.6298 41.8709C50.4898 42.0209 50.3298 42.2009 50.1398 42.4009C50.0898 42.4809 49.9098 42.7909 49.6598 43.2309C49.5598 43.4609 49.4398 43.7309 49.3098 44.0209L49.2198 44.2309L49.1698 44.3709L49.0598 44.6509C48.8898 45.0309 48.7498 45.3909 48.6398 45.6809C48.6198 45.7409 48.5698 45.8509 48.5698 45.8509L48.5498 45.8709C48.5498 45.8709 48.5298 45.8809 48.5098 45.8709C48.5098 45.8909 48.4498 45.8909 48.3998 45.8609C48.3998 45.8709 48.3498 45.8609 48.3398 45.8609C48.3398 45.8809 48.2998 45.8109 48.2998 45.8109C48.2998 45.8109 48.2998 45.8209 48.3198 45.9109L48.2998 45.9309H48.2798C48.2798 45.9309 48.2898 45.9309 48.2798 45.9409C48.2998 46.1709 48.2398 46.2309 48.2498 46.1209C48.2498 46.0209 48.2498 46.0009 48.2298 46.0909C48.2298 45.9809 48.2398 45.8809 48.2598 45.8009L48.2798 45.7209L48.3198 45.7709Z" fill="#020202"></path><path d="M25.7697 17.7704C25.6697 18.1004 25.6097 18.0904 25.6097 17.7404C25.6097 17.3904 25.7497 17.1804 25.8597 17.2104C25.9397 17.3404 25.9297 17.4504 25.7697 17.7704ZM28.2597 12.0404C28.1797 12.1671 28.1597 12.2004 28.1997 12.1404L28.3697 11.8504L28.2497 12.0404H28.2597ZM26.8397 15.2804L26.7997 15.3804C26.8397 15.2804 26.8797 15.1704 26.8797 15.1704C26.9197 15.0704 26.8797 15.1704 26.8397 15.2704V15.2804ZM29.0197 11.3504C28.7997 11.4604 28.7997 11.4704 28.8897 11.2604C28.9797 11.0504 29.2597 10.8504 29.3497 10.9104C29.4997 10.8904 29.2397 11.2304 29.0197 11.3504ZM26.7997 16.5304C26.7697 16.6304 26.7197 16.6204 26.7197 16.6204C26.6864 16.6138 26.6797 16.5738 26.6997 16.5004C26.6997 16.5004 26.7297 16.3904 26.7797 16.4104L26.7997 16.5304ZM26.9097 16.7704C26.7797 16.8504 26.7497 16.7304 26.8597 16.5404C26.9097 16.3304 26.9697 16.3504 27.0197 16.3604C27.0997 16.4904 27.0397 16.7004 26.9097 16.7804V16.7704ZM27.4797 16.9204C27.3797 16.8904 27.3497 16.7804 27.5097 16.3904C27.6097 16.2004 27.6397 16.1004 27.6397 16.3204C27.6197 16.6304 27.5397 16.9304 27.4897 16.9204H27.4797ZM34.1597 32.2404C33.8497 32.0104 33.1197 31.5504 32.7097 31.1304C32.1297 30.6304 31.9697 30.3804 31.7497 30.3204C31.5797 30.2104 31.5097 30.1404 31.5097 30.1404C31.4897 30.0304 30.9097 29.3704 30.1097 28.0504C29.3497 26.7604 29.0597 25.8604 28.8397 25.2804C28.5897 24.7004 28.5497 24.3904 28.4197 24.1704C28.4197 24.1704 28.2997 23.9004 28.2497 23.7104C28.0497 23.3604 28.0097 23.2604 27.9297 23.4804C27.8897 23.5904 27.8797 23.4904 27.8597 23.3904C27.8197 23.1004 27.6997 23.0104 27.5397 23.0404C27.4897 23.0404 27.4197 22.9604 27.3497 22.8604C27.2797 22.7604 27.2297 22.7704 27.1197 22.7904C27.0297 22.9104 26.9197 22.9204 26.8697 22.9304C26.7097 22.9604 26.3997 22.6804 26.2597 22.4704C26.2597 22.4704 26.1897 22.3704 26.2097 22.4704C26.2097 22.4704 26.0697 22.3804 25.9597 22.1604C25.7897 21.9504 25.7297 21.8404 25.7397 22.0704C25.7064 22.1504 25.6731 22.1904 25.6397 22.1904C25.4197 22.1004 25.2997 21.8804 25.2897 21.6504C25.2897 21.6504 25.2197 21.4204 25.1697 21.4204C25.0497 21.2004 24.4497 20.8504 24.3897 20.8504V20.7304C24.3897 20.7304 24.3297 20.7304 24.2797 20.7304C24.2297 20.7304 24.1197 20.7304 24.0597 20.6104C24.0264 20.6104 24.0097 20.6504 24.0097 20.7304C24.0097 20.8504 23.9697 20.9804 23.9697 21.1004C23.9197 21.2204 23.8797 21.4704 23.8397 21.7304C23.8497 21.9804 23.7997 21.9804 23.7497 21.9904C23.6897 21.8704 23.6397 21.8704 23.4997 22.3904C23.3697 22.6504 23.4997 24.4804 24.2097 26.4104C24.4397 27.0104 24.7597 27.8504 24.9897 28.3004C25.1597 28.6504 25.4797 29.2004 25.5897 29.4304C25.6897 29.6604 25.8897 29.8504 25.9497 29.9604C26.0197 30.0704 26.1297 30.1504 26.2597 30.3704C26.4397 30.5604 26.7397 31.1104 27.5597 32.2404C28.7697 33.6904 29.8097 34.8604 32.1497 36.3504C34.7897 37.8404 35.4597 37.9004 36.1497 38.1904C39.2997 39.3204 41.4097 39.2604 42.6197 39.3204C43.8497 39.2804 44.2597 39.2804 44.3197 39.2604C44.4497 39.2604 45.1097 39.1804 45.8597 39.0704C46.6097 38.9304 47.4297 38.6704 47.9097 38.5304C48.3697 38.3104 48.7197 38.1804 48.8597 38.1804C48.8597 38.1804 49.3397 38.0204 49.7797 37.7604C50.3197 37.4404 51.0097 37.1204 51.3397 36.9304C51.5997 36.7804 52.3997 36.3404 52.6597 36.1904C52.9797 35.9904 53.3997 35.7104 53.6397 35.6104C53.7597 35.5604 53.9497 35.4404 54.3297 35.1804C54.6697 34.8804 55.2397 34.4504 55.9797 33.6704C57.0597 32.5804 58.1097 30.9704 58.5397 30.2004C59.0397 29.4604 59.7797 27.6904 60.2197 26.3704C60.4297 25.6404 60.5597 25.0004 60.6897 24.4704C60.7797 23.9304 60.8297 23.4904 60.8797 23.1304C60.9797 22.4304 60.9397 22.0804 60.8997 22.0104C60.8497 21.8804 60.8797 21.3804 60.9397 21.2604C61.1197 21.1404 60.8897 18.8704 60.7797 18.8904C60.7297 18.7704 60.6697 18.4004 60.7197 18.3904C60.7597 18.3904 60.6697 17.5104 60.4597 16.5304C60.3297 16.0504 60.2097 15.4604 60.0697 14.9504C59.8897 14.4304 59.7397 13.9804 59.6597 13.7604C59.2797 12.6904 58.6697 11.4704 57.9097 10.2704C57.5097 9.69042 57.0797 9.10042 56.6397 8.55042C56.1497 8.03042 55.7197 7.47042 55.1997 7.03042C53.2397 5.17042 51.2197 4.18042 50.9097 4.12042C50.7997 4.07042 50.4597 3.90042 50.0097 3.68042C49.7097 3.44042 48.7297 3.16042 48.1497 2.95042C47.5397 2.79042 46.7897 2.69042 46.6797 2.65042C46.4397 2.58042 45.8197 2.49042 45.3297 2.43042C44.7097 2.39042 44.4697 2.30042 44.3497 2.28042C44.2297 2.20042 43.8597 2.14042 43.4897 2.11042C42.9897 2.08042 42.6197 2.01042 42.4897 2.01042C42.3697 1.99042 41.7397 2.03042 40.9897 2.12042C40.3097 2.16042 39.9697 2.27042 39.5097 2.33042C39.2897 2.36042 39.0297 2.40042 38.6697 2.45042C38.3197 2.52042 37.8897 2.63042 37.3097 2.76042C35.8597 3.13042 34.9197 3.53042 34.2797 3.91042C33.6697 4.22042 33.3197 4.43042 33.0797 4.58042C32.8397 4.73042 32.6997 4.79042 32.5297 4.87042C32.1897 5.04042 31.3797 5.67042 30.5997 6.31042C29.8697 7.01042 29.1597 7.70042 28.9897 7.97042C28.2497 8.96042 26.7197 10.9304 25.6097 13.7804C25.3597 14.4704 25.1497 15.1704 25.1197 15.2804C25.1097 15.5304 25.0797 15.6504 24.9397 15.9804C24.8797 16.2204 24.7897 16.5704 24.7297 16.8004C24.7197 17.0504 24.6397 17.6504 24.5597 18.1204C24.3897 18.8304 24.4597 18.9604 24.5497 19.2104C24.5997 19.3304 24.6897 19.5804 24.6897 19.7004C24.6697 20.0604 24.8697 20.4204 25.1397 20.4204C25.2497 20.4204 25.3997 20.5404 25.5097 20.5404C25.6097 20.6504 25.6697 20.5404 25.7297 20.4304C25.7897 20.2104 25.8497 20.2104 25.8997 20.2104C25.9497 20.2104 26.0097 20.1004 26.0197 19.9904C26.0797 19.8804 26.1297 19.8804 26.1897 19.8904H26.2397C26.2997 19.7904 26.2997 19.6804 26.3597 19.6804C26.4797 19.6804 26.7997 18.9604 26.9397 18.5604C27.0597 18.1504 27.2397 17.6604 27.3297 17.7804C27.3897 17.7904 27.3797 17.6904 27.4597 17.3904C27.5131 17.1904 27.5297 17.1238 27.5097 17.1904L27.4797 17.5004L27.6597 17.2304C27.7397 17.1404 27.8397 16.9604 27.8697 16.8604C27.8997 16.7604 27.9397 16.5704 27.9997 16.5804C28.0397 16.5904 28.1297 16.3004 28.3197 15.9604C28.4997 15.6104 28.6997 15.1904 28.8097 14.8604C28.9797 14.5004 29.1197 14.3504 29.2497 14.2004C29.4297 14.0704 29.5597 13.9204 29.5997 13.8304C29.6797 13.6504 29.8997 13.3304 30.0897 13.1104C30.2097 12.9604 30.3397 12.7804 30.4597 12.5704C30.6097 12.3804 30.7497 12.1604 30.9097 11.9104C31.1097 11.5804 32.1597 10.2904 33.3697 9.31042C35.3997 7.81042 35.6597 7.85042 36.1197 7.48042C36.2697 7.35042 36.4197 7.25042 36.6297 7.13042C36.8597 7.03042 37.1597 6.93042 37.6197 6.75042C38.6397 6.43042 39.3297 6.20042 41.2897 6.17042C41.8697 6.16042 43.1497 6.13042 44.4997 6.40042C45.1797 6.49042 45.8597 6.71042 46.4997 6.88042C47.1197 7.12042 47.7097 7.31042 48.1697 7.53042C50.2297 8.47042 51.2997 9.35042 51.9397 9.93042C52.6097 10.4904 52.8497 10.8004 53.1097 11.0304C53.5497 11.4204 54.4097 12.5504 55.1197 13.8404C55.8297 15.1404 56.2397 16.6304 56.3997 17.4304C56.5997 18.4804 56.6997 19.0504 56.7197 19.8304C56.7497 20.0704 56.8197 20.3904 56.8297 20.7204C56.8297 21.0504 56.8297 21.3904 56.8097 21.6904C56.8697 22.1904 56.7397 22.6704 56.8097 22.6804C56.7997 22.7804 56.7697 22.9704 56.7397 23.1704C56.5497 23.8204 56.3897 24.3704 56.1997 25.0404C56.0397 25.4704 55.8797 25.9104 55.7297 26.3304C55.5397 26.7204 55.3897 27.0704 55.2797 27.3204C55.1697 27.6504 54.7997 28.2104 54.4497 28.8004C54.0297 29.3404 53.6197 29.9304 53.2797 30.2204C53.2097 30.2904 52.9597 30.5904 52.5697 30.9904C52.1497 31.3504 51.6497 31.8704 51.0397 32.2804C50.4497 32.7304 49.7897 33.0504 49.2897 33.3604C48.7497 33.6004 48.3497 33.7804 48.2097 33.8204C47.9597 33.9704 47.3697 34.0804 46.9997 34.1804C46.7397 34.3004 45.7797 34.5004 44.9397 34.6604C44.5897 34.7004 44.2397 34.7504 43.9197 34.7904C43.6397 34.8104 43.4497 34.7904 43.3997 34.7904C43.3997 34.7904 42.9197 34.8104 42.3397 34.9004C41.8597 34.8504 40.8897 34.8704 40.2297 34.7204C39.5597 34.6404 39.0897 34.5204 38.9997 34.4804C38.9797 34.5804 37.7297 34.3304 37.7597 34.2404C37.7797 34.1904 37.1397 33.9604 37.0297 33.9704L36.7597 33.8704C36.6897 33.7804 36.1897 33.4704 35.6997 33.1804C35.2697 32.9604 34.8997 32.6504 34.8997 32.6504C34.8297 32.5904 34.5497 32.4804 34.1797 32.1804L34.1597 32.2404Z" fill="#020202"></path><path d="M35.2098 19.4109C35.1398 19.5509 35.0798 19.5409 35.0498 19.3809C35.0198 19.2209 35.1398 19.1409 35.2498 19.1709C35.3398 19.2409 35.3398 19.2809 35.2098 19.4109ZM36.4398 17.0409C36.4064 17.0942 36.3998 17.1075 36.4198 17.0809L36.4898 16.9609L36.4398 17.0409ZM35.8998 18.4209L35.8798 18.4609L35.9098 18.3709C35.9298 18.3309 35.9098 18.3709 35.8898 18.4109L35.8998 18.4209ZM36.8798 16.8409C36.7398 16.8509 36.7398 16.8509 36.7498 16.7509C36.7598 16.6509 36.9298 16.6009 37.0198 16.6609C37.1298 16.6909 37.0198 16.8309 36.8898 16.8409H36.8798ZM36.0698 18.9809L36.0098 19.0109C35.9764 19.0042 35.9631 18.9842 35.9698 18.9509C35.9698 18.9509 35.9798 18.9109 36.0298 18.9209L36.0698 18.9809ZM36.1998 19.1009C36.0898 19.1209 36.0398 19.0609 36.1198 18.9909C36.1398 18.9109 36.1898 18.9209 36.2398 18.9309C36.3298 19.0009 36.3098 19.0809 36.1998 19.1009ZM36.7698 19.2509C36.6698 19.2209 36.6198 19.1709 36.7098 19.0309C36.7798 18.9709 36.7898 18.9309 36.8198 19.0309C36.8398 19.1609 36.8198 19.2709 36.7598 19.2509H36.7698ZM39.6798 24.4109C39.5798 24.3309 39.3198 24.2109 39.1898 24.0809C38.9998 23.9209 38.9498 23.8309 38.8198 23.8609C38.7398 23.8509 38.7098 23.8209 38.7098 23.8209C38.7298 23.7609 38.5698 23.5209 38.2998 23.0809C37.8598 22.2009 37.8698 21.9409 37.7098 21.8109C37.7098 21.8109 37.6298 21.7309 37.6198 21.6709C37.4798 21.5709 37.4398 21.5409 37.3398 21.6309C37.2898 21.6709 37.2898 21.6409 37.2798 21.6109C37.2698 21.5109 37.1498 21.4909 36.9998 21.5209C36.9498 21.5209 36.8898 21.5009 36.8298 21.4709C36.7698 21.4409 36.7198 21.4509 36.6098 21.4709C36.5098 21.5209 36.3998 21.5409 36.3498 21.5509C36.1898 21.5809 35.9098 21.4909 35.7898 21.4109C35.7898 21.4109 35.7298 21.3709 35.7398 21.4109C35.7398 21.4109 35.6198 21.3809 35.5098 21.3009C35.3498 21.2209 35.2898 21.1809 35.2898 21.2709C35.2398 21.3209 35.2398 21.3209 35.1898 21.3309C34.9698 21.3009 34.8598 21.2109 34.8598 21.1109C34.8598 21.1109 34.7998 21.0109 34.7498 21.0109C34.6398 20.9209 34.0398 20.7709 33.9898 20.7609V20.7009C33.9898 20.7009 33.9298 20.7009 33.8798 20.7009C33.8298 20.7009 33.7198 20.7009 33.6598 20.6409C33.6264 20.6409 33.6098 20.6609 33.6098 20.7009C33.6098 20.7609 33.5598 20.8209 33.5598 20.8809C33.5098 20.9409 33.4598 21.0609 33.4098 21.1809C33.4098 21.3009 33.3598 21.3009 33.3098 21.3109C33.2498 21.2509 33.1998 21.2509 33.0498 21.5209C32.8998 21.6509 32.9398 22.5709 33.3498 23.5209C33.4598 23.8209 33.6498 24.2209 33.7598 24.4509C33.8398 24.6209 34.0298 24.8809 34.0798 24.9909C34.1298 25.1109 34.2498 25.1809 34.2798 25.2409C34.3098 25.2909 34.3898 25.3209 34.4498 25.4309C34.5598 25.5109 34.7098 25.7809 35.0798 26.3509C35.6698 27.0609 36.1798 27.6309 37.3398 28.3409C38.6598 29.0209 38.9698 29.0409 39.3098 29.1909C40.8398 29.7509 41.8598 29.7409 42.4498 29.7709C43.0498 29.7709 43.2498 29.7709 43.2798 29.7609C43.3398 29.7809 43.6698 29.7509 44.0398 29.6909C44.4098 29.6209 44.8098 29.4909 45.0398 29.4009C45.2598 29.2709 45.4298 29.2009 45.5098 29.2309C45.5098 29.2309 45.7498 29.1509 45.9498 29.0009C46.2098 28.8209 46.5398 28.6709 46.6998 28.5709C46.8598 28.4809 47.1998 28.3309 47.3598 28.2309C47.5098 28.1309 47.7398 28.0209 47.8698 27.9909C47.9998 27.9609 48.3098 27.8409 49.0598 27.0809C49.5898 26.5409 50.0898 25.7409 50.2998 25.3609C50.5398 24.9909 50.8898 24.1209 51.0998 23.4709C51.2898 22.7509 51.3698 22.2309 51.3898 21.8809C51.4298 21.5309 51.3898 21.3609 51.3498 21.3309C51.2998 21.2709 51.3098 21.0209 51.3698 20.9709C51.5098 20.9109 51.3498 19.8109 51.2398 19.8209C51.1898 19.7609 51.1598 19.5909 51.2098 19.5809C51.2598 19.5809 51.2098 19.1509 51.1098 18.6809C51.0098 18.2009 50.8498 17.5509 50.7498 17.3309C50.4198 16.2809 49.5998 14.9209 48.6098 14.0409C47.6498 13.1409 46.6598 12.6709 46.4898 12.6809C46.4398 12.6509 46.2698 12.5709 46.0498 12.4709C45.9098 12.3309 45.4298 12.2209 45.1498 12.1109C44.8498 12.0609 44.4798 12.0409 44.4198 12.0209C44.2998 11.9909 43.9998 11.9709 43.7698 11.9409C43.4698 11.9409 43.3598 11.8809 43.2998 11.8709C43.2498 11.8009 43.0698 11.7509 42.8898 11.7309C42.6498 11.7209 42.4698 11.6609 42.4098 11.6509C42.3498 11.6409 42.0498 11.6609 41.6898 11.7309C41.3598 11.7709 41.1998 11.8209 40.9798 11.8509C40.7598 11.8809 40.4698 11.9109 39.9098 12.0409C39.1998 12.1909 38.7398 12.3909 38.4498 12.6009C37.8698 12.9309 37.7998 13.0309 37.6098 13.0609C37.4498 13.1409 37.0598 13.4609 36.6998 13.7809C36.3598 14.1309 36.0298 14.4809 35.9598 14.6109C35.6698 15.1409 34.9898 16.1009 34.4998 17.4509C34.3798 17.7709 34.3098 18.1109 34.2998 18.1609C34.3198 18.2909 34.2998 18.3409 34.2098 18.4909C34.1798 18.6009 34.1398 18.7609 34.1098 18.8709C34.1298 18.9909 34.0998 19.2709 34.0598 19.4909C33.9498 19.8209 34.0098 19.8809 34.1098 20.0009C34.1598 20.0609 34.2598 20.1809 34.2598 20.2309C34.2598 20.4009 34.4598 20.5609 34.7298 20.5609C34.8398 20.5609 34.9998 20.6109 35.0998 20.6109C35.1998 20.6609 35.2598 20.6109 35.3198 20.5609C35.3798 20.4709 35.4298 20.4709 35.4898 20.4709C35.5498 20.4709 35.5998 20.4309 35.5998 20.3809C35.6598 20.3409 35.7098 20.3409 35.7598 20.3409H35.8098C35.8698 20.3009 35.8698 20.2609 35.9198 20.2609C36.0298 20.2609 36.3498 19.9909 36.4398 19.8509C36.5198 19.7009 36.6498 19.5209 36.7498 19.5809C36.8098 19.5909 36.7998 19.5509 36.8298 19.4409C36.8598 19.3309 36.8598 19.3309 36.8498 19.3709L36.8698 19.4909L36.9998 19.4109C37.0598 19.3909 37.1298 19.3309 37.1398 19.2909C37.1398 19.2609 37.1698 19.1909 37.2198 19.2009C37.2598 19.2009 37.5498 18.8609 37.6298 18.6409C37.6898 18.5209 37.7698 18.4809 37.8498 18.4409C37.9698 18.4309 38.0498 18.3909 38.0598 18.3609C38.0798 18.3009 38.1598 18.1909 38.2598 18.1409C38.3698 18.0509 38.4498 17.9309 38.5298 17.7409C38.5898 17.6309 38.9198 17.1809 39.3298 16.8509C40.0098 16.3509 40.0898 16.3609 40.2198 16.1709C40.2898 16.0109 40.3898 15.9709 40.7098 15.8609C41.0598 15.7509 41.3098 15.6709 41.9798 15.7709C42.3898 15.7509 43.6698 16.0009 44.2498 16.3209C44.9398 16.6109 45.2998 16.9009 45.5198 17.0909C45.7498 17.2709 45.8298 17.3709 45.9298 17.4309C46.0898 17.5509 46.3898 17.9309 46.6298 18.3609C46.8698 18.8009 46.9998 19.3009 47.0298 19.5709C47.0898 19.9209 47.1298 20.1109 47.1398 20.3809C47.2098 20.5409 47.2598 20.8109 47.2398 21.0109C47.2998 21.1809 47.2398 21.3509 47.3098 21.3609C47.3098 21.3909 47.2998 21.4609 47.2898 21.5309C47.1898 21.6509 46.9198 22.6009 46.7598 22.9409C46.7098 23.1809 46.3298 23.7609 46.0698 23.9309C46.0298 23.9809 45.7198 24.3409 45.2998 24.6309C44.8698 24.9009 44.4098 25.1009 44.2998 25.0909C44.2198 25.1409 43.9998 25.1409 43.8698 25.1409C43.7798 25.1809 43.4598 25.2109 43.1798 25.2709C42.9298 25.3109 42.6998 25.2909 42.6698 25.2709C42.6698 25.2709 42.5098 25.2709 42.3198 25.3409C42.1598 25.3209 41.8398 25.3409 41.6198 25.2809C41.3998 25.2609 41.2498 25.2109 41.2198 25.2009C41.1998 25.3009 40.7698 25.2609 40.7898 25.1909C40.8098 25.1409 40.5998 25.0609 40.5498 25.1009L40.4598 25.0709C40.4598 25.0109 40.2998 24.8709 40.1598 24.7409C40.0198 24.6709 39.9198 24.5309 39.9198 24.5309C39.8998 24.5109 39.8098 24.4809 39.6898 24.3809L39.6798 24.4109Z" fill="#020202"></path></g><defs><clipPath id="clip0_14354_4919"><rect width="72.03" height="52.68" fill="white" transform="translate(0.889648 0.640625)"></rect></clipPath></defs></svg> 