<?xml version="1.0" encoding="UTF-8"?> <svg xmlns="http://www.w3.org/2000/svg" id="Layer_2" viewBox="0 0 163.23 39.98"><defs><style>.cls-1{fill:none;}.cls-1,.cls-2{stroke-width:0px;}.cls-2{fill:#fff;}</style></defs><g id="Layer_1-2"><rect class="cls-1" width="163.23" height="39.98"></rect><path class="cls-2" d="m5.57,8.7h3.5c3.2,0,4.61,1.01,4.61,3.06,0,1.78-1.41,2.99-4.24,2.99h-3.87v-6.06ZM1.33,28.88h8.57c4.51,0,9.01-1.61,9.01-6.79,0-3.06-2.15-5.41-5.14-5.75v-.07c2.45-.73,4.14-2.52,4.14-5.21,0-4.34-3.7-5.99-7.3-5.99H1.33v23.81Zm4.24-10.49h4.07c3.43,0,5.05.88,5.05,3.37,0,3.12-3.03,3.49-5.22,3.49h-3.9v-6.86Z"></path><rect class="cls-2" x="21.5" y="4.51" width="4.4" height="24.37"></rect><path class="cls-2" d="m32.45,20.81c0-2.52,1.78-4.84,4.74-4.84s4.74,2.32,4.74,4.84-1.78,4.84-4.74,4.84-4.74-2.32-4.74-4.84m-4.04,0c0,5.08,3.9,8.47,8.78,8.47s8.78-3.39,8.78-8.47-3.9-8.48-8.78-8.48c-4.88,0-8.78,3.4-8.78,8.48"></path><path class="cls-2" d="m51.83,20.81c0-2.52,1.78-4.84,4.74-4.84s4.74,2.32,4.74,4.84-1.78,4.84-4.74,4.84-4.74-2.32-4.74-4.84m-4.04,0c0,5.08,3.9,8.47,8.78,8.47s8.78-3.39,8.78-8.47-3.9-8.48-8.78-8.48c-4.88,0-8.78,3.4-8.78,8.48"></path><path class="cls-2" d="m67.81,12.74h3.83v2.53h.06c.71-1.51,2.25-2.93,4.94-2.93,2.49,0,4.21.97,5.05,2.99,1.18-2.05,2.89-2.99,5.31-2.99,4.3,0,5.82,3.07,5.82,6.93v9.62h-4.04v-9.15c0-2.02-.6-3.77-2.99-3.77-2.52,0-3.47,2.08-3.47,4.17v8.75h-4.03v-9.62c0-1.99-.81-3.3-2.76-3.3-2.65,0-3.7,1.94-3.7,4.1v8.81h-4.04V12.74Z"></path><path class="cls-2" d="m109.49,20.81c0,2.53-1.78,4.84-4.74,4.84s-4.74-2.32-4.74-4.84,1.78-4.85,4.74-4.85,4.74,2.32,4.74,4.85m-13.38,8.07h3.84v-2.42h.06c1.18,1.94,3.3,2.82,5.56,2.82,4.97,0,7.97-3.7,7.97-8.47s-3.2-8.48-7.8-8.48c-3.02,0-4.64,1.41-5.48,2.46h-.1V4.51h-4.04v24.37h0Z"></path><path class="cls-2" d="m119.38,19.19c.3-2.32,1.78-3.83,4.17-3.83,2.52,0,4.07,1.48,4.11,3.83h-8.27Zm12.31,3.03v-1.11c0-5.62-3.06-8.78-7.57-8.78-4.89,0-8.78,3.4-8.78,8.48s3.89,8.47,8.78,8.47c2.55,0,4.94-.91,6.82-3.22l-2.89-2.18c-1.01,1.24-2.32,2.18-4.34,2.18-2.25,0-4.07-1.45-4.33-3.84h12.31Z"></path><path class="cls-2" d="m134.32,12.74h4.04v2.56h.07c.88-1.85,2.65-2.96,4.77-2.96.51,0,.98.1,1.45.24v3.9c-.67-.17-1.31-.3-1.95-.3-3.8,0-4.34,3.2-4.34,4.07v8.64h-4.04V12.74h0Z"></path><path class="cls-2" d="m153.67,15.97c2.92,0,4.77,1.94,4.77,4.74s-1.81,4.74-4.81,4.74c-2.72,0-4.74-2.12-4.74-4.67,0-2.86,1.95-4.81,4.78-4.81m4.77-3.23v2.42h-.06c-1.18-1.95-3.3-2.83-5.56-2.83-4.98,0-7.97,3.7-7.97,8.48s3.2,8.27,8.04,8.27c2.02,0,4.1-.77,5.29-2.35h.06v1.18c0,3.19-1.2,5.41-5.11,5.41-2.25,0-3.94-.85-5.55-2.33l-2.42,3.3c2.28,2.03,5.01,2.66,8,2.66,6.29,0,9.11-3.7,9.11-9.52v-14.7h-3.84Z"></path></g></svg> 