<?xml version="1.0" encoding="UTF-8"?> <svg xmlns="http://www.w3.org/2000/svg" id="Layer_2" viewBox="0 0 50.89 48.86"><defs><style>.cls-1{fill:#020202;stroke-width:0px;}</style></defs><g id="Layer_1-2"><path class="cls-1" d="m44.36,14.17c-.16-.42-.11-.45.16-.08.27.37.31.69.2.74-.17-.08-.25-.21-.36-.66Zm2.04,8.04q-.03-.29-.02-.15l.05.44-.03-.29Zm-1.1-4.58l-.04-.14c.04.14.09.28.09.28.04.14,0,0-.04-.14Zm.9,5.91c.12-.3.12-.3.18,0,.06.29-.05.74-.17.74-.12.15-.12-.43,0-.73Zm-1.8-7.29c-.06-.13,0-.16,0-.16q.06-.02.11.11s.06.13,0,.16l-.11-.11Zm-.28-.19c.05-.18.17-.07.22.22.11.27.06.29,0,.31-.17-.09-.28-.35-.22-.53Zm-.61.26c.11-.05.22.06.38.6.05.28.11.41-.06.17-.22-.36-.38-.74-.33-.77ZM23.87,5.14c.52,0,1.7-.1,2.48.01,1.05.06,1.42.19,1.71.11.27-.01.4.01.4.01.12.08,1.29.32,3.24,1.08,1.89.76,2.95,1.49,3.66,1.94.74.42,1.04.73,1.35.87,0,0,.35.2.56.36.49.24.6.32.5.03-.06-.14.04-.04.14.05.29.28.47.29.59.16.04-.04.18,0,.32.06s.18.01.27-.08c-.02-.18.07-.27.11-.31.12-.13.64-.05.94.07,0,0,.15.06.04-.04,0,0,.2,0,.48.15.32.1.47.18.27-.05q-.05-.15,0-.2c.27-.05.56.1.76.34,0,0,.24.19.29.16.29.15,1.11.1,1.15.07l.1.12s.05-.04.09-.07c.05-.04.14-.11.29-.02t-.06-.16c-.1-.12-.16-.28-.27-.41-.06-.16-.22-.45-.39-.74-.21-.25-.17-.29-.12-.33.15.08.2.05-.1-.58-.09-.35-1.67-2.13-3.93-3.59-.71-.44-1.7-1.06-2.3-1.35-.44-.23-1.21-.55-1.51-.7-.29-.16-.63-.21-.78-.27-.15-.06-.33-.07-.64-.19-.33-.07-1.08-.4-2.82-.92-.59-.19-1.18-.26-1.76-.37-.58-.11-1.16-.22-1.79-.25-1.25-.13-2.66-.17-4.46-.01-3.92.53-4.66.99-5.6,1.24-4.16,1.33-6.3,3.07-7.6,3.97-1.24,1.02-1.66,1.35-1.71,1.42-.14.1-.75.71-1.44,1.42-.66.74-1.31,1.65-1.7,2.18-.31.59-.57,1-.71,1.11,0,0-.08.12-.22.35-.12.22-.31.49-.42.8-.32.76-.78,1.63-.97,2.08-.17.39-.61,1.42-.77,1.81-.17.46-.38,1.08-.54,1.38-.07.15-.18.42-.37.99-.11.59-.36,1.47-.51,2.87-.04.49-.08,1.02-.12,1.55-.04.53,0,1.06.01,1.57,0,1.02.14,1.92.19,2.5.07,1.16.69,3.58,1.28,5.3.36.92.73,1.69,1.01,2.34.33.63.63,1.13.86,1.54.45.81.76,1.15.85,1.19.14.1.51.64.56.81-.07.26,1.94,2.44,2.03,2.35.14.09.5.43.45.47-.02.02.17.23.49.55.33.3.73.77,1.26,1.16.52.4,1.11.91,1.66,1.33.59.39,1.11.74,1.36.91,1.24.8,2.84,1.58,4.58,2.23.88.29,1.78.56,2.68.77.92.15,1.81.39,2.69.43,3.51.38,6.38-.19,6.75-.35.16-.03.64-.13,1.28-.26.51,0,1.74-.48,2.52-.71.76-.3,1.62-.79,1.77-.84.12-.06.39-.18.7-.33.32-.18.64-.37.88-.51.68-.44,1-.55,1.14-.62.18-.01.61-.26,1.01-.53.54-.37.98-.6,1.11-.69.15-.07.76-.62,1.47-1.29.68-.58.94-.96,1.38-1.39.21-.21.45-.46.78-.8.31-.35.67-.8,1.16-1.4,1.21-1.54,1.87-2.69,2.24-3.6.19-.41.35-.74.46-.99.11-.29.19-.49.25-.65.13-.34.22-.52.34-.74.22-.44.56-1.75.88-3.03.21-1.31.41-2.59.38-3,.02-1.61.06-4.88-1.04-8.73-.28-.92-.62-1.81-.68-1.96-.18-.27-.24-.42-.37-.88-.12-.29-.31-.73-.44-1.03-.17-.27-.57-.96-.87-1.52-.39-.87-.56-.96-.84-1.16-.14-.1-.42-.29-.51-.42-.27-.39-.73-.63-.96-.45-.1.07-.33.05-.42.13-.18-.05-.14.11-.11.27.12.28.07.32.02.35-.05.04-.01.19.07.31.03.16-.02.19-.06.22l-.05.03c.03.15.11.27.06.31-.11.08.2,1.07.38,1.61.22.52.45,1.19.27,1.12-.06.03.03.14.2.52q.16.38.11.25l-.21-.36.05.43c0,.15.05.43.1.55.05.13.16.38.1.4-.04.02.11.39.2.92.1.52.25,1.14.39,1.58.11.53.1.8.1,1.07-.06.28-.07.55-.04.68.06.26.09.79.08,1.19,0,.26.02.56.05.89,0,.33.02.69.05,1.08.06.52-.02,2.78-.53,4.84-.95,3.3-1.27,3.46-1.48,4.24-.07.26-.15.49-.28.79-.16.29-.4.65-.76,1.22-.84,1.19-1.39,2-3.46,3.67-.61.5-1.97,1.58-3.64,2.42-.81.47-1.72.79-2.55,1.14-.86.26-1.66.55-2.34.68-3.01.68-4.89.6-6.06.5-1.19-.05-1.7-.2-2.16-.24-.79-.06-2.66-.58-4.49-1.39-1.83-.82-3.51-2.09-4.35-2.82-1.08-.97-1.67-1.51-2.33-2.33-.23-.24-.55-.53-.83-.88-.27-.36-.55-.73-.77-1.06-.46-.5-.72-1.12-.79-1.08-.06-.12-.19-.35-.32-.59-.28-.72-.59-1.49-.97-2.46-.18-.6-.37-1.21-.55-1.78-.12-.57-.24-1.09-.33-1.44-.14-.45-.21-1.35-.32-2.28,0-.93-.04-1.91.08-2.5.02-.13.04-.67.14-1.41.15-.73.27-1.7.58-2.65.26-.97.71-1.87.99-2.61.37-.7.66-1.23.77-1.39.15-.37.68-.98,1-1.4.1-.17.34-.52.69-.92.35-.39.7-.91,1.13-1.32.35-.35.7-.69.99-.98.28-.25.5-.39.55-.44,0,0,.5-.42,1.06-.98.56-.35,1.6-1.17,2.43-1.55.41-.22.74-.42,1.01-.54.27-.11.45-.19.51-.21-.05-.11,1.51-.84,1.55-.74.02.06.9-.21,1.01-.31l.38-.12c.14.03.93-.07,1.71-.17.32-.08.65-.06.89-.08.22,0,.41-.01.41-.01.13,0,.52-.1,1.17-.09Z"></path><path class="cls-1" d="m33.38,19.62c-.05-.2,0-.24.16-.09.16.15.12.33,0,.38-.14,0-.17-.06-.17-.29Zm.81,3.62q-.02-.13,0-.06l.03.19-.02-.13Zm-.6-1.98l-.02-.06c.02.06.04.12.04.12.02.06,0,0-.02-.06Zm.36,2.59c.12-.13.12-.14.18-.01.06.13-.05.32-.17.33-.12.07-.13-.18-.01-.32Zm-.95-3.09c-.03-.06.03-.08.03-.08q.05-.02.08.03s.03.06-.03.08l-.08-.03Zm-.21-.04c.08-.11.16-.08.16.06.05.11,0,.14-.06.16-.14,0-.18-.12-.1-.22Zm-.6.28c.11-.05.19-.02.23.21,0,.13.02.18-.09.1-.13-.13-.19-.28-.14-.31Zm-8.02-3.59c.19,0,.62-.09.91-.05.39.01.53.06.64-.05.11-.04.16-.04.16-.04.04.07.47.18,1.2.44.7.28,1.09.55,1.36.71.28.14.4.24.54.26,0,0,.15.04.23.1.23.02.3.03.31-.14,0-.08.04-.05.08-.01.11.11.23.05.35-.08.04-.04.12-.05.2-.06.08,0,.12-.05.2-.14.04-.13.12-.21.16-.26.12-.13.46-.23.64-.23,0,0,.09,0,.04-.04,0,0,.14-.05.31-.03.22-.03.31-.02.22-.12,0-.09,0-.09.04-.13.22-.12.4-.09.49,0,0,0,.14.06.18.02.18.02.83-.24.88-.27l.05.06s.05-.04.09-.08c.05-.04.14-.11.24-.09t0-.1c-.05-.06-.06-.16-.11-.22,0-.1-.07-.26-.13-.42-.11-.12-.06-.16-.02-.2.1.02.15-.02.05-.39.02-.24-.79-1.15-1.98-1.8-.36-.22-.89-.49-1.19-.63-.23-.11-.63-.24-.78-.31-.15-.08-.33-.07-.41-.1-.08-.03-.18,0-.33-.06-.18,0-.55-.16-1.42-.42-1.2-.24-2.21-.41-4.01-.19-1.94.37-2.29.61-2.76.74-2.06.7-3.11,1.57-3.75,2.03-.61.51-.82.68-.85.71-.08.04-.38.34-.72.71-.32.38-.63.84-.8,1.12-.12.31-.25.52-.34.56,0,0-.18.28-.27.6-.12.4-.34.83-.43,1.06-.09.23-.31.67-.39.9-.08.23-.21.53-.31.68-.1.14-.3.53-.45,1.94-.1,1,.04,2.25.14,2.82.05.58.41,1.78.73,2.63.2.46.39.83.55,1.15.18.31.34.55.46.75.24.39.42.55.49.55.1.03.28.29.28.39-.08.16.99,1.19,1.08,1.1.09.02.27.18.23.23-.04.04.36.44.87.85.22.17.52.41.83.65.29.19.54.36.68.45,1.23.8,3.22,1.53,4.97,1.62,1.75.14,3.17-.2,3.34-.32.08-.02.32-.07.63-.15.26.02.85-.26,1.24-.38.36-.19.77-.46.84-.49.15-.06.48-.29.75-.46.31-.25.48-.28.55-.32.1.02.33-.08.53-.22.26-.19.49-.28.56-.33.07-.04.37-.32.69-.68.32-.31.44-.5.65-.72.21-.22.48-.49.95-1.09.61-.76.92-1.34,1.06-1.8.34-.82.33-.99.49-1.19.1-.22.24-.87.36-1.51.07-.65.13-1.28.09-1.48-.1-.8-.18-2.38-.79-4.21-.15-.44-.35-.85-.38-.92-.12-.12-.15-.19-.19-.42-.06-.14-.16-.35-.22-.49-.11-.11-.31-.44-.46-.7-.17-.43-.28-.45-.47-.51-.09-.03-.28-.08-.32-.14-.13-.18-.45-.21-.69-.03-.09.07-.28.13-.37.21-.13.02-.14.11-.15.2.03.14-.02.18-.07.22-.05.04-.06.12-.02.18-.01.09-.06.12-.11.16l-.05.04c-.01.09.02.14-.02.17-.1.08-.13.61-.09.84.06.23.1.54-.03.54-.06.03-.02.07.05.22q.07.15.04.1l-.12-.12-.04.2c-.03.08-.04.2-.02.25.02.05.07.15.01.17-.03.02,0,.67.11,1.01.04.2,0,.32-.03.43-.09.12-.13.23-.12.28.03.09.04.29,0,.45-.02.2,0,.44.06.73.03.19.05,1.04-.11,1.81-.33,1.24-.44,1.31-.45,1.63.03.24-.04.38-.31.81-.31.46-.52.78-1.36,1.35-.24.18-.76.58-1.38.88-.61.34-1.32.55-1.81.68-1.1.29-1.8.3-2.24.28-.44,0-.64-.04-.81-.03-.3,0-1.01-.17-1.7-.45-.7-.29-1.33-.76-1.64-1.04-.41-.35-.64-.55-.89-.85-.22-.13-.51-.42-.68-.67-.21-.16-.31-.4-.37-.36l-.13-.22c-.01-.11-.16-.52-.34-.95-.07-.23-.15-.46-.23-.67-.05-.22-.11-.41-.16-.54-.08-.16-.12-.51-.17-.86,0-.36-.02-.73.04-.95,0-.1.03-.82.24-1.55.1-.37.28-.7.38-.99.15-.26.26-.46.31-.52.05-.14.28-.35.43-.49.06-.13.41-.49.69-.82.26-.29.54-.49.58-.51,0,0,.18-.16.36-.4.21-.13.58-.45.89-.6.29-.18.51-.28.56-.29-.05-.11.51-.43.54-.36.02.06.34-.05.37-.13l.14-.05c.06.04.37.04.66.03.24-.05.48,0,.48,0,.05,0,.19-.04.43-.04Z"></path><path class="cls-1" d="m24.92,23.64c-.12.01-.15-.04-.11-.15.05-.11.17-.05.25.04.04.12.02.14-.14.1Zm1.77-.84q-.06.04-.03.02l.08-.06-.06.04Zm-.82.75l-.03.02.06-.04s0,0-.03.02Zm1.25-.69q-.13-.06-.11-.15c.02-.09.17-.05.25.04.1.08-.01.16-.14.1Zm-1.34,1.2s-.06-.03-.06-.03t0-.07s.03-.02.06.03v.07Zm.05.19c-.1-.08-.11-.15-.01-.14.06-.04.09,0,.13.06.04.12-.01.16-.11.08Zm.39.53c-.07-.1-.08-.17.07-.2.09,0,.12-.01.1.08-.05.11-.13.17-.17.12Zm21.73-14.26c.11-.08.33-.31.49-.43.22-.16.31-.22.29-.36.02-.09.05-.11.05-.11.06.03.35-.11.79-.43.9-.58,1.12-.74,1.19-.94,0,0,.05-.11.1-.15.04-.18.03-.25-.09-.3-.06-.03-.04-.05,0-.07.08-.06.04-.18-.07-.32-.04-.05-.04-.12-.05-.19,0-.07-.04-.12-.11-.21-.1-.08-.17-.17-.2-.22-.11-.15-.2-.45-.21-.59,0,0,0-.07-.04-.05,0,0-.04-.12-.06-.25-.05-.19-.06-.25-.11-.21q-.06-.03-.1-.08c-.11-.21-.13-.35-.07-.39,0,0,.02-.09-.01-.14-.02-.14-.32-.73-.36-.78l.03-.02s-.04-.05-.07-.1c-.04-.05-.11-.15-.11-.21t-.06-.03s-.09,0-.12.01c-.06-.03-.15-.04-.25-.04-.06.04-.09,0-.13-.06,0-.07-.04-.12-.26-.18-.16-.1-.59.13-.96.55-.14.1-.3.29-.41.37-.08.06-.19.21-.24.25-.06.04-.08.13-.1.15s-.02.09-.08.13c-.02.09-.16.19-.5.36-.42.3-.75.55-1.33,1.04-.6.58-.74.68-.9.81-1.51,1.03-1.88,1.22-1.91,1.24-.09,0-.62.38-.81.59-.08.13-.16.19-.22.16,0,0-.11.08-.19.21-.1.15-.27.27-.35.33s-.29.13-.37.19c-.08.06-.23.09-.32.09-.09,0-.27.04-.74.39-.33.24-.72.6-.91.74-.19.14-.58.49-.88.72-.63.53-.91.74-.87.85,0,.07-.1.15-.17.12-.1-.08-.53.39-.46.48,0,.07-.08.13-.11.08-.04-.05-.23.09-.45.26s-.56.34-.68.42c-1.07.63-2.88,1.95-2.92,2.2l-.22.16c-.12.01-.31.22-.45.32-.1.15-.24.32-.26.34-.06.04-.16.19-.27.27-.1.15-.19.14-.22.16-.06-.03-.18-.02-.27.04-.11.08-.23.09-.26.11s-.17.12-.3.29q-.27.27-.84.61c-.37.19-.59.36-.72.53-.27.27-.33.31-.45.32-.17.12-.85.77-.95.92-.17.35-.66.85-1.32,1.41-.17.12-.3.29-.33.31-.02.09-.05.11-.17.12-.06.04-.14.1-.2.14-.02.09-.16.19-.27.27-.2.07-.19.14-.18.28,0,.07.02.21,0,.23-.08.06-.03.32.15.56.07.1.15.26.22.36.04.12.11.15.17.17.09,0,.13.06.16.1.04.05.1.08.13.06.06.03.1.08.13.13l.04.05c.06.03.09,0,.13.06.07.1.48.25.62.21.15-.03.36-.04.4.08.04.05.06.03.15-.03s.08-.06.06-.04l-.05.11.15.04c.06.03.15.04.18.02s.08-.06.12-.01c.04.05.48-.05.67-.19.11-.08.2-.07.29-.07.13.06.22.06.25.04.06-.04.17-.12.29-.13.15-.03.29-.13.42-.3.11-.08.55-.47.99-.8.72-.53.78-.57.88-.79.04-.18.12-.24.4-.44.31-.22.5-.36,1.16-.62.37-.19,1.55-.91,2.14-1.33,1.27-1,1.52-1.18,1.68-1.37.3-.29,1.58-1.22,2.09-1.52l.7-.51c.1-.15.29-.36.46-.48.1-.15.24-.25.21-.3l.14-.1c.18.02,1.02-.59,1.29-.86.16-.19.72-.6,1-.73l.86-.63c.45-.26.87-.56.99-.57.08-.06.29-.13.43-.17.08-.06.4-.21.65-.4.22-.16.45-.26.48-.28,0,0,.14-.1.27-.27l.61-.45.36-.26c-.07-.1.26-.41.29-.36.04.05.23-.09.22-.16l.08-.06c.06.03.27-.04.47-.12.14-.1.31-.15.31-.15l.25-.18Z"></path></g></svg> 