<?xml version="1.0" encoding="UTF-8"?> <svg xmlns="http://www.w3.org/2000/svg" xmlns:xlink="http://www.w3.org/1999/xlink" id="Layer_2" viewBox="0 0 52.74 52.42"><defs><style>.cls-1{clip-path:url(#clippath);}.cls-2,.cls-3{fill:none;}.cls-2,.cls-3,.cls-4{stroke-width:0px;}.cls-5{clip-path:url(#clippath-1);}.cls-6{clip-path:url(#clippath-3);}.cls-7{clip-path:url(#clippath-2);}.cls-3{clip-rule:evenodd;}.cls-4{fill:#040404;}</style><clipPath id="clippath"><path class="cls-3" d="m15.29,5.49c-.44.18-.47.13-.09-.16.38-.29.71-.34.77-.23-.09.18-.22.26-.68.38Zm8.33-2.31q-.31.04-.15.02l.46-.06-.31.04Zm-4.75,1.23l-.15.05c.15-.05.29-.1.29-.1.15-.05,0,0-.15.05Zm6.15-1.07c-.31-.11-.31-.11-.01-.18.3-.07.77.04.77.16.15.12-.45.13-.76.02Zm-7.57,2.02c-.14.06-.16,0-.16,0q-.03-.05.11-.12s.14-.06.16,0l-.11.12Zm-.2.29c-.19-.05-.08-.16.22-.23.28-.12.3-.07.32-.01-.09.17-.36.29-.55.24Zm.27.6c-.05-.11.06-.22.62-.41.29-.06.42-.12.18.05-.38.23-.77.41-.8.36ZM6.17,27.03c-.02-.55-.13-1.78-.03-2.6.04-1.1.18-1.5.09-1.79-.01-.28,0-.42,0-.42.08-.12.3-1.36,1.06-3.42.76-2,1.5-3.12,1.96-3.88.43-.78.75-1.11.89-1.43,0,0,.2-.37.37-.59.24-.52.33-.63.03-.51-.14.06-.05-.04.05-.14.29-.31.29-.49.16-.61-.04-.04,0-.18.06-.33.05-.15.01-.19-.08-.27-.19.03-.27-.06-.32-.1-.13-.12-.04-.66.08-.97,0,0,.06-.15-.04-.04,0,0,0-.21.16-.49.11-.33.18-.48-.05-.28q-.16.06-.2.02c-.05-.28.11-.57.34-.78,0,0,.2-.25.16-.3.16-.3.1-1.13.07-1.18l.12-.11s-.04-.05-.08-.09c-.04-.05-.11-.14-.02-.3t-.16.06c-.13.11-.29.17-.42.28-.16.07-.46.24-.75.42-.25.22-.29.18-.34.14.09-.16.05-.2-.59.12-.36.11-2.17,1.78-3.64,4.15-.44.75-1.07,1.78-1.35,2.41-.23.47-.55,1.27-.7,1.58-.16.31-.2.66-.27.82-.06.16-.06.34-.18.67-.03.17-.12.46-.29.92-.17.46-.33,1.13-.61,2.03-.19.62-.24,1.23-.35,1.83-.1.6-.21,1.21-.23,1.87-.11,1.3-.12,2.76.07,4.64.62,4.06,1.12,4.82,1.4,5.79,1.46,4.3,3.31,6.48,4.27,7.81,1.08,1.26,1.43,1.7,1.51,1.75.1.14.75.76,1.51,1.46.78.67,1.74,1.33,2.3,1.72.62.31,1.05.58,1.17.72,0,0,.13.08.37.22.23.12.51.31.84.42.8.31,1.71.78,2.18.97.41.17,1.48.6,1.9.76.48.17,1.13.38,1.45.53.16.07.44.18,1.04.36.61.1,1.54.35,2.99.48.51.03,1.06.06,1.61.1.55.03,1.1-.03,1.63-.04,1.06-.01,1.99-.18,2.59-.25,1.2-.09,3.7-.78,5.47-1.43.95-.39,1.74-.78,2.41-1.09.65-.36,1.16-.68,1.58-.92.84-.48,1.18-.81,1.22-.9.11-.15.66-.54.83-.59.27.07,2.49-2.07,2.4-2.15.1-.15.43-.52.48-.48.02.02.23-.19.56-.52.31-.35.79-.78,1.18-1.33.41-.55.92-1.17,1.35-1.76.4-.62.74-1.16.91-1.44.8-1.31,1.59-2.99,2.22-4.8.28-.92.54-1.86.75-2.8.14-.96.37-1.89.4-2.8.32-3.65-.32-6.62-.49-7.01-.04-.16-.15-.66-.3-1.33-.01-.52-.53-1.79-.79-2.6-.33-.79-.85-1.67-.9-1.83-.06-.12-.2-.4-.36-.72-.2-.32-.39-.65-.54-.91-.47-.7-.59-1.02-.67-1.17-.02-.19-.28-.62-.57-1.04-.39-.55-.64-1-.74-1.14-.08-.15-.66-.78-1.37-1.5-.62-.69-1.01-.96-1.47-1.4-.23-.21-.48-.46-.84-.79-.37-.31-.85-.68-1.48-1.18-1.62-1.23-2.83-1.88-3.78-2.25-.43-.19-.77-.35-1.04-.46-.3-.11-.51-.19-.68-.25-.36-.13-.55-.22-.78-.34-.46-.22-1.82-.55-3.16-.85-1.36-.2-2.7-.38-3.12-.33-.42.02-.95.02-1.56.02-.69.05-1.38.1-2.1.15-.78.05-1.62.24-2.54.36-.9.19-1.86.42-2.86.71-.95.31-1.87.68-2.02.74-.28.19-.43.26-.91.4-.3.14-.76.34-1.06.47-.28.18-.98.61-1.56.93-.9.43-.98.6-1.19.89-.1.14-.3.43-.43.53-.4.28-.65.76-.46,1,.07.09.06.33.13.42-.05.19.11.14.27.1.29-.13.32-.08.36-.04.04.05.2,0,.32-.08.16-.04.2,0,.23.06l.04.05c.16-.04.28-.13.32-.08.08.11,1.1-.24,1.66-.45.54-.24,1.23-.5,1.16-.32.03.06.14-.04.54-.22q.4-.18.26-.12l-.37.23.45-.07c.16,0,.44-.07.57-.12.13-.06.39-.17.41-.12.02.04.41-.13.95-.23.54-.12,1.18-.29,1.65-.44.55-.12.84-.12,1.12-.13.3.06.58.05.71.02.27-.07.82-.11,1.24-.11.28,0,.59-.03.93-.07.34,0,.72-.03,1.14-.07.55-.08,2.91-.03,5.08.46,3.48.93,3.65,1.26,4.47,1.47.28.07.51.15.83.28.31.17.69.41,1.29.77,1.27.85,2.12,1.41,3.92,3.54.54.63,1.7,2.03,2.61,3.76.51.83.86,1.79,1.25,2.65.17.44.29.89.43,1.29.13.41.27.79.33,1.14.77,3.14.73,5.11.65,6.34-.03,1.25-.17,1.79-.21,2.27-.05.83-.56,2.79-1.36,4.73-.82,1.94-2.11,3.72-2.86,4.62-.99,1.15-1.54,1.77-2.4,2.48-.25.24-.55.59-.91.89-.37.29-.76.58-1.1.83-.51.49-1.16.77-1.12.84-.12.07-.36.21-.61.35-.25.12-1.35.58-2.55,1.07-.62.2-1.26.41-1.85.61-.6.14-1.13.27-1.5.37-.47.16-1.41.24-2.38.38-.98.01-1.99.08-2.62-.04-.14-.02-.7-.03-1.48-.11-.77-.14-1.78-.24-2.79-.56-1.02-.25-1.97-.7-2.75-.98-.75-.38-1.3-.67-1.47-.78-.39-.15-1.04-.69-1.49-1.01-.18-.1-.56-.34-.97-.71-.42-.36-.97-.71-1.41-1.16-.37-.36-.74-.72-1.05-1.01-.27-.29-.42-.52-.47-.57,0,0-.45-.51-1.05-1.1-.38-.58-1.25-1.65-1.68-2.52-.23-.42-.46-.77-.59-1.05-.12-.28-.21-.47-.24-.53-.11.05-.91-1.57-.8-1.61.06-.02-.24-.94-.35-1.05l-.13-.39c.02-.15-.09-.97-.22-1.79-.09-.33-.08-.68-.11-.94-.01-.23-.02-.43-.02-.43,0-.14-.11-.54-.11-1.22Z"></path></clipPath><clipPath id="clippath-1"><rect class="cls-2" x="1" y="1" width="50.74" height="50.42"></rect></clipPath><clipPath id="clippath-2"><path class="cls-3" d="m16.23,12.93c0-.08.05-.11.13-.08.08.03.02.12-.07.17-.1.04-.11.02-.06-.09Zm.28,1.46q.06-.09.13-.08c.06,0,.01.12-.07.17-.07.07-.12,0-.06-.09Zm-.87-.8c.07-.07.13-.08.11-.02.02.04-.02.06-.06.09-.09.04-.12,0-.04-.07Zm-.46.3c.08-.05.14-.06.14.04-.02.06,0,.08-.07.07-.08-.03-.11-.08-.07-.11Zm7.69,14.04c.05.07.19.21.26.31.09.14.12.2.23.18.06,0,.08.03.08.03-.03.05.03.23.21.52.31.58.4.72.54.76,0,0,.08.03.1.06.13.02.18,0,.24-.08.03-.04.04-.03.05,0,.04.05.13.02.26-.06.04-.03.1-.04.15-.04.05,0,.1-.04.18-.09.07-.07.16-.12.2-.15.13-.08.37-.16.48-.18,0,0,.05,0,.04-.03,0,0,.1-.04.2-.05.15-.05.2-.06.18-.09t.07-.07c.18-.09.29-.11.31-.07,0,0,.07,0,.11-.02.11-.02.61-.26.65-.29v.02s.1-.05.1-.05c.04-.03.13-.08.18-.09t.03-.04s.02-.06,0-.08c.03-.04.05-.11.07-.17-.02-.04.02-.06.06-.09.05,0,.1-.04.18-.19.1-.12-.01-.39-.28-.62-.06-.09-.18-.19-.22-.26-.03-.05-.13-.12-.16-.15-.02-.04-.09-.04-.1-.06-.01-.02-.07-.01-.09-.05-.07,0-.12-.1-.21-.32-.17-.27-.31-.48-.6-.85-.36-.38-.41-.46-.48-.57-.56-.97-.66-1.21-.67-1.23.02-.06-.2-.4-.33-.52-.09-.04-.12-.1-.09-.14,0,0-.04-.07-.13-.12-.1-.06-.17-.17-.2-.22-.03-.05-.06-.19-.1-.24-.03-.05-.04-.15-.02-.21.02-.06,0-.18-.19-.48-.14-.21-.35-.46-.43-.58-.08-.12-.29-.37-.42-.56-.32-.4-.43-.58-.52-.54-.05,0-.1-.06-.07-.11.07-.07-.22-.34-.3-.29-.05,0-.09-.04-.04-.07.04-.03-.04-.15-.13-.29-.09-.14-.17-.37-.22-.44-.33-.7-1.07-1.86-1.25-1.87-.01-.02-.05-.07-.09-.14,0-.08-.12-.2-.18-.29-.1-.06-.21-.14-.22-.16-.02-.04-.12-.1-.17-.17-.1-.06-.08-.12-.09-.14.03-.04.04-.12,0-.18-.05-.07-.04-.15-.05-.17-.01-.02-.07-.11-.18-.19q-.17-.17-.34-.54c-.09-.24-.18-.38-.3-.46-.17-.17-.19-.21-.18-.29-.07-.11-.46-.54-.56-.6-.24-.1-.55-.4-.88-.82-.07-.11-.18-.19-.19-.21-.07,0-.08-.03-.07-.11-.02-.04-.06-.09-.08-.12-.07,0-.12-.1-.17-.17-.03-.13-.08-.12-.19-.11-.05,0-.16.03-.17,0-.03-.05-.24,0-.45.13-.08.05-.22.12-.31.17-.1.04-.13.08-.16.12-.02.06-.06.09-.1.12-.04.03-.07.07-.06.09-.03.04-.07.07-.12.1l-.04.03s-.02.06-.06.09c-.09.05-.26.34-.26.44s-.02.24-.12.28c-.04.03-.03.04,0,.1q.03.05.02.04l-.08-.03-.05.11s-.05.11-.04.12c.01.02.03.05,0,.08-.04.03-.03.32.05.45.05.07.03.14,0,.2-.06.09-.08.15-.07.17.02.04.07.11.06.19,0,.1.06.19.17.27.04.07.28.35.46.63.3.46.32.5.47.55.13.02.16.07.28.25.12.2.21.32.31.76.09.24.46,1.01.7,1.39.58.81.68.97.8,1.07.18.19.7,1.01.85,1.34.12.2.19.3.28.45.1.06.23.18.3.29.1.06.16.15.2.12.01.02.03.05.06.09-.04.12.3.66.47.83.12.1.35.46.41.64.02.04.18.29.35.55.13.3.3.56.29.64.03.05.06.19.06.29.03.05.11.26.21.42.09.14.13.29.14.31,0,0,.06.09.17.17.06.09.17.27.25.39.08.12.14.21.15.23.09-.05.28.15.23.18-.04.03.04.15.09.14.01.02.02.04.03.05-.03.05,0,.18.02.31.06.09.07.21.07.21.01.02.05.07.1.16Z"></path></clipPath><clipPath id="clippath-3"><path class="cls-3" d="m37.04,22.56c.07.02.09.06.07.13-.02.07-.09,0-.14-.09-.04-.09-.02-.1.07-.04Zm-1.16.02q.08.07.07.13c0,.06-.09,0-.14-.09-.06-.08,0-.11.07-.04Zm.59-.68c.06.08.07.13.02.1-.03.01-.05-.03-.08-.07-.04-.1,0-.11.05-.03Zm-.27-.48c.05.09.06.14-.02.13-.05-.03-.07-.02-.06-.08.02-.07.06-.09.08-.05Zm-10.81,4.89c-.05.03-.15.14-.23.19-.11.06-.15.08-.13.19,0,.06-.02.07-.02.07-.04-.04-.19-.01-.4.11-.45.19-.56.26-.58.38,0,0-.02.07-.04.08,0,.12,0,.17.08.24.04.03.02.04.01.05-.04.02,0,.12.07.25.02.04.04.09.05.15.01.05.04.09.08.18.06.08.11.17.14.21.07.13.16.37.18.47,0,0,.01.05.02.04,0,0,.04.1.06.2.05.15.06.2.09.18t.06.08c.08.18.11.28.08.3,0,0,0,.06.02.1.02.1.25.61.27.65h-.01s.05.1.05.1c.02.04.07.13.08.18t.04.03s.05.03.07.02c.04.04.09.06.14.09.03-.02.05.03.08.07.01.05.04.1.16.19.1.11.32.05.49-.16.07-.04.14-.14.19-.17.04-.02.08-.1.11-.12.03-.01.03-.07.04-.08.01,0,0-.06.03-.07,0-.06.07-.1.25-.14.2-.11.37-.21.64-.42.28-.27.35-.31.43-.36.75-.36.94-.41.95-.42.05.03.31-.12.4-.22.03-.07.07-.1.11-.06,0,0,.06-.03.09-.11.04-.08.12-.13.17-.15.04-.02.15-.03.19-.05.04-.02.12-.01.17.02.05.03.15.03.38-.1.16-.09.34-.25.44-.31.09-.05.27-.21.43-.3.3-.23.44-.31.4-.4-.01-.05.04-.08.08-.05.06.08.26-.15.21-.23-.01-.05.03-.07.05-.03.03.04.12-.01.23-.07.11-.06.28-.1.34-.13.54-.19,1.43-.69,1.42-.86.01,0,.05-.03.11-.06.07.02.15-.08.22-.12.04-.08.1-.17.11-.18.03-.01.07-.1.12-.13.04-.08.1-.05.11-.06.04.04.1.06.14.03.05-.03.12-.01.13-.02.01,0,.08-.05.14-.14q.13-.13.41-.23c.19-.05.3-.11.35-.2.13-.13.15-.14.22-.12.08-.05.4-.34.44-.42.06-.21.29-.45.6-.69.08-.05.14-.14.15-.14,0-.06.02-.07.08-.05.03-.01.07-.04.1-.05,0-.06.07-.1.12-.13.11,0,.1-.05.07-.16-.01-.05-.03-.15-.02-.16.04-.02-.02-.22-.14-.44-.05-.09-.11-.22-.16-.31-.04-.1-.07-.13-.11-.17-.05-.03-.08-.07-.1-.12-.02-.04-.06-.08-.08-.07-.04-.03-.06-.08-.09-.12l-.02-.04s-.05-.03-.08-.07c-.05-.09-.29-.29-.37-.31-.08-.01-.2-.06-.23-.16-.03-.04-.04-.04-.08-.01t-.03.01l.02-.07-.09-.06s-.09-.06-.1-.06c-.01,0-.04.02-.07-.02-.02-.04-.26-.08-.36-.03-.06.03-.11,0-.16-.03-.08-.07-.13-.1-.14-.09-.03.02-.08.05-.15.03-.08-.01-.15.03-.2.12-.05.03-.26.2-.48.33-.35.2-.38.22-.41.35,0,.12-.05.14-.18.22-.15.08-.25.14-.59.16-.19.05-.78.27-1.07.43-.62.41-.74.47-.81.57-.14.14-.77.49-1.02.58-.15.08-.23.13-.34.19-.04.08-.13.19-.21.23-.04.08-.11.12-.09.16-.01,0-.04.02-.07.04-.1-.06-.51.17-.64.3-.07.1-.34.25-.49.28-.03.01-.22.12-.42.24-.23.07-.43.19-.5.17-.04.02-.15.03-.23.01-.04.02-.2.06-.32.13-.11.06-.23.07-.24.08,0,0-.07.04-.13.13-.07.04-.21.11-.3.17-.1.05-.16.09-.18.1.05.09-.1.23-.13.19-.02-.04-.12.01-.11.06-.01,0-.03.01-.04.02-.04-.04-.15-.03-.25-.03-.07.04-.16.03-.16.03-.01,0-.05.03-.12.07Z"></path></clipPath></defs><g id="Layer_1-2"><g class="cls-1"><g class="cls-5"><rect class="cls-4" width="52.74" height="52.42"></rect></g></g><g class="cls-7"><rect class="cls-4" x="13.84" y="11.13" width="15.3" height="19.67"></rect></g><g class="cls-6"><rect class="cls-4" x="22.98" y="19.96" width="15.74" height="12.29"></rect></g></g></svg> 