<svg xmlns="http://www.w3.org/2000/svg" viewBox="0 0 40 43">
  <path fill="#000" fill-rule="evenodd" d="m14.448 37.362-2.15 1.292c-.456.265-.771.448-.994.588-.16.096-.083.065-.12.091a1.742 1.742 0 0 0-.124.091c-.181.105-.28.143-.28.143-.027 0-.104.018-.226.055-.128.02-.304.046-.523.09a6.144 6.144 0 0 1-1.893.037c-.193-.041-.384-.046-.556-.104l-.493-.143c-.157-.046-.294-.123-.432-.175-.134-.061-.271-.099-.381-.175-.223-.14-.446-.228-.611-.362-.17-.123-.322-.23-.457-.327-.236-.23-.44-.376-.575-.519a3.866 3.866 0 0 0-.339-.329s-.063-.048-.127-.127a4.13 4.13 0 0 1-.197-.267c-.302-.293-.364-.386-.342-.158.029.105-.042.024-.082-.076-.136-.284-.257-.347-.364-.3-.036.016-.12-.066-.207-.151-.076-.09-.11-.078-.184-.05-.037.137-.106.166-.143.18-.112.048-.407-.227-.565-.441 0 0-.078-.108-.038.01 0 0-.029-.023-.077-.075-.044-.052-.128-.128-.184-.245-.164-.223-.229-.348-.177-.091-.013.137-.013.137-.05.146-.18-.09-.31-.343-.362-.61 0 0-.094-.261-.123-.259-.096-.254-.554-.66-.594-.664l-.008-.146-.08.001c-.038.001-.117.004-.164-.147-.04 0-.04 0-.03.15.008.151-.021.304-.012.455-.017.153-.072.463-.036.77.06.304.022.31-.017.319-.067-.145-.111-.145-.096.504-.02.086.022.282.098.57.08.286.177.67.393 1.084.362.86 1.086 1.877 2.067 2.724.574.578 1.569 1.143 2.143 1.436.211.12.523.219.805.33.282.115.558.184.714.225.314.085.633.142.791.168.16.026.328.015.646.063.081.002.191.01.339.027.148.011.334.009.565.018.462.028 1.108.014 1.984-.118l.866-.197c.273-.088.54-.19.809-.287l.212-.08.121-.045a.625.625 0 0 0 .148-.07l.38-.223c.208-.12.419-.244.636-.372l3.08-1.826c2.702-1.657 3.272-1.989 3.958-2.386l6.024-3.435 1.554-.874c.249-.1 2.419-1.359 3.313-1.922.436-.298.778-.497.913-.53 0 0 .457-.266.893-.563a33.423 33.423 0 0 1 1.58-.962c.289-.167.835-.452 1.193-.65l-.153.078c.107-.055.19-.095.263-.132.224-.126.51-.231.742-.394l.614-.384a4.83 4.83 0 0 0 .301-.247c.13-.123.329-.264.524-.52l.34-.428c.122-.165.23-.366.36-.586.25-.442.479-1.019.635-1.743a6.222 6.222 0 0 0-.237-3.24c-.354-1.02-.967-1.803-1.385-2.253-.1-.119-.24-.226-.383-.357-.148-.12-.304-.283-.484-.393-.18-.115-.371-.24-.57-.368l-.511-.31-2.027-1.238c-2.71-1.64-3.83-2.338-3.984-2.341-.132-.037-.58-.316-.672-.419-.072-.134-2.13-1.325-2.17-1.258-.132-.037-.469-.246-.448-.28.01-.015-.18-.145-.488-.34-.309-.196-.726-.458-1.173-.737l-2.557-1.636c-3.995-2.575-11.28-7.105-11.9-7.355-.113-.07-.448-.28-.897-.558A4.238 4.238 0 0 0 9.66.78c-.196-.1-.424-.209-.663-.316C8.514.27 7.987.115 7.558.055c-.422-.074-.896-.053-1.276-.05l-.757.089c-.166.028-.453.1-.778.182-.313.118-.675.226-.97.379l-.472.25c-.129.076-.23.146-.32.199l-.354.216c-.08.032-.217.126-.387.249a2.88 2.88 0 0 0-.53.472l-.321.343c-.085.11-.165.215-.24.31-.138.185-.25.315-.286.391-.04.074-.161.296-.318.618-.075.163-.133.36-.206.57-.08.21-.127.445-.165.691-.103.45-.096.789-.114 1.092l-.01.22.003.17c0 .113 0 .228.002.349l-.03 2.34c-.039 1.56-.039 2.6 0 3.379.04 1.43.04 1.69 0 2.08 0 .78.08 4.29.118 4.94.118 1.299.196 3.898.236 7.149 0 .78.039 1.559.039 1.689.039.26.039.39 0 .78v.91c.039.26.039.91.039 1.43-.04.78 0 .91.079 1.17.039.13.117.39.117.52 0 .39.156.78.352.78.08 0 .197.13.275.13.079.13.118 0 .157-.13.039-.26.079-.26.118-.26.038 0 .077-.13.077-.26.04-.13.08-.13.118-.13h.04c.04-.13.04-.26.078-.26.078 0 .314-.91.353-1.43.039-.52.118-1.17.196-1.04.038 0 .038-.13.038-.52v-.26l.04.39.078-.39c.04-.13.08-.39.08-.52s0-.39.038-.39c.02 0 .059-.39.093-.894.034-.503.064-1.12.064-1.575 0-.52.039-.78.078-1.04.079-.26.118-.52.118-.65 0-.26 0-.78.039-1.17.04-.52.04-1.17 0-1.95l-.04-4.81c0-3.379 0-3.639-.077-4.42-.079-.519-.079-.909-.079-2.209 0-.715 0-1.3.015-2.03.01-.358.02-.758.035-1.242l.013-.369c.006-.122.007-.278.025-.357.03-.192.037-.404.115-.613l.052-.222.104-.257c.019-.046.037-.095.055-.146.028-.046.055-.095.084-.144.063-.096.098-.213.187-.31a3.381 3.381 0 0 1 1.308-1.116 3.47 3.47 0 0 1 1.82-.344c.297.028.58.094.837.189.14.03.235.103.346.148l.158.07.224.138c5.287 3.243 6.296 3.87 7.1 4.325 1.366.804 6.521 4.01 8.406 5.227 1.233.767 1.905 1.186 2.802 1.742.581.316 1.497.841 2.17 1.26.58.315 1.14.664 1.16.631.113.069.337.21.562.347.203.173 1.146.782 2.194 1.44.527.325 1.075.666 1.572.973l1.163.71c.17.076.333.234.545.406l.283.321c.089.12.161.258.251.387.307.549.396 1.225.35 1.628 0 .09-.02.455-.163.94a3.058 3.058 0 0 1-1.03 1.463c-.128.077-.238.174-.37.243-.136.064-.269.13-.396.198l-.156.08c-1.299.73-2.406 1.365-2.689 1.495-.343.2-1.048.564-1.525.796-.343.199-1.505.829-2.533 1.425-.913.53-1.733.962-1.847 1.027 0 0-.57.332-1.237.763l-2.512 1.458-1.485.862c.04.066-1.424.96-1.445.927-.02-.033-.82.431-.913.53l-.343.2c-.135.032-.84.398-1.545.762-.571.332-1.162.63-1.162.63l-1.028.597Zm-12.641-7.54c-.127 0-.19-.196-.127-.977.063-.392.063-.587.127-.196.063.586.063 1.173 0 1.173Zm-.726-.062c-.127.158-.19 0-.127-.316 0-.315.064-.315.127-.315.126.157.126.474 0 .631Zm.035-.284c0 .212-.063.212-.063.212-.063 0-.063 0-.063-.212 0 0 0-.212.063-.212l.063.212Zm-.007-6.745c-.126.208-.126.208-.19 0-.063-.208.064-.522.19-.522.126-.104.126.314 0 .522Zm-.056 5.357v.211-.422.21Zm0-4.748v.211-.635.424Zm-.646 7.438c-.063.575-.126.575-.19 0-.063-.573.064-.956.19-.956.126.191.126.383 0 .956Z"/>
</svg>