<?xml version="1.0" encoding="UTF-8"?> <svg xmlns="http://www.w3.org/2000/svg" id="Layer_2" viewBox="0 0 100.5 100.5"><defs><style>.cls-1{fill:none;}.cls-1,.cls-2,.cls-3{stroke-width:0px;}.cls-3{fill:#8ee167;}</style></defs><g id="Layer_1-2"><path class="cls-3" d="m20.14,63.51c-3.41,0-6.81-1.29-9.41-3.87-2.52-2.51-3.91-5.84-3.91-9.39s1.39-6.88,3.91-9.39c5.18-5.16,13.62-5.16,18.81,0,2.52,2.51,3.91,5.84,3.91,9.39s-1.39,6.88-3.91,9.39c-2.59,2.58-6,3.87-9.41,3.87Zm0-17.52c-1.1,0-2.21.42-3.05,1.25h0c-.81.8-1.25,1.87-1.25,3s.44,2.2,1.25,3c1.68,1.67,4.42,1.67,6.1,0,.81-.8,1.25-1.87,1.25-3s-.44-2.2-1.25-3c-.84-.84-1.95-1.25-3.05-1.25Zm-6.23-1.94h0,0Z"></path><path class="cls-2" d="m20.14,32.9c-3.41,0-6.81-1.29-9.41-3.87-2.52-2.51-3.91-5.84-3.91-9.39s1.39-6.88,3.91-9.39c5.19-5.16,13.62-5.16,18.81,0,2.52,2.51,3.91,5.84,3.91,9.39s-1.39,6.88-3.91,9.39c-2.59,2.58-6,3.87-9.41,3.87Zm-6.23-19.46l3.18,3.19c-.81.8-1.25,1.87-1.25,3s.44,2.2,1.25,3c1.68,1.67,4.42,1.67,6.1,0,.81-.8,1.25-1.87,1.25-3s-.44-2.2-1.25-3c-1.68-1.67-4.42-1.67-6.1,0l-3.18-3.19Z"></path><path class="cls-3" d="m20.14,94.12c-3.41,0-6.81-1.29-9.41-3.87-2.52-2.51-3.91-5.84-3.91-9.39s1.39-6.88,3.91-9.39c5.18-5.16,13.62-5.16,18.81,0,2.52,2.51,3.91,5.84,3.91,9.39s-1.39,6.88-3.91,9.39c-2.59,2.58-6,3.87-9.41,3.87Zm0-17.52c-1.1,0-2.21.42-3.05,1.25h0c-.81.8-1.25,1.87-1.25,3s.44,2.2,1.25,3c1.68,1.67,4.42,1.67,6.1,0,.81-.8,1.25-1.87,1.25-3s-.44-2.2-1.25-3c-.84-.84-1.95-1.25-3.05-1.25Zm-6.23-1.94h0,0Z"></path><path class="cls-2" d="m83.55,24.19h-38.57c-2.49,0-4.5-2.01-4.5-4.5s2.01-4.5,4.5-4.5h38.57c2.49,0,4.5,2.01,4.5,4.5s-2.01,4.5-4.5,4.5Z"></path><path class="cls-3" d="m83.55,85.42h-38.57c-2.49,0-4.5-2.01-4.5-4.5s2.01-4.5,4.5-4.5h38.57c2.49,0,4.5,2.01,4.5,4.5s-2.01,4.5-4.5,4.5Z"></path><path class="cls-3" d="m83.55,54.8h-38.57c-2.49,0-4.5-2.01-4.5-4.5s2.01-4.5,4.5-4.5h38.57c2.49,0,4.5,2.01,4.5,4.5s-2.01,4.5-4.5,4.5Z"></path><path class="cls-3" d="m83.55,70.11h-38.57c-2.49,0-4.5-2.01-4.5-4.5s2.01-4.5,4.5-4.5h38.57c2.49,0,4.5,2.01,4.5,4.5s-2.01,4.5-4.5,4.5Z"></path><path class="cls-3" d="m83.55,39.5h-38.57c-2.49,0-4.5-2.01-4.5-4.5s2.01-4.5,4.5-4.5h38.57c2.49,0,4.5,2.01,4.5,4.5s-2.01,4.5-4.5,4.5Z"></path><path class="cls-1" d="m100.5,100.5H0V0h100.5v100.5Zm-100-.5h99.5V.5H.5v99.5Z"></path></g></svg> 