<?xml version="1.0" encoding="UTF-8"?> <svg xmlns="http://www.w3.org/2000/svg" id="Layer_2" viewBox="0 0 100.5 100.5"><defs><style>.cls-1{fill:none;}.cls-1,.cls-2,.cls-3{stroke-width:0px;}.cls-3{fill:#fd9c8a;}</style></defs><g id="Layer_1-2"><path class="cls-3" d="m39.18,97.83H10.45c-4.14,0-7.5-3.36-7.5-7.5v-19.46c0-4.14,3.36-7.5,7.5-7.5h28.73c4.14,0,7.5,3.36,7.5,7.5v19.46c0,4.14-3.36,7.5-7.5,7.5Zm-27.23-9h25.73v-16.46H11.95v16.46Z"></path><path class="cls-2" d="m69.23,59.56H31.01c-5.15,0-9.33-4.19-9.33-9.33V12c0-5.15,4.19-9.33,9.33-9.33h38.22c5.15,0,9.33,4.19,9.33,9.33v38.22c0,5.15-4.19,9.33-9.33,9.33ZM31.01,11.67c-.18,0-.33.15-.33.33v38.22c0,.18.15.33.33.33h38.22c.18,0,.33-.15.33-.33V12c0-.18-.15-.33-.33-.33H31.01Z"></path><path class="cls-3" d="m90.05,97.83h-28.73c-4.14,0-7.5-3.36-7.5-7.5v-19.46c0-4.14,3.36-7.5,7.5-7.5h28.73c4.14,0,7.5,3.36,7.5,7.5v19.46c0,4.14-3.36,7.5-7.5,7.5Zm-27.23-9h25.73v-16.46h-25.73v16.46Z"></path><path class="cls-2" d="m87.94,21.2h-13.3c-2.49,0-4.5-2.01-4.5-4.5s2.01-4.5,4.5-4.5h13.3c2.49,0,4.5,2.01,4.5,4.5s-2.01,4.5-4.5,4.5Z"></path><path class="cls-2" d="m87.94,34.94h-13.3c-2.49,0-4.5-2.01-4.5-4.5s2.01-4.5,4.5-4.5h13.3c2.49,0,4.5,2.01,4.5,4.5s-2.01,4.5-4.5,4.5Z"></path><path class="cls-2" d="m87.94,48.69h-13.3c-2.49,0-4.5-2.01-4.5-4.5s2.01-4.5,4.5-4.5h13.3c2.49,0,4.5,2.01,4.5,4.5s-2.01,4.5-4.5,4.5Z"></path><path class="cls-2" d="m24.53,21.2h-13.3c-2.49,0-4.5-2.01-4.5-4.5s2.01-4.5,4.5-4.5h13.3c2.49,0,4.5,2.01,4.5,4.5s-2.01,4.5-4.5,4.5Z"></path><path class="cls-2" d="m24.53,34.94h-13.3c-2.49,0-4.5-2.01-4.5-4.5s2.01-4.5,4.5-4.5h13.3c2.49,0,4.5,2.01,4.5,4.5s-2.01,4.5-4.5,4.5Z"></path><path class="cls-2" d="m24.53,48.69h-13.3c-2.49,0-4.5-2.01-4.5-4.5s2.01-4.5,4.5-4.5h13.3c2.49,0,4.5,2.01,4.5,4.5s-2.01,4.5-4.5,4.5Z"></path><path class="cls-1" d="m100.5,100.5H0V0h100.5v100.5Zm-100-.5h99.5V.5H.5v99.5Z"></path></g></svg> 