<?xml version="1.0" encoding="UTF-8"?> <svg xmlns="http://www.w3.org/2000/svg" xmlns:xlink="http://www.w3.org/1999/xlink" width="66px" height="51px" viewBox="0 0 66 51" version="1.1"><title>Group 147</title><defs><polygon id="path-1" points="-1.38777878e-16 0 50.739684 0 50.739684 50.4189612 -1.38777878e-16 50.4189612"></polygon></defs><g id="Design" stroke="none" stroke-width="1" fill="none" fill-rule="evenodd"><g id="Group-111" transform="translate(0, 0)"><rect id="Rectangle-Copy-27" fill="#CDA9F9" x="0" y="4.54747351e-12" width="54.8387097" height="50" rx="25"></rect><g id="Group-8" transform="translate(15, 0)"><g id="Group-3"><mask id="mask-2" fill="white"><use xlink:href="#path-1"></use></mask><g id="Clip-2"></g><path d="M5.16710907,26.0266 C5.14910907,25.4816 5.03410907,24.2486 5.13510907,23.4266 C5.17810907,22.3276 5.31010907,21.9306 5.22010907,21.6376 C5.20610907,21.3556 5.22810907,21.2176 5.22810907,21.2176 C5.30910907,21.0946 5.53210907,19.8616 6.28610907,17.7966 C7.04310907,15.8006 7.78810907,14.6736 8.24810907,13.9156 C8.67810907,13.1316 8.99710907,12.8096 9.13510907,12.4836 C9.13510907,12.4836 9.33710907,12.1166 9.50310907,11.8946 C9.74510907,11.3786 9.83010907,11.2606 9.53710907,11.3796 C9.39510907,11.4436 9.49110907,11.3406 9.58710907,11.2376 C9.87510907,10.9296 9.88210907,10.7456 9.74910907,10.6236 C9.70510907,10.5836 9.75810907,10.4386 9.81210907,10.2916 C9.86610907,10.1446 9.82310907,10.1036 9.73610907,10.0206 C9.55010907,10.0456 9.46210907,9.9636 9.41810907,9.9226 C9.28510907,9.8006 9.37310907,9.2656 9.49610907,8.9566 C9.49610907,8.9566 9.55710907,8.8026 9.45410907,8.9136 C9.45410907,8.9136 9.45910907,8.7046 9.61110907,8.4196 C9.71710907,8.0866 9.79510907,7.9376 9.56110907,8.1436 C9.40310907,8.2026 9.40310907,8.2026 9.36210907,8.1596 C9.31210907,7.8836 9.46910907,7.5856 9.70710907,7.3756 C9.70710907,7.3756 9.90610907,7.1216 9.86610907,7.0756 C10.0231091,6.7776 9.96910907,5.9476 9.93410907,5.8996 L10.0581091,5.7906 C10.0581091,5.7906 10.0201091,5.7436 9.98310907,5.6966 C9.94510907,5.6506 9.86910907,5.5566 9.95810907,5.4006 C9.92110907,5.3536 9.92110907,5.3536 9.79410907,5.4636 C9.66810907,5.5736 9.50410907,5.6376 9.37710907,5.7486 C9.21210907,5.8136 8.92010907,5.9906 8.62610907,6.1696 C8.37210907,6.3936 8.33110907,6.3496 8.29010907,6.3056 C8.37710907,6.1496 8.33910907,6.1016 7.70110907,6.4266 C7.34010907,6.5316 5.52710907,8.2076 4.06110907,10.5756 C3.62110907,11.3216 2.99110907,12.3596 2.70710907,12.9896 C2.47910907,13.4556 2.15810907,14.2586 2.01010907,14.5686 C1.84810907,14.8746 1.80610907,15.2296 1.74010907,15.3876 C1.68010907,15.5486 1.67610907,15.7316 1.55710907,16.0536 C1.52610907,16.2246 1.43610907,16.5106 1.26710907,16.9726 C1.09910907,17.4356 0.937109073,18.1006 0.661109073,19.0036 C0.474109073,19.6196 0.416109073,20.2316 0.306109073,20.8346 C0.207109073,21.4396 0.0991090728,22.0466 0.0801090728,22.7006 C-0.0308909272,24.0026 -0.0438909272,25.4646 0.153109073,27.3366 C0.772109073,31.3976 1.27310907,32.1526 1.54810907,33.1316 C3.01110907,37.4276 4.85810907,39.6156 5.82210907,40.9416 C6.90510907,42.2046 7.25510907,42.6396 7.32710907,42.6886 C7.43010907,42.8266 8.07710907,43.4526 8.83310907,44.1496 C9.61010907,44.8216 10.5711091,45.4766 11.1291091,45.8696 C11.7451091,46.1796 12.1801091,46.4456 12.2961091,46.5866 C12.2961091,46.5866 12.4271091,46.6636 12.6651091,46.8026 C12.8921091,46.9226 13.1781091,47.1126 13.5061091,47.2236 C14.3041091,47.5376 15.2131091,48.0046 15.6881091,48.1916 C16.1031091,48.3586 17.1711091,48.7896 17.5871091,48.9566 C18.0701091,49.1216 18.7211091,49.3316 19.0351091,49.4836 C19.1941091,49.5566 19.4771091,49.6616 20.0761091,49.8396 C20.6881091,49.9446 21.6121091,50.1866 23.0691091,50.3146 C23.5821091,50.3456 24.1261091,50.3786 24.6831091,50.4116 C25.2331091,50.4386 25.7881091,50.3836 26.3141091,50.3706 C27.3701091,50.3596 28.3031091,50.1906 28.9011091,50.1196 C30.1061091,50.0286 32.6021091,49.3396 34.3721091,48.6886 C35.3251091,48.3016 36.1111091,47.9036 36.7861091,47.5986 C37.4361091,47.2426 37.9491091,46.9216 38.3631091,46.6756 C39.1991091,46.1966 39.5391091,45.8626 39.5801091,45.7716 C39.6851091,45.6236 40.2361091,45.2296 40.4101091,45.1776 C40.6771091,45.2446 42.9011091,43.1116 42.8081091,43.0256 C42.9051091,42.8806 43.2421091,42.5026 43.2871091,42.5466 C43.3081091,42.5676 43.5211091,42.3606 43.8451091,42.0236 C44.1541091,41.6746 44.6331091,41.2456 45.0281091,40.6916 C45.4351091,40.1466 45.9521091,39.5246 46.3731091,38.9366 C46.7681091,38.3166 47.1141091,37.7726 47.2881091,37.4996 C48.0931091,36.1946 48.8751091,34.5146 49.5061091,32.7036 C49.7861091,31.7886 50.0471091,30.8436 50.2541091,29.9026 C50.3911091,28.9476 50.6251091,28.0156 50.6511091,27.1016 C50.9711091,23.4516 50.3341091,20.4796 50.1621091,20.0946 C50.1251091,19.9296 50.0131091,19.4316 49.8631091,18.7686 C49.8521091,18.2446 49.3331091,16.9766 49.0711091,16.1696 C48.7451091,15.3836 48.2251091,14.5016 48.1721091,14.3416 C48.1101091,14.2166 47.9741091,13.9406 47.8161091,13.6216 C47.6211091,13.2966 47.4261091,12.9696 47.2741091,12.7156 C46.8041091,12.0136 46.6871091,11.6916 46.6031091,11.5456 C46.5851091,11.3576 46.3221091,10.9226 46.0331091,10.5056 C45.6401091,9.9546 45.3901091,9.5056 45.2911091,9.3676 C45.2121091,9.2146 44.6301091,8.5916 43.9201091,7.8646 C43.3011091,7.1696 42.9101091,6.9016 42.4551091,6.4596 C42.2281091,6.2456 41.9701091,6.0026 41.6121091,5.6656 C41.2461091,5.3536 40.7651091,4.9886 40.1331091,4.4886 C38.5101091,3.2626 37.3011091,2.6076 36.3521091,2.2386 C35.9181091,2.0456 35.5791091,1.8936 35.3131091,1.7756 C35.0151091,1.6676 34.8031091,1.5896 34.6321091,1.5276 C34.2751091,1.3956 34.0821091,1.3086 33.8531091,1.1926 C33.3891091,0.9766 32.0291091,0.6406 30.6901091,0.3406 C29.3301091,0.1446 27.9951091,-0.0354 27.5691091,0.0056 C27.1451091,0.0226 26.6201091,0.0276 26.0061091,0.0266 C25.3191091,0.0756 24.6241091,0.1246 23.9071091,0.1746 C23.1281091,0.2246 22.2831091,0.4106 21.3711091,0.5336 C20.4711091,0.7256 19.5071091,0.9506 18.5151091,1.2436 C17.5691091,1.5576 16.6441091,1.9226 16.4921091,1.9846 C16.2111091,2.1746 16.0621091,2.2406 15.5841091,2.3876 C15.2821091,2.5236 14.8291091,2.7256 14.5271091,2.8606 C14.2471091,3.0416 13.5441091,3.4756 12.9671091,3.7956 C12.0681091,4.2246 11.9821091,4.3996 11.7801091,4.6856 C11.6791091,4.8306 11.4821091,5.1186 11.3501091,5.2136 C10.9511091,5.4986 10.7011091,5.9736 10.8871091,6.2086 C10.9611091,6.3036 10.9431091,6.5376 11.0181091,6.6306 C10.9651091,6.8166 11.1301091,6.7716 11.2931091,6.7296 C11.5821091,6.5966 11.6171091,6.6446 11.6541091,6.6926 C11.6901091,6.7406 11.8511091,6.6996 11.9751091,6.6106 C12.1351091,6.5696 12.1701091,6.6186 12.2051091,6.6676 L12.2401091,6.7156 C12.3991091,6.6766 12.5211091,6.5886 12.5561091,6.6376 C12.6361091,6.7436 13.6581091,6.3936 14.2151091,6.1916 C14.7581091,5.9516 15.4461091,5.6946 15.3751091,5.8736 C15.4071091,5.9346 15.5191091,5.8366 15.9131091,5.6556 C16.3091091,5.4806 16.3091091,5.4806 16.1771091,5.5396 L15.8081091,5.7676 L16.2551091,5.7016 C16.4121091,5.6976 16.6971091,5.6366 16.8261091,5.5786 C16.9561091,5.5206 17.2161091,5.4046 17.2391091,5.4596 C17.2571091,5.5036 17.6491091,5.3336 18.1921091,5.2286 C18.7301091,5.1086 19.3741091,4.9386 19.8401091,4.7846 C20.3881091,4.6636 20.6761091,4.6596 20.9611091,4.6566 C21.2591091,4.7126 21.5381091,4.7096 21.6731091,4.6786 C21.9411091,4.6076 22.4971091,4.5686 22.9131091,4.5676 C23.1901091,4.5636 23.4981091,4.5366 23.8401091,4.4946 C24.1841091,4.4866 24.5621091,4.4626 24.9751091,4.4206 C25.5211091,4.3436 27.8881091,4.3896 30.0521091,4.8776 C33.5301091,5.8106 33.7071091,6.1416 34.5211091,6.3516 C34.7981091,6.4186 35.0331091,6.4986 35.3551091,6.6356 C35.6611091,6.8026 36.0471091,7.0446 36.6451091,7.4066 C37.9101091,8.2596 38.7671091,8.8176 40.5601091,10.9466 C41.0971091,11.5796 42.2621091,12.9766 43.1691091,14.7066 C43.6791091,15.5406 44.0331091,16.4916 44.4171091,17.3576 C44.5881091,17.7986 44.7041091,18.2446 44.8431091,18.6506 C44.9751091,19.0596 45.1151091,19.4366 45.1751091,19.7936 C45.9471091,22.9326 45.9041091,24.9076 45.8231091,26.1356 C45.7901091,27.3806 45.6501091,27.9206 45.6161091,28.4056 C45.5641091,29.2386 45.0571091,31.1996 44.2531091,33.1336 C43.4321091,35.0726 42.1401091,36.8506 41.3881091,37.7496 C40.3971091,38.8986 39.8441091,39.5246 38.9901091,40.2336 C38.7441091,40.4776 38.4441091,40.8226 38.0821091,41.1206 C37.7121091,41.4096 37.3241091,41.7046 36.9851091,41.9486 C36.4711091,42.4356 35.8251091,42.7206 35.8671091,42.7906 C35.7461091,42.8596 35.5031091,42.9996 35.2601091,43.1386 C35.0061091,43.2586 33.9101091,43.7156 32.7061091,44.2126 C32.0851091,44.4156 31.4431091,44.6266 30.8531091,44.8206 C30.2531091,44.9596 29.7211091,45.0916 29.3491091,45.1926 C28.8831091,45.3506 27.9391091,45.4346 26.9701091,45.5676 C25.9911091,45.5786 24.9761091,45.6466 24.3511091,45.5306 C24.2131091,45.5126 23.6531091,45.5016 22.8731091,45.4166 C22.1011091,45.2746 21.0891091,45.1716 20.0861091,44.8586 C19.0661091,44.6116 18.1171091,44.1576 17.3321091,43.8786 C16.5861091,43.5016 16.0311091,43.2136 15.8571091,43.0986 C15.4661091,42.9466 14.8151091,42.4086 14.3681091,42.0876 C14.1891091,41.9846 13.8111091,41.7436 13.3931091,41.3816 C12.9781091,41.0186 12.4201091,40.6706 11.9871091,40.2246 C11.6131091,39.8626 11.2461091,39.5086 10.9371091,39.2106 C10.6651091,38.9246 10.5121091,38.6916 10.4621091,38.6446 C10.4621091,38.6446 10.0101091,38.1296 9.41610907,37.5486 C9.03910907,36.9726 8.16210907,35.9006 7.73810907,35.0316 C7.50410907,34.6106 7.28310907,34.2616 7.14810907,33.9836 C7.02310907,33.7006 6.94010907,33.5126 6.91210907,33.4496 C6.80410907,33.5036 6.00510907,31.8836 6.11310907,31.8426 C6.17010907,31.8216 5.86810907,30.9066 5.76510907,30.7936 L5.63310907,30.4006 C5.65510907,30.2506 5.54010907,29.4256 5.41210907,28.6146 C5.32410907,28.2826 5.33210907,27.9336 5.30510907,27.6786 C5.29210907,27.4436 5.28110907,27.2506 5.28110907,27.2506 C5.28410907,27.1136 5.16710907,26.7126 5.16710907,26.0266 L5.16710907,26.0266 Z M16.5231091,5.2546 C16.4731091,5.1456 16.5831091,5.0306 17.1391091,4.8476 C17.4291091,4.7836 17.5601091,4.7246 17.3181091,4.8986 C16.9431091,5.1326 16.5481091,5.3086 16.5231091,5.2546 L16.5231091,5.2546 Z M16.2501091,4.6526 C16.0631091,4.6056 16.1751091,4.4896 16.4751091,4.4216 C16.7501091,4.2986 16.7731091,4.3546 16.7961091,4.4096 C16.7061091,4.5816 16.4361091,4.7016 16.2501091,4.6526 L16.2501091,4.6526 Z M16.4511091,4.3666 C16.3131091,4.4276 16.2891091,4.3736 16.2891091,4.3736 C16.2641091,4.3186 16.2641091,4.3186 16.4031091,4.2566 C16.4031091,4.2566 16.5411091,4.1946 16.5651091,4.2496 L16.4511091,4.3666 Z M24.0191091,2.3466 C23.7071091,2.2356 23.7051091,2.2356 24.0081091,2.1666 C24.3121091,2.0986 24.7771091,2.2046 24.7791091,2.3246 C24.9331091,2.4406 24.3301091,2.4576 24.0191091,2.3466 L24.0191091,2.3466 Z M17.8721091,3.4156 L17.7261091,3.4636 C17.8721091,3.4156 18.0171091,3.3676 18.0171091,3.3676 C18.1631091,3.3186 18.0171091,3.3676 17.8721091,3.4156 L17.8721091,3.4156 Z M22.6221091,2.1856 C22.3161091,2.2236 22.3161091,2.2236 22.4691091,2.2046 L22.9281091,2.1466 L22.6221091,2.1856 Z M14.2891091,4.4916 C13.8521091,4.6716 13.8201091,4.6206 14.2021091,4.3336 C14.5861091,4.0476 14.9131091,3.9906 14.9701091,4.1076 C14.8841091,4.2836 14.7541091,4.3656 14.2891091,4.4916 L14.2891091,4.4916 Z" id="Fill-1" fill="#040404" mask="url(#mask-2)"></path></g><path d="M21.8660091,26.9153 C21.9120091,26.9873 22.0560091,27.1213 22.1240091,27.2273 C22.2150091,27.3713 22.2490091,27.4243 22.3570091,27.4063 C22.4210091,27.4153 22.4330091,27.4333 22.4330091,27.4333 C22.4020091,27.4783 22.4620091,27.6653 22.6440091,27.9513 C22.9550091,28.5323 23.0460091,28.6753 23.1870091,28.7103 C23.1870091,28.7103 23.2630091,28.7373 23.2860091,28.7733 C23.4160091,28.7913 23.4690091,28.7823 23.5310091,28.6923 C23.5620091,28.6483 23.5730091,28.6653 23.5840091,28.6843 C23.6190091,28.7373 23.7140091,28.7013 23.8410091,28.6213 C23.8830091,28.5943 23.9370091,28.5853 23.9900091,28.5763 C24.0440091,28.5673 24.0860091,28.5403 24.1700091,28.4863 C24.2430091,28.4153 24.3280091,28.3613 24.3700091,28.3343 C24.4960091,28.2543 24.7410091,28.1733 24.8480091,28.1553 C24.8480091,28.1553 24.9020091,28.1463 24.8910091,28.1283 C24.8910091,28.1283 24.9860091,28.0923 25.0930091,28.0753 C25.2430091,28.0303 25.2960091,28.0203 25.2730091,27.9853 C25.3040091,27.9403 25.3040091,27.9403 25.3460091,27.9143 C25.5270091,27.8243 25.6340091,27.8063 25.6560091,27.8423 C25.6560091,27.8423 25.7210091,27.8513 25.7640091,27.8243 C25.8710091,27.8063 26.3690091,27.5643 26.4110091,27.5373 L26.4220091,27.5553 L26.5070091,27.5013 C26.5490091,27.4753 26.6330091,27.4213 26.6870091,27.4123 C26.7290091,27.3853 26.7290091,27.3853 26.7180091,27.3673 C26.7060091,27.3493 26.7370091,27.3043 26.7260091,27.2873 C26.7560091,27.2423 26.7760091,27.1793 26.7950091,27.1173 C26.7720091,27.0813 26.8150091,27.0543 26.8570091,27.0273 C26.9100091,27.0183 26.9530091,26.9913 27.0340091,26.8393 C27.1370091,26.7233 27.0200091,26.4463 26.7540091,26.2143 C26.6970091,26.1243 26.5750091,26.0263 26.5300091,25.9553 C26.4960091,25.9013 26.3970091,25.8393 26.3740091,25.8033 C26.3510091,25.7673 26.2860091,25.7583 26.2750091,25.7413 C26.2640091,25.7233 26.2100091,25.7313 26.1870091,25.6963 C26.1220091,25.6873 26.0650091,25.5983 25.9820091,25.3743 C25.8120091,25.1063 25.6750091,24.8923 25.3830091,24.5263 C25.0260091,24.1503 24.9690091,24.0613 24.9010091,23.9543 C24.3400091,22.9803 24.2460091,22.7393 24.2340091,22.7213 C24.2540091,22.6593 24.0380091,22.3193 23.9040091,22.2033 C23.8170091,22.1583 23.7830091,22.1043 23.8130091,22.0603 C23.8130091,22.0603 23.7680091,21.9883 23.6800091,21.9443 C23.5810091,21.8813 23.5130091,21.7743 23.4790091,21.7213 C23.4450091,21.6673 23.4190091,21.5333 23.3840091,21.4793 C23.3500091,21.4263 23.3470091,21.3273 23.3660091,21.2653 C23.3860091,21.2023 23.3710091,21.0863 23.1780091,20.7823 C23.0410091,20.5683 22.8290091,20.3273 22.7490091,20.2023 C22.6690091,20.0773 22.4570091,19.8353 22.3310091,19.6393 C22.0160091,19.2373 21.9030091,19.0583 21.8070091,19.0943 C21.7530091,19.1033 21.7080091,19.0323 21.7390091,18.9873 C21.8120091,18.9153 21.5220091,18.6473 21.4380091,18.7013 C21.3850091,18.7103 21.3500091,18.6563 21.3930091,18.6293 C21.4350091,18.6023 21.3550091,18.4773 21.2640091,18.3353 C21.1730091,18.1923 21.0900091,17.9683 21.0450091,17.8973 C20.7200091,17.2003 19.9800091,16.0393 19.7970091,16.0303 C19.7860091,16.0123 19.7510091,15.9583 19.7060091,15.8873 C19.7140091,15.8073 19.5810091,15.6903 19.5240091,15.6013 C19.4250091,15.5393 19.3140091,15.4583 19.3030091,15.4403 C19.2800091,15.4053 19.1810091,15.3423 19.1360091,15.2703 C19.0370091,15.2083 19.0560091,15.1453 19.0450091,15.1273 C19.0760091,15.0833 19.0840091,15.0023 19.0500091,14.9493 C19.0040091,14.8773 19.0120091,14.7973 19.0010091,14.7793 C18.9890091,14.7613 18.9330091,14.6723 18.8220091,14.5913 C18.6550091,14.4223 18.6550091,14.4223 18.4810091,14.0563 C18.3870091,13.8143 18.2960091,13.6713 18.1850091,13.5913 C18.0180091,13.4213 17.9950091,13.3863 18.0030091,13.3053 C17.9350091,13.1983 17.5430091,12.7693 17.4440091,12.7073 C17.2040091,12.6083 16.8920091,12.3053 16.5660091,11.8853 C16.4980091,11.7783 16.3870091,11.6973 16.3760091,11.6803 C16.3110091,11.6713 16.2990091,11.6533 16.3070091,11.5723 C16.2850091,11.5373 16.2510091,11.4833 16.2280091,11.4473 C16.1630091,11.4383 16.1060091,11.3493 16.0610091,11.2783 C16.0350091,11.1443 15.9810091,11.1533 15.8740091,11.1703 C15.8200091,11.1803 15.7130091,11.1983 15.7020091,11.1803 C15.6680091,11.1263 15.4650091,11.1803 15.2540091,11.3143 C15.1700091,11.3683 15.0320091,11.4313 14.9470091,11.4843 C14.8520091,11.5203 14.8210091,11.5653 14.7900091,11.6093 C14.7710091,11.6723 14.7280091,11.6993 14.6860091,11.7263 C14.6440091,11.7523 14.6130091,11.7973 14.6250091,11.8153 C14.5940091,11.8603 14.5520091,11.8873 14.5090091,11.9143 L14.4670091,11.9403 C14.4360091,11.9853 14.4480091,12.0033 14.4060091,12.0303 C14.3210091,12.0833 14.1480091,12.3703 14.1510091,12.4683 C14.1540091,12.5663 14.1270091,12.7093 14.0310091,12.7453 C13.9890091,12.7723 14.0000091,12.7903 14.0350091,12.8443 C14.0690091,12.8973 14.0690091,12.8973 14.0570091,12.8793 L13.9810091,12.8523 L13.9310091,12.9603 C13.9000091,13.0043 13.8810091,13.0673 13.8920091,13.0853 C13.9030091,13.1033 13.9260091,13.1393 13.8840091,13.1653 C13.8420091,13.1923 13.8520091,13.4873 13.9310091,13.6123 C13.9770091,13.6843 13.9570091,13.7473 13.9380091,13.8093 C13.8760091,13.8983 13.8570091,13.9613 13.8680091,13.9793 C13.8910091,14.0153 13.9360091,14.0863 13.9280091,14.1663 C13.9320091,14.2653 13.9890091,14.3543 14.0990091,14.4353 C14.1440091,14.5063 14.3800091,14.7833 14.5620091,15.0693 C14.8580091,15.5333 14.8800091,15.5693 15.0330091,15.6233 C15.1630091,15.6403 15.1970091,15.6943 15.3110091,15.8733 C15.4360091,16.0693 15.5160091,16.1943 15.6160091,16.6323 C15.7110091,16.8733 16.0810091,17.6423 16.3200091,18.0173 C16.8970091,18.8303 16.9990091,18.9913 17.1210091,19.0893 C17.3000091,19.2763 17.8230091,20.0993 17.9740091,20.4293 C18.0990091,20.6253 18.1680091,20.7333 18.2590091,20.8753 C18.3580091,20.9383 18.4910091,21.0543 18.5590091,21.1623 C18.6580091,21.2243 18.7150091,21.3133 18.7570091,21.2873 C18.7680091,21.3043 18.7910091,21.3403 18.8140091,21.3763 C18.7750091,21.5013 19.1160091,22.0373 19.2840091,22.2073 C19.4050091,22.3053 19.6330091,22.6623 19.6930091,22.8503 C19.7160091,22.8863 19.8750091,23.1363 20.0460091,23.4043 C20.1740091,23.6993 20.3450091,23.9673 20.3370091,24.0473 C20.3710091,24.1013 20.3970091,24.2353 20.4000091,24.3333 C20.4340091,24.3873 20.5060091,24.5923 20.6080091,24.7533 C20.6990091,24.8963 20.7370091,25.0483 20.7480091,25.0663 C20.7480091,25.0663 20.8050091,25.1553 20.9150091,25.2353 C20.9720091,25.3253 21.0860091,25.5033 21.1660091,25.6283 C21.2450091,25.7533 21.3020091,25.8433 21.3130091,25.8613 C21.3980091,25.8073 21.5880091,26.0133 21.5460091,26.0403 C21.5030091,26.0663 21.5830091,26.1913 21.6370091,26.1823 C21.6480091,26.2003 21.6590091,26.2183 21.6710091,26.2363 C21.6400091,26.2813 21.6660091,26.4153 21.6920091,26.5493 C21.7490091,26.6383 21.7640091,26.7543 21.7640091,26.7543 C21.7750091,26.7723 21.8090091,26.8263 21.8660091,26.9153 L21.8660091,26.9153 Z M14.1760091,12.8793 C14.2600091,12.8263 14.3140091,12.8163 14.3170091,12.9153 C14.2980091,12.9773 14.3090091,12.9953 14.2440091,12.9863 C14.1680091,12.9593 14.1340091,12.9063 14.1760091,12.8793 L14.1760091,12.8793 Z M14.6400091,12.5843 C14.7130091,12.5123 14.7660091,12.5033 14.7470091,12.5663 C14.7700091,12.6023 14.7270091,12.6283 14.6850091,12.6553 C14.5900091,12.6913 14.5670091,12.6553 14.6400091,12.5843 L14.6400091,12.5843 Z M15.5070091,13.3883 C15.5690091,13.2983 15.5690091,13.2983 15.6340091,13.3073 C15.6980091,13.3163 15.6480091,13.4233 15.5640091,13.4773 C15.4910091,13.5483 15.4450091,13.4773 15.5070091,13.3883 L15.5070091,13.3883 Z M15.2320091,11.9313 C15.2400091,11.8513 15.2820091,11.8243 15.3580091,11.8503 C15.4350091,11.8773 15.3730091,11.9663 15.2890091,12.0203 C15.1930091,12.0563 15.1810091,12.0383 15.2320091,11.9313 L15.2320091,11.9313 Z" id="Fill-4" fill="#040404"></path><path d="M24.3935091,25.3152 C24.3385091,25.3462 24.2405091,25.4592 24.1585091,25.5042 C24.0495091,25.5662 24.0085091,25.5892 24.0305091,25.6922 C24.0275091,25.7512 24.0145091,25.7582 24.0145091,25.7582 C23.9755091,25.7232 23.8285091,25.7482 23.6105091,25.8722 C23.1625091,26.0662 23.0535091,26.1282 23.0335091,26.2532 C23.0335091,26.2532 23.0175091,26.3202 22.9905091,26.3362 C22.9845091,26.4542 22.9955091,26.5052 23.0725091,26.5772 C23.1105091,26.6122 23.0965091,26.6202 23.0835091,26.6282 C23.0425091,26.6512 23.0775091,26.7462 23.1515091,26.8772 C23.1755091,26.9202 23.1865091,26.9712 23.1975091,27.0232 C23.2085091,27.0742 23.2335091,27.1172 23.2825091,27.2042 C23.3445091,27.2842 23.3945091,27.3712 23.4185091,27.4152 C23.4925091,27.5452 23.5745091,27.7862 23.5955091,27.8882 C23.5955091,27.8882 23.6065091,27.9402 23.6205091,27.9322 C23.6205091,27.9322 23.6565091,28.0272 23.6775091,28.1292 C23.7245091,28.2752 23.7355091,28.3272 23.7625091,28.3112 C23.8005091,28.3472 23.8005091,28.3472 23.8255091,28.3912 C23.9095091,28.5722 23.9315091,28.6752 23.9045091,28.6902 C23.9045091,28.6902 23.9015091,28.7492 23.9265091,28.7932 C23.9475091,28.8962 24.1775091,29.3982 24.2015091,29.4412 L24.1885091,29.4492 L24.2375091,29.5362 C24.2615091,29.5802 24.3105091,29.6672 24.3215091,29.7182 C24.3465091,29.7612 24.3465091,29.7612 24.3595091,29.7532 C24.3735091,29.7462 24.4115091,29.7822 24.4255091,29.7742 C24.4635091,29.8102 24.5155091,29.8382 24.5675091,29.8662 C24.5945091,29.8512 24.6195091,29.8952 24.6435091,29.9382 C24.6545091,29.9892 24.6795091,30.0332 24.8075091,30.1332 C24.9085091,30.2482 25.1245091,30.1842 25.2935091,29.9742 C25.3615091,29.9352 25.4325091,29.8372 25.4875091,29.8072 C25.5285091,29.7842 25.5715091,29.7022 25.5995091,29.6862 C25.6265091,29.6712 25.6295091,29.6122 25.6425091,29.6042 C25.6565091,29.5972 25.6455091,29.5452 25.6725091,29.5302 C25.6755091,29.4712 25.7435091,29.4332 25.9185091,29.3912 C26.1235091,29.2762 26.2875091,29.1842 26.5625091,28.9712 C26.8415091,28.6992 26.9095091,28.6602 26.9915091,28.6142 C27.7395091,28.2502 27.9275091,28.2012 27.9415091,28.1932 C27.9935091,28.2222 28.2525091,28.0752 28.3375091,27.9702 C28.3675091,27.8962 28.4085091,27.8732 28.4465091,27.9092 C28.4465091,27.9092 28.5015091,27.8782 28.5315091,27.8032 C28.5745091,27.7212 28.6565091,27.6752 28.6975091,27.6522 C28.7385091,27.6292 28.8455091,27.6272 28.8865091,27.6042 C28.9265091,27.5802 29.0065091,27.5932 29.0575091,27.6212 C29.1095091,27.6492 29.2025091,27.6542 29.4345091,27.5232 C29.5985091,27.4312 29.7785091,27.2722 29.8745091,27.2182 C29.9695091,27.1652 30.1495091,27.0052 30.3005091,26.9212 C30.6035091,26.6922 30.7395091,26.6162 30.7045091,26.5212 C30.6935091,26.4692 30.7475091,26.4392 30.7865091,26.4752 C30.8485091,26.5542 31.0455091,26.3282 30.9965091,26.2412 C30.9855091,26.1902 31.0265091,26.1672 31.0505091,26.2112 C31.0755091,26.2542 31.1705091,26.2002 31.2805091,26.1392 C31.3895091,26.0772 31.5645091,26.0362 31.6185091,26.0052 C32.1595091,25.8152 33.0465091,25.3152 33.0405091,25.1462 C33.0545091,25.1382 33.0955091,25.1152 33.1505091,25.0842 C33.2155091,25.1052 33.3005091,25.0002 33.3685091,24.9612 C33.4125091,24.8792 33.4695091,24.7892 33.4835091,24.7812 C33.5105091,24.7662 33.5545091,24.6842 33.6085091,24.6532 C33.6525091,24.5712 33.7045091,24.6002 33.7175091,24.5922 C33.7565091,24.6282 33.8215091,24.6482 33.8625091,24.6252 C33.9175091,24.5942 33.9825091,24.6152 33.9965091,24.6072 C34.0105091,24.5992 34.0785091,24.5612 34.1355091,24.4712 C34.2615091,24.3432 34.2615091,24.3432 34.5455091,24.2402 C34.7335091,24.1912 34.8425091,24.1302 34.8995091,24.0402 C35.0255091,23.9122 35.0525091,23.8972 35.1185091,23.9172 C35.2005091,23.8712 35.5195091,23.5762 35.5635091,23.4942 C35.6265091,23.2862 35.8505091,23.0452 36.1665091,22.8092 C36.2485091,22.7632 36.3055091,22.6732 36.3195091,22.6662 C36.3225091,22.6072 36.3365091,22.5992 36.4015091,22.6192 C36.4285091,22.6042 36.4695091,22.5812 36.4975091,22.5652 C36.4995091,22.5062 36.5685091,22.4682 36.6225091,22.4372 C36.7295091,22.4352 36.7185091,22.3832 36.6965091,22.2812 C36.6855091,22.2302 36.6635091,22.1272 36.6775091,22.1192 C36.7185091,22.0962 36.6605091,21.8992 36.5385091,21.6812 C36.4895091,21.5942 36.4295091,21.4562 36.3795091,21.3692 C36.3445091,21.2742 36.3065091,21.2382 36.2685091,21.2022 C36.2165091,21.1742 36.1915091,21.1302 36.1675091,21.0872 C36.1425091,21.0442 36.1045091,21.0072 36.0905091,21.0152 C36.0525091,20.9802 36.0275091,20.9362 36.0035091,20.8922 L35.9785091,20.8492 C35.9405091,20.8132 35.9265091,20.8202 35.9025091,20.7772 C35.8535091,20.6902 35.6105091,20.4822 35.5315091,20.4702 C35.4525091,20.4572 35.3345091,20.4082 35.2995091,20.3142 C35.2745091,20.2702 35.2605091,20.2772 35.2205091,20.3012 C35.1795091,20.3242 35.1795091,20.3242 35.1925091,20.3162 L35.2095091,20.2502 L35.1195091,20.1862 C35.0805091,20.1492 35.0285091,20.1222 35.0155091,20.1292 C35.0015091,20.1372 34.9745091,20.1522 34.9495091,20.1082 C34.9255091,20.0652 34.6875091,20.0272 34.5925091,20.0812 C34.5375091,20.1112 34.4855091,20.0832 34.4335091,20.0552 C34.3575091,19.9832 34.3055091,19.9552 34.2925091,19.9632 C34.2645091,19.9792 34.2105091,20.0092 34.1445091,19.9892 C34.0655091,19.9762 33.9975091,20.0142 33.9395091,20.1042 C33.8855091,20.1352 33.6775091,20.3092 33.4595091,20.4332 C33.1045091,20.6322 33.0775091,20.6482 33.0445091,20.7812 C33.0385091,20.8992 32.9985091,20.9222 32.8615091,20.9992 C32.7115091,21.0842 32.6155091,21.1382 32.2695091,21.1612 C32.0805091,21.2102 31.4855091,21.4312 31.1995091,21.5922 C30.5825091,21.9982 30.4595091,22.0672 30.3885091,22.1642 C30.2495091,22.3002 29.6215091,22.6542 29.3645091,22.7412 C29.2145091,22.8262 29.1325091,22.8722 29.0235091,22.9342 C28.9795091,23.0162 28.8955091,23.1212 28.8135091,23.1672 C28.7695091,23.2492 28.7015091,23.2882 28.7255091,23.3312 C28.7125091,23.3392 28.6845091,23.3552 28.6575091,23.3702 C28.5535091,23.3142 28.1445091,23.5442 28.0185091,23.6722 C27.9475091,23.7702 27.6745091,23.9242 27.5275091,23.9502 C27.5005091,23.9652 27.3085091,24.0732 27.1045091,24.1882 C26.8745091,24.2602 26.6705091,24.3762 26.6045091,24.3552 C26.5635091,24.3782 26.4575091,24.3812 26.3785091,24.3682 C26.3375091,24.3912 26.1765091,24.4242 26.0535091,24.4942 C25.9445091,24.5552 25.8235091,24.5652 25.8105091,24.5732 C25.8105091,24.5732 25.7425091,24.6122 25.6845091,24.7022 C25.6165091,24.7402 25.4795091,24.8172 25.3845091,24.8712 C25.2885091,24.9252 25.2205091,24.9632 25.2065091,24.9712 C25.2565091,25.0582 25.1035091,25.2022 25.0785091,25.1582 C25.0545091,25.1152 24.9585091,25.1692 24.9695091,25.2202 C24.9555091,25.2282 24.9425091,25.2352 24.9285091,25.2432 C24.8905091,25.2072 24.7835091,25.2102 24.6775091,25.2122 C24.6095091,25.2512 24.5165091,25.2462 24.5165091,25.2462 C24.5025091,25.2532 24.4615091,25.2762 24.3935091,25.3152 L24.3935091,25.3152 Z M35.2005091,20.4262 C35.2505091,20.5132 35.2605091,20.5652 35.1815091,20.5522 C35.1295091,20.5232 35.1165091,20.5312 35.1185091,20.4722 C35.1355091,20.4062 35.1765091,20.3832 35.2005091,20.4262 L35.2005091,20.4262 Z M35.4715091,20.9052 C35.5335091,20.9852 35.5445091,21.0362 35.4925091,21.0082 C35.4655091,21.0232 35.4405091,20.9802 35.4165091,20.9362 C35.3805091,20.8412 35.4085091,20.8262 35.4715091,20.9052 L35.4715091,20.9052 Z M34.8815091,21.5822 C34.9575091,21.6542 34.9575091,21.6542 34.9545091,21.7132 C34.9525091,21.7722 34.8625091,21.7082 34.8135091,21.6212 C34.7505091,21.5422 34.8045091,21.5112 34.8815091,21.5822 L34.8815091,21.5822 Z M36.0385091,21.5612 C36.1045091,21.5822 36.1285091,21.6252 36.1125091,21.6922 C36.0955091,21.7582 36.0195091,21.6872 35.9705091,21.6002 C35.9345091,21.5052 35.9485091,21.4972 36.0385091,21.5612 L36.0385091,21.5612 Z" id="Fill-6" fill="#040404"></path></g></g></g></svg> 