<?xml version="1.0" encoding="UTF-8"?> <svg xmlns="http://www.w3.org/2000/svg" id="Layer_2" viewBox="0 0 51.48 45.03"><defs><style>.cls-1{fill:#020202;stroke-width:0px;}</style></defs><g id="Layer_1-2"><path class="cls-1" d="m5.56,32.71c-.28.35-.33.31-.15-.09.18-.41.44-.6.54-.53.03.19-.05.31-.38.63Zm4.61-6.85q-.15.25-.08.13l.23-.38-.15.25Zm-2.35,4.09l-.08.13.15-.25c.08-.13,0,0-.08.13Zm3.3-5.06q-.26.19-.15-.09c.1-.28.44-.6.54-.53.18-.06-.13.44-.38.63Zm-3.84,6.63c-.08.13-.13.09-.13.09q-.05-.03.03-.16s.08-.13.13-.09l-.03.16Zm0,.35c-.18.06-.15-.09.05-.31.15-.25.2-.22.26-.19.03.19-.13.44-.31.5Zm.56.34c-.1-.06-.08-.22.28-.69.2-.22.28-.35.18-.06-.18.41-.41.79-.46.75Zm10.58,7.11c-.55.03-1.97.1-2.8.15-1.18.04-1.62.05-1.91.18-.29.07-.44.07-.44.07-.15-.06-1.48-.07-3.83,0-1.15.02-2.08.04-2.84.06h-.13s-.05,0-.05,0c-.03,0-.06,0-.09,0-.06,0-.1-.01-.15-.02-.09,0-.15-.05-.22-.06-.24-.09-.34-.21-.47-.26,0,0-.15-.08-.18-.18-.2-.14-.27-.2-.34-.04-.04.08-.05.02-.08-.04-.06-.18-.17-.23-.36-.21-.06.01-.14-.06-.2-.14-.06-.08-.12-.08-.24-.07-.11.1-.23.11-.29.12-.18.03-.51-.3-.59-.58,0,0-.05-.14-.06,0,0,0-.12-.14-.16-.44-.11-.31-.13-.49-.2-.2-.09.13-.09.13-.15.12-.21-.21-.22-.57-.08-.88-.01,0,.1-.33.05-.36.04-.35-.11-1.2-.14-1.24l.13-.15s-.04-.04-.09-.08c-.04-.04-.13-.12-.03-.32-.04-.04-.04-.04-.19.12-.14.16-.33.29-.47.46-.17.15-.48.49-.73.89-.18.43-.24.41-.29.39.06-.23-.07-.31-.5.61-.15.21-.47,1.24-.23,2.68.22,1.42,1.17,3.22,2.98,4.26.54.33,1.27.64,1.98.76.36.07.7.12,1.02.12.31.01.64.01.74,0,.44-.01,1.18-.1,1.47-.11.29,0,.59-.08.73-.08.15,0,.29-.07.59-.08.29-.07,1.03-.09,2.65-.08,2.21-.07,3.98-.13,7.21-.29,3.53-.23,4.27-.25,5.15-.28,3.87-.08,6.27-.13,7.73-.16,1.42-.02,1.92-.02,1.99-.03.3.05,3.09-.04,4.27-.13.59-.08,1.03-.09,1.18-.04,0,0,.59-.02,1.18-.1.73-.08,1.62-.11,2.06-.13.38,0,1.39,0,1.77,0,.1,0,.21,0,.35,0,.13,0,.22.01.44,0,.38-.02.74-.01.98-.06.24-.04.67-.07,1.5-.45.78-.4,2.07-1.19,2.92-3.11.59-1.34.67-3.11.12-4.55-.28-.71-.65-1.34-1.05-1.81l-.14-.17s0,0,0,0l-.02-.02c-.07-.12-.13-.22-.19-.31-.53-.86-1.71-2.79-2.54-4.15-1.86-3.01-2.61-4.27-2.79-4.34-.13-.1-.43-.6-.45-.76.03-.19-1.43-2.41-1.54-2.34-.13-.1-.35-.48-.3-.51.05-.03-.48-.92-1.08-1.93-.56-.98-1.4-2.45-1.68-2.94-2.61-4.62-7.51-12.85-8.04-13.39-.06-.09-.17-.28-.33-.55-.09-.16-.2-.33-.39-.47-.17-.15-.35-.32-.56-.48-.32-.29-.86-.62-1.53-.86C27.8.1,27.04,0,26.46,0c-.58.03-1.21.16-1.7.32-.49.17-.84.37-.95.42-.2.11-.54.3-.95.64-.2.16-.39.36-.59.54-.17.21-.29.45-.43.67-.34.67-.54.88-.62,1.01-.13.09-.41.44-.64.82-.31.5-.59.85-.67.97s-.46.75-.87,1.54q-.79,1.41-2.3,3.77c-.97,1.48-1.59,2.48-2,3.27-.79,1.41-.95,1.67-1.23,2.01-.46.75-2.43,4.21-2.76,4.87-.61,1.35-2.05,3.93-3.92,7.1-.46.75-.87,1.54-.95,1.67-.1.28-.18.41-.46.75-.15.25-.38.63-.54.88-.1.28-.49.91-.79,1.41-.51.72-.54.88-.59,1.19-.03.16-.08.47-.15.6-.23.38-.26.88,0,1.04.1.06.18.28.28.34.03.19.15.09.28,0,.2-.22.26-.19.31-.16.05.03.18-.06.26-.19.13-.09.18-.06.23-.03l.05.03c.13-.09.2-.22.26-.19.1.06.95-.63,1.31-1.1.36-.47.84-1.04.87-.85.05.03.13-.09.36-.47q.23-.38.15-.25l-.18.41.33-.31c.13-.09.33-.31.41-.44.08-.13.23-.38.28-.35.05.03,1.13-1.38,1.66-2.26.31-.5.51-.72.72-.94.26-.19.46-.41.54-.53.15-.25.46-.75.74-1.1.36-.47.74-1.1,1.15-1.89.3-.5,1.6-2.69,2.79-4.68,2-3.27,2.15-3.52,2.51-4.34.2-.57.44-.94,1.2-2.2.84-1.38,1.38-2.26,3.07-4.68.51-.8,1.54-2.4,2.64-4.11.2-.31.14-.22.17-.25.02-.01.01,0,.06-.03.14-.08.3-.12.46-.14.31-.04.63.1.77.18h.03s.01.02.01.02h0s.04.06.04.06c.2.33.39.65.58.95.36.6.69,1.13.98,1.61.58.95,1.02,1.67,1.36,2.24.69,1.13,1.01,1.63,1.3,2.06.96,1.49,4.42,7.31,5.65,9.49.83,1.39,1.28,2.15,1.88,3.16.43.6,1.08,1.58,1.54,2.34.43.6.81,1.24.86,1.2.08.13.23.38.38.63.2.57,2.46,4.37,3.34,5.73.17.27.36.57.58.91.13.2.18.32.48.77.15.16.33.39.32.38.04.04.07.08.09.13.24.33.24.75.16,1.01.02.08-.26,1.06-1.13,1.19-1.02.02-1.97.03-2.75.05-.88.01-1.55.02-1.77,0-.44.01-1.33-.02-1.92-.06-.44.01-1.92,0-3.24.04-1.18.04-2.21,0-2.36.01,0,0-.74.02-1.62.11-.74.02-2.21.07-3.24.1-1.03.03-1.77.06-1.91.06,0,.12-1.91.24-1.91.18,0-.06-1.03-.03-1.18.04h-.44c-.15-.04-1.03-.07-1.92-.11-.74.02-1.47-.01-1.47-.01-.15,0-.59.02-1.33.04Z"></path><path class="cls-1" d="m26.41,13.41c.06-.05.12-.05.18,0,.06.05-.06.08-.18.08-.12-.02-.12-.03,0-.08Zm-.36.93s0-.03,0-.02v.05-.03Zm-.12-.53v-.02.03s0,0,0-.02Zm-.18.68q.12-.03.18,0c.06.03-.06.08-.18.08-.12.02-.12-.05,0-.08Zm-.18-.86s.06-.02.06-.02q.06,0,.06.02s0,.02-.06.02l-.06-.02Zm-.18-.03c.12-.02.18,0,.12.03,0,.03-.06.03-.12.03-.12-.02-.12-.05,0-.07Zm-.66,0c.12,0,.18.02.12.08-.06.03-.06.05-.12.02-.06-.05-.06-.1,0-.1Zm-1.26,12.54c0,.07.06.22.06.32,0,.13,0,.18.12.22.06.03.06.05.06.05-.06.02-.12.17-.12.43-.06.52-.06.65.06.73,0,0,.06.05.06.08.12.07.18.08.3.05.06-.02.06,0,.06.02,0,.05.12.07.3.07.06,0,.12.02.18.03.06.02.12.02.24.02.12-.02.24-.02.3-.02.18,0,.48.05.6.08,0,0,.06.02.06,0,0,0,.12.02.24.05.18.03.24.05.24.02q.06-.02.12-.02c.24.02.36.05.36.08,0,0,.06.03.12.03.12.03.78.08.84.08v.02h.12c.06,0,.18,0,.24.02q.06,0,.06-.02s.06-.03.06-.05c.06-.02.12-.05.18-.08,0-.03.06-.03.12-.03.06.02.12.02.3-.05.18-.03.24-.27.12-.53,0-.08-.06-.2-.06-.27,0-.05-.06-.13-.06-.17s-.06-.07-.06-.08-.06-.03-.06-.07c-.06-.03-.06-.12,0-.3,0-.25,0-.45-.06-.81-.12-.4-.12-.48-.12-.58.06-.88.12-1.08.12-1.1.06-.03.06-.35,0-.48-.06-.07-.06-.12,0-.13,0,0,0-.07-.06-.13-.06-.08-.06-.18-.06-.23s.06-.15.06-.2.06-.12.12-.15c.06-.03.12-.12.12-.4,0-.2-.06-.45-.06-.57s-.06-.37-.06-.55c-.06-.4-.06-.57-.18-.58-.06-.02-.06-.08,0-.1.12-.02,0-.32-.12-.32-.06-.02-.06-.07,0-.07s.06-.12.06-.25.06-.32.06-.38c.12-.6.12-1.68-.06-1.76v-.13c.06-.05,0-.18,0-.27-.06-.08-.12-.18-.12-.2,0-.03-.06-.12-.06-.18-.06-.08,0-.12,0-.13.06-.02.12-.07.12-.12,0-.07.06-.12.06-.13s0-.1-.06-.2q-.06-.18,0-.5c.06-.2.06-.33,0-.43-.06-.18-.06-.22,0-.27,0-.1-.12-.55-.18-.63-.18-.17-.3-.5-.36-.91,0-.1-.06-.2-.06-.22-.06-.03-.06-.05,0-.1v-.12c-.06-.03-.06-.12-.06-.18.06-.1,0-.12-.12-.15-.06-.02-.18-.05-.18-.07,0-.05-.24-.1-.54-.1-.12,0-.3-.02-.42-.02-.12-.02-.18,0-.24.02-.06.03-.12.03-.18.03s-.12.02-.12.03c-.06.02-.12.02-.18.02h-.06c-.06.02-.06.03-.12.03-.12,0-.48.12-.54.18-.06.07-.18.15-.3.13-.06,0-.06.02-.06.07s0,.05,0,.03l-.06-.05-.12.05c-.06.02-.12.05-.12.07s0,.05-.06.05-.24.2-.24.32c0,.07-.06.1-.12.13-.12.03-.18.07-.18.08,0,.03,0,.1-.06.15-.06.07-.06.15,0,.25,0,.07.06.35.06.62,0,.43,0,.47.12.57.12.07.12.12.12.28,0,.18,0,.3-.18.63-.06.2-.18.86-.18,1.21.06.78.06.93.12,1.05.06.2.06.96,0,1.25v.42c.06.08.12.22.12.32.06.08.06.17.12.17v.08c-.12.07-.12.57-.06.75.06.12.06.45,0,.6v.52c-.06.25-.06.5-.12.55,0,.05-.06.15-.12.22,0,.05-.06.22-.06.37,0,.13-.06.25-.06.27,0,0,0,.08.06.18v.58c.12,0,.18.22.12.22s-.06.12,0,.13v.05c-.06.02-.12.12-.18.22,0,.08-.06.17-.06.17v.15Z"></path><path class="cls-1" d="m25.99,35.05c-.06.02-.12.02-.18,0-.06-.02.06-.03.18-.03.12,0,.12.01,0,.03Zm.36-.3s0,.01,0,0v-.02h0Zm.12.17h0s0,0,0,0Zm.18-.22q-.12.01-.18,0c-.06-.01.06-.03.18-.03.12,0,.12.02,0,.03Zm.18.28s-.06,0-.06,0q-.06,0-.06,0s0,0,.06,0h.06Zm.18.01c-.12,0-.18,0-.12-.01,0-.01.06-.01.12-.01.12,0,.12.02,0,.02Zm.66,0c-.12,0-.18,0-.12-.03.06-.01.06-.02.12,0,.06.02.06.03,0,.03Zm1.26-2.53s-.06-.07-.06-.1c0-.04,0-.06-.12-.07-.06-.01-.06-.02-.06-.02.06,0,.12-.05.12-.14.06-.17.06-.21-.06-.24,0,0-.06-.02-.06-.03-.12-.02-.18-.03-.3-.02-.06,0-.06,0-.06,0,0-.02-.12-.02-.3-.02h-.18c-.06-.02-.12-.02-.24-.02-.12,0-.24,0-.3,0-.18,0-.48-.02-.6-.03,0,0-.06,0-.06,0,0,0-.12,0-.24-.02-.18-.01-.24-.02-.24,0q-.06,0-.12,0c-.24,0-.36-.02-.36-.03,0,0-.06-.01-.12-.01-.12,0-.78-.03-.84-.03h0s-.06,0-.12,0c-.06,0-.18,0-.24,0q-.06,0-.06,0s-.06.01-.06.02l-.18.03s-.06.01-.12.01c-.06,0-.12,0-.3.02-.18.01-.24.09-.12.17,0,.03.06.06.06.09,0,.02.06.04.06.05s.06.02.06.03.06.01.06.02c.06.01.06.04,0,.1,0,.08,0,.15.06.26.12.13.12.16.12.19-.06.29-.12.36-.12.36-.06.01-.06.11,0,.16.06.02.06.04,0,.04,0,0,0,.02.06.04.06.03.06.06.06.08s-.06.05-.06.06-.06.04-.12.05c-.06.01-.12.04-.12.13,0,.06.06.15.06.18,0,0,0,.02,0,.04h0s0,0,0,0h0s0,0,0,0h0s4.95,0,4.95,0h0s0-.02,0-.02v-.02s-.04-.07-.04-.1c-.06-.13-.06-.18-.18-.19-.06,0-.06-.03,0-.03.12,0,0-.1-.12-.1-.06,0-.06-.02,0-.02s.06-.04.06-.08.06-.1.06-.12c.02-.02.03-.05.04-.08h0s0,0,0,0h0s-4.58,0-4.58,0h0s0,0,0,0h0s0,.03,0,.03c0,.02,0,.03-.01.04-.01.06-.02.12-.02.18,0,.12.05.21.14.22v.04c-.06.02,0,.06,0,.09.06.03.12.06.12.06,0,.01.06.04.06.06.06.03,0,.04,0,.04-.06,0-.12.02-.12.04,0,.02-.06.04-.06.04s0,.03.06.06q.06.06,0,.16c-.06.06-.06.11,0,.14.06.06.06.07,0,.09,0,.03.12.18.18.21.18.05.3.16.36.3,0,.03.06.06.06.07.06.01.06.02,0,.03v.04c.06.01.06.04.06.06-.06.03,0,.04.12.05.06,0,.18.02.18.02,0,.02.24.03.54.03.12,0,.3,0,.42,0,.12,0,.18,0,.24,0,.06-.01.12-.01.18-.01s.12,0,.12-.01h.24c.06-.01.06-.02.12-.02.12,0,.48-.04.54-.06.06-.02.18-.05.3-.04.06,0,.06,0,.06-.02s0-.02,0-.01l.06.02.12-.02c.06,0,.12-.02.12-.02s0-.02.06-.02.24-.06.24-.1c0-.02.06-.03.12-.04.12-.01.18-.02.18-.03,0-.01,0-.03.06-.05.06-.02.06-.05,0-.08,0-.02-.06-.11-.06-.2,0-.14,0-.15-.12-.18-.12-.02-.12-.04-.12-.09,0-.06,0-.1.18-.21.06-.06.18-.28.18-.39-.06-.25-.06-.3-.12-.34-.03-.03-.04-.11-.04-.19h0s-4.89,0-4.89,0h0s0,0,0,0h0s0,.02,0,.02c0,0,0,.02,0,.03,0,.01,0,.03,0,.06,0,.04-.02.07-.03.09v.14c.06.03.12.07.12.1.06.03.06.05.12.05v.03c-.12.02-.12.18-.06.24h0s0,0,0,0h0c1.54,0,3.08,0,4.61,0h0s0,0,0,0h0s-.01-.03-.01-.03c0-.02-.01-.03-.01-.05,0-.04.02-.08.05-.1v-.17c.06-.08.06-.16.12-.18,0-.02.06-.05.12-.07,0-.02.06-.07.06-.12,0-.04.06-.08.06-.09,0,0,0-.03-.06-.06v-.19c-.12,0-.18-.07-.12-.07s.06-.04,0-.04v-.02c.06,0,.12-.04.18-.07,0-.03.06-.05.06-.05v-.05Z"></path></g></svg> 