<?xml version="1.0" encoding="UTF-8"?> <svg xmlns="http://www.w3.org/2000/svg" xmlns:xlink="http://www.w3.org/1999/xlink" id="Layer_2" viewBox="0 0 54.86 52.23"><defs><style>.cls-1{clip-path:url(#clippath);}.cls-2,.cls-3{fill:none;}.cls-2,.cls-3,.cls-4{stroke-width:0px;}.cls-5{clip-path:url(#clippath-1);}.cls-3{clip-rule:evenodd;}.cls-4{fill:#040404;}</style><clipPath id="clippath"><path class="cls-3" d="m25.43,49.5c.45.3.44.36-.09.15-.52-.25-.7-.63-.62-.7.22.03.31.17.71.55Zm-6.64-6.77l.12.12-.36-.35.24.23Zm3.96,3.67l.12.12-.24-.24.12.12Zm-4.85-4.93q.16.32-.12.13c-.28-.19-.57-.63-.48-.71-.04-.2.45.27.61.59Zm6.43,5.97c.12.12.08.16.08.16t-.16-.08s-.12-.12-.08-.16l.16.08Zm.37.11c.04.2-.12.12-.33-.15-.24-.24-.2-.28-.16-.32.2.03.45.27.48.47Zm.45-.46c-.08.08-.25,0-.69-.5-.2-.28-.32-.39-.04-.2.41.31.77.66.73.7Zm18.73-16.77c-.32.52-1.05,1.71-1.63,2.42-.77.96-1.08,1.3-1.21,1.61-.17.27-.27.38-.27.38-.14.1-1.11.97-3.12,2.87-3.85,3.57-4.83,4.5-5.36,5.16,0,0-.33.39-.57.62-.41.55-.49.71-.16.56.16-.07.04.04-.08.16-.37.35-.41.55-.29.68.04.04-.04.2-.12.36-.08.16-.04.2.04.28.2-.03.29.05.33.09.12.13-.04.69-.2,1,0,0-.08.16.04.04,0,0-.04.2-.2.52-.12.36-.2.52.04.28q.16-.07.2-.03c.04.28-.12.6-.37.83,0,0-.2.27-.16.32-.16.32-.08,1.12-.04,1.17l-.12.12s.04.04.08.08c.04.04.12.13.04.28t.16-.08c.12-.12.29-.19.41-.31.16-.07.45-.26.73-.45.24-.23.28-.19.33-.15-.08.16-.04.2.57-.14.37-.1,2.11-1.68,3.98-3.62.56-.55,1.46-1.45,1.91-1.89.37-.35.93-.97,1.18-1.2.24-.23.45-.5.57-.62.12-.12.2-.27.45-.51.22-.29.79-.82,2.22-2.12,1.93-1.92,3.42-3.57,5.42-7.03,1.03-1.92,1.52-3.14,1.85-3.99.34-.84.49-1.31.67-1.83,1.56-4.51,1.64-7.65,1.83-9.18.17-1.62.23-2.18.24-2.26.09-.33.37-3.52.43-4.87,0-.34.01-.63.03-.87.01-.11.02-.21.04-.3.02-.1.04-.25.06-.32,0,0,.05-.32.02-.78-.03-.46-.16-1.07-.42-1.61-.31-.69-.83-1.34-1.4-1.8-.57-.47-1.19-.74-1.61-.87-.41-.11-1.1-.31-1.72-.18-.63.06-1.34.4-1.7.53-.47.19-1.12.38-1.46.45-.17.03-.45.12-1.03.32-.31.11-.67.25-1.11.41l-.19.07c-.11.05-.21.09-.33.14-.1.04-.2.09-.3.13-.21.09-.45.17-.71.27-.74.25-1.62.41-2.42.45-.8.04-1.52-.05-1.98-.14-.45-.1-1.16-.27-1.88-.59-.36-.16-.73-.35-1.07-.57-.3-.18-.8-.54-1.15-.78-.84-.57-1.55-1.06-2.15-1.47-.33-.22-.48-.35-.99-.65-.43-.24-.85-.41-1.23-.52-1.53-.41-2.32-.15-2.43-.1-.27.05-1.31.35-1.58.43-.07,0-.41.13-.84.4-.51.34-.69.52-1.02.79-.6.5-1.16,1.02-1.12,1.06-.1.15-.49.46-.53.42-.1,0-.81.6-1.79,1.09-.97.51-2.45.79-2.99.81-1.21.1-2.69-.04-4.09-.6-.25-.12-.96-.41-1.34-.55-.45-.17-.9-.34-1.34-.51-1-.38-1.99-.75-2.94-1.11-.39-.18-.77-.19-1.15-.28-.37-.02-.77.04-1.13.11-.74.17-1.4.51-1.95.96-1.09.89-1.65,2.16-1.73,3.27-.03.28-.03.55,0,.81.02.21.04.42.06.61.03.24.06.47.08.68.05.39.09.65.12.75.01.17.06.67.12,1.34-.01.51.16,1.85.24,2.69.13.83.28,1.84.3,2.01.03.34.16,1.17.22,1.84.13.82.12,1.22.14,1.39-.04.18-.04.73.05,1.26.1.71.15,1.26.19,1.43.03.18.21,1.06.55,2.1.3.94.45,1.42.68,2.05.22.64.48,1.46,1.17,3.03.86,1.99,1.63,3.22,2.26,4.1,1.15,1.61,1.41,1.87,1.68,2.34.33.42,1.3,1.56,2.36,2.57.54.52,1.05.99,1.46,1.35.39.35.71.63.91.81,1.33,1.04,3.83,3.3,6.9,6.18.73.7,1.49,1.36,1.61,1.48.28.19.4.31.73.7.24.23.6.58.85.82.1.06.46.4.85.65.41.27.91.5,1.37.63.7.22,1.14.21,1.44.18.3-.03.48-.11.7-.2.23-.1.63-.34.84-.43.65-.27,1.03-.9.82-1.11-.07-.09-.05-.35-.13-.43.05-.2-.12-.12-.29-.06-.3.16-.33.1-.36.06-.03-.04-.19-.01-.33.06-.16.02-.19-.04-.21-.09l-.02-.05c-.15,0-.28.05-.3,0-.02-.06-.28-.08-.56-.16-.28-.07-.58-.19-.78-.27-.43-.14-.75-.56-.59-.59.02-.02,0-.05-.03-.09-.03-.03-.05-.05-.08-.08-.02-.02-.04-.03-.06-.05-.04-.04-.08-.08-.13-.12q-.36-.35-.24-.24l.4.31-.28-.43c-.08-.16-.28-.44-.4-.55-.12-.12-.36-.35-.32-.39.02-.02-.3-.41-.74-.91s-.98-1.08-1.41-1.49c-.49-.47-.69-.75-.89-1.02-.16-.32-.36-.6-.48-.71-.24-.24-.73-.71-1.05-1.1-.45-.51-1.05-1.1-1.83-1.76-.24-.23-.89-.84-1.72-1.63-.82-.78-1.89-1.77-2.72-2.62-1.39-1.46-2-2.36-2.44-2.91-.4-.57-.62-.8-.91-1.16-.43-.47-.7-.85-1.43-2.24-.75-1.54-1.28-2.54-1.98-5.57-.22-.92-.64-2.86-.77-5.1-.19-2.42-.39-4.97-.53-6.7-.09-.99-.18-1.87-.26-2.67l-.03-.3v-.14s-.01,0-.01,0v-.03s0-.04,0-.06c.02-.07.09-.11.14-.11.02,0,.05,0,.07.01.24.09.46.16.65.23.38.13.67.23.99.34.52.19,1.31.47,2.28.83.33.12.29.1.7.28.32.14.66.25,1.01.37.7.23,1.45.4,2.22.51,1.54.22,3.14.17,4.53-.11,1.39-.27,2.56-.73,3.35-1.1,1.01-.5,1.74-1.02,2.36-1.49.51-.4.98-.77,1.51-1.18.33-.29.7-.61,1.05-.92.14-.13.33-.21.5-.23.29-.11.59.01.61-.05.06.02.18.07.28.14.18.19,1.38,1.08,2.66,1.98.33.23.67.47,1,.7.4.27.8.52,1.2.73.8.42,1.55.71,2.08.87.68.21,2.01.56,3.43.63,1.42.1,2.89-.08,3.78-.27.2-.05,1-.22,2.06-.65.63-.28.83-.38,1.45-.61.54-.21,1.12-.44,1.71-.67.3-.11.6-.22.89-.33.14-.05.28-.11.42-.16l.06-.02c.08-.03.16-.03.22.01.12.06.15.17.13.21.01.03,0,.07-.01.12-.01.02-.03.04-.04.06-.03.17-.06.35-.09.52-.04.5-.25,2.18-.39,3.69-.12,1.34-.28,2.51-.3,2.68,0,0-.08.84-.11,1.85-.08.89-.21,2.41-.41,3.47-.19,1.06-.37,1.81-.42,1.96.14.03-.37,1.99-.44,1.96-.06-.02-.42,1-.41,1.17l-.18.43c-.1.13-.52.96-.97,1.77-.18.34-.37.68-.51.93-.14.25-.26.41-.26.41-.08.13-.29.54-.71,1.19Z"></path></clipPath><clipPath id="clippath-1"><rect class="cls-2" x="1" y="1" width="52.85" height="50.23"></rect></clipPath></defs><g id="Layer_1-2"><g class="cls-1"><g class="cls-5"><rect class="cls-4" width="54.86" height="52.23"></rect></g></g></g></svg> 