<?xml version="1.0" encoding="UTF-8"?> <svg xmlns="http://www.w3.org/2000/svg" id="Layer_2" viewBox="0 0 48.56 48.35"><defs><style>.cls-1{fill:none;}.cls-1,.cls-2,.cls-3{stroke-width:0px;}.cls-3{fill:#020202;}</style></defs><g id="Layer_1-2"><path class="cls-2" d="m23.24,10.05c0-.56.59-1.02,1.16-1.02s1.12.46,1.12,1.02v2.84c3.27.4,5.45,2.38,6.28,4.96.07.23.1.46.1.66,0,.93-.73,1.42-1.52,1.42-.66,0-1.19-.46-1.39-1.09-.46-1.69-2.31-3.17-4.79-3.17-3.01,0-4.59,1.82-4.59,3.67-.03,2.25,1.92,3.24,3.87,3.73l2.94.73c4.82,1.19,5.55,4,5.55,5.95,0,3.5-2.94,5.98-6.44,6.35v2.45c0,.56-.56,1.02-1.12,1.02s-1.12-.46-1.12-1.02v-2.48c-2.94-.4-5.02-2.15-5.75-4.73-.07-.23-.1-.5-.1-.76,0-.73.36-1.39,1.52-1.39.56,0,1.19.23,1.42,1.06.56,2.12,2.18,2.97,4.26,2.97,2.21,0,4.26-1.35,4.26-3.44,0-.99-.36-2.48-3.24-3.17l-2.97-.73c-3.9-.96-6.15-3.14-6.15-6.25,0-3.44,2.41-6.41,6.71-6.81v-2.78Z"></path><path class="cls-1" d="m23.24,10.05c0-.56.59-1.02,1.16-1.02s1.12.46,1.12,1.02v2.84c3.27.4,5.45,2.38,6.28,4.96.07.23.1.46.1.66,0,.93-.73,1.42-1.52,1.42-.66,0-1.19-.46-1.39-1.09-.46-1.69-2.31-3.17-4.79-3.17-3.01,0-4.59,1.82-4.59,3.67-.03,2.25,1.92,3.24,3.87,3.73l2.94.73c4.82,1.19,5.55,4,5.55,5.95,0,3.5-2.94,5.98-6.44,6.35v2.45c0,.56-.56,1.02-1.12,1.02s-1.12-.46-1.12-1.02v-2.48c-2.94-.4-5.02-2.15-5.75-4.73-.07-.23-.1-.5-.1-.76,0-.73.36-1.39,1.52-1.39.56,0,1.19.23,1.42,1.06.56,2.12,2.18,2.97,4.26,2.97,2.21,0,4.26-1.35,4.26-3.44,0-.99-.36-2.48-3.24-3.17l-2.97-.73c-3.9-.96-6.15-3.14-6.15-6.25,0-3.44,2.41-6.41,6.71-6.81v-2.78Z"></path><path class="cls-3" d="m25.61,10.06c0-.22-.04-.33-.02-.33,0,0,.08.1.1.33.03.4-.02.66-.07.66-.05-.13-.05-.27,0-.66Zm4.04,4.65c-.2-.18-.2-.17-.1-.09l.3.26-.2-.17Zm-3.87-1.66l-.14-.02c.14.02.29.05.29.05.14.02,0,0-.14-.02Zm4.6,2.58c-.13-.23-.13-.23.06-.05.19.18.37.54.33.56.03.13-.26-.29-.39-.52Zm-5.12-3.85c0-.13.03-.13.03-.13t.02.13s0,.13-.02.13l-.03-.13Zm-.07-.27c.05-.13.07,0,.05.27,0,.25-.02.31-.05.3-.05-.19-.05-.42,0-.56Zm-.27,0s.04.03.05.13c0,.12,0,.21,0,.65-.03.4-.03.61-.05.21-.03-.7-.03-.96,0-1Zm-5.22,11.87c-.38-.25-1.13-.91-1.43-1.47-.42-.73-.44-1.06-.55-1.25-.08-.2-.08-.31-.08-.31,0-.05-.03-.32-.02-.81.02-.49.09-1.2.41-2.03.68-1.59,1.65-2.23,2.24-2.61.63-.37.98-.5,1.24-.62,0,0,.32-.13.55-.19.45-.15.56-.2.32-.2-.12,0,0-.02.11-.05.69-.12.9-.18.85-.25-.02-.02.19-.08.37-.13.19-.05.16-.07.11-.12-.25-.02-.29-.06-.31-.08-.02-.02,0-.04.03-.07l.06-.04s-.02-.09-.03-.14c-.05-.21-.09-.44-.12-.6,0,0-.02-.17-.02-.01,0,0-.05-.18-.1-.47-.07-.28-.1-.4-.1-.14-.03.13-.03.13-.05.13-.1-.13-.15-.4-.15-.66,0,0-.02-.27-.05-.27-.05-.27-.33-.66-.35-.66v-.13h-.05s-.07,0-.1-.13t-.03.13s-.02.35-.02.4c-.03.13-.05.4-.07.66,0,.27-.03.27-.05.27-.01-.07-.03-.1-.04-.05,0,.02-.02.07-.03.14,0,.04-.01.08-.02.13,0,.04-.02.13-.03.11-.04,0-.06.02-.07,0h0c.07-.02-.1.02-.21.04-.24.05-.49.1-.75.19-.52.16-1.07.37-1.6.68-.69.34-1.54,1.02-1.96,1.49-.34.33-.78.97-.94,1.23-.16.27-.28.55-.36.69-.03.07-.17.44-.22.57-.06.3-.44,1.01-.53,2.68-.04,1.14.19,2.23.74,3.3.57,1.06,1.52,2.08,2.94,2.87,1.56.84,2.58,1.02,3.26,1.21.68.16,1.01.24,1.39.33.84.22,1.67.39,2.23.59.59.2,1.04.46,1.31.74.29.27.41.54.47.82.07.27.05.58.03.78-.18.85-.53,1.03-.52,1.08-.08.05-.41.44-.99.69-.56.28-1.3.39-1.73.4-.46.03-.79-.03-.9-.07,0,0-.43-.07-.82-.2-.49-.16-.93-.54-1.1-.78-.19-.22-.44-.78-.52-1.11-.02-.05-.06-.23-.13-.39-.06-.16-.14-.33-.25-.48-.2-.32-.49-.56-.69-.69-.19-.12-.6-.36-1.33-.38-.32,0-.77,0-1.41.32-.32.18-.64.46-.86.86-.22.41-.3.84-.3,1.26-.02.52.16,1.17.31,1.57.18.46.38.92.64,1.32.49.82,1.1,1.43,1.52,1.78.41.35,1.12.84,1.96,1.19.42.17.87.32,1.31.43l.12.02s.05,0,.04.03v.06c0,.14,0,.28,0,.41,0,.34,0,.65,0,.94v.22c0,.15.03.29.06.43.07.27.19.5.32.68.27.36.59.58.92.71.65.27,1.2.15,1.52.03.33-.13.48-.27.52-.31.09-.08.32-.27.49-.52.17-.24.27-.53.3-.64.01-.03.04-.12.05-.26.01-.07.01-.15.01-.25,0-.06,0-.11,0-.17,0-.23,0-.5,0-.86,0-.07,0-.15,0-.23v-.1s0-.02,0-.02l-.02-.07s-.02-.09-.04-.1c-.03-.06.09-.05.1-.03,0,0,.02,0,.04,0h.04s0,0,.03,0l.14-.03c.4-.08.93-.24,1.47-.47,1.12-.41,2.45-1.44,2.83-1.92.47-.5.92-1.12,1.26-1.86.34-.74.55-1.58.59-2.44.06-.85-.04-1.72-.31-2.58-.27-.85-.76-1.63-1.34-2.24-1.17-1.23-2.55-1.77-3.54-2.11-1.03-.31-1.66-.43-1.83-.46-.13-.03-.52-.13-1.03-.25-.38-.13-1.44-.33-1.97-.53-.58-.16-1.18-.48-1.26-.54-.19-.11-.62-.43-.83-.75-.28-.39-.27-.61-.3-.69,0-.1-.02-.39,0-.7.02-.4.13-.66.17-.75.03-.09.2-.55.63-.98.4-.39.68-.52,1.05-.67.38-.13.89-.32,2-.3,1.37.08,2.16.56,2.67.93.47.36.67.65.79.85.12.2.17.32.21.46.04.08.05.16.12.33.09.27.22.54.45.82.23.27.55.54.95.69.4.16.87.18,1.24.11.79-.1,1.58-.73,1.79-1.44.24-.71.06-1.16.04-1.38-.2-.84-.65-1.79-1.54-2.87-.88-1.05-2.28-2.05-4.01-2.53-.18-.06-.47-.12-.56-.14-.08-.02-.15-.02-.22-.03-.18.02-.13-.13-.14-.15-.01-.05-.02-.1-.02-.15,0-.04,0-.12.02-.29v-.93c-.01-.13-.02-.37-.02-.63v-.23c0-.12-.03-.24-.06-.35-.07-.23-.19-.43-.32-.58-.4-.47-.78-.55-1.02-.61-.25-.04-.41-.01-.6.04-.2.05-.53.24-.67.35-.5.3-.6.96-.45.97.04.02.09.19.15.19.05.15.06,0,.12-.12.1-.24.15-.21.16-.2.02.01.1-.08.18-.16.1-.06.12-.04.13-.02l.02.02c.1-.05.19-.1.2-.08.01.02.2-.03.39.01.2.03.38.17.48.29.11.11.14.25.11.32-.02.2-.05.34-.07.27-.02,0-.02.13-.02.53s0,.4,0,.27l-.02-.4-.05.4c-.03.13-.05.4-.05.53,0,.06,0,.12,0,.25,0,.08,0,.24-.02.22,0,0-.02.17-.03.46,0,.16-.01.33-.02.51v.31c0,.1-.06.26.09.24.43.09.93.17,1.43.28.27.06.48.14.69.2.45.15.65.27.85.39.19.14.37.28.47.33.19.12.57.37.81.62.33.31.72.71,1.1,1.26.12.18.44.71.68,1.41.02.14.03.25.06.38,0,.1-.02.16-.04.2-.03.07-.19.18-.44.18-.11,0-.18-.05-.26-.13-.04-.04-.07-.09-.1-.15l-.03-.07c-.03-.08-.05-.15-.07-.22-.22-.63-.5-1.04-.72-1.34-.47-.58-.73-.78-1.12-1.06-.27-.17-.51-.31-.86-.49-.35-.17-.82-.39-1.58-.56-.84-.17-1.53-.19-2.38-.1-.43.04-.9.14-1.45.32-.54.19-1.18.48-1.81,1.05-.37.33-.93.97-1.24,1.93-.16.48-.23,1.04-.19,1.59.03.56.18,1.19.49,1.75.63,1.15,1.74,1.82,2.68,2.21.48.2.95.35,1.39.47.41.1.79.2,1.13.28.75.19,1.43.35,2.04.5.56.15,1.05.31,1.46.48.82.34,1.37.71,1.73,1.03.72.65.88,1.05,1.06,1.37.13.29.33.8.38,1.5.06.72-.02,1.53-.33,2.3-.59,1.59-2.21,2.63-3.12,2.97-.29.12-.56.21-.81.28-.12.04-.25.06-.36.09-.05.01-.42.09-.63.12-.24.04-.48.08-.71.11-.2.07-.58-.02-.47.3v1.46c.01.42.02.88.03,1.29,0,.31.01.24,0,.28,0,.03-.02.05-.05.07-.06.09-.18.03-.19.05-.02,0-.08-.06-.08-.07.03,0-.08.03-.09.02h0s0,0,0,0h0c.05,0-.11,0,.11,0h0s0-.01,0-.01v-.07s0-.14,0-.14c0-.11,0-.22,0-.33,0-.7,0-1.48.01-2.29v-.44c-.12-.05-.28-.06-.42-.09l-.87-.16c-.13-.02-.31-.07-.38-.08-.07-.02-.13-.03-.2-.05-.13-.04-.25-.08-.38-.11-.49-.16-.88-.37-1.16-.52-.35-.19-.98-.64-1.46-1.26-.49-.62-.81-1.39-.94-1.89-.02-.06-.04-.13-.06-.3-.02-.17-.01-.39.03-.48.05-.07.01-.09.24-.15.1-.02.3-.03.4-.02.11.01.18.05.22.08.04.03.08.08.11.18l.08.27c.04.14.08.27.13.41.2.54.49,1.03.82,1.43.68.79,1.4,1.11,1.61,1.22.45.23,1.39.47,2.01.52.42.06,2.08.09,3.41-.62,1.21-.57,1.95-1.68,2.01-1.84,0,0,.11-.2.25-.53.12-.34.26-.84.25-1.38.02-.42-.03-1.12-.36-1.82-.33-.7-.92-1.26-1.42-1.57-1-.64-1.74-.77-1.88-.83,0,.02-.49-.09-.89-.17-.25-.06-.44-.1-.58-.13-.16-.04-.26-.07-.26-.07,0-.02-.9-.24-1.03-.25l-.39-.09c-.14-.06-.84-.26-1.52-.52-.57-.21-1.08-.5-1.08-.5-.1-.06-.42-.21-.88-.53Z"></path><path class="cls-3" d="m37.44,6.81c-.33-.31-.3-.36.11-.15.4.21.58.48.5.58-.2,0-.31-.08-.61-.43Zm5.37,6.24q-.16-.25-.08-.12l.24.37-.16-.25Zm-3-3.57l-.1-.11.2.21c.1.11,0,0-.1-.11Zm3.43,4.84c-.03-.32-.03-.32.16-.09.19.23.28.68.17.73-.04.18-.3-.33-.33-.64Zm-4.84-5.67c-.11-.09-.07-.14-.07-.14t.15.05s.11.09.07.14l-.15-.05Zm-.33-.05c-.03-.19.12-.14.29.1.22.19.18.23.14.28-.19,0-.4-.19-.43-.37Zm-.43.5c.08-.09.22-.05.6.36.17.23.27.32.02.18-.35-.23-.66-.5-.63-.54Zm-22.46-1.71c.21-.11.59-.3,1.01-.52.4-.21.87-.36,1.23-.5.96-.39,1.37-.4,1.58-.61.24-.12.36-.16.36-.16.07.02.39-.07.96-.12.57-.06,1.37-.23,2.41-.26,2.02-.1,3.28.1,4.12.21.84.08,1.25.22,1.59.21,0,0,.4.03.65.08.54.01.68.03.46-.18-.11-.1.02-.06.14-.01.38.13.54.06.6-.12.02-.06.17-.07.32-.08.15-.01.17-.07.21-.18-.09-.16-.05-.27-.03-.33.06-.17.56-.32.88-.34,0,0,.16-.01.02-.06,0,0,.19-.08.49-.07.33-.05.49-.04.22-.16-.11-.12-.11-.12-.09-.17.22-.16.55-.15.82-.03,0,0,.3.07.32.01.32.01,1.03-.39,1.06-.44l.14.06s.03-.05.05-.11c.03-.05.08-.16.25-.15q.03-.05-.12-.12c-.15-.07-.27-.18-.41-.25-.12-.12-.39-.31-.66-.49-.29-.13-.27-.19-.25-.24.17.01.2-.04-.33-.48-.23-.28-2.4-1.19-5.03-1.54-.82-.1-1.97-.22-2.63-.24-.5-.02-1.32.02-1.65.01-.33-.02-.66.06-.82.08-.16.01-.32.08-.65.1-.32.09-1.14.08-2.92.35-.61.08-1.17.24-1.74.39-.56.16-1.14.28-1.72.52-.58.23-1.21.43-1.88.74-.65.33-1.38.65-2.16,1.11-1.68,1.03-2.58,1.8-3.22,2.31-.64.51-.94.85-1.31,1.17-3.19,2.96-4.36,5.45-5.13,6.82-.66,1.45-.91,1.93-.92,2.01-.08.15-.36.96-.66,1.9-.26.95-.45,2.05-.55,2.7-.02.66-.07,1.15-.15,1.3,0,0-.01.14-.04.41-.02.25-.05.57,0,.9.06.82.01,1.8.07,2.29.02.42.09,1.53.11,1.96.08.48.15,1.13.15,1.47,0,.33.02,1.18.96,3.82.18.46.38.94.58,1.43.23.48.48.94.72,1.39.44.91.99,1.63,1.29,2.12.58,1,2.2,2.86,3.48,4.13.73.66,1.38,1.18,1.92,1.64.57.39,1.04.72,1.43.99.75.53,1.18.69,1.27.68.17.03.73.35.84.48.05.26,2.78,1.34,2.82,1.22.16.02.62.17.6.23-.01.03.25.13.67.28.42.13.99.37,1.62.51.61.14,1.36.32,2.05.49.69.1,1.3.19,1.61.23,1.45.2,3.22.24,5.04.08.91-.08,1.83-.26,2.74-.41.89-.25,1.79-.42,2.6-.73,3.32-1.11,5.67-2.84,5.95-3.13.13-.1.52-.39,1.04-.78.45-.21,1.37-1.15,1.97-1.71.57-.59,1.12-1.4,1.24-1.51.22-.24.71-.89,1.06-1.43.42-.69.66-.92.75-1.05.16-.09.44-.49.69-.91.32-.56.62-.96.7-1.1.1-.13.41-.89.76-1.8.36-.82.42-1.27.63-1.84.09-.28.2-.61.35-1.05.11-.44.24-1.01.42-1.76.4-1.91.47-3.22.39-4.2,0-.89-.06-1.42-.1-1.78-.03-.36-.03-.57-.03-.81,0-.49-.28-1.8-.58-3.08-.39-1.26-.8-2.47-1.01-2.82-.19-.36-.41-.81-.66-1.34-.33-.57-.66-1.15-1-1.74-.38-.64-.87-1.3-1.36-2.03-.55-.68-1.12-1.44-1.79-2.16-.66-.69-1.34-1.34-1.47-1.44-.28-.16-.4-.27-.71-.62-.24-.21-.6-.52-.83-.72-.28-.16-.93-.6-1.44-.97-.73-.61-.92-.61-1.25-.66-.17-.03-.5-.08-.63-.15-.41-.23-.92-.25-1.06.02-.06.11-.27.19-.32.3-.18.03-.08.16.02.29.23.2.2.25.17.3-.03.05.07.18.2.25.1.12.07.18.04.23l-.03.05c.1.12.22.19.19.25-.06.12.64.87,1.04,1.28.42.37.92.87.73.89-.04.05.08.12.4.37q.31.27.21.18l-.35-.22.23.36c.06.14.23.36.33.45.1.09.31.27.27.31-.03.03.27.31.58.73.32.42.72.9,1.04,1.24.34.41.45.67.56.91.07.28.18.52.26.63.18.19.44.66.6,1.01.11.24.26.49.44.77.16.28.33.6.53.93.28.44,1.23,2.47,1.7,4.51.36,1.67.38,2.58.45,3.17.07.58.05.85.12,1.24.06.26.09.5.1.83,0,.33-.07.75-.13,1.41-.21,1.42-.35,2.38-1.46,4.75-.33.71-1.07,2.26-2.2,3.7-.51.76-1.2,1.43-1.79,2.1-.33.3-.65.59-.95.86-.29.28-.58.53-.86.72-.61.46-1.13.9-1.68,1.2-.53.32-.98.64-1.43.83-.44.22-.83.41-1.17.58-.36.14-.67.26-.94.36-1.09.45-1.61.52-2.04.69-.74.26-2.63.59-4.62.62-2,.05-4.04-.41-5.11-.69-1.38-.41-2.14-.64-3.09-1.1-.31-.11-.73-.24-1.13-.43-.4-.2-.81-.42-1.15-.62-.62-.25-1.13-.68-1.18-.62-.11-.08-.33-.23-.54-.38-.57-.52-1.19-1.07-1.95-1.76-.43-.45-.87-.91-1.28-1.34-.36-.46-.69-.86-.93-1.14-.34-.32-.78-1.11-1.3-1.88-.41-.83-.89-1.67-1.04-2.25-.05-.12-.24-.62-.51-1.31-.18-.72-.53-1.62-.66-2.6-.2-.97-.22-1.96-.28-2.75,0-.79.04-1.38.07-1.57-.03-.4.16-1.17.26-1.68,0-.39.32-1.66.63-2.77.16-.46.32-.91.45-1.3.13-.35.28-.57.29-.63,0,0,.26-.59.52-1.33.34-.55.92-1.72,1.5-2.42.5-.75.95-1.23,1.04-1.32-.1-.08.99-1.39,1.07-1.31.04.04.71-.57.77-.71.1-.09.19-.18.29-.26.14-.03.81-.45,1.46-.87.54-.35,1.13-.63,1.13-.63.12-.05.42-.3,1.02-.56Z"></path></g></svg> 