<?xml version="1.0" encoding="UTF-8"?> <svg xmlns="http://www.w3.org/2000/svg" id="Layer_2" viewBox="0 0 48.73 49.26"><defs><style>.cls-1{fill:#020202;stroke-width:0px;}</style></defs><g id="Layer_1-2"><path class="cls-1" d="m7.52,18.34c-.12.38-.18.38-.18-.03,0-.41.16-.65.28-.63.09.15.08.28-.1.66Zm2.91-6.73q-.14.22-.07.11l.2-.33-.14.22Zm-1.67,3.8l-.04.12c.04-.12.09-.24.09-.24.04-.12,0,0-.04.12Zm2.55-4.62c-.25.14-.25.14-.15-.1.11-.24.44-.48.53-.41.17-.03-.13.38-.38.51Zm-2.61,6.07c-.03.12-.09.11-.09.11q-.06-.01-.03-.14s.03-.12.09-.11l.03.14Zm.11.29c-.15.09-.17-.04-.05-.27.06-.25.12-.23.18-.21.08.15.02.39-.13.49Zm.64.16c-.12-.03-.14-.16.04-.62.12-.22.15-.34.15-.08-.03.37-.12.72-.18.71Zm7.82,18.08c-.36-.27-1.23-.82-1.71-1.31-.69-.59-.88-.88-1.13-.96-.2-.13-.28-.21-.28-.21-.03-.12-.71-.91-1.66-2.46-.9-1.52-1.24-2.58-1.5-3.27-.29-.68-.34-1.05-.49-1.31,0,0-.14-.32-.2-.54-.23-.42-.27-.53-.37-.28-.04.13-.06.01-.08-.1-.05-.35-.19-.44-.37-.42-.06,0-.14-.1-.21-.21-.08-.11-.14-.1-.26-.09-.1.14-.22.16-.28.16-.18.03-.53-.3-.69-.54,0,0-.08-.12-.06,0,0,0-.15-.11-.28-.36-.19-.24-.26-.37-.25-.11q-.05.14-.11.14c-.25-.11-.38-.37-.39-.64,0,0-.07-.27-.13-.26-.13-.26-.81-.66-.87-.67v-.14s-.07,0-.13,0c-.06,0-.18,0-.25-.14q-.06,0-.05.14c0,.14-.05.29-.04.43-.05.15-.1.44-.14.73.02.29-.04.3-.1.3-.07-.14-.13-.14-.28.47-.15.3,0,2.43.83,4.69.27.7.64,1.68.91,2.21.19.4.57,1.05.7,1.31.12.27.34.49.42.62.08.13.2.22.36.48.2.22.56.87,1.51,2.19.32.46.7.82,1.05,1.22.36.39.71.79,1.14,1.15.82.77,1.8,1.56,3.17,2.43,3.08,1.74,3.86,1.81,4.66,2.15,3.68,1.32,6.14,1.25,7.55,1.31,1.43-.05,1.91-.05,1.98-.07.15,0,.92-.09,1.79-.23.87-.16,1.83-.46,2.39-.63.54-.26.95-.41,1.11-.4,0,0,.12-.05.34-.13.2-.09.48-.18.73-.35.64-.38,1.44-.74,1.82-.96.32-.18,1.21-.68,1.54-.86.37-.24.86-.56,1.14-.68.14-.06.36-.2.8-.5.4-.35,1.06-.85,1.93-1.76,1.26-1.27,2.49-3.14,2.99-4.05.58-.86,1.45-2.92,1.96-4.46.25-.85.4-1.6.55-2.22.11-.63.16-1.15.22-1.56.12-.82.07-1.23.03-1.31-.05-.15-.02-.73.04-.88.2-.14-.06-2.79-.18-2.77-.05-.14-.13-.57-.07-.58.03,0,0-.26-.05-.66-.07-.4-.1-.95-.26-1.51-.15-.57-.29-1.25-.46-1.85-.21-.6-.39-1.13-.47-1.39-.45-1.24-1.16-2.67-2.04-4.07-.47-.68-.96-1.36-1.49-2.01-.57-.6-1.07-1.26-1.68-1.77-2.29-2.17-4.64-3.33-5-3.4-.13-.06-.53-.25-1.05-.51-.36-.28-1.49-.6-2.18-.86-.71-.19-1.58-.31-1.72-.36-.11-.02-.37-.08-.68-.14-.33-.04-.66-.08-.9-.12-.73-.05-1-.15-1.15-.17-.14-.1-.57-.16-1-.19-.58-.03-1.02-.11-1.16-.12-.15-.03-.88.03-1.75.13-.8.05-1.19.17-1.73.24-.26.04-.56.08-.99.14-.41.08-.91.21-1.58.36-1.7.43-2.79.89-3.54,1.34-.72.36-1.12.6-1.4.78-.28.17-.44.25-.65.34-.39.2-1.35.94-2.26,1.68-.86.81-1.69,1.62-1.88,1.93-.87,1.15-2.66,3.45-3.96,6.77-.29.8-.53,1.62-.57,1.76-.01.29-.05.43-.21.82-.07.27-.18.69-.25.96-.02.29-.1.99-.2,1.55-.2.83-.12.98-.02,1.27.05.15.16.43.15.57-.02.42.2.84.5.84.12,0,.29.14.41.14.11.13.18,0,.25-.13.07-.26.13-.26.19-.26.06,0,.13-.13.13-.26.07-.13.13-.12.19-.12h.06c.07-.12.07-.25.13-.25.13,0,.49-.85.66-1.32.14-.48.34-1.06.44-.92.07.01.06-.11.15-.46q.09-.35.06-.23l-.03.36.21-.32c.09-.1.21-.32.24-.43s.09-.34.15-.33c.04.01.14-.33.36-.73.21-.41.44-.91.58-1.3.21-.42.36-.6.51-.79.21-.16.36-.33.41-.44.09-.21.35-.59.58-.86.14-.18.29-.39.44-.63.17-.23.35-.49.53-.78.23-.39,1.47-1.91,2.91-3.07,2.4-1.78,2.7-1.72,3.25-2.16.18-.15.35-.27.61-.41.27-.11.62-.24,1.17-.44,1.21-.38,2.02-.65,4.33-.69.69-.02,2.2-.05,3.79.26.8.1,1.6.36,2.36.56.73.28,1.43.5,1.97.77,2.43,1.11,3.7,2.15,4.45,2.84.79.66,1.07,1.03,1.37,1.3.52.46,1.53,1.8,2.37,3.32.84,1.53,1.32,3.29,1.51,4.24.23,1.24.36,1.92.38,2.84.04.29.11.66.12,1.05,0,.39,0,.79-.02,1.14.06.59-.09,1.15,0,1.16-.02.11-.05.34-.09.57-.2.7-.4,1.37-.64,2.21-.19.51-.38,1.03-.56,1.52-.22.46-.41.88-.53,1.17-.13.39-.56,1.05-.98,1.74-.5.64-.98,1.34-1.38,1.68-.08.08-.38.44-.84.9-.49.43-1.08,1.03-1.8,1.52-.69.53-1.48.91-2.06,1.28-.63.29-1.1.5-1.27.55-.3.18-.99.31-1.43.43-.16.06-.51.18-.96.26-.45.08-.96.26-1.47.31-.42.05-.84.11-1.2.15-.33.03-.56,0-.61.01,0,0-.57.03-1.25.12-.57-.05-1.71-.04-2.5-.21-.39-.06-.73-.1-.98-.16-.25-.06-.41-.11-.47-.12-.02.12-1.49-.19-1.46-.29.02-.06-.73-.33-.86-.31l-.32-.12c-.08-.1-.67-.46-1.26-.8-.26-.11-.48-.3-.66-.42-.16-.11-.29-.21-.29-.21-.09-.07-.41-.2-.85-.56Z"></path><path class="cls-1" d="m12.56,38.08c.08.01.11.06.12.14,0,.08-.1,0-.18-.09-.07-.1-.05-.11.06-.05Zm-.92.31s.02-.02.01-.01c-.01.01-.02.02-.04.03l.02-.02Zm.32-.43h.01s-.02.01-.02.01c-.01.01,0,0,.01-.01Zm-.62.29q.1.07.12.14c.01.07-.1,0-.18-.08-.09-.08-.04-.12.06-.05Zm.53-.68s.05.04.05.04t.03.06s-.01.01-.05-.04l-.03-.06Zm-.09-.16c.09.08.12.14.05.11-.02.02-.06-.02-.1-.07-.07-.1-.04-.12.05-.04Zm-.43-.5c.08.09.1.15.02.14-.06-.02-.08-.01-.09-.08,0-.08.04-.11.07-.06Zm-10.14,6.93s-.12.18-.2.24c-.1.08-.14.12-.08.23.01.07,0,.08,0,.08-.05-.04-.2.01-.4.18-.42.28-.52.36-.51.51,0,0,0,.08-.02.1.03.13.05.19.16.26.05.04.04.05.03.06-.04.03.03.13.14.27.04.05.07.1.09.16.03.06.07.1.14.19.09.08.17.17.21.22.12.14.27.4.33.51,0,0,.03.06.04.05,0,0,.07.1.12.21.09.16.12.21.14.19q.05.04.09.08c.14.19.2.31.17.33,0,0,.01.07.05.11.05.11.44.65.48.69h-.01s.04.06.08.1c.04.05.12.14.14.19t.05.04s.06.02.08.01c.05.04.11.06.18.09.02-.02.06.02.1.07.03.06.07.1.23.2.14.12.35.02.47-.24.06-.05.11-.17.16-.21.04-.03.06-.13.08-.15.02-.02.01-.09.02-.1.01-.01-.01-.07.01-.09-.01-.07.05-.12.22-.19.19-.16.33-.28.57-.56.22-.34.28-.4.36-.46.69-.51.88-.59.89-.6.06.02.3-.17.36-.3.01-.09.05-.12.1-.08,0,0,.05-.04.06-.13.02-.1.1-.16.13-.19.04-.03.15-.05.19-.08s.13-.03.19,0,.16.02.37-.16c.15-.13.3-.33.38-.4.09-.07.23-.28.37-.39.26-.3.38-.4.32-.5-.03-.06.02-.1.07-.06.09.08.23-.2.16-.29-.03-.06.01-.09.05-.04s.13-.03.22-.11.27-.15.32-.19c.52-.29,1.33-.96,1.27-1.15.01-.01.05-.04.1-.08.08.01.14-.12.2-.17.02-.1.06-.21.07-.22.02-.02.05-.12.1-.16.02-.1.09-.07.1-.08.05.04.13.05.16.02.05-.04.13-.03.14-.04.01-.01.07-.06.11-.17q.1-.16.37-.31c.19-.08.29-.16.32-.27.1-.16.12-.18.2-.17.07-.06.33-.44.35-.54,0-.24.18-.54.45-.85.07-.06.11-.17.12-.18-.01-.07,0-.08.07-.06.02-.02.06-.05.09-.07-.01-.07.05-.12.1-.16.11-.02.09-.07.03-.19-.03-.06-.08-.17-.07-.18.04-.03-.08-.25-.27-.47-.08-.09-.18-.24-.26-.33-.07-.1-.12-.14-.17-.17-.06-.02-.1-.07-.14-.12-.04-.05-.09-.08-.1-.07-.05-.04-.09-.08-.13-.13l-.04-.05c-.05-.04-.06-.02-.1-.07-.08-.09-.4-.29-.48-.3-.09,0-.23-.04-.29-.15-.04-.05-.05-.04-.09,0t-.02.02v-.08s-.12-.06-.12-.06c-.05-.04-.11-.06-.13-.05-.01.01-.04.03-.08-.01-.04-.05-.3-.06-.39.02-.05.04-.11.02-.18,0-.1-.07-.17-.1-.18-.09-.02.02-.07.06-.15.05-.09,0-.15.05-.19.16-.05.04-.22.27-.42.43-.32.27-.35.29-.34.45.03.13,0,.17-.13.27-.14.11-.22.19-.59.26-.19.08-.76.41-1.02.63-.54.54-.65.63-.7.75-.11.17-.68.65-.93.78-.14.12-.21.18-.31.26-.02.1-.08.23-.16.29-.02.1-.08.15-.05.2-.01.01-.04.03-.06.05-.13-.05-.5.26-.59.42-.05.12-.3.33-.45.38-.02.02-.2.17-.38.32-.22.11-.41.27-.49.25-.04.03-.15.05-.24.04-.04.03-.2.09-.31.18-.1.08-.22.11-.24.12,0,0-.06.05-.1.16-.06.05-.19.16-.27.23-.09.07-.15.13-.16.14.08.09-.04.27-.08.23-.04-.05-.13.03-.1.08-.01.01-.02.02-.04.03-.05-.04-.16-.02-.28,0-.06.05-.16.06-.16.06-.01.01-.05.04-.11.09Z"></path><path class="cls-1" d="m35.11,19.01c.05.06.05.12,0,.18-.05.06-.09-.06-.09-.18.01-.12.03-.12.08,0Zm-.95-.33s.03,0,.02,0h-.05s0,0,.03,0Zm.53-.14h.02s-.03,0-.03,0c-.02,0,0,0,.02,0Zm-.69-.16q.04.12,0,.18c-.03.06-.09-.06-.09-.18-.02-.12.05-.12.08,0Zm.86-.21s.02.06.02.06q0,.06-.01.06s-.02,0-.02-.06v-.06Zm.03-.18c.02.12,0,.18-.03.12-.03,0-.04-.06-.04-.12.01-.12.05-.12.07,0Zm-.02-.66c0,.12-.01.18-.08.12-.04-.06-.05-.06-.02-.12.05-.06.1-.06.1,0Zm-12.53-1.3c-.07,0-.22.06-.32.06-.13,0-.19,0-.22.12-.03.06-.05.06-.05.06-.02-.06-.17-.12-.44-.13-.52-.07-.66-.07-.74.05,0,0-.05.06-.08.06-.07.12-.09.18-.05.3.02.06,0,.06-.02.06-.05,0-.07.12-.07.3,0,.06-.02.12-.03.18s-.02.12-.02.24c.02.12.01.24.01.3,0,.18-.05.48-.09.6,0,0-.02.06,0,.06,0,0-.02.12-.05.24-.03.18-.05.24-.02.24q.02.06.02.12c-.02.24-.05.36-.09.36,0,0-.03.06-.03.12-.03.12-.09.78-.09.84h-.02s0,.06,0,.12c0,.06,0,.18-.02.24q0,.06.02.06s.03.06.05.06c.02.06.05.12.08.18.03,0,.03.06.03.12-.02.06-.02.12.05.3.03.18.26.24.53.12.08,0,.2-.06.27-.06.05,0,.13-.06.17-.06s.07-.06.08-.06.03-.06.07-.06c.03-.06.12-.06.3,0,.25,0,.45,0,.82-.05.4-.11.48-.11.58-.11.44.04.71.07.87.1.14.03.22.04.22.04.03.06.35.07.48,0,.07-.06.12-.06.13,0,0,0,.07,0,.13-.06.08-.06.18-.06.23-.06.05,0,.15.06.2.06s.12.06.15.12.11.12.4.13c.2,0,.45-.05.57-.05.12,0,.37-.05.56-.05.4-.05.57-.05.59-.17.02-.06.09-.06.1,0,.02.12.32,0,.32-.12.02-.06.07-.06.07,0,0,.06.12.06.25.06.14,0,.32.06.39.06.61.13,1.71.13,1.8-.05.02,0,.07,0,.14,0,.05.06.19,0,.27,0,.08-.06.19-.12.2-.12.03,0,.12-.06.19-.06.08-.06.12,0,.14,0,.02.06.07.12.12.12.07,0,.12.06.14.06.02,0,.1,0,.2-.06q.19-.06.51,0c.21.06.34.06.44,0,.19-.06.22-.06.27,0,.1,0,.56-.13.64-.19.17-.18.5-.31.92-.39.1,0,.2-.07.22-.07.03-.06.05-.06.1,0,.03,0,.08,0,.12,0,.03-.06.12-.06.18-.07.1.06.12,0,.15-.13.01-.06.04-.18.06-.18.05,0,.09-.24.08-.54,0-.12,0-.3,0-.42.01-.12,0-.18-.03-.24-.04-.06-.04-.12-.04-.18,0-.06-.02-.12-.04-.12-.02-.06-.02-.12-.02-.18v-.06c-.02-.06-.04-.06-.04-.12,0-.12-.14-.48-.2-.53-.07-.06-.16-.17-.14-.29,0-.06-.02-.06-.07-.06t-.03,0l.05-.06-.05-.12c-.02-.06-.05-.12-.07-.12-.02,0-.05,0-.05-.06s-.21-.23-.32-.23c-.07,0-.1-.06-.14-.12-.04-.12-.07-.18-.09-.18-.03,0-.1,0-.15-.06-.07-.06-.15-.06-.25,0-.07,0-.34.07-.6.07-.43,0-.46,0-.55.13-.06.12-.11.12-.28.12-.18,0-.3,0-.62-.17-.2-.06-.85-.17-1.2-.18-.77.06-.92.06-1.04.12-.2.06-.96.05-1.24-.01h-.42c-.08.05-.22.11-.32.11-.08.06-.17.06-.17.12h-.08c-.06-.12-.56-.13-.75-.07-.12.06-.45.05-.6-.01-.03,0-.27,0-.52,0-.25-.06-.5-.07-.55-.13-.05,0-.15-.06-.22-.12-.05,0-.22-.06-.37-.07-.13,0-.25-.06-.27-.06,0,0-.08,0-.19.06-.08,0-.25,0-.37,0-.12,0-.2,0-.22,0,0,.12-.22.18-.22.12,0-.06-.12-.06-.13,0h-.05c-.02-.06-.12-.12-.22-.18-.08,0-.17-.06-.17-.06h-.15Z"></path><path class="cls-1" d="m20.34,25.83c-.05-.06-.05-.12,0-.18s.09.06.09.18c-.01.12-.03.12-.08,0Zm.95.33s-.03,0-.02,0h.05s0,0-.03,0Zm-.53.14h-.02s.03,0,.03,0c.02,0,0,0-.02,0Zm.69.16q-.04-.12,0-.18c.03-.06.08.06.09.18.02.12-.05.12-.08,0Zm-.86.21s-.02-.06-.02-.06q0-.06.01-.06s.02,0,.02.06v.06Zm-.03.18c-.02-.12,0-.18.03-.12.03,0,.04.06.04.12-.01.12-.05.12-.07,0Zm.02.66c0-.12.01-.18.08-.12.04.06.05.06.02.12-.05.06-.1.06-.1,0Zm12.53,1.3c.07,0,.22-.06.32-.06.13,0,.19,0,.22-.12.03-.06.05-.06.05-.06.02.06.17.12.44.12.52.07.66.07.74-.05,0,0,.05-.06.08-.06.07-.12.09-.18.05-.3-.02-.06,0-.06.02-.06.05,0,.07-.12.07-.3,0-.06.02-.12.03-.18.02-.06.02-.12.02-.24-.02-.12-.01-.24-.01-.3,0-.18.05-.48.09-.6,0,0,.02-.06,0-.06,0,0,.02-.12.05-.24.03-.18.05-.24.02-.24q-.02-.06-.02-.12c.02-.24.05-.36.09-.36,0,0,.03-.06.03-.12.03-.12.09-.78.09-.84h.02s0-.06,0-.12c0-.06,0-.18.02-.24q0-.06-.02-.06s-.03-.06-.05-.06c-.02-.06-.05-.12-.08-.18-.03,0-.03-.06-.03-.12.02-.06.02-.12-.05-.3-.03-.18-.26-.24-.53-.12-.08,0-.2.06-.27.06-.05,0-.13.06-.17.06-.03,0-.07.06-.08.06s-.03.06-.07.06c-.03.06-.12.06-.3,0-.25,0-.45,0-.82.05-.4.11-.48.11-.58.11-.44-.04-.71-.07-.87-.1-.14-.03-.22-.04-.22-.04-.03-.06-.35-.07-.48,0-.07.06-.12.06-.13,0,0,0-.07,0-.13.06-.08.06-.18.06-.23.06-.05,0-.15-.06-.2-.06-.05,0-.12-.06-.15-.12-.03-.06-.11-.12-.4-.13-.2,0-.45.05-.57.05-.12,0-.37.05-.56.05-.4.05-.57.05-.59.17-.02.06-.09.06-.1,0-.02-.12-.32,0-.32.11-.02.06-.07.06-.07,0,0-.06-.12-.06-.25-.06-.14,0-.32-.06-.39-.06-.61-.13-1.71-.13-1.8.05-.02,0-.07,0-.14,0-.05-.06-.19,0-.27,0-.08.06-.19.12-.2.12-.03,0-.12.06-.19.06-.08.06-.12,0-.14,0-.02-.06-.07-.12-.12-.12-.07,0-.12-.06-.14-.06-.02,0-.1,0-.2.06q-.19.06-.51,0c-.21-.06-.34-.06-.44,0-.19.06-.22.06-.27,0-.1,0-.56.13-.64.19-.17.18-.5.31-.92.39-.1,0-.2.07-.22.07-.03.06-.05.06-.1,0-.03,0-.08,0-.12,0-.03.06-.12.06-.18.07-.1-.06-.12,0-.15.13-.01.06-.04.18-.06.18-.05,0-.09.24-.08.54,0,.12,0,.3,0,.42-.01.12,0,.18.03.24.04.06.04.12.04.18,0,.06.02.12.04.12.02.06.02.12.02.18v.06c.02.06.04.06.04.12,0,.12.14.48.2.53s.16.17.14.29c0,.06.02.06.07.06t.03,0l-.05.06.05.12c.02.06.05.12.07.12.02,0,.05,0,.05.06,0,.06.21.23.32.23.07,0,.1.06.14.12.04.12.07.18.09.18.03,0,.1,0,.15.06.07.06.15.06.25,0,.07,0,.34-.07.6-.07.43,0,.46,0,.55-.13.06-.12.11-.12.28-.12.18,0,.3,0,.63.17.2.06.85.17,1.2.18.77-.06.92-.06,1.04-.12.2-.06.96-.05,1.24.01.18,0,.28,0,.42,0,.08-.06.22-.12.32-.12.08-.06.17-.06.17-.12h.08c.06.12.56.13.75.07.12-.06.45-.05.6.01.03,0,.27,0,.52,0,.25.06.5.07.55.13.05,0,.15.06.22.12.05,0,.22.06.37.07.13,0,.25.06.27.06,0,0,.08,0,.19-.06.08,0,.25,0,.37,0s.2,0,.22,0c0-.12.22-.18.22-.12,0,.06.12.06.13,0h.05c.02.06.12.12.22.18.08,0,.17.06.17.06.02,0,.07,0,.15,0Z"></path></g></svg> 