<?xml version="1.0" encoding="UTF-8"?> <svg xmlns="http://www.w3.org/2000/svg" id="Layer_2" viewBox="0 0 100.5 100.5"><defs><style>.cls-1{fill:none;}.cls-1,.cls-2,.cls-3{stroke-width:0px;}.cls-3{fill:#8ee167;}</style></defs><g id="Layer_1-2"><path class="cls-3" d="m39.17,98.57H10.45c-4.14,0-7.5-3.36-7.5-7.5v-19.46c0-4.14,3.36-7.5,7.5-7.5h28.72c4.14,0,7.5,3.36,7.5,7.5v19.46c0,4.14-3.36,7.5-7.5,7.5Zm-27.22-9h25.72v-16.46H11.95v16.46Z"></path><path class="cls-3" d="m90.05,98.57h-28.73c-4.14,0-7.5-3.36-7.5-7.5v-19.46c0-4.14,3.36-7.5,7.5-7.5h28.73c4.14,0,7.5,3.36,7.5,7.5v19.46c0,4.14-3.36,7.5-7.5,7.5Zm-27.23-9h25.73v-16.46h-25.73v16.46Z"></path><path class="cls-2" d="m49.81,61.56c-16.44,0-29.81-13.38-29.81-29.81S33.37,1.93,49.81,1.93s29.82,13.38,29.82,29.81-13.38,29.81-29.82,29.81Zm0-50.63c-11.48,0-20.81,9.34-20.81,20.81s9.34,20.81,20.81,20.81,20.82-9.34,20.82-20.81-9.34-20.81-20.82-20.81Z"></path><path class="cls-2" d="m25.64,43.1c-2,0-3.89-.78-5.3-2.2l-9.19-9.18c-1.76-1.76-1.76-4.61,0-6.36s4.61-1.76,6.36,0l8.12,8.12,8.12-8.12c1.76-1.76,4.61-1.76,6.36,0s1.76,4.61,0,6.36l-9.19,9.18c-1.42,1.42-3.3,2.2-5.3,2.2Z"></path><path class="cls-2" d="m85.28,42.24c-1.15,0-2.3-.44-3.18-1.32l-8.12-8.12-8.12,8.12c-1.76,1.76-4.61,1.76-6.36,0-1.76-1.76-1.76-4.61,0-6.36l9.18-9.19c2.92-2.92,7.68-2.92,10.61,0l9.19,9.19c1.76,1.76,1.76,4.61,0,6.36-.88.88-2.03,1.32-3.18,1.32Z"></path><path class="cls-1" d="m100.5,100.5H0V0h100.5v100.5Zm-100-.5h99.5V.5H.5v99.5Z"></path></g></svg> 