<?xml version="1.0" encoding="UTF-8"?> <svg xmlns="http://www.w3.org/2000/svg" xmlns:xlink="http://www.w3.org/1999/xlink" id="Layer_2" viewBox="0 0 49.42 49.01"><defs><style>.cls-1{clip-path:url(#clippath);}.cls-2{clip-path:url(#clippath-1);}.cls-3{clip-rule:evenodd;fill:none;}.cls-3,.cls-4{stroke-width:0px;}.cls-4{fill:#020202;}</style><clipPath id="clippath"><path class="cls-3" d="m16.03,20.35s.05-.05.09-.03c.04.02-.01.06-.07.08-.06,0-.07,0-.02-.05Zm.06.86c.03-.06.03-.06.08-.06.04,0,.01.07-.03.11-.04.05-.07,0-.04-.05Zm-.53-.55c.06-.04.09-.03.07,0,.01.03-.02.04-.05.05-.07.01-.08-.02-.02-.05Zm-.33.13c.06-.02.09-.02.09.05-.02.04,0,.06-.05.04-.05-.03-.07-.08-.04-.09Zm3.45-4.49c-.07-.02-.25-.01-.36-.02-.15-.02-.21-.02-.25.05-.04.03-1.68.49-2.12,1.06-.44.56.05.82-.95,2.37-.06,0-.1.68-.12.76-.01.07.34.15.27.15-.03,0-.02.03,0,.07t.01.03l-.05-.04-.04.07s-.04.07-.04.09c0,.02.02.05,0,.06-.03,0-.03.25.03.37.04.06.03.11.02.16-.03.07-.04.12-.03.13.02.03.06.1.07.16.02.08.08.16.17.23.05.06.29.27.52.46.38.29.42.29.55.29.09-.02.14,0,.3.08.18.08.29.13.62.32.1.05.34.12.62.15.28.04.59.02.8-.02.24-.05.42-.12.56-.18.15-.06.24-.12.32-.16.16-.09.22-.14.27-.19.09-.08.31-.25.51-.45.2-.2.38-.43.48-.55.11-.17.16-.27.23-.4.02-.1.04-.24.08-.34,0-.1.03-.18,0-.19,0-.02.02-.05.03-.08.09-.04.21-.58.17-.79-.02-.13-.03-.5-.03-.67,0-.04-.04-.3-.14-.58-.06-.29-.22-.55-.22-.62-.03-.05-.07-.17-.09-.25-.03-.05-.13-.23-.26-.36-.05-.06-.2-.24-.21-.24,0,0-.08-.07-.19-.12-.08-.06-.23-.17-.35-.24-.12-.06-.2-.11-.22-.12-.03.05-.26-.02-.25-.05.01-.03-.11-.08-.14-.06-.02,0-.03-.02-.05-.02,0-.04-.1-.1-.2-.17-.09-.03-.17-.08-.17-.08-.02,0-.07-.02-.17-.04Z"></path></clipPath><clipPath id="clippath-1"><path class="cls-3" d="m28.4,19.27s.05-.05.09-.03c.04.02-.01.06-.07.08-.06,0-.07,0-.02-.05Zm.06.86c.03-.06.03-.06.08-.06.04,0,.01.07-.03.11-.04.05-.07,0-.04-.05Zm-.53-.55c.06-.04.09-.03.07,0,.01.03-.02.04-.05.05-.07.01-.08-.02-.02-.05Zm-.33.13c.06-.02.09-.02.09.05-.02.04,0,.06-.05.04-.05-.03-.07-.08-.04-.09Zm3.45-4.49c-.07-.02-.25-.01-.36-.02-.15-.02-.21-.02-.25.05-.04.03-1.68.49-2.12,1.06-.44.56.05.82-.95,2.37-.06,0-.1.68-.12.76-.01.07.34.15.27.15-.03,0-.02.03,0,.07t.01.03l-.05-.04-.04.07s-.04.07-.04.09c0,.02.02.05,0,.06-.03,0-.03.25.03.37.04.06.03.11.02.16-.03.07-.04.12-.03.13.02.03.06.1.07.16.02.08.08.16.17.23.05.06.29.27.52.46.38.29.42.29.55.29.09-.02.14,0,.3.08.18.08.29.13.62.32.1.05.34.12.62.15.28.04.59.02.8-.02.24-.05.42-.12.56-.18.15-.06.24-.12.32-.16.16-.09.22-.14.27-.19.09-.08.31-.25.51-.45.2-.2.38-.43.48-.55.11-.17.16-.27.23-.4.02-.1.04-.24.08-.34,0-.1.03-.18,0-.19,0-.02.02-.05.03-.08.09-.04.21-.58.17-.79-.02-.13-.03-.5-.03-.67,0-.04-.04-.3-.14-.58-.06-.29-.22-.55-.22-.62-.03-.05-.07-.17-.09-.25-.03-.05-.13-.23-.26-.36-.05-.06-.2-.24-.21-.24,0,0-.08-.07-.19-.12-.08-.06-.23-.17-.35-.24-.12-.06-.2-.11-.22-.12-.03.05-.26-.02-.25-.05.01-.03-.11-.08-.14-.06-.02,0-.03-.02-.05-.02,0-.04-.1-.1-.2-.17-.09-.03-.17-.08-.17-.08-.02,0-.07-.02-.17-.04Z"></path></clipPath></defs><g id="Layer_1-2"><path class="cls-4" d="m36.49,5.82c-.36-.28-.33-.33.09-.15.43.18.63.44.56.54-.2.02-.32-.05-.65-.38Zm5.99,5.84q-.18-.24-.09-.12l.27.35-.18-.24Zm-3.36-3.35l-.11-.1.22.2c.11.1,0,0-.11-.1Zm3.91,4.6c-.06-.32-.06-.32.15-.1.21.22.34.66.24.72-.02.19-.33-.31-.39-.62Zm-5.4-5.31c-.12-.09-.08-.13-.08-.13t.15.04s.12.09.08.13l-.15-.04Zm-.34-.02c-.05-.18.1-.15.3.07.24.17.2.22.16.27-.19.01-.42-.16-.47-.34Zm-.38.54c.07-.1.22-.06.64.32.19.21.31.29.04.18-.38-.2-.72-.44-.68-.49Zm-22.92.24c.21-.13.57-.36.97-.61.39-.25.85-.44,1.2-.62.94-.48,1.35-.53,1.55-.76.23-.15.36-.19.36-.19.08.02.39-.11.96-.21.57-.11,1.37-.35,2.42-.48,2.04-.28,3.34-.19,4.2-.15.86,0,1.29.11,1.63.07,0,0,.41,0,.67.03.55-.04.69-.03.45-.22-.12-.09.01-.06.14-.03.4.1.56,0,.6-.17.01-.06.16-.08.31-.11.15-.03.16-.08.19-.2-.11-.15-.08-.27-.07-.32.04-.18.54-.37.86-.41,0,0,.16-.02.02-.06,0,0,.18-.1.49-.11.33-.08.5-.08.21-.18q-.12-.11-.11-.16c.21-.18.54-.2.83-.1,0,0,.31.04.33-.01.33-.01,1.01-.48,1.03-.53l.15.05.04-.11c.02-.06.07-.17.24-.17q.02-.06-.13-.11c-.15-.05-.28-.16-.44-.22-.13-.11-.42-.27-.71-.44-.31-.11-.29-.16-.27-.22.17,0,.2-.06-.38-.45-.26-.26-2.53-.99-5.22-1.11-.84-.02-2.01-.05-2.68-.01-.5.03-1.33.14-1.66.16-.33,0-.66.12-.82.15-.16.03-.32.11-.65.16-.32.12-1.15.18-2.92.62-.61.13-1.16.35-1.72.55-.56.21-1.13.38-1.7.67-.57.28-1.19.54-1.83.91-.63.39-1.34.78-2.08,1.32-1.61,1.19-2.45,2.05-3.05,2.61-.6.57-.87.94-1.22,1.3-2.96,3.27-3.93,5.89-4.58,7.35-.54,1.52-.75,2.03-.75,2.12-.07.15-.28,1-.5,1.98-.17.98-.28,2.11-.32,2.77.04.67.03,1.17-.03,1.33,0,0,0,.15,0,.42,0,.25,0,.58.07.91.13.82.17,1.82.27,2.3.06.43.23,1.54.29,1.97.12.48.25,1.13.28,1.47.04.33.13,1.19,1.31,3.78.23.44.47.91.71,1.4.27.46.57.91.85,1.34.52.88,1.14,1.56,1.49,2.03.68.96,2.47,2.7,3.88,3.86.8.6,1.5,1.07,2.09,1.49.61.35,1.11.63,1.54.87.8.47,1.25.59,1.35.58.18.02.77.29.9.41.07.26,2.93,1.1,2.96.98.17,0,.65.12.63.18,0,.03.27.11.7.22.44.1,1.03.29,1.68.37.63.09,1.4.2,2.12.31.71.04,1.33.08,1.64.09,1.48.07,3.27-.05,5.1-.36.91-.16,1.83-.42,2.73-.66.88-.33,1.77-.58,2.57-.97,3.26-1.42,5.48-3.37,5.73-3.69.12-.11.49-.44.98-.88.44-.26,1.28-1.29,1.84-1.9.52-.64,1.01-1.51,1.13-1.63.21-.26.64-.96.95-1.53.37-.73.59-.99.67-1.13.15-.1.4-.53.61-.98.28-.6.54-1.02.61-1.17.09-.14.34-.93.61-1.88.29-.86.32-1.32.47-1.92.07-.29.15-.63.26-1.1.07-.46.15-1.04.27-1.82.23-1.96.18-3.3.03-4.28-.08-.9-.19-1.43-.26-1.79-.06-.36-.09-.57-.1-.82-.05-.49-.45-1.8-.86-3.06-.5-1.24-1.03-2.43-1.27-2.77-.22-.34-.49-.78-.79-1.29-.38-.55-.77-1.1-1.16-1.67-.44-.61-1-1.24-1.55-1.94-.62-.64-1.26-1.36-2-2.03-.72-.64-1.47-1.24-1.61-1.32-.3-.14-.42-.23-.78-.56-.26-.19-.65-.47-.91-.66-.29-.14-.99-.52-1.54-.85-.79-.55-.98-.53-1.32-.56-.17-.01-.51-.04-.65-.1-.43-.2-.95-.17-1.06.11-.05.11-.25.21-.3.33-.18.05-.07.17.05.29.25.18.23.24.2.29-.02.06.09.17.22.23.11.12.09.17.06.23l-.02.05c.11.12.24.18.22.23-.05.12.73.82,1.17,1.19.46.34,1.01.8.82.83-.04.06.1.11.44.34q.34.25.23.16l-.37-.2.27.34c.08.13.27.34.38.42.11.08.33.24.3.29-.03.03.3.29.66.68.36.39.81.85,1.17,1.16.38.39.51.64.65.87.1.28.23.51.32.61.2.18.5.63.7.97.14.23.31.47.51.74.19.27.38.58.62.9.32.42,1.47,2.39,2.13,4.43.51,1.66.61,2.59.74,3.17.12.59.12.85.23,1.25.08.26.13.49.17.83.03.33,0,.77,0,1.44-.09,1.46-.14,2.44-1.06,4.95-.27.75-.88,2.38-1.9,3.95-.45.82-1.09,1.56-1.63,2.29-.31.34-.61.66-.89.96-.27.31-.54.59-.81.81-.58.52-1.07,1.01-1.59,1.36-.51.37-.94.74-1.38.97-.43.26-.8.49-1.14.69-.35.17-.66.32-.93.45-1.06.56-1.59.67-2.01.88-.73.33-2.62.83-4.63,1.04-2.02.23-4.13-.05-5.24-.25-1.44-.3-2.23-.46-3.23-.84-.32-.09-.76-.18-1.18-.34-.42-.17-.85-.35-1.22-.52-.66-.2-1.21-.59-1.25-.53-.12-.07-.35-.2-.58-.34-.62-.47-1.3-.98-2.14-1.61-.47-.42-.96-.85-1.41-1.25-.41-.43-.78-.81-1.04-1.07-.38-.3-.89-1.06-1.48-1.79-.49-.81-1.05-1.61-1.26-2.19-.06-.12-.3-.6-.64-1.28-.25-.71-.68-1.6-.9-2.58-.29-.97-.39-1.97-.53-2.76-.07-.8-.08-1.4-.07-1.6-.07-.4.06-1.2.12-1.72-.03-.4.18-1.71.39-2.87.12-.48.24-.96.34-1.36.1-.36.23-.6.24-.67,0,0,.21-.62.41-1.39.3-.59.78-1.82,1.31-2.59.45-.81.85-1.33.93-1.43-.1-.07.88-1.49.97-1.42.05.04.67-.64.71-.78.09-.1.17-.2.27-.29.14-.05.78-.53,1.4-1.01.52-.41,1.09-.74,1.09-.74.11-.07.4-.34.98-.66Z"></path><path class="cls-4" d="m37.78,25.28c.05-.13.11-.13.18,0,.06.13-.05.21-.17.21-.12-.04-.12-.08,0-.21Zm-.58,2.28q.01-.08,0-.04l-.02.12v-.08Zm.06-1.31v-.04s0,.08,0,.08c0,.04,0,0,0-.04Zm-.42,1.6c.14-.05.14-.05.18.04.04.09-.11.18-.23.15-.13,0-.09-.14.05-.19Zm.08-2.06s.06-.04.06-.04q.06,0,.06.04s0,.04-.06.04l-.06-.04Zm-.17-.08c.12-.03.18,0,.11.08,0,.08-.06.08-.12.07-.12-.04-.11-.12.01-.15Zm-.66-.02c.12,0,.18.04.11.19-.06.07-.07.11-.12.03-.05-.11-.05-.22.01-.22Zm-19.19,4.81c-.07-.11-.27-.33-.37-.49-.14-.22-.16-.31-.3-.31-.08-.03-.1-.06-.1-.06.05-.06-.06-.34-.24-.82-.31-.96-.29-1.22-.47-1.35,0,0-.08-.08-.1-.15-.15-.1-.2-.13-.32-.04-.05.05-.06.01-.06-.02-.01-.1-.14-.11-.31-.08-.06.01-.12-.01-.19-.04s-.12-.02-.24,0c-.11.06-.23.08-.29.09-.18.03-.49-.04-.62-.1,0,0-.06-.03-.06,0,0,0-.12-.02-.25-.09-.19-.06-.26-.09-.24,0q-.05.05-.11.06c-.24,0-.37-.08-.39-.16,0,0-.07-.08-.13-.07-.13-.07-.81-.14-.87-.13v-.05s-.07,0-.13.01c-.06,0-.18.02-.25-.02q-.06,0-.05.05s-.05.1-.04.15c-.05.05-.1.16-.15.26.01.1-.05.1-.11.11-.07-.04-.13-.04-.28.19-.16.12-.15.85.2,1.61.07.25.2.58.27.77.05.14.19.36.23.46.03.1.13.17.14.22.02.05.09.07.13.17.09.07.16.31.36.83.31.68.61,1.21,1.26,2.09,1.03,1.13,1.05,1.15,1.17,1.28.42.5.78.88,1.1,1.17.31.29.53.53.72.67.34.28.5.42.51.43.02.05.22.22.47.39.25.15.55.31.73.39.2.05.33.12.34.2,0,0,.17.1.38.13.25.05.51.18.65.24.13.06.37.25.51.3.14.05.3.17.37.27.08.08.28.26,1.09.49.58.16,1.32.28,1.67.31.34.06,1.09.11,1.63.12.59.02,1.01,0,1.29-.05.28-.03.41-.07.43-.13.05-.06.24-.07.29-.01.06.14.92-.1.9-.22.04-.07.18-.09.19-.03,0,.06.35.02.73-.05.38-.09.91-.16,1.1-.21.44-.07.94-.25,1.46-.42.52-.19,1.04-.44,1.51-.67.45-.27.86-.52,1.16-.73.28-.22.46-.4.49-.47.04-.03.16-.11.32-.23.16-.03.43-.32.61-.49.15-.21.32-.44.36-.48.07-.07.22-.26.35-.4.12-.22.23-.25.27-.28.08,0,.22-.06.32-.17.13-.14.28-.21.31-.25.04-.03.19-.22.32-.49.27-.47.31-.43.85-1.18.37-.46.57-.8.64-1.09.19-.51.23-.59.35-.7.14-.26.5-1.54.49-1.79-.02-.26,0-.63.06-1.07.05-.63.09-1.14.13-1.57.02-.28-.02-.57-.02-.61-.05-.1-.05-.14.02-.28,0-.09.01-.23.02-.33-.05-.09-.07-.33-.07-.51.05-.28-.01-.33-.14-.41-.06-.04-.19-.13-.19-.17,0-.14-.25-.25-.55-.23-.12.01-.3-.02-.42,0-.12-.03-.18.02-.24.06-.06.09-.12.09-.18.1-.06,0-.12.05-.12.09-.06.04-.12.05-.18.05h-.06c-.06.05-.06.09-.12.09-.12.01-.47.3-.52.44-.05.15-.17.33-.29.3-.06,0-.05.04-.06.14q0,.11,0,.07l-.05-.11-.13.1c-.06.03-.13.1-.13.14,0,.03,0,.1-.07.1-.06,0-.27.4-.28.63-.02.13-.09.19-.17.25-.13.05-.2.1-.21.14-.01.06-.03.19-.11.28-.07.12-.1.28-.11.48-.04.12-.1.69-.31,1.17-.31.8-.4.83-.36,1.07.05.18,0,.27-.18.55-.2.31-.32.53-.88.94-.27.3-1.29,1.16-1.85,1.56-1.22.95-1.54,1.02-1.72,1.18-.31.28-1.79.75-2.36.79-.36.05-.56.08-.83.12-.16.09-.42.17-.63.17-.17.07-.34.07-.34.13-.03,0-.1,0-.17,0-.07-.04-.36-.09-.67-.12-.32-.02-.66-.03-.85-.04-.12.01-.35,0-.59-.04-.23-.05-.47-.13-.61-.2-.07-.01-.53-.13-1-.32-.47-.21-.9-.48-.97-.55-.09-.04-.24-.18-.32-.31-.09-.05-.34-.27-.59-.42-.21-.16-.36-.34-.39-.36,0,0-.13-.1-.33-.16-.13-.1-.37-.33-.54-.48-.18-.15-.29-.27-.31-.29-.08.08-.42-.19-.38-.23.04-.04-.11-.21-.18-.19l-.07-.07c.03-.07-.04-.26-.11-.45-.1-.13-.15-.29-.15-.29-.02-.03-.09-.1-.16-.24Z"></path><g class="cls-1"><rect class="cls-4" x="13.82" y="15.28" width="8.54" height="9.06" transform="translate(-1.66 1.65) rotate(-5)"></rect></g><g class="cls-2"><rect class="cls-4" x="26.19" y="14.2" width="8.54" height="9.06" transform="translate(-1.52 2.73) rotate(-5)"></rect></g></g></svg> 