<?xml version="1.0" encoding="UTF-8"?> <svg xmlns="http://www.w3.org/2000/svg" xmlns:xlink="http://www.w3.org/1999/xlink" viewBox="0 0 1069.129 170.271"><defs><path id="a" d="M.091 1.981h113.624v7.22H.091z"></path><path id="c" d="M0 0h41.499v49.242H0z"></path><path id="e" d="M0 0h164.658v20.462H0z"></path></defs><g fill="none" fill-rule="evenodd"><g fill="#020202"><path d="M371.169 122.444c.05-.089.238-.25.316-.385.107-.177.138-.248.305-.221.095-.01.107-.034.107-.034-.061-.06-.031-.306.152-.677.293-.748.338-.95.546-1.004 0 0 .105-.042.125-.09.19-.035.276-.03.406.08.065.054.075.029.085.005.03-.074.191-.039.418.05.075.03.161.035.247.04.086.004.161.034.313.093.14.084.29.144.366.173.227.09.637.158.81.162 0 0 .087.003.076.03 0 0 .162.032.336.035.25.032.338.033.315.089.064.056.064.056.14.085.314.088.489.089.512.033 0 0 .1-.029.176 0 .175.001 1.048.223 1.124.25l.012-.03.152.056c.077.028.229.083.317.081.077.028.077.028.064.058-.012.03.051.088.04.119.063.058.114.147.165.236-.025.061.05.09.126.119.088-.002.165.026.341.237.202.147.096.618-.262 1.055-.066.155-.226.343-.29.46-.044.092-.192.21-.222.27-.029.06-.133.086-.147.117-.015.03-.103.025-.132.085-.103.025-.176.174-.266.54-.213.452-.42.798-.857 1.394-.534.615-.627.749-.74.914l-1.115 1.894c.025.1-.36.608-.587.77-.146.056-.206.136-.163.212 0 0-.086.103-.236.153-.173.076-.303.226-.368.301-.065.076-.134.278-.2.354-.066.075-.092.229-.075.332.01.098-.02.294-.423.703-.284.289-.698.592-.863.76-.16.173-.583.463-.864.703-.657.477-.908.698-1.039.598-.077-.038-.176.05-.151.13.078.144-.502.393-.602.268-.078-.043-.156.019-.105.081.05.062-.133.206-.343.37-.212.161-.447.456-.563.526-.454.395-1.115.933-1.74 1.288-.625.357-1.163.602-1.295.539-.03.015-.112.072-.233.13-.05.116-.328.167-.477.242-.188.004-.403.024-.433.039-.059.03-.244.032-.362.093-.184.002-.208.103-.238.118a.276.276 0 0 1-.137.248c-.12.06-.18.166-.21.18a1.1 1.1 0 0 1-.403.085c-.37.07-.368.07-.922.39-.335.237-.595.314-.81.308-.376.046-.438.067-.506.175-.191.064-1.09.217-1.276.167-.393-.144-1.065-.113-1.874.007-.191.04-.4 0-.432.007-.082-.065-.113-.059-.191.039l-.223.046c-.08-.066-.24-.034-.366-.008-.175.117-.222.045-.316-.1-.046-.071-.138-.216-.17-.21-.094.02-.244-.276-.313-.67l-.129-.543c-.057-.152-.04-.236-.025-.321.044-.09.03-.17.016-.248-.014-.079.001-.163.03-.17.014-.083 0-.162-.014-.24l-.015-.079c.015-.084.043-.09.029-.168-.029-.158.08-.669.173-.77.096-.1.202-.285.141-.436-.016-.078.011-.084.093-.1l.055-.012-.099-.06.048-.174c.01-.083.047-.173.073-.178.027-.005.08-.016.063-.094-.016-.078.248-.376.432-.412.105-.022.136-.119.168-.21.012-.168.042-.26.068-.266.05-.015.152-.043.208-.14.08-.106.206-.14.38-.105.097-.038.564-.047.958-.2.647-.227.696-.243.903-.145.157.113.237.094.484-.003.27-.115.446-.19.835-.615.272-.173 1.125-.808 1.616-1.047 1.101-.545 1.306-.67 1.507-.695.294-.123 1.326-.77 1.609-1.134l.517-.402c.153-.022.38-.081.495-.19.151-.028.25-.117.304-.056l.099-.089c-.032-.195.571-.706.829-.86.187-.075.56-.454.67-.677.037-.038.304-.295.556-.602.198-.353.458-.65.446-.76.052-.06.095-.227.09-.362.048-.062.141-.319.282-.505.127-.165.172-.357.187-.377 0 0 .078-.102.24-.18.082-.1.217-.322.32-.473l.186-.28c.136.087.394-.153.325-.195-.07-.043.032-.195.117-.174l.043-.066c-.051-.06-.047-.24-.038-.415.063-.112.057-.264.057-.264l.116-.2ZM356.19 135.19c.034.156.08.228.172.128.038-.09.065-.094-.007-.161-.1-.061-.182-.045-.165.033Zm.189.858c.005.163.05.235.09.145.058-.012.04-.09.023-.168-.064-.15-.12-.139-.113.023Zm.108.223c-.029.006-.011.084-.011.084.017.078.017.078.045.072 0 0 .03-.006.012-.084l-.046-.072Zm1.542-.128c-.013.17-.014.17.066.232.079.06.12-.117.076-.27-.016-.162-.13-.131-.142.038Zm-.151.456-.029.008.087-.023-.058.015Zm-1.538.843c-.074.096-.058.174.048.234.107.06.135-.108.102-.264-.064-.15-.092-.145-.15.03Z"></path><path d="M379.007 122.855c-.041-.094-.21-.275-.274-.416-.088-.188-.112-.26-.28-.252-.094-.02-.103-.045-.103-.045.067-.053.063-.3-.08-.689-.214-.775-.238-.98-.439-1.056 0 0-.1-.052-.115-.102-.185-.055-.27-.06-.411.036-.071.048-.078.022-.086-.003-.022-.077-.186-.059-.42.006a.777.777 0 0 1-.25.014c-.087-.005-.164.017-.321.06a2.48 2.48 0 0 1-.383.134c-.234.065-.65.09-.822.077 0 0-.087-.007-.079.021 0 0-.165.014-.338 0-.252.006-.339-.003-.322.055-.07.049-.07.049-.148.07-.322.055-.496.038-.513-.02 0 0-.096-.04-.175-.019-.174-.017-1.065.112-1.144.131l-.009-.03-.157.039c-.08.02-.236.059-.324.048-.079.02-.079.02-.07.05.01.032-.06.083-.05.114-.07.052-.13.135-.19.218.018.064-.06.084-.138.105-.088-.011-.167.009-.364.2-.216.125-.16.605.15 1.077.05.161.19.364.24.488.035.096.17.228.193.291.023.064.123.1.134.132.012.03.1.036.123.099.1.035.157.191.208.564.164.472.334.838.707 1.476.466.668.544.81.64.986.63 1.387.9 1.978.911 2-.036.098.295.643.503.828.139.071.19.156.14.228 0 0 .075.11.219.177.163.093.277.256.334.338.057.082.105.29.162.372.058.082.068.237.04.338-.021.096-.011.295.347.744.252.317.632.662.78.845.14.19.53.522.785.79.604.543.83.789.97.704.082-.03.17.069.137.145-.092.134.458.443.571.329.082-.034.153.035.096.092-.057.056.11.218.303.403.193.183.397.5.504.582.41.441 1.012 1.045 1.597 1.463.584.42 1.093.72 1.23.672.029.018.105.083.218.153.039.12.31.2.45.29.186.025.398.066.426.085.056.035.24.058.351.13.183.021.195.124.224.143a.276.276 0 0 0 .11.26c.113.072.162.184.19.202a1.1 1.1 0 0 0 .392.126c.362.11.36.108.876.485.31.27.56.374.775.39.368.085.427.113.484.228.183.083 1.06.33 1.251.298.406-.101 1.072 0 1.863.204.186.059.399.042.429.052.088-.056.119-.047.186.058l.217.069c.087-.057.241-.008.365.03.162.135.216.068.324-.065.054-.067.16-.2.19-.191.093.028.273-.25.383-.634l.185-.527a.511.511 0 0 0 .059-.317c-.035-.094-.013-.171.01-.248.021-.077.015-.162-.013-.171-.005-.085.018-.162.04-.239l.022-.076c-.005-.086-.033-.094-.01-.17.044-.154-.01-.674-.093-.784-.084-.11-.17-.305-.094-.45.024-.074-.002-.083-.081-.108a.951.951 0 0 1-.054-.017l.104-.05-.03-.178c0-.084-.028-.176-.053-.184-.027-.009-.079-.025-.054-.1.025-.077-.206-.4-.386-.455-.102-.034-.122-.133-.145-.226.006-.17-.014-.264-.04-.273-.049-.02-.147-.058-.192-.161-.069-.113-.19-.161-.367-.144-.093-.047-.556-.105-.931-.299-.62-.293-.668-.314-.884-.238-.168.095-.245.069-.481-.054-.255-.143-.423-.236-.765-.7-.253-.2-1.035-.92-1.499-1.21-1.038-.656-1.228-.801-1.426-.848-.28-.153-1.238-.904-1.481-1.295l-.472-.455c-.15-.037-.37-.12-.473-.24-.147-.044-.236-.142-.296-.088l-.09-.098c.053-.192-.494-.762-.734-.942-.178-.094-.51-.51-.595-.744-.033-.042-.272-.325-.49-.657-.16-.371-.388-.694-.365-.802-.045-.065-.07-.236-.052-.37-.04-.067-.106-.331-.227-.531-.109-.177-.133-.373-.147-.394 0 0-.066-.11-.22-.204-.07-.11-.181-.344-.268-.504l-.156-.299c-.145.073-.375-.193-.303-.228.074-.035-.012-.196-.098-.185l-.036-.07c.058-.055.072-.234.082-.409-.052-.118-.03-.268-.03-.268l-.094-.212Zm13.564 14.241c-.05.152-.102.22-.184.11-.029-.093-.055-.1.024-.16.106-.05.186-.025.16.05Zm-.277.834c-.022.162-.075.228-.105.135-.056-.018-.03-.093-.005-.17.079-.142.133-.125.11.035Zm-.131.21c.028.01.003.085.003.085-.025.076-.025.076-.053.068 0 0-.028-.01-.003-.085l.053-.067Zm-1.52-.287c-.005.17-.004.17-.09.223-.084.052-.107-.129-.047-.277.033-.159.142-.116.137.054Zm.103.469c.055.022.055.022.027.01l-.083-.032.056.022Zm1.44.999c.064.103.04.18-.072.228-.112.048-.123-.123-.073-.274.079-.143.107-.134.146.046Z"></path><path d="M377.573 132.54c.01-.174-.056-.574-.043-.836.033-.348.063-.474-.102-.581-.074-.097-.067-.14-.067-.14.092-.035.234-.414.328-1.105.124-.667.217-1.08.282-1.353.052-.277.041-.424-.02-.549 0 0-.057-.145-.037-.232-.132-.208-.208-.272-.397-.224-.095.024-.085-.02-.075-.063.028-.13-.132-.213-.387-.273a.615.615 0 0 1-.236-.149c-.074-.064-.16-.086-.33-.126-.179.004-.348-.036-.434-.057-.255-.06-.648-.3-.797-.435 0 0-.074-.068-.085-.02 0 0-.16-.09-.308-.226-.232-.158-.306-.228-.328-.133-.095.027-.095.027-.18.006-.328-.133-.475-.274-.453-.371 0 0-.062-.12-.147-.141-.148-.142-1.041-.539-1.126-.562l.011-.05-.168-.047c-.084-.022-.253-.068-.326-.142-.084-.023-.084-.023-.096.028-.011.051-.107.08-.12.133-.096.029-.203.11-.312.192-.023.104-.108.082-.192.06-.074-.073-.158-.096-.46.05-.278.04-.533.77-.551 1.657-.057.266-.062.652-.097.865-.023.161.026.444.01.55-.014.107.057.227.05.28-.008.054.07.12.057.227.07.12.034.384-.133.957l-.147 1.165c-.014.409-.018.865-.008 1.454.105 1.289.084 1.55.078 1.869-.016 1.405-.039 2.27-.06 2.79-.028.522-.002.693-.009.72-.077.112.02 1.121.15 1.535.107.203.123.36.042.424 0 0 .02.211.128.412.108.254.15.568.184.723.027.157-.006.483.02.64a.876.876 0 0 1-.09.5c-.067.119-.108.397.05 1.292.09.637.414 1.385.49 1.75.092.362.371 1.115.515 1.683.471 1.193.648 1.693.827 1.69.1.021.165.221.1.3-.149.109.319.957.482.894.095.021.16.165.077.197-.082.03.06.373.222.764s.307.964.388 1.16c.25.931.872 2.134 1.39 3.15.523 1.015 1.128 1.752 1.291 1.805.029.045.111.182.224.364.01.183.307.5.447.727.205.183.484.382.51.428.063.086.291.25.417.423.228.163.22.3.252.343-.039.095-.015.276.08.406.127.172.153.354.184.397.032.043.191.26.451.464.44.403.45.393 1.053 1.221.36.544.647.87.924 1.051.477.365.566.428.619.606.236.226 1.416 1.102 1.667 1.217.574.162 1.543.666 2.638 1.411.252.197.587.275.627.31.14-.017.184.011.271.17l.317.196c.136-.017.361.123.542.235.226.243.316.196.493.1.09-.048.265-.144.31-.117.133.083.435-.142.645-.524.085-.153.254-.357.338-.51.126-.127.126-.23.127-.332-.04-.128.002-.204.044-.28.043-.077.045-.18.004-.204.002-.102.045-.178.089-.254l.042-.076c.003-.101-.036-.125.007-.202.084-.153.073-.778-.033-.947-.11-.171-.208-.438-.077-.562.046-.076.008-.098-.105-.169l-.075-.047.16-.003-.018-.217c.008-.097-.018-.216-.054-.239-.037-.023-.111-.068-.063-.142.052-.084-.258-.537-.484-.737-.135-.106-.151-.23-.166-.353.036-.194.021-.315-.012-.342-.066-.051-.199-.155-.245-.301-.079-.172-.243-.3-.498-.386-.064-.054-.26-.162-.49-.33-.221-.183-.49-.41-.737-.644-.8-.767-.878-.806-1.172-.885-.24-.01-.327-.11-.613-.438-.312-.363-.528-.588-.883-1.415-.12-.238-.4-.735-.719-1.26l-.49-.782c-.141-.266-.277-.511-.397-.706-1.169-1.682-1.291-2.077-1.518-2.303-.156-.216-.473-.773-.769-1.372-.255-.62-.503-1.272-.608-1.635-.183-.45-.304-.688-.403-1.029a2.6 2.6 0 0 1-.43-.744c-.152-.184-.223-.396-.306-.37a17.365 17.365 0 0 1-.07-.211c.057-.113-.03-.482-.14-.886-.09-.409-.223-.847-.325-1.074-.155-.283-.39-1.151-.384-1.563l-.236-1.366c-.03-.675-.15-1.332-.057-1.479-.013-.133.047-.409.118-.594-.013-.133.031-.581-.008-.976-.036-.352.02-.664.016-.707 0 0-.016-.22-.105-.479l-.02-.968-.013-.573c-.175.003-.276-.575-.189-.574.082 0 .086-.306.008-.353l.008-.131c.09-.043.193-.303.295-.562.013-.218.112-.431.112-.431l.022-.392Zm11.676 30.03c-.095.147-.181.196-.286.028-.029-.12-.066-.143.058-.17.162-.002.275.069.228.141Zm-.522.807c-.055.172-.143.22-.174.098-.08-.05-.032-.123.016-.196.136-.121.214-.073.158.098Zm-.222.17c.04.026-.007.099-.007.099-.048.074-.048.074-.088.048 0 0-.04-.025.007-.098l.088-.048Zm-2.142-1.234c-.034.194-.033.195-.164.204-.131.009-.135-.216-.025-.35.074-.165.223-.05.19.146Zm1.407 1.395.04.026-.081-.051c-.04-.026 0 0 .041.025Zm-1.336-.787.038.03-.115-.09.077.06Zm1.949 1.992c.08.152.036.228-.137.222-.174-.004-.166-.205-.073-.353.135-.122.176-.097.21.13Z"></path></g><g transform="translate(628.909 112.097)"><mask id="b" fill="#fff"><use xlink:href="#a" transform="rotate(2 56.903 5.59)"></use></mask><path fill="#020202" d="m17.485 2.176-2.318-.007c-.976-.025-1.342-.031-1.588.063-.245.044-.367.04-.367.04-.12-.052-1.217-.127-3.168-.171-3.78-.138-4.756-.153-5.367-.068 0 0-.367.043-.61.038-.49.089-.614.137-.372.242.121.053 0 .05-.123.047-.366-.007-.49.09-.493.24 0 .05-.124.098-.247.145-.123.047-.124.097-.126.197.12.103.118.203.117.253-.004.15-.374.392-.62.487 0 0-.123.047 0 .05 0 0-.125.097-.37.192-.248.145-.37.193-.127.198.121.052.121.052.12.102-.126.198-.372.293-.616.287 0 0-.245.045-.246.095-.245.095-.622.638-.623.687L.22 5.29l-.002.1c0 .05-.003.15-.126.197 0 .05 0 .05.121.053.122.002.243.055.365.057.121.053.363.108.606.163.244.005.243.055.241.105-.122.048-.123.098.361.258.241.155 1.945.24 3.896.18l1.95-.007c.365.008.976-.028 1.22-.022.243.005.488-.04.61-.036.121.002.244-.045.488-.04.244-.044.854-.03 2.192.05 1.828.04 3.29.077 5.97.094 2.926-.027 3.536-.014 4.267.006l6.393.239 1.643.078c.242.057 2.556.123 3.532.1.49-.035.854-.025.975.029 0 0 .487.014.975-.022.611-.032 1.342-.01 1.707 0l1.46.096c.365.01.851.076 1.093.133.242.057.85.126 2.92.189l4.142.084 4.02.08c2.925.05 4.143.093 4.268-.003.123-.045.61-.03.73.025.12.104 2.314.08 2.318-.018.123-.046.49-.033.487.017-.002.05.85.08 1.825.117l2.8.15c4.38.26 12.292.573 12.907.45l.974.039c.363.065 1.34.053 1.948.08a39.579 39.579 0 0 1 1.465-.04c.244.01.855-.013 1.342.007.61-.024.852.036.974.04.12.056.482.12.847.137.487.02.851.085.972.09.122.005.731.03 1.463.013 1.342.009 1.342.009 3.653.16 1.458.115 2.432.156 3.165.14 1.341.012 1.584.023 1.947.09.73.034 4.022.083 4.633.062 1.224-.091 3.663-.075 6.71.02.73.036 1.462.023 1.584.029.245-.038.367-.032.73.036l.852.042c.246-.037.854-.007 1.341.017.728.086.852.042 1.101-.045.124-.044.373-.132.494-.126.365.018.741-.163.753-.413.006-.1.135-.244.14-.344.127-.093.007-.15-.112-.206-.24-.062-.238-.111-.236-.161.003-.05-.117-.106-.238-.112-.12-.056-.117-.106-.114-.156l.002-.05c-.119-.056-.24-.062-.238-.112.005-.1-.833-.442-1.318-.516-.484-.074-1.088-.204-.962-.298.003-.05-.119-.056-.484-.074l-.244-.012.368-.032-.36-.118a1.703 1.703 0 0 0-.483-.124c-.122-.006-.365-.018-.363-.068.003-.05-1.452-.273-2.305-.315a4.15 4.15 0 0 1-.97-.146 1.88 1.88 0 0 0-.6-.18c-.245-.011-.733-.034-1.096-.101-.485-.073-1.094-.103-1.827-.088l-4.51-.16c-3.169-.145-3.413-.157-4.149-.09-.492.077-.857.06-2.076.008-1.34-.06-2.193-.096-4.624-.353-1.46-.114-6.33-.418-8.89-.523-5.73-.18-6.828-.222-7.683-.204-1.465-.006-7.072-.22-9.143-.341l-3.047-.11c-.61.028-1.588.045-2.32.02-.61.029-1.22.008-1.222.058l-.61-.021c-.484-.117-4.14-.243-5.484-.234-.855.023-3.293-.056-4.389-.142l-3.779-.116c-1.827-.105-3.656-.161-4.02-.222a20.116 20.116 0 0 1-1.583-.145c-.365-.011-1.583-.095-2.68-.127-.976-.028-1.828-.102-1.95-.105 0 0-.61-.02-1.343.012a4402.627 4402.627 0 0 1-4.268-.113c-.003.1-1.589.107-1.587.057.001-.05-.853-.073-.976-.025l-.366-.01c-.12-.053-.85-.121-1.58-.19-.61-.014-1.22-.08-1.22-.08l-1.097-.026Zm91.862 4.435c-.005.1-.13.144-.614.07-.24-.062-.363-.068-.117-.106.368-.032.733-.014.731.036Zm-.028.55c.117.106-.007.149-.248.087-.243-.012-.24-.062-.239-.112.127-.093.371-.081.487.025Zm-.25.137c.121.006.12.056.12.056-.004.05-.004.05-.125.044 0 0-.122-.006-.12-.056l.124-.044Zm-6.34-.157c.238.112.238.112-.008.15-.246.039-.606-.08-.6-.18-.118-.104.37-.081.608.03Zm4.985.39.122.006-.243-.012.121.006Zm-3.9-.088.12.006-.365-.017.244.01Zm6.803.633c.363.068.36.118-.007.15-.368.032-.607-.08-.602-.18.127-.094.25-.088.61.03Z" mask="url(#b)"></path></g><g fill="#020202"><path d="M930.135 49.12c-.058.085-.256.233-.343.361-.119.17-.155.238-.32.2-.095.003-.108.026-.108.026.056.064.01.307-.199.664-.345.727-.404.924-.615.964 0 0-.107.035-.131.082-.192.021-.277.01-.4-.108-.06-.06-.072-.035-.084-.011-.036.07-.194.025-.413-.08-.074-.036-.16-.046-.245-.057-.085-.01-.158-.045-.305-.114a2.48 2.48 0 0 0-.353-.199 3.117 3.117 0 0 0-.797-.218s-.086-.008-.073-.035c0 0-.16-.043-.333-.058-.247-.05-.335-.057-.308-.11-.06-.061-.06-.061-.134-.096-.307-.109-.481-.122-.508-.068 0 0-.102.021-.176-.013-.174-.013-1.03-.295-1.103-.327l-.015.029-.148-.067c-.074-.033-.222-.099-.31-.103-.075-.033-.075-.033-.06-.062.014-.03-.045-.092-.03-.121-.06-.063-.104-.155-.15-.248.03-.059-.044-.093-.117-.127-.088-.004-.163-.037-.324-.26-.191-.16-.052-.623.335-1.034.077-.15.25-.326.322-.44.05-.088.205-.195.24-.252.033-.059.138-.077.155-.107.017-.028.105-.018.138-.076.104-.018.187-.161.303-.52.243-.436.474-.767.952-1.33.576-.577.677-.704.802-.86l1.244-1.813c-.018-.102.402-.58.64-.727.148-.046.214-.12.176-.2 0 0 .094-.096.247-.136.177-.063.317-.205.388-.275.07-.07.153-.268.224-.339.071-.07.108-.221.098-.325-.004-.099.04-.293.47-.673.305-.268.738-.542.915-.697.172-.162.613-.421.911-.641.689-.43.954-.633 1.078-.525.075.044.18-.038.16-.119-.068-.148.527-.357.62-.225.074.048.156-.008.11-.074-.047-.065.147-.196.368-.344.222-.147.477-.424.598-.486.48-.363 1.177-.853 1.826-1.163.648-.313 1.201-.52 1.328-.448.031-.013.118-.064.242-.113.059-.112.339-.144.493-.208.188.008.403.004.434-.009.062-.025.246-.016.369-.067.183.01.214-.089.245-.102 0-.087.062-.2.154-.237.123-.051.19-.154.222-.166a1.1 1.1 0 0 1 .407-.056c.376-.045.373-.044.948-.325.35-.213.615-.272.83-.25.377-.02.44-.037.516-.14.196-.05 1.102-.14 1.285-.077.382.17 1.055.187 1.87.123.193-.026.4.027.431.023.077.07.109.067.194-.025l.225-.03c.076.071.236.05.364.033.183-.104.226-.03.309.121.041.075.123.226.154.222.096-.013.225.292.267.69l.09.551a.511.511 0 0 1 .003.322c-.051.087-.043.167-.034.246.009.08-.012.162-.041.167-.02.083-.011.162-.003.241l.009.08c-.02.083-.05.087-.04.166.017.159-.126.661-.227.755-.102.094-.22.271-.17.426.01.079-.018.082-.1.093-.083.01-.083.01-.056.008l.094.068-.06.17c-.016.082-.058.168-.085.171-.027.004-.081.011-.07.09.011.079-.273.358-.459.38-.106.016-.143.11-.182.198-.024.167-.06.257-.086.262-.052.01-.155.031-.218.125-.087.1-.215.125-.387.078-.099.03-.565.007-.968.132-.662.181-.712.194-.912.081-.149-.122-.23-.11-.483-.03-.276.096-.458.16-.875.556-.284.153-1.18.726-1.686.931-1.137.467-1.349.577-1.552.589-.302.102-1.376.675-1.684 1.018l-.544.366c-.153.01-.384.054-.506.155-.153.017-.258.098-.307.034l-.105.081c.018.198-.62.665-.887.8-.192.062-.591.414-.716.63-.04.035-.324.273-.597.562-.222.337-.502.616-.498.726-.056.056-.11.22-.116.355-.051.059-.162.308-.315.484-.138.156-.196.344-.213.363 0 0-.085.096-.252.163-.089.095-.239.306-.352.45l-.206.266c-.13-.096-.403.126-.338.172.067.048-.045.192-.128.165l-.048.063c.047.064.03.243.01.417a.572.572 0 0 0-.076.259l-.13.192Zm15.83-11.67c-.022-.158-.062-.234-.162-.14-.044.086-.072.09-.003.161.094.068.177.057.166-.021Zm-.127-.87c.006-.162-.035-.237-.08-.15-.059.007-.047.086-.035.165.053.154.11.147.115-.015Zm-.093-.23c.029-.004.017-.082.017-.082-.011-.08-.011-.08-.04-.076 0 0-.03.005-.018.083l.04.075Zm-1.547.02c.025-.168.026-.168-.05-.235-.074-.066-.128.108-.094.264.005.162.12.14.144-.029Zm.182-.444.03-.006-.088.017.058-.01Zm1.593-.734c.08-.09.07-.17-.032-.237-.102-.067-.142.1-.12.257.054.155.083.151.152-.02Z"></path><path d="M922.344 48.163c.035.096.191.288.244.434.075.193.094.268.263.27.091.027.099.052.099.052-.07.049-.084.296.032.693.16.788.168.994.363 1.084 0 0 .096.06.108.11.18.068.266.079.413-.007.074-.042.08-.016.085.01.018.077.182.07.42.022a.777.777 0 0 1 .251.004c.085.01.164-.005.324-.037a2.48 2.48 0 0 1 .391-.107c.238-.049.654-.045.826-.02 0 0 .086.014.08-.015 0 0 .165-.003.337.024.251.011.338.026.325-.033.073-.044.073-.044.153-.06.324-.032.497-.002.51.057 0 0 .093.045.173.03.172.03 1.07-.037 1.15-.05l.007.03.16-.028c.08-.014.239-.042.326-.025.08-.014.08-.014.073-.046-.007-.032.066-.078.06-.11.072-.046.137-.125.203-.204-.014-.064.066-.08.145-.095.087.017.167.003.377-.174.224-.11.202-.592-.075-1.084-.038-.165-.163-.377-.205-.505-.028-.097-.153-.239-.172-.303-.018-.065-.116-.108-.125-.14-.01-.033-.097-.044-.115-.108-.097-.043-.143-.202-.168-.577-.13-.483-.275-.86-.602-1.523-.42-.698-.487-.846-.57-1.028l-.77-2.06c.043-.094-.25-.66-.444-.86-.133-.08-.179-.168-.123-.236 0 0-.068-.116-.207-.192-.156-.104-.258-.275-.31-.36-.05-.086-.083-.298-.135-.384-.052-.085-.05-.24-.016-.34.028-.094.032-.293-.294-.765-.23-.334-.585-.705-.719-.898-.128-.2-.493-.557-.729-.843-.564-.584-.772-.845-.918-.77-.084.025-.166-.08-.127-.154.102-.127-.425-.474-.546-.368-.084.029-.15-.046-.09-.098.061-.052-.095-.226-.274-.423-.18-.197-.36-.528-.462-.616-.378-.469-.937-1.113-1.49-1.571-.554-.46-1.04-.795-1.181-.756-.027-.02-.099-.09-.207-.168-.03-.123-.295-.221-.429-.322-.183-.037-.392-.093-.419-.113-.053-.04-.234-.075-.34-.154-.182-.035-.187-.138-.214-.158a.276.276 0 0 0-.092-.268c-.108-.08-.148-.195-.175-.214a1.1 1.1 0 0 0-.382-.154c-.354-.134-.351-.133-.841-.544-.29-.291-.531-.413-.745-.444-.361-.11-.419-.142-.467-.26-.178-.096-1.035-.403-1.228-.386-.411.073-1.069-.073-1.844-.332-.181-.073-.394-.07-.424-.082-.092.05-.122.038-.182-.072l-.211-.083c-.091.05-.242-.01-.362-.056-.152-.146-.211-.083-.328.042-.059.063-.174.19-.204.178-.09-.035-.29.23-.425.605l-.221.513a.511.511 0 0 0-.081.312c.028.097.001.172-.027.247-.027.075-.027.16 0 .172 0 .085-.029.16-.056.235l-.028.074c0 .086.027.097-.001.172-.055.15-.038.672.037.787.077.116.149.317.063.455-.03.073-.003.084.074.114.078.03.078.03.052.021l-.108.043.018.18c-.005.083.016.177.04.187.026.01.077.03.047.103-.03.075.178.414.353.481.1.04.113.14.13.235-.018.169-.005.264.02.275.047.023.142.069.18.175.061.117.179.173.357.169.089.053.547.143.908.363.598.335.644.36.865.299.174-.083.249-.051.476.087.245.16.405.266.715.751.238.218.968.99 1.41 1.312.99.727 1.17.885 1.363.946.269.172 1.172.988 1.388 1.396l.439.486c.146.048.36.146.454.273.144.054.226.158.29.108l.082.104c-.066.187.44.794.667.991.171.106.473.545.542.784.03.044.248.343.443.69.134.38.338.718.308.825.04.068.054.24.026.372.036.07.083.338.19.546.095.185.107.381.119.404 0 0 .058.114.204.218.063.114.158.356.233.522l.135.308c.15-.062.361.22.286.25-.076.03-.002.196.085.19l.03.073c-.06.05-.087.228-.109.402.043.122.011.27.011.27l.079.218ZM909.806 33.01c.06-.148.118-.212.192-.096.022.094.048.103-.036.157-.108.043-.186.012-.156-.061Zm.335-.813c.033-.159.09-.222.114-.127.055.022.024.095-.007.17-.088.136-.141.115-.107-.043Zm.145-.2c-.027-.011.003-.085.003-.085.03-.074.03-.074.058-.063 0 0 .027.011-.003.084l-.058.063Zm1.496.393c.017-.17.016-.17.105-.216.089-.047.1.136.028.279-.043.156-.15.106-.133-.063Zm-.07-.475-.026-.013.081.038-.054-.025Zm-1.367-1.097c-.056-.108-.027-.182.088-.223.116-.04.114.131.054.279-.089.137-.116.126-.142-.056Z"></path><path d="M924.45 38.601c-.022.173.016.576-.015.837-.058.345-.096.47.06.587.068.102.058.145.058.145-.094.027-.262.396-.405 1.079-.17.656-.291 1.062-.375 1.33-.072.273-.07.42-.018.549 0 0 .046.149.02.233.118.218.189.287.381.252.097-.017.084.025.07.068-.037.127.117.222.367.3a.615.615 0 0 1 .225.164c.07.07.153.097.32.15.18.007.346.06.43.086.25.078.626.344.765.49 0 0 .069.073.083.027 0 0 .152.099.291.246.22.174.29.249.318.155.097-.02.097-.02.18.007.318.156.455.306.427.402 0 0 .053.123.136.15.137.152 1.001.61 1.084.64l-.015.05.165.057c.082.028.247.086.315.165.083.028.083.028.098-.022s.113-.072.128-.123c.098-.023.211-.096.326-.17.03-.103.113-.075.196-.048.068.08.15.108.462-.018.28-.02.585-.73.665-1.613.076-.262.107-.647.157-.857.034-.159.005-.444.027-.549.023-.105-.04-.23-.029-.283.012-.052-.062-.125-.04-.23-.063-.125-.008-.385.199-.946l.228-1.152c.042-.406.078-.86.11-1.45-.016-1.292.023-1.55.051-1.869.114-1.4.197-2.262.254-2.78.066-.518.05-.69.06-.718.084-.105.058-1.119-.042-1.54-.094-.21-.098-.368-.013-.426 0 0-.006-.213-.1-.42-.089-.261-.109-.577-.132-.735-.016-.157.04-.48.024-.639a.876.876 0 0 1 .125-.493c.076-.114.136-.388.041-1.292-.045-.642-.317-1.41-.368-1.78-.065-.368-.292-1.138-.396-1.715-.386-1.223-.528-1.734-.707-1.743-.097-.028-.15-.233-.078-.307.155-.098-.252-.976-.419-.925-.093-.028-.148-.176-.063-.202.084-.025-.033-.376-.168-.778-.134-.401-.239-.983-.306-1.184-.185-.946-.721-2.19-1.167-3.24-.451-1.048-1.003-1.826-1.162-1.89-.025-.047-.098-.19-.198-.378.004-.184-.272-.52-.395-.757-.192-.197-.456-.414-.48-.462-.056-.09-.272-.271-.385-.451-.217-.18-.2-.315-.228-.36.045-.092.034-.275-.052-.41-.114-.181-.127-.365-.156-.41-.028-.045-.172-.273-.417-.494-.41-.433-.42-.424-.966-1.292-.32-.568-.584-.912-.848-1.112-.45-.398-.535-.467-.575-.648-.22-.242-1.336-1.198-1.578-1.33-.561-.202-1.493-.773-2.533-1.592-.238-.214-.566-.316-.604-.353-.14.007-.182-.024-.259-.188l-.301-.218c-.138.007-.353-.148-.525-.272-.209-.258-.302-.218-.485-.134-.092.04-.274.125-.317.095-.128-.092-.444.11-.68.478-.096.146-.279.338-.373.484-.135.118-.141.22-.15.323.031.13-.016.203-.064.277-.048.073-.057.175-.018.203-.009.1-.057.173-.106.247l-.047.072c-.011.1.027.128-.022.201-.094.147-.127.771-.032.947.097.18.176.452.037.567-.05.072-.015.097.093.175.107.077.107.077.071.052l-.159-.008.003.218c-.016.096.002.217.037.242.035.025.106.076.053.146-.058.08.22.554.43.769.128.116.136.24.142.364-.05.19-.043.313-.012.341.062.057.188.17.223.319.067.177.222.315.47.42.06.057.248.179.466.363.208.197.461.442.69.693.745.822.82.865 1.108.964.239.028.318.133.581.48.286.384.486.624.782 1.473.103.247.348.762.63 1.308l.434.814c.122.275.24.53.346.732 1.049 1.76 1.143 2.162 1.354 2.403.14.227.418.804.67 1.423.212.636.414 1.303.494 1.673.151.462.255.707.33 1.054.139.19.31.513.377.773.14.194.195.41.28.39l.055.216c-.065.108-.004.483.078.893.062.414.163.86.248 1.095.136.293.31 1.175.275 1.585.008.09.072.713.14 1.38-.016.675.056 1.339-.046 1.479.004.133-.076.404-.16.584.004.133-.071.578-.06.974.012.354-.066.661-.065.705 0 0 0 .22.072.485l-.049.966-.027.573c.175.01.236.593.15.586-.082-.007-.107.3-.033.351l-.017.131c-.093.036-.214.289-.334.54a1.373 1.373 0 0 1-.142.422 79.77 79.77 0 0 0-.049.39Zm-9.553-30.77c.106-.14.195-.184.288-.009.02.122.056.148-.07.165-.162-.009-.27-.087-.218-.156Zm.577-.77c.067-.167.158-.21.181-.085.076.055.023.125-.03.194-.143.112-.218.058-.151-.109Zm.234-.154c-.038-.028.014-.098.014-.098.053-.07.053-.07.09-.042 0 0 .04.028-.013.097l-.091.043Zm2.05 1.38c.048-.19.047-.192.178-.191.132 0 .12.224 0 .35-.084.16-.225.034-.178-.158Zm-1.306-1.49-.038-.028.078.057c.038.028 0 0-.04-.028Zm1.278.88-.036-.033.109.097-.073-.065Zm-1.805-2.124c-.07-.157-.02-.23.152-.212.173.017.151.216.048.357-.143.113-.182.085-.2-.145Z"></path></g><path fill="#000" d="M43.725 70.595 29.192 98.936 8.357 74.783 0 75.773l26.361 30.345 3.089 26.084 7.09-.84-3.088-26.083 18.63-35.674zM88.533 102.577c-1.061-10.06-7.615-16.292-16.576-15.347-8.96.945-14.071 8.407-13.011 18.466 1.212 11.497 8.54 16.964 16.656 16.108 9.553-1.007 13.956-9.505 12.93-19.227m-36.771 3.876c-1.578-14.962 7.382-24.026 19.555-25.31 14.286-1.505 23.066 7.996 24.403 20.677 1.63 15.469-6.88 24.743-19.476 26.07-14.37 1.516-23.056-7.911-24.482-21.437M104.948 108.965l-2.744-29.963 7.025-.643 2.721 29.71c.59 6.431 5.393 9.491 11.741 8.91 8.38-.768 12.438-6.773 11.903-13.552l-2.496-27.254 7.025-.644 4.108 44.86-5.586.512-1.213-6.717c-2.497 5.35-7.674 8.47-13.853 9.035-10.918 1-17.794-5.113-18.63-14.254M155.584 119.453l-3.647-44.9 5.591-.454 1.542 8.487c2.412-5.994 7.417-9.47 14.872-10.076l1.525-.124.565 6.946-1.525.124c-9.488.771-14.555 6.64-13.805 15.874l1.914 23.552-7.032.571ZM202.742 101.528l6.87-.463c.903 5.817 6.463 8.679 13.249 8.222 6.36-.43 9.247-3.095 8.944-7.59-.286-4.24-3.657-4.95-8.43-6.247l-6.68-1.764c-6.763-1.76-13.515-3.348-14.064-11.49-.515-7.632 5.09-12.952 14.927-13.615 9.923-.67 17.153 4.21 18.93 14.143l-6.87.463c-1.186-6.224-5.802-8.98-11.908-8.568-5.512.372-8.57 3.049-8.306 6.95.315 4.665 5.296 5.266 9.114 6.286l6.244 1.624c8.409 2.158 13.517 4.625 14.02 12.088.532 7.887-4.915 13.026-15.854 13.764-10.686.72-18.951-4.345-20.186-13.803M246.364 97.851l-1.712-30.043 7.044-.402 1.697 29.79c.368 6.45 5.064 9.673 11.429 9.31 8.403-.479 12.667-6.342 12.364-13.136l-1.557-27.328 7.044-.4 2.564 44.98-5.602.318-.981-6.755c-2.68 5.261-7.962 8.202-14.157 8.555-10.948.624-17.611-5.723-18.133-14.889M293.284 87.385c-.695-15.115 8.865-23.724 21.093-24.286 11.293-.52 19.673 5.902 21.478 17.392l-6.879.317c-1.532-7.418-6.93-11.935-14.488-11.588-8.916.411-14.559 7.223-14.071 17.837.527 11.463 7.772 17.257 16.178 16.87 7.218-.332 11.932-5.144 12.846-13.015l6.879-.316c-.739 11.692-7.895 18.914-19.529 19.45-14.605.671-22.909-9.669-23.507-22.66M343.151 85.135c-.532-15.12 9.12-23.625 21.352-24.056 11.297-.397 19.606 6.114 21.287 17.622l-6.88.242c-1.453-7.433-6.802-12.008-14.362-11.742-8.919.314-14.635 7.065-14.26 17.683.402 11.468 7.583 17.338 15.993 17.043 7.22-.255 11.986-5.016 12.985-12.875l6.88-.243c-.864 11.683-8.097 18.826-19.735 19.237-14.61.514-22.802-9.914-23.26-22.911M427.489 78.133c-1.472-7.87-6.352-12.596-13.574-12.416-7.138.18-12.29 4.984-13.533 13.093l27.107-.677Zm-34.464 5.707c-.384-15.38 9.35-23.957 20.737-24.24 12.406-.31 20.602 7.818 21.218 22.258l.048 1.954-34.925.872c.665 9.591 6.436 15.994 15.529 15.767 6.288-.156 10.798-3.415 12.522-9.325l6.882-.172c-1.808 9.313-8.97 15.36-19.252 15.616-13.341.333-22.422-9.219-22.76-22.73ZM442.086 90.826l6.885-.107c.601 5.856 6.006 9.002 12.805 8.896 6.374-.1 9.396-2.612 9.326-7.117-.067-4.25-3.396-5.132-8.096-6.674l-6.579-2.108c-6.664-2.106-13.325-4.042-13.452-12.202-.12-7.649 5.753-12.67 15.611-12.825 9.945-.155 16.913 5.091 18.174 15.103l-6.884.108c-.863-6.278-5.33-9.269-11.45-9.173-5.525.086-8.715 2.601-8.654 6.511.072 4.674 5.017 5.532 8.776 6.75l6.151 1.943c8.287 2.591 13.261 5.32 13.377 12.798.124 7.904-5.58 12.754-16.545 12.926-10.709.167-18.7-5.319-19.445-14.829M484.325 90.197l6.884-.05c.552 5.861 5.93 9.052 12.729 9.004 6.375-.046 9.417-2.533 9.384-7.037-.03-4.25-3.351-5.16-8.038-6.743l-6.56-2.162c-6.645-2.162-13.289-4.155-13.348-12.314-.055-7.649 5.859-12.62 15.719-12.692 9.943-.07 16.866 5.234 18.043 15.255l-6.884.05c-.81-6.285-5.252-9.313-11.371-9.269-5.525.04-8.737 2.528-8.709 6.437.034 4.675 4.97 5.574 8.719 6.822l6.134 1.996c8.264 2.661 13.213 5.43 13.267 12.91.057 7.903-5.689 12.705-16.653 12.783-10.709.077-18.653-5.475-19.316-14.99M548.01 104.14l.146-45.053 7.055.022-.145 45.054-7.056-.023Zm-1.513-57.895c.01-2.975 2.312-5.178 5.287-5.168 2.976.01 5.179 2.227 5.169 5.202-.01 2.975-2.227 5.263-5.203 5.254-2.975-.01-5.262-2.313-5.253-5.288ZM564.303 89.977l6.884.061c.459 5.868 5.785 9.145 12.584 9.205 6.374.056 9.456-2.382 9.495-6.886.038-4.25-3.269-5.214-7.929-6.87l-6.525-2.267c-6.61-2.268-13.221-4.367-13.149-12.526.067-7.649 6.06-12.526 15.919-12.439 9.944.087 16.781 5.502 17.798 15.541l-6.885-.06c-.709-6.297-5.102-9.395-11.221-9.449-5.525-.049-8.776 2.388-8.81 6.297-.041 4.675 4.88 5.653 8.608 6.961l6.102 2.093c8.22 2.793 13.125 5.641 13.059 13.12-.07 7.904-5.891 12.613-16.855 12.516-10.709-.094-18.564-5.773-19.075-15.297M662.9 82.72c.223-10.112-5.488-17.125-14.496-17.324-9.007-.198-15.023 6.555-15.246 16.667-.255 11.557 6.321 17.908 14.48 18.089 9.601.212 15.046-7.66 15.262-17.432m-36.965-.816c.332-15.041 10.368-22.896 22.605-22.626 14.36.317 21.864 10.855 21.583 23.602-.344 15.55-9.96 23.67-22.62 23.39-14.447-.32-21.868-10.77-21.568-24.366M678.369 91.104l.972-30.076 7.052.228-.964 29.82c-.21 6.458 4.182 10.087 10.554 10.293 8.41.272 13.18-5.187 13.485-11.981l.884-27.358 7.052.228-1.456 45.03-5.607-.182-.375-6.815c-3.14 5-8.661 7.459-14.864 7.258-10.96-.354-17.03-7.27-16.733-16.445M727.381 107.746l1.844-45.013 5.605.23.498 8.613c3.124-5.658 8.515-8.5 15.99-8.193l1.528.063-.285 6.964-1.529-.063c-9.512-.39-15.255 4.82-15.635 14.077l-.967 23.61-7.049-.288ZM777.927 109.867l2.58-44.973 5.6.322.28 6.997c3.332-4.662 9.367-7.466 15.816-7.096 6.788.39 11.68 4.161 13.66 9.723 3.187-5.096 9.59-8.389 16.463-7.995 9.504.545 15.229 7.6 14.703 16.764l-1.728 30.123-7.042-.404 1.713-29.869c.345-6.025-3.164-10.142-9.19-10.488-8.4-.48-13.642 4.836-14.122 11.705L815.093 112l-6.958-.399 1.713-29.869c.346-6.025-3.164-10.142-9.188-10.488-8.401-.48-13.644 4.836-14.123 11.705l-1.567 27.323-7.043-.404ZM858.42 56.723c.202-2.968 2.643-5.016 5.611-4.812 2.968.203 5.021 2.56 4.817 5.527-.203 2.968-2.565 5.106-5.533 4.902-2.967-.203-5.1-2.649-4.896-5.617Zm-2.264 57.86 3.081-44.94 7.037.482-3.08 44.941-7.038-.483ZM873.337 101.515l6.866.522c.064 5.887 5.16 9.514 11.941 10.029 6.357.483 9.595-1.743 9.936-6.236.322-4.238-2.913-5.421-7.452-7.386l-6.36-2.7c-6.444-2.706-12.9-5.243-12.283-13.38.58-7.628 6.887-12.094 16.72-11.347 9.917.753 16.377 6.615 16.718 16.701l-6.865-.522c-.286-6.33-4.462-9.717-10.565-10.18-5.51-.418-8.918 1.795-9.214 5.694-.354 4.662 4.492 5.968 8.124 7.522l5.95 2.498c8.015 3.337 12.718 6.508 12.152 13.967-.599 7.883-6.724 12.192-17.658 11.361-10.68-.811-18.138-7.004-18.01-16.543M915.442 104.75l6.859.596c.002 5.887 5.058 9.568 11.833 10.155 6.352.55 9.613-1.642 10.002-6.13.368-4.234-2.855-5.452-7.373-7.465l-6.33-2.767c-6.415-2.774-12.844-5.38-12.14-13.51.66-7.621 7.015-12.02 16.838-11.168 9.909.859 16.306 6.789 16.54 16.877l-6.86-.594c-.218-6.333-4.357-9.763-10.455-10.292-5.504-.477-8.935 1.7-9.273 5.596-.404 4.658 4.427 6.015 8.044 7.608l5.92 2.56c7.98 3.423 12.65 6.643 12.004 14.096-.682 7.876-6.852 12.119-17.776 11.172-10.671-.925-18.062-7.197-17.833-16.733M962.313 65.037c.28-2.962 2.773-4.946 5.735-4.666 2.962.281 4.954 2.69 4.674 5.651-.28 2.962-2.697 5.038-5.659 4.758-2.962-.28-5.03-2.78-4.75-5.743Zm-3.763 57.79 4.246-44.852 7.024.666-4.246 44.851-7.024-.665ZM1013.827 105.32c1.05-10.06-4.069-17.515-13.029-18.45-8.96-.935-15.508 5.304-16.557 15.363-1.2 11.497 4.834 18.364 12.95 19.211 9.552.997 15.622-6.403 16.636-16.124m-36.772-3.836c1.561-14.963 12.205-21.97 24.378-20.7 14.286 1.49 20.902 12.606 19.58 25.286-1.614 15.47-11.862 22.774-24.457 21.46-14.37-1.499-20.912-12.52-19.5-26.046"></path><g transform="translate(1027.63 85.193)"><mask id="d" fill="#fff"><use xlink:href="#c"></use></mask><path fill="#000" d="M0 44.73 5.338 0l5.57.665-.141 6.916C14.37 3.217 20.565.79 27.233 1.585c9.621 1.148 15.29 8.159 14.112 18.033L37.81 49.242l-7.005-.836 3.505-29.37c.745-6.245-2.833-10.696-9.585-11.501-8.017-.957-13.577 4.029-14.477 10.855L7.005 45.565 0 44.73Z" mask="url(#d)"></path></g><g transform="translate(20 129.077)"><mask id="f" fill="#fff"><use xlink:href="#e"></use></mask><path fill="#020202" d="m24.555 13.155-3.349.47c-1.412.179-1.942.245-2.282.39a4.398 4.398 0 0 1-.523.118c-.183-.027-1.778.129-4.602.494-5.478.653-6.889.849-7.758 1.063 0 0-.522.12-.875.167-.693.193-.862.266-.497.318.183.026.007.05-.169.073-.529.07-.693.193-.673.34.007.05-.163.124-.333.197-.17.073-.163.122-.15.22.19.077.203.176.209.226.02.148-.476.466-.815.612 0 0-.17.073.006.05 0 0-.163.122-.502.268-.333.196-.503.269-.15.222.183.026.183.026.19.076-.15.22-.49.367-.842.414 0 0-.346.096-.339.146-.34.146-.795.76-.788.81l-.177.024.013.099c.007.049.02.149-.149.22.007.05.007.05.183.028.176-.024.359.002.535-.021.183.026.542.029.901.032.352-.047.359.003.365.052-.169.073-.162.123.562.178.372.102 2.845-.175 5.65-.648l2.813-.42 1.755-.277c.353-.045.699-.141.875-.163.176-.023.346-.096.699-.141.346-.095 1.227-.21 3.172-.41l8.633-1.143c4.219-.634 5.101-.735 6.16-.866l9.27-1.058 2.386-.253c.359.008 3.712-.391 5.117-.608.7-.135 1.23-.194 1.413-.165 0 0 .706-.082 1.406-.213a46.962 46.962 0 0 1 2.466-.335l2.124-.196c.53-.061 1.242-.093 1.601-.084.358.01 1.246-.047 4.249-.381l5.998-.724 5.824-.69c4.235-.51 6.002-.703 6.168-.821.171-.068.878-.143 1.06-.112.188.08 3.358-.354 3.348-.453.171-.07.702-.125.707-.075.003.025.313.005.8-.04l1.857-.19 4.07-.373c6.374-.564 17.87-1.696 18.74-1.932l1.415-.136c.536-.001 1.946-.186 2.831-.271l2.114-.302c.353-.034 1.233-.168 1.941-.236.88-.134 1.239-.118 1.416-.135.181.033.717.032 1.247-.02.708-.064 1.244-.063 1.421-.08a47.097 47.097 0 0 0 2.119-.245c1.942-.23 1.942-.23 5.31-.49 2.127-.15 3.544-.27 4.602-.416 1.943-.223 2.297-.254 2.832-.252a331.83 331.83 0 0 0 6.715-.742c1.758-.301 5.291-.707 9.715-1.132 1.063-.088 2.122-.226 2.299-.24.35-.08.527-.094 1.063-.088l1.24-.102c.35-.08 1.236-.153 1.945-.211 1.067-.038 1.24-.102 1.586-.231.173-.065.52-.194.697-.208.531-.044 1.047-.287 1.026-.536-.008-.1.157-.264.149-.364.17-.114-.012-.15-.193-.185-.358-.02-.363-.07-.366-.12-.005-.05-.186-.085-.363-.07-.181-.036-.185-.085-.189-.135l-.004-.05c-.182-.035-.359-.021-.363-.07-.008-.1-1.273-.297-1.987-.288-.713.009-1.607-.018-1.438-.132-.005-.05-.182-.035-.714.008-.532.044-.532.044-.354.03l.528-.094-.541-.056a3.47 3.47 0 0 0-.717-.041c-.177.015-.532.044-.536-.006-.002-.025-.538-.031-1.229-.018-.691.014-1.536.046-2.157.097a8.884 8.884 0 0 1-1.426.02 3.878 3.878 0 0 0-.9-.073c-.354.03-1.063.092-1.599.087-.714.01-1.6.087-2.66.228l-6.555.619c-4.608.41-4.962.442-6.017.636-.7.163-1.232.209-3.004.369-1.949.18-3.189.294-6.746.472-2.132.138-9.226.719-12.946 1.074-8.319.865-9.913 1.028-11.147 1.199-2.12.267-10.263 1.09-13.276 1.362l-4.424.467c-.88.143-2.29.342-3.352.454-.879.145-1.764.242-1.758.292l-.885.096c-.718-.022-6.025.554-7.965.817-1.233.188-4.769.585-6.366.714l-5.481.62c-2.657.258-5.309.564-5.845.576-.53.06-1.597.134-2.31.166l-3.893.412c-1.414.168-2.657.266-2.834.287 0 0-.883.105-1.938.28-.883.108-2.649.32-3.886.47l-2.296.282c.012.099-2.278.43-2.285.38-.006-.05-1.242.102-1.413.173l-.53.065c-.182-.028-1.248.05-2.314.136-.883.11-1.772.172-1.772.172l-1.589.2ZM158.095.364c.008.1-.165.164-.878.173-.359-.02-.536-.006-.186-.085.528-.094 1.06-.138 1.064-.088Zm.045.548c.186.085.013.15-.346.129-.354.03-.358-.02-.363-.07.169-.114.524-.144.709-.06Zm-.342.179c.178-.014.182.035.182.035.004.05.004.05-.173.065 0 0-.178.014-.182-.035l.173-.065Zm-9.202.927c.362.069.362.069.012.149-.35.08-.89.026-.899-.073-.185-.085.523-.145.887-.076Zm7.278-.467.177-.015-.355.03.178-.015Zm-5.663.579.177-.015-.531.045.354-.03Zm9.949-.531c.536.006.54.055.012.149-.527.094-.89.023-.898-.076.169-.115.346-.13.886-.073Z" mask="url(#f)"></path></g></g></svg> 