<?xml version="1.0" encoding="UTF-8"?> <svg xmlns="http://www.w3.org/2000/svg" id="Layer_2" viewBox="0 0 100.5 100.5"><defs><style>.cls-1{fill:none;}.cls-1,.cls-2,.cls-3{stroke-width:0px;}.cls-3{fill:#c597fe;}</style></defs><g id="Layer_1-2"><path class="cls-3" d="m55.46,96.21H7.84c-3.77,0-6.85-3.07-6.85-6.85V26.75c0-3.77,3.07-6.84,6.85-6.84h34.36c2.49,0,4.5,2.01,4.5,4.5s-2.01,4.5-4.5,4.5H9.99v58.31h43.31v-10.92c0-2.49,2.01-4.5,4.5-4.5s4.5,2.01,4.5,4.5v13.07c0,3.77-3.07,6.85-6.84,6.85Z"></path><path class="cls-3" d="m41.53,56.7h-21.94c-2.49,0-4.5-2.01-4.5-4.5s2.01-4.5,4.5-4.5h21.94c2.49,0,4.5,2.01,4.5,4.5s-2.01,4.5-4.5,4.5Z"></path><path class="cls-3" d="m41.31,68.8h-21.72c-2.49,0-4.5-2.01-4.5-4.5s2.01-4.5,4.5-4.5h21.72c2.49,0,4.5,2.01,4.5,4.5s-2.01,4.5-4.5,4.5Z"></path><path class="cls-3" d="m42.42,80.68h-22.83c-2.49,0-4.5-2.01-4.5-4.5s2.01-4.5,4.5-4.5h22.83c2.49,0,4.5,2.01,4.5,4.5s-2.01,4.5-4.5,4.5Z"></path><path class="cls-3" d="m41.2,42.02H6.33c-2.49,0-4.5-2.01-4.5-4.5s2.01-4.5,4.5-4.5h34.87c2.49,0,4.5,2.01,4.5,4.5s-2.01,4.5-4.5,4.5Z"></path><path class="cls-2" d="m92.66,80.6h-47.62c-3.77,0-6.84-3.07-6.84-6.84V11.13c0-3.77,3.07-6.84,6.84-6.84h47.62c3.77,0,6.85,3.07,6.85,6.84v62.62c0,3.77-3.07,6.84-6.85,6.84Zm-45.47-9h43.31V13.29h-43.31v58.31Z"></path><path class="cls-3" d="m81.14,41.3h-24.35c-2.49,0-4.5-2.01-4.5-4.5s2.01-4.5,4.5-4.5h24.35c2.49,0,4.5,2.01,4.5,4.5s-2.01,4.5-4.5,4.5Z"></path><path class="cls-3" d="m81.14,53.19h-24.35c-2.49,0-4.5-2.01-4.5-4.5s2.01-4.5,4.5-4.5h24.35c2.49,0,4.5,2.01,4.5,4.5s-2.01,4.5-4.5,4.5Z"></path><path class="cls-3" d="m81.14,65.18h-24.35c-2.49,0-4.5-2.01-4.5-4.5s2.01-4.5,4.5-4.5h24.35c2.49,0,4.5,2.01,4.5,4.5s-2.01,4.5-4.5,4.5Z"></path><path class="cls-2" d="m94.49,26.41h-50.95c-2.49,0-4.5-2.01-4.5-4.5s2.01-4.5,4.5-4.5h50.95c2.49,0,4.5,2.01,4.5,4.5s-2.01,4.5-4.5,4.5Z"></path><path class="cls-1" d="m100.5,100.5H0V0h100.5v100.5Zm-100-.5h99.5V.5H.5v99.5Z"></path></g></svg> 