<?xml version="1.0" encoding="UTF-8"?> <svg xmlns="http://www.w3.org/2000/svg" xmlns:xlink="http://www.w3.org/1999/xlink" id="Layer_2" viewBox="0 0 55.88 51.86"><defs><style>.cls-1{clip-path:url(#clippath);}.cls-2,.cls-3{fill:none;}.cls-2,.cls-3,.cls-4{stroke-width:0px;}.cls-5{clip-path:url(#clippath-1);}.cls-6{clip-path:url(#clippath-4);}.cls-7{clip-path:url(#clippath-3);}.cls-8{clip-path:url(#clippath-2);}.cls-3{clip-rule:evenodd;}.cls-4{fill:#040404;}</style><clipPath id="clippath"><path class="cls-3" d="m52.21,17.95c0-.16.06-.18.16-.05.1.13.02.26-.09.29-.12-.02-.14-.06-.07-.24Zm.3,2.8q-.02-.1,0-.05l.02.15-.02-.1Zm-.42-1.53v-.05s.01.1.01.1c.01.05,0,0-.01-.05Zm.21,2.01c.1-.11.1-.11.16-.02.07.09-.02.25-.13.26-.1.06-.13-.13-.03-.24Zm-.67-2.44s.04-.06.04-.06q.05-.01.07.03s.01.05-.04.06l-.07-.03Zm-.19-.05c.1-.07.16-.04.13.06.03.09-.03.11-.08.12-.12-.02-.15-.11-.05-.19Zm-.59.16c.11-.03.17,0,.17.2-.03.1-.02.15-.1.07-.09-.12-.13-.25-.07-.27Zm-18.27,23.24c-.18,0-.57.06-.83.05-.35-.01-.48-.02-.58.09-.09.05-.14.05-.14.05-.04-.06-.43-.13-1.13-.22-1.34-.24-1.67-.36-1.92-.29,0,0-.14.02-.23,0-.2.06-.26.11-.2.24.03.06-.01.05-.06.04-.13-.04-.2.06-.25.22-.02.05-.07.1-.13.14-.06.04-.07.09-.1.2.02.12-.01.23-.03.28-.04.16-.26.39-.38.47,0,0-.06.04-.02.05,0,0-.08.09-.2.17-.14.13-.21.17-.11.2q.03.07.02.12c-.11.2-.24.28-.34.25,0,0-.11.02-.13.07-.13.07-.47.61-.49.66l-.05-.02s-.02.05-.04.1c-.02.05-.05.16-.12.2q-.02.05.03.07c.05.02.09.09.14.1.03.07.12.16.21.24.11.03.09.09.07.14-.07.04-.09.09.08.31.06.19.8.47,1.7.55.27.06.67.08.89.12.17.03.45.02.56.03.11.02.23-.02.28-.02.06,0,.12-.04.23-.03.12-.04.39,0,.99.1.83.07,1.49.1,2.7.01,1.31-.21,1.58-.25,1.91-.27,1.45-.15,2.32-.35,2.85-.43.48-.12.7-.17.72-.18.12.02,1.13-.26,1.53-.48.19-.13.34-.2.41-.17,0,0,.21-.08.39-.22.23-.16.54-.28.69-.34.15-.06.48-.14.62-.22.15-.08.37-.13.49-.13.12,0,.4-.08,1.23-.53.57-.34,1.23-.86,1.55-1.07.34-.19.94-.78,1.42-1.16.51-.43.84-.76,1.04-1,.21-.23.3-.36.28-.42,0-.08.16-.23.24-.23.12.04.74-.73.64-.82,0-.08.1-.2.14-.17.04.04.29-.26.57-.59.28-.33.71-.76.83-.95.3-.39.66-.87,1.02-1.37.33-.52.64-1.09.92-1.6.54-1.05.84-1.97.83-2.12.02-.05.09-.2.17-.4.1-.14.19-.57.27-.83.03-.28.08-.61.1-.66.03-.1.06-.38.13-.58,0-.28.08-.37.09-.42.07-.04.16-.19.19-.35.05-.21.14-.36.15-.42.01-.05.07-.32.08-.65.08-.6.03-.6.22-1.62.13-.65.18-1.08.12-1.41-.05-.6-.05-.71.01-.87,0-.16-.02-.61-.05-1.06-.05-.44-.13-.87-.17-1-.21-.53-.43-1.58-.77-2.88-.07-.31-.2-.61-.22-.66-.08-.09-.09-.14-.08-.31-.03-.1-.07-.26-.1-.36-.08-.09-.16-.34-.22-.54-.04-.32-.12-.35-.26-.42-.07-.03-.21-.1-.23-.14-.05-.15-.32-.22-.58-.12-.1.04-.28.05-.38.09-.12,0-.16.06-.19.12-.02.11-.07.13-.12.15-.05.02-.09.08-.07.13-.03.07-.09.08-.14.1l-.05.02c-.04.06-.02.11-.07.13-.11.04-.31.46-.31.66,0,.2-.04.45-.16.44-.05.02-.04.06,0,.19.04.13.04.13.03.09l-.09-.12-.07.16c-.04.06-.07.16-.06.21.01.04.04.13-.02.15-.05.02-.08.58-.02.89.04.18,0,.28-.04.37-.09.11-.13.21-.12.25.02.09.04.26.01.4-.03.18,0,.4.09.66.02.17.17.92.18,1.63-.02,1.15-.02,1.24.09,1.51.11.18.12.32.06.76-.07.49-.06.81-.38,1.66-.09.26-.25.81-.41,1.41-.22.59-.46,1.21-.59,1.65-.73,1.94-.99,2.26-1.08,2.56-.11.25-.39.83-.79,1.37-.19.27-.38.54-.57.81-.19.24-.38.43-.51.57-.32.37-.49.58-.72.85-.12.19-.33.48-.53.67-.12.2-.28.35-.24.39-.03.03-.1.1-.16.16-.19.06-1.25.88-1.59,1.24-.23.22-.98.71-1.34.89-.06.07-.63.34-1.22.66-.6.3-1.25.49-1.38.51-.12.05-.39.1-.57.11-.12.07-.55.15-.94.25-.34.1-.65.14-.69.15,0,0-.21.07-.45.19-.22.04-.65.12-.95.18-.3.06-.52.1-.56.11.02.13-.54.25-.55.19,0-.06-.32-.03-.35.03h-.13s-.32-.07-.59-.1c-.22.02-.44-.01-.44-.01-.04,0-.18,0-.39.01Z"></path></clipPath><clipPath id="clippath-1"><rect class="cls-2" x="25.12" y="16.63" width="29.75" height="30.28"></rect></clipPath><clipPath id="clippath-2"><path class="cls-3" d="m11.44,23.26c-.06.18-.11.18-.17,0-.05-.19.06-.3.17-.3.11.07.11.13,0,.3Zm.72-3.3v.06s.03-.18.03-.18l-.03.12Zm-.17,1.9v.06c0-.06,0-.12,0-.12,0-.06,0,0,0,.06Zm.56-2.36c-.13.09-.13.09-.16-.04-.03-.13.12-.28.22-.25.12-.03.07.2-.06.29Zm-.3,3.03c0,.06-.06.05-.06.05q-.06,0-.05-.06s0-.06.06-.05l.05.06Zm.15.13c-.12.05-.17-.01-.1-.12.01-.12.07-.11.12-.11.1.07.09.18-.03.23Zm.61.04c-.11,0-.16-.07-.08-.29.07-.11.08-.16.12-.05.04.17.02.34-.04.33Zm30.8-12.63c.16.14.55.41.79.62.31.29.41.41.57.41.11.04.15.07.15.07,0,.08.31.44.85,1.1,1.01,1.3,1.2,1.68,1.44,1.84,0,0,.13.1.19.19.21.12.29.14.32-.01.02-.08.05-.03.08.02.09.14.21.13.36.04.05-.03.12,0,.2.01.08.02.12,0,.22-.06.07-.11.16-.16.21-.19.14-.08.47-.07.62-.02,0,0,.08.02.05-.03,0,0,.12,0,.28.05.2.02.28.05.22-.06.02-.08.02-.08.07-.11.22-.06.38,0,.44.11,0,0,.11.08.16.06.16.06.79-.06.84-.08l.03.06s.05-.03.1-.05c.05-.03.15-.08.23-.04t.02-.08c-.03-.06-.01-.14-.04-.2.02-.08,0-.22-.01-.37-.06-.11-.01-.14.03-.17.08.03.13,0,.15-.31.04-.1-.04-.36-.21-.71-.19-.34-.48-.76-.82-1.18-.18-.28-.52-.62-.68-.84-.12-.16-.37-.39-.45-.5-.08-.11-.22-.17-.26-.22-.04-.05-.13-.06-.22-.17-.13-.06-.34-.32-.79-.9-.35-.35-.66-.66-1.03-1.03-.39-.33-.81-.7-1.4-1.14-1.33-.89-1.62-1.04-1.95-1.26-1.46-.98-2.44-1.44-3.02-1.72-.58-.3-.78-.36-.81-.38-.1-.1-1.28-.56-1.82-.64-.27-.02-.46-.08-.51-.15,0,0-.25-.09-.53-.09-.34-.02-.72-.11-.92-.15-.19-.04-.57-.19-.77-.21-.2-.03-.45-.12-.58-.2-.12-.06-.44-.22-1.58-.29-.8-.09-1.8-.01-2.27-.01-.47-.02-1.46.16-2.19.21-1.58.25-2.22.45-2.26.55-.05.07-.31.12-.39.08-.1-.11-1.21.35-1.18.45-.05.07-.24.13-.25.07-.01-.05-.46.07-.96.25-.49.2-1.18.42-1.43.52-1.11.42-2.61,1.19-3.77,2.02-1.17.8-2,1.63-2.08,1.78-.05.04-.2.18-.38.36-.18.1-.52.51-.75.74-.23.31-.46.62-.48.64-.09.1-.26.39-.42.59-.17.29-.29.35-.34.4-.08.01-.25.13-.38.28-.17.2-.34.32-.37.38-.04.05-.23.33-.41.68-.34.64-.42.59-1.06,1.66-.42.67-.71,1.12-.81,1.51-.24.69-.29.81-.42.96-.21.35-.65,2.07-.69,2.4-.06.55-.11,1.02-.16,1.43-.07.61-.22,1.32-.25,2.12-.04.39-.03.77-.04.84.04.13.03.2-.04.38-.02.13-.03.32-.03.45.05.13.05.45.05.71-.06.38,0,.45.1.57.06.06.17.19.16.25,0,.19.22.37.5.36.11,0,.28.05.39.05.11.06.17,0,.22-.07.06-.12.11-.12.17-.12.05,0,.11-.06.11-.12.06-.06.11-.06.17-.06h.06c.06-.06.06-.12.11-.12.11,0,.45-.41.51-.63.06-.23.17-.5.28-.44.06,0,.06-.05.06-.22q0-.17,0-.11l.05.17.11-.16c.05-.05.12-.16.13-.21,0-.05.02-.16.07-.16.06,0,.3-.63.34-1,.02-.22.09-.32.16-.41.12-.09.2-.18.21-.24.02-.1.07-.31.16-.46.1-.2.16-.45.17-.78.01-.22.26-1.09.52-1.9.52-1.29.59-1.37.61-1.72-.03-.25.07-.38.33-.86.29-.52.45-.87,1.22-1.65.36-.54,1.84-2.08,2.67-2.82,1.83-1.7,2.32-1.86,2.58-2.13.24-.22.92-.6,1.63-.97.71-.39,1.53-.63,1.94-.8.55-.19.87-.26,1.27-.39.24-.13.64-.32.96-.36.25-.1.52-.15.51-.21.05-.01.16-.03.26-.05.23.01,1.83-.12,2.42-.23.37-.06,1.46-.1,1.94.02.11.02.86.03,1.66.18.8.14,1.57.38,1.72.45.16.03.45.18.64.29.15.06.65.23,1.09.41.4.15.72.33.77.35,0,0,.24.1.55.19.24.12.73.32,1.05.51.32.18.56.31.6.33.06-.11.68.22.65.27-.03.05.28.25.36.23l.14.09c.02.07.25.3.46.54.21.16.39.36.39.36.04.04.18.12.37.3Z"></path></clipPath><clipPath id="clippath-3"><path class="cls-3" d="m7.95,26.34c-.23.11-.27.07-.1-.13.17-.2.36-.22.43-.13,0,.14-.07.19-.33.26Zm4.27-1.76q-.16.04-.08.02l.24-.07-.16.04Zm-2.37,1.07l-.07.04c.07-.04.14-.07.14-.07.07-.04,0,0-.07.04Zm3.14-.98c-.18-.08-.18-.08-.04-.16.15-.08.41-.02.43.09.1.1-.21.15-.39.07Zm-3.73,1.71c-.07.04-.1,0-.1,0t.04-.09s.07-.04.1,0l-.04.09Zm-.04.23c-.13-.05-.09-.14.07-.18.13-.08.16-.04.19.01,0,.14-.13.22-.26.17Zm.33.51c-.06-.09-.03-.18.25-.29.15-.03.21-.07.12.06-.16.17-.34.29-.37.24Zm-3.57,11.16c-.05-.26-.22-.83-.23-1.23-.06-.53-.03-.72-.14-.86-.05-.13-.05-.2-.05-.2.05-.07.1-.67.31-1.71.23-1.01.51-1.59.67-1.99.14-.41.26-.59.28-.77,0,0,.05-.2.11-.32.03-.29.04-.37-.14-.32-.09.03-.05-.03,0-.09.12-.17.06-.29-.08-.38-.05-.03-.05-.12-.06-.21,0-.09-.05-.12-.14-.19-.13,0-.22-.06-.27-.1-.14-.09-.24-.44-.24-.64,0,0,0-.1-.04-.03,0,0-.05-.14-.04-.33-.03-.23-.02-.33-.12-.2q-.1.03-.14,0c-.12-.2-.1-.4.01-.53,0,0,.07-.17.03-.2.02-.2-.26-.81-.3-.85l.06-.07s-.04-.04-.08-.07-.12-.11-.1-.22t-.1.03c-.06.07-.16.11-.22.18-.1.04-.27.15-.43.26-.12.15-.17.11-.21.08.02-.11-.02-.15-.4.05-.24.05-1.15,1.15-1.74,2.65-.19.46-.43,1.11-.54,1.49-.09.28-.18.77-.24.96-.06.19-.04.4-.06.49-.02.1.01.2-.03.4.01.2-.1.67-.25,1.74-.08,1.46-.1,2.66.45,4.74.74,2.22,1.09,2.6,1.32,3.12,1.18,2.29,2.4,3.37,3.05,4.04.71.62.95.84.99.86.06.08.48.38.97.71.5.31,1.1.59,1.45.76.38.1.65.21.72.3,0,0,.36.16.74.23.48.09,1.03.27,1.32.34.28.06.84.23,1.13.29.29.05.67.14.86.22.19.07.67.24,2.35.16,1.19-.05,2.62-.42,3.28-.64.67-.16,2.02-.78,2.96-1.3.5-.31.91-.6,1.26-.84.33-.26.59-.49.8-.66.42-.35.58-.57.58-.64.03-.11.31-.38.42-.4.18.04,1.22-1.38,1.13-1.44.02-.1.18-.34.23-.31.04.03.45-.51.83-1.18.17-.3.39-.7.61-1.09.18-.39.33-.73.4-.88.72-1.59,1.22-4.05,1.03-6.13-.14-2.08-.77-3.69-.93-3.88-.04-.09-.14-.36-.28-.72-.03-.3-.45-.96-.67-1.39-.27-.4-.65-.84-.7-.92-.1-.17-.41-.53-.66-.82-.34-.34-.41-.52-.47-.6-.01-.12-.18-.35-.38-.56-.27-.27-.43-.52-.5-.59-.06-.08-.44-.38-.91-.71-.41-.33-.66-.44-.95-.65-.29-.21-.66-.48-1.46-.92-1.01-.57-1.74-.83-2.31-.94-1.02-.27-1.22-.24-1.49-.37-.28-.08-1.07-.14-1.84-.18-.78.02-1.54.05-1.77.12-.93.21-2.8.55-4.89,1.58-.5.25-.96.55-1.04.6-.13.15-.21.2-.47.3-.16.1-.39.25-.54.35-.13.14-.48.44-.77.66-.47.3-.49.42-.55.62-.03.1-.08.31-.15.37-.19.19-.22.53-.02.72.08.08.14.25.22.33.02.13.12.11.22.09.16-.08.2-.04.24,0,.04.04.14.02.2-.04.1-.02.14.02.17.06l.04.04c.1-.02.15-.07.19-.03.08.08.68-.07.96-.19.27-.14.63-.29.64-.15.04.05.08-.01.27-.13q.18-.12.12-.08l-.15.16.25-.02c.09,0,.24-.02.3-.06.06-.04.18-.11.21-.07.02.02.84-.22,1.27-.43.26-.1.41-.1.55-.1.17.05.31.06.37.03.12-.06.39-.11.59-.12.27-.03.59-.11.97-.22.26-.08,1.39-.25,2.47-.18,1.74.19,1.85.34,2.27.33.3-.04.5.03,1.12.3.68.32,1.14.53,2.11,1.49.3.28.95.88,1.49,1.65.58.74,1.03,1.66,1.3,2.3.61,1.44.74,2.38.8,2.98.08.6.06.87.09,1.1.05.4-.04,1.39-.29,2.37-.25.99-.75,1.94-1.05,2.42-.39.62-.61.97-.97,1.37-.16.31-.5.73-.8,1.01-.19.29-.49.48-.44.53-.05.04-.16.13-.27.21-.13.06-.63.35-1.18.67-.28.15-.57.29-.85.43-.28.11-.52.22-.69.3-.21.12-.66.24-1.12.38-.47.07-.96.18-1.27.16-.13.01-1.09.12-2.11,0-.51-.06-1-.22-1.4-.3-.39-.13-.67-.24-.76-.29-.2-.04-.54-.28-.77-.42-.19-.06-.76-.43-1.26-.74-.45-.29-.79-.61-.83-.66,0,0-.25-.21-.6-.42-.22-.25-.72-.7-.98-1.08-.3-.35-.48-.64-.51-.69-.09.06-.62-.64-.54-.68.05-.03-.16-.44-.24-.48l-.09-.18c.02-.08-.07-.48-.16-.87-.11-.31-.13-.65-.13-.65,0-.07-.1-.25-.14-.57Z"></path></clipPath><clipPath id="clippath-4"><rect class="cls-2" x="1" y="22.08" width="28.94" height="28.78"></rect></clipPath></defs><g id="Layer_1-2"><g class="cls-1"><g class="cls-5"><rect class="cls-4" x="24.12" y="15.63" width="31.75" height="32.28"></rect></g></g><g class="cls-8"><rect class="cls-4" x="9.21" width="44.2" height="25.83"></rect></g><g class="cls-7"><g class="cls-6"><rect class="cls-4" y="21.08" width="30.94" height="30.78"></rect></g></g></g></svg> 