<?xml version="1.0" encoding="UTF-8"?> <svg xmlns="http://www.w3.org/2000/svg" id="Layer_2" viewBox="0 0 749.99 144.46"><defs><style>.cls-1{fill:none;}.cls-1,.cls-2,.cls-3{stroke-width:0px;}.cls-3{fill:#020202;}</style></defs><g id="Layer_1-2"><path class="cls-3" d="m635.69,133.75c.78.14.78.22-.02.23-.8,0-1.31-.19-1.3-.34.28-.13.54-.11,1.32.11Zm-14.72-1.67q.53.04.26.02l-.79-.06.53.04Zm8.45.51l.26.02c-.26-.02-.53-.04-.53-.04-.26-.02,0,0,.26.02Zm-10.79-1.08q.52.19-.02.23c-.53.03-1.31-.18-1.3-.33-.25-.17.8-.09,1.32.1Zm13.73.87c.26.02.26.1.26.1q0,.08-.27.05s-.26-.02-.26-.1l.27-.05Zm.55-.18c.25.17-.02.23-.54.11-.53-.05-.52-.12-.51-.2.28-.13.8-.08,1.05.09Zm.07-.84c-.01.15-.28.21-1.33.04-.52-.12-.78-.14-.25-.17.8,0,1.59.06,1.58.14Zm-199.41-8.47c-1.04.03-3.48.1-5.03.15-2.12.05-2.91.07-3.44.23-.53.09-.79.09-.79.09-.27-.07-2.65-.09-6.89,0-8.21.09-10.33.23-11.65.41,0,0-.79.1-1.32.12-1.05.19-1.32.27-.78.41.27.07,0,.08-.26.08-.79.03-1.05.19-1.05.42,0,.08-.26.16-.52.25-.26.08-.26.16-.25.31.27.14.28.3.28.37,0,.23-.77.64-1.3.8,0,0-.26.08,0,.08,0,0-.26.16-.78.33-.52.25-.78.33-.25.31q.27.07.27.14c-.25.31-.78.48-1.3.5,0,0-.53.09-.52.17-.52.17-1.28,1.03-1.28,1.11h-.26s0,.08,0,.16c0,.08,0,.23-.25.31q0,.08.27.07c.26,0,.53.06.79.05.27.07.8.13,1.33.19.53-.02.53.06.53.14-.26.08-.26.16.81.35.54.21,4.23.17,8.45-.12,1.28-.06,3.19-.16,4.22-.21.79-.02,2.11-.12,2.64-.14.53-.01,1.05-.1,1.32-.11.26,0,.53-.09,1.05-.1.53-.09,1.85-.12,4.75-.11,3.94-.09,7.06-.17,12.93-.31,6.33-.24,7.65-.25,9.24-.28,6.98.02,11.27.03,13.86.03,2.56.02,3.43.03,3.56.03.53.08,5.54.1,7.66.03,1.06-.07,1.85-.07,2.11,0,0,0,1.06,0,2.11-.07,1.32-.07,2.9-.06,3.7-.06.79,0,2.38.1,3.17.11.79,0,1.85.1,2.37.18.53.08,1.85.17,6.33.23,3.15.02,7.14.05,8.98.06,1.84.02,5.83.07,8.71.1,6.34.05,8.98.16,9.25,0,.27-.07,1.32-.04,1.58.04.26.16,5.02.14,5.02-.01.27-.07,1.06-.05,1.06.03,0,.08,1.85.12,3.96.2,2.08.1,5.03.24,6.07.29,4.83.22,11.44.51,17.05.77,5.64.22,10.26.39,10.92.31.26.01,1.05.05,2.11.1.79.12,2.9.14,4.22.21,1.32-.01,2.91,0,3.17,0,.53.02,1.85.02,2.91.08,1.32,0,1.85.1,2.11.12.26.09,1.05.21,1.84.26,1.05.06,1.84.18,2.1.2.26.01,1.58.09,3.17.1,2.9.09,2.91.08,7.91.48,3.16.28,5.27.41,6.85.44,2.9.11,3.43.14,4.22.28,1.58.11,8.7.47,10.03.49,2.65-.06,7.93.22,14.52.66,1.58.12,3.17.18,3.43.2.53-.03.8,0,1.58.14.53.05,1.32.11,1.84.16.53-.03,1.85.08,2.9.17,1.57.21,1.84.16,2.38.05.27-.05.81-.16,1.07-.14.79.07,1.61-.17,1.64-.55.01-.15.3-.36.31-.51.28-.13.02-.23-.24-.33-.52-.12-.51-.2-.51-.27s-.25-.17-.51-.2c-.26-.1-.25-.17-.24-.25v-.08c-.25-.1-.51-.12-.51-.2.01-.15-1.79-.77-2.84-.93-1.05-.17-2.35-.43-2.08-.56,0-.08-.26-.1-1.05-.17q-.79-.07-.53-.05h.8s-.78-.23-.78-.23c-.26-.1-.78-.22-1.04-.24-.26-.02-.79-.07-.79-.14,0-.04-.78-.18-1.8-.34-1.02-.16-2.27-.31-3.19-.38-1.06-.08-1.58-.2-2.1-.32-.52-.19-1.04-.31-1.3-.33-.53-.04-1.58-.12-2.37-.26-1.05-.16-2.37-.26-3.96-.31-1.05-.07-5.57-.36-9.78-.63-6.87-.5-7.4-.51-8.99-.46-1.07.08-1.86.03-4.5-.14-2.91-.18-4.76-.33-10.03-.84-3.17-.26-13.74-1.01-19.29-1.26-12.44-.55-14.82-.58-16.68-.6-3.18-.09-15.35-.5-19.85-.74-2.91-.09-4.5-.13-6.62-.19-1.33.04-3.45.06-5.03.01-1.33.04-2.65,0-2.65.08-.26,0-.79-.02-1.32-.04-1.05-.2-9-.34-11.91-.33-1.85.04-7.15-.07-9.53-.16-.53,0-4.24-.05-8.21-.1-3.97-.14-7.94-.15-8.74-.23-.79,0-2.38-.09-3.44-.17-.79,0-3.44-.09-5.83-.1-2.12-.01-3.97-.09-4.24-.08,0,0-1.32,0-2.91.09-1.32,0-3.97.02-5.83.03-1.85,0-3.18.01-3.44.02,0,.15-3.44.24-3.44.17,0-.08-1.85-.05-2.12.03h-.79c-.27-.06-1.86-.12-3.45-.17-1.32.02-2.65-.04-2.65-.04-.26,0-1.06.01-2.38.03Z"></path><path class="cls-2" d="m120.05,119.88l-2.99-52.87-20.54,1.16-.37-6.54,48.21-2.72.37,6.54-20.54,1.16,2.98,52.87-7.13.4Z"></path><path class="cls-2" d="m149.04,118.31l-2.18-45,5.6-.27,1.26,8.53c2.61-5.91,7.72-9.22,15.19-9.58l1.53-.07.34,6.96-1.53.07c-9.51.46-14.77,6.16-14.32,15.41l1.14,23.6-7.05.34Z"></path><path class="cls-2" d="m178.74,101.89l-1.19-30.07,7.05-.28,1.18,29.81c.26,6.45,4.9,9.76,11.27,9.5,8.41-.33,12.77-6.12,12.59-12.92l-1.09-27.35,7.05-.28,1.79,45.01-5.61.22-.86-6.77c-2.77,5.21-8.1,8.06-14.3,8.31-10.96.44-17.51-6.02-17.87-15.2Z"></path><path class="cls-2" d="m225.57,100.85l6.88-.21c.69,5.85,6.13,8.92,12.93,8.71,6.37-.19,9.36-2.75,9.22-7.25-.13-4.25-3.47-5.08-8.19-6.56l-6.61-2.01c-6.69-2.01-13.38-3.85-13.63-12.01-.23-7.65,5.57-12.75,15.43-13.05,9.94-.3,16.98,4.85,18.39,14.84l-6.88.21c-.95-6.26-5.46-9.19-11.58-9.01-5.52.17-8.68,2.73-8.56,6.63.14,4.67,5.1,5.46,8.87,6.62l6.18,1.86c8.32,2.47,13.33,5.13,13.56,12.6.24,7.9-5.4,12.83-16.36,13.16-10.71.32-18.78-5.05-19.66-14.55Z"></path><path class="cls-2" d="m287.4,113.39c-8.75.2-13.53-4.2-13.72-12.53l-.59-26.26-8.33.19-.13-5.95,8.33-.19-.35-15.38,7.05-.16.35,15.38,12.15-.27.13,5.95-12.15.27.59,26.26c.1,4.5,2.37,6.83,6.53,6.74l5.01-.11.13,5.95-5.01.11Z"></path><path class="cls-2" d="m318.05,96.12c-.09-9.6,6.92-14.43,14.11-18.15-4.04-4.47-6.45-8.1-6.49-12.77-.07-7.39,6.08-12.98,14.33-13.05,8.24-.08,14.5,5.3,14.57,12.7.07,7.14-5.59,10.93-11.94,14.22l15.53,15.66c1.75-4.27,2.63-9.46,2.58-15.49l7.22-.07c.08,8.24-1.56,15.23-4.57,20.78l8.5,8.59-5.31,4.72-7.38-7.58c-4.71,4.97-11.15,7.75-18.88,7.83-13,.12-22.17-7.02-22.26-17.39Zm36.42,4.76l-18.19-18.61c-5.92,3.2-10.99,6.82-10.93,13.36.06,6.8,5.63,11.42,14.9,11.34,6.03-.06,10.77-2.23,14.22-6.08Zm-7.22-35.8c-.04-3.91-3.12-6.77-7.12-6.73-4.08.04-7.2,3.04-7.16,7.04.03,3.23,2.18,6.18,5.44,9.55,4.99-2.6,8.88-5.44,8.83-9.86Z"></path><path class="cls-2" d="m396.71,94.26l7.48.04c.8,7.65,8,12.54,18.45,12.6,9.09.05,13.88-3.66,13.91-9.86.04-6.03-5.22-8.36-10.9-10.18l-10.26-3.29c-4.75-1.56-16.72-4.18-16.65-15.82.06-9.6,8-15.85,20.32-15.77,13.6.08,21.97,7.01,22.83,19.68l-7.39-.04c-.54-8.42-6.38-13.13-15.82-13.18-7.48-.04-12.77,3.32-12.8,9.02-.04,6.54,6.75,7.94,11.84,9.59l9.59,3.03c7.55,2.42,16.63,5.45,16.56,16.67-.06,10.45-8.09,16.7-21.26,16.62-14.96-.09-25.2-7.88-25.89-19.11Z"></path><path class="cls-2" d="m450.58,99.81c.17-10.37,10.23-12.16,19.26-12.95,6.89-.57,12.84-.39,12.99-4.04,0-5.7-4.6-9.77-11.4-9.88-6.54-.11-11.71,3.46-12.56,8.81l-6.97-.11c.99-8.83,9.08-14.9,19.79-14.72,11.13.18,18.16,6.93,18.01,16.45l-.36,21.93c-.02,1.44.73,2.22,2.26,2.25l2.55.04-.09,5.78-3.99-.07c-4.85-.08-7.36-2.33-7.29-6.5l.02-1.36c-2.72,5.14-7.87,8.29-15.69,8.16-10.2-.17-16.66-5.54-16.52-13.79Zm32.04-4.83l.1-5.86c-2,2.6-7.02,3.03-12.55,3.54-6.21.58-12.43,1.33-12.53,7.11-.08,4.67,4.12,7.72,10.58,7.82,8.42.14,14.28-5.12,14.4-12.6Z"></path><path class="cls-2" d="m505.77,113.67l.97-39.09-8.33-.21.15-5.95,8.33.21.15-6.29c.2-8.07,4.81-12.29,13.14-12.09l10.03.25-.15,5.95-10.03-.25c-3.74-.09-5.84,2.15-5.94,6.31l-.16,6.29,14.62.36-.15,5.95-14.62-.36-.97,39.09-7.05-.17Z"></path><path class="cls-2" d="m531.58,91.94c.51-15.38,10.73-23.37,22.11-22.99,12.4.41,20.11,9,19.88,23.45l-.06,1.95-34.91-1.16c.11,9.61,5.49,16.34,14.58,16.64,6.29.21,10.98-2.78,13.04-8.58l6.88.23c-2.35,9.19-9.85,14.81-20.12,14.47-13.34-.44-21.85-10.51-21.4-24.01Zm34.73-3.69c-1.01-7.94-5.61-12.94-12.83-13.18-7.14-.24-12.56,4.26-14.27,12.28l27.1.9Z"></path><path class="cls-2" d="m598.82,116.77c-8.75-.36-13.23-5.06-12.88-13.38l1.09-26.24-8.32-.35.25-5.94,8.32.35.64-15.37,7.05.29-.64,15.37,12.14.51-.25,5.95-12.14-.51-1.09,26.24c-.19,4.5,1.92,6.97,6.08,7.14l5.01.21-.25,5.95-5.01-.21Z"></path><path class="cls-2" d="m609.75,134.24l.3-5.94,7.22.36c4.58.23,6.62-1.28,7.77-3.95l2.8-6.58-1.7-.09-15.56-45.89,7.56.38,12.69,38.69,16-37.24,7.22.36-22.95,53.4c-2.12,4.83-6.41,7.25-14.13,6.86l-7.22-.36Z"></path><path class="cls-3" d="m180.68,39.82c.09-.01,1.04-.32,1.2-.45.09-.01.16-.13.16-.13-.02-.1.14-.24.49-.35q.09-.01.19.02c.02.11.1.04.35-.11.16-.13.33-.22.33-.22,0,.05.09-.01.09-.01.16-.14.57-.37.84-.42.09-.01.27-.04.45-.02.18-.03.27-.04.35-.11s.16-.14.25-.16c.27-.05.43-.13.4-.3-.01-.06-.02-.11.08-.07.2.08.28,0,.41-.24-.02-.11.04-.3.04-.3.1-.27.09-.64-.22-1.82.18-.03.19-.09.2-.27.01-.13.14-.32.15-.41.02-.11.03-.18.03-.2,0,0-.07-.12-.05-.24-.07-.15-.14-.3-.22-.34v-.07c.1,0,.13-.16.04-.18-.09-.02.06-.29.24-.26,0-.02.03-.13.07-.29.04-.16.08-.38.11-.49.12-.11.14-.22.14-.22,0-.02-.05-.2,0-.37.06-.2.04-.44.06-.51-.06-.11-.11-.27-.09-.34-.07-.09.02-.43.07-.78.12-.33.23-.63.25-.68-.02-.23.17-.66.32-.77.19-.2.45-.84.35-.99.02-.04.04-.08.05-.1.08.04.13-.06.27-.12.06-.12.23-.25.36-.3.09-.16.14-.29.27-.5.12-.37.66-1.28.9-1.44.18-.06.25-.28.98-1.03.27-.38.74-1.14.85-1.4.1-.52.24-.61.41-.78.16-.15.21-.2.39-.13.22.04.24,0,.67-.34.27-.21.59-.38.67-.41.16,0,.24-.05.26-.17,0-.11.07-.16.1-.18.02-.01,0-.11-.06-.28-.01-.1-.03-.2.04-.25.12-.09.2-.44.16-.52-.05-.08,0-.1.01-.11s.01-.11-.01-.2l-.03-.19-.1-.05s.02,0,.04-.02c.06-.03.08-.04.03-.12-.11-.15-.09-.36-.05-.48.04-.12-.07-.69-.15-.85-.04-.08-.02-.09-.04-.18l-.04-.08c-.04-.08-.08-.16-.1-.25.02-.01,0-.11-.04-.19-.04-.08-.08-.16-.07-.27-.02-.09-.03-.19-.14-.34-.09-.16-.22-.39-.31-.55-.2-.4-.44-.68-.52-.64-.03.01-.16-.12-.23-.18-.14-.13-.21-.19-.33-.03-.11.06-.24.13-.34.09-.05.03-.14.08-.19.11-.04.12-.06.14-.16.09-.03.02-.24.03-.39.13-.68.36-1.32.54-1.71.54-.17.02-.95.42-1.1.54-.02.13-.07.16-.37.33-.2.06-.38.23-.59.56-.37.47-.37.47-.66.66-.19.07-.3.19-.32.21-.02.02-.02.15-.1.24-.06.07-.06.2-.01.28-.02.02,0,.13-.17.18-.08.09-.26.14-.29.19-.02.02-.2.11-.37.17-.1.12-.32.26-.31.38-.08.1-.13.17-.15.19-.32-.06-1.53,1.57-1.9,2.63-.06.11-.16.44-.28.65-.13.21-.22.4-.14.44.07.04.04.1-.04.1-.08-.13-.15-.25-.18-.31-.18-.18-.41-.45-.49-.61-.17-.11-.5-.92-1.01-1.64-.43-.76-.84-1.48-.89-1.58-.17-.21-.39-.56-.6-.92-.23-.34-.43-.68-.51-.88-.3-.58-1.26-2.07-1.59-2.12-.07-.09-.15-.18-.19-.23.07-.06-.11-.28-.23-.57-.22-.28-.45-.7-.57-.99-.3-.37-.52-.65-.98-1.12-.38-.34-1.05-1-1.68-1.64-.66-.62-1.31-1.19-1.55-1.46-.26-.34-.62-.75-2.88-2.45-.5-.39-1.31-.81-2.06-1.2-.76-.38-1.44-.74-1.79-.84-1.18-.29-1.55-.46-2.13-.75-.53-.27-.69-.33-.84-.58-.26-.3-.37-.34-1.79-.9-.87-.37-1.8-.72-2.02-.8-.31-.19-.59-.28-.84-.26-.19.03-.42-.03-.53-.07-.06-.02-.19.03-.35.17-.14.05-.27.1-.49.04-.39-.09-1.13.01-1.15.1-.02.09-.13.06-.19.05-.06-.01-.19.05-.26.12l-.21.14.14.13s-.04-.01-.11-.03c-.17-.04-.22-.05-.24.04.01.19-.3.3-.54.34-.24.04-.73.48-.76.65-.02.09-.07.08-.14.15l-.02.09c-.02.09-.04.18-.11.25-.05-.01-.12.06-.14.15-.02.09-.04.18-.16.24-.07.08-.14.15-.12.34-.03.18-.04.45-.07.63-.09.44,0,.83.14.87.05.01.11.21.15.31.06.2.09.3.41.28.2.05.45.1.53.22.1.02.25.06.35.08.17-.05.22-.04.3.07.05.01.33.17.62.24,1.19.45,2.1.93,2.49,1.33.22.14,1.38.83,1.66.93.17-.03.26,0,.73.29.25.18.59.36,1.16.54.87.33.88.33,1.32.65.23.2.43.33.47.36.04.03.21.02.38.12.12.08.3.07.38.02.04.03.17,0,.34.2.17.1.33.3.41.35.04.03.25.25.4.45.21.12.46.44.63.45.16.11.27.2.31.23,0,.2.69.7,1.46,1.37.76.69,1.74,1.41,2.37,2.01.13.14.57.46.84.74.28.27.5.53.56.47.07-.06.16.06.12.15-.13.12.27.91.44.83.1-.02.22.13.18.23-.13.17.24.49.81,1.51.3.44.63,1.09.82,1.37.21.27.48.95.77,1.46.41.72.61.88.73.93.13.04.3.17.38.3.06.13.27.36.33.5.06.13.19.4.21.67,0,.22.09.4.09.4.1,0,.17.14.17.36.04.2.16.51.29.77.11.28.22.51.28.54,0,.01.06.13.17.36-.1-.03-.21-.05-.32-.07-.39-.16-.76-.31-.81-.33-.26-.02-.8-.2-.96-.35-.27-.18-1.08-.47-1.24-.31-.06-.01-.11-.03-.14-.04.03-.09-.11-.12-.23-.25-.17-.05-.36-.19-.48-.32-.22-.06-.39-.11-.7-.17-.5-.02-1.81-.28-2.15-.39-.2-.1-.44-.2-1.84-.37-.62-.07-1.84.14-2.2.24-.59.28-.8.33-1.13.35-.3.03-.39.04-.53-.13-.2-.16-.27-.16-1.06-.02-.49.09-1.03.1-1.15.14-.21-.04-.36,0-.46.13-.07.11-.19.15-.25.16-.03,0-.07.11-.08.3-.03.1-.07.21-.19.24-.21.05-.47.45-.44.53.03.08-.03.11-.06.12-.03.01-.05.12-.05.21l-.02.2.11.05s.03-.01-.06.02-.11.04-.08.13c.09.16.02.38-.05.5-.08.13-.05.69.03.86.04.08.01.09.02.18l.04.08c.04.08.07.17.08.26-.02,0-.01.1.02.18.04.08.07.16.06.27.01.09.03.18.12.34.08.16.2.4.28.57.18.41.39.72.45.69.02,0,.13.14.18.22.11.15.16.23.24.1.08-.03.17-.07.24,0,.04-.01.1-.04.13-.05.03-.11.05-.11.11-.04.02,0,.16.03.28,0,.53-.04.95,0,1.21.24.12.07.68.15.79.13.05-.1.08-.12.31-.04.13.08.29.07.52-.05.37-.13.37-.13.6-.04.13.09.23.09.25.09.02,0,.08-.09.16-.09.06,0,.12-.09.14-.18.02,0,.06-.09.17,0,.08,0,.18.09.23.09.02,0,.14.1.24.2.1,0,.26.11.33.02.08,0,.14,0,.17.01.09.26,1.41.39,2.19.39.08.02.33-.02.5,0,.17.03.31.07.33-.01.02-.09.08-.07.08.02-.04.18.28.45.35.28.04-.08.13-.06.12.03-.03.19.18.22.64.47.22.08.49.26.63.31.14.04.41.23.64.34.33.14.47.09.54.03.07-.07.19-.12.25-.09.06.03.22-.01.28.02.06.03.18.09.24.21.04.12.12.16.12.16.06-.07.12-.04.15.07.12.16.48.33.56.27.01,0,.08.02.28.09.2.07.53.2,1.05.45.11.07.2.13.54.56.35.32.56.48.82.67.24.07.33.13.31.23.03.03,0,.11.02.12.02.01,0,.11.03.13.03.02.07.16.12.2.06.05.12.22.2.29.09.22.23.33.38.36.07.48.23.83.42.87.3.16.39.14.47.08.09-.01.18-.03.2.07.11.09.21.17.31.21,0,.05.11.09.12.14q0,.05.1.04c.08-.06.26-.09.35-.1l.18-.03v-.05Zm-20.6-11.35c-.03-.08.05-.12.16-.06.08.06.06.07.03.18-.08.13-.13.05-.2-.12Zm.34.93c-.04-.18.02-.2.1-.04.03.08.06.17,0,.19-.02.1-.08.03-.11-.15Zm.2.4s-.02,0-.06-.08c0,0-.03-.08,0-.09l.06.08c.03.08,0,.09,0,.09Zm.41.23s-.02,0-.05.02h.02s.05-.03.02-.02Zm.99-.28c-.07-.07-.07-.07-.07-.26,0-.19.11-.22.13-.03.04.18.01.37-.06.3Zm-.13.22l-.07.02s-.02,0,.02,0h.05Zm-1.1,1.21c-.1-.06-.13-.14-.1-.25,0-.19.03-.2.11-.04.06.17.08.35-.02.3Zm-5.91-28.12c-.24.04-.27-.06-.23-.24.02-.09.19-.05.33.08.09.11.03.1-.1.16Zm-.4.92c-.13.06-.16-.04-.06-.2.1-.16.2-.14.21.05-.02.09-.04.17-.15.15Zm-.06.26q-.05-.01-.03-.1s.02-.09.07-.07l.03.1c-.02.09-.07.08-.07.08Zm-.99,1.16c-.13-.12-.12-.21.06-.26.2-.14.25-.13.26.06-.04.18-.19.33-.32.2Zm3.1-.02s.04.01.06.02l-.11-.03q-.05-.02.05.02Zm.52-.03q-.08-.12.08-.26c.16-.14.37-.07.26.08-.06.17-.27.29-.34.18Zm35.6,11.51c-.09-.16-.13-.34-.01-.3.12.04.16.12.13.24.02.2,0,.21-.12.07Zm-.1.88s.01,0,.02-.01c-.02.01-.05.03-.02.01Zm-.76.3h.01s.01-.02-.01,0Zm1.31.01l-.07-.07c-.05-.08-.02-.09-.02-.09t.07.07s.05.08.02.09Zm-1.26.49c.06.18-.02.23-.11.07-.11-.15-.15-.34-.05-.29.1.04.1.04.16.22Zm1.35-.24c-.05-.08-.09-.16-.05-.18,0-.1.07-.04.13.13.07.17.03.19-.09.05Zm.46.87c-.09-.06-.07-.07-.07-.17.04-.12.1-.06.19.1.05.08-.01.11-.12.07Z"></path><rect class="cls-1" width="749.99" height="144.46"></rect></g></svg> 