<?xml version="1.0" encoding="UTF-8"?> <svg xmlns="http://www.w3.org/2000/svg" id="Layer_2" viewBox="0 0 52.66 47.26"><defs><style>.cls-1{fill:#020202;}.cls-1,.cls-2{stroke-width:0px;}.cls-2{fill-rule:evenodd;}</style></defs><g id="Layer_1-2"><path class="cls-1" d="m19.03,44.73c.1.06.1.12,0,.18-.1.06-.16-.06-.16-.18.03-.12.06-.12.16,0Zm-1.81-.36q.06,0,.03,0h-.1.06Zm1.04-.12h.03-.06s0,0,.03,0Zm-1.33-.18q.06.12,0,.18c-.06.06-.16-.06-.16-.18-.03-.12.1-.12.16,0Zm1.68-.18s.03.06.03.06q0,.06-.03.06s-.03,0-.03-.06l.03-.06Zm.06-.18c.03.12,0,.18-.06.12-.06,0-.06-.06-.06-.12.03-.12.1-.12.13,0Zm0-.66c0,.12-.03.18-.16.12-.06-.06-.1-.06-.03-.12.1-.06.19-.06.19,0Zm-13.21-7.01c0-.13-.06-.42-.06-.62,0-.26,0-.36-.12-.42-.06-.06-.06-.1-.06-.1.06-.03.12-.32.12-.84.06-1,.06-1.26-.06-1.43,0,0-.06-.1-.06-.16-.12-.13-.18-.16-.3-.1-.06.03-.06,0-.06-.03,0-.1-.12-.13-.3-.13-.06,0-.12-.03-.18-.06-.06-.03-.12-.03-.24-.03-.12.03-.24.03-.3.03-.18,0-.48-.1-.6-.16,0,0-.06-.03-.06,0,0,0-.12-.03-.24-.1-.18-.06-.24-.1-.24-.03q-.06.03-.12.03c-.24-.03-.36-.1-.36-.16,0,0-.06-.06-.12-.06-.12-.06-.78-.16-.84-.16v-.03h-.12c-.06,0-.18,0-.24-.03q-.06,0-.06.03s-.06.06-.06.1c-.06.03-.12.1-.18.16,0,.06-.06.06-.12.06-.06-.03-.12-.03-.3.1-.18.06-.24.52-.12,1.04,0,.16.06.39.06.52,0,.1.06.26.06.32s.06.13.06.16.06.06.06.13c.06.06.06.23,0,.58,0,.49,0,.87.06,1.59.12.78.12.94.12,1.13-.03.86-.06,1.38-.08,1.7-.02.28-.04.43-.04.44-.06.06-.06.68,0,.94.06.13.06.23,0,.26,0,0,0,.13.06.26.06.16.06.36.06.45,0,.1-.06.28-.06.4,0,.18-.06.42-.12.55-.06.13-.12.45-.12,1.52,0,.76.06,1.65.06,2.08,0,.16.02.57.03,1.01.42-.01.78-.02,1.01-.03,1.51-.06,2.1-.06,2.21-.18.08-.06.31-.06.35,0,.02.12,1.13,0,1.13-.12.06-.06.23-.06.23,0,0,.03.11.05.25.05.09,0,.21,0,.34,0,.26,0,.62.06.74.06,1.17.12,3.27.12,3.43-.06h.26c.1.06.36,0,.52,0,.16-.06.36-.12.39-.12.06,0,.23-.06.36-.06.16-.06.23,0,.26,0,.03.06.13.12.23.12.13,0,.23.06.26.06s.19,0,.39-.06q.36-.06.97,0c.39.06.65.06.84,0,.36-.06.42-.06.52,0,.19,0,1.07-.12,1.23-.18.32-.18.97-.3,1.78-.36.19,0,.39-.06.42-.06.06-.06.1-.06.19,0h.23c.06-.06.23-.06.36-.06.19.06.23,0,.29-.12.03-.06.1-.18.13-.18.1,0,.19-.24.19-.54,0-.12.02-.3.03-.42.03-.12,0-.18-.03-.24-.06-.06-.06-.12-.06-.18s-.03-.12-.06-.12c-.03-.06-.03-.12-.03-.18v-.06c-.03-.06-.06-.06-.06-.12,0-.12-.23-.48-.36-.54-.13-.06-.29-.18-.26-.3,0-.06-.03-.06-.13-.06s-.1,0-.06,0l.1-.06-.1-.12c-.03-.06-.1-.12-.13-.12s-.1,0-.1-.06-.39-.24-.62-.24c-.13,0-.19-.06-.26-.12-.06-.12-.13-.18-.16-.18-.06,0-.19,0-.29-.06-.13-.06-.29-.06-.49,0-.13,0-.68.06-1.2.06-.84,0-.91,0-1.1.12-.13.12-.23.12-.55.12-.36,0-.58,0-1.23-.18-.39-.06-1.68-.18-2.36-.18-1.52.06-1.81.06-2.04.12-.39.06-1.88.06-2.43,0h-.39c-.02.06-.07.12-.1.12-.05.06-.07.06-.1.12h-.03c.03-.1-.03-.11-.12-.09,0,0-.02-.02-.03-.02-.06.02-.06-.11,0-.18v-.15l.02-.03s0-.01,0-.01v-.08c.02-.12.02-.22.03-.32.02-.19.03-.34.06-.39,0-.1.06-.29.12-.42,0-.1.06-.42.06-.71,0-.26.06-.49.06-.52,0,0,0-.16-.06-.36v-1.13c-.12,0-.18-.42-.12-.42s.06-.23,0-.26v-.1c.06-.03.12-.23.18-.42,0-.16.06-.32.06-.32v-.29Z"></path><path class="cls-1" d="m50.14,28.32c.06-.11.12-.11.18,0,.06.11-.06.18-.18.18-.12-.04-.12-.07,0-.18Zm-.36,2.06q0-.07,0-.04v.11-.07Zm-.12-1.18v-.04.07s0,0,0-.04Zm-.18,1.51q.12-.07.18,0c.06.07-.06.18-.18.18-.12.04-.12-.11,0-.18Zm-.18-1.91s.06-.04.06-.04q.06,0,.06.04s0,.04-.06.04l-.06-.04Zm-.18-.07c.12-.04.18,0,.12.07,0,.07-.06.07-.12.07-.12-.04-.12-.11,0-.15Zm-.66,0c.12,0,.18.04.12.18-.06.07-.06.11-.12.04-.06-.11-.06-.22,0-.22Zm-10.43,13.07c-.15,0-.48.06-.7.06-.29,0-.4,0-.48.12-.07.06-.11.06-.11.06-.04-.06-.37-.12-.96-.12-1.14-.06-1.43-.06-1.62.06,0,0-.11.06-.18.06-.15.12-.18.18-.11.3.04.06,0,.06-.04.06-.11,0-.15.12-.15.3,0,.06-.04.12-.07.18-.04.06-.04.12-.04.24.04.12.04.24.04.3,0,.18-.11.48-.18.6,0,0-.04.06,0,.06,0,0-.04.12-.11.24-.07.18-.11.24-.04.24q.04.06.04.12c-.04.24-.11.36-.18.36,0,0-.07.06-.07.12-.07.12-.18.78-.18.84h-.04v.12c0,.06,0,.18-.04.24q0,.06.04.06s.07.06.11.06c.04.06.11.12.18.18.07,0,.07.06.07.12-.04.06-.04.12.11.3.07.18.59.24,1.18.12.18,0,.44-.06.59-.06.11,0,.29-.06.37-.06s.15-.06.18-.06.07-.06.15-.06c.07-.06.26-.06.66,0,.55,0,.99,0,1.8-.06.88-.12,1.07-.12,1.29-.12.97.03,1.57.06,1.93.08.32.02.48.04.5.04.07.06.77.06,1.07,0,.15-.06.26-.06.29,0,0,0,.15,0,.29-.06.18-.06.4-.06.51-.06s.33.06.44.06.26.06.33.12c.07.06.26.12.88.12.44,0,.99-.06,1.25-.06.15,0,.5-.02.89-.03.49-.01.95-.02,1.25-.03,1.64-.06,2.31-.06,2.28-.18.02-.06.28-.06.4,0,.06.04.21.05.38.05,0-.39-.09-1.02-.17-1.09-.06-.11-.06-.31,0-.26.06.05.06-.42.06-.95s.06-1.24.06-1.51c.02-.63.05-1.19.07-1.7.01-.41.02-.84.02-1.23,0-.79-.05-1.43-.14-1.52v-.29c.06-.11,0-.4,0-.59-.06-.18-.12-.4-.12-.44,0-.07-.06-.26-.06-.4-.06-.18,0-.26,0-.29.06-.04.12-.15.12-.26,0-.15.06-.26.06-.29s0-.22-.06-.44q-.06-.4,0-1.1c.06-.44.06-.73,0-.96-.06-.4-.06-.48,0-.59,0-.22-.12-1.21-.18-1.4-.18-.37-.3-1.1-.36-2.02,0-.22-.06-.44-.06-.48-.06-.07-.06-.11,0-.22v-.26c-.06-.07-.06-.26-.06-.4.06-.22,0-.26-.12-.33-.06-.04-.18-.11-.18-.15,0-.11-.24-.22-.54-.22-.12,0-.3-.04-.42-.04-.12-.04-.18,0-.24.04-.06.07-.12.07-.18.07s-.12.04-.12.07c-.06.04-.12.04-.18.04h-.06c-.06.04-.06.07-.12.07-.12,0-.48.26-.54.4-.06.15-.18.33-.3.29-.06,0-.06.04-.06.15s0,.11,0,.07l-.06-.11-.12.11c-.06.04-.12.11-.12.15s0,.11-.06.11-.24.44-.24.7c0,.15-.06.22-.12.29-.12.07-.18.15-.18.18,0,.07,0,.22-.06.33-.06.15-.06.33,0,.55,0,.15.06.77.06,1.36,0,.96,0,1.03.12,1.25.12.15.12.26.12.62,0,.4,0,.66-.18,1.4-.06.44-.18,1.91-.18,2.68.06,1.73.06,2.06.12,2.31.02.11.03.3.03.53,0,.23,0,.47.01.72,0,.06-.02.12-.05.13v.08s.05.07.07.1c.01.03,0,.05,0,.05.03.06,0,.06.04.12h-.03c-.11-.12-.23-.12-.29-.06l-.02.02c-.05,0-.1,0-.15.01-.11,0-.24.01-.37.01-.26,0-.52-.01-.69-.04h-1.14c-.55-.06-1.1-.06-1.21-.12-.11,0-.33-.06-.48-.12-.11,0-.48-.06-.81-.06-.29,0-.55-.06-.59-.06,0,0-.18,0-.4.06h-1.29c0,.12-.48.18-.48.12s-.26-.06-.29,0h-.11c-.04-.06-.26-.12-.48-.18-.18,0-.37-.06-.37-.06h-.33Z"></path><path class="cls-1" d="m35.78,2.52c-.08-.06-.08-.12,0-.18.08-.06.14.06.14.18-.03.12-.06.12-.14,0Zm1.57.36q-.06,0-.03,0h.08-.06Zm-.9.12h-.03.06s0,0-.03,0Zm1.15.18q-.06-.12,0-.18c.06-.06.14.06.14.18.03.12-.08.12-.14,0Zm-1.46.18s-.03-.06-.03-.06q0-.06.03-.06s.03,0,.03.06l-.03.06Zm-.06.18c-.03-.12,0-.18.06-.12.06,0,.06.06.06.12-.03.12-.08.12-.11,0Zm0,.66c0-.12.03-.18.14-.12.06.06.08.06.03.12-.08.06-.17.06-.17,0Zm11.11,5.81c0,.11.06.36.06.53,0,.22,0,.31.12.36.06.06.06.08.06.08-.06.03-.12.28-.12.73-.06.87-.06,1.09.06,1.23,0,0,.06.08.06.14.12.11.18.14.3.08.06-.03.06,0,.06.03,0,.08.12.11.3.11.06,0,.12.03.18.06.06.03.12.03.24.03.12-.03.24-.03.3-.03.18,0,.48.08.6.14,0,0,.06.03.06,0,0,0,.12.03.24.08.18.06.24.08.24.03q.06-.03.12-.03c.24.03.36.08.36.14,0,0,.06.06.12.06.12.06.78.14.84.14v.03h.12c.06,0,.18,0,.24.03q.06,0,.06-.03s.06-.06.06-.08c.06-.03.12-.08.18-.14,0-.06.06-.06.12-.06.06.03.12.03.3-.08.18-.06.24-.45.12-.9,0-.14-.06-.34-.06-.45,0-.08-.06-.22-.06-.28s-.06-.11-.06-.14-.06-.06-.06-.11c-.06-.06-.06-.2,0-.5,0-.42,0-.76-.06-1.37-.12-.67-.12-.81-.12-.98.03-.74.06-1.2.08-1.47.02-.24.04-.37.04-.38.06-.06.06-.59,0-.81-.06-.11-.06-.2,0-.22,0,0,0-.11-.06-.22-.06-.15-.06-.27-.06-.47,0-.15.06-.47.06-.62s.06-.37.12-.5c.06-.12.12-.41.12-1.33,0-.65-.06-1.42-.06-1.79,0-.11-.02-.42-.03-.77-.34.02-.7.03-.99.03-1.31.06-1.83.06-1.93.18-.08.06-.28.06-.31,0,0-.12-.98,0-.99.12-.06.06-.21.06-.2,0,.01-.06-.34-.06-.75-.06-.24,0-.54-.06-.65-.06-1.01-.12-2.83-.12-2.97.06h-.22c-.08-.06-.31,0-.45,0-.14.06-.31.12-.34.12-.06,0-.2.06-.31.06-.14.06-.2,0-.22,0-.03-.06-.11-.12-.2-.12-.11,0-.2-.06-.22-.06s-.17,0-.34.06q-.31.06-.84,0c-.34-.06-.56-.06-.73,0-.31.06-.36.06-.45,0-.17,0-.92.12-1.06.18-.28.18-.84.3-1.54.36-.17,0-.34.06-.36.06-.06.06-.08.06-.17,0h-.2c-.06.06-.2.06-.31.06-.17-.06-.2,0-.25.12-.03.06-.08.18-.11.18-.08,0-.17.24-.17.54,0,.12-.02.3-.03.42-.03.12,0,.18.03.24.06.06.06.12.06.18s.03.12.06.12c.03.06.03.12.03.18v.06c.03.06.06.06.06.12,0,.12.2.48.31.54.11.06.25.18.22.3,0,.06.03.06.11.06s.08,0,.06,0l-.08.06.08.12c.03.06.08.12.11.12s.08,0,.08.06.34.24.53.24c.11,0,.17.06.22.12.06.12.11.18.14.18.06,0,.17,0,.25.06.11.06.25.06.42,0,.11,0,.59-.06,1.04-.06.73,0,.78,0,.95-.12.11-.12.2-.12.48-.12.31,0,.5,0,1.06.18.34.06,1.46.18,2.05.18,1.32-.06,1.57-.06,1.77-.12.33-.06,1.63-.06,2.09,0h.06c.03-.06.08-.12.1-.12.05-.06.07-.06.1-.12h.02c-.04.1.02.12.1.08,0,0,.01,0,.02,0,.06-.03.06.08,0,.16v.13s-.04.07-.06.09c0-.02-.02.11-.02.15,0,.06-.02.1-.04.12,0,.08-.06.25-.12.36,0,.08-.06.36-.06.62,0,.22-.06.42-.06.45,0,0,0,.14.06.31v.98c.12,0,.18.36.12.36s-.06.2,0,.22v.08c-.06.03-.12.2-.18.36,0,.14-.06.28-.06.28v.25Z"></path><path class="cls-1" d="m2.52,15.91c-.06.09-.12.09-.18,0-.06-.09.06-.15.18-.15.12.03.12.06,0,.15Zm.36-1.73q0,.06,0,.03v-.09.06Zm.12.99v.03-.06s0,0,0,.03Zm.18-1.27q-.12.06-.18,0c-.06-.06.06-.15.18-.15.12-.03.12.09,0,.15Zm.18,1.61s-.06.03-.06.03q-.06,0-.06-.03s0-.03.06-.03l.06.03Zm.18.06c-.12.03-.18,0-.12-.06,0-.06.06-.06.12-.06.12.03.12.09,0,.12Zm.66,0c-.12,0-.18-.03-.12-.15.06-.06.06-.09.12-.03.06.09.06.19,0,.19ZM13.21,5.46c.12,0,.4-.06.59-.06.25,0,.34,0,.4-.12.06-.06.09-.06.09-.06.03.06.31.12.8.12.96.06,1.21.06,1.36-.06,0,0,.09-.06.15-.06.12-.12.15-.18.09-.3-.03-.06,0-.06.03-.06.09,0,.12-.12.12-.3,0-.06.03-.12.06-.18.03-.06.03-.12.03-.24-.03-.12-.03-.24-.03-.3,0-.18.09-.48.15-.6,0,0,.03-.06,0-.06,0,0,.03-.12.09-.24.06-.18.09-.24.03-.24q-.03-.06-.03-.12c.03-.24.09-.36.15-.36,0,0,.06-.06.06-.12.06-.12.15-.78.15-.84h.03v-.12c0-.06,0-.18.03-.24q0-.06-.03-.06s-.06-.06-.09-.06c-.03-.06-.09-.12-.15-.18-.06,0-.06-.06-.06-.12.03-.06.03-.12-.09-.3-.06-.18-.49-.24-.99-.12-.15,0-.37.06-.49.06-.09,0-.25.06-.31.06s-.12.06-.15.06-.06.06-.12.06c-.06.06-.22.06-.56,0-.46,0-.83,0-1.52.06-.74.12-.9.12-1.08.12-.82-.03-1.32-.06-1.62-.08-.27-.02-.41-.04-.42-.04-.06-.06-.65-.06-.9,0-.12.06-.22.06-.25,0,0,0-.12,0-.25.06-.15.06-.34.06-.43.06s-.28-.06-.37-.06-.22-.06-.28-.12c-.06-.06-.22-.12-.74-.12-.37,0-.83.06-1.05.06-.11,0-.4.02-.73.03-.35.02-.73.03-1.05.03-1.38.06-1.94.06-1.92.18-.01.06-.23.06-.34,0-.15-.12-1.08,0-.95.12,0,.01,0,.02-.01.03.03.1.02.2-.03.15-.06-.06-.06.33-.06.78s-.06,1.02-.06,1.25c-.03.49-.05,1.1-.07,1.74,0,.56-.01,1.01-.02,1.46,0,.66.05,1.2.14,1.28v.25c-.06.09,0,.34,0,.49.06.15.12.34.12.37,0,.06.06.22.06.34.06.15,0,.22,0,.25-.06.03-.12.12-.12.22,0,.12-.06.22-.06.25s0,.19.06.37q.06.34,0,.93c-.06.37-.06.62,0,.8.06.34.06.4,0,.49,0,.19.12,1.02.18,1.18.18.31.3.93.36,1.7,0,.19.06.37.06.4.06.06.06.09,0,.19v.22c.06.06.06.22.06.34-.06.19,0,.22.12.28.06.03.18.09.18.12,0,.09.24.19.54.19.12,0,.3.02.42.03.12.03.18,0,.24-.03.06-.06.12-.06.18-.06s.12-.03.12-.06c.06-.03.12-.03.18-.03h.06c.06-.03.06-.06.12-.06.12,0,.48-.22.54-.34.06-.12.18-.28.3-.25.06,0,.06-.03.06-.12s0-.09,0-.06l.06.09.12-.09c.06-.03.12-.09.12-.12s0-.09.06-.09.24-.37.24-.59c0-.12.06-.19.12-.25.12-.06.18-.12.18-.15,0-.06,0-.19.06-.28.06-.12.06-.28,0-.46,0-.12-.06-.65-.06-1.14,0-.8,0-.87-.12-1.05-.12-.12-.12-.22-.12-.53,0-.34,0-.56.18-1.17.06-.37.18-1.61.18-2.26-.06-1.45-.06-1.73-.12-1.95,0-.05-.01-.11-.02-.15v-.03s-.03-.05-.03-.07c0-.05.02-.09.05-.09v-.05h.02c-.04-.06-.06-.12-.03-.12-.02-.06,0-.06-.03-.12h.03c.09.12.19.12.25.06-.02-.02.06-.03.16-.03.09,0,.2-.01.31-.01.22,0,.44.02.58.05h.96c.46.06.93.06,1.02.12.09,0,.28.06.4.12.09,0,.4.06.68.06.25,0,.46.06.49.06,0,0,.15,0,.34-.06h1.08c0-.12.4-.18.4-.12s.22.06.25,0h.09c.03.06.22.12.4.18.15,0,.31.06.31.06h.28Z"></path><path class="cls-2" d="m35.1,38.56c-.35.01-.71.02-.93.02h-.26s-.23-.01-.23-.01c-.29-.01-.87-.04-1.5-.05l-2.4-.07c-.47-.04-1.09-.08-1.4-.09h-.1c-.15-.02-.94-.05-1.63-.07-.57-.02-1.22-.03-1.87-.06l-3.35-.05c-.75-.04-2.21-.07-3.23-.07-.25,0-1.14,0-1.14,0-.62,0-1.47,0-2.26-.02l-1.03-.02c-.32,0-.69-.01-1-.07-.89-.14-1.41-.56-1.66-.82-.39-.37-.59-.8-.68-1.04-.1-.2-.18-.47-.22-.82-.03-.29-.03-.55,0-.82l.04-.67c.08-.78.25-1.79.41-2.45.28-.97.55-1.71,1.19-2.99.55-1.07,1.65-2.71,2.89-4.01,1.27-1.36,2.72-2.44,3.37-2.86.18-.13.39-.28.7-.47-.36-.33-.78-.75-1.22-1.27-.48-.58-1.3-1.76-1.51-3.27-.19-1.38.11-2.55.39-3.29.25-.66.6-1.29,1.02-1.85.38-.5.84-.96,1.36-1.38.35-.29.66-.52.95-.73.61-.44,1.09-.74,1.65-1.07.7-.38,1.11-.57,1.43-.71.17-.08.31-.14.46-.22l.04-.02.1-.04c.34-.14.64-.27,1.27-.41l.12-.02c.44-.08,1.11-.21,2.13-.21.32,0,.68.01,1.09.04,1.09.09,2.19.34,3.1.69.83.31,1.5.68,1.83.91.77.46,1.34.95,1.78,1.54.12.15.28.38.42.61.16.24.3.48.4.7.07.17.23.52.27.95.06.27.12.55.2,1.07.04.21.05.46.07.73v.23s0,.05,0,.05c-.02.32-.04.65-.08.93-.07.4-.15.87-.35,1.22,0,.03-.02.07-.02.1-.1.3-.25.59-.37.77-.08.15-.18.28-.28.42h-.02c-.14.24-.29.45-.51.57-.01.01-.02.03-.04.04-.13.15-.28.33-.43.48-.41.47-1.24.94-1.77,1.01-.03,0-.11.04-.11.04.07,0,.32.05.32.05l.82.24c.29.09.72.21,1.37.55l.63.32.77.48c.29.17.59.41.91.65.4.3.77.64,1.1.97.8.78,1.32,1.48,1.6,1.92.29.42.44.69.51.87.02.02.04.05.07.09.29.3.53.73.92,1.62.25.56.7,1.68.85,2.28.19.68.27.94.29,1.11h0s.08.55.2,1.08c.04.27.14,1.19.15,1.64.03.21.03.43.03.65.01.33-.07.86-.28,1.32-.21.5-.44.8-.64.97-.06.07-.12.14-.18.21-.15.17-.38.39-.61.58-.06.05-.12.1-.18.15l.07.17-.89.41c-.14.07-.33.17-.69.3-.47.17-1.06.27-1.65.29-.16,0-.31,0-.46,0-.19,0-2.07-.03-2.07-.03Zm-.18-4.79l2.35.06c.35,0,.46-.03.47-.03.07-.03.14-.07.22-.11l-.12-.72c-.08-.34-.18-.8-.33-1.37-.58-2.01-1.09-2.98-1.83-4.06-.56-.82-.83-1.02-.83-1.02l-.13-.11s-.06-.05-.09-.07c-.08-.06-.15-.11-.22-.17-.03-.02-.43-.3-.43-.3-.15-.11-.35-.26-.51-.34l-.14-.08c-.14-.08-.31-.19-.49-.29-.2-.09-.48-.22-.7-.33-.68-.29-1.44-.5-1.99-.66-.53-.15-.82-.24-1.05-.39-.15-.08-.32-.17-.47-.31-.1-.03-.19-.07-.26-.1-.05-.01-.1-.03-.15-.04-.83-.14-.97-.82-.93-1.16l.09-.75.11-.02.04-.38.66.06c.18-.12.38-.21.54-.27.09-.04.19-.07.3-.08.07-.06.16-.12.27-.17v-.17s.72-.06.72-.06c.17-.27.45-.45.79-.5.05-.03.11-.06.17-.08v-.04s-.46,0-.46,0l-.34-.54-.29-.52.17-.29c-.03-.36.11-.83.71-1.31.12-.26.26-.4.46-.61l.2-.22s.06-.09.1-.16l.07-.11c.04-.08.07-.16.09-.21l.05-.12c.05-.13.13-.3.16-.42v-.05s.03-.05.03-.05c.04-.1.06-.14.07-.19v-.1s0-.02,0-.02c.01-.08.06-.52,0-.9-.05-.39-.18-.75-.36-1.05-.15-.24-.36-.43-.68-.67-.56-.4-1.11-.59-1.47-.68-.29-.08-.92-.26-1.57-.31-.23-.02-.45-.03-.66-.03-.44,0-.82.03-.97.05h-.07s-.08,0-.08,0c-.11,0-.17,0-.27.02-.19.03-.4.07-.82.22-.5.2-1.13.46-2.05,1.02-.69.44-1.01.72-1.27.94-.21.2-.32.3-.53.61-.12.19-.24.43-.35.69,0,.01-.03.07-.06.15-.04.08-.08.18-.11.29l-.03.14c-.03.15-.06.28-.09.4,0,.03,0,.07.03.14.03.13.08.29.23.52l.03.05c.06.09.25.32.46.51l.07.07c.15.16.38.38.6.57.24.22.46.42.57.55l.36.32c.18.16.32.31.41.39.15.13.52.47.95,1,.22.29.44.6.67.95l.36.54c.14.2.31.46.43.72l.42.95-2.74,1.08-1.51.66-.06.03c-.73.4-1.3.76-1.8,1.13-1.07.78-2.14,1.82-2.93,2.84-.24.28-.82,1.11-1.16,1.76-.12.21-.2.4-.27.56-.06.14-.12.26-.17.37-.04.07-.07.15-.09.21-.04.1-.09.19-.14.26,0,.12-.03.24-.07.38-.02.11-.06.34-.12.57-.06.21-.09.39-.12.54l7.19.05c1.98.03,2.5.08,2.76.12.17.03.55.06.82.07l1.33.06c.14,0,.38,0,.65,0s.53,0,.79-.02c.29-.02.6-.02.77-.02h.31s.08.03.08.03c.04,0,.08,0,.14,0,.12,0,.26,0,.43-.02.23,0,.47,0,.75,0,.02,0,1.95,0,2.53.06l1.43.04Z"></path></g></svg> 