<?xml version="1.0" encoding="UTF-8"?> <svg xmlns="http://www.w3.org/2000/svg" id="Layer_2" viewBox="0 0 163.23 39.98"><defs><style>.cls-1{fill:none;}.cls-1,.cls-2{stroke-width:0px;}</style></defs><g id="Layer_1-2"><path class="cls-2" d="m59.95,28.74l1.5-3.49c1.62,1.21,3.78,1.84,5.91,1.84,1.58,0,2.57-.61,2.57-1.53-.02-2.57-9.43-.56-9.5-7.01-.02-3.27,2.88-5.79,7.01-5.79,2.45,0,4.9.61,6.64,1.99l-1.41,3.56c-1.6-1.02-3.59-1.75-5.48-1.75-1.28,0-2.13.61-2.13,1.38.02,2.52,9.5,1.14,9.6,7.3,0,3.34-2.84,5.7-6.91,5.7-2.98,0-5.72-.7-7.8-2.21"></path><path class="cls-2" d="m117.61,23.99c-.75,1.31-2.16,2.21-3.78,2.21-2.4,0-4.34-1.94-4.34-4.34s1.94-4.34,4.34-4.34c1.62,0,3.03.9,3.78,2.21l4.14-2.3c-1.55-2.76-4.53-4.65-7.93-4.65-5.02,0-9.09,4.07-9.09,9.09s4.07,9.09,9.09,9.09c3.42,0,6.37-1.87,7.93-4.65l-4.14-2.3Z"></path><path class="cls-2" d="m76.74,5.23h5.19v25.38h-5.19V5.23Z"></path><path class="cls-2" d="m123.79,5.23v25.38h5.19v-7.61l6.16,7.61h6.64l-7.83-9.04,7.25-8.44h-6.35l-5.87,7.01V5.23h-5.19Z"></path><path class="cls-2" d="m97.35,24.04c-.75,1.24-2.3,2.16-4.05,2.16-2.4,0-4.34-1.94-4.34-4.34s1.94-4.34,4.34-4.34c1.75,0,3.3.97,4.05,2.23v4.29Zm0-10.91v2.06c-.85-1.43-2.96-2.42-5.16-2.42-4.56,0-8.14,4.02-8.14,9.07s3.59,9.11,8.14,9.11c2.21,0,4.31-.99,5.16-2.42v2.06h5.19V13.13h-5.19Z"></path><path class="cls-2" d="m27.88,24.01c0,1.77-1.43,3.2-3.2,3.2s-3.2-1.43-3.2-3.2,1.43-3.2,3.2-3.2h3.2v3.2Z"></path><path class="cls-2" d="m29.48,24.01c0-1.77,1.43-3.2,3.2-3.2s3.2,1.43,3.2,3.2v8c0,1.77-1.43,3.2-3.2,3.2s-3.2-1.43-3.2-3.2v-8Z"></path><path class="cls-2" d="m32.68,11.17c-1.77,0-3.2-1.43-3.2-3.2s1.43-3.2,3.2-3.2,3.2,1.43,3.2,3.2v3.2h-3.2Z"></path><path class="cls-2" d="m32.68,12.79c1.77,0,3.2,1.43,3.2,3.2s-1.43,3.2-3.2,3.2h-8.02c-1.77,0-3.2-1.43-3.2-3.2s1.43-3.2,3.2-3.2h8.02Z"></path><path class="cls-2" d="m45.5,15.99c0-1.77,1.43-3.2,3.2-3.2s3.2,1.43,3.2,3.2-1.43,3.2-3.2,3.2h-3.2v-3.2Z"></path><path class="cls-2" d="m43.9,15.99c0,1.77-1.43,3.2-3.2,3.2s-3.2-1.43-3.2-3.2V7.97c0-1.77,1.43-3.2,3.2-3.2s3.2,1.43,3.2,3.2v8.02Z"></path><path class="cls-2" d="m40.7,28.81c1.77,0,3.2,1.43,3.2,3.2s-1.43,3.2-3.2,3.2-3.2-1.43-3.2-3.2v-3.2h3.2Z"></path><path class="cls-2" d="m40.7,27.21c-1.77,0-3.2-1.43-3.2-3.2s1.43-3.2,3.2-3.2h8.02c1.77,0,3.2,1.43,3.2,3.2s-1.43,3.2-3.2,3.2h-8.02Z"></path><rect class="cls-1" width="163.23" height="39.98"></rect></g></svg> 