<?xml version="1.0" encoding="UTF-8"?> <svg xmlns="http://www.w3.org/2000/svg" id="Layer_2" viewBox="0 0 163.23 39.98"><defs><style>.cls-1{fill:none;}.cls-1,.cls-2{stroke-width:0px;}</style></defs><g id="Layer_1-2"><path class="cls-2" d="m24.99,12.91v22.07H6.72L24.99,12.91Zm0-7.92c0,5.04-4.08,9.13-9.13,9.13S6.72,10.04,6.72,5h18.27Zm3.01,29.98c0-5.04,4.08-9.13,9.13-9.13s9.13,4.08,9.13,9.13h-18.26Zm0-7.92V5h18.27l-18.27,22.07Zm94.82-2.96c1.33.03,2.63-.47,3.6-1.38l1.77,1.91c-1.16,1.22-2.8,2.1-5.34,2.1-4.35,0-7.14-2.88-7.14-6.78-.08-3.68,2.85-6.7,6.51-6.78h.22c4.32,0,6.75,3.27,6.53,7.83h-10.16c.36,1.91,1.69,3.13,4.01,3.1m3.1-5.23c-.28-1.77-1.33-3.07-3.43-3.07-1.97,0-3.32,1.11-3.68,3.07h7.11Zm-69.95,5.09l7.83-7.97h-7.64v-2.49h11.27v2.55l-7.83,7.97h7.94v2.49h-11.57v-2.55Zm20.37.14c1.33.03,2.63-.47,3.57-1.38l1.77,1.91c-1.16,1.22-2.8,2.1-5.34,2.1-4.35,0-7.14-2.88-7.14-6.78-.08-3.68,2.85-6.7,6.51-6.78h.22c4.32,0,6.75,3.27,6.53,7.83h-10.13c.36,1.91,1.69,3.13,4.01,3.1m3.1-5.23c-.28-1.77-1.33-3.07-3.43-3.07-1.97,0-3.32,1.11-3.68,3.07h7.11Zm19.99,1.11c0-4.15,3.1-6.75,6.53-6.75,1.66-.03,3.24.69,4.35,1.94v-7.67h2.77v18.99h-2.77v-1.8c-1.08,1.3-2.69,2.08-4.37,2.05-3.32,0-6.51-2.63-6.51-6.75m11.02-.03c-.06-2.27-1.97-4.07-4.24-4.01-2.27.06-4.07,1.97-4.01,4.24.06,2.24,1.88,4.01,4.12,4.01,2.38,0,4.12-1.88,4.12-4.24m20.35,3.76l2.52-1.3c.66,1.22,1.97,1.94,3.35,1.91,1.58,0,2.38-.8,2.38-1.72,0-1.05-1.52-1.27-3.16-1.61-2.21-.47-4.51-1.19-4.51-3.88,0-2.05,1.97-3.96,5.04-3.93,2.44,0,4.24.97,5.26,2.52l-2.33,1.27c-.66-.97-1.77-1.52-2.93-1.49-1.49,0-2.24.72-2.24,1.55,0,.94,1.19,1.19,3.07,1.61,2.13.47,4.57,1.16,4.57,3.88,0,1.8-1.58,4.21-5.29,4.18-2.71.03-4.62-1.05-5.73-2.99m18.52-3.02l-2.19,2.41v3.38h-2.77V7.5h2.77v12.43l5.87-6.45h3.38l-5.09,5.56,5.23,7.45h-3.13l-4.07-5.79Zm-58.24-7.5c-3.29,0-6.06,2.13-6.06,5.67v7.61h2.82v-7.25c0-2.13,1.22-3.4,3.32-3.4s3.13,1.27,3.13,3.4v7.25h2.8v-7.61c.03-3.54-2.74-5.67-6.01-5.67"></path><rect class="cls-1" width="163.23" height="39.98"></rect></g></svg> 