<?xml version="1.0" encoding="UTF-8"?> <svg xmlns="http://www.w3.org/2000/svg" id="Layer_2" viewBox="0 0 163.23 39.98"><defs><style>.cls-1{fill:none;}.cls-1,.cls-2{stroke-width:0px;}</style></defs><g id="Layer_1-2"><path class="cls-2" d="m11.2,33.13h6.9l1.72-11.01,1.9-11.79c.07-.48.37-.86.78-1.04.19-.07.37-.15.6-.15h8.73c1.04,0,2.02.07,2.87.22.26.04.48.07.75.15.22.04.48.11.71.19.11.04.22.07.34.11.45.15.86.3,1.19.52.45-2.8,0-4.7-1.53-6.42-1.68-1.9-4.66-2.73-8.55-2.73h-11.2c-.78,0-1.45.56-1.57,1.34"></path><path class="cls-2" d="m120.69,17.94c-.41,2.76-2.54,2.76-4.59,2.76h-1.16l.82-5.19c.04-.3.34-.56.63-.56h.52c1.38,0,2.73,0,3.4.78.41.52.52,1.19.37,2.2m-.9-7.24h-7.73c-.52,0-.97.37-1.04.89l-3.14,19.78c-.07.37.22.75.63.75h3.96c.37,0,.67-.26.75-.63l.89-5.6c.07-.52.52-.89,1.04-.89h2.43c5.07,0,8.02-2.46,8.77-7.35.34-2.13,0-3.81-.97-4.96-1.08-1.3-3.02-1.98-5.6-1.98"></path><path class="cls-2" d="m65.63,17.94c-.41,2.76-2.54,2.76-4.59,2.76h-1.16l.82-5.19c.04-.3.34-.56.63-.56h.52c1.38,0,2.73,0,3.4.78.41.52.52,1.19.37,2.2m-.89-7.24h-7.73c-.52,0-.97.37-1.04.89l-3.14,19.78c-.07.37.22.75.63.75h3.7c.52,0,.97-.37,1.04-.89l.86-5.34c.07-.52.52-.89,1.04-.89h2.43c5.07,0,8.02-2.46,8.77-7.35.34-2.13,0-3.81-.97-4.96-1.05-1.3-2.99-1.98-5.6-1.98"></path><path class="cls-2" d="m82.66,25.01c-.37,2.13-2.02,3.55-4.18,3.55-1.08,0-1.94-.34-2.46-1.01-.56-.63-.75-1.57-.6-2.61.34-2.09,2.05-3.55,4.14-3.55,1.04,0,1.9.34,2.46,1.01.6.67.82,1.6.64,2.61m5.15-7.17h-3.7c-.3,0-.6.22-.63.56l-.15,1.04-.26-.37c-.78-1.16-2.58-1.57-4.37-1.57-4.07,0-7.58,3.1-8.25,7.43-.34,2.16.15,4.22,1.38,5.67,1.12,1.34,2.73,1.87,4.66,1.87,3.29,0,5.11-2.13,5.11-2.13l-.15,1.04c-.07.37.22.75.63.75h3.32c.52,0,.97-.37,1.04-.89l2.02-12.65c.04-.41-.26-.75-.67-.75"></path><path class="cls-2" d="m137.71,25.01c-.37,2.13-2.02,3.55-4.18,3.55-1.08,0-1.94-.34-2.46-1.01-.56-.63-.75-1.57-.6-2.61.34-2.09,2.05-3.55,4.14-3.55,1.04,0,1.9.34,2.46,1.01.56.67.78,1.6.64,2.61m5.15-7.17h-3.7c-.3,0-.6.22-.63.56l-.15,1.04-.26-.37c-.78-1.16-2.58-1.57-4.37-1.57-4.07,0-7.58,3.1-8.25,7.43-.34,2.16.15,4.22,1.38,5.67,1.12,1.34,2.73,1.87,4.66,1.87,3.29,0,5.11-2.13,5.11-2.13l-.15,1.04c-.07.37.22.75.63.75h3.32c.52,0,.97-.37,1.04-.89l2.02-12.65c.04-.41-.26-.75-.67-.75"></path><path class="cls-2" d="m107.49,17.82h-3.73c-.37,0-.67.19-.89.48l-5.07,7.54-2.16-7.24c-.15-.45-.56-.78-1.04-.78h-3.66c-.45,0-.75.45-.6.86l4.11,12.02-3.84,5.41c-.3.41,0,1.01.52,1.01h3.7c.34,0,.67-.19.89-.45l12.35-17.84c.26-.41-.04-1.01-.56-1.01"></path><path class="cls-2" d="m147.21,11.22l-3.17,20.15c-.07.37.22.75.63.75h3.17c.52,0,.97-.37,1.04-.89l3.14-19.78c.07-.37-.22-.75-.63-.75h-3.55c-.3,0-.56.22-.63.52"></path><path class="cls-2" d="m39.46,11.96h0c-.04.22-.07.45-.11.67-1.45,7.58-6.53,10.19-12.95,10.19h-3.29c-.78,0-1.45.56-1.57,1.34l-1.72,10.64-.48,3.02c-.07.52.3.97.82.97h5.82c.67,0,1.27-.48,1.38-1.19l.07-.3,1.09-6.94.07-.37c.11-.67.71-1.19,1.38-1.19h.86c5.63,0,10.04-2.28,11.35-8.92.52-2.76.26-5.07-1.16-6.72-.41-.48-.97-.86-1.57-1.19"></path><path class="cls-2" d="m36.18,9.68c-.22-.07-.45-.11-.71-.19-.22-.04-.48-.11-.75-.15-.89-.15-1.87-.22-2.87-.22h-8.77c-.22,0-.41.04-.6.15-.41.19-.71.56-.78,1.04l-1.87,11.79-.04.34c.11-.78.78-1.34,1.57-1.34h3.29c6.46,0,11.5-2.61,12.95-10.19.04-.22.07-.45.11-.67-.37-.19-.78-.37-1.19-.52-.11.04-.22,0-.34-.03"></path><rect class="cls-1" width="163.23" height="39.98"></rect></g></svg> 