<?xml version="1.0" encoding="UTF-8"?> <svg xmlns="http://www.w3.org/2000/svg" id="Layer_2" viewBox="0 0 163.23 39.98"><defs><style>.cls-1{fill:none;}.cls-1,.cls-2{stroke-width:0px;}</style></defs><g id="Layer_1-2"><path class="cls-2" d="m57.89,14.61c0-.74-.56-1.32-1.35-1.32s-1.35.61-1.35,1.32v10.78c0,.74.56,1.32,1.35,1.32s1.35-.61,1.35-1.32v-10.78Zm13.29-1.32c-.79,0-1.32.61-1.32,1.32v4.6l.08,4.12-1.65-3.84-2.14-4.37c-.66-1.37-1.4-1.8-2.47-1.8-1.58,0-2.26.99-2.26,2.41v9.71c0,.74.53,1.32,1.32,1.32s1.32-.61,1.32-1.32l-.03-4.55-.05-4.65,1.75,4.27,2.16,4.45c.69,1.42,1.4,1.83,2.47,1.83,1.4,0,2.14-.86,2.14-2.47v-9.68c0-.76-.53-1.35-1.32-1.35Zm11.29,2.75l3.05.08c.71.03,1.27-.53,1.27-1.32s-.56-1.32-1.27-1.32l-8.85-.03c-.69,0-1.27.53-1.27,1.32s.58,1.32,1.27,1.32l3.08-.05v9.35c0,.74.56,1.32,1.35,1.32s1.37-.61,1.37-1.32v-9.35Zm9.05,10.52h6.58c.69,0,1.25-.53,1.25-1.25s-.56-1.27-1.25-1.27l-5.72.03v-3.13h4.96c.69,0,1.22-.51,1.22-1.19s-.53-1.22-1.22-1.22l-4.96.03v-2.59h5.72c.69,0,1.25-.53,1.25-1.27s-.56-1.25-1.25-1.25l-6.56.03c-1.19,0-1.88.69-1.88,1.88v9.35c0,1.19.66,1.86,1.86,1.86Zm18.53-5.34c1.78-.46,2.82-1.86,2.82-3.69,0-2.03-1.32-4.09-4.52-4.09h-4.12c-1.19,0-1.88.69-1.88,1.88v10.07c0,.74.56,1.32,1.4,1.32s1.4-.61,1.4-1.32l-.03-3.53h2.26l2.31,4.17c.38.64,1.17.89,1.88.53.74-.38.94-1.17.53-1.8l-2.06-3.53Zm-4.93-5.29h3.25c1.09,0,1.8.69,1.8,1.73s-.66,1.75-1.75,1.75h-3.3v-3.48Zm16.04,10.88c2.75,0,4.5-1.25,5.08-3.23.33-1.14-.36-1.96-1.37-1.96-.61,0-1.04.33-1.27,1.02-.38,1.04-1.3,1.7-2.59,1.7-2.08,0-2.97-1.4-2.97-4.32s.92-4.24,2.97-4.24c1.3,0,2.03.53,2.52,1.8.25.71.69,1.04,1.32,1.04.97,0,1.68-.79,1.4-1.88-.61-2.21-2.34-3.46-5.16-3.46-3.86,0-5.82,2.36-5.82,6.74,0,4.37,1.96,6.79,5.9,6.79Zm13.32-.05c3.97,0,5.95-2.44,5.95-6.79s-2.03-6.81-5.95-6.81-5.9,2.47-5.92,6.81c0,4.37,2.01,6.79,5.92,6.79Zm0-2.49c-2.21,0-3.18-1.4-3.18-4.27s.97-4.3,3.15-4.3,3.23,1.4,3.2,4.3c0,2.87-.97,4.27-3.18,4.27Zm23.36-8.64c0-1.47-.91-2.36-2.34-2.36-1.17,0-2.03.64-2.47,2.11l-1.45,4.7-.97,3.38-.91-3.38-1.53-4.7c-.43-1.37-1.17-2.11-2.49-2.11-1.45,0-2.34.86-2.34,2.36v9.79c0,.74.53,1.32,1.3,1.32s1.3-.61,1.3-1.32l-.03-4.73-.13-5.06,1.47,5.16,1.58,4.58c.33,1.02.97,1.35,1.8,1.35.76,0,1.4-.28,1.7-1.32l1.5-4.6,1.6-5.21-.15,5.08v4.73c0,.74.53,1.32,1.3,1.32s1.3-.61,1.3-1.32l-.05-9.76Z"></path><path class="cls-2" d="m35.67,21.76c0,.31-.13.61-.33.84-.23.23-.51.36-.81.36s-.61-.13-.81-.36c-.23-.23-.33-.51-.33-.84v-10.52c0-.31.13-.61.33-.84.23-.23.51-.36.81-.36s.61.13.81.36c.23.23.33.51.33.84v10.52Zm-.41,7.29c-.15.15-4.47,3.81-12.43,3.81s-12.25-3.63-12.43-3.79c-.13-.1-.2-.23-.28-.36s-.1-.28-.13-.43c0-.15,0-.31.05-.46.05-.15.13-.28.23-.41.2-.23.48-.38.79-.41.31-.03.61.08.84.28.08.05,3.94,3.23,10.9,3.23s10.88-3.2,10.9-3.23c.23-.2.53-.31.84-.28s.58.18.79.41.31.53.28.84c.03.31-.13.58-.36.79h0ZM10,11.26c.03-.31.15-.61.38-.81.23-.2.53-.33.84-.31.28.03.56.15.76.36s.33.48.33.76v10.5c0,.31-.13.61-.33.84-.23.23-.51.36-.81.36s-.61-.13-.81-.36c-.23-.23-.33-.51-.33-.84v-10.5h-.03Zm5.85-2.34c.03-.31.15-.61.38-.81.23-.2.53-.33.84-.31.28.03.56.15.76.36s.33.48.33.76v15.56c0,.31-.13.61-.33.84-.23.23-.51.36-.81.36s-.61-.13-.81-.36c-.23-.23-.33-.51-.33-.84v-15.56h-.03Zm5.87-.58c0-.31.13-.61.33-.84.23-.23.51-.36.81-.36s.61.13.81.36c.23.23.33.51.33.84v16.93c0,.31-.13.61-.33.84-.23.23-.51.36-.81.36s-.61-.13-.81-.36c-.23-.23-.33-.51-.33-.84V8.34Zm5.77.58c0-.31.13-.61.33-.84.23-.23.51-.36.81-.36s.61.13.81.36c.23.23.33.51.33.84v15.56c0,.31-.13.61-.33.84-.23.23-.51.36-.81.36s-.61-.13-.81-.36c-.23-.23-.33-.51-.33-.84v-15.56Zm8.49-6.43H9.72c-.58,0-1.14.1-1.68.33s-1.02.53-1.42.94-.74.89-.94,1.42c-.23.53-.33,1.09-.33,1.68v26.26c0,.58.13,1.14.33,1.68.23.53.53,1.02.94,1.42s.89.74,1.42.94c.53.23,1.09.33,1.68.33h26.26c.56,0,1.14-.1,1.68-.33s1.02-.53,1.42-.94.74-.89.94-1.42c.23-.53.33-1.09.33-1.68V6.86c0-.58-.13-1.14-.33-1.68-.23-.53-.53-1.02-.94-1.42-.41-.41-.89-.74-1.42-.94-.53-.23-1.09-.33-1.68-.33"></path><rect class="cls-1" width="163.23" height="39.98"></rect></g></svg> 