<?xml version="1.0" encoding="UTF-8"?> <svg xmlns="http://www.w3.org/2000/svg" id="Layer_2" viewBox="0 0 163.23 39.98"><defs><style>.cls-1{fill:none;}.cls-1,.cls-2,.cls-3{stroke-width:0px;}.cls-3{fill:#fff;}</style></defs><g id="Layer_1-2"><path class="cls-2" d="m51.47,8.23c-.03-.17-.17-.3-.34-.32-.14-.02-3.12-.23-3.12-.23l-2.27-2.27c-.2-.23-.66-.16-.83-.11-.02,0-.45.14-1.16.36-.69-1.98-1.9-3.8-4.04-3.8h-.18c-.61-.79-1.36-1.16-2-1.16-4.98.02-7.35,6.23-8.1,9.4l-3.48,1.07c-1.07.34-1.11.36-1.25,1.38l-2.93,22.61,21.98,4.11,11.91-2.57s-4.18-28.26-4.2-28.48h0Zm-8.93-2.18c-.55.18-1.19.36-1.86.57v-.41c.02-1.02-.13-2.04-.45-3.01,1.11.17,1.86,1.42,2.32,2.85Zm-3.66-2.59c.36,1.07.54,2.2.5,3.33v.2l-3.84,1.19c.75-2.81,2.14-4.2,3.34-4.72h0Zm-1.48-1.38c.23,0,.45.08.64.2-1.6.75-3.3,2.63-4.02,6.4l-3.04.93c.86-2.86,2.86-7.55,6.43-7.55h0Z"></path><path class="cls-2" d="m51.13,7.91c-.14-.02-3.12-.23-3.12-.23l-2.27-2.27c-.08-.09-.2-.13-.32-.14l-1.66,34,11.91-2.57-4.21-28.46c-.03-.17-.16-.31-.34-.34h0Z"></path><path class="cls-3" d="m39.72,14.5l-1.48,4.36c-.89-.43-1.87-.67-2.86-.68-2.32,0-2.43,1.45-2.43,1.82,0,1.99,5.2,2.75,5.2,7.43,0,3.68-2.34,6.05-5.48,6.05-3.77,0-5.7-2.34-5.7-2.34l1-3.34s1.98,1.7,3.66,1.7c.82.03,1.51-.61,1.54-1.43,0-.02,0-.05,0-.07,0-2.62-4.27-2.73-4.27-7,0-3.59,2.59-7.09,7.8-7.09,2.05.03,3.02.6,3.02.6h0Z"></path><path class="cls-2" d="m69.09,20.89c-.93-.5-1.41-.93-1.41-1.52,0-.75.65-1.23,1.71-1.23.79.02,1.56.19,2.29.5l.86-2.6s-.79-.61-3.09-.61c-3.21,0-5.44,1.84-5.44,4.43,0,1.46,1.04,2.59,2.43,3.39,1.12.65,1.52,1.09,1.52,1.77s-.55,1.25-1.61,1.25c-1.55,0-3.02-.8-3.02-.8l-.91,2.6s1.36.91,3.62.91c3.3,0,5.67-1.62,5.67-4.56.02-1.59-1.18-2.69-2.61-3.53h-.01Zm13.17-5.48c-1.62,0-2.91.77-3.89,1.95l-.05-.02,1.41-7.38h-3.67l-3.57,18.79h3.68l1.23-6.43c.48-2.43,1.74-3.93,2.91-3.93.82,0,1.14.55,1.14,1.36,0,.55-.05,1.09-.16,1.62l-1.39,7.35h3.68l1.45-7.6c.16-.79.25-1.59.27-2.39-.02-2.07-1.11-3.32-3.02-3.32v-.03Zm11.31,0c-4.43,0-7.35,4-7.35,8.43,0,2.86,1.77,5.14,5.07,5.14,4.34,0,7.28-3.89,7.28-8.43,0-2.64-1.55-5.14-4.99-5.14h0Zm-1.8,10.76c-1.25,0-1.78-1.07-1.78-2.39,0-2.11,1.09-5.55,3.09-5.55,1.3,0,1.74,1.12,1.74,2.21,0,2.26-1.09,5.72-3.04,5.72h0Zm16.21-10.76c-2.49,0-3.89,2.17-3.89,2.17h-.05l.22-1.95h-3.26l-.75,4.87-2.55,13.46h3.66l1.02-5.44h.07s.75.48,2.16.48c4.32,0,7.14-4.43,7.14-8.9.02-2.46-1.09-4.68-3.77-4.68h0Zm-3.52,10.82c-.55.01-1.09-.18-1.52-.54l.61-3.45c.43-2.29,1.62-3.82,2.91-3.82,1.12,0,1.46,1.04,1.46,2.02,0,2.39-1.4,5.79-3.45,5.79h0Zm12.55-16.1c-.56,0-1.1.22-1.5.62s-.61.94-.59,1.51c0,1.09.7,1.84,1.74,1.84h.05c1.15.05,2.11-.85,2.16-1.99,0-.04,0-.09,0-.13,0-1.07-.71-1.84-1.84-1.84h-.02Zm-5.14,18.6h3.68l2.5-13.02h-3.69m13.06-.02h-2.57l.13-.61c.22-1.25.96-2.37,2.17-2.37.4,0,.8.06,1.18.18l.71-2.88s-.65-.32-2-.32c-1.31-.03-2.59.4-3.61,1.23-1.25,1.07-1.84,2.6-2.14,4.16l-.12.61h-1.71l-.54,2.77h1.71l-1.95,10.28h3.69l1.95-10.28h2.54l.5-2.77h.06Zm8.85.02l-3.34,8.96h-.05l-.91-8.96h-3.88l2.21,11.96c.05.2.03.42-.07.61-.48.89-1.17,1.65-2,2.21-.64.44-1.34.79-2.07,1.04l1.02,3.12c1.35-.36,2.58-1.05,3.6-2.01,1.68-1.57,3.23-4,4.82-7.3l4.5-9.64h-3.83,0Z"></path><rect class="cls-1" width="163.23" height="39.98"></rect></g></svg> 