<?xml version="1.0" encoding="UTF-8"?> <svg xmlns="http://www.w3.org/2000/svg" id="Layer_2" viewBox="0 0 163.23 39.98"><defs><style>.cls-1{fill:none;}.cls-1,.cls-2{stroke-width:0px;}.cls-2{fill-rule:evenodd;}</style></defs><g id="Layer_1-2"><path class="cls-2" d="m124.18,20.58c0-6.05-2.93-10.83-8.54-10.83s-9.03,4.78-9.03,10.78c0,7.12,4.02,10.71,9.79,10.71,2.81,0,4.94-.64,6.55-1.54v-4.73c-1.61.8-3.45,1.3-5.79,1.3s-4.33-.8-4.59-3.59h11.56c0-.31.05-1.54.05-2.1h0Zm-11.67-2.25c0-2.67,1.63-3.78,3.12-3.78s2.98,1.11,2.98,3.78h-6.1Zm-15.02-8.58c-2.32,0-3.81,1.09-4.64,1.84l-.31-1.47h-5.21v27.57l5.91-1.25.02-6.69c.85.62,2.1,1.49,4.19,1.49,4.23,0,8.09-3.39,8.09-10.9-.02-6.86-3.93-10.6-8.06-10.6h.01Zm-1.42,16.29c-1.39,0-2.22-.5-2.79-1.11l-.02-8.77c.62-.69,1.47-1.16,2.81-1.16,2.15,0,3.64,2.41,3.64,5.51s-1.47,5.53-3.64,5.53Zm-16.87-17.69l5.94-1.28V2.28l-5.94,1.25v4.82Zm0,1.8h5.94v20.69h-5.94V10.15Zm-6.36,1.75l-.38-1.75h-5.11v20.69h5.91v-14.02c1.39-1.82,3.76-1.49,4.49-1.23v-5.44c-.76-.28-3.52-.8-4.92,1.75h0Zm-11.82-6.89l-5.77,1.23-.02,18.94c0,3.5,2.63,6.08,6.12,6.08,1.94,0,3.36-.35,4.14-.78v-4.8c-.76.31-4.49,1.39-4.49-2.1v-8.38h4.49v-5.04h-4.5l.03-5.14Zm-15.99,11.14c0-.92.76-1.28,2.01-1.28,2.05.04,4.05.56,5.86,1.51v-5.55c-1.96-.78-3.9-1.09-5.86-1.09-4.8,0-7.99,2.51-7.99,6.69,0,6.53,8.99,5.49,8.99,8.3,0,1.09-.95,1.44-2.27,1.44-1.96,0-4.47-.8-6.46-1.89v5.63c2.2.95,4.42,1.34,6.46,1.34,4.92,0,8.3-2.44,8.3-6.67-.02-7.05-9.03-5.79-9.03-8.44h0Z"></path><rect class="cls-1" width="163.23" height="39.98"></rect></g></svg> 