<?xml version="1.0" encoding="UTF-8"?> <svg xmlns="http://www.w3.org/2000/svg" id="Layer_2" viewBox="0 0 163.23 39.98"><defs><style>.cls-1{fill:none;}.cls-1,.cls-2{stroke-width:0px;}.cls-2{fill-rule:evenodd;}</style></defs><g id="Layer_1-2"><path class="cls-2" d="m81.84,8.77v2.97h-7.51v19.72h-3.11V11.73h-6.37v-2.97h17Zm1.52,5.42h2.9v3.04c1-2.04,2.75-3.49,6.12-3.28v2.9c-3.8-.39-6.12.76-6.12,4.42v10.21h-2.9V14.19Zm19.48,17.62c-6.46,0-9.29-3.73-9.29-9.03s2.9-8.95,8.15-8.95,7.46,3.7,7.46,8.95v1.35h-12.6c.42,2.94,2.32,4.84,6.39,4.84,1.79,0,3.57-.32,5.25-.93v2.75c-1.41.76-3.6,1.03-5.36,1.03h0Zm-6.32-10.21h9.64c-.17-3.21-1.62-5.04-4.59-5.04-3.14-.02-4.73,2.02-5.04,5.02v.02Zm20.79,9.96c-2.83,0-4.63-1.35-4.63-4.53V6.97h2.97v19.72c0,1.57,1.04,2.11,2.32,2.11.29,0,.58,0,.86-.04v2.66c-.5.11-1.01.15-1.52.14h0Zm9.01,0c-2.83,0-4.63-1.35-4.63-4.53V6.97h2.97v19.72c0,1.57,1.04,2.11,2.32,2.11.29,0,.58,0,.86-.04v2.66c-.5.11-1.01.15-1.52.14h0Zm3.18-8.77c0-5.18,3.04-8.95,8.22-8.95s8.15,3.77,8.15,8.95-3.01,9.03-8.15,9.03-8.22-3.85-8.22-9.03Zm2.9,0c0,3.28,1.62,6.25,5.32,6.25s5.25-2.97,5.25-6.25-1.57-6.18-5.25-6.18-5.31,2.9-5.31,6.18h0Z"></path><path class="cls-2" d="m49.07,1.86h-27.18c-2.5,0-4.53,2.03-4.53,4.53,0,0,0,0,0,0v27.18c0,2.5,2.03,4.53,4.53,4.53h27.18c2.49-.01,4.51-2.04,4.51-4.53V6.41c0-2.49-2.01-4.52-4.51-4.53h0Zm-15.95,27.46c-.01,1.19-.98,2.15-2.17,2.15h-6.69c-1.2,0-2.17-.95-2.18-2.15V8.76c0-1.2.97-2.18,2.17-2.18,0,0,.01,0,.02,0h6.69c1.2,0,2.17.97,2.17,2.17h0v20.57Zm15.77-9.06c0,1.2-.97,2.17-2.17,2.17h-6.71c-1.2,0-2.17-.97-2.17-2.17v-11.5c0-1.2.97-2.18,2.17-2.18,0,0,0,0,0,0h6.71c1.2,0,2.17.97,2.17,2.17v11.5Z"></path><rect class="cls-1" width="163.23" height="39.98"></rect></g></svg> 