<?xml version="1.0" encoding="UTF-8"?> <svg xmlns="http://www.w3.org/2000/svg" id="Layer_2" viewBox="0 0 163.23 39.98"><defs><style>.cls-1{fill:none;}.cls-1,.cls-2{stroke-width:0px;}</style></defs><g id="Layer_1-2"><path class="cls-2" d="m5.28,28.43c-1.19,0-2.31-.64-2.89-1.67-.58-1.04-.56-2.31.08-3.29l5.95-9.34c.61-1.04,1.75-1.62,2.95-1.59,1.19.03,2.28.69,2.84,1.75.56,1.06.48,2.31-.19,3.29l-5.92,9.34c-.61.96-1.67,1.51-2.81,1.51Z"></path><path class="cls-2" d="m15.5,28.43c-1.19,0-2.31-.64-2.89-1.67-.58-1.04-.56-2.28.08-3.29l5.95-9.32c.61-1.04,1.73-1.67,2.95-1.62,1.22.03,2.31.69,2.87,1.75.56,1.06.48,2.34-.21,3.32l-5.95,9.32c-.61.96-1.67,1.51-2.79,1.51Z"></path><ellipse class="cls-2" cx="25.46" cy="25.51" rx="3.05" ry="3"></ellipse><path class="cls-2" d="m158.53,22.7c.93,0,1.49.66,1.49,1.73v3.69h1.25v-3.77c0-1.83-.88-2.89-2.5-2.89-.64,0-1.65.19-2.26,1.35-.29-.69-.93-1.19-1.67-1.27-.24-.05-.48-.05-.72-.05-.5.05-1.43.37-1.78,1.09v-.98h-1.25v6.53h1.25v-3.53c0-1.38.9-1.91,1.81-1.91.85,0,1.41.64,1.41,1.73v3.72h1.25v-3.53c0-1.09.64-1.91,1.73-1.88Zm-12.05,4.33c.58,0,1.14-.21,1.54-.64s.61-.98.58-1.57c0-1.33-.96-2.15-2.12-2.15s-2.12.82-2.12,2.15c-.03.58.19,1.14.58,1.57s.96.64,1.54.64h0Zm0,1.22c-1.83,0-3.37-1.35-3.37-3.42s1.54-3.4,3.37-3.4,3.37,1.33,3.37,3.4c.03,2.07-1.54,3.42-3.37,3.42h0Zm-9.85-3.42h0c0-2.07,1.57-3.37,3.42-3.4.93-.03,1.83.37,2.5,1.06l-.96.82c-.4-.4-.96-.61-1.54-.61-1.17,0-2.18.82-2.18,2.15,0,.88.53,1.7,1.33,2.02.82.35,1.75.16,2.36-.48l.96.82c-.64.69-1.57,1.09-2.5,1.06-1.81-.03-3.4-1.38-3.4-3.45Zm-4.01,2.04c0-.48.37-.88.85-.88h0c.48,0,.88.4.85.88h0c-.03.45-.4.82-.85.82s-.82-.37-.85-.82Zm3.42-13.59h-4.49l-3.13,8.1-3.13-8.1h-4.49l5.44,12.77-3.37,8.44h4.43s8.73-21.21,8.73-21.21Zm-27.21,7.11c0,2.04,1.78,3.4,3.53,3.4s3.42-1.25,3.42-3.4-1.7-3.4-3.42-3.4-3.53,1.35-3.53,3.4h0Zm6.95,7.14v-1.62c-.9,1.38-3.03,1.88-4.11,1.88-3.61,0-7.19-2.84-7.19-7.41s3.61-7.41,7.19-7.41c.9,0,3.03.29,4.11,1.88v-1.59h4.17v14.26h-4.17Zm-12.5,0h-4.17v-1.78c-.69,1.3-2.39,2.07-4.14,2.07-3.64,0-6.82-2.89-6.82-7.38s3.21-7.49,6.82-7.49c1.75,0,3.45.74,4.14,2.04V5.49h4.17v22.03Zm-4.25-7.17c0-2.12-1.54-3.4-3.27-3.4s-3.27,1.35-3.27,3.4,1.49,3.45,3.27,3.45,3.27-1.41,3.27-3.45Zm-21.21-.37c0-2.18,1.11-2.89,2.6-2.89s2.44.96,2.44,2.84v7.59h4.19v-8.52c0-4.06-1.99-6.05-5.18-6.05-1.67,0-3.32.96-4.09,2.39v-2.07h-4.19v14.26h4.19s.03-7.54.03-7.54Zm-12.74,7.78c-3.98,0-7.33-2.92-7.33-7.41s3.32-7.38,7.33-7.38,7.35,2.89,7.35,7.38-3.34,7.41-7.35,7.41h0Zm0-4.14c1.75,0,3.21-1.27,3.21-3.27s-1.46-3.24-3.21-3.24c-.85-.03-1.67.32-2.28.93s-.93,1.43-.9,2.31c.03,1.99,1.46,3.27,3.19,3.27Zm-14.84-6.53c1.25,0,2.34.98,2.34,2.84v7.59h4.17v-8.1c0-4.3-2.1-6.48-5.44-6.48-1.01,0-2.87.29-4.22,2.52-.8-1.65-2.31-2.5-4.54-2.5-1.59,0-3.03.9-3.69,2.36v-2.07h-4.19v14.26h4.17v-7.54c0-2.18,1.17-2.89,2.44-2.89s2.31.96,2.34,2.73v7.7h4.19v-7.54c.03-2.07,1.11-2.89,2.44-2.89h0Z"></path><rect class="cls-1" width="163.23" height="39.98"></rect></g></svg> 