<svg width="101" height="20" viewBox="0 0 101 20" fill="none" xmlns="http://www.w3.org/2000/svg">
<g clip-path="url(#clip0_1052_16)">
<path fill-rule="evenodd" clip-rule="evenodd" d="M12.9238 6.94824H10.1509L7.30054 13.336H2.90991L7.54581 3.5188C8.19634 2.16723 9.47167 1.54924 10.6123 1.54924C11.7529 1.54924 13.0282 2.16723 13.6788 3.5188L18.3147 13.336H13.924L12.9238 6.94824ZM11.6025 8.97808L10.6123 6.67849L9.6221 8.97808H11.6025Z" fill="black"/>
<path d="M22.9535 13.336V1.81934H20.3027V13.336H22.9535Z" fill="black"/>
<path d="M22.9535 1.81934V13.336H25.6044V1.81934H22.9535Z" fill="black"/>
<path d="M25.6044 1.81934V13.336H28.2552V1.81934H25.6044Z" fill="black"/>
<path d="M30.6865 1.81934H33.3374V13.336H30.6865V1.81934Z" fill="black"/>
<path fill-rule="evenodd" clip-rule="evenodd" d="M41.764 1.81934C44.7571 1.81934 46.993 4.10304 46.993 7.57767C46.993 11.0523 44.7571 13.336 41.764 13.336H38.5674V1.81934H41.764ZM41.764 11.1362C43.5199 11.1362 44.3422 9.78465 44.3422 7.57767C44.3422 5.3707 43.5199 3.98716 41.764 3.98716H41.2182V11.1362H41.764Z" fill="black"/>
<path d="M51.6215 13.336V1.81934H48.9707V13.336H51.6215Z" fill="black"/>
<path d="M57.6976 1.81934H60.3485V13.336H57.6976V1.81934Z" aname="e" a=""" fill="black"/>
<path d="M62.6888 1.81934H65.3397V13.336H62.6888V1.81934Z" aname="n" a=""" fill="black"/>
<path fill-rule="evenodd" clip-rule="evenodd" d="M72.9372 1.81934C75.3999 1.81934 77.2601 3.53503 77.2601 6.56013V8.59H68.6143V6.56013C68.6143 3.53503 70.4745 1.81934 72.9372 1.81934ZM68.6143 10.79V13.336H77.2601V10.79H68.6143Z" fill="black"/>
<path d="M81.8906 1.81934H84.5414V13.336H81.8906V1.81934Z" fill="black"/>
<path d="M87.6185 1.81934H90.2693V13.336H87.6185V1.81934Z" fill="black"/>
<path d="M92.6104 1.81934H95.2612V13.336H92.6104V1.81934Z" fill="black"/>
<path d="M97.9043 1.81934H100.555V13.336H97.9043V1.81934Z" fill="black"/>
<path fill-rule="evenodd" clip-rule="evenodd" d="M0.385498 17.6599C0.385498 16.5913 1.22949 15.7473 2.29807 15.7473C3.36664 15.7473 4.21064 16.5913 4.21064 17.6599C4.21064 18.7285 3.36664 19.5725 2.29807 19.5725C1.22949 19.5725 0.385498 18.7285 0.385498 17.6599ZM2.29807 17.0784C1.98738 17.0784 1.73971 17.3261 1.73971 17.6368C1.73971 17.9475 1.98738 18.1952 2.29807 18.1952C2.60875 18.1952 2.85642 17.9475 2.85642 17.6368C2.85642 17.3261 2.60875 17.0784 2.29807 17.0784Z" fill="black"/>
</g>
<defs>
<clipPath id="clip0_1052_16">
<rect width="100.941" height="18.0232" fill="white" transform="translate(0 1.54924)"/>
</clipPath>
</defs>
</svg>
