<?xml version="1.0" encoding="UTF-8"?> <svg xmlns="http://www.w3.org/2000/svg" xmlns:xlink="http://www.w3.org/1999/xlink" width="118px" height="21px" viewBox="0 0 118 21" version="1.1"><title>Group 3 2</title><defs><polygon id="path-1" points="0 0 117.179298 0 117.179298 20.0769 0 20.0769"></polygon></defs><g id="Design" stroke="none" stroke-width="1" fill="none" fill-rule="evenodd"><g id="Group-3" transform="translate(0.5471, 0.5495)"><mask id="mask-2" fill="white"><use xlink:href="#path-1"></use></mask><g id="Clip-2"></g><path d="M77.674,6.0489 L77.674,19.8169 L82.016,19.8169 L82.016,6.0489 C80.7,6.9209 78.99,6.9209 77.674,6.0489 Z M73.443,16.3849 C72.497,16.3849 71.847,15.6419 71.847,14.5479 L71.847,9.5559 L75.744,9.5559 L75.744,6.0299 L71.847,6.0299 L71.81,1.9849 L67.505,1.9849 L67.543,15.4569 C67.543,18.1839 69.361,20.0399 72.033,20.0399 C73.443,20.0399 74.779,19.8359 75.837,19.3529 L75.837,15.9209 C75.089,16.2689 74.267,16.4289 73.443,16.3849 Z M60.306,5.7889 C58.536,5.7609 56.881,6.6619 55.945,8.1639 L55.797,6.0489 L51.64,6.0489 L51.64,19.8169 L55.945,19.8169 L55.945,12.5989 C56.038,10.8729 57.43,9.5559 58.951,9.5559 C60.658,9.5559 61.438,10.8359 61.438,12.4509 L61.438,19.7989 L65.724,19.7989 L65.724,11.7829 C65.724,8.2939 63.599,5.7889 60.306,5.7889 Z M79.845,-0.0001 C78.323,-0.0001 77.173,1.0199 77.173,2.4489 C77.173,3.8779 78.323,4.9359 79.845,4.9359 C81.367,4.9359 82.517,3.8969 82.517,2.4489 C82.517,1.0019 81.385,-0.0001 79.845,-0.0001 Z M108.05,11.7079 L102.223,11.7079 C102.353,9.8529 103.689,8.9989 105.155,8.9989 C106.806,8.9989 108.05,9.9269 108.05,11.5229 L108.05,11.7079 Z M105.044,5.8079 C101.036,5.8079 97.955,8.9249 97.955,13.0629 C97.955,17.1639 101.036,20.0209 105.285,20.0209 C107.679,20.0209 109.924,19.1679 111.297,17.4049 L107.994,15.9019 C107.326,16.5139 106.305,16.7559 105.396,16.7559 C103.912,16.7559 102.427,15.9949 102.223,14.4359 L112.076,14.4359 C112.224,13.8789 112.299,13.3049 112.299,12.7289 C112.299,8.4799 109.2,5.8079 105.044,5.8079 Z M93.892,6.0489 L90.886,14.7699 L87.843,6.0489 L83.166,6.0489 L88.77,19.8169 L92.964,19.8169 L98.568,6.0489 L93.892,6.0489 Z M114.99,8.1089 C113.932,8.1269 113.208,7.4219 113.208,6.3459 C113.208,5.2699 113.895,4.5459 114.952,4.5269 C116.01,4.5089 116.715,5.2139 116.734,6.3089 C116.734,7.3659 116.029,8.0899 114.999,8.1089 L114.99,8.1089 Z M114.934,4.1559 C113.579,4.1749 112.707,5.0469 112.726,6.3459 C112.744,7.6449 113.635,8.4979 114.99,8.4799 C116.307,8.4609 117.198,7.5889 117.179,6.2719 C117.161,4.9539 116.27,4.1379 114.934,4.1559 Z M7.57,16.3099 C5.696,16.3099 4.342,14.9189 4.342,12.9519 C4.342,10.9849 5.678,9.5929 7.57,9.5929 C9.315,9.5929 10.762,11.1149 10.762,12.9519 C10.762,14.7889 9.315,16.3099 7.57,16.3099 Z M7.57,5.8079 C3.878,5.8079 0,8.2389 0,13.1369 C0,17.2199 2.746,20.0769 6.216,20.0769 C8.201,20.0769 9.704,19.2789 10.688,17.8689 L10.818,19.8359 L14.983,19.8359 L14.983,13.3039 C14.983,8.3309 11.319,5.8079 7.57,5.8079 L7.57,5.8079 Z M22.693,16.3849 C21.747,16.3849 21.098,15.6419 21.098,14.5479 L21.098,9.5559 L24.994,9.5559 L24.994,6.0299 L21.107,6.0299 L21.07,1.9849 L16.765,1.9849 L16.802,15.4569 C16.802,18.1839 18.62,20.0399 21.292,20.0399 C22.703,20.0399 24.039,19.8359 25.096,19.3529 L25.096,15.9209 C24.346,16.2709 23.52,16.4299 22.693,16.3849 L22.693,16.3849 Z M40.173,11.7079 C40.303,9.8529 41.639,8.9989 43.105,8.9989 C44.756,8.9989 45.999,9.9269 45.999,11.5229 L45.999,11.7079 L40.173,11.7079 Z M42.993,5.8079 C38.985,5.8079 35.905,8.9249 35.905,13.0629 C35.905,17.1639 38.985,20.0209 43.235,20.0209 C45.628,20.0209 47.874,19.1679 49.247,17.4049 L45.944,15.9019 C45.276,16.5139 44.255,16.7559 43.346,16.7559 C41.861,16.7559 40.377,15.9949 40.173,14.4359 L50.026,14.4359 C50.174,13.8789 50.249,13.3049 50.249,12.7289 C50.249,8.4799 47.15,5.8079 43.003,5.8079 L42.993,5.8079 Z M32.713,16.3849 C31.767,16.3849 31.118,15.6419 31.118,14.5479 L31.118,9.5559 L35.014,9.5559 L35.014,6.0299 L31.127,6.0299 L31.09,1.9849 L26.785,1.9849 L26.822,15.4569 C26.822,18.1839 28.641,20.0399 31.313,20.0399 C32.723,20.0399 34.059,19.8359 35.116,19.3529 L35.116,15.9209 C34.365,16.2689 33.54,16.4279 32.713,16.3849 Z M115.027,6.2159 L114.674,6.2159 L114.674,5.6409 L115.082,5.6409 C115.235,5.6239 115.374,5.7299 115.398,5.8819 L115.398,5.9009 C115.392,6.0819 115.241,6.2239 115.059,6.2189 C115.048,6.2179 115.038,6.2169 115.027,6.2159 L115.027,6.2159 Z M115.973,5.9189 C115.973,5.4739 115.658,5.1769 115.138,5.1769 L114.117,5.1949 L114.136,7.4589 L114.693,7.4589 L114.693,6.6799 L115.027,6.6799 L115.509,7.4589 L116.159,7.4589 L115.583,6.5869 C115.826,6.4529 115.975,6.1959 115.973,5.9189 L115.973,5.9189 Z" id="Fill-1" fill="#000000" mask="url(#mask-2)"></path></g></g></svg> 