<svg width="100" height="24" viewBox="0 0 100 24" fill="none" xmlns="http://wwwfoundry.wichita.edu/ux/svg">
<g clip-path="url(#clip0_1052_21)">
<path d="M43.0848 10.3667L45.4548 4H40.2348L34.8048 17.9H39.4648L40.7848 14.53H47.4648L48.8148 17.9H53.4748L48.1348 4H43.0848V10.3667ZM41.8848 12.37H46.3648L44.1248 6.54L41.8848 12.37Z" fill="#010101"/>
<path d="M60.4042 18.2C64.4442 18.2 66.8842 15.68 66.8842 11C66.8842 6.32 64.4442 3.8 60.4042 3.8C56.3642 3.8 53.9242 6.32 53.9242 11C53.9242 15.68 56.3642 18.2 60.4042 18.2ZM60.4042 15.93C58.3042 15.93 57.0642 14.28 57.0642 11C57.0642 7.72 58.3042 6.07 60.4042 6.07C62.5042 6.07 63.7442 7.72 63.7442 11C63.7442 14.28 62.5042 15.93 60.4042 15.93Z" fill="#010101"/>
<path d="M74.1953 4V17.9H70.8353V9.75L68.0653 17.9H65.8453V4H69.2053V12.15L72.0053 4H74.1953Z" fill="#010101"/>
<path d="M85.495 18.2C89.535 18.2 91.975 15.68 91.975 11C91.975 6.32 89.535 3.8 85.495 3.8H78.715V17.9H82.165V15.9H85.255C85.345 15.9 85.405 15.9 85.495 15.9C87.595 15.9 88.835 14.25 88.835 11C88.835 7.75 87.595 6.1 85.495 6.1H82.165V8.37H85.495C86.445 8.37 86.955 9.07 86.955 9.94C86.955 10.84 86.415 11.45 85.495 11.45H82.165V13.6H85.495C86.415 13.6 86.955 14.22 86.955 15.01C86.955 15.94 86.415 16.51 85.495 16.51H82.165V17.9H78.715V4H85.495L91.975 11C91.975 11 91.975 11 91.975 11C91.975 11 91.975 11 91.975 11L85.495 18.2H78.715V17.9H82.165V15.9H85.255C85.345 15.9 85.405 15.9 85.495 15.9C87.595 15.9 88.835 14.25 88.835 11C88.835 7.75 87.595 6.1 85.495 6.1H82.165V8.37H85.495C86.445 8.37 86.955 9.07 86.955 9.94C86.955 10.84 86.415 11.45 85.495 11.45H82.165V13.6H85.495C86.415 13.6 86.955 14.22 86.955 15.01C86.955 15.94 86.415 16.51 85.495 16.51H82.165V17.9H78.715V4H85.495L91.975 11C91.975 11 91.975 11 91.975 11C91.975 11 91.975 11 91.975 11L85.495 18.2Z" fill="#010101"/>
<path d="M99.1643 4.3H95.7743V17.9H99.1643V4.3Z" fill="#010101"/>
<path d="M23.167 19.349L25.967 11.169L23.167 2.98898L24.817 2.14898L27.617 10.329L26.117 10.629L25.067 7.74898L24.137 10.209L25.637 10.509L23.657 16.209L24.947 16.599L26.717 11.049L27.617 13.329L26.117 13.629L25.067 10.749L23.387 15.159L22.217 12.009L20.717 12.309L22.517 17.379L21.227 17.769L19.517 12.909L18.617 15.159L20.117 15.459L21.167 12.609L22.187 15.219L20.687 15.519L18.677 9.81898L20.027 9.51898L21.227 12.579L22.217 9.81898L23.657 10.119L21.707 15.669L22.997 16.059L24.137 13.119L25.637 13.419L22.667 21.099L23.167 19.349Z" fill="#010101"/>
<path d="M16.9084 19.1436L15.0184 14.1936L16.2484 13.7736L17.5684 17.1636L18.4984 14.7036L17.2684 14.2836L19.2484 8.58359L20.5384 8.97359L18.6484 13.9236L19.8784 14.3436L18.5584 17.7336L17.6284 15.2736L19.1284 14.8536L17.8084 11.4636L18.8284 11.1036L20.7184 16.0536L19.4284 16.4436L17.5984 11.6436L16.5784 11.9736L18.4384 16.6536L19.6684 16.2336L21.0184 12.7836L21.9484 15.2436L20.7184 15.6636L22.5184 20.7336L21.2284 21.1236L19.3384 16.1736L18.1084 16.5936L19.4284 20.0136L20.3584 17.5536L21.5884 17.9736L19.6084 23.6736L18.3184 23.2836L20.2084 18.3336L18.9784 17.9136L20.2984 14.5236L21.3184 14.1936L19.4584 18.8736L18.2284 19.2936L16.9084 19.1436Z" fill="#010101"/>
<path d="M16.8913 2.9936L18.1213 6.3836L16.8913 6.5336L15.0013 1.5836L16.2913 1.1936L18.1813 6.1436L19.4113 5.7236L18.0913 2.3336L19.1113 1.9736L20.9713 6.6536L19.7413 7.0736L18.4213 3.6836L17.3713 6.8336L16.1413 6.4136L17.4613 3.0236L16.5313 0.563599L17.7613 0.143599L19.6513 5.0936L20.8813 4.6736L22.2313 1.2236L23.1613 3.6836L21.9313 4.1036L23.7313 9.1736L22.4413 9.5636L20.5513 4.6136L19.3213 5.0336L20.6413 8.4236L21.6613 8.0936L19.8013 3.4136L20.9713 3.0036L22.2913 6.3936L23.2213 3.9336L24.4513 4.3536L22.5613 9.3036L21.2713 9.6936L23.1613 4.7436L24.3913 5.1636L23.0413 8.6136L23.9713 8.8836L25.8613 3.9336L24.6313 3.5136L23.3113 6.9036L22.3813 4.4436L20.8813 4.7436L23.3113 10.7436L23.8913 10.5936L21.4613 4.5936L22.3813 2.1336L21.1513 1.7136L19.2613 6.6636L18.0313 6.2436L19.3513 2.8536L18.4213 0.393599L16.8913 2.9936Z" fill="#010101"/>
<path d="M10.8711 1.75836L8.68109 8.16836L10.0011 8.49836L11.4411 4.29836L12.3111 6.81836L11.0211 7.20836L12.9111 12.1584L14.2011 11.7684L12.3111 6.81836L13.5411 6.39836L14.8611 9.78836L15.8811 9.45836L14.0211 4.77836L15.2511 4.35836L16.5711 7.74836L17.5011 5.28836L16.2711 4.86836L18.2511 -0.931641L16.9611 -1.32164L15.0711 3.62836L13.8411 3.20836L15.1611 -0.181641L16.1811 -0.511641L14.3211 4.16836L13.1511 1.01836L11.6511 1.31836L13.4811 6.37836L12.1911 6.76836L10.3011 1.81836L9.13109 4.96836L10.6311 5.26836L9.31109 8.65836L8.29109 8.98836L10.1511 4.30836L8.92109 4.72836L7.60109 8.11836L6.67109 5.65836L7.90109 5.23836L5.92109 -0.461641L7.21109 -0.851641L9.10109 4.09836L10.3311 3.67836L8.98109 0.228359L8.05109 2.68836L9.28109 3.10836L7.48109 8.17836L6.19109 7.78836L8.08109 2.83836L6.85109 2.41836L5.53109 5.80836L4.51109 6.13836L6.37109 1.45836L5.14109 1.03836L3.82109 4.42836L2.89109 1.96836L4.12109 1.54836L2.14109 -4.15164L3.43109 -4.54164L5.32109 0.408359L6.55109 -0.0116406L5.20109 3.43836L4.18109 3.76836L6.04109 -0.911641L7.27109 -1.33164L8.59109 2.05836L9.52109 -0.401641L8.29109 -0.821641L6.31109 4.87836L4.96109 4.57836L6.85109 -0.371641L8.08109 -0.791641L9.40109 2.59836L10.8711 1.75836Z" fill="#010101"/>
<path d="M12.2155 23.364L10.3255 18.414L11.5555 17.994L12.8755 21.384L13.8055 18.924L12.5755 18.504L14.5555 12.804L15.8455 13.194L13.9555 18.144L15.1855 18.564L13.8655 21.954L12.8355 19.494L14.3355 19.074L13.0155 15.684L14.0355 15.324L15.9255 20.274L14.6355 20.664L12.8055 15.864L11.7855 16.194L13.6455 20.874L14.8755 20.454L16.2255 17.004L17.1555 19.464L15.9255 19.884L17.7255 24.954L16.4355 25.344L14.5455 20.394L13.3155 20.814L14.6355 24.234L15.5655 21.774L16.7955 22.194L14.8155 27.894L13.5255 27.504L15.4155 22.554L14.1855 22.134L15.5055 18.744L16.5255 18.414L14.6655 23.094L13.4355 23.514L12.2155 23.364Z" fill="#010101"/>
</g>
<defs>
<clipPath id="clip0_1052_21">
<rect width="100" height="24" fill="white"/>
</clipPath>
</defs>
</svg>
