<?xml version="1.0" encoding="UTF-8"?> <svg xmlns="http://www.w3.org/2000/svg" xmlns:xlink="http://www.w3.org/1999/xlink" width="126px" height="28px" viewBox="0 0 126 28" version="1.1"><title>Group 42</title><defs><polygon id="path-1" points="0 0 15.8979 0 15.8979 16.451 0 16.451"></polygon><polygon id="path-3" points="0 0 15.8978 0 15.8978 16.451 0 16.451"></polygon><polygon id="path-5" points="0 0 22.803 0 22.803 22.7877 0 22.7877"></polygon></defs><g id="Design" stroke="none" stroke-width="1" fill="none" fill-rule="evenodd"><g id="Group-42" transform="translate(0.5471, 0.5495)"><g id="Group-15" transform="translate(35.3776, 4.8647)"><g id="Group-3" transform="translate(73.4091, 0)"><mask id="mask-2" fill="white"><use xlink:href="#path-1"></use></mask><g id="Clip-2"></g><path d="M7.982,1.769 C4.555,1.769 1.769,4.666 1.769,8.203 C1.769,11.741 4.555,14.66 7.982,14.66 C11.387,14.66 14.195,11.763 14.195,8.203 C14.195,4.643 11.409,1.769 7.982,1.769 L7.982,1.769 Z M14.173,13.399 C12.692,15.279 10.458,16.451 7.96,16.451 C3.56,16.451 0,12.758 0,8.203 C0,3.648 3.604,0 7.96,0 C10.458,0 12.692,1.216 14.173,3.051 L14.173,0.531 L15.898,0.531 L15.898,16.252 L14.173,16.252 L14.173,13.399 Z" id="Fill-1" fill="#010916" mask="url(#mask-2)"></path></g><path d="M53.0004,1.99 C49.5954,1.99 46.7874,4.887 46.7874,8.447 C46.7874,12.006 49.5734,14.903 53.0004,14.903 C56.4054,14.903 59.2134,12.006 59.2134,8.447 C59.2134,4.887 56.4054,1.99 53.0004,1.99 M53.0004,16.672 C48.6004,16.672 45.0404,12.979 45.0404,8.424 C45.0404,3.87 48.6224,0.221 53.0004,0.221 C57.3784,0.221 60.9604,3.914 60.9604,8.469 C60.9604,13.001 57.3784,16.672 53.0004,16.672" id="Fill-4" fill="#010916"></path><g id="Group-8"><mask id="mask-4" fill="white"><use xlink:href="#path-3"></use></mask><g id="Clip-7"></g><path d="M7.9598,1.769 C4.5548,1.769 1.7688,4.666 1.7688,8.203 C1.7688,11.741 4.5548,14.66 7.9598,14.66 C11.3648,14.66 14.1728,11.763 14.1728,8.203 C14.1728,4.643 11.3868,1.769 7.9598,1.769 L7.9598,1.769 Z M14.1728,13.399 C12.6918,15.257 10.4588,16.451 7.9598,16.451 C3.5598,16.451 -0.0002,12.758 -0.0002,8.248 C-0.0002,3.737 3.5818,0 7.9598,0 C10.4588,0 12.6918,1.216 14.1728,3.051 L14.1728,0.531 L15.8978,0.531 L15.8978,16.252 L14.1728,16.252 L14.1728,13.399 Z" id="Fill-6" fill="#010916" mask="url(#mask-4)"></path></g><path d="M25.8698,16.296 C21.9558,16.296 18.7718,13.178 18.7718,9.353 L18.7718,0.531 L20.4968,0.531 L20.4968,9.353 C20.4968,12.228 22.9068,14.593 25.8698,14.593 C28.8328,14.593 31.2428,12.25 31.2428,9.353 L31.2428,0.531 L32.9678,0.531 L32.9678,9.353 C32.9678,13.2 29.7838,16.296 25.8698,16.296" id="Fill-9" fill="#010916"></path><path d="M37.5666,0.5307 L37.5666,2.7637 C38.5616,1.3047 40.0426,0.5307 42.0556,0.5307 L44.4436,0.5307 L44.4436,2.2337 L43.8686,2.2337 C43.0506,2.2337 42.2096,2.2107 41.3916,2.3217 C41.1266,2.3657 40.8386,2.4097 40.5736,2.4767 C40.0426,2.6317 39.5566,2.8967 39.1366,3.2727 C38.8046,3.5597 38.5396,3.9357 38.3406,4.3117 C38.0756,4.8207 37.8766,5.3957 37.7876,6.0147 C37.6776,6.6557 37.6106,7.3847 37.5666,8.6237 L37.5666,16.2077 L35.8646,16.2077 L35.8646,0.5307 L37.5666,0.5307 Z" id="Fill-11" fill="#010916"></path><path d="M65.7583,0.5307 L65.7583,2.7637 C66.7533,1.3047 68.2343,0.5307 70.2473,0.5307 L72.6353,0.5307 L72.6353,2.2337 L72.0603,2.2337 C71.2423,2.2337 70.4013,2.2107 69.5833,2.3217 C69.3183,2.3657 69.0303,2.4097 68.7653,2.4767 C68.2343,2.6317 67.7483,2.8967 67.3283,3.2727 C66.9963,3.5597 66.7313,3.9357 66.5323,4.3117 C66.2673,4.8207 66.0683,5.3957 65.9793,6.0147 C65.8693,6.6557 65.8023,7.3847 65.7583,8.6237 L65.7583,16.2077 L64.0563,16.2077 L64.0563,0.5307 L65.7583,0.5307 Z" id="Fill-13" fill="#010916"></path></g><g id="Group-41"><path d="M13.3598,8.413 L13.4688,8.413 L13.4538,0 L13.0638,0 L13.0788,8.429 C13.1568,8.413 13.2658,8.413 13.3598,8.413" id="Fill-16" fill="#010916"></path><path d="M16.8717,0.4996 L16.4817,0.3906 L14.3117,8.5066 C14.4367,8.5376 14.5777,8.5686 14.7017,8.6006 L16.8717,0.4996 Z" id="Fill-18" fill="#010916"></path><path d="M15.8884,9.1309 L20.0554,1.8729 L19.7124,1.6699 L15.5294,8.9279 C15.6544,8.9899 15.7634,9.0529 15.8884,9.1309" id="Fill-20" fill="#010916"></path><path d="M16.8717,9.9269 L22.7717,4.0119 L22.4907,3.7309 L16.5747,9.6459 C16.6847,9.7399 16.7777,9.8329 16.8717,9.9269" id="Fill-22" fill="#010916"></path><path d="M17.6208,10.9727 L24.8468,6.7897 L24.6438,6.4467 L17.4178,10.6297 C17.4958,10.7387 17.5588,10.8637 17.6208,10.9727" id="Fill-24" fill="#010916"></path><path d="M18.0734,12.1744 L26.1274,10.0044 L26.0174,9.6144 L17.9644,11.7844 C18.0114,11.9244 18.0424,12.0494 18.0734,12.1744" id="Fill-26" fill="#010916"></path><path d="M11.0342,9.006 L6.7892,1.67 L6.4452,1.873 L10.6912,9.209 C10.8002,9.147 10.9252,9.084 11.0342,9.006" id="Fill-28" fill="#010916"></path><path d="M12.2049,8.5534 L10.0199,0.4064 L9.6299,0.5154 L11.8299,8.6784 C11.9549,8.6314 12.0799,8.5844 12.2049,8.5534" id="Fill-30" fill="#010916"></path><polygon id="Fill-32" fill="#010916" points="18.1828 13.2514 18.1828 13.4694 26.5328 13.4544 26.5328 13.0644 18.1828 13.0794"></polygon><path d="M17.9641,14.7185 L26.0491,16.8725 L26.1581,16.4825 L18.0891,14.3285 C18.0261,14.4685 17.9951,14.5935 17.9641,14.7185" id="Fill-34" fill="#010916"></path><path d="M17.4024,15.8734 L24.6604,20.0404 L24.8634,19.6974 L17.6054,15.5304 C17.5424,15.6554 17.4804,15.7644 17.4024,15.8734" id="Fill-36" fill="#010916"></path><g id="Group-40" transform="translate(0, 3.746)"><mask id="mask-6" fill="white"><use xlink:href="#path-5"></use></mask><g id="Clip-39"></g><polygon id="Fill-38" fill="#010916" mask="url(#mask-6)" points="21.476 16.763 5.993 1.327 5.665 1.655 4.026 0 3.745 0.281 5.384 1.936 5.056 2.263 9.271 6.462 4.104 3.496 3.87 3.902 1.857 2.747 1.654 3.091 3.683 4.246 3.449 4.651 8.568 7.586 2.856 6.072 2.747 6.524 0.499 5.931 0.39 6.306 2.637 6.915 2.528 7.352 8.225 8.865 2.325 8.881 2.325 9.349 0 9.349 0 9.755 2.325 9.755 2.325 10.208 8.225 10.192 2.528 11.737 2.653 12.19 0.405 12.799 0.514 13.173 2.762 12.565 2.887 13.017 8.568 11.472 3.48 14.437 3.699 14.843 1.701 16.014 1.888 16.357 3.901 15.187 4.136 15.592 9.239 12.627 5.072 16.81 5.4 17.138 3.761 18.777 4.042 19.057 5.696 17.419 6.024 17.746 10.176 13.563 7.241 18.667 7.647 18.901 6.492 20.93 6.836 21.118 7.991 19.104 8.397 19.338 11.331 14.219 9.817 19.916 10.269 20.041 9.661 22.288 10.051 22.397 10.644 20.15 11.097 20.259 12.611 14.562 12.626 20.462 13.094 20.462 13.094 22.788 13.5 22.788 13.485 20.462 13.953 20.462 13.937 14.562 15.482 20.259 15.919 20.134 16.528 22.382 16.919 22.273 16.31 20.025 16.762 19.9 15.217 14.219 18.183 19.323 18.588 19.089 19.744 21.102 20.087 20.899 18.932 18.886 19.322 18.652 16.357 13.532 20.539 17.7 20.867 17.372 22.522 19.026 22.803 18.745 21.148 17.091"></polygon></g></g></g></g></svg> 