<svg width="112" height="24" viewBox="0 0 112 24" fill="none" xmlns="http://www.w3.org/2000/svg">
<g clip-path="url(#clip0_1052_13)">
<path d="M2.5 18H5.2V6H2.5V18Z" fill="#252525"/>
<path d="M7.7 18H10.4V6H7.7V18Z" fill="#252525"/>
<path d="M12.9 18H15.6V6H12.9V18Z" fill="#252525"/>
<path d="M18.1 18H20.8V6H18.1V18Z" fill="#252525"/>
<path d="M23.3 18H26V6H23.3V18Z" fill="#252525"/>
<path d="M34.8716 18.25C38.3116 18.25 40.7816 15.54 40.7816 12.14C40.7816 8.74 38.3116 6 34.8716 6C31.4316 6 28.9616 8.74 28.9616 12.14C28.9616 15.54 31.4316 18.25 34.8716 18.25ZM34.8716 15.91C33.1516 15.91 31.7816 14.39 31.7816 12.14C31.7816 9.89 33.1516 8.34 34.8716 8.34C36.5916 8.34 37.9616 9.89 37.9616 12.14C37.9616 14.39 36.5916 15.91 34.8716 15.91Z" fill="#252525"/>
<path d="M49.6221 15.22L51.8121 18H54.9121L51.3821 13.56L54.7321 8.87H51.5221L49.3321 12.35L48.2521 12.38V6H45.4321V18H48.2521V13.88L49.6221 15.22Z" fill="#252525"/>
<path d="M60.1929 18.25C63.6329 18.25 66.1029 15.54 66.1029 12.14C66.1029 8.74 63.6329 6 60.1929 6C56.7529 6 54.2829 8.74 54.2829 12.14C54.2829 15.54 56.7529 18.25 60.1929 18.25ZM60.1929 15.91C58.4729 15.91 57.1029 14.39 57.1029 12.14C57.1029 9.89 58.4729 8.34 60.1929 8.34C61.9129 8.34 63.2829 9.89 63.2829 12.14C63.2829 14.39 61.9129 15.91 60.1929 15.91Z" fill="#252525"/>
<path d="M72.7634 6V18H75.5834V8.4H75.6434L79.1434 18H82.2134L85.7134 8.4H85.7734V18H88.5934V6H84.3134L80.6834 15.2L77.0534 6H72.7634Z" fill="#252525"/>
<path d="M96.114 6V18H98.934V8.4H98.994L102.494 18H105.564L109.064 8.4H109.124V18H111.944V6H107.664L104.034 15.2L100.404 6H96.114Z" fill="#252525"/>
</g>
<defs>
<clipPath id="clip0_1052_13">
<rect width="112" height="24" fill="white"/>
</clipPath>
</defs>
</svg>
