<?xml version="1.0" encoding="UTF-8"?> <svg xmlns="http://www.w3.org/2000/svg" xmlns:xlink="http://www.w3.org/1999/xlink" width="120px" height="16px" viewBox="0 0 120 16" version="1.1"><title>Group 3</title><defs><polygon id="path-1" points="0 0 118.6766 0 118.6766 14.834 0 14.834"></polygon></defs><g id="Design" stroke="none" stroke-width="1" fill="none" fill-rule="evenodd"><g id="Group-3" transform="translate(0.5471, 0.5495)"><mask id="mask-2" fill="white"><use xlink:href="#path-1"></use></mask><g id="Clip-2"></g><path d="M118.6766,10.974 L117.6626,14.834 L105.2466,14.834 L105.2466,14.632 C105.5846,14.578 105.8986,14.491 106.1896,14.369 C106.4806,14.248 106.7206,14.08 106.9096,13.864 C106.9776,13.783 107.0316,13.665 107.0716,13.51 C107.1126,13.355 107.1496,13.177 107.1836,12.975 C107.2176,12.773 107.2406,12.561 107.2546,12.338 C107.2686,12.116 107.2746,11.897 107.2746,11.681 C107.2746,11.493 107.2786,11.237 107.2846,10.913 C107.2916,10.59 107.2986,10.236 107.3056,9.852 C107.3116,9.468 107.3156,9.074 107.3156,8.67 L107.3156,7.498 L107.3156,3.557 C107.3156,3.314 107.3116,3.065 107.3056,2.809 C107.2986,2.553 107.2846,2.31 107.2646,2.081 C107.2446,1.852 107.2106,1.647 107.1636,1.465 C107.1156,1.283 107.0516,1.152 106.9706,1.071 C106.7676,0.855 106.5516,0.717 106.3216,0.656 C106.0916,0.596 105.7936,0.539 105.4286,0.485 L105.4286,0.283 L116.6276,0.283 L118.0066,3.617 L117.8046,3.718 C116.7086,2.358 115.6806,1.441 114.7206,0.97 C114.4906,0.862 114.0646,0.768 113.4426,0.687 C112.8206,0.606 112.0626,0.566 111.1706,0.566 C110.8856,0.566 110.5916,0.576 110.2876,0.596 C109.9836,0.616 109.7636,0.64 109.6286,0.667 C109.6016,0.882 109.5776,1.327 109.5576,2.001 C109.5366,2.674 109.5266,3.456 109.5266,4.345 L109.5266,5.638 C109.5266,5.989 109.5306,6.275 109.5366,6.497 C109.5436,6.72 109.5466,6.891 109.5466,7.013 L109.5466,7.235 L109.9526,7.235 C110.1556,7.235 110.3886,7.228 110.6526,7.215 C110.9166,7.201 111.1806,7.185 111.4436,7.164 C111.7076,7.144 111.9276,7.114 112.1036,7.073 C112.5096,6.979 112.8476,6.851 113.1176,6.689 C113.3886,6.528 113.6076,6.332 113.7766,6.103 C113.9466,5.874 114.0816,5.608 114.1826,5.305 C114.2846,5.002 114.3756,4.662 114.4566,4.284 L114.7006,4.284 L114.7006,10.651 L114.4566,10.651 C114.3486,10.219 114.1826,9.775 113.9596,9.317 C113.7366,8.859 113.5036,8.515 113.2596,8.286 C113.0436,8.097 112.7826,7.942 112.4786,7.821 C112.1746,7.7 111.8196,7.626 111.4136,7.599 C111.2106,7.585 111.0416,7.575 110.9066,7.569 C110.7716,7.562 110.6356,7.558 110.5006,7.558 L110.0946,7.558 L109.5676,7.558 C109.5406,7.747 109.5266,8.023 109.5266,8.387 L109.5266,9.519 L109.5266,10.125 L109.5266,10.812 C109.5266,11.028 109.5306,11.233 109.5366,11.429 C109.5436,11.624 109.5466,11.789 109.5466,11.924 C109.5606,12.355 109.5846,12.763 109.6186,13.147 C109.6516,13.531 109.7296,13.817 109.8516,14.006 C109.9736,14.194 110.2636,14.329 110.7236,14.41 C111.1836,14.491 111.6836,14.531 112.2246,14.531 C112.4546,14.531 112.7496,14.524 113.1076,14.511 C113.4656,14.497 113.8416,14.464 114.2336,14.41 C114.6666,14.356 115.0656,14.251 115.4306,14.097 C115.7956,13.942 116.1476,13.723 116.4856,13.44 C116.8236,13.157 117.1516,12.81 117.4696,12.399 C117.7876,11.988 118.1156,11.493 118.4536,10.913 L118.6766,10.974 Z M85.9386,4.042 C85.9386,3.368 85.7696,2.769 85.4316,2.243 C85.0936,1.718 84.5996,1.3 83.9506,0.99 C83.6266,0.842 83.2846,0.734 82.9266,0.667 C82.5676,0.599 82.1926,0.566 81.8006,0.566 C81.5166,0.566 81.2866,0.572 81.1106,0.586 C80.9346,0.599 80.7996,0.613 80.7046,0.626 C80.6916,0.707 80.6776,0.778 80.6646,0.838 C80.6506,0.899 80.6406,0.977 80.6336,1.071 C80.6266,1.165 80.6206,1.296 80.6136,1.465 C80.6066,1.633 80.5966,1.872 80.5826,2.182 C80.5696,2.654 80.5596,3.186 80.5526,3.779 C80.5456,4.372 80.5426,4.945 80.5426,5.497 L80.5426,7.72 C81.0966,7.72 81.6146,7.697 82.0946,7.649 C82.5746,7.602 83.0376,7.505 83.4836,7.356 C83.9166,7.222 84.2886,7.04 84.5996,6.811 C84.9106,6.582 85.1646,6.322 85.3606,6.033 C85.5566,5.743 85.7026,5.43 85.7966,5.093 C85.8916,4.756 85.9386,4.406 85.9386,4.042 L85.9386,4.042 Z M91.5996,14.834 L87.4406,14.834 C87.3186,14.713 87.2306,14.622 87.1766,14.561 C87.1226,14.501 87.0616,14.43 86.9936,14.349 C86.9266,14.268 86.8416,14.15 86.7406,13.995 C86.6386,13.841 86.4796,13.608 86.2636,13.298 C86.0066,12.921 85.7796,12.581 85.5836,12.278 C85.3876,11.974 85.1886,11.675 84.9856,11.378 C84.7826,11.082 84.5626,10.782 84.3256,10.479 C84.0896,10.176 83.8086,9.835 83.4836,9.458 C83.2136,9.148 82.9196,8.859 82.6016,8.589 C82.2836,8.32 81.9486,8.151 81.5976,8.084 C81.3406,8.03 81.1446,8.003 81.0086,8.003 C80.8876,8.003 80.7316,7.996 80.5426,7.983 L80.5426,10.267 C80.5426,10.913 80.5496,11.459 80.5626,11.904 C80.5766,12.335 80.5896,12.705 80.6036,13.015 C80.6166,13.325 80.6916,13.581 80.8266,13.783 C80.9346,13.958 81.1446,14.137 81.4556,14.319 C81.7666,14.501 82.1996,14.605 82.7536,14.632 L82.7536,14.834 L76.2616,14.834 L76.2616,14.632 C76.5996,14.578 76.9246,14.497 77.2356,14.39 C77.5466,14.282 77.7896,14.12 77.9656,13.905 C78.0336,13.824 78.0876,13.702 78.1286,13.541 C78.1686,13.379 78.1996,13.197 78.2196,12.995 C78.2396,12.793 78.2566,12.577 78.2706,12.348 C78.2836,12.119 78.2906,11.897 78.2906,11.681 C78.2906,11.493 78.2936,11.237 78.3006,10.913 C78.3076,10.59 78.3136,10.236 78.3206,9.852 C78.3276,9.468 78.3306,9.074 78.3306,8.67 L78.3306,3.557 C78.3306,3.314 78.3276,3.068 78.3206,2.819 C78.3136,2.57 78.3006,2.334 78.2806,2.112 C78.2596,1.889 78.2266,1.687 78.1786,1.505 C78.1316,1.323 78.0676,1.192 77.9866,1.111 C77.7836,0.896 77.5566,0.751 77.3066,0.677 C77.0566,0.603 76.7486,0.539 76.3836,0.485 L76.3836,0.283 L77.2156,0.283 C77.6746,0.283 78.1956,0.279 78.7776,0.272 C79.3586,0.266 79.9406,0.262 80.5216,0.262 L81.9426,0.262 C82.8486,0.262 83.6536,0.289 84.3566,0.343 C85.0596,0.397 85.7026,0.579 86.2836,0.889 C86.8786,1.199 87.3586,1.62 87.7246,2.152 C88.0896,2.684 88.2716,3.355 88.2716,4.163 C88.2716,4.662 88.1806,5.11 87.9986,5.507 C87.8156,5.905 87.5716,6.255 87.2676,6.558 C86.9636,6.861 86.6086,7.121 86.2026,7.336 C85.7966,7.552 85.3706,7.734 84.9246,7.882 L84.9246,7.942 C85.1546,8.064 85.3776,8.239 85.5936,8.468 C85.8106,8.697 86.0196,8.953 86.2226,9.236 C86.5746,9.748 86.9566,10.3 87.3696,10.893 C87.7816,11.486 88.1506,12.011 88.4746,12.47 C88.9756,13.17 89.4626,13.682 89.9356,14.006 C90.4086,14.329 90.9636,14.538 91.5996,14.632 L91.5996,14.834 Z M60.8906,14.834 L54.7436,14.834 L54.7436,14.632 C55.0816,14.578 55.3956,14.491 55.6866,14.369 C55.9776,14.248 56.2246,14.073 56.4266,13.844 C56.4946,13.763 56.5456,13.649 56.5796,13.5 C56.6126,13.352 56.6396,13.177 56.6606,12.975 C56.6806,12.773 56.6946,12.561 56.7006,12.338 C56.7076,12.116 56.7106,11.897 56.7106,11.681 C56.7106,11.493 56.7146,11.237 56.7216,10.913 C56.7276,10.59 56.7346,10.236 56.7416,9.852 C56.7486,9.468 56.7516,9.074 56.7516,8.67 L56.7516,2.829 C56.7516,2.587 56.7416,2.361 56.7216,2.152 C56.7006,1.943 56.6706,1.755 56.6296,1.586 C56.5896,1.418 56.5286,1.286 56.4476,1.192 C56.2576,0.963 56.0246,0.798 55.7476,0.697 C55.4696,0.596 55.1556,0.525 54.8036,0.485 L54.8036,0.283 L60.8696,0.283 L60.8696,0.485 C60.5856,0.525 60.2816,0.599 59.9566,0.707 C59.6326,0.815 59.3826,1.03 59.2066,1.354 C59.0846,1.583 59.0206,1.872 59.0136,2.223 C59.0066,2.573 58.9966,2.903 58.9836,3.213 C58.9836,3.55 58.9796,3.883 58.9736,4.214 C58.9666,4.544 58.9626,4.877 58.9626,5.214 L58.9626,11.985 C58.9626,12.375 58.9696,12.753 58.9836,13.116 C58.9966,13.48 59.0576,13.736 59.1656,13.884 C59.3286,14.113 59.5856,14.289 59.9366,14.41 C60.2886,14.531 60.6066,14.605 60.8906,14.632 L60.8906,14.834 Z M32.3526,2.587 C32.2706,2.762 32.1526,3.038 31.9976,3.415 C31.8416,3.793 31.6486,4.251 31.4186,4.79 C31.1886,5.329 30.9356,5.938 30.6586,6.619 C30.3806,7.299 30.0796,8.037 29.7556,8.832 L34.8066,8.832 C34.5766,8.225 34.3436,7.619 34.1066,7.013 C33.8706,6.406 33.6406,5.824 33.4176,5.265 C33.1946,4.705 32.9916,4.193 32.8086,3.729 C32.6256,3.264 32.4736,2.883 32.3526,2.587 L32.3526,2.587 Z M35.0096,14.834 L35.0096,14.632 C35.0506,14.632 35.1486,14.619 35.3036,14.592 C35.4596,14.565 35.6216,14.518 35.7906,14.45 C35.9596,14.383 36.1086,14.289 36.2376,14.167 C36.3656,14.046 36.4296,13.891 36.4296,13.702 C36.4296,13.581 36.3926,13.382 36.3186,13.106 C36.2436,12.83 36.1396,12.493 36.0036,12.096 C35.8686,11.698 35.7136,11.257 35.5376,10.772 C35.3616,10.287 35.1726,9.782 34.9696,9.256 L29.5726,9.256 C29.3696,9.768 29.1736,10.257 28.9846,10.721 C28.7946,11.186 28.6056,11.654 28.4166,12.126 C28.1326,12.854 27.9906,13.366 27.9906,13.662 C27.9906,13.837 28.0446,13.982 28.1526,14.097 C28.2606,14.211 28.3996,14.305 28.5686,14.379 C28.7376,14.454 28.9206,14.507 29.1166,14.541 C29.3126,14.575 29.4986,14.605 29.6746,14.632 L29.6746,14.834 L25.3526,14.834 L25.3526,14.612 C25.7046,14.571 26.0056,14.477 26.2556,14.329 C26.5056,14.181 26.6516,14.08 26.6916,14.026 C26.7866,13.931 26.9426,13.709 27.1586,13.359 C27.3746,13.009 27.6386,12.49 27.9496,11.803 C28.2336,11.169 28.5516,10.449 28.9036,9.64 C29.2546,8.832 29.6166,8 29.9886,7.144 C30.3606,6.289 30.7296,5.426 31.0946,4.557 C31.4596,3.688 31.8046,2.876 32.1286,2.122 L31.9266,1.677 C32.1696,1.569 32.3896,1.441 32.5856,1.293 C32.7816,1.145 32.9536,0.99 33.1026,0.828 C33.2516,0.667 33.3766,0.512 33.4786,0.363 C33.5796,0.215 33.6576,0.094 33.7116,0 L33.8736,0 C34.2926,1.118 34.6916,2.179 35.0706,3.183 C35.4496,4.187 35.8116,5.153 36.1566,6.083 C36.5006,7.013 36.8356,7.912 37.1606,8.781 C37.4846,9.65 37.8096,10.509 38.1346,11.358 C38.2826,11.776 38.4216,12.123 38.5506,12.399 C38.6786,12.675 38.8236,12.988 38.9866,13.339 C39.0136,13.393 39.0746,13.487 39.1686,13.622 C39.2636,13.756 39.3886,13.894 39.5446,14.036 C39.6996,14.177 39.8926,14.302 40.1226,14.41 C40.3526,14.518 40.6226,14.578 40.9336,14.592 L40.9336,14.834 L35.0096,14.834 Z M12.8426,3.678 L12.6396,3.779 C12.0846,3.092 11.5576,2.506 11.0566,2.021 C10.5566,1.536 10.0696,1.179 9.5956,0.95 C9.3666,0.842 8.9506,0.751 8.3486,0.677 C7.7466,0.603 7.0466,0.566 6.2486,0.566 C6.1136,0.566 5.9576,0.569 5.7816,0.576 C5.6066,0.582 5.4366,0.589 5.2746,0.596 C5.1126,0.603 4.9606,0.609 4.8186,0.616 C4.6766,0.623 4.5716,0.626 4.5036,0.626 C4.4906,0.707 4.4736,0.788 4.4536,0.869 C4.4326,0.95 4.4156,1.044 4.4026,1.152 C4.3886,1.259 4.3756,1.398 4.3616,1.566 C4.3486,1.734 4.3346,1.94 4.3216,2.182 C4.3076,2.654 4.2976,3.169 4.2906,3.729 C4.2836,4.288 4.2806,4.817 4.2806,5.315 L4.2806,7.235 L4.6456,7.235 C4.8626,7.235 5.1026,7.228 5.3656,7.215 C5.6296,7.201 5.9036,7.185 6.1876,7.164 C6.4716,7.144 6.7086,7.114 6.8976,7.073 C7.3846,6.966 7.7706,6.824 8.0546,6.649 C8.3386,6.474 8.5616,6.265 8.7236,6.022 C8.8856,5.78 9.0006,5.514 9.0686,5.224 C9.1366,4.934 9.1966,4.621 9.2516,4.284 L9.4946,4.284 L9.4946,10.792 L9.2516,10.792 C9.1426,10.361 8.9876,9.906 8.7846,9.428 C8.5816,8.95 8.3386,8.582 8.0546,8.326 C7.7976,8.097 7.5236,7.926 7.2326,7.811 C6.9416,7.697 6.6006,7.626 6.2076,7.599 C6.0056,7.585 5.8296,7.575 5.6806,7.569 C5.5316,7.562 5.3896,7.558 5.2546,7.558 L4.2806,7.558 L4.2806,10.065 C4.2806,10.442 4.2836,10.789 4.2906,11.105 C4.2976,11.422 4.3006,11.695 4.3006,11.924 C4.3146,12.355 4.3386,12.763 4.3716,13.147 C4.4056,13.531 4.4836,13.817 4.6056,14.006 C4.7266,14.194 4.9336,14.339 5.2236,14.44 C5.5146,14.541 5.9376,14.605 6.4916,14.632 L6.4916,14.834 L-0.0004,14.834 L-0.0004,14.632 C0.3386,14.578 0.6526,14.491 0.9436,14.369 C1.2346,14.248 1.4746,14.08 1.6636,13.864 C1.7316,13.783 1.7856,13.665 1.8256,13.51 C1.8666,13.355 1.9036,13.177 1.9376,12.975 C1.9716,12.773 1.9946,12.561 2.0086,12.338 C2.0216,12.116 2.0286,11.897 2.0286,11.681 C2.0286,11.493 2.0326,11.237 2.0386,10.913 C2.0456,10.59 2.0526,10.236 2.0596,9.852 C2.0656,9.468 2.0696,9.074 2.0696,8.67 L2.0696,3.557 C2.0696,3.314 2.0656,3.065 2.0596,2.809 C2.0526,2.553 2.0386,2.31 2.0186,2.081 C1.9986,1.852 1.9646,1.647 1.9176,1.465 C1.8696,1.283 1.8056,1.152 1.7246,1.071 C1.5216,0.855 1.3056,0.717 1.0756,0.656 C0.8456,0.596 0.5476,0.539 0.1826,0.485 L0.1826,0.283 L11.4626,0.283 L12.8426,3.678 Z" id="Fill-1" fill="#000000" mask="url(#mask-2)"></path></g></g></svg> 