<svg width="67" height="24" viewBox="0 0 67 24" fill="none" xmlns="http://www.w3.org/2000/svg">
<g clip-path="url(#clip0_1052_24)">
<path d="M4.68945 20V4.5H0.329453V20H4.68945Z" fill="#252525"/>
<path d="M14.9304 6.82L15.6604 4.5H9.52038L2.98038 20H7.79038L9.27038 15.71H16.5404L17.3704 20H22.1804L14.9304 6.82ZM10.4204 13.56L12.7504 6.6L15.0804 13.56H10.4204Z" fill="#252525"/>
<path d="M28.4912 4.5V20H24.1312V4.5H28.4912Z" fill="#252525"/>
<path d="M37.8919 4.5H33.5319V20H43.9519V16.3H37.8919V12.7H42.7419V9.1H37.8919V4.5Z" fill="#252525"/>
<path d="M52.3926 20.3C56.9226 20.3 59.6026 17.5 59.6026 12.29C59.6026 7.08 56.9226 4.2 52.3926 4.2H45.7426V20H50.0526V17.95H52.1526C52.2426 17.95 52.3126 17.95 52.3926 17.95C54.8026 17.95 56.2226 16.2 56.2226 12.29C56.2226 8.48 54.8026 6.55 52.3926 6.55H50.0526V9.01H52.3926C53.4826 9.01 54.0826 9.77 54.0826 10.81C54.0826 11.85 53.4826 12.51 52.3926 12.51H50.0526V15.54H52.3926C53.4826 15.54 54.0826 16.2 54.0826 17.11C54.0826 18.15 53.4826 18.78 52.3926 18.78H50.0526V20H45.7426V4.5H52.3926L59.6026 12.29C59.6026 12.29 59.6026 12.29 59.6026 12.29C59.6026 12.29 59.6026 12.29 59.6026 12.29L52.3926 20.3Z" fill="#252525"/>
<path d="M66.4634 4.5V20H62.1034V4.5H66.4634Z" fill="#252525"/>
</g>
<defs>
<clipPath id="clip0_1052_24">
<rect width="67" height="24" fill="white"/>
</clipPath>
</defs>
</svg>
