<svg width="109" height="24" viewBox="0 0 109 24" fill="none" xmlns="http://www.w3.org/2000/svg">
<path d="M12.9863 17.5V11.2C12.9863 8.3 10.9463 7.3 8.38633 7.3C6.18633 7.3 4.50633 8.7 4.18633 10.5H8.70633V12.7H2.06633V7.9H3.74633C4.54633 5.4 6.78633 4 9.38633 4C12.5463 4 14.9463 5.8 14.9463 9.4V17.5H12.9863Z" fill="black"/>
<path d="M22.0666 4.5V17.5H20.1066V4.5H22.0666Z" fill="black"/>
<path d="M29.5668 11V17.5H27.6068V11L24.3468 4.5H26.5868L28.5868 9L30.5868 4.5H32.8268L29.5668 11Z" fill="black"/>
<path d="M37.807 4.5V17.5H35.847V4.5H37.807Z" fill="black"/>
<path d="M48.1274 7.3V4.5H42.7474V17.5H44.7074V7.3H48.1274Z" a=""" a=""" fill="black"/>
<path d="M57.6278 4.5H53.0278V17.5H59.5078C62.4678 17.5 64.3078 15.6 64.3078 12.6C64.3078 9.9 62.9078 8.1 60.6278 7.6L61.6678 4.5H59.5878L58.5878 7.3H57.6278V4.5ZM57.6278 9.2H59.2278C60.9478 9.2 62.3478 10.2 62.3478 12.6C62.3478 14.9 60.9878 15.6 59.3078 15.6H57.6278V9.2Z" fill="black"/>
<path d="M72.0682 4.5H67.4682V17.5H73.9482C76.9082 17.5 78.7482 15.6 78.7482 12.6C78.7482 9.9 77.3482 8.1 75.0682 7.6L76.1082 4.5H74.0282L73.0282 7.3H72.0682V4.5ZM72.0682 9.2H73.6682C75.3882 9.2 76.7882 10.2 76.7882 12.6C76.7882 14.9 75.4282 15.6 73.7482 15.6H72.0682V9.2Z" fill="black"/>
<path d="M85.7885 4.5V17.5H83.8285V4.5H85.7885Z" fill="black"/>
<path d="M96.1089 7.3V4.5H90.7289V17.5H92.6889V7.3H96.1089Z" a=""" a=""" fill="black"/>
<path d="M106.329 11.2C106.329 8.6 104.989 7.2 102.329 7.2C100.229 7.2 98.6693 8.3 98.0293 10H105.109C105.049 9.5 104.829 7.6 104.829 7.5C104.309 5.2 102.049 4 99.7093 4C96.1093 4 94.0493 6.6 94.0493 9.4C94.0493 12.2 96.1093 14.8 99.7093 14.8C102.049 14.8 104.309 13.5 104.829 11.3C104.829 11.2 105.049 9.6 105.109 9.1H97.9293C98.5693 10.7 100.129 11.8 102.229 11.8C103.829 11.8 104.869 11 105.289 9.9L107.029 10.7C106.789 11.3 106.449 11.8 106.029 12.2C105.029 13.5 103.549 14.3 101.909 14.5C103.789 13.6 104.929 12.2 104.929 10.3C104.929 8.7 104.029 7.6 102.329 7.6C100.789 7.6 99.9893 8.5 99.5893 9.4L106.329 11.2Z" fill="black"/>
<path d="M100.218 5.6C99.0182 5.6 98.2182 6.5 97.9382 7.3L102.458 8.9C102.218 6.9 101.378 5.6 100.218 5.6ZM100.218 10.3C101.538 10.3 102.218 9.3 102.458 8.6L97.9382 7C98.1782 9 99.0582 10.3 100.218 10.3Z" fill="black"/>
</svg>
