<?xml version="1.0" encoding="UTF-8"?> <svg xmlns="http://www.w3.org/2000/svg" xmlns:xlink="http://www.w3.org/1999/xlink" width="98px" height="33px" viewBox="0 0 98 33" version="1.1"><title>Group 12</title><defs><polygon id="path-1" points="0 0 15.324 0 15.324 23.1479 0 23.1479"></polygon><polygon id="path-3" points="0 31.989 97.178 31.989 97.178 0 0 0"></polygon></defs><g id="Design" stroke="none" stroke-width="1" fill="none" fill-rule="evenodd"><g id="Group-12" transform="translate(0.5471, 0.5495)"><path d="M38.076,16.8343 C38.076,13.9583 35.989,11.9903 33.567,11.9903 C31.146,11.9903 29.059,13.9583 29.059,16.8343 C29.059,19.6813 31.146,21.6783 33.567,21.6783 C35.989,21.6783 38.076,19.6783 38.076,16.8343 M41.586,16.8343 C41.586,21.4363 37.986,24.8283 33.567,24.8283 C29.149,24.8283 25.549,21.4363 25.549,16.8343 C25.549,12.1993 29.149,8.8403 33.567,8.8403 C37.986,8.8403 41.586,12.1993 41.586,16.8343" id="Fill-1" fill="#000000"></path><path d="M55.3752,16.8343 C55.3752,13.9583 53.2882,11.9903 50.8662,11.9903 C48.4452,11.9903 46.3582,13.9583 46.3582,16.8343 C46.3582,19.6813 48.4452,21.6783 50.8662,21.6783 C53.2882,21.6783 55.3752,19.6783 55.3752,16.8343 M58.8852,16.8343 C58.8852,21.4363 55.2852,24.8283 50.8662,24.8283 C46.4482,24.8283 42.8482,21.4363 42.8482,16.8343 C42.8482,12.2033 46.4482,8.8403 50.8662,8.8403 C55.2852,8.8403 58.8852,12.1993 58.8852,16.8343" id="Fill-3" fill="#000000"></path><g id="Group-7" transform="translate(60.1397, 8.8411)"><mask id="mask-2" fill="white"><use xlink:href="#path-1"></use></mask><g id="Clip-6"></g><path d="M12.239,8.022 C12.239,5.207 10.361,3.149 7.972,3.149 C5.55,3.149 3.521,5.207 3.521,8.022 C3.521,10.808 5.55,12.837 7.972,12.837 C10.361,12.837 12.239,10.808 12.239,8.022 L12.239,8.022 Z M15.324,0.482 L15.324,14.834 C15.324,20.737 11.843,23.148 7.727,23.148 C3.853,23.148 1.521,20.557 0.641,18.437 L3.698,17.165 C4.242,18.466 5.575,20.002 7.723,20.002 C10.358,20.002 11.99,18.376 11.99,15.316 L11.99,14.167 L11.868,14.167 C11.082,15.136 9.568,15.983 7.658,15.983 C3.662,15.983 0,12.502 0,8.022 C0,3.51 3.662,0 7.658,0 C9.565,0 11.079,0.846 11.868,1.787 L11.99,1.787 L11.99,0.486 L15.324,0.486 L15.324,0.482 Z" id="Fill-5" fill="#000000" mask="url(#mask-2)"></path></g><mask id="mask-4" fill="white"><use xlink:href="#path-3"></use></mask><g id="Clip-9"></g><polygon id="Fill-8" fill="#000000" mask="url(#mask-4)" points="77.536 24.338 80.96 24.338 80.96 0.912 77.536 0.912"></polygon><path d="M85.9153,16.5892 L93.0583,13.6232 C92.6653,12.6252 91.4833,11.9292 90.0923,11.9292 C88.3083,11.9292 85.8253,13.5042 85.9153,16.5892 L85.9153,16.5892 Z M94.3013,19.4652 L97.0263,21.2812 C96.1473,22.5822 94.0283,24.8242 90.3663,24.8242 C85.8253,24.8242 82.4343,21.3142 82.4343,16.8302 C82.4343,12.0772 85.8543,8.8372 89.9733,8.8372 C94.1213,8.8372 96.1503,12.1382 96.8133,13.9222 L97.1773,14.8302 L86.4923,19.2562 C87.3103,20.8602 88.5823,21.6782 90.3663,21.6782 C92.1533,21.6782 93.3933,20.7982 94.3013,19.4652 Z" id="Fill-10" fill="#000000" mask="url(#mask-4)"></path><path d="M12.5887,14.7548 L12.5887,11.3638 L24.0167,11.3638 C24.1287,11.9548 24.1867,12.6538 24.1867,13.4108 C24.1867,15.9548 23.4907,19.1008 21.2487,21.3428 C19.0687,23.6138 16.2827,24.8248 12.5927,24.8248 C5.7517,24.8248 -0.0003,19.2528 -0.0003,12.4118 C-0.0003,5.5718 5.7517,-0.0002 12.5927,-0.0002 C16.3767,-0.0002 19.0727,1.4848 21.0977,3.4198 L18.7047,5.8138 C17.2527,4.4508 15.2847,3.3918 12.5887,3.3918 C7.5937,3.3918 3.6867,7.4168 3.6867,12.4118 C3.6867,17.4078 7.5937,21.4328 12.5887,21.4328 C15.8287,21.4328 17.6737,20.1318 18.8557,18.9498 C19.8147,17.9908 20.4457,16.6218 20.6937,14.7508 L12.5887,14.7548 Z" id="Fill-11" fill="#000000" mask="url(#mask-4)"></path></g></g></svg> 