<svg width="73" height="24" viewBox="0 0 73 24" fill="none" xmlns="http://www.w3.org/2000/svg">
<path d="M12.0319 12.051C12.0319 11.231 11.9519 10.451 11.8119 9.71101H0.271875V13.971H6.77188C6.47188 15.351 5.61188 16.511 4.41188 17.291V20.141H7.38188C9.25188 18.421 10.8719 15.821 11.6419 12.831L12.0319 12.051Z" fill="#4285F4"/>
<path d="M5.61187 23.331C7.15187 23.331 8.52187 22.821 9.61187 21.931L12.3819 19.391C11.3919 20.081 10.0519 20.521 8.52187 20.521C6.01187 20.521 3.89187 18.911 3.09187 16.661L0.191875 19.161C1.61187 21.681 4.29187 23.331 5.61187 23.331Z" fill="#34A853"/>
<path d="M3.09189 16.661C2.95189 16.271 2.87189 15.861 2.87189 15.431C2.87189 15.001 2.95189 14.591 3.09189 14.201V11.351L0.191895 8.85101C-0.348105 10.031 -0.628105 11.331 -0.628105 12.721C-0.628105 14.111 -0.348105 15.411 0.191895 16.591L3.09189 14.201V16.661Z" fill="#FBBC04"/>
<path d="M8.52187 5.34102C10.5119 5.34102 11.8919 6.20102 12.6919 6.94102L15.3519 4.39102C13.7319 2.89102 11.4519 1.94102 8.52187 1.94102C5.35187 1.94102 2.67188 3.59102 1.25188 6.11102L4.15188 8.61102C4.95188 6.36102 6.51187 5.34102 8.52187 5.34102Z" fill="#EA4335"/>
<path d="M25.3263 23V2.4H21.4063V23H25.3263Z" fill="#5F6368"/>
<path d="M36.1952 23.33C37.9952 23.33 39.5152 22.79 40.6752 21.71L38.4552 19.55C37.6452 20.21 36.6552 20.55 35.5352 20.55C33.3552 20.55 31.7952 18.99 31.3452 16.89H41.5252V13.51C41.5252 8.63 39.3152 5.03 35.6352 5.03C31.9552 5.03 29.2052 7.55 29.2052 11.99C29.2052 16.43 31.9552 18.95 35.5352 18.95C37.1552 18.95 38.4852 18.35 39.4752 17.39L41.3452 19.2C40.0052 20.45 38.3152 21.23 36.3752 21.23C32.3552 21.23 28.5352 18.65 28.5352 14.21C28.5352 9.77 31.3452 7.25 35.6352 7.25C39.4552 7.25 41.9752 9.53 41.9752 13.06C41.9752 13.78 41.9152 14.38 41.7952 14.85H31.9752C32.5752 17.51 34.1352 18.95 36.1952 18.95L35.5352 20.55C33.3552 20.55 31.7952 18.99 31.3452 16.89H41.5252V13.51C41.5252 8.63 39.3152 5.03 35.6352 5.03C31.9552 5.03 29.2052 7.55 29.2052 11.99C29.2052 16.43 31.9552 18.95 35.5352 18.95C37.1552 18.95 38.4852 18.35 39.4752 17.39L41.3452 19.2C40.0052 20.45 38.3152 21.23 36.3752 21.23C32.3552 21.23 28.5352 18.65 28.5352 14.21C28.5352 9.77 31.3452 7.25 35.6352 7.25C39.4552 7.25 41.9752 9.53 41.9752 13.06C41.9752 13.78 41.9152 14.38 41.7952 14.85H31.9752C32.5752 17.51 34.1352 18.95 36.1952 18.95L36.1952 23.33Z" fill="#5F6368"/>
<path d="M52.3338 23.33C54.1338 23.33 55.6538 22.79 56.8138 21.71L54.5938 19.55C53.7838 20.21 52.7938 20.55 51.6738 20.55C49.4938 20.55 47.9338 18.99 47.4838 16.89H57.6638V13.51C57.6638 8.63 55.4538 5.03 51.7738 5.03C48.0938 5.03 45.3438 7.55 45.3438 11.99C45.3438 16.43 48.0938 18.95 51.6738 18.95C53.2938 18.95 54.6238 18.35 55.6138 17.39L57.4838 19.2C56.1438 20.45 54.4538 21.23 52.5138 21.23C48.4938 21.23 44.6738 18.65 44.6738 14.21C44.6738 9.77 47.4838 7.25 51.7738 7.25C55.5938 7.25 58.1138 9.53 58.1138 13.06C58.1138 13.78 58.0538 14.38 57.9338 14.85H48.1138C48.7138 17.51 50.2738 18.95 52.3338 18.95L51.6738 20.55C49.4938 20.55 47.9338 18.99 47.4838 16.89H57.6638V13.51C57.6638 8.63 55.4538 5.03 51.7738 5.03C48.0938 5.03 45.3438 7.55 45.3438 11.99C45.3438 16.43 48.0938 18.95 51.6738 18.95C53.2938 18.95 54.6238 18.35 55.6138 17.39L57.4838 19.2C56.1438 20.45 54.4538 21.23 52.5138 21.23C48.4938 21.23 44.6738 18.65 44.6738 14.21C44.6738 9.77 47.4838 7.25 51.7738 7.25C55.5938 7.25 58.1138 9.53 58.1138 13.06C58.1138 13.78 58.0538 14.38 57.9338 14.85H48.1138C48.7138 17.51 50.2738 18.95 52.3338 18.95L52.3338 23.33Z" fill="#5F6368"/>
<path d="M60.1011 23V2.4H63.5811V23H60.1011Z" fill="#5F6368"/>
<path d="M68.0494 23.33C69.7294 23.33 70.8494 22.73 71.6594 21.95L71.7794 23H75.0794V7.5H71.7794V9.35C70.8494 8.21 69.5494 7.25 67.9294 7.25C65.0694 7.25 62.4494 9.47 62.4494 12.65V23H65.8094V13.07C65.8094 10.85 67.2694 9.47 68.9494 9.47C70.6294 9.47 71.7794 10.55 71.7794 12.65V23H68.0494V23.33Z" fill="#5F6368"/>
</svg>
