<?xml version="1.0" encoding="UTF-8"?> <svg xmlns="http://www.w3.org/2000/svg" xmlns:xlink="http://www.w3.org/1999/xlink" width="110px" height="23px" viewBox="0 0 110 23" version="1.1"><title>Group 11</title><defs><polygon id="path-1" points="0 0 33.144 0 33.144 22.0145 0 22.0145"></polygon><polygon id="path-3" points="0 0 9.5497 0 9.5497 19.3539 0 19.3539"></polygon></defs><g id="Design" stroke="none" stroke-width="1" fill="none" fill-rule="evenodd"><g id="Group-11" transform="translate(0.5471, 0.5495)"><g id="Group-3" transform="translate(0, 0.0005)"><mask id="mask-2" fill="white"><use xlink:href="#path-1"></use></mask><g id="Clip-2"></g><path d="M3.58,14.518 C3.58,15.784 3.858,16.755 4.221,17.343 C4.697,18.113 5.407,18.439 6.131,18.439 C7.064,18.439 7.918,18.207 9.564,15.931 C10.883,14.107 12.437,11.545 13.482,9.94 L15.252,7.22 C16.482,5.331 17.906,3.231 19.538,1.807 C20.87,0.645 22.307,0 23.754,0 C26.183,0 28.496,1.407 30.266,4.047 C32.204,6.937 33.144,10.578 33.144,14.336 C33.144,16.57 32.704,18.211 31.955,19.508 C31.231,20.762 29.82,22.015 27.447,22.015 L27.447,18.439 C29.479,18.439 29.986,16.572 29.986,14.435 C29.986,11.39 29.276,8.01 27.712,5.596 C26.602,3.883 25.164,2.836 23.581,2.836 C21.869,2.836 20.492,4.127 18.944,6.429 C18.121,7.652 17.276,9.142 16.328,10.824 L15.284,12.674 C13.186,16.393 12.654,17.24 11.606,18.639 C9.767,21.087 8.197,22.015 6.131,22.015 C3.679,22.015 2.129,20.953 1.169,19.353 C0.385,18.05 0,16.339 0,14.39 L3.58,14.518 Z" id="Fill-1" fill="#000000" mask="url(#mask-2)"></path></g><path d="M2.8227,4.2995 C4.4637,1.7695 6.8327,0.0005 9.5497,0.0005 C11.1227,0.0005 12.6867,0.4655 14.3197,1.7995 C16.1067,3.2575 18.0107,5.6585 20.3857,9.6155 L21.2377,11.0355 C23.2937,14.4605 24.4637,16.2235 25.1487,17.0545 C26.0287,18.1215 26.6457,18.4395 27.4467,18.4395 C29.4787,18.4395 29.9857,16.5725 29.9857,14.4355 L33.1437,14.3365 C33.1437,16.5705 32.7037,18.2115 31.9547,19.5085 C31.2307,20.7625 29.8197,22.0145 27.4467,22.0145 C25.9717,22.0145 24.6647,21.6945 23.2187,20.3315 C22.1077,19.2845 20.8087,17.4255 19.8097,15.7545 L16.8367,10.7885 C15.3457,8.2965 13.9777,6.4385 13.1857,5.5975 C12.3337,4.6925 11.2387,3.5995 9.4917,3.5995 C8.0777,3.5995 6.8767,4.5925 5.8717,6.1105 L2.8227,4.2995 Z" id="Fill-4" fill="#000000"></path><g id="Group-8"><mask id="mask-4" fill="white"><use xlink:href="#path-3"></use></mask><g id="Clip-7"></g><path d="M9.4917,3.5999 C8.0777,3.5999 6.8767,4.5919 5.8717,6.1099 C4.4507,8.2549 3.5797,11.4499 3.5797,14.5189 C3.5797,15.7839 3.8577,16.7559 4.2207,17.3439 L1.1687,19.3539 C0.3847,18.0499 -0.0003,16.3399 -0.0003,14.3909 C-0.0003,10.8459 0.9727,7.1519 2.8227,4.2999 C4.4637,1.7699 6.8327,-0.0001 9.5497,-0.0001 L9.4917,3.5999 Z" id="Fill-6" fill="#000000" mask="url(#mask-4)"></path></g><path d="M109.2666,21.6277 L106.0666,21.6277 L106.0666,19.4447 C105.1726,20.7297 103.5446,22.0007 100.9086,22.0007 C96.6696,22.0007 93.8366,18.4527 93.8366,13.8237 C93.8366,9.1507 96.7376,5.6597 101.0886,5.6597 C103.2396,5.6597 104.9266,6.5197 106.0666,8.0377 L106.0666,6.0337 L109.2666,6.0337 L109.2666,21.6277 Z M106.0066,11.4907 C105.3526,9.8377 103.8916,8.6207 101.7456,8.6207 C98.9566,8.6207 97.1716,10.5997 97.1716,13.8237 C97.1716,16.9667 98.8146,19.0417 101.6126,19.0417 C103.8116,19.0417 105.3816,17.7617 106.0066,16.1697 L106.0066,11.4907 Z M84.2976,8.8007 L81.1876,8.8007 L81.1876,6.0337 L84.2976,6.0337 L84.2976,1.4597 L87.5576,1.4597 L87.5576,6.0337 L92.2816,6.0337 L92.2816,8.8007 L87.5576,8.8007 L87.5576,15.8117 C87.5576,18.2057 88.3226,19.0567 90.2036,19.0567 C91.0626,19.0567 91.5546,18.9827 92.2816,18.8617 L92.2816,21.5977 C91.3756,21.8537 90.5116,21.9707 89.5756,21.9707 C86.0566,21.9707 84.2976,20.0487 84.2976,16.1997 L84.2976,8.8007 Z M65.3846,13.8687 C65.3846,9.1177 68.4556,5.6597 73.0246,5.6597 C77.5186,5.6597 80.2016,9.0737 80.2016,14.1217 L80.2016,15.0497 L68.7346,15.0497 C69.1406,17.5057 70.7706,19.1607 73.3986,19.1607 C75.4956,19.1607 76.8056,18.5217 78.0486,17.3517 L79.8426,19.5497 C78.1526,21.1047 76.0016,22.0007 73.2786,22.0007 C68.3336,22.0007 65.3846,18.3947 65.3846,13.8687 L65.3846,13.8687 Z M72.9656,8.5007 C70.5426,8.5007 69.0836,10.3237 68.7346,12.5817 L76.9566,12.5817 C76.7876,10.2557 75.4456,8.5007 72.9656,8.5007 Z M40.1036,0.6967 L44.2446,0.6967 L51.2866,13.4347 L58.3286,0.6967 L62.3796,0.6967 L62.3796,21.6277 L59.0016,21.6277 L59.0016,5.5857 L52.8256,16.6947 L49.6566,16.6947 L43.4816,5.5857 L43.4816,21.6277 L40.1036,21.6277 L40.1036,0.6967 Z" id="Fill-9" fill="#000000"></path></g></g></svg> 