<?xml version="1.0" encoding="UTF-8"?> <svg xmlns="http://www.w3.org/2000/svg" xmlns:xlink="http://www.w3.org/1999/xlink" width="124px" height="16px" viewBox="0 0 124 16" version="1.1"><title>Group 21</title><defs><polygon id="path-1" points="0 0 11.36 0 11.36 15.2176 0 15.2176"></polygon><polygon id="path-3" points="0 0 12.86 0 12.86 14.7898 0 14.7898"></polygon><polygon id="path-5" points="0 0 15.432 0 15.432 15.2175 0 15.2175"></polygon><polygon id="path-7" points="0 0 11.574 0 11.574 15.2179 0 15.2179"></polygon></defs><g id="Design" stroke="none" stroke-width="1" fill="none" fill-rule="evenodd"><g id="Group-21" transform="translate(0.5471, 0.5495)"><polygon id="Fill-1" fill="#000000" points="30.9717 0.4283 30.9717 4.2863 34.8297 4.2863 34.8297 14.7893 39.1157 14.7893 39.1157 4.2863 42.9737 4.2863 42.9737 0.4283"></polygon><g id="Group-20"><g id="Group-4" transform="translate(43.9385, 0)"><mask id="mask-2" fill="white"><use xlink:href="#path-1"></use></mask><g id="Clip-3"></g><path d="M7.245,5.9156 L5.616,5.4866 C4.737,5.2516 4.287,4.9296 4.287,4.5436 C4.287,3.9656 4.952,3.6436 6.152,3.6436 C7.631,3.6436 9.238,4.2226 10.61,5.2516 L10.61,1.1786 C9.024,0.3856 7.417,-0.0004 5.723,-0.0004 C2.208,-0.0004 0,1.7786 0,4.6296 C0,6.8156 1.244,8.2306 3.751,8.8946 L5.83,9.4526 C6.666,9.6666 7.073,10.0096 7.073,10.4806 C7.073,11.1886 6.345,11.5746 5.037,11.5746 C3.323,11.5746 1.544,10.9096 0.107,9.7306 L0.107,13.8036 C1.779,14.7466 3.558,15.2176 5.466,15.2176 C9.088,15.2176 11.36,13.3526 11.36,10.3736 C11.36,8.1236 9.989,6.6446 7.245,5.9156" id="Fill-2" fill="#000000" mask="url(#mask-2)"></path></g><g id="Group-7" transform="translate(16.8258, 0.4282)"><mask id="mask-4" fill="white"><use xlink:href="#path-3"></use></mask><g id="Clip-6"></g><path d="M8.573,8.681 C8.573,9.881 7.63,10.824 6.43,10.824 C5.229,10.824 4.286,9.881 4.286,8.681 L4.286,0 L0,0 L0,8.359 C0,12.132 2.657,14.79 6.43,14.79 C10.202,14.79 12.86,12.132 12.86,8.359 L12.86,0 L8.573,0 L8.573,8.681 Z" id="Fill-5" fill="#000000" mask="url(#mask-4)"></path></g><g id="Group-10"><mask id="mask-6" fill="white"><use xlink:href="#path-5"></use></mask><g id="Clip-9"></g><path d="M7.716,11.2525 C5.851,11.2525 4.394,9.6455 4.394,7.6085 C4.394,5.5725 5.851,3.9655 7.716,3.9655 C9.581,3.9655 11.038,5.5725 11.038,7.6085 C11.038,9.6455 9.581,11.2525 7.716,11.2525 M7.716,-0.0005 C3.387,-0.0005 0,3.3435 0,7.6085 C0,11.8745 3.387,15.2175 7.716,15.2175 C12.046,15.2175 15.432,11.8745 15.432,7.6085 C15.432,3.3435 12.046,-0.0005 7.716,-0.0005" id="Fill-8" fill="#000000" mask="url(#mask-6)"></path></g><polygon id="Fill-11" fill="#000000" points="117.6706 10.931 117.6706 0.429 113.3836 0.429 113.3836 14.789 123.4576 14.789 123.4576 10.931"></polygon><path d="M104.2532,11.1455 C103.2462,11.1455 101.7452,10.5455 100.6312,9.7095 C99.5812,8.9165 98.7442,8.5735 97.8442,8.5735 C96.9662,8.5735 96.1082,8.9165 95.0582,9.7305 C93.9442,10.5665 92.4432,11.1455 91.4362,11.1455 C89.5712,11.1455 88.0922,9.5815 88.0922,7.6085 C88.0922,5.6375 89.5712,4.0725 91.4362,4.0725 C92.4432,4.0725 93.9442,4.6515 95.0582,5.4865 C96.1512,6.3015 97.0082,6.6445 97.8442,6.6445 C98.7442,6.6445 99.5812,6.3015 100.6312,5.5085 C101.7452,4.6725 103.2462,4.0725 104.2532,4.0725 C106.1182,4.0725 107.5972,5.6375 107.5972,7.6085 C107.5972,9.5815 106.1182,11.1455 104.2532,11.1455 M104.2742,0.0005 C102.4952,0.0005 101.2312,0.4285 99.6662,1.5435 C98.7232,2.1435 98.2522,2.3575 97.8442,2.3575 C97.3512,2.3575 96.9012,2.1435 96.0232,1.5435 C94.4582,0.4285 93.1932,0.0005 91.4142,0.0005 C87.0852,0.0005 83.6982,3.3435 83.6982,7.6085 C83.6982,11.8745 87.0852,15.2175 91.4142,15.2175 C93.1722,15.2175 94.4362,14.7895 96.0232,13.6745 C96.8802,13.0535 97.3302,12.8605 97.8442,12.8605 C98.3802,12.8605 98.8302,13.0535 99.6662,13.6745 C101.2312,14.7895 102.4952,15.2175 104.2742,15.2175 C108.6042,15.2175 111.9902,11.8745 111.9902,7.6085 C111.9902,3.3435 108.6042,0.0005 104.2742,0.0005" id="Fill-13" fill="#000000"></path><polygon id="Fill-15" fill="#000000" points="78.0184 5.5727 73.7314 5.5727 73.7314 0.4287 69.4454 0.4287 69.4454 14.7887 73.7314 14.7887 73.7314 9.4307 78.0184 9.4307 78.0184 14.7887 82.3054 14.7887 82.3054 0.4287 78.0184 0.4287"></polygon><g id="Group-19" transform="translate(56.1561, 0)"><mask id="mask-8" fill="white"><use xlink:href="#path-7"></use></mask><g id="Clip-18"></g><path d="M0,7.6089 C0,12.0669 3.194,15.2179 7.716,15.2179 C8.895,15.2179 10.395,14.9609 11.574,14.5539 L11.574,10.4809 C10.61,10.9959 9.538,11.2529 8.359,11.2529 C6.023,11.2529 4.394,9.7519 4.394,7.6089 C4.394,5.4659 6.023,3.9649 8.359,3.9649 C9.474,3.9649 10.545,4.2439 11.574,4.7799 L11.574,0.7069 C10.46,0.2789 8.981,-0.0001 7.716,-0.0001 C3.194,-0.0001 0,3.1509 0,7.6089" id="Fill-17" fill="#000000" mask="url(#mask-8)"></path></g></g></g></g></svg> 