<?xml version="1.0" encoding="UTF-8"?> <svg xmlns="http://www.w3.org/2000/svg" xmlns:xlink="http://www.w3.org/1999/xlink" width="121px" height="15px" viewBox="0 0 121 15" version="1.1"><title>Group 18</title><defs><polygon id="path-1" points="0 0 15.5657292 0 15.5657292 13.469148 0 13.469148"></polygon><polygon id="path-3" points="0 13.493 120.438 13.493 120.438 0 0 0"></polygon></defs><g id="Design" stroke="none" stroke-width="1" fill="none" fill-rule="evenodd"><g id="Group-18" transform="translate(0.5471, 0.5495)"><path d="M23.865,9.704 C24.33,9.617 24.834,9.569 25.31,9.425 C26.545,9.05 27.21,8.139 27.235,6.864 C27.262,5.516 26.644,4.585 25.39,4.159 C24.26,3.775 23.121,3.803 22.008,4.235 C21.349,4.49 20.861,4.946 20.585,5.613 C19.879,7.311 20.737,9.055 22.515,9.493 C22.942,9.599 23.387,9.632 23.865,9.704 M24.514,13.4840037 C22.074,13.471 20.475,13.258 18.974,12.554 C16.508,11.397 15.261,9.457 15.2748834,6.727 C15.288,4.027 16.533,2.059 18.993,1.012 C22.145,-0.329 25.388,-0.335 28.551,0.981 C31.057,2.024 32.332,4.009 32.3430592,6.74 C32.353,9.464 31.096,11.406 28.626,12.558 C27.068,13.285 25.408,13.485 24.514,13.4840037" id="Fill-1" fill="#000000"></path><path d="M119.9047,1.8325 C119.1177,2.7935 118.3967,3.6745 117.6367,4.6025 C115.6207,3.4685 113.4747,3.2555 111.2637,3.5065 C110.9687,3.5395 110.6907,3.7235 110.3887,3.8435 C110.6147,4.4775 111.1157,4.4505 111.5247,4.5135 C112.2237,4.6215 112.9377,4.6335 113.6397,4.7335 C114.7487,4.8905 115.8577,5.0625 116.9567,5.2785 C117.4137,5.3675 117.8547,5.5655 118.2877,5.7495 C121.0927,6.9445 120.7817,10.0865 119.4557,11.5175 C118.8567,12.1635 118.1227,12.5845 117.3087,12.8825 C116.2447,13.2735 115.1367,13.4265 114.0087,13.4655 C111.2517,13.5595 108.5867,13.1845 106.1067,11.8945 C105.7207,11.6945 105.3607,11.4445 104.8947,11.1605 C105.7177,10.2125 106.4847,9.3285 107.2777,8.4165 C108.5207,9.1475 109.7897,9.7125 111.1817,9.8775 C112.2027,9.9985 113.2387,10.0285 114.2677,10.0405 C114.7227,10.0465 115.2617,10.0265 115.4457,9.4645 C115.5447,9.1625 115.1227,8.9055 114.3487,8.8005 C112.9737,8.6135 111.5817,8.5175 110.2247,8.2435 C109.2247,8.0415 108.2137,7.7265 107.3047,7.2685 C104.7387,5.9765 105.1017,2.9635 106.8727,1.6225 C108.0457,0.7355 109.3977,0.3335 110.8177,0.1805 C113.4677,-0.1055 116.0687,0.1215 118.5557,1.1605 C118.9827,1.3385 119.3857,1.5725 119.9047,1.8325" id="Fill-3" fill="#000000"></path><path d="M39.0872,6.6156 C40.3932,6.6156 41.6202,6.6176 42.8472,6.6116 C42.9612,6.6116 43.0762,6.5656 43.1882,6.5306 C43.8422,6.3256 44.1532,5.8876 44.1252,5.2176 C44.0972,4.5656 43.7372,4.1026 43.0562,4.0186 C41.7492,3.8566 40.4382,3.9586 39.0872,3.9496 L39.0872,6.6156 Z M39.0302,9.8516 L39.0302,13.0046 L34.1372,13.0046 C33.9582,12.3966 33.9092,1.6986 34.0922,0.5356 C34.3022,0.5176 34.5282,0.4836 34.7532,0.4826 C37.5272,0.4806 40.3012,0.4756 43.0742,0.4866 C44.3232,0.4926 45.5472,0.6676 46.6942,1.1936 C48.3322,1.9446 49.1562,3.2356 49.1922,5.0346 C49.2282,6.8646 48.4642,8.2156 46.8082,9.0366 C45.6152,9.6276 44.3262,9.7626 43.0242,9.7986 C42.0222,9.8276 41.0182,9.8036 40.0152,9.8096 C39.7262,9.8116 39.4382,9.8336 39.0302,9.8516 L39.0302,9.8516 Z" id="Fill-5" fill="#000000"></path><path d="M80.2413,8.0495 C81.3303,8.0095 82.1953,8.1345 83.1773,7.9405 C82.6943,6.8575 82.2473,5.8565 81.7313,4.6995 C81.2123,5.8675 80.7663,6.8705 80.2413,8.0495 M79.1153,0.4815 C80.7603,0.4815 82.4403,0.4875 84.1193,0.476483499 C84.4463,0.4745 84.5883,0.6545 84.7103,0.9095 C84.9523,1.4145 85.2073,1.9145 85.4563,2.4155 C87.0833,5.6905 88.7103,8.9655 90.3353,12.2415 C90.4503,12.4725 90.5513,12.7105 90.6903,13.0155 L85.4693,13.0155 C85.1913,12.4165 84.9073,11.8075 84.6023,11.1515 L78.8623,11.1515 C78.5803,11.7645 78.2983,12.3785 78.0013,13.0245 L72.9763,13.0245 C73.0563,12.4415 78.2173,1.8875 79.1153,0.4815" id="Fill-7" fill="#000000"></path><g id="Group-11" transform="translate(57.3238, 0.0239)"><mask id="mask-2" fill="white"><use xlink:href="#path-1"></use></mask><g id="Clip-10"></g><path d="M15.4807292,3.42664797 C14.1367292,4.13864797 12.8407292,4.82464797 11.4217292,5.57764797 C11.3297292,5.42064797 11.2717292,5.27564797 11.1757292,5.16564797 C10.0797292,3.91264797 8.68072923,3.67264797 7.14372923,4.03064797 C5.88572923,4.32364797 5.11772923,5.36564797 5.09672923,6.69064797 C5.07472923,8.04964797 5.76672923,9.09164797 7.02272923,9.43864797 C8.65572923,9.88764797 10.1237292,9.61064797 11.2847292,8.27264797 C11.3417292,8.20664797 11.3997292,8.14064797 11.4617292,8.07764797 C11.4807292,8.05764797 11.5117292,8.04864797 11.6417292,7.97664797 C12.8997292,8.64064797 14.2167292,9.33564797 15.5657292,10.047648 C15.0447292,11.006648 14.3147292,11.632648 13.4727292,12.140648 C12.4747292,12.741648 11.3897292,13.122648 10.2417292,13.293648 C8.10872923,13.610648 5.99772923,13.546648 3.97872923,12.699648 C1.44472923,11.636648 0.0707292331,9.73664797 0.00272923314,6.96264797 C-0.0672707669,4.11964797 1.20972923,2.00064797 3.77972923,0.930647971 C6.74372923,-0.305352029 9.75172923,-0.332352029 12.7177292,0.982647971 C13.9777292,1.54164797 14.7717292,2.26864797 15.4807292,3.42664797" id="Fill-9" fill="#000000" mask="url(#mask-2)"></path></g><path d="M14.4055,0.5746 L14.4055,4.1596 L9.7095,4.1596 L9.7095,13.0166 L4.7055,13.0166 L4.7055,4.2326 C3.1215,4.1016 1.5955,4.2456 0.000500000002,4.1406 L0.000500000002,0.6316 C0.5655,0.4426 13.0275,0.3756 14.4055,0.5746" id="Fill-12" fill="#000000"></path><path d="M96.6058,9.3435 L104.2938,9.3435 L104.2938,12.9965 L91.6378,12.9965 L91.6378,0.6305 C92.2328,0.4465 95.4618,0.4015 96.6058,0.5785 L96.6058,9.3435 Z" id="Fill-14" fill="#000000"></path><mask id="mask-4" fill="white"><use xlink:href="#path-3"></use></mask><g id="Clip-17"></g><polygon id="Fill-16" fill="#000000" mask="url(#mask-4)" points="50.685 13.013 55.602 13.013 55.602 0.508 50.685 0.508"></polygon></g></g></svg> 