<svg width="87" height="24" viewBox="0 0 87 24" fill="none" xmlns="http://www.w3.org/2000/svg">
<path d="M5.53931 16.16V7.92H0.919312V16.16H5.53931Z" fill="black"/>
<path d="M11.6391 10.3C11.6391 8.59 12.5991 7.69 14.1191 7.69C15.6391 7.69 16.5991 8.59 16.5991 10.3V16.16H21.2191V10.1C21.2191 6.84 18.5991 4.49 15.3591 4.49C12.1191 4.49 9.49912 6.84 9.49912 10.1V16.16H14.1191V10.3H11.6391Z" fill="black"/>
<path d="M30.0188 10.1C30.0188 6.84 27.3988 4.49 24.1588 4.49C20.9188 4.49 18.2988 6.84 18.2988 10.1V16.16H22.9188V10.3C22.9188 8.59 23.8788 7.69 25.3988 7.69C26.9188 7.69 27.8788 8.59 27.8788 10.3V16.16H32.4988V10.1H30.0188Z" fill="black"/>
<path d="M43.0983 14.23L40.9783 7.92H36.1783L39.2983 17.51C39.6983 18.71 40.5383 19.51 41.6583 19.51C41.8183 19.51 41.9383 19.51 42.0983 19.47L42.5383 23.01C42.2183 23.07 41.8983 23.1 41.5783 23.1C39.3383 23.1 37.7783 21.78 37.1383 19.8L32.8183 5.42H37.8583L40.3783 12.91L42.8583 5.42H47.4183L43.0983 14.23Z" fill="black"/>
<path d="M57.6575 12.11C58.3375 13.99 57.6175 15.36 55.8775 15.36C54.4975 15.36 53.6175 14.51 53.1375 13.73L57.6575 12.11ZM56.3375 4.49C52.4575 4.49 49.3375 7.64 49.3375 12.33C49.3375 16.7 52.4575 19.51 56.3375 19.51C57.9775 19.51 59.3375 19.03 60.3375 18.2L58.8575 15.01C58.1375 15.53 57.2975 15.83 56.4575 15.83C55.6175 15.83 54.8575 15.42 54.3375 14.58L61.0575 11.91C61.0575 11.84 61.0775 11.72 61.0775 11.58C61.0775 7.64 59.0975 4.49 56.3375 4.49ZM56.3375 7.71C57.5375 7.71 58.3175 8.65 58.6975 9.7L53.8575 11.56C54.1175 9.21 55.0375 7.71 56.3375 7.71Z" fill="black"/>
<path d="M68.0369 4.84V7.92H63.4169V16.16H58.7969V7.92H54.1769V4.84H68.0369Z" fill="black"/>
<path d="M78.696 16.16V4.84H86.256L86.136 7.4H81.176V9.9H85.416V12.4H81.176V13.66H86.376L86.256 16.16H78.696Z" fill="black"/>
</svg>
