<?xml version="1.0" encoding="UTF-8"?> <svg xmlns="http://www.w3.org/2000/svg" xmlns:xlink="http://www.w3.org/1999/xlink" width="108px" height="30px" viewBox="0 0 108 30" version="1.1"><title>Group 22</title><defs><polygon id="path-1" points="0 0 107.176617 0 107.176617 28.9009926 0 28.9009926"></polygon></defs><g id="Design" stroke="none" stroke-width="1" fill="none" fill-rule="evenodd"><g id="Group-22" transform="translate(0.5471, 0.5495)"><g id="Group-3"><mask id="mask-2" fill="white"><use xlink:href="#path-1"></use></mask><g id="Clip-2"></g></g><path d="M107.176637,1.51500999 C107.089104,1.50853357 107.00147,1.50205715 106.880341,1.49305088 C106.872853,1.18926636 106.865364,0.88983318 106.857977,0.5904 C106.838447,0.587768955 106.818815,0.58513791 106.799285,0.582506865 C106.704769,0.882850791 106.610254,1.18319472 106.512602,1.49335447 L106.23108,1.49335447 C106.134642,1.18147442 106.038204,0.869796759 105.941766,0.558017906 C105.923956,0.559434622 105.906247,0.560851561 105.888437,0.562268056 C105.8429,0.863522729 105.897342,1.17348009 105.85393,1.4928485 C105.767207,1.49740223 105.690906,1.5013488 105.596796,1.50620611 L105.596796,0.0876679832 L106.040026,0.0876679832 C106.139398,0.390642955 106.240997,0.700397928 106.342596,1.0101529 C106.361216,1.01136723 106.379734,1.01258156 106.398354,1.01379589 C106.502584,0.707481511 106.606712,0.401065942 106.713371,0.0877691773 C106.872954,0.0784593251 107.024846,0.0696554432 107.176637,0.0608515612 L107.176637,1.51500999 Z" id="Fill-4" fill="#000000"></path><path d="M33.28344,14.3704283 C33.2934582,13.9991473 33.2373967,13.5190828 33.1246665,13.0461018 C32.8745148,11.9968208 32.3807891,11.0861755 31.5509979,10.3807519 C30.512241,9.49773261 29.3007459,9.19020391 27.957901,9.34189378 C26.5951207,9.49580993 25.5732633,10.1877748 24.8343444,11.3187195 C24.6627193,11.5816216 24.5044518,11.8562622 24.3695601,12.1395044 C23.7271803,13.4890281 23.4337176,14.9323588 23.2371987,16.4011904 C23.2178707,16.5453919 23.273831,16.6501277 23.3512444,16.7565839 C24.1270992,17.8239787 25.1008895,18.6523531 26.3118786,19.1911102 C27.2249525,19.5973031 28.185284,19.7643745 29.1747594,19.6396022 C30.6182924,19.4576553 31.7285935,18.7261236 32.4919002,17.4889252 C33.0584856,16.570488 33.2879937,15.557738 33.28344,14.3704283 M22.5707348,20.7098304 C22.1243678,23.4304324 21.6831618,26.1195629 21.2428665,28.8028242 C21.0614256,28.8630347 17.7317367,28.8767971 17.4443456,28.8185093 C17.4965617,28.5109806 17.5473612,28.2024399 17.6015,27.8943041 C17.8888911,26.2571868 18.1764845,24.6199684 18.4651911,22.9830535 C18.7636124,21.2903807 19.0544441,19.5963924 19.3692587,17.9068566 C19.4385767,17.5348673 19.3924322,17.2469702 19.1697041,16.9226433 C17.8853493,15.0522738 16.9488996,13.0079517 16.2257669,10.8635486 C16.0634517,10.3820674 15.9247146,9.89269297 15.7746439,9.40706275 C15.755923,9.34644752 15.7341663,9.28684422 15.7076534,9.20862123 C15.6223468,9.29139796 15.6503776,9.38216901 15.6501752,9.46110037 C15.6481513,10.5839495 15.6521991,11.7067986 15.6476453,12.8296478 C15.6443059,13.661564 15.6640388,14.4953017 15.6144537,15.3246881 C15.5091107,17.087286 14.994539,18.7201531 13.90984,20.1383877 C12.7367986,21.6721858 11.1812438,22.5854621 9.27333124,22.8859072 C7.80834504,23.1166296 6.36724064,23.0095663 4.97936431,22.4662555 C3.05849894,21.7143837 1.71970173,20.350288 0.876755328,18.4878116 C0.332533752,17.2855251 0.0818761021,16.0152363 0.0771199819,14.7008268 C0.0675065476,12.0431676 0.0739829665,9.38540722 0.0751972951,6.72764682 C0.0751972951,6.63414352 0.0889596852,6.54053903 0.0970552089,6.43681513 L3.79549518,6.43681513 C3.8019716,6.51524052 3.81290055,6.5852668 3.81259697,6.65519188 C3.80166801,9.10256987 3.79377488,11.550049 3.77545876,13.997427 C3.76888114,14.881357 3.80804324,15.7574951 4.0653797,16.6104597 C4.29519137,17.3720461 4.65402546,18.0606715 5.22880763,18.6237152 C5.85944892,19.2414037 6.61992218,19.5708915 7.496465,19.6628769 C8.07792598,19.7238969 8.64471383,19.6720855 9.19642376,19.4929721 C10.0325902,19.2214684 10.6582729,18.6813958 11.1114199,17.9367088 C11.5300596,17.2485893 11.7600737,16.4935805 11.8485173,15.700118 C11.90468,15.1957669 11.9298773,14.6855465 11.9314964,14.177856 C11.9396931,11.7140846 11.9352406,9.25021198 11.9352406,6.78633936 L11.9352406,6.43964857 L18.4419165,6.43964857 C18.9522381,8.38894946 19.473691,10.3419945 20.4097359,12.1486118 C20.4298735,12.1493202 20.44991,12.1501297 20.4700476,12.1508381 C20.4961556,12.0640136 20.523478,11.9774927 20.5480682,11.8902634 C20.8890921,10.6831197 21.4545644,9.59457532 22.2847604,8.65023248 C23.4874516,7.28219019 25.0015169,6.46464349 26.7862763,6.12503628 C27.6431875,5.96201267 28.510724,5.90412968 29.371177,5.99864492 C32.5788258,6.35120497 34.9103366,7.96798223 36.2743312,10.9057466 C36.8810907,12.2126677 37.0796334,13.6042882 36.9974638,15.0392197 C36.8971805,16.7878528 36.3485064,18.3770041 35.2759507,19.7676127 C33.9990843,21.4231473 32.3197691,22.4522907 30.2632025,22.8342982 C28.0245878,23.2501046 25.9190433,22.8775081 23.9794571,21.6674297 C23.5618292,21.406855 23.1657557,21.111672 22.7595628,20.8328824 C22.7083587,20.7976669 22.6555354,20.7649812 22.5707348,20.7098304" id="Fill-6" fill="#000000"></path><path d="M51.1182529,6.43873782 C52.0779773,10.1554939 53.0357789,13.864964 53.9935805,17.5745353 C54.0102776,17.5776724 54.0269746,17.5809106 54.0436716,17.5841488 C54.0656307,17.5243431 54.0938638,17.4659541 54.1088406,17.4044282 C54.4327627,16.0715002 54.7555717,14.7382686 55.0781783,13.4049359 C55.6189593,11.1697618 56.1593355,8.93438536 56.7006225,6.69921129 C56.721266,6.61390471 56.7486896,6.53031843 56.775506,6.43701752 L60.7464616,6.43701752 C59.2778324,11.7957482 57.8141617,17.1370735 56.3491755,22.4828513 L51.8576778,22.4828513 C50.8320762,18.7101349 49.8045518,14.9308409 48.7771287,11.1514457 C48.7563839,11.1508385 48.7356391,11.1501302 48.7148944,11.1494218 C48.4871066,11.8884419 48.2988856,12.6392006 48.092045,13.3843935 C47.8805495,14.1463847 47.674316,14.9097925 47.4651479,15.6724921 C47.2581049,16.4272984 47.0503535,17.1819024 46.8430069,17.9367088 C46.6335352,18.699206 46.4245695,19.4619055 46.2147943,20.2244026 C46.0075489,20.9775899 45.7995951,21.7305748 45.5915402,22.4848752 L41.1027747,22.4848752 C39.7198569,17.1445618 38.3372426,11.8057664 36.9484556,6.44268439 L40.7172254,6.44268439 C41.61087,10.1476008 42.5080564,13.8669879 43.4052428,17.586375 C43.4274043,17.5867798 43.449667,17.5871846 43.4718285,17.5876906 C44.4417734,13.8760954 45.3941106,10.1599464 46.3646627,6.43873782 L51.1182529,6.43873782 Z" id="Fill-8" fill="#000000"></path><path d="M93.8001506,11.2271186 C94.1358112,11.2053619 94.4257322,11.1990879 94.7125161,11.1653902 C95.4634771,11.077149 96.1897468,10.8963153 96.8682529,10.5510412 C98.2210149,9.86282049 99.0105308,8.7699248 99.2292111,7.27002666 C99.2605813,7.05488812 99.2685756,6.83641018 99.2893204,6.61965253 C99.2945825,6.56440058 99.3070293,6.50985699 99.3186667,6.44043788 L102.954973,6.44043788 C103.103122,7.20637561 102.72668,9.26000756 101.676387,10.8177887 C100.789724,12.1331089 99.6275109,13.1110482 98.1193148,13.7283318 C98.5205492,14.3304364 98.9217836,14.901778 99.315732,15.4778757 C99.7125139,16.0581223 100.111927,16.6365475 100.510125,17.2157822 C100.912878,17.8016957 101.315832,18.3874069 101.718483,18.9735228 C102.11648,19.5528587 102.514071,20.1324982 102.911966,20.7119353 C103.308748,21.2897533 103.705732,21.8674701 104.123158,22.4752415 C104.026821,22.4834382 103.966712,22.4929505 103.906703,22.4929505 C102.652403,22.4938612 101.398002,22.4902182 100.143702,22.497909 C99.983208,22.4988197 99.8957763,22.4419487 99.8118864,22.314849 C98.1697095,19.8269934 96.5237883,17.3415664 94.8785755,14.8556335 C94.8385027,14.7950183 94.8062218,14.7253968 94.7540057,14.6776332 C94.7052301,14.6331078 94.6359122,14.587874 94.5737791,14.5851418 C94.3319253,14.5746176 94.0893632,14.5808917 93.8335446,14.5808917 C93.8209966,14.6458582 93.8054127,14.6982768 93.8020733,14.7513024 C93.7970136,14.8318529 93.8002518,14.9128081 93.8001506,14.993561 C93.7966088,17.3843715 93.7931682,19.775182 93.7896264,22.1659925 C93.7895252,22.2616209 93.7896264,22.3573505 93.7896264,22.4447821 C93.5941195,22.5029687 90.4527528,22.5190585 90.1134491,22.4715985 C90.1070739,22.4665388 90.0996867,22.4623899 90.0948294,22.4561158 C90.0900733,22.449943 90.0859244,22.4420499 90.0850136,22.4344603 C90.07793,22.3787024 90.0658494,22.3229445 90.0658494,22.2671866 C90.0655844,14.9249514 90.0660903,7.58271626 90.0671023,0.240481111 C90.0671023,0.208604987 90.0740847,0.17642528 90.0813706,0.145257514 C90.0848112,0.130584378 90.0965497,0.117833928 90.1131456,0.0896007895 L93.7819357,0.0896007895 C93.8218061,0.550843248 93.794079,1.00925227 93.7990375,1.46654816 C93.8040972,1.9349754 93.8001506,2.40350383 93.8001506,2.87193107 L93.8001506,4.25312859 L93.8001506,5.63432611 L93.8001506,7.01562483 L93.8001506,8.42100773 L93.8001506,9.80230645 L93.8001506,11.2271186 Z" id="Fill-10" fill="#000000"></path><path d="M73.7301433,14.5321364 C73.7238693,13.5269759 73.5375711,12.6093483 73.0851325,11.7561813 C72.1079016,9.91353895 70.2066679,9.02272777 68.2042401,9.37781767 C66.5923201,9.66369085 65.4596552,10.6047955 64.8230435,12.098116 C64.1736813,13.6211876 64.164675,15.1827129 64.7547375,16.7257197 C65.5430391,18.787346 67.4776668,19.9337733 69.6671012,19.6435488 C71.0254289,19.4635246 72.0865496,18.7744943 72.8426715,17.6340374 C73.4740212,16.6817003 73.7209347,15.6162282 73.7301433,14.5321364 M69.0624668,5.94875625 C72.1195389,6.04944433 74.5473864,7.30546482 76.2004924,9.93114671 C76.9182617,11.0713 77.2958167,12.3325826 77.4088504,13.6745168 C77.5635761,15.5105816 77.2440053,17.2519287 76.3102879,18.8493779 C75.030082,21.0395206 73.1219671,22.3792286 70.6243969,22.8345006 C68.3489476,23.2493962 66.2101102,22.8553466 64.2760896,21.5616819 C62.4968959,20.3714376 61.3696955,18.7048728 60.8803211,16.6319128 C60.3542132,14.4028104 60.5828106,12.2416092 61.7012072,10.2253178 C62.9410366,7.99034612 64.8521873,6.63738173 67.3592698,6.1247327 C67.5410143,6.08759448 67.7244791,6.05298612 67.9088547,6.03578313 C68.2869156,6.0005676 68.6661909,5.97790014 69.0624668,5.94875625" id="Fill-12" fill="#000000"></path><path d="M82.8442255,22.4739361 L79.1713876,22.4739361 C79.1163381,22.2833877 79.1070282,6.70122505 79.1615718,6.44135874 L82.7936285,6.44135874 L82.7936285,8.13048975 C82.8807565,8.06208257 82.9270022,8.0360757 82.9598903,7.99853271 C83.8750892,6.95501972 85.0504581,6.43306083 86.4094941,6.26851932 C87.0228312,6.19414169 87.6363707,6.20051692 88.2510233,6.2262202 C88.2976738,6.22814289 88.3441219,6.23735155 88.403118,6.24473871 L88.403118,9.86009837 C88.3324845,9.86009837 88.2635714,9.86333658 88.1949618,9.8595924 C87.4326671,9.81840642 86.6743189,9.84481807 85.9253818,10.0046035 C84.3955302,10.3310555 83.4841766,11.2786365 83.1282772,12.7844039 C82.988427,13.3759843 82.9053467,13.9761662 82.8890544,14.5817113 C82.8616309,15.6070094 82.8506007,16.6329146 82.8459458,17.6586175 C82.839267,19.1611467 82.8442255,20.663777 82.8442255,22.1663062 L82.8442255,22.4739361 Z" id="Fill-14" fill="#000000"></path><path d="M104.887304,1.49300029 L104.56318,1.49300029 L104.56318,0.38563385 C104.413918,0.370859519 104.287932,0.358412651 104.138772,0.343739515 L104.138772,0.0873138041 L105.315355,0.0873138041 L105.315355,0.337465484 C105.175808,0.354567278 105.043548,0.370758325 104.887304,0.389884 L104.887304,1.49300029 Z" id="Fill-16" fill="#000000"></path></g></g></svg> 